<svg width="20" height="20" viewBox="0 0 20 20" fill="none" xmlns="http://www.w3.org/2000/svg">
<path d="M8.69823 18.9587C7.99544 18.6692 7.75715 18.2982 7.75715 17.52C7.75715 17.0947 7.74509 16.6694 7.75715 16.2441C7.79033 15.3392 7.41329 14.6304 6.73463 14.0663C6.16154 13.5898 5.68196 13.0438 5.34413 12.3802C4.09238 9.92198 4.97916 6.91475 7.36202 5.52123C10.5834 3.63606 14.6313 5.55441 15.1561 9.25236C15.4215 11.1345 14.8364 12.7422 13.3463 13.9698C12.5922 14.5912 12.2031 15.3603 12.2303 16.3406C12.2424 16.8051 12.2303 17.2726 12.2303 17.7402C12.2303 18.3555 11.9226 18.7597 11.3314 18.9316C11.3164 18.9376 11.2862 18.9587 11.2862 18.9587H8.69823ZM11.4823 15.9636C11.5064 15.8037 11.5245 15.6589 11.5547 15.5172C11.7507 14.6274 12.2424 13.9366 12.9271 13.3454C14.224 12.2234 14.7036 10.7816 14.3809 9.11663C13.9073 6.69155 11.6693 5.18642 9.23513 5.59061C6.76782 6.00384 5.05456 8.59481 5.63972 11.0199C5.88102 12.0183 6.38174 12.8447 7.19613 13.4782C7.79034 13.9427 8.21261 14.5339 8.40264 15.2728C8.45995 15.496 8.48409 15.7283 8.5233 15.9636H11.4823ZM11.4853 16.7267H8.5233C8.5233 17.1128 8.5082 17.4898 8.52932 17.8668C8.54138 18.084 8.66808 18.2047 8.86112 18.2077C9.6182 18.2137 10.3753 18.2167 11.1324 18.2077C11.3495 18.2077 11.4762 18.081 11.4853 17.8699C11.4973 17.4928 11.4883 17.1158 11.4883 16.7267H11.4853Z" fill="#D0D1D2" stroke="#D0D1D2" stroke-width="0.361953" stroke-miterlimit="10"/>
<path d="M18.9529 10.1083C18.8684 10.3164 18.7116 10.3797 18.4974 10.3767C18.048 10.3707 17.6016 10.3767 17.1522 10.3767C17.0014 10.3767 16.8596 10.3496 16.7721 10.2078C16.6213 9.96952 16.7631 9.64678 17.0466 9.63471C17.5684 9.61662 18.0932 9.62567 18.6181 9.6317C18.79 9.6317 18.8895 9.74933 18.9529 9.89713V10.0027V10.1083Z" fill="#D0D1D2" stroke="#D0D1D2" stroke-width="0.361953" stroke-miterlimit="10"/>
<path d="M10.3736 2.16959C10.3736 2.40184 10.3767 2.63711 10.3736 2.86937C10.3676 3.13178 10.2289 3.27958 9.99963 3.27958C9.76738 3.27958 9.62863 3.13178 9.62562 2.86937C9.61959 2.39581 9.61959 1.92527 9.62562 1.45172C9.62562 1.1893 9.76738 1.0415 9.99963 1.0415C10.2319 1.0415 10.3676 1.18629 10.3736 1.45172C10.3797 1.69 10.3736 1.92829 10.3736 2.16959Z" fill="#D0D1D2" stroke="#D0D1D2" stroke-width="0.361953" stroke-miterlimit="10"/>
<path d="M2.16206 10.3768C1.92981 10.3768 1.69453 10.3798 1.46228 10.3768C1.1878 10.3707 1.04 10.232 1.04301 9.9937C1.04603 9.76446 1.19685 9.62873 1.46228 9.62873C1.9298 9.62571 2.39431 9.62571 2.86184 9.62873C3.12727 9.62873 3.27507 9.76446 3.2811 9.9937C3.28714 10.232 3.13632 10.3737 2.86184 10.3768C2.62958 10.3798 2.39431 10.3768 2.16206 10.3768Z" fill="#D0D1D2" stroke="#D0D1D2" stroke-width="0.361953" stroke-miterlimit="10"/>
<path d="M10.3736 2.16959C10.3736 2.40184 10.3767 2.63711 10.3736 2.86937C10.3676 3.13178 10.2289 3.27958 9.99963 3.27958C9.76738 3.27958 9.62863 3.13178 9.62562 2.86937C9.61959 2.39581 9.61959 1.92527 9.62562 1.45172C9.62562 1.1893 9.76738 1.0415 9.99963 1.0415C10.2319 1.0415 10.3676 1.18629 10.3736 1.45172C10.3797 1.69 10.3736 1.92829 10.3736 2.16959Z" fill="#D0D1D2" stroke="#D0D1D2" stroke-width="0.361953" stroke-miterlimit="10"/>
<path d="M4.98211 5.42138C4.88041 5.4244 4.7408 5.33089 4.67444 5.26152C4.32757 4.90258 3.98974 4.5346 3.6489 4.16661C3.54333 4.05501 3.50111 3.90721 3.57953 3.78354C3.63986 3.68702 3.75448 3.59955 3.86608 3.56336C3.94149 3.53621 4.07419 3.5724 4.13452 3.63273C4.51457 3.99167 4.88255 4.36267 5.24752 4.7397C5.35309 4.84829 5.37421 5.00212 5.28674 5.12579C5.20831 5.23739 5.09069 5.31883 4.98211 5.42138Z" fill="#D0D1D2" stroke="#D0D1D2" stroke-width="0.361953" stroke-miterlimit="10"/>
<path d="M16.0299 16.496C15.9092 16.4267 15.7705 16.3784 15.674 16.2879C15.3543 15.9893 15.0496 15.6756 14.745 15.3619C14.573 15.19 14.5579 15.009 14.6876 14.8461C14.8234 14.6742 15.0526 14.641 15.2125 14.7948C15.5835 15.1508 15.9424 15.5157 16.3014 15.8807C16.41 15.9893 16.419 16.1311 16.3557 16.2728C16.2983 16.3995 16.2169 16.49 16.051 16.4417C16.045 16.4598 16.0389 16.4779 16.0329 16.496H16.0299Z" fill="#D0D1D2" stroke="#D0D1D2" stroke-width="0.361953" stroke-miterlimit="10"/>
<path d="M3.939 16.4427C3.77009 16.4186 3.63435 16.3824 3.57101 16.2225C3.51068 16.0657 3.5499 15.9269 3.66753 15.8093C4.00837 15.4685 4.34922 15.1246 4.69307 14.7868C4.85897 14.6239 5.0701 14.6299 5.22092 14.7838C5.3657 14.9316 5.37173 15.1397 5.2179 15.2995C4.88008 15.6464 4.53923 15.9873 4.19236 16.3221C4.12902 16.3854 4.02346 16.4065 3.939 16.4457V16.4427Z" fill="#D0D1D2" stroke="#D0D1D2" stroke-width="0.361953" stroke-miterlimit="10"/>
<path d="M15.9439 3.62061C16.1671 3.62664 16.2787 3.70204 16.342 3.84079C16.4024 3.97351 16.3963 4.11226 16.2938 4.21783C15.9439 4.57676 15.594 4.9357 15.232 5.28257C15.0873 5.42132 14.8007 5.40322 14.6861 5.27654C14.5413 5.11969 14.5594 4.92364 14.7434 4.73663C15.0631 4.41389 15.3828 4.09114 15.7086 3.77443C15.787 3.69903 15.8709 3.61759 15.9439 3.62061Z" fill="#D0D1D2" stroke="#D0D1D2" stroke-width="0.361953" stroke-miterlimit="10"/>
<path d="M10.0866 6.6432C11.8783 6.67638 13.3563 8.1815 13.3563 9.94904C13.3563 10.2657 13.1421 10.4407 12.8616 10.3532C12.6776 10.2959 12.6173 10.1572 12.6143 9.97619C12.5962 9.3488 12.3881 8.79079 11.9778 8.31422C11.4621 7.72001 10.8045 7.41235 10.0173 7.38219C9.69754 7.37013 9.52864 7.09263 9.67342 6.82418C9.76994 6.64622 9.93582 6.63114 10.0896 6.64019L10.0866 6.6432Z" fill="#D0D1D2" stroke="#D0D1D2" stroke-width="0.361953" stroke-miterlimit="10"/>
</svg>
