<svg width="24" height="25" viewBox="0 0 24 25" fill="none" xmlns="http://www.w3.org/2000/svg">
<path fill-rule="evenodd" clip-rule="evenodd" d="M12 8.64062C9.92893 8.64062 8.25 10.3196 8.25 12.3906C8.25 14.4617 9.92893 16.1406 12 16.1406C14.0711 16.1406 15.75 14.4617 15.75 12.3906C15.75 10.3196 14.0711 8.64062 12 8.64062ZM9.75 12.3906C9.75 11.148 10.7574 10.1406 12 10.1406C13.2426 10.1406 14.25 11.148 14.25 12.3906C14.25 13.6333 13.2426 14.6406 12 14.6406C10.7574 14.6406 9.75 13.6333 9.75 12.3906Z" fill="white"/>
<path fill-rule="evenodd" clip-rule="evenodd" d="M12 3.64062C7.48587 3.64062 4.44529 6.34482 2.68057 8.63749L2.64874 8.67883C2.24964 9.19716 1.88206 9.67455 1.63269 10.239C1.36564 10.8435 1.25 11.5023 1.25 12.3906C1.25 13.2789 1.36564 13.9378 1.63269 14.5422C1.88206 15.1067 2.24964 15.5841 2.64875 16.1024L2.68057 16.1438C4.44529 18.4364 7.48587 21.1406 12 21.1406C16.5141 21.1406 19.5547 18.4364 21.3194 16.1438L21.3512 16.1025C21.7504 15.5841 22.1179 15.1067 22.3673 14.5422C22.6344 13.9378 22.75 13.2789 22.75 12.3906C22.75 11.5023 22.6344 10.8435 22.3673 10.239C22.1179 9.67454 21.7504 9.19714 21.3512 8.6788L21.3194 8.63749C19.5547 6.34482 16.5141 3.64062 12 3.64062ZM3.86922 9.55242C5.49864 7.43554 8.15036 5.14062 12 5.14062C15.8496 5.14062 18.5014 7.43554 20.1308 9.55242C20.5694 10.1222 20.8263 10.4627 20.9952 10.8452C21.1532 11.2026 21.25 11.6396 21.25 12.3906C21.25 13.1417 21.1532 13.5786 20.9952 13.9361C20.8263 14.3186 20.5694 14.659 20.1308 15.2288C18.5014 17.3457 15.8496 19.6406 12 19.6406C8.15036 19.6406 5.49864 17.3457 3.86922 15.2288C3.43064 14.659 3.17374 14.3186 3.00476 13.9361C2.84684 13.5786 2.75 13.1417 2.75 12.3906C2.75 11.6396 2.84684 11.2026 3.00476 10.8452C3.17374 10.4627 3.43063 10.1222 3.86922 9.55242Z" fill="white"/>
</svg>
