<svg width="18" height="19" viewBox="0 0 18 19" fill="none" xmlns="http://www.w3.org/2000/svg">
<path d="M9.58272 2.25332C9.58272 1.93543 9.32526 1.67773 9.00768 1.67773C8.69009 1.67773 8.43263 1.93543 8.43263 2.25332V6.23583L7.88084 5.68353C7.65627 5.45875 7.29217 5.45875 7.0676 5.68353C6.84303 5.90831 6.84303 6.27274 7.0676 6.49752L8.59812 8.02947C8.60838 8.03989 8.61904 8.04993 8.6301 8.05957C8.7183 8.13657 8.82438 8.18213 8.93374 8.19624C8.97131 8.20112 9.00908 8.20223 9.0465 8.19969C9.18047 8.19067 9.31189 8.13491 9.41429 8.03241L10.9478 6.49752C11.1723 6.27274 11.1723 5.90831 10.9478 5.68353C10.7232 5.45875 10.3591 5.45875 10.1345 5.68353L9.58272 6.23583V2.25332Z" fill="#666666"/>
<path fill-rule="evenodd" clip-rule="evenodd" d="M1.91544 10.1196V9.16029C1.91544 7.57246 2.1895 6.49756 2.70566 5.78178C3.20661 5.08709 4.00109 4.64218 5.25761 4.45744C5.57183 4.41124 5.78913 4.11882 5.74298 3.80431C5.69682 3.4898 5.40468 3.2723 5.09046 3.31849C3.63277 3.53282 2.51042 4.08559 1.77311 5.10805C1.05101 6.10942 0.76535 7.47115 0.76535 9.16029V10.5625C0.755311 10.6051 0.75 10.6495 0.75 10.6952C0.75 10.7408 0.755311 10.7853 0.76535 10.8278V12.2301C0.76535 14.2054 1.15654 15.7379 2.17971 16.7621C3.20288 17.7862 4.73395 18.1777 6.70749 18.1777H11.3079C13.2814 18.1777 14.8125 17.7862 15.8356 16.7621C16.8588 15.7379 17.25 14.2054 17.25 12.2301V9.16029C17.25 7.47115 16.9643 6.10942 16.2422 5.10805C15.5049 4.08559 14.3826 3.53282 12.9249 3.31849C12.6107 3.2723 12.3185 3.4898 12.2724 3.80431C12.2262 4.11882 12.4435 4.41124 12.7577 4.45744C14.0143 4.64218 14.8087 5.08709 15.3097 5.78178C15.8259 6.49756 16.0999 7.57246 16.0999 9.16029V10.1196H13.3167C12.8185 10.1196 12.3492 10.4009 12.1199 10.8599L11.2229 12.6557C11.0587 12.9843 10.7278 13.1894 10.3648 13.1894H7.65822C7.29522 13.1894 6.96425 12.9843 6.80011 12.6557L5.90304 10.8599C5.67525 10.4038 5.21539 10.1196 4.70632 10.1196H1.91544ZM1.91544 11.2708V12.2301C1.91544 14.0919 2.29098 15.2454 2.99295 15.9481C3.69491 16.6507 4.84739 17.0266 6.70749 17.0266H11.3079C13.168 17.0266 14.3204 16.6507 15.0224 15.9481C15.7244 15.2454 16.0999 14.0919 16.0999 12.2301V11.2708H13.3167C13.2474 11.2708 13.1801 11.3117 13.1486 11.3747L12.2515 13.1705C11.8943 13.8856 11.1672 14.3405 10.3648 14.3405H7.65822C6.85579 14.3405 6.12868 13.8856 5.77144 13.1705L4.87437 11.3747C4.84148 11.3088 4.77996 11.2708 4.70632 11.2708H1.91544Z" fill="#666666"/>
</svg>
