<svg width="30" height="31" viewBox="0 0 30 31" fill="none" xmlns="http://www.w3.org/2000/svg">
<rect y="0.123047" width="30" height="30" rx="15" fill="#115231"/>
<path d="M22.5 16.0605H7.5C6.9875 16.0605 6.5625 15.6355 6.5625 15.123C6.5625 14.6105 6.9875 14.1855 7.5 14.1855H22.5C23.0125 14.1855 23.4375 14.6105 23.4375 15.123C23.4375 15.6355 23.0125 16.0605 22.5 16.0605Z" fill="white"/>
<path d="M15 23.5605C14.4875 23.5605 14.0625 23.1355 14.0625 22.623V7.62305C14.0625 7.11055 14.4875 6.68555 15 6.68555C15.5125 6.68555 15.9375 7.11055 15.9375 7.62305V22.623C15.9375 23.1355 15.5125 23.5605 15 23.5605Z" fill="white"/>
</svg>
