<svg width="123" height="300" viewBox="0 0 123 300" fill="none" xmlns="http://www.w3.org/2000/svg">
<g opacity="0.2">
<path d="M77.8891 122.487L79.1719 123.77L77.8891 125.052L76.6063 123.77L77.8891 122.487Z" fill="white"/>
<path d="M77.893 113.963L79.1758 115.246L77.893 116.529L76.6102 115.246L77.893 113.963Z" fill="white"/>
<path d="M77.8891 105.444L79.1719 106.727L77.8891 108.009L76.6063 106.727L77.8891 105.444Z" fill="white"/>
<path d="M77.8891 96.9203L79.1719 98.2031L77.8891 99.4859L76.6063 98.2031L77.8891 96.9203Z" fill="white"/>
<path d="M77.893 88.3891L79.1758 89.6719L77.893 90.9547L76.6102 89.6719L77.893 88.3891Z" fill="white"/>
<path d="M86.4047 122.483L87.6875 123.766L86.4047 125.048L85.1219 123.766L86.4047 122.483Z" fill="white"/>
<path d="M86.4086 113.956L87.6914 115.238L86.4086 116.521L85.1259 115.238L86.4086 113.956Z" fill="white"/>
<path d="M86.4047 105.44L87.6875 106.723L86.4047 108.005L85.1219 106.723L86.4047 105.44Z" fill="white"/>
<path d="M86.4086 96.9164L87.6914 98.1992L86.4086 99.482L85.1259 98.1992L86.4086 96.9164Z" fill="white"/>
<path d="M86.4086 88.3852L87.6914 89.668L86.4086 90.9507L85.1259 89.668L86.4086 88.3852Z" fill="white"/>
<path d="M94.9321 122.487L96.2148 123.77L94.9321 125.052L93.6493 123.77L94.9321 122.487Z" fill="white"/>
<path d="M94.936 113.959L96.2188 115.242L94.936 116.525L93.6532 115.242L94.936 113.959Z" fill="white"/>
<path d="M94.9282 105.444L96.2109 106.727L94.9282 108.009L93.6454 106.727L94.9282 105.444Z" fill="white"/>
<path d="M94.9321 96.9164L96.2148 98.1992L94.9321 99.482L93.6493 98.1992L94.9321 96.9164Z" fill="white"/>
<path d="M94.936 88.393L96.2188 89.6758L94.936 90.9586L93.6532 89.6758L94.936 88.393Z" fill="white"/>
</g>
<g opacity="0.2">
<path d="M-188.991 0L108.848 168.587C121.419 175.705 125.474 191.893 117.748 204.091L59.845 295.534" stroke="white" stroke-width="0.6964" stroke-miterlimit="10"/>
<path d="M-199.449 3.72266L98.6891 172.48C111.1 179.502 115.112 195.488 107.482 207.547L49.3979 299.278" stroke="white" stroke-width="0.6964" stroke-miterlimit="10"/>
<path d="M-209.897 7.44922L88.5184 176.367C100.769 183.303 104.728 199.086 97.1942 210.985L38.9283 302.994" stroke="white" stroke-width="0.6964" stroke-miterlimit="10"/>
<path d="M-220.353 11.1719L78.3609 180.25C90.4622 187.101 94.368 202.67 86.93 214.42L28.4933 306.717" stroke="white" stroke-width="0.6964" stroke-miterlimit="10"/>
<path d="M-230.812 14.8984L68.1901 184.147C80.1314 190.902 83.9838 206.28 76.6419 217.869L18.0238 310.443" stroke="white" stroke-width="0.6964" stroke-miterlimit="10"/>
<path d="M-241.269 18.6211L58.032 188.03C69.8132 194.699 73.6123 209.863 66.377 221.303L7.57757 314.166" stroke="white" stroke-width="0.6964" stroke-miterlimit="10"/>
<path d="M-251.718 22.3477L47.8604 191.916C59.4816 198.49 63.2379 213.462 56.0881 224.742L-2.89281 317.882" stroke="white" stroke-width="0.6964" stroke-miterlimit="10"/>
</g>
</svg>
