<svg width="49" height="49" viewBox="0 0 49 49" fill="none" xmlns="http://www.w3.org/2000/svg">
<g clip-path="url(#clip0_2427_15627)">
<path d="M29.9145 41.9145C29.9145 42.5453 29.4025 43.0573 28.7716 43.0573H19.6287C18.9979 43.0573 18.4858 42.5453 18.4858 41.9145C18.4858 41.2836 18.9979 40.7715 19.6287 40.7715H28.7716C29.4025 40.7716 29.9145 41.2836 29.9145 41.9145ZM28.7716 43.6288H19.6287C18.8767 43.6288 18.2944 44.3551 18.5447 45.1442C18.6956 45.6202 19.1773 45.9145 19.6768 45.9145H19.6939C20.3539 45.9145 20.9574 46.2876 21.2527 46.8779L21.2647 46.902C21.6631 47.6973 22.4762 48.2002 23.3659 48.2002H25.0345C25.9242 48.2002 26.7374 47.6973 27.1351 46.902L27.1471 46.8779C27.4426 46.2877 28.0459 45.9145 28.7059 45.9145H28.7231C29.2225 45.9145 29.7042 45.6202 29.8551 45.1442C30.1058 44.3551 29.5236 43.6288 28.7716 43.6288ZM24.2002 7.05734C24.8311 7.05734 25.3431 6.54532 25.3431 5.91448V1.34305C25.3431 0.712212 24.8311 0.200195 24.2002 0.200195C23.5693 0.200195 23.0573 0.712212 23.0573 1.34305V5.91448C23.0573 6.54532 23.5693 7.05734 24.2002 7.05734ZM12.0784 11.4088C12.3013 11.6322 12.5939 11.7436 12.8864 11.7436C13.179 11.7436 13.4716 11.6322 13.6944 11.4088C14.1407 10.9625 14.1407 10.239 13.6944 9.7928L10.4619 6.56019C10.0162 6.11389 9.29155 6.11389 8.84592 6.56019C8.39962 7.0065 8.39962 7.72986 8.84592 8.17616L12.0784 11.4088ZM9.34298 21.9145C9.34298 21.2836 8.83097 20.7716 8.20013 20.7716H3.6287C2.99786 20.7716 2.48584 21.2836 2.48584 21.9145C2.48584 22.5453 2.99786 23.0573 3.6287 23.0573H8.20013C8.83105 23.0573 9.34298 22.5453 9.34298 21.9145ZM12.0784 32.4202L8.84592 35.6528C8.39962 36.0991 8.39962 36.8225 8.84592 37.2688C9.06878 37.4922 9.3613 37.6036 9.65391 37.6036C9.94643 37.6036 10.239 37.4922 10.4619 37.2688L13.6944 34.0362C14.1407 33.5899 14.1407 32.8665 13.6944 32.4202C13.2487 31.9739 12.5242 31.9739 12.0784 32.4202ZM36.3219 32.4202C35.8756 31.9739 35.1521 31.9739 34.7059 32.4202C34.2597 32.8665 34.2596 33.5899 34.7059 34.0362L37.9385 37.2688C38.1619 37.4922 38.454 37.6036 38.7465 37.6036C39.039 37.6036 39.331 37.4922 39.5545 37.2688C40.0008 36.8225 40.0008 36.099 39.5545 35.6528L36.3219 32.4202ZM44.7716 20.7716H40.2001C39.5693 20.7716 39.0573 21.2836 39.0573 21.9145C39.0573 22.5453 39.5693 23.0573 40.2001 23.0573H44.7716C45.4024 23.0573 45.9144 22.5453 45.9144 21.9145C45.9144 21.2836 45.4024 20.7716 44.7716 20.7716ZM35.5138 11.7436C35.8063 11.7436 36.0984 11.6322 36.3218 11.4088L39.5544 8.17616C40.0007 7.72986 40.0007 7.0065 39.5544 6.56019C39.1081 6.11389 38.3847 6.11389 37.9384 6.56019L34.7058 9.7928C34.2595 10.2391 34.2595 10.9625 34.7058 11.4088C34.9288 11.6322 35.2213 11.7436 35.5138 11.7436ZM29.9145 39.0573C29.9145 39.6882 29.4025 40.2002 28.7716 40.2002H19.6287C18.9979 40.2002 18.4858 39.6882 18.4858 39.0573C18.4858 38.4488 18.963 37.9557 19.563 37.9213C18.8516 31.4904 12.2001 30.0579 12.2001 22.4859C12.2001 15.8585 17.5727 10.4859 24.2001 10.4859C30.8275 10.4859 36.2001 15.8585 36.2001 22.4859C36.2001 30.0578 29.5487 31.4904 28.8373 37.9214C29.4373 37.9557 29.9145 38.4488 29.9145 39.0573ZM21.5664 13.6916C21.3887 13.2533 20.8899 13.0425 20.4499 13.219C17.5293 14.4025 15.3151 16.9321 14.527 19.9858C14.4087 20.4446 14.6847 20.9115 15.1431 21.0299C15.2145 21.0487 15.2865 21.0573 15.3574 21.0573C15.739 21.0573 16.0871 20.8007 16.1871 20.4144C16.8397 17.8841 18.674 15.7881 21.0934 14.8081C21.5321 14.6305 21.7436 14.131 21.5664 13.6916Z" fill="#007A5B"/>
<path d="M29.9145 41.9145C29.9145 42.5453 29.4025 43.0573 28.7716 43.0573H19.6287C18.9979 43.0573 18.4858 42.5453 18.4858 41.9145C18.4858 41.2836 18.9979 40.7715 19.6287 40.7715H28.7716C29.4025 40.7716 29.9145 41.2836 29.9145 41.9145ZM28.7716 43.6288H19.6287C18.8767 43.6288 18.2944 44.3551 18.5447 45.1442C18.6956 45.6202 19.1773 45.9145 19.6768 45.9145H19.6939C20.3539 45.9145 20.9574 46.2876 21.2527 46.8779L21.2647 46.902C21.6631 47.6973 22.4762 48.2002 23.3659 48.2002H25.0345C25.9242 48.2002 26.7374 47.6973 27.1351 46.902L27.1471 46.8779C27.4426 46.2877 28.0459 45.9145 28.7059 45.9145H28.7231C29.2225 45.9145 29.7042 45.6202 29.8551 45.1442C30.1058 44.3551 29.5236 43.6288 28.7716 43.6288ZM24.2002 7.05734C24.8311 7.05734 25.3431 6.54532 25.3431 5.91448V1.34305C25.3431 0.712212 24.8311 0.200195 24.2002 0.200195C23.5693 0.200195 23.0573 0.712212 23.0573 1.34305V5.91448C23.0573 6.54532 23.5693 7.05734 24.2002 7.05734ZM12.0784 11.4088C12.3013 11.6322 12.5939 11.7436 12.8864 11.7436C13.179 11.7436 13.4716 11.6322 13.6944 11.4088C14.1407 10.9625 14.1407 10.239 13.6944 9.7928L10.4619 6.56019C10.0162 6.11389 9.29155 6.11389 8.84592 6.56019C8.39962 7.0065 8.39962 7.72986 8.84592 8.17616L12.0784 11.4088ZM9.34298 21.9145C9.34298 21.2836 8.83097 20.7716 8.20013 20.7716H3.6287C2.99786 20.7716 2.48584 21.2836 2.48584 21.9145C2.48584 22.5453 2.99786 23.0573 3.6287 23.0573H8.20013C8.83105 23.0573 9.34298 22.5453 9.34298 21.9145ZM12.0784 32.4202L8.84592 35.6528C8.39962 36.0991 8.39962 36.8225 8.84592 37.2688C9.06878 37.4922 9.3613 37.6036 9.65391 37.6036C9.94643 37.6036 10.239 37.4922 10.4619 37.2688L13.6944 34.0362C14.1407 33.5899 14.1407 32.8665 13.6944 32.4202C13.2487 31.9739 12.5242 31.9739 12.0784 32.4202ZM36.3219 32.4202C35.8756 31.9739 35.1521 31.9739 34.7059 32.4202C34.2597 32.8665 34.2596 33.5899 34.7059 34.0362L37.9385 37.2688C38.1619 37.4922 38.454 37.6036 38.7465 37.6036C39.039 37.6036 39.331 37.4922 39.5545 37.2688C40.0008 36.8225 40.0008 36.099 39.5545 35.6528L36.3219 32.4202ZM44.7716 20.7716H40.2001C39.5693 20.7716 39.0573 21.2836 39.0573 21.9145C39.0573 22.5453 39.5693 23.0573 40.2001 23.0573H44.7716C45.4024 23.0573 45.9144 22.5453 45.9144 21.9145C45.9144 21.2836 45.4024 20.7716 44.7716 20.7716ZM35.5138 11.7436C35.8063 11.7436 36.0984 11.6322 36.3218 11.4088L39.5544 8.17616C40.0007 7.72986 40.0007 7.0065 39.5544 6.56019C39.1081 6.11389 38.3847 6.11389 37.9384 6.56019L34.7058 9.7928C34.2595 10.2391 34.2595 10.9625 34.7058 11.4088C34.9288 11.6322 35.2213 11.7436 35.5138 11.7436ZM29.9145 39.0573C29.9145 39.6882 29.4025 40.2002 28.7716 40.2002H19.6287C18.9979 40.2002 18.4858 39.6882 18.4858 39.0573C18.4858 38.4488 18.963 37.9557 19.563 37.9213C18.8516 31.4904 12.2001 30.0579 12.2001 22.4859C12.2001 15.8585 17.5727 10.4859 24.2001 10.4859C30.8275 10.4859 36.2001 15.8585 36.2001 22.4859C36.2001 30.0578 29.5487 31.4904 28.8373 37.9214C29.4373 37.9557 29.9145 38.4488 29.9145 39.0573ZM21.5664 13.6916C21.3887 13.2533 20.8899 13.0425 20.4499 13.219C17.5293 14.4025 15.3151 16.9321 14.527 19.9858C14.4087 20.4446 14.6847 20.9115 15.1431 21.0299C15.2145 21.0487 15.2865 21.0573 15.3574 21.0573C15.739 21.0573 16.0871 20.8007 16.1871 20.4144C16.8397 17.8841 18.674 15.7881 21.0934 14.8081C21.5321 14.6305 21.7436 14.131 21.5664 13.6916Z" fill="url(#paint0_linear_2427_15627)"/>
</g>
<defs>
<linearGradient id="paint0_linear_2427_15627" x1="2.48584" y1="24.2002" x2="45.9144" y2="24.2002" gradientUnits="userSpaceOnUse">
<stop offset="0.0625" stop-color="#C7863D"/>
<stop offset="0.5" stop-color="#FFCE6F"/>
<stop offset="0.9375" stop-color="#C7863D"/>
</linearGradient>
<clipPath id="clip0_2427_15627">
<rect width="48" height="48" fill="white" transform="translate(0.200195 0.200195)"/>
</clipPath>
</defs>
</svg>
