<svg width="326" height="235" viewBox="0 0 326 235" fill="none" xmlns="http://www.w3.org/2000/svg">
<g opacity="0.1" clip-path="url(#clip0_1093_10150)">
<path d="M324.888 301.105C276.15 158.761 185.318 65.8602 54.8998 24.9796C-74.2713 -15.51 -219.458 3.28938 -318.507 26.1929C-374.603 39.1632 -422.165 54.794 -452.187 65.6227C-484.712 77.354 -504.21 86.1251 -504.407 86.2128L-504.992 85.46C-504.8 85.3722 -485.25 76.5792 -452.681 64.8333C-422.626 53.9936 -375.006 38.3445 -318.843 25.3597C-255.706 10.7594 -194.861 2.43419 -137.998 0.603226C-66.8943 -1.68457 -1.84818 6.24597 55.3363 24.1719C84.8063 33.4108 112.641 45.4674 138.067 60.0091C165.288 75.5742 190.474 94.4065 212.932 115.976C236.814 138.916 258.259 165.577 276.659 195.219C296.128 226.58 312.729 262.128 325.996 300.885L324.883 301.108L324.888 301.105Z" fill="url(#paint0_linear_1093_10150)"/>
<path d="M312.97 301.905C266.457 161.278 177.385 68.5278 48.2191 26.2291C-10.2461 7.08257 -72.2512 0.0364439 -131.815 0.0364439C-203.159 0.0364439 -271.006 10.1378 -325.193 21.6572C-381.504 33.6298 -429.326 48.3652 -459.53 58.6164C-492.247 69.7228 -511.898 78.1065 -512.09 78.1869L-512.656 77.4231C-512.46 77.3391 -492.765 68.9371 -460 57.8161C-429.762 47.5502 -381.883 32.7965 -325.504 20.813C-262.127 7.33839 -201.144 0.0364428 -144.252 -0.895486C-73.1097 -2.054 -8.20276 6.7975 48.6747 25.4215C77.8714 34.982 105.399 47.2871 130.499 61.9969C157.36 77.7374 182.158 96.6538 204.198 118.216C227.634 141.145 248.59 167.685 266.481 197.105C285.409 228.224 301.424 263.411 314.082 301.693L312.965 301.908L312.97 301.905Z" fill="url(#paint1_linear_1093_10150)"/>
<path d="M301.054 302.718C256.777 163.85 169.504 71.2706 41.6613 27.5576C-20.4829 6.30965 -86.9104 -1.32121 -150.22 -1.32121C-217.103 -1.32121 -280.509 7.18675 -331.794 17.1346C-388.335 28.1022 -436.435 41.9422 -466.826 51.6197C-499.759 62.1085 -519.574 70.1048 -519.77 70.1815L-520.312 69.4067C-520.116 69.3263 -500.268 61.3154 -467.296 50.8157C-436.867 41.1236 -388.714 27.2689 -332.105 16.2868C-268.469 3.94145 -207.337 -2.32989 -150.412 -2.35547H-150.081C-79.0248 -2.35547 -14.3625 7.43526 42.1265 26.75C71.0353 36.6357 98.2462 49.1893 123.006 64.0637C149.497 79.9759 173.888 98.9726 195.501 120.52C218.481 143.427 238.939 169.843 256.317 199.033C274.692 229.903 290.123 264.717 302.172 302.51L301.054 302.718Z" fill="url(#paint2_linear_1093_10150)"/>
<path d="M289.146 303.52C247.1 166.446 161.663 74.0603 35.2166 28.9366C-91.9016 -16.4246 -238.11 -4.97829 -338.377 12.6151C-395.164 22.5776 -443.551 35.5223 -474.144 44.6259C-507.283 54.4897 -527.246 62.0914 -527.443 62.1645L-527.961 61.3787C-527.764 61.302 -507.753 53.6821 -474.566 43.8073C-443.94 34.6927 -395.495 21.7334 -338.641 11.7599C-274.732 0.547503 -213.437 -4.68592 -156.463 -3.79785C-85.22 -2.68319 -20.5673 8.0614 35.7011 28.1399C64.3077 38.3473 91.1876 51.1494 115.593 66.1845C141.7 82.2685 165.673 101.338 186.85 122.868C209.36 145.749 229.319 172.033 246.169 200.982C263.988 231.593 278.824 266.023 290.264 303.315L289.141 303.516L289.146 303.52Z" fill="url(#paint3_linear_1093_10150)"/>
<path d="M277.239 304.324C237.427 169.085 153.871 76.9223 28.8874 30.3952C-97.5402 -16.669 -244.152 -7.70422 -344.884 8.10203C-401.929 17.0522 -450.624 29.0979 -481.423 37.6277C-514.792 46.8666 -534.923 54.0772 -535.12 54.1503L-535.609 53.3572C-535.408 53.2842 -515.229 46.0553 -481.811 36.8055C-450.974 28.2683 -402.222 16.208 -345.109 7.24685C-280.908 -2.82895 -219.435 -7.01715 -162.404 -5.2008C-91.0936 -2.93128 -26.5608 8.7818 29.4006 29.6132C57.6859 40.1421 84.2204 53.1891 108.261 68.3851C133.965 84.6335 157.512 103.776 178.242 125.284C200.268 148.136 219.718 174.278 236.041 202.978C253.299 233.318 267.54 267.354 278.366 304.138L277.243 304.328L277.239 304.324Z" fill="url(#paint4_linear_1093_10150)"/>
<path d="M265.323 305.135C227.747 171.77 146.109 79.853 22.6748 31.9409C-103.052 -16.863 -250.105 -10.4052 -351.322 3.60659C-461.019 18.7916 -541.995 45.8687 -542.8 46.1391L-543.266 45.3387C-543.064 45.2693 -522.708 38.4315 -489.05 29.8066C-457.988 21.8468 -408.919 10.6893 -351.528 2.7441C-287.015 -6.1878 -225.355 -9.32347 -168.262 -6.57519C-96.8697 -3.13985 -32.4568 9.55632 23.1928 31.1552C51.1423 42.0057 77.3171 55.2903 100.979 70.6434C126.271 87.0526 149.376 106.261 169.646 127.74C191.182 150.555 210.105 176.547 225.895 204.991C242.582 235.054 256.224 268.684 266.44 304.945L265.313 305.128L265.323 305.135Z" fill="url(#paint5_linear_1093_10150)"/>
<path d="M253.407 305.935C218.061 174.486 138.381 82.8499 16.5775 33.5673C-62.7911 1.45412 -151.249 -8.69111 -231.284 -8.69111C-277.307 -8.69111 -320.529 -5.33982 -357.674 -0.884829C-415.29 6.02606 -464.646 16.2627 -495.901 23.634C-529.774 31.6231 -550.279 38.0589 -550.481 38.121L-550.922 37.3097C-550.72 37.2439 -530.177 30.7971 -496.265 22.8008C-464.972 15.4221 -415.563 5.17089 -357.88 -1.75097C-293.04 -9.53167 -231.174 -11.6038 -174.004 -7.91267C-102.521 -3.29688 -38.2231 10.397 17.1147 32.7852C44.7141 43.9501 70.51 57.4759 93.7781 72.9788C118.643 89.5452 141.293 108.816 161.098 130.258C182.131 153.026 200.525 178.861 215.778 207.041C231.89 236.816 244.932 270.029 254.539 305.756L253.412 305.932L253.407 305.935Z" fill="url(#paint6_linear_1093_10150)"/>
<path d="M241.492 306.74C208.376 177.246 130.691 85.9171 10.5952 35.2859C-113.698 -17.1141 -261.705 -15.7363 -363.982 -5.34986C-421.905 0.530432 -471.617 9.86069 -503.12 16.6473C-537.257 24.0041 -557.959 30.0488 -558.166 30.1073L-558.578 29.2887C-558.372 29.2265 -537.636 23.1745 -503.461 15.8068C-471.924 9.00916 -422.155 -0.332061 -364.164 -6.21966C-298.974 -12.8382 -236.893 -13.8396 -179.641 -9.19453C-108.057 -3.38367 -43.8649 11.3225 11.1469 34.5148C38.3768 45.994 63.7794 59.75 86.6446 75.4027C111.064 92.119 133.248 111.445 152.573 132.842C173.093 155.556 190.95 181.226 205.657 209.133C221.188 238.611 233.625 271.393 242.624 306.572L241.492 306.74Z" fill="url(#paint7_linear_1093_10150)"/>
<path d="M229.576 307.549C198.681 180.047 123.03 89.0574 4.72809 37.1069C-118.831 -17.1496 -267.366 -18.3447 -370.218 -9.79286C-428.468 -4.95048 -478.553 3.46247 -510.316 9.66802C-544.731 16.3925 -565.635 22.0426 -565.846 22.0974L-566.234 21.2715C-566.028 21.2166 -545.086 15.5556 -510.633 8.8238C-478.836 2.61094 -428.698 -5.81297 -370.377 -10.6627C-304.822 -16.1154 -242.51 -16.0313 -185.167 -10.4215C-113.473 -3.40457 -49.3915 12.3322 5.29883 36.3431C32.1451 48.1293 57.1352 62.1155 79.583 77.9072C103.542 94.7659 125.246 114.135 144.087 135.486C164.079 158.137 181.395 183.628 195.549 211.253C210.495 240.421 222.324 272.764 230.718 307.388L229.586 307.549H229.576Z" fill="url(#paint8_linear_1093_10150)"/>
<path d="M217.661 308.352C188.977 182.878 115.398 92.265 -1.03827 39.0281C-123.849 -17.1252 -272.96 -20.9187 -376.426 -14.2124C-488.555 -6.9434 -572.696 13.8733 -573.531 14.0817L-573.891 13.2484C-573.68 13.1972 -552.527 7.93092 -517.781 1.83866C-485.716 -3.78215 -435.184 -11.2851 -376.522 -15.0859C-310.584 -19.3582 -248.022 -18.185 -190.584 -11.5957C-118.765 -3.35456 -54.7932 13.4238 -0.443481 38.2753C25.9951 50.3648 50.563 64.5703 72.5745 80.4971C96.0583 97.4911 117.269 116.901 135.616 138.189C155.07 160.767 171.834 186.076 185.433 213.405C199.789 242.254 211.013 274.148 218.797 308.199L217.665 308.348L217.661 308.352Z" fill="url(#paint9_linear_1093_10150)"/>
<path d="M205.748 309.154C179.266 185.748 107.797 95.5482 -6.68182 41.0577C-128.711 -17.0252 -278.421 -23.4501 -382.521 -18.6077C-495.34 -13.3633 -580.364 5.87099 -581.208 6.06468L-581.539 5.22412C-581.328 5.17661 -559.95 0.312298 -524.901 -5.1404C-492.558 -10.1692 -441.609 -16.7402 -382.592 -19.4848C-316.247 -22.5693 -253.431 -20.2888 -195.887 -12.7091C-123.938 -3.23269 -60.0723 14.6092 -6.07263 40.3122C47.7447 65.9311 92.5781 99.7875 127.171 140.95C146.079 163.447 162.282 188.558 175.319 215.584C189.08 244.101 199.695 275.535 206.88 309.008L205.743 309.15L205.748 309.154Z" fill="url(#paint10_linear_1093_10150)"/>
<path d="M193.84 309.96C169.546 188.655 100.221 98.9089 -12.2197 43.2088C-133.443 -16.8404 -283.777 -25.9258 -388.543 -22.9692C-502.082 -19.7641 -588.032 -2.13052 -588.885 -1.95144L-589.188 -2.79932C-588.972 -2.84317 -567.363 -7.30547 -531.993 -12.1076C-499.353 -16.5371 -447.977 -22.1688 -388.581 -23.8463C-321.818 -25.7321 -258.729 -22.3333 -201.074 -13.7486C-128.987 -3.01859 -65.2361 15.8977 -11.5914 42.4742C41.3002 68.6742 85.155 102.761 118.755 143.78C137.107 166.187 152.738 191.089 165.219 217.805C178.381 245.982 188.391 276.94 194.977 309.828L193.84 309.96Z" fill="url(#paint11_linear_1093_10150)"/>
<path d="M181.925 310.76C159.803 191.594 92.6511 102.337 -17.6648 45.4749C-138.049 -16.5769 -289.039 -28.3448 -394.501 -27.2959C-508.793 -26.1557 -595.707 -10.1338 -596.57 -9.96935L-596.844 -10.8209C-596.628 -10.8611 -574.775 -14.9177 -539.074 -19.0657C-506.127 -22.8921 -454.305 -27.5773 -394.516 -28.173C-327.306 -28.8455 -263.939 -24.3174 -206.165 -14.7167C-133.928 -2.71492 -70.2925 17.2905 -17.022 44.7513C34.9007 71.5142 77.7531 105.805 110.346 146.668C128.131 168.968 143.192 193.659 155.102 220.049C167.66 247.872 177.066 278.351 183.061 310.636L181.92 310.76H181.925Z" fill="url(#paint12_linear_1093_10150)"/>
<path d="M170.009 311.569C150.041 194.566 85.0956 105.85 -23.0187 47.8768C-142.53 -16.207 -294.197 -30.7012 -400.387 -31.5747C-515.466 -32.5286 -603.382 -18.1257 -604.255 -17.9795L-604.5 -18.8383C-604.279 -18.8749 -582.177 -22.5222 -546.131 -26.0051C-512.867 -29.2211 -460.575 -32.9452 -400.378 -32.4518C-332.708 -31.8927 -269.043 -26.2243 -211.149 -15.5967C-138.764 -2.31212 -75.2435 18.8043 -22.3615 47.1605C28.5587 74.4642 70.3798 108.938 101.946 149.625C119.156 171.812 133.637 196.273 144.981 222.33C156.934 249.788 165.74 279.774 171.146 311.456L170.004 311.569H170.009Z" fill="url(#paint13_linear_1093_10150)"/>
<path d="M158.096 312.374C140.258 197.567 77.5527 109.429 -28.2833 50.4028C-146.883 -15.7423 -299.255 -32.9921 -406.194 -35.8171C-522.084 -38.876 -611.045 -26.1251 -611.933 -25.9971L-612.148 -26.8596C-611.928 -26.8925 -589.561 -30.1269 -553.151 -32.9409C-519.551 -35.5357 -466.779 -38.2949 -406.156 -36.6942C-338.011 -34.8961 -274.039 -28.0657 -216.02 -16.4001C-143.477 -1.81084 -80.0861 20.4239 -27.6069 49.6938C22.2724 77.5128 63.0383 112.148 93.5588 152.637C110.188 174.697 124.084 198.919 134.857 224.637C146.206 251.721 154.408 281.207 159.238 312.268L158.096 312.37V312.374Z" fill="url(#paint14_linear_1093_10150)"/>
<path d="M146.189 313.178C130.461 200.597 70.0146 113.084 -33.4662 53.0636C-151.102 -15.1682 -304.193 -35.2102 -411.905 -40.0123C-528.643 -45.2165 -618.713 -34.1284 -619.61 -34.0151L-619.797 -34.8812C-619.571 -34.9105 -596.932 -37.7245 -560.152 -39.8588C-526.211 -41.8287 -472.931 -43.6085 -411.866 -40.8858C-343.223 -37.8269 -278.939 -29.8269 -220.791 -17.1052C-148.089 -1.20023 -84.8278 22.1748 -32.7756 52.3656C16.0294 80.6707 55.716 115.444 85.1765 155.718C101.211 177.639 114.522 201.613 124.729 226.976C135.473 253.677 143.08 282.647 147.33 313.09L146.184 313.182L146.189 313.178Z" fill="url(#paint15_linear_1093_10150)"/>
<path d="M134.273 313.984C120.622 203.651 62.4638 116.806 -38.59 55.8581C-155.223 -14.4862 -309.063 -37.3568 -417.58 -44.1544C-535.196 -51.5221 -626.388 -42.1261 -627.295 -42.0311L-627.453 -42.9009C-626.547 -42.9959 -535.249 -52.4065 -417.513 -45.0315C-348.361 -40.7008 -283.747 -31.5131 -225.468 -17.7242C-152.604 -0.485294 -89.4861 24.0409 -37.88 55.1673C9.81689 83.9329 48.3956 118.816 76.7864 158.849C92.2264 180.62 104.942 204.334 114.578 229.332C124.718 255.638 131.731 284.089 135.419 313.9L134.273 313.984Z" fill="url(#paint16_linear_1093_10150)"/>
<path d="M122.353 314.789C110.755 206.722 54.8987 120.593 -43.6656 58.7862C-159.243 -13.6923 -313.865 -39.4245 -423.217 -48.2468C-541.725 -57.8073 -634.059 -50.1253 -634.98 -50.0485L-635.109 -50.9183C-634.188 -50.9987 -541.73 -58.6917 -423.097 -49.1202C-353.417 -43.4994 -288.467 -33.1093 -230.06 -18.2387C-157.032 0.352417 -94.0726 26.0408 -42.9318 58.1064C3.6236 87.2996 41.0751 122.267 68.3867 162.037C83.2224 183.643 95.3433 207.087 104.414 231.716C113.949 257.616 120.372 285.541 123.504 314.716L122.357 314.789H122.353Z" fill="url(#paint17_linear_1093_10150)"/>
<path d="M110.445 315.588C100.866 209.809 47.3319 124.44 -48.6759 61.8513C-163.141 -12.7797 -318.54 -41.4101 -428.75 -52.2862C-548.184 -64.0724 -641.727 -58.13 -642.657 -58.0678L-642.758 -58.9413C-641.827 -59.0034 -548.16 -64.9532 -428.606 -53.156C-358.385 -46.2269 -293.094 -34.6161 -234.557 -18.6564C-161.366 1.30154 -98.5745 28.163 -47.9277 61.1825C-2.54272 90.7704 33.7576 125.793 59.9803 165.277C74.2069 186.708 85.733 209.867 94.2325 234.116C103.169 259.599 109.006 286.991 111.591 315.526L110.445 315.588Z" fill="url(#paint18_linear_1093_10150)"/>
<path d="M98.5341 316.392C90.9411 212.915 39.738 128.354 -53.6461 65.0564C-166.936 -11.7273 -323.126 -43.2959 -434.2 -56.2552C-554.589 -70.3036 -649.397 -66.1264 -650.342 -66.0825L-650.414 -66.9596C-649.469 -67.0035 -554.565 -71.1844 -434.061 -57.125C-363.283 -48.8692 -297.647 -36.0269 -238.98 -18.9598C-165.626 2.37957 -103.017 30.4252 -52.8931 64.3985C-8.71204 94.3445 26.4275 129.396 51.5471 168.574C65.1645 189.814 76.091 212.681 84.0293 236.542C92.3657 261.606 97.6275 288.453 99.6757 316.345L98.5245 316.392H98.5341Z" fill="url(#paint19_linear_1093_10150)"/>
<path d="M86.6215 317.196C74.7836 104.99 -126.998 9.90379 -294.182 -32.4972C-388.885 -56.5117 -482.763 -66.5473 -544.845 -70.7355C-612.116 -75.2709 -657.568 -74.116 -658.019 -74.1014L-658.062 -74.9785C-657.612 -74.9931 -612.107 -76.1517 -544.778 -71.609C-505.235 -68.9411 -466.009 -64.8589 -428.193 -59.4756C-380.918 -52.7438 -335.715 -43.9508 -293.851 -33.3341C-187.257 -6.30447 -101.351 32.5515 -38.5205 82.1521C-1.20337 111.608 28.2763 145.231 49.1077 182.088C72.0209 222.625 85.0243 268.07 87.7631 317.163L86.6119 317.199L86.6215 317.196Z" fill="url(#paint20_linear_1093_10150)"/>
<path d="M74.7059 317.999C66.7867 108.366 -134.05 10.747 -301.133 -34.2341C-395.783 -59.7141 -489.868 -71.3761 -552.127 -76.6753C-619.59 -82.413 -665.253 -82.1243 -665.709 -82.1206L-665.719 -83.0014C-665.268 -83.0014 -619.552 -83.2938 -552.026 -77.5487C-512.373 -74.1755 -473.06 -69.4099 -435.187 -63.387C-387.84 -55.8585 -342.623 -46.3309 -300.778 -35.0674C-194.246 -6.39317 -108.714 33.5628 -46.5558 83.686C-9.63672 113.457 19.3392 147.189 39.5663 183.951C61.8127 224.382 74.0248 269.476 75.8571 317.977L74.7059 318.002V317.999Z" fill="url(#paint21_linear_1093_10150)"/>
</g>
<defs>
<linearGradient id="paint0_linear_1093_10150" x1="-504.992" y1="150.658" x2="326.001" y2="150.658" gradientUnits="userSpaceOnUse">
<stop stop-color="#8CC63F"/>
<stop offset="1" stop-color="#39B54A"/>
</linearGradient>
<linearGradient id="paint1_linear_1093_10150" x1="-512.656" y1="150.453" x2="314.087" y2="150.453" gradientUnits="userSpaceOnUse">
<stop stop-color="#8CC63F"/>
<stop offset="1" stop-color="#39B54A"/>
</linearGradient>
<linearGradient id="paint2_linear_1093_10150" x1="-520.308" y1="150.181" x2="302.176" y2="150.181" gradientUnits="userSpaceOnUse">
<stop stop-color="#8CC63F"/>
<stop offset="1" stop-color="#39B54A"/>
</linearGradient>
<linearGradient id="paint3_linear_1093_10150" x1="-527.961" y1="149.813" x2="290.264" y2="149.813" gradientUnits="userSpaceOnUse">
<stop stop-color="#8CC63F"/>
<stop offset="1" stop-color="#39B54A"/>
</linearGradient>
<linearGradient id="paint4_linear_1093_10150" x1="-535.609" y1="149.357" x2="278.361" y2="149.357" gradientUnits="userSpaceOnUse">
<stop stop-color="#8CC63F"/>
<stop offset="1" stop-color="#39B54A"/>
</linearGradient>
<linearGradient id="paint5_linear_1093_10150" x1="-543.266" y1="148.798" x2="266.45" y2="148.798" gradientUnits="userSpaceOnUse">
<stop stop-color="#8CC63F"/>
<stop offset="1" stop-color="#39B54A"/>
</linearGradient>
<linearGradient id="paint6_linear_1093_10150" x1="-550.922" y1="148.125" x2="254.535" y2="148.125" gradientUnits="userSpaceOnUse">
<stop stop-color="#8CC63F"/>
<stop offset="1" stop-color="#39B54A"/>
</linearGradient>
<linearGradient id="paint7_linear_1093_10150" x1="-558.583" y1="147.34" x2="242.619" y2="147.34" gradientUnits="userSpaceOnUse">
<stop stop-color="#8CC63F"/>
<stop offset="1" stop-color="#39B54A"/>
</linearGradient>
<linearGradient id="paint8_linear_1093_10150" x1="-566.234" y1="146.428" x2="230.708" y2="146.428" gradientUnits="userSpaceOnUse">
<stop stop-color="#8CC63F"/>
<stop offset="1" stop-color="#39B54A"/>
</linearGradient>
<linearGradient id="paint9_linear_1093_10150" x1="-573.891" y1="145.374" x2="218.793" y2="145.374" gradientUnits="userSpaceOnUse">
<stop stop-color="#8CC63F"/>
<stop offset="1" stop-color="#39B54A"/>
</linearGradient>
<linearGradient id="paint10_linear_1093_10150" x1="-581.539" y1="144.169" x2="206.885" y2="144.169" gradientUnits="userSpaceOnUse">
<stop stop-color="#8CC63F"/>
<stop offset="1" stop-color="#39B54A"/>
</linearGradient>
<linearGradient id="paint11_linear_1093_10150" x1="-589.192" y1="142.808" x2="194.977" y2="142.808" gradientUnits="userSpaceOnUse">
<stop stop-color="#8CC63F"/>
<stop offset="1" stop-color="#39B54A"/>
</linearGradient>
<linearGradient id="paint12_linear_1093_10150" x1="-596.844" y1="141.263" x2="183.061" y2="141.263" gradientUnits="userSpaceOnUse">
<stop stop-color="#8CC63F"/>
<stop offset="1" stop-color="#39B54A"/>
</linearGradient>
<linearGradient id="paint13_linear_1093_10150" x1="-604.5" y1="139.535" x2="171.151" y2="139.535" gradientUnits="userSpaceOnUse">
<stop stop-color="#8CC63F"/>
<stop offset="1" stop-color="#39B54A"/>
</linearGradient>
<linearGradient id="paint14_linear_1093_10150" x1="-612.148" y1="137.602" x2="159.243" y2="137.602" gradientUnits="userSpaceOnUse">
<stop stop-color="#8CC63F"/>
<stop offset="1" stop-color="#39B54A"/>
</linearGradient>
<linearGradient id="paint15_linear_1093_10150" x1="-619.802" y1="135.45" x2="147.33" y2="135.45" gradientUnits="userSpaceOnUse">
<stop stop-color="#8CC63F"/>
<stop offset="1" stop-color="#39B54A"/>
</linearGradient>
<linearGradient id="paint16_linear_1093_10150" x1="-627.453" y1="133.066" x2="135.419" y2="133.066" gradientUnits="userSpaceOnUse">
<stop stop-color="#8CC63F"/>
<stop offset="1" stop-color="#39B54A"/>
</linearGradient>
<linearGradient id="paint17_linear_1093_10150" x1="-635.109" y1="130.435" x2="123.499" y2="130.435" gradientUnits="userSpaceOnUse">
<stop stop-color="#8CC63F"/>
<stop offset="1" stop-color="#39B54A"/>
</linearGradient>
<linearGradient id="paint18_linear_1093_10150" x1="-642.758" y1="127.543" x2="111.596" y2="127.543" gradientUnits="userSpaceOnUse">
<stop stop-color="#8CC63F"/>
<stop offset="1" stop-color="#39B54A"/>
</linearGradient>
<linearGradient id="paint19_linear_1093_10150" x1="-650.409" y1="124.411" x2="99.6805" y2="124.411" gradientUnits="userSpaceOnUse">
<stop stop-color="#8CC63F"/>
<stop offset="1" stop-color="#39B54A"/>
</linearGradient>
<linearGradient id="paint20_linear_1093_10150" x1="-658.062" y1="121.037" x2="87.7727" y2="121.037" gradientUnits="userSpaceOnUse">
<stop stop-color="#8CC63F"/>
<stop offset="1" stop-color="#39B54A"/>
</linearGradient>
<linearGradient id="paint21_linear_1093_10150" x1="-665.719" y1="117.499" x2="75.8523" y2="117.499" gradientUnits="userSpaceOnUse">
<stop stop-color="#8CC63F"/>
<stop offset="1" stop-color="#39B54A"/>
</linearGradient>
<clipPath id="clip0_1093_10150">
<rect width="630" height="401" fill="white" transform="translate(-304 -83)"/>
</clipPath>
</defs>
</svg>
