<svg width="49" height="49" viewBox="0 0 49 49" fill="none" xmlns="http://www.w3.org/2000/svg">
<path d="M40.2967 14.0977C40.1135 14.3353 39.9519 14.5953 39.7423 14.8073C38.7287 15.8353 37.6951 16.8433 36.6855 17.8753C36.3879 18.1793 36.0535 18.3217 35.6391 18.3593C34.1607 18.4953 32.6831 18.6417 31.2071 18.8001C31.0751 18.8145 30.9319 18.9169 30.8319 19.0169C29.0287 20.8081 27.2295 22.6033 25.4335 24.4017C25.1279 24.7081 24.7831 24.8497 24.3575 24.7105C23.7175 24.5017 23.4799 23.7265 23.8927 23.1953C23.9607 23.1073 24.0439 23.0313 24.1231 22.9521C25.8999 21.1777 27.6799 19.4065 29.4495 17.6249C29.5647 17.5089 29.6511 17.3217 29.6687 17.1585C29.8279 15.6953 29.9727 14.2305 30.1111 12.7649C30.1471 12.3817 30.2967 12.0785 30.5743 11.8065C31.6559 10.7457 32.7263 9.67369 33.7919 8.59689C34.1279 8.25769 34.4967 8.07129 34.9671 8.25689C35.4207 8.43609 35.5727 8.80809 35.6031 9.27289C35.6711 10.3161 35.7655 11.3585 35.8407 12.4009C35.8527 12.5713 35.9231 12.6209 36.0839 12.6321C37.0879 12.7057 38.0903 12.8121 39.0959 12.8577C39.6639 12.8833 40.0671 13.0865 40.2967 13.6089V14.0969V14.0977ZM37.1295 14.6721C36.9775 14.6585 36.9007 14.6505 36.8239 14.6441C36.1655 14.5889 35.5063 14.5481 34.8503 14.4753C34.3591 14.4209 34.0559 14.1145 33.9951 13.6289C33.9407 13.1969 33.9191 12.7601 33.8823 12.3257C33.8559 12.0209 33.8279 11.7161 33.7951 11.3465C33.2351 11.9081 32.7223 12.4121 32.2239 12.9313C32.1279 13.0313 32.0527 13.1833 32.0367 13.3193C31.9479 14.0641 31.8799 14.8121 31.8055 15.5585C31.7655 15.9577 31.7255 16.3569 31.6831 16.7825C32.6327 16.6897 33.5391 16.5521 34.4487 16.5265C35.1615 16.5065 35.6679 16.2241 36.1071 15.6977C36.4015 15.3441 36.7567 15.0417 37.1303 14.6705L37.1295 14.6721Z" fill="white"/>
<path d="M24.7765 34.5032C19.4181 34.4464 14.8421 30.4864 14.0957 25.2096C13.3045 19.6128 16.9605 14.38 22.5285 13.1704C24.2253 12.8016 25.9237 12.8496 27.6013 13.316C28.0645 13.4448 28.3309 13.8008 28.3357 14.248C28.3405 14.6824 28.0749 15.076 27.6437 15.1752C27.4277 15.2248 27.1789 15.2 26.9573 15.152C23.3997 14.38 20.3701 15.3104 17.9989 18.0664C14.3869 22.2656 15.6997 28.8648 20.6077 31.452C25.8541 34.2168 32.2205 31.228 33.4165 25.4304C33.6805 24.1504 33.6445 22.8696 33.3429 21.5936C33.2837 21.344 33.2485 21.0648 33.2997 20.82C33.3909 20.3896 33.7901 20.1264 34.2277 20.1288C34.6581 20.1312 35.0285 20.4 35.1541 20.8328C35.4381 21.8152 35.5501 22.82 35.5397 23.8416C35.4869 28.8432 31.9141 33.1664 27.0373 34.1992C26.2949 34.356 25.5301 34.4048 24.7757 34.5032H24.7765Z" fill="white"/>
<path d="M24.9543 19.794C22.8279 19.7484 21.1471 21.2068 20.8791 23.2812C20.6327 25.1924 21.9759 27.0508 23.9311 27.502C26.2711 28.042 28.5951 26.2436 28.6823 23.8396C28.6911 23.5892 28.7647 23.3124 28.8943 23.1004C29.1071 22.7516 29.5607 22.6404 29.9503 22.7676C30.3623 22.902 30.6351 23.2636 30.6279 23.7148C30.5983 25.5124 29.9215 27.0348 28.5247 28.1652C26.5807 29.7388 24.3999 30.0284 22.1623 28.9092C19.9031 27.7788 18.8103 25.8452 18.9263 23.3236C19.0743 20.1068 21.9679 17.6044 25.1743 17.862C25.4503 17.8844 25.7527 17.9988 25.9751 18.162C26.3047 18.4044 26.3703 18.842 26.2071 19.2132C26.0415 19.5908 25.7455 19.7988 25.3279 19.8124C25.1863 19.8172 25.0439 19.7988 24.9543 19.794Z" fill="white"/>
</svg>
