<svg width="1273" height="570" viewBox="0 0 1273 570" fill="none" xmlns="http://www.w3.org/2000/svg">
<g clip-path="url(#clip0_1959_40983)">
<rect width="1254" height="570" rx="16" fill="#15852B" fill-opacity="0.05"/>
<g filter="url(#filter0_f_1959_40983)">
<circle cx="48.5" cy="-214.5" r="117.5" fill="#DCECFC" fill-opacity="0.76"/>
</g>
<g filter="url(#filter1_f_1959_40983)">
<circle cx="1181.5" cy="530.5" r="117.5" fill="#8CC63F" fill-opacity="0.24"/>
</g>
<g opacity="0.2" clip-path="url(#clip1_1959_40983)">
<path d="M1814.56 462.054C1514.77 479.431 1300.06 419.642 1176.36 284.333C1053.86 150.318 1044.49 -34.7 1058.21 -166.311C1065.98 -240.847 1081.81 -306.523 1093.73 -348.493C1106.63 -393.962 1117.84 -422.149 1117.95 -422.433L1116.26 -422.736C1116.15 -422.458 1104.91 -394.195 1091.99 -348.666C1080.07 -306.65 1064.22 -240.895 1056.44 -166.27C1047.69 -82.3764 1050.72 -4.601 1065.43 64.9042C1083.83 151.816 1120.66 225.963 1174.89 285.291C1202.85 315.866 1235.89 342.962 1273.12 365.829C1312.97 390.309 1358.69 410.592 1408.98 426.123C1462.47 442.637 1522.6 454.226 1587.69 460.549C1656.56 467.243 1732.86 468.241 1814.48 463.506L1814.57 462.046L1814.56 462.054Z" fill="url(#paint0_linear_1959_40983)"/>
<path d="M1812.32 447.269C1516.68 466.409 1302.83 408.662 1176.71 275.62C1119.62 215.401 1085.54 144.445 1066.31 72.665C1043.27 -13.3121 1041.52 -100.477 1047.01 -171.937C1052.72 -246.2 1066.68 -311.709 1077.38 -353.589C1088.98 -398.956 1099.37 -427.121 1099.46 -427.395L1097.76 -427.669C1097.65 -427.387 1087.25 -399.16 1075.63 -353.728C1064.91 -311.799 1050.93 -246.211 1045.22 -171.861C1038.8 -88.2802 1043.92 -10.8843 1060.43 58.1748C1081.09 144.529 1119.71 218.016 1175.24 276.601C1203.75 306.674 1237.19 333.268 1274.65 355.651C1314.74 379.605 1360.49 399.374 1410.64 414.406C1463.96 430.389 1523.69 441.452 1588.18 447.282C1656.39 453.452 1731.77 453.938 1812.25 448.723L1812.32 447.261L1812.32 447.269Z" fill="url(#paint1_linear_1959_40983)"/>
<path d="M1810.09 432.48C1518.68 453.374 1305.75 397.703 1177.24 267.012C1114.77 203.483 1078.09 127.511 1057.65 51.2161C1036.05 -29.3852 1032.56 -110.345 1035.85 -177.468C1039.48 -251.471 1051.56 -316.837 1061.06 -358.636C1071.36 -403.932 1080.92 -432.086 1081.01 -432.364L1079.29 -432.603C1079.19 -432.323 1069.61 -404.121 1059.31 -358.772C1049.79 -316.919 1037.69 -251.482 1034.06 -177.39C1029.97 -94.101 1037.2 -17.0771 1055.53 51.5379L1055.63 51.9368C1078.58 137.567 1118.99 210.257 1175.78 268.005C1204.84 297.557 1238.68 323.637 1276.36 345.522C1316.66 368.938 1362.45 388.174 1412.43 402.699C1465.56 418.144 1524.88 428.673 1588.74 434.007C1656.27 439.645 1730.73 439.626 1810.04 433.938L1810.09 432.48Z" fill="url(#paint2_linear_1959_40983)"/>
<path d="M1807.85 417.696C1520.74 440.318 1308.79 386.757 1177.92 258.503C1046.35 129.566 1021.98 -52.7509 1024.71 -182.991C1026.25 -256.751 1036.46 -321.985 1044.75 -363.72C1053.73 -408.931 1062.45 -437.053 1062.54 -437.329L1060.8 -437.533C1060.71 -437.255 1051.97 -409.065 1042.98 -363.791C1034.68 -322.01 1024.46 -256.699 1022.92 -182.851C1021.18 -99.8386 1030.53 -23.1731 1050.7 45.0112C1075.93 130.271 1118.25 202.439 1176.48 259.513C1206.09 288.529 1240.32 314.077 1278.2 335.448C1318.73 358.31 1364.52 377.004 1414.32 391.012C1467.25 405.905 1526.15 415.903 1589.36 420.731C1656.2 425.837 1729.69 425.306 1807.8 419.152L1807.84 417.692L1807.85 417.696Z" fill="url(#paint3_linear_1959_40983)"/>
<path d="M1805.6 402.906C1522.87 427.242 1311.97 375.827 1178.77 250.086C1044.03 122.893 1014.57 -58.5835 1013.59 -188.429C1013.03 -261.96 1021.34 -327.083 1028.42 -368.76C1036.08 -413.914 1043.97 -442.029 1044.05 -442.305L1042.31 -442.471C1042.23 -442.189 1034.32 -414.006 1026.65 -368.788C1019.57 -327.061 1011.25 -261.861 1011.81 -188.243C1012.43 -105.485 1023.93 -29.1646 1045.97 38.5927C1073.52 123.316 1117.73 194.822 1177.37 251.123C1207.52 279.58 1242.12 304.58 1280.21 325.426C1320.93 347.715 1366.74 365.855 1416.35 379.338C1469.07 393.662 1527.51 403.124 1590.05 407.448C1656.17 412.023 1728.69 410.986 1805.59 404.364L1805.61 402.91L1805.6 402.906Z" fill="url(#paint4_linear_1959_40983)"/>
<path d="M1803.37 388.118C1525.1 414.144 1315.32 364.911 1179.85 241.778C1041.86 116.358 1007.26 -64.3088 1002.54 -193.778C997.422 -334.094 1025.31 -446.157 1025.59 -447.272L1023.84 -447.405C1023.77 -447.125 1016.69 -418.937 1010.35 -373.765C1004.5 -332.075 998.077 -266.976 1000.75 -193.566C1003.76 -111.044 1017.42 -35.0606 1041.34 32.2735C1071.24 116.472 1117.38 187.307 1178.45 242.822C1209.13 270.703 1244.09 295.143 1282.37 315.448C1323.28 337.154 1369.07 354.727 1418.48 367.67C1470.96 381.424 1528.94 390.33 1590.8 394.15C1656.18 398.185 1727.69 396.643 1803.35 389.566L1803.35 388.11L1803.37 388.118Z" fill="url(#paint5_linear_1959_40983)"/>
<path d="M1801.12 373.326C1527.4 401.017 1318.81 353.991 1181.13 233.556C1091.42 155.08 1042.61 53.903 1016.76 -42.5481C1001.9 -98.0107 994.634 -151.889 991.53 -199.035C986.716 -272.164 991.206 -337.117 995.823 -378.723C1000.83 -423.816 1007.05 -451.968 1007.11 -452.244L1005.35 -452.342C1005.28 -452.064 999.05 -423.86 994.043 -378.717C989.423 -337.061 984.921 -272.036 989.735 -198.82C995.145 -116.521 1010.99 -40.8577 1036.81 26.0647C1069.11 109.741 1117.2 179.905 1179.74 234.622C1210.93 261.912 1246.25 285.767 1284.7 305.518C1325.79 326.625 1371.56 343.616 1420.74 356.018C1472.97 369.191 1530.46 377.545 1591.63 380.858C1656.24 384.354 1726.73 382.312 1801.13 374.786L1801.12 373.334L1801.12 373.326Z" fill="url(#paint6_linear_1959_40983)"/>
<path d="M1798.89 358.549C1529.78 387.882 1322.45 343.097 1182.63 225.441C1037.93 103.672 992.887 -75.4289 980.587 -204.237C973.618 -277.185 976.184 -342.082 979.555 -383.676C983.212 -428.748 988.59 -456.929 988.64 -457.208L986.873 -457.268C986.816 -456.986 981.434 -428.761 977.767 -383.637C974.386 -341.996 971.816 -277.024 978.793 -203.992C986.636 -121.892 1004.68 -46.5413 1032.44 19.9694C1067.15 103.128 1117.23 172.624 1181.27 226.518C1212.97 253.195 1248.62 276.452 1287.24 295.638C1328.49 316.127 1374.21 332.528 1423.15 344.376C1475.11 356.959 1532.1 364.754 1592.53 367.555C1656.37 370.509 1725.81 367.969 1798.92 360.003L1798.89 358.549Z" fill="url(#paint7_linear_1959_40983)"/>
<path d="M1796.66 343.753C1532.24 374.698 1326.24 332.182 1184.37 217.393C1036.21 97.502 985.857 -80.8595 969.711 -209.38C960.565 -282.166 961.18 -347.023 963.307 -388.619C965.613 -433.689 970.138 -461.901 970.179 -462.184L968.406 -462.211C968.363 -461.933 963.828 -433.669 961.52 -388.549C959.389 -346.909 958.769 -281.983 967.924 -209.106C978.211 -127.19 998.5 -52.1426 1028.21 13.962C1065.36 96.6092 1117.46 165.42 1183.03 218.489C1215.22 244.54 1251.2 267.177 1289.96 285.785C1331.34 305.644 1377 321.443 1425.69 332.733C1477.35 344.713 1533.81 351.95 1593.51 354.237C1656.54 356.653 1724.9 353.613 1796.7 345.215L1796.66 343.765L1796.66 343.753Z" fill="url(#paint8_linear_1959_40983)"/>
<path d="M1794.4 328.972C1534.75 361.496 1330.17 321.276 1186.34 209.424C1034.63 91.4485 978.909 -86.2172 958.881 -214.491C937.18 -353.506 951.55 -466.035 951.697 -467.153L949.918 -467.141C949.884 -466.859 946.205 -438.552 945.267 -393.421C944.405 -351.774 945.75 -286.866 957.107 -214.14C969.874 -132.393 992.416 -57.6268 1024.11 8.06973C1063.75 90.2125 1117.89 158.334 1185.03 210.543C1217.69 235.94 1253.97 257.951 1292.86 275.961C1334.36 295.175 1379.94 310.358 1428.35 321.085C1479.68 332.457 1535.6 339.127 1594.53 340.902C1656.73 342.776 1724 339.249 1794.46 330.424L1794.4 328.979L1794.4 328.972Z" fill="url(#paint9_linear_1959_40983)"/>
<path d="M1792.16 314.173C1537.35 348.245 1334.27 310.348 1188.57 201.524C1033.26 85.5227 972.096 -91.4586 948.145 -219.499C922.18 -358.263 933.108 -471.01 933.222 -472.131L931.437 -472.081C931.411 -471.801 928.607 -443.437 929.043 -398.284C929.452 -356.618 932.791 -291.706 946.371 -219.117C961.64 -137.513 986.474 -63.0332 1020.18 2.26093C1062.32 83.8993 1118.55 151.325 1187.28 202.657C1255.78 253.814 1337.82 289.74 1431.13 309.418C1482.13 320.175 1537.47 326.274 1595.61 327.534C1656.96 328.87 1723.12 324.855 1792.23 315.616L1792.15 314.17L1792.16 314.173Z" fill="url(#paint10_linear_1959_40983)"/>
<path d="M1789.92 299.395C1540.01 334.979 1338.53 299.423 1191.08 193.703C1032.1 79.7239 965.427 -96.5862 937.497 -224.422C907.231 -362.963 914.665 -475.97 914.747 -477.094L912.957 -477.005C912.94 -476.721 911.012 -448.295 912.851 -403.103C914.552 -361.399 919.903 -296.474 935.735 -223.999C953.53 -142.534 980.684 -68.3221 1016.43 -3.43238C1061.12 77.7033 1119.46 144.416 1189.81 194.853C1259.17 244.584 1341.36 279.207 1434.06 297.765C1484.7 307.9 1539.44 313.423 1596.78 314.179C1657.26 314.974 1722.27 310.484 1790.03 300.835L1789.92 299.395Z" fill="url(#paint11_linear_1959_40983)"/>
<path d="M1787.68 284.61C1542.74 321.669 1342.94 288.47 1193.85 185.932C1031.15 74.0355 958.91 -101.632 926.949 -229.286C892.318 -367.63 896.226 -480.937 896.275 -482.065L894.487 -481.94C894.477 -481.658 893.438 -453.154 896.689 -407.912C899.692 -366.161 907.076 -301.205 925.194 -228.834C945.554 -147.48 975.052 -73.537 1012.87 -9.04603C1060.14 71.5889 1120.61 137.58 1192.61 187.093C1262.78 235.356 1345.05 268.662 1437.12 286.09C1487.36 295.6 1541.5 300.548 1598 300.79C1657.58 301.046 1721.44 296.084 1787.8 286.047L1787.68 284.604L1787.68 284.61Z" fill="url(#paint12_linear_1959_40983)"/>
<path d="M1785.44 269.818C1545.51 308.316 1347.5 277.486 1196.91 178.195C1030.43 68.4375 952.535 -106.587 916.502 -234.092C877.439 -372.264 877.791 -485.914 877.801 -487.044L876.008 -486.879C876.007 -486.594 875.865 -458.008 880.555 -412.706C884.878 -370.9 894.332 -305.891 914.755 -233.611C937.722 -152.361 969.591 -78.6691 1009.49 -14.5827C1059.38 65.5454 1122.03 130.804 1195.69 179.37C1266.62 226.135 1348.91 258.101 1440.3 274.386C1490.13 283.262 1543.62 287.634 1599.28 287.372C1657.93 287.095 1720.61 281.674 1785.58 271.248L1785.44 269.812L1785.44 269.818Z" fill="url(#paint13_linear_1959_40983)"/>
<path d="M1783.2 255.028C1548.34 294.918 1352.2 266.479 1200.24 170.496C1029.95 62.9389 946.326 -111.462 906.157 -238.825C862.631 -376.849 859.35 -490.875 859.318 -492.013L857.528 -491.812C857.533 -491.528 858.301 -462.845 864.443 -417.462C870.115 -375.583 881.649 -310.512 904.419 -238.31C930.012 -157.15 964.299 -83.7092 1006.31 -20.0275C1058.85 59.5938 1123.69 124.098 1199.05 171.69C1270.67 216.926 1352.94 247.534 1443.6 262.664C1492.99 270.91 1545.81 274.703 1600.61 273.935C1658.32 273.129 1719.81 267.248 1783.35 256.46L1783.19 255.03L1783.2 255.028Z" fill="url(#paint14_linear_1959_40983)"/>
<path d="M1780.95 240.252C1551.22 281.496 1357.06 255.445 1203.88 162.832C1029.73 57.5525 940.303 -116.223 895.939 -243.459C847.858 -381.359 840.901 -495.831 840.837 -496.973L839.048 -496.735C839.063 -496.448 840.758 -467.66 848.375 -422.195C855.404 -380.24 869.057 -315.08 894.208 -242.946C922.478 -161.859 959.2 -88.6676 1003.36 -25.3946C1058.58 53.7139 1125.65 117.452 1202.71 164.038C1274.95 207.718 1357.16 236.951 1447.04 250.92C1495.96 258.523 1548.1 261.744 1602.01 260.483C1658.76 259.154 1719.03 252.832 1781.15 241.675L1780.96 240.245L1780.95 240.252Z" fill="url(#paint15_linear_1959_40983)"/>
<path d="M1778.71 225.46C1554.13 268.004 1362.05 244.354 1207.79 155.162C1029.76 52.2198 934.441 -120.945 885.835 -248.085C833.153 -385.886 822.457 -500.806 822.354 -501.949L820.567 -501.675C820.67 -500.532 831.371 -385.476 884.106 -247.535C915.078 -166.515 954.277 -93.5607 1000.61 -30.7022C1058.54 47.8896 1127.86 110.839 1206.64 156.387C1279.45 198.486 1361.52 226.325 1450.57 239.133C1499 246.1 1550.43 248.743 1603.42 246.99C1659.19 245.143 1718.23 238.381 1778.91 226.887L1778.71 225.46Z" fill="url(#paint16_linear_1959_40983)"/>
<path d="M1776.47 210.67C1557.07 254.477 1367.16 233.218 1212 147.485C1030.04 46.9562 928.764 -125.621 875.848 -252.684C818.503 -390.387 804.017 -505.767 803.873 -506.918L802.095 -506.609C802.232 -505.456 816.736 -389.92 874.144 -252.072C907.86 -171.107 949.567 -98.3903 998.102 -35.9542C1058.78 42.1112 1130.37 104.249 1210.88 148.733C1284.17 189.228 1366.04 215.664 1454.22 227.312C1502.12 233.638 1552.82 235.709 1604.9 233.471C1659.66 231.114 1717.46 223.922 1776.69 212.097L1776.47 210.676L1776.47 210.67Z" fill="url(#paint17_linear_1959_40983)"/>
<path d="M1774.23 195.875C1560.05 240.892 1372.41 222.024 1216.51 139.791C1030.62 41.7538 923.307 -130.21 866.015 -257.21C803.929 -394.839 785.582 -510.745 785.406 -511.899L783.63 -511.554C783.806 -510.399 802.179 -394.339 864.326 -256.571C900.828 -175.652 945.081 -103.178 995.831 -41.1678C1059.29 36.3632 1133.17 97.6711 1215.42 141.05C1289.11 179.923 1370.72 204.943 1457.98 215.432C1505.34 221.117 1555.28 222.624 1606.41 219.901C1660.15 217.044 1716.7 209.432 1774.48 197.29L1774.23 195.875Z" fill="url(#paint18_linear_1959_40983)"/>
<path d="M1771.98 181.099C1563.04 227.278 1377.76 210.787 1221.3 132.095C1031.49 36.6245 918.058 -134.722 856.33 -261.648C789.422 -399.218 767.143 -515.706 766.926 -516.868L765.152 -516.486C765.37 -515.324 787.672 -398.718 854.64 -261.015C893.969 -180.135 940.791 -107.903 993.793 -46.3294C1060.06 30.6595 1136.25 91.1146 1220.23 133.354C1294.25 170.585 1375.54 194.189 1461.83 203.513C1508.62 208.566 1557.78 209.507 1607.96 206.315C1660.66 202.959 1715.94 194.945 1772.26 182.5L1771.98 181.087L1771.98 181.099Z" fill="url(#paint19_linear_1959_40983)"/>
<path d="M1769.74 166.309C1342.45 265.51 1087.55 73.1844 948.948 -105.618C870.446 -206.905 820.105 -314.672 791.701 -387.248C760.928 -465.893 748.556 -521.285 748.439 -521.836L746.675 -521.419C746.792 -520.868 759.174 -465.41 789.98 -386.7C808.072 -340.473 828.885 -295.384 851.838 -252.69C880.537 -199.319 912.68 -149.546 947.385 -104.772C1035.74 9.2323 1141.02 91.9823 1260.29 141.178C1331.12 170.399 1407.73 187.947 1488.01 193.344C1576.3 199.281 1671.19 190.652 1770.04 167.703L1769.74 166.296L1769.74 166.309Z" fill="url(#paint20_linear_1959_40983)"/>
<path d="M1767.49 151.534C1346.61 254.081 1086.95 64.2483 943.241 -113.053C861.831 -213.493 808.179 -320.639 777.5 -392.835C744.266 -471.068 730.097 -526.251 729.957 -526.802L728.196 -526.343C728.342 -525.799 742.521 -470.55 775.79 -392.246C795.325 -346.264 817.53 -301.436 841.778 -259.015C872.09 -205.982 905.704 -156.585 941.693 -112.18C1033.31 0.86968 1140.67 82.5805 1260.76 130.687C1332.09 159.26 1408.76 176.143 1488.65 180.862C1576.51 186.053 1670.45 176.658 1767.82 152.933L1767.5 151.532L1767.49 151.534Z" fill="url(#paint21_linear_1959_40983)"/>
</g>
<g opacity="0.18">
<circle cx="169.753" cy="467.106" r="73.613" transform="rotate(30 169.753 467.106)" fill="#B9FF66"/>
<rect x="183.637" y="441" width="42.0646" height="42.0646" transform="rotate(75 183.637 441)" fill="#CADBD0"/>
<rect x="56.6133" y="389.644" width="147.226" height="147.226" rx="73.613" transform="rotate(30 56.6133 389.644)" fill="#115231"/>
<rect x="98.6328" y="464.001" width="42.0646" height="42.0646" transform="rotate(75 98.6328 464.001)" fill="#B9FF66"/>
</g>
</g>
<g clip-path="url(#clip2_1959_40983)">
<path d="M1189.43 75.592L1187.55 60.3915L1186.64 53.0358C1186.32 50.4452 1186.16 47.776 1185.63 45.2232C1185.44 44.298 1184.57 44.5693 1184 45.0087C1183.25 45.5819 1182.59 46.6451 1182.64 47.6078C1182.77 50.2386 1183.25 52.8787 1183.57 55.4911L1184.48 62.8469L1186.35 78.0538C1186.47 79.0368 1187.49 78.6793 1188.03 78.2655C1188.76 77.7117 1189.55 76.5533 1189.43 75.5844L1189.43 75.592Z" fill="black"/>
<path d="M1210.69 76.1234C1219.8 61.4801 1229.06 46.9132 1238 32.1628C1238.32 31.6511 1239.06 30.3891 1238.34 29.879C1237.65 29.3995 1236.62 30.5009 1236.32 30.978C1227.04 45.5142 1218.04 60.2392 1208.94 74.8901C1208.61 75.4288 1207.83 76.7446 1208.58 77.2726C1209.29 77.7751 1210.39 76.6299 1210.7 76.1246L1210.69 76.1234Z" fill="black"/>
<path d="M1220.17 92.6394L1235.19 90.6836L1242.58 89.7233C1245.12 89.3936 1247.73 89.1828 1250.23 88.6727C1251.09 88.4923 1251.8 87.4904 1252.11 86.7508C1252.27 86.3675 1252.64 84.9875 1251.79 85.0334C1249.22 85.1686 1246.64 85.6302 1244.09 85.9664L1236.7 86.9267L1221.43 88.9101C1220.06 89.088 1218.16 92.9024 1220.16 92.6459L1220.17 92.6394Z" fill="black"/>
</g>
<defs>
<filter id="filter0_f_1959_40983" x="-255.96" y="-518.96" width="608.92" height="608.92" filterUnits="userSpaceOnUse" color-interpolation-filters="sRGB">
<feFlood flood-opacity="0" result="BackgroundImageFix"/>
<feBlend mode="normal" in="SourceGraphic" in2="BackgroundImageFix" result="shape"/>
<feGaussianBlur stdDeviation="93.48" result="effect1_foregroundBlur_1959_40983"/>
</filter>
<filter id="filter1_f_1959_40983" x="877.04" y="226.04" width="608.92" height="608.92" filterUnits="userSpaceOnUse" color-interpolation-filters="sRGB">
<feFlood flood-opacity="0" result="BackgroundImageFix"/>
<feBlend mode="normal" in="SourceGraphic" in2="BackgroundImageFix" result="shape"/>
<feGaussianBlur stdDeviation="93.48" result="effect1_foregroundBlur_1959_40983"/>
</filter>
<linearGradient id="paint0_linear_1959_40983" x1="1246.37" y1="-457.597" x2="1514.7" y2="543.839" gradientUnits="userSpaceOnUse">
<stop stop-color="#8CC63F"/>
<stop offset="1" stop-color="#39B54A"/>
</linearGradient>
<linearGradient id="paint1_linear_1959_40983" x1="1243.49" y1="-466.718" x2="1510.45" y2="529.597" gradientUnits="userSpaceOnUse">
<stop stop-color="#8CC63F"/>
<stop offset="1" stop-color="#39B54A"/>
</linearGradient>
<linearGradient id="paint2_linear_1959_40983" x1="1240.48" y1="-475.788" x2="1506.06" y2="515.394" gradientUnits="userSpaceOnUse">
<stop stop-color="#8CC63F"/>
<stop offset="1" stop-color="#39B54A"/>
</linearGradient>
<linearGradient id="paint3_linear_1959_40983" x1="1237.28" y1="-484.82" x2="1501.49" y2="501.229" gradientUnits="userSpaceOnUse">
<stop stop-color="#8CC63F"/>
<stop offset="1" stop-color="#39B54A"/>
</linearGradient>
<linearGradient id="paint4_linear_1959_40983" x1="1233.88" y1="-493.802" x2="1496.72" y2="487.12" gradientUnits="userSpaceOnUse">
<stop stop-color="#8CC63F"/>
<stop offset="1" stop-color="#39B54A"/>
</linearGradient>
<linearGradient id="paint5_linear_1959_40983" x1="1230.29" y1="-502.725" x2="1491.76" y2="473.07" gradientUnits="userSpaceOnUse">
<stop stop-color="#8CC63F"/>
<stop offset="1" stop-color="#39B54A"/>
</linearGradient>
<linearGradient id="paint6_linear_1959_40983" x1="1226.48" y1="-511.595" x2="1486.57" y2="459.066" gradientUnits="userSpaceOnUse">
<stop stop-color="#8CC63F"/>
<stop offset="1" stop-color="#39B54A"/>
</linearGradient>
<linearGradient id="paint7_linear_1959_40983" x1="1222.45" y1="-520.396" x2="1481.16" y2="445.138" gradientUnits="userSpaceOnUse">
<stop stop-color="#8CC63F"/>
<stop offset="1" stop-color="#39B54A"/>
</linearGradient>
<linearGradient id="paint8_linear_1959_40983" x1="1218.16" y1="-529.132" x2="1475.5" y2="431.269" gradientUnits="userSpaceOnUse">
<stop stop-color="#8CC63F"/>
<stop offset="1" stop-color="#39B54A"/>
</linearGradient>
<linearGradient id="paint9_linear_1959_40983" x1="1213.58" y1="-537.788" x2="1469.54" y2="417.48" gradientUnits="userSpaceOnUse">
<stop stop-color="#8CC63F"/>
<stop offset="1" stop-color="#39B54A"/>
</linearGradient>
<linearGradient id="paint10_linear_1959_40983" x1="1208.71" y1="-546.375" x2="1463.29" y2="403.761" gradientUnits="userSpaceOnUse">
<stop stop-color="#8CC63F"/>
<stop offset="1" stop-color="#39B54A"/>
</linearGradient>
<linearGradient id="paint11_linear_1959_40983" x1="1203.52" y1="-554.867" x2="1456.73" y2="390.141" gradientUnits="userSpaceOnUse">
<stop stop-color="#8CC63F"/>
<stop offset="1" stop-color="#39B54A"/>
</linearGradient>
<linearGradient id="paint12_linear_1959_40983" x1="1197.97" y1="-563.259" x2="1449.81" y2="376.611" gradientUnits="userSpaceOnUse">
<stop stop-color="#8CC63F"/>
<stop offset="1" stop-color="#39B54A"/>
</linearGradient>
<linearGradient id="paint13_linear_1959_40983" x1="1192.05" y1="-571.562" x2="1442.51" y2="363.18" gradientUnits="userSpaceOnUse">
<stop stop-color="#8CC63F"/>
<stop offset="1" stop-color="#39B54A"/>
</linearGradient>
<linearGradient id="paint14_linear_1959_40983" x1="1185.72" y1="-579.75" x2="1434.8" y2="349.86" gradientUnits="userSpaceOnUse">
<stop stop-color="#8CC63F"/>
<stop offset="1" stop-color="#39B54A"/>
</linearGradient>
<linearGradient id="paint15_linear_1959_40983" x1="1178.95" y1="-587.817" x2="1426.66" y2="336.66" gradientUnits="userSpaceOnUse">
<stop stop-color="#8CC63F"/>
<stop offset="1" stop-color="#39B54A"/>
</linearGradient>
<linearGradient id="paint16_linear_1959_40983" x1="1171.71" y1="-595.764" x2="1418.05" y2="323.579" gradientUnits="userSpaceOnUse">
<stop stop-color="#8CC63F"/>
<stop offset="1" stop-color="#39B54A"/>
</linearGradient>
<linearGradient id="paint17_linear_1959_40983" x1="1163.99" y1="-603.579" x2="1408.95" y2="310.626" gradientUnits="userSpaceOnUse">
<stop stop-color="#8CC63F"/>
<stop offset="1" stop-color="#39B54A"/>
</linearGradient>
<linearGradient id="paint18_linear_1959_40983" x1="1155.77" y1="-611.267" x2="1399.35" y2="297.811" gradientUnits="userSpaceOnUse">
<stop stop-color="#8CC63F"/>
<stop offset="1" stop-color="#39B54A"/>
</linearGradient>
<linearGradient id="paint19_linear_1959_40983" x1="1147.04" y1="-618.806" x2="1389.25" y2="285.133" gradientUnits="userSpaceOnUse">
<stop stop-color="#8CC63F"/>
<stop offset="1" stop-color="#39B54A"/>
</linearGradient>
<linearGradient id="paint20_linear_1959_40983" x1="1137.83" y1="-626.229" x2="1378.67" y2="272.583" gradientUnits="userSpaceOnUse">
<stop stop-color="#8CC63F"/>
<stop offset="1" stop-color="#39B54A"/>
</linearGradient>
<linearGradient id="paint21_linear_1959_40983" x1="1128.3" y1="-633.55" x2="1367.76" y2="260.123" gradientUnits="userSpaceOnUse">
<stop stop-color="#8CC63F"/>
<stop offset="1" stop-color="#39B54A"/>
</linearGradient>
<clipPath id="clip0_1959_40983">
<rect width="1254" height="570" rx="16" fill="white"/>
</clipPath>
<clipPath id="clip1_1959_40983">
<rect width="786" height="790.363" fill="white" transform="matrix(0.258819 0.965926 0.965926 -0.258819 845 -90.4395)"/>
</clipPath>
<clipPath id="clip2_1959_40983">
<rect width="70.96" height="76.21" fill="white" transform="translate(1169 57.5786) rotate(-39.9645)"/>
</clipPath>
</defs>
</svg>
