<svg width="140" height="73" viewBox="0 0 140 73" fill="none" xmlns="http://www.w3.org/2000/svg">
<path d="M0.804688 40.9097C0.804688 38.8022 2.51312 37.0938 4.62058 37.0938V37.0938C6.72805 37.0938 8.43648 38.8022 8.43648 40.9096V72.1066H0.804688V40.9097Z" fill="#344BFD"/>
<rect x="0.804688" y="63.7109" width="7.63179" height="8.39567" fill="#EE902C"/>
<rect width="7.63179" height="7.90915" transform="matrix(1 0 0 -1 0.804688 63.7109)" fill="#F4A1AF"/>
<path d="M22.6562 15.9438C22.6562 13.8364 24.3647 12.1279 26.4721 12.1279V12.1279C28.5796 12.1279 30.288 13.8364 30.288 15.9438V72.1063H22.6562V15.9438Z" fill="#344BFD"/>
<rect x="22.6562" y="50.8418" width="7.63179" height="21.2651" fill="#EE902C"/>
<rect width="7.63179" height="25.4038" transform="matrix(1 0 0 -1 22.6562 50.8418)" fill="#F4A1AF"/>
<path d="M44.5039 54.6577C44.5039 52.5502 46.2123 50.8418 48.3198 50.8418V50.8418C50.4273 50.8418 52.1357 52.5502 52.1357 54.6577V72.1069H44.5039V54.6577Z" fill="#344BFD"/>
<rect width="7.63179" height="6.95609" transform="matrix(1 0 0 -1 44.5039 68.043)" fill="#F4A1AF"/>
<path d="M66.3477 3.87839C66.3477 1.77093 68.0561 0.0625 70.1636 0.0625V0.0625C72.271 0.0625 73.9795 1.77093 73.9795 3.8784V72.1076H66.3477V3.87839Z" fill="#344BFD"/>
<rect x="66.3477" y="36.0195" width="7.63179" height="36.0878" fill="#EE902C"/>
<rect width="7.63179" height="21.1622" transform="matrix(1 0 0 -1 66.3477 36.0195)" fill="#F4A1AF"/>
<path d="M88.1992 23.645C88.1992 21.5375 89.9077 19.8291 92.0151 19.8291V19.8291C94.1226 19.8291 95.831 21.5375 95.831 23.645V72.1064H88.1992V23.645Z" fill="#344BFD"/>
<rect x="88.1992" y="50.8418" width="7.63179" height="21.0219" fill="#EE902C"/>
<rect width="7.63179" height="7.6662" transform="matrix(1 0 0 -1 88.1992 50.8418)" fill="#F4A1AF"/>
<path d="M110.047 23.645C110.047 21.5375 111.755 19.8291 113.863 19.8291V19.8291C115.97 19.8291 117.679 21.5375 117.679 23.645V72.1064H110.047V23.645Z" fill="#344BFD"/>
<rect x="110.047" y="52.6143" width="7.63179" height="19.4926" fill="#EE902C"/>
<rect width="7.63179" height="22.3836" transform="matrix(1 0 0 -1 110.047 52.6143)" fill="#F4A1AF"/>
<path d="M131.898 23.645C131.898 21.5375 133.607 19.8291 135.714 19.8291V19.8291C137.822 19.8291 139.53 21.5375 139.53 23.645V72.1064H131.898V23.645Z" fill="#344BFD"/>
<rect x="131.898" y="60.3916" width="7.63179" height="11.7153" fill="#EE902C"/>
<rect width="7.63179" height="12.5266" transform="matrix(1 0 0 -1 131.898 60.3916)" fill="#F4A1AF"/>
</svg>
