<svg width="16" height="16" viewBox="0 0 16 16" fill="none" xmlns="http://www.w3.org/2000/svg">
<path d="M7.99995 10.8866C6.40661 10.8866 5.11328 9.59328 5.11328 7.99995C5.11328 6.40661 6.40661 5.11328 7.99995 5.11328C9.59328 5.11328 10.8866 6.40661 10.8866 7.99995C10.8866 9.59328 9.59328 10.8866 7.99995 10.8866ZM7.99995 6.11328C6.95995 6.11328 6.11328 6.95995 6.11328 7.99995C6.11328 9.03995 6.95995 9.88661 7.99995 9.88661C9.03995 9.88661 9.88661 9.03995 9.88661 7.99995C9.88661 6.95995 9.03995 6.11328 7.99995 6.11328Z" fill="#15852B"/>
<path d="M7.99875 14.0135C5.49208 14.0135 3.12542 12.5468 1.49875 10.0002C0.792083 8.90015 0.792083 7.10682 1.49875 6.00015C3.13208 3.45348 5.49875 1.98682 7.99875 1.98682C10.4988 1.98682 12.8654 3.45348 14.4921 6.00015C15.1988 7.10015 15.1988 8.89348 14.4921 10.0002C12.8654 12.5468 10.4988 14.0135 7.99875 14.0135ZM7.99875 2.98682C5.84542 2.98682 3.78542 4.28015 2.34542 6.54015C1.84542 7.32015 1.84542 8.68015 2.34542 9.46015C3.78542 11.7201 5.84542 13.0135 7.99875 13.0135C10.1521 13.0135 12.2121 11.7201 13.6521 9.46015C14.1521 8.68015 14.1521 7.32015 13.6521 6.54015C12.2121 4.28015 10.1521 2.98682 7.99875 2.98682Z" fill="#15852B"/>
</svg>
