<svg width="56" height="56" viewBox="0 0 56 56" fill="none" xmlns="http://www.w3.org/2000/svg">
<circle cx="28" cy="28" r="28" fill="url(#paint0_linear_1922_16476)"/>
<g clip-path="url(#clip0_1922_16476)">
<path fill-rule="evenodd" clip-rule="evenodd" d="M33.4492 29.3184C35.0476 30.4034 36.1676 31.8734 36.1676 33.8334V37.3334H39.6676C40.3092 37.3334 40.8342 36.8084 40.8342 36.1667V33.8334C40.8342 31.29 36.6692 29.785 33.4492 29.3184Z" fill="white"/>
<path d="M24.4987 27.9993C27.076 27.9993 29.1654 25.91 29.1654 23.3327C29.1654 20.7554 27.076 18.666 24.4987 18.666C21.9214 18.666 19.832 20.7554 19.832 23.3327C19.832 25.91 21.9214 27.9993 24.4987 27.9993Z" fill="white"/>
<path fill-rule="evenodd" clip-rule="evenodd" d="M31.5009 27.9993C34.0792 27.9993 36.1676 25.911 36.1676 23.3327C36.1676 20.7543 34.0792 18.666 31.5009 18.666C30.9526 18.666 30.4392 18.7827 29.9492 18.946C30.9176 20.1477 31.5009 21.676 31.5009 23.3327C31.5009 24.9893 30.9176 26.5177 29.9492 27.7193C30.4392 27.8827 30.9526 27.9993 31.5009 27.9993Z" fill="white"/>
<path fill-rule="evenodd" clip-rule="evenodd" d="M24.5013 29.166C21.3863 29.166 15.168 30.7293 15.168 33.8327V36.166C15.168 36.8077 15.693 37.3327 16.3346 37.3327H32.668C33.3096 37.3327 33.8346 36.8077 33.8346 36.166V33.8327C33.8346 30.7293 27.6163 29.166 24.5013 29.166Z" fill="white"/>
</g>
<defs>
<linearGradient id="paint0_linear_1922_16476" x1="56" y1="28.4551" x2="1.32122e-07" y2="28.4551" gradientUnits="userSpaceOnUse">
<stop stop-color="#025436"/>
<stop offset="1" stop-color="#053725"/>
</linearGradient>
<clipPath id="clip0_1922_16476">
<rect width="28" height="28" fill="white" transform="translate(14 14)"/>
</clipPath>
</defs>
</svg>
