<svg width="48" height="48" viewBox="0 0 48 48" fill="none" xmlns="http://www.w3.org/2000/svg">
<path d="M1.39523 18.1701C1.90754 18.374 2.59805 18.1474 2.84307 17.4451C6.36243 7.11397 14.9826 2.107 23.6919 2.107C27.8795 2.107 31.0648 3.05855 33.5595 4.62181C34.1609 5.00696 34.8737 4.939 35.1187 4.32729C35.4083 3.67026 35.0742 3.26246 34.5841 2.94527C31.5548 0.974206 28.1246 0 23.6919 0C13.958 0 4.80322 5.36946 0.860643 16.4256C0.548801 17.3091 0.860643 17.9435 1.39523 18.1701ZM47.0356 26.0317C47.6147 26.0317 48.0602 25.5333 47.9934 24.8762C47.1024 16.1537 43.984 10.0819 38.9945 5.75461C38.4822 5.30149 37.8362 5.36946 37.5021 5.75461C37.1234 6.13976 37.1012 6.79678 37.6357 7.27256C42.1575 11.4639 45.2759 16.924 46.0109 24.9215C46.0555 25.5333 46.4341 26.0317 47.0356 26.0317ZM5.02596 37.9714C5.36008 38.4698 6.07286 38.5831 6.58517 38.13C8.14438 36.8159 8.92399 34.6183 8.90172 32.4886C8.87944 29.3168 7.56525 27.8215 7.56525 23.7887C7.56525 15.0662 14.8267 7.68037 23.4246 7.68037C34.1609 7.68037 40.8433 16.4482 40.8878 29.2035C40.9101 33.9386 40.175 37.5862 39.2395 40.0104C38.9945 40.6221 39.2395 41.2338 39.7295 41.4604C40.2196 41.6869 40.9101 41.5057 41.1328 40.8713C42.0906 38.1526 42.9371 34.1878 42.9371 29.1809C42.9371 15.2475 35.4083 5.61867 23.4246 5.61867C13.6907 5.61867 5.516 13.9334 5.516 23.7887C5.516 27.5496 6.89702 30.0871 6.91929 32.4886C6.91929 34.0066 6.31788 35.5245 5.24871 36.4761C4.80322 36.8612 4.7364 37.5182 5.02596 37.9714ZM14.5817 30.291C13.958 28.6371 13.0893 26.5301 13.0893 24.0833C13.0893 17.8529 17.5887 13.2764 23.6919 13.2764C25.8971 13.2764 27.0554 13.6615 28.8819 14.6811C29.461 14.9756 29.9956 14.7943 30.2184 14.3865C30.4856 13.9108 30.4188 13.2537 29.706 12.8233C28.1246 11.8264 25.9194 11.192 23.6919 11.192C16.4527 11.192 11.0401 16.6974 11.0401 24.0833C11.0401 26.5528 11.7083 28.8637 12.5993 31.084C12.8666 31.7183 13.4234 31.9902 14.0471 31.741C14.5817 31.5144 14.8044 30.9027 14.5817 30.291ZM32.223 17.6263C34.3614 20.7982 35.4083 25.352 35.4083 30.5176C35.4083 36.023 33.9382 41.3244 31.4657 44.6096C31.1316 45.0627 31.0648 45.7197 31.4657 46.1275C31.8889 46.558 32.6685 46.558 33.0472 46.0595C35.787 42.276 37.4353 36.4534 37.4353 30.4496C37.4353 24.2192 36.0988 19.8466 34.0496 16.5388C33.6486 15.8818 33.0027 15.7459 32.5126 16.0178C31.978 16.3123 31.8221 16.992 32.223 17.6263ZM14.5371 45.0174C18.0788 42.1174 20.0389 37.4956 20.0167 32.33C19.9721 28.4559 18.6134 26.0317 18.6134 23.8114C18.6134 20.8661 20.6626 18.8951 23.5806 18.8951C27.9464 18.8951 29.6615 23.6302 29.7506 30.223C29.8842 37.337 27.3672 43.1596 24.0706 46.1728C23.6474 46.558 23.5583 47.1244 23.8701 47.5775C24.2043 48.0533 24.917 48.1665 25.4071 47.7134C28.9264 44.451 31.7107 37.5862 31.6885 30.0871C31.6662 22.2708 29.3719 16.8334 23.5806 16.8334C19.6157 16.8334 16.6087 19.5521 16.6087 23.6528C16.6087 26.0996 17.9229 29.1809 17.9674 32.33C17.9897 36.8612 16.2968 40.8487 13.2675 43.3635C12.7329 43.7939 12.6884 44.4057 13.0002 44.8588C13.3566 45.3799 14.0248 45.4705 14.5371 45.0174ZM2.21938 31.4238C2.75397 31.2425 3.04354 30.6988 2.86534 30.0191C2.28621 27.8215 2.01891 25.0575 2.08574 22.0216C2.08574 21.3646 1.72935 20.9794 1.17249 20.9568C0.459703 20.9114 0.081038 21.3646 0.0364891 21.931C-0.0971575 24.5364 0.125587 27.7762 0.882918 30.6082C1.08339 31.2879 1.66252 31.5824 2.21938 31.4238ZM25.6744 34.6636C26.3203 31.7636 26.0308 27.6856 24.8948 24.4911C24.6275 23.7434 24.0929 23.5169 23.5137 23.6981C22.9792 23.8794 22.6673 24.4231 22.8678 25.0575C23.9815 28.1613 24.2265 31.673 23.6474 34.3917C23.536 34.9581 23.7588 35.4792 24.3825 35.5925C24.9839 35.7058 25.5184 35.3433 25.6744 34.6636ZM9.92634 42.0721C11.5524 41.2112 13.8021 38.3112 14.3812 35.9323C14.5371 35.3659 14.2476 34.7769 13.6907 34.5956C13.1784 34.437 12.6438 34.7316 12.4434 35.3433C11.8419 37.5182 10.5946 39.0815 8.99081 40.1917C8.32258 40.6674 8.25576 41.2791 8.4785 41.7096C8.70125 42.1627 9.28038 42.4119 9.92634 42.0721ZM19.5934 46.8298C21.3531 45.5158 23.3801 42.8651 24.427 39.6479C24.5606 39.1495 24.4493 38.4925 23.8701 38.3112C23.291 38.1073 22.7341 38.3792 22.5559 38.9003C21.3531 42.1174 19.883 43.9752 18.3461 45.1533C17.8783 45.5158 17.7447 46.1502 18.0565 46.6259C18.3684 47.1697 19.0589 47.2376 19.5934 46.8298Z" fill="url(#paint0_linear_1673_24218)"/>
<defs>
<linearGradient id="paint0_linear_1673_24218" x1="0" y1="24" x2="48" y2="24" gradientUnits="userSpaceOnUse">
<stop offset="0.0625" stop-color="#C7863D"/>
<stop offset="0.5" stop-color="#FFCE6F"/>
<stop offset="0.9375" stop-color="#C7863D"/>
</linearGradient>
</defs>
</svg>
