<svg width="48" height="44" viewBox="0 0 48 44" fill="none" xmlns="http://www.w3.org/2000/svg">
<path fill-rule="evenodd" clip-rule="evenodd" d="M6.15385 21.2876H5.53846C3.61723 21.2876 2.05128 19.7114 2.05128 17.7776V10.9225C2.05128 10.1948 2.31573 9.51064 2.67346 8.97646C3.03165 8.4416 3.5656 7.93439 4.24622 7.66036L22.7078 0.227261C23.1373 0.0543086 23.6106 0 24 0C24.3894 0 24.8627 0.0543086 25.2922 0.227261L43.7538 7.66035C44.4344 7.93439 44.9683 8.4416 45.3265 8.97646C45.6843 9.51064 45.9487 10.1948 45.9487 10.9225V17.7776C45.9487 19.7114 44.3828 21.2876 42.4615 21.2876H41.8461V32.8503H42.4615C44.3828 32.8503 45.9487 34.4265 45.9487 36.3604V41.1093H46.5641C47.3571 41.1093 48 41.7564 48 42.5547C48 43.3529 47.3571 44 46.5641 44H1.4359C0.642873 44 0 43.3529 0 42.5547C0 41.7564 0.642873 41.1093 1.4359 41.1093H2.05128V36.3604C2.05128 34.4265 3.61723 32.8503 5.53846 32.8503H6.15385V21.2876ZM5.31277 10.3443L23.766 2.91453C23.7706 2.91328 23.7875 2.90875 23.8183 2.90384C23.8671 2.89605 23.9301 2.89067 24 2.89067C24.0699 2.89067 24.1329 2.89605 24.1817 2.90384C24.2125 2.90875 24.2294 2.91328 24.234 2.91453L42.6872 10.3443C42.7246 10.3593 42.8368 10.4302 42.9452 10.5922C43.0542 10.7549 43.0769 10.8862 43.0769 10.9225V17.7776C43.0769 18.1149 42.7967 18.397 42.4615 18.397H40.4144L40.4103 18.397L40.4061 18.397H32.2093L32.2051 18.397L32.201 18.397H24.0041L24 18.397L23.9958 18.397H15.799L15.7949 18.397L15.7907 18.397H7.59389L7.58974 18.397L7.58559 18.397H5.53846C5.20328 18.397 4.92308 18.1149 4.92308 17.7776V10.9225C4.92308 10.8862 4.94582 10.7549 5.05475 10.5922C5.16324 10.4302 5.27545 10.3593 5.31277 10.3443ZM9.02564 21.2876V32.8503H14.359V21.2876H9.02564ZM17.2308 21.2876V32.8503H22.5641V21.2876H17.2308ZM25.4359 21.2876V32.8503H30.7692V21.2876H25.4359ZM33.641 21.2876V32.8503H38.9744V21.2876H33.641ZM7.59933 35.7409H15.7853L15.7949 35.741L15.8045 35.7409H23.9904L24 35.741L24.0096 35.7409H32.1955L32.2051 35.741L32.2147 35.7409H40.4007L40.4103 35.741L40.4198 35.7409H42.4615C42.7967 35.7409 43.0769 36.023 43.0769 36.3604V41.1093H4.92308V36.3604C4.92308 36.023 5.20328 35.7409 5.53846 35.7409H7.58016L7.58974 35.741L7.59933 35.7409Z" fill="url(#paint0_linear_1671_24360)"/>
<path fill-rule="evenodd" clip-rule="evenodd" d="M24 9.93146C23.0937 9.93146 22.3589 10.671 22.3589 11.5833C22.3589 12.4955 23.0937 13.2351 24 13.2351C24.9063 13.2351 25.641 12.4955 25.641 11.5833C25.641 10.671 24.9063 9.93146 24 9.93146ZM19.4872 11.5833C19.4872 9.07453 21.5076 7.04079 24 7.04079C26.4923 7.04079 28.5128 9.07453 28.5128 11.5833C28.5128 14.092 26.4923 16.1257 24 16.1257C21.5076 16.1257 19.4872 14.092 19.4872 11.5833Z" fill="url(#paint1_linear_1671_24360)"/>
<defs>
<linearGradient id="paint0_linear_1671_24360" x1="0" y1="22" x2="48" y2="22" gradientUnits="userSpaceOnUse">
<stop offset="0.0625" stop-color="#C7863D"/>
<stop offset="0.5" stop-color="#FFCE6F"/>
<stop offset="0.9375" stop-color="#C7863D"/>
</linearGradient>
<linearGradient id="paint1_linear_1671_24360" x1="0" y1="22" x2="48" y2="22" gradientUnits="userSpaceOnUse">
<stop offset="0.0625" stop-color="#C7863D"/>
<stop offset="0.5" stop-color="#FFCE6F"/>
<stop offset="0.9375" stop-color="#C7863D"/>
</linearGradient>
</defs>
</svg>
