<svg width="48" height="48" viewBox="0 0 48 48" fill="none" xmlns="http://www.w3.org/2000/svg">
<path fill-rule="evenodd" clip-rule="evenodd" d="M17.6963 0C11.8294 0 7.30643 1.24784 4.27713 4.27713C1.24784 7.30643 0 11.8294 0 17.6963V30.3037C0 36.1706 1.24784 40.6936 4.27713 43.7229C7.30643 46.7522 11.8294 48 17.6963 48H30.3037C36.1706 48 40.6936 46.7522 43.7229 43.7229C46.7522 40.6936 48 36.1706 48 30.3037V17.6963C48 11.8294 46.7522 7.30643 43.7229 4.27713C40.6936 1.24784 36.1706 0 30.3037 0H17.6963ZM2.82353 17.6963C2.82353 12.1535 4.01311 8.53423 6.27367 6.27367C8.53423 4.01311 12.1535 2.82353 17.6963 2.82353H30.3037C35.8465 2.82353 39.4658 4.01311 41.7263 6.27367C43.9869 8.53423 45.1765 12.1535 45.1765 17.6963V30.3037C45.1765 35.8465 43.9869 39.4658 41.7263 41.7263C39.4658 43.9869 35.8465 45.1765 30.3037 45.1765H17.6963C12.1825 45.1765 8.57217 43.9993 6.30928 41.7617C8.45611 38.6093 10.6174 35.4357 12.8172 32.2047C14.8841 33.7187 16.9464 35.2293 19.0633 36.779L19.3588 36.9954L26.7659 26.1166C27.8604 26.9186 28.9659 27.7292 30.0698 28.5387L30.7915 29.0679L29.2591 19.1435L19.5091 20.8795C19.5091 20.8795 22.0556 22.8114 22.866 23.3951L23.7186 24.0092C21.9705 26.5751 20.2296 29.1316 18.4733 31.7106L18.4167 31.7936C16.3877 30.3065 14.3386 28.8048 12.334 27.3364L12.0388 27.1201L11.4808 27.9389C9.04472 31.5165 6.6182 35.0801 4.20639 38.6214C3.29433 36.5164 2.82353 33.7907 2.82353 30.3037V17.6963Z" fill="url(#paint0_linear_1671_24357)"/>
<defs>
<linearGradient id="paint0_linear_1671_24357" x1="0" y1="24" x2="48" y2="24" gradientUnits="userSpaceOnUse">
<stop offset="0.0625" stop-color="#C7863D"/>
<stop offset="0.5" stop-color="#FFCE6F"/>
<stop offset="0.9375" stop-color="#C7863D"/>
</linearGradient>
</defs>
</svg>
