<svg width="48" height="48" viewBox="0 0 48 48" fill="none" xmlns="http://www.w3.org/2000/svg">
<path fill-rule="evenodd" clip-rule="evenodd" d="M4.11567 4.11567C7.09303 1.13832 11.5483 0 17.2912 0H30.6779C36.4207 0 40.876 1.13832 43.8533 4.11567C46.8307 7.09303 47.969 11.5483 47.969 17.2912V26.2156C47.969 27.1398 47.2198 27.889 46.2957 27.889C45.3715 27.889 44.6223 27.1398 44.6223 26.2156V17.2912C44.6223 11.8784 43.5295 8.52479 41.4869 6.48213C39.4442 4.43947 36.0906 3.34668 30.6779 3.34668H17.2912C11.8784 3.34668 8.52479 4.43947 6.48213 6.48213C4.43947 8.52479 3.34668 11.8784 3.34668 17.2912V30.6779C3.34668 36.0906 4.43947 39.4442 6.48213 41.4869C8.52479 43.5295 11.8784 44.6223 17.2912 44.6223H26.2156C27.1398 44.6223 27.889 45.3715 27.889 46.2957C27.889 47.2198 27.1398 47.969 26.2156 47.969H17.2912C11.5483 47.969 7.09303 46.8307 4.11567 43.8533C1.13832 40.876 0 36.4207 0 30.6779V17.2912C0 11.5483 1.13832 7.09303 4.11567 4.11567Z" fill="url(#paint0_linear_1673_24217)"/>
<path fill-rule="evenodd" clip-rule="evenodd" d="M37.8008 33.2478L37.1722 34.5275C36.8706 35.1308 36.3926 35.6258 35.921 35.9795C35.452 36.3313 34.8385 36.6562 34.1657 36.7683L34.1516 36.7707L33.3114 36.9033C32.5935 37.024 32.388 37.2399 32.343 37.3008C32.3437 37.3764 32.3821 37.6832 32.9135 38.2221L33.6906 38.9991L33.7155 39.0246C34.2096 39.5402 34.5217 40.1975 34.6916 40.7966C34.8613 41.3944 34.9416 42.1183 34.789 42.8157L34.7825 42.8457L34.6719 43.3091C34.5277 43.933 34.5318 44.3429 34.5732 44.5706C34.5775 44.5945 34.5819 44.6152 34.5863 44.633C34.6013 44.6318 34.618 44.6301 34.6367 44.6277C34.8586 44.5987 35.245 44.4794 35.7928 44.1489L35.8211 44.1322L36.3971 43.7999L36.3997 43.7984C37.0589 43.4165 37.817 43.2725 38.4867 43.2725C39.1565 43.2725 39.9147 43.4165 40.5739 43.7985L40.5764 43.7999L41.1773 44.1466C41.7195 44.4719 42.1019 44.5895 42.3221 44.618C42.3419 44.6205 42.3596 44.6223 42.3752 44.6235C42.3799 44.6049 42.3848 44.5832 42.3895 44.558C42.432 44.3317 42.4387 43.9245 42.3002 43.3033L42.1842 42.8158C42.0316 42.1183 42.1122 41.3944 42.2818 40.7966C42.4518 40.1975 42.7639 39.5402 43.258 39.0246L43.2829 38.9991L44.06 38.2221C44.5913 37.6832 44.6298 37.3764 44.6304 37.3008C44.5855 37.2399 44.38 37.024 43.6621 36.9033L42.8219 36.7706C42.8028 36.7676 42.7838 36.7643 42.7649 36.7606C42.1173 36.6353 41.5201 36.3271 41.046 35.9726C40.5734 35.6191 40.102 35.1289 39.8013 34.5274L39.796 34.5169L39.1738 33.2502L39.1727 33.2478C38.947 32.7929 38.733 32.55 38.5928 32.4356C38.5436 32.3954 38.5084 32.3744 38.4867 32.3638C38.4651 32.3744 38.4299 32.3954 38.3807 32.4356C38.2405 32.55 38.0265 32.7929 37.8008 33.2478ZM38.4867 29.0101C40.2181 29.0101 41.4539 30.3137 42.1727 31.7645L42.1752 31.7696L42.7953 33.032L42.7986 33.0378C42.8014 33.0425 42.8056 33.0491 42.8114 33.0575C42.8233 33.0746 42.8403 33.0968 42.8636 33.123C42.911 33.1766 42.9745 33.2357 43.0503 33.2925C43.2032 33.4067 43.3323 33.4573 43.3872 33.4718L44.2058 33.601C45.7792 33.8633 47.3116 34.6771 47.8231 36.2833C48.3329 37.8838 47.5625 39.4387 46.4374 40.5776L46.4303 40.5848L45.6707 41.3442C45.6673 41.3484 45.6614 41.3558 45.6535 41.367C45.6401 41.386 45.6233 41.4128 45.6048 41.4477C45.5669 41.5191 45.53 41.6093 45.5014 41.7101C45.4728 41.811 45.4571 41.906 45.452 41.9845C45.4478 42.0499 45.452 42.087 45.4534 42.0976L45.5635 42.5599C45.9408 44.2395 45.8903 46.2526 44.3751 47.3615C42.8558 48.4735 40.9326 47.8995 39.4683 47.0243L38.9 46.6965L38.8959 46.6941C38.8641 46.6756 38.7197 46.6192 38.4867 46.6192C38.2538 46.6192 38.1094 46.6756 38.0776 46.6941L38.0735 46.6965L37.5068 47.0234C36.0338 47.9082 34.1005 48.488 32.5779 47.3671C31.0604 46.25 31.0236 44.227 31.4127 42.5487L31.4149 42.5392L31.5201 42.0976C31.5215 42.087 31.5257 42.0499 31.5214 41.9845C31.5164 41.906 31.5007 41.811 31.4721 41.7101C31.4435 41.6093 31.4066 41.5191 31.3687 41.4477C31.3502 41.4128 31.3334 41.386 31.32 41.367C31.3121 41.3558 31.3062 41.3484 31.3028 41.3442L30.5361 40.5776C29.4109 39.4387 28.6406 37.8838 29.1504 36.2833C29.6619 34.6771 31.1943 33.8633 32.7677 33.6011L32.7818 33.5987L33.6128 33.4676C33.6174 33.4663 33.6458 33.4587 33.6962 33.435C33.7594 33.4053 33.835 33.3607 33.9129 33.3022C33.9907 33.2439 34.0573 33.1819 34.1076 33.1252C34.1322 33.0975 34.1503 33.0741 34.1626 33.0563C34.1721 33.0426 34.1784 33.0315 34.1784 33.0315L34.8008 31.7645C35.5196 30.3137 36.7554 29.0101 38.4867 29.0101Z" fill="url(#paint1_linear_1673_24217)"/>
<path d="M39.6132 16.652H28.4504C27.535 16.652 26.7759 15.8848 26.7759 14.9597C26.7759 14.0346 27.535 13.2674 28.4504 13.2674H39.6132C40.5285 13.2674 41.2876 14.0346 41.2876 14.9597C41.2876 15.8848 40.5285 16.652 39.6132 16.652Z" fill="url(#paint2_linear_1673_24217)"/>
<path d="M39.6132 25.6777H30.683C29.7676 25.6777 29.0086 24.9105 29.0086 23.9854C29.0086 23.0602 29.7676 22.293 30.683 22.293H39.6132C40.5286 22.293 41.2876 23.0602 41.2876 23.9854C41.2876 24.9105 40.5286 25.6777 39.6132 25.6777Z" fill="url(#paint3_linear_1673_24217)"/>
<path d="M16.1713 24.0756C13.0234 24.0756 10.4559 21.4807 10.4559 18.2992C10.4559 15.1177 13.0234 12.5228 16.1713 12.5228C19.3192 12.5228 21.8866 15.1177 21.8866 18.2992C21.8866 21.4807 19.3192 24.0756 16.1713 24.0756ZM16.1713 15.9074C14.8764 15.9074 13.8048 16.9905 13.8048 18.2992C13.8048 19.6079 14.8764 20.691 16.1713 20.691C17.4661 20.691 18.5378 19.6079 18.5378 18.2992C18.5378 16.9905 17.4661 15.9074 16.1713 15.9074Z" fill="url(#paint4_linear_1673_24217)"/>
<path d="M23.9853 35.4479C23.1369 35.4479 22.4002 34.7936 22.3109 33.9136C22.0653 31.4766 20.123 29.5136 17.6895 29.2879C16.6625 29.1977 15.6355 29.1977 14.6086 29.2879C12.1751 29.5136 10.2328 31.4541 9.98718 33.9136C9.89787 34.8387 9.07183 35.5382 8.15648 35.4254C7.24113 35.3351 6.57136 34.5002 6.66066 33.5751C7.06252 29.5136 10.2551 26.2869 14.296 25.9259C15.5239 25.813 16.7742 25.813 18.0021 25.9259C22.0207 26.3095 25.2355 29.5361 25.6374 33.5751C25.7267 34.5002 25.0569 35.3351 24.1416 35.4254C24.0969 35.4479 24.03 35.4479 23.9853 35.4479Z" fill="url(#paint5_linear_1673_24217)"/>
<defs>
<linearGradient id="paint0_linear_1673_24217" x1="0" y1="23.9927" x2="47.9836" y2="23.9927" gradientUnits="userSpaceOnUse">
<stop offset="0.0625" stop-color="#C7863D"/>
<stop offset="0.5" stop-color="#FFCE6F"/>
<stop offset="0.9375" stop-color="#C7863D"/>
</linearGradient>
<linearGradient id="paint1_linear_1673_24217" x1="0" y1="23.9927" x2="47.9836" y2="23.9927" gradientUnits="userSpaceOnUse">
<stop offset="0.0625" stop-color="#C7863D"/>
<stop offset="0.5" stop-color="#FFCE6F"/>
<stop offset="0.9375" stop-color="#C7863D"/>
</linearGradient>
<linearGradient id="paint2_linear_1673_24217" x1="0" y1="23.9927" x2="47.9836" y2="23.9927" gradientUnits="userSpaceOnUse">
<stop offset="0.0625" stop-color="#C7863D"/>
<stop offset="0.5" stop-color="#FFCE6F"/>
<stop offset="0.9375" stop-color="#C7863D"/>
</linearGradient>
<linearGradient id="paint3_linear_1673_24217" x1="0" y1="23.9927" x2="47.9836" y2="23.9927" gradientUnits="userSpaceOnUse">
<stop offset="0.0625" stop-color="#C7863D"/>
<stop offset="0.5" stop-color="#FFCE6F"/>
<stop offset="0.9375" stop-color="#C7863D"/>
</linearGradient>
<linearGradient id="paint4_linear_1673_24217" x1="0" y1="23.9927" x2="47.9836" y2="23.9927" gradientUnits="userSpaceOnUse">
<stop offset="0.0625" stop-color="#C7863D"/>
<stop offset="0.5" stop-color="#FFCE6F"/>
<stop offset="0.9375" stop-color="#C7863D"/>
</linearGradient>
<linearGradient id="paint5_linear_1673_24217" x1="0" y1="23.9927" x2="47.9836" y2="23.9927" gradientUnits="userSpaceOnUse">
<stop offset="0.0625" stop-color="#C7863D"/>
<stop offset="0.5" stop-color="#FFCE6F"/>
<stop offset="0.9375" stop-color="#C7863D"/>
</linearGradient>
</defs>
</svg>
