<svg width="159" height="8" viewBox="0 0 159 8" fill="none" xmlns="http://www.w3.org/2000/svg">
<path opacity="0.56" d="M34.5424 1.6262C49.6161 1.39176 64.698 1.24104 79.78 1.17406C94.8619 1.10707 109.804 1.1294 124.812 1.23546C133.338 1.29686 141.872 1.38059 150.397 1.49223L151.554 0.347918C132.091 0.576781 112.635 0.861465 93.1797 1.20197C73.7242 1.54247 54.2687 1.9388 34.8132 2.39652C23.8915 2.6533 12.978 2.92124 2.05635 3.2115C1.41631 3.22825 0.456257 3.33989 0.0952095 3.76412C-0.241221 4.16045 0.382406 4.36698 0.89936 4.35582C21.1754 4.00415 41.4679 3.97066 61.7522 4.26092C82.0365 4.55119 102.304 5.17079 122.548 6.10858C133.921 6.63329 145.285 7.26406 156.634 7.9953C157.249 8.03438 158.267 7.82784 158.595 7.44268C158.956 7.02403 158.283 6.8789 157.791 6.85099C137.597 5.55037 117.353 4.56794 97.0938 3.90926C76.8341 3.25058 56.5416 2.92124 36.2574 2.91565C24.8598 2.91565 13.4622 3.01055 2.06456 3.2115L0.907565 4.35582C20.3549 3.83669 39.8104 3.37896 59.2659 2.97147C78.7214 2.56957 98.1769 2.2179 117.632 1.92763C128.554 1.76575 139.484 1.61504 150.406 1.48665C151.046 1.48107 152.014 1.35268 152.367 0.934031C152.72 0.515379 152.071 0.347918 151.563 0.342336C136.473 0.152546 121.399 0.0353237 106.317 0.00741355C91.235 -0.0204966 76.2926 0.0297417 61.2845 0.169293C52.7589 0.247441 44.225 0.3535 35.6994 0.487468C35.0593 0.498633 34.0911 0.621437 33.7382 1.04009C33.4018 1.43641 34.0254 1.64295 34.5424 1.63179V1.6262Z" fill="#105031"/>
</svg>
