<svg width="606" height="412" viewBox="0 0 606 412" fill="none" xmlns="http://www.w3.org/2000/svg">
<g clip-path="url(#clip0_1599_24132)">
<path d="M0 24C0 10.7452 10.7452 0 24 0H582C595.255 0 606 10.7452 606 24V388C606 401.255 595.255 412 582 412H24C10.7452 412 0 401.255 0 388V24Z" fill="url(#paint0_radial_1599_24132)"/>
<g opacity="0.07">
<path fill-rule="evenodd" clip-rule="evenodd" d="M519 139.529C396.84 139.529 297.529 238.84 297.529 361C297.529 483.16 396.84 582.471 519 582.471C640.949 582.471 740.471 483.151 740.471 361C740.471 238.84 641.16 139.529 519 139.529ZM268 361C268 222.532 380.532 110 519 110C657.468 110 770 222.532 770 361C770 499.477 657.24 612 519 612C380.532 612 268 499.468 268 361Z" fill="#F5F5F5"/>
<path d="M412.696 200.849C472.831 154.869 558.688 166.531 604.446 226.957C643.304 278.216 640.648 348.041 602.252 396.168C616.715 350.043 609.556 297.826 578.175 256.43C552.885 223.041 534.986 213.062 496.734 207.521C489.286 206.447 517.52 262.261 513.45 258.635C489.777 237.458 454.556 206.622 410.069 203.111C410.992 202.357 411.801 201.545 412.696 200.849ZM435.705 527.115C365.985 497.816 333.132 417.257 362.319 347.229C387.088 287.789 448.58 255.154 509.235 264.582C462.293 275.025 420.837 307.399 400.859 355.352C384.75 394.079 385.068 414.617 399.416 450.734C402.187 457.696 436.195 405.247 435.098 410.527C428.718 441.77 419.74 487.837 438.967 528.333C437.812 527.869 436.744 527.579 435.705 527.115ZM587.788 495.524C524.16 503.676 465.324 466.457 443.066 408.99C475.544 444.671 524.131 464.542 575.519 457.957C616.946 452.619 634.47 442.031 658.432 411.513C663.051 405.537 600.837 402.23 605.976 400.519C636.058 390.482 680.286 375.252 705.547 338.294C705.691 339.426 706.008 340.557 706.124 341.688C715.737 417.025 662.733 485.893 587.788 495.524Z" fill="#F5F5F5"/>
</g>
</g>
<defs>
<radialGradient id="paint0_radial_1599_24132" cx="0" cy="0" r="1" gradientUnits="userSpaceOnUse" gradientTransform="translate(-7.12891e-05 184) scale(606 891.35)">
<stop offset="0.0572917" stop-color="#04784E"/>
<stop offset="0.640625" stop-color="#064C32"/>
</radialGradient>
<clipPath id="clip0_1599_24132">
<rect width="606" height="412" fill="white"/>
</clipPath>
</defs>
</svg>
