<svg width="30" height="30" viewBox="0 0 30 30" fill="none" xmlns="http://www.w3.org/2000/svg">
<path d="M22.6621 19.1104C22.1112 18.8264 21.1143 18.5119 20.0479 19.1455C18.8296 19.8691 18.7324 21.1118 18.7568 21.6699L18.7598 21.7363L18.8164 21.7705C19.2921 22.0632 20.421 22.5777 21.6387 21.8525C22.857 21.1289 22.9541 19.8861 22.9297 19.3281L22.9268 19.2617L22.8701 19.2275L22.6621 19.1104ZM9.95312 17.5674C8.736 16.8435 7.60805 17.3558 7.12988 17.6484L7.07324 17.6826L7.07031 17.749C7.04588 18.3087 7.14426 19.5499 8.36133 20.2734C9.57999 20.9995 10.709 20.4834 11.1836 20.1924L11.2402 20.1582L11.2432 20.0918C11.2676 19.5323 11.1703 18.2902 9.95312 17.5674ZM14.3398 15.6211L14.2275 15.6094C13.043 15.4889 11.8994 15.1089 10.8867 14.4639C10.5793 14.2677 10.4875 13.8573 10.6826 13.5469C10.8539 13.2755 11.1871 13.1704 11.4736 13.2803L11.5928 13.3408C12.6139 13.9911 13.7926 14.3359 15 14.3359C18.5322 14.3359 21.4043 11.4454 21.4043 7.89453C21.4042 4.3438 18.5322 1.45411 15 1.4541C11.4678 1.4541 8.59581 4.3438 8.5957 7.89453C8.5957 9.10845 8.93752 10.2935 9.58398 11.3203C9.77932 11.6307 9.68725 12.0411 9.37988 12.2373C9.07212 12.4329 8.66425 12.3418 8.46875 12.0322H8.46973C7.68853 10.7916 7.27539 9.36088 7.27539 7.89453C7.2755 3.6097 10.7414 0.125 15 0.125C19.2586 0.125006 22.7245 3.6097 22.7246 7.89453C22.7246 11.917 19.6698 15.234 15.7725 15.625L15.6602 15.6367V23.1191L15.873 22.9053C16.2633 22.5147 16.7587 22.1284 17.377 21.7695L17.4414 21.7324L17.4395 21.6582C17.4147 20.7561 17.6219 19.0436 19.377 18.001C20.577 17.287 21.7 17.3639 22.5381 17.6289C23.1695 17.8285 23.6374 18.1346 23.8486 18.2891L23.9707 18.3838C24.0858 18.4818 24.1644 18.6157 24.1934 18.7637C24.2033 18.8148 24.3344 19.5199 24.1602 20.3896C23.9973 21.2022 23.569 22.156 22.5264 22.8604L22.3096 22.998C21.0586 23.7399 19.3923 23.6985 18.1533 22.9268L18.0889 22.8867L18.0244 22.9248C15.7519 24.2484 15.6627 25.9559 15.6602 26.0605V28.5459H17.3545C17.7183 28.5459 18.0146 28.843 18.0146 29.2109C18.0144 29.5787 17.7182 29.875 17.3545 29.875H12.6455C12.2818 29.875 11.9856 29.5787 11.9854 29.2109C11.9854 28.843 12.2817 28.5459 12.6455 28.5459H14.3398V24.4795C14.336 24.3562 14.2346 22.6594 11.9736 21.3438L11.9092 21.3066L11.8447 21.3457C10.6723 22.0766 9.16968 22.1681 7.93359 21.5518L7.69043 21.4189C6.4894 20.705 6.01367 19.6781 5.83984 18.8115C5.66541 17.9416 5.79667 17.2357 5.80664 17.1846C5.83566 17.0366 5.91422 16.9027 6.0293 16.8047C6.07107 16.7701 6.62184 16.3162 7.46191 16.0508C8.29991 15.7861 9.42272 15.7092 10.623 16.4219C12.3778 17.4645 12.5853 19.1769 12.5605 20.0791L12.5586 20.1533L12.623 20.1904C13.2412 20.5493 13.7367 20.9356 14.127 21.3262L14.3398 21.54V15.6211ZM14.3252 11.7188L14.2256 11.6982C13.0042 11.447 12 10.6235 12 9.49902V9.44336H13.3486V9.49902C13.3486 9.7533 13.5092 10.0299 13.7861 10.2373C14.0666 10.4472 14.4754 10.5947 15 10.5947C15.5246 10.5947 15.9334 10.4472 16.2139 10.2373C16.4908 10.0299 16.6514 9.7533 16.6514 9.49902C16.6513 9.28397 16.5294 9.08165 16.2051 8.87695C15.8696 8.66527 15.3833 8.4993 14.8447 8.3877C14.1975 8.25357 13.5181 8.04165 12.9854 7.70215C12.4367 7.35246 12.0001 6.83372 12 6.12598C12 5.00151 13.0042 4.17798 14.2256 3.92676L14.3252 3.90625V2.9375H15.6748V3.90625L15.7744 3.92676C16.9958 4.17798 18 5.0015 18 6.12598V6.18164H16.6514V6.12598C16.6514 5.8717 16.4908 5.59506 16.2139 5.3877C15.9334 5.17777 15.5246 5.03027 15 5.03027C14.4754 5.03027 14.0666 5.17777 13.7861 5.3877C13.5092 5.59506 13.3486 5.8717 13.3486 6.12598C13.3487 6.23196 13.3761 6.33875 13.4473 6.44531C13.5168 6.54944 13.6249 6.64831 13.7783 6.74609C14.1046 6.95401 14.5879 7.11973 15.1553 7.2373C15.7795 7.36667 16.4566 7.57846 16.9932 7.91699C17.5403 8.26228 17.9999 8.78274 18 9.49902C18 10.6235 16.9958 11.447 15.7744 11.6982L15.6748 11.7188V12.6875H14.3252V11.7188Z" fill="url(#paint0_linear_423_19043)" stroke="url(#paint1_linear_423_19043)" stroke-width="0.25"/>
<defs>
<linearGradient id="paint0_linear_423_19043" x1="5.625" y1="15" x2="24.375" y2="15" gradientUnits="userSpaceOnUse">
<stop offset="0.0625" stop-color="#C7863D"/>
<stop offset="0.5" stop-color="#FFCE6F"/>
<stop offset="0.9375" stop-color="#C7863D"/>
</linearGradient>
<linearGradient id="paint1_linear_423_19043" x1="5.625" y1="15" x2="24.375" y2="15" gradientUnits="userSpaceOnUse">
<stop offset="0.0625" stop-color="#C7863D"/>
<stop offset="0.5" stop-color="#FFCE6F"/>
<stop offset="0.9375" stop-color="#C7863D"/>
</linearGradient>
</defs>
</svg>
