<svg width="33" height="32" viewBox="0 0 33 32" fill="none" xmlns="http://www.w3.org/2000/svg">
<g clip-path="url(#clip0_1885_27080)">
<path d="M24.4668 20.2793C23.8946 19.9843 22.8593 19.6582 21.752 20.3164C20.4875 21.0674 20.3868 22.3567 20.4121 22.9365L20.415 23.0029L20.4707 23.0381C20.9648 23.3422 22.1381 23.8761 23.4023 23.123C24.6667 22.3719 24.7676 21.0817 24.7422 20.502L24.7393 20.4355L24.6826 20.4004L24.4668 20.2793ZM11.248 18.6748C9.98495 17.9237 8.81526 18.4548 8.31836 18.7588L8.26074 18.793L8.25781 18.8594C8.23243 19.4408 8.33467 20.7294 9.59766 21.4805C10.8626 22.2343 12.0352 21.6988 12.5283 21.3965L12.585 21.3613L12.5879 21.2949C12.6132 20.7134 12.5116 19.4249 11.248 18.6748ZM15.8086 16.6504L15.6963 16.6387C14.4636 16.5133 13.2737 16.1186 12.2197 15.4473C11.8974 15.2418 11.8012 14.8116 12.0059 14.4863C12.2108 14.1616 12.637 14.0647 12.959 14.2705C14.0201 14.9463 15.2452 15.3047 16.5 15.3047C20.1706 15.3047 23.156 12.3013 23.1562 8.61133C23.1562 4.9212 20.1707 1.91797 16.5 1.91797C12.8293 1.91797 9.84375 4.9212 9.84375 8.61133C9.84383 9.87264 10.1994 11.104 10.8711 12.1709C11.0758 12.4962 10.9796 12.9264 10.6572 13.1318C10.3348 13.3366 9.90885 13.2402 9.7041 12.916H9.70312C8.89055 11.6253 8.46199 10.1368 8.46191 8.61133C8.46191 4.15227 12.0682 0.525391 16.5 0.525391C20.9318 0.525396 24.5381 4.15227 24.5381 8.61133C24.5379 12.7971 21.3594 16.2483 17.3037 16.6553L17.1914 16.667V24.4326L17.4043 24.2188C17.8105 23.8122 18.3264 23.4096 18.9697 23.0361L19.0332 22.999L19.0312 22.9248C19.0055 21.9858 19.2223 20.2029 21.0498 19.1172C22.2992 18.374 23.4682 18.4537 24.3408 18.7295C24.9979 18.9372 25.485 19.256 25.7051 19.417L25.833 19.5156C25.9536 19.6184 26.0361 19.7589 26.0664 19.9141C26.0771 19.9692 26.2126 20.7029 26.0312 21.6074C25.8503 22.5097 25.3548 23.5789 24.1045 24.3223C22.8016 25.095 21.0665 25.0519 19.7764 24.248L19.7129 24.208L19.6475 24.2461C17.2886 25.62 17.1942 27.3918 17.1914 27.5029V30.083H18.9492C19.3303 30.0831 19.6406 30.394 19.6406 30.7793C19.6406 31.1647 19.3303 31.4755 18.9492 31.4756H14.0508C13.6697 31.4755 13.3594 31.1647 13.3594 30.7793C13.3594 30.3939 13.6697 30.0831 14.0508 30.083H15.8086V25.8584C15.8044 25.7287 15.6979 23.9685 13.3506 22.6025L13.2852 22.5645L13.2217 22.6045C11.9196 23.4162 10.226 23.4701 8.89551 22.6807C7.64477 21.9371 7.14968 20.8672 6.96875 19.9648C6.78719 19.0592 6.92316 18.325 6.93359 18.2715C6.96397 18.1164 7.04638 17.9757 7.16699 17.873C7.21072 17.8368 7.78392 17.3652 8.6582 17.0889C9.53087 16.8131 10.701 16.7322 11.9512 17.4746C13.7782 18.5601 13.9945 20.3431 13.9688 21.2822L13.9658 21.3564L14.0303 21.3945C14.6736 21.768 15.1895 22.1697 15.5957 22.5762L15.8086 22.79V16.6504ZM15.7939 12.5918L15.6934 12.5713C14.4222 12.3097 13.375 11.4521 13.375 10.2793V10.2168H14.7881V10.2793C14.7881 10.5417 14.9531 10.8279 15.2402 11.043C15.531 11.2607 15.9552 11.4141 16.5 11.4141C17.0448 11.4141 17.469 11.2607 17.7598 11.043C18.0469 10.8279 18.2119 10.5417 18.2119 10.2793C18.2118 10.058 18.0867 9.84914 17.75 9.63672C17.4019 9.41712 16.8975 9.2449 16.3379 9.12891C15.6645 8.98935 14.9562 8.76867 14.4014 8.41504C13.8301 8.05088 13.3751 7.50974 13.375 6.77148C13.375 5.59868 14.4222 4.74105 15.6934 4.47949L15.7939 4.45898V3.4502H17.2061V4.45898L17.3066 4.47949C18.5778 4.74105 19.625 5.59867 19.625 6.77148V6.83398H18.2119V6.77148C18.2119 6.50911 18.0469 6.22285 17.7598 6.00781C17.469 5.79013 17.0448 5.63672 16.5 5.63672C15.9552 5.63672 15.531 5.79013 15.2402 6.00781C14.9531 6.22285 14.7881 6.50911 14.7881 6.77148C14.7881 6.88077 14.8162 6.99064 14.8896 7.10059C14.9615 7.20811 15.0732 7.31064 15.2324 7.41211C15.571 7.62778 16.0725 7.79967 16.6621 7.92188C17.3116 8.05647 18.0164 8.27733 18.5752 8.62988C19.145 8.98942 19.6249 9.53186 19.625 10.2793C19.625 11.4521 18.5778 12.3097 17.3066 12.5713L17.2061 12.5918V13.6006H15.7939V12.5918Z" fill="url(#paint0_linear_1885_27080)" stroke="url(#paint1_linear_1885_27080)" stroke-width="0.25"/>
</g>
<defs>
<linearGradient id="paint0_linear_1885_27080" x1="26.25" y1="16.2539" x2="6.75" y2="16.2539" gradientUnits="userSpaceOnUse">
<stop stop-color="#025436"/>
<stop offset="1" stop-color="#053725"/>
</linearGradient>
<linearGradient id="paint1_linear_1885_27080" x1="26.25" y1="16.2539" x2="6.75" y2="16.2539" gradientUnits="userSpaceOnUse">
<stop stop-color="#025436"/>
<stop offset="1" stop-color="#053725"/>
</linearGradient>
<clipPath id="clip0_1885_27080">
<rect width="31.2" height="31.2" fill="white" transform="translate(0.900391 0.400391)"/>
</clipPath>
</defs>
</svg>
