<svg width="24" height="24" viewBox="0 0 24 24" fill="none" xmlns="http://www.w3.org/2000/svg">
<g clip-path="url(#clip0_423_19220)">
<path d="M14.583 13.1602C13.8114 13.7279 13.1676 14.4589 12.7012 15.3018C12.0006 15.5812 11.2593 15.7554 10.4756 15.8076C10.4509 15.8093 10.426 15.8101 10.4014 15.8115L10.0928 15.8291L10.3262 16.0312C10.3471 16.0494 10.3672 16.0694 10.3867 16.0908L11.5137 17.3271C11.6475 17.4743 11.7154 17.6702 11.709 17.8535C11.7026 18.0355 11.6239 18.1973 11.4746 18.2939L11.4463 18.3125C10.9972 18.6001 10.4754 18.7646 9.91699 18.7646C9.36975 18.766 8.8309 18.6042 8.3584 18.2959C8.20966 18.1975 8.13143 18.0351 8.125 17.8535C8.11856 17.6703 8.18636 17.4753 8.31934 17.3291L9.44531 16.0908C9.46755 16.0664 9.49151 16.0436 9.51562 16.0234L9.75098 15.8262L9.44434 15.8027C8.3498 15.7195 7.3264 15.3859 6.36426 14.8516C6.25673 14.7918 6.14861 14.7314 6.04102 14.6709C5.84643 14.5615 5.65082 14.4509 5.45312 14.3438C5.38997 14.3095 5.28439 14.2591 5.17871 14.2637C4.41583 14.2962 3.71943 14.5062 3.1582 15.001H3.15723C2.6984 15.4059 2.37971 15.8902 2.14844 16.4121C1.56104 17.7368 1.42057 19.1206 1.45996 20.5088C1.48321 21.3175 1.88991 21.977 2.70801 22.3896C3.23871 22.6573 3.81782 22.7265 4.39941 22.7266H10.1055V22.7246C10.6522 22.7248 11.1991 22.7254 11.7461 22.7266H11.75C12.3016 22.7277 12.8535 22.7284 13.4053 22.7285C13.7639 23.1596 14.1763 23.5443 14.6318 23.873C13.2241 23.8744 11.3221 23.8752 10.2031 23.875H4.40332C3.44943 23.8749 2.54122 23.7091 1.74023 23.2119C0.824858 22.6434 0.275459 21.8558 0.178711 20.8799C0.00740215 19.1617 0.237199 17.4743 0.978516 15.8652C1.41999 14.9071 2.08483 14.0773 3.17578 13.5693C3.85738 13.2517 4.60913 13.1508 5.37012 13.1641H5.37109L5.45898 13.1729C5.66634 13.2012 5.87645 13.2926 6.05957 13.3799C6.2785 13.4841 6.4874 13.6042 6.69531 13.7236L6.69727 13.7246C6.82119 13.7958 6.94543 13.8667 7.07129 13.9346C9.03315 14.9917 10.9924 14.989 12.9502 13.9258C13.0009 13.8983 13.0526 13.871 13.1035 13.8438C13.3009 13.738 13.4981 13.6327 13.6836 13.5146L13.6855 13.5137C13.9654 13.3292 14.2684 13.2135 14.583 13.1602ZM18.4941 13.125C21.4592 13.1229 23.8722 15.5299 23.875 18.4941C23.8778 21.4577 21.4678 23.8735 18.5059 23.875C15.5414 23.8764 13.1264 21.4655 13.125 18.5049C13.1238 15.54 15.5316 13.1272 18.4941 13.125ZM18.5039 14.375C16.2349 14.3742 14.3812 16.2168 14.375 18.4814C14.3681 20.7636 16.2182 22.6234 18.4961 22.625C20.7645 22.6265 22.6189 20.7822 22.625 18.5176C22.631 16.2348 20.7833 14.3766 18.5039 14.375ZM18.5 15.625C18.8828 15.625 19.1934 15.9355 19.1934 16.3184V17.8066H20.6816C21.0645 17.8066 21.375 18.1172 21.375 18.5C21.375 18.8828 21.0645 19.1934 20.6816 19.1934H19.1934V20.6816C19.1934 21.0645 18.8828 21.375 18.5 21.375C18.1172 21.375 17.8066 21.0645 17.8066 20.6816V19.1934H16.3184C15.9355 19.1934 15.625 18.8828 15.625 18.5C15.625 18.1172 15.9355 17.8066 16.3184 17.8066H17.8066V16.3184C17.8066 15.9355 18.1172 15.625 18.5 15.625ZM9.99902 0.125C13.1051 0.125 15.624 2.64369 15.625 5.75C15.625 8.85569 13.106 11.375 9.99902 11.375C6.8929 11.3749 4.375 8.85565 4.375 5.75C4.3752 2.64376 6.89303 0.125123 9.99902 0.125ZM12.2852 2.27637C11.0549 0.659515 8.74652 0.347911 7.12988 1.57812H7.12891C7.11238 1.59092 7.09752 1.60491 7.08594 1.61523C7.0755 1.62454 7.06686 1.63195 7.05859 1.63867L6.81543 1.83594L7.12793 1.86035C8.18764 1.9437 9.04323 2.64908 9.65723 3.19238C8.05105 2.97762 6.43816 3.84654 5.78223 5.41309C4.9982 7.28566 5.87992 9.43853 7.75195 10.2236V10.2246C7.7727 10.2338 7.79355 10.2409 7.80859 10.2461C7.82135 10.2505 7.83183 10.2538 7.8418 10.2578L8.13867 10.377L8.00098 10.0879C7.52957 9.09951 7.7366 7.96981 7.90234 7.15918C8.51722 8.66389 10.0789 9.63331 11.7686 9.41797C13.7834 9.16027 15.2087 7.31754 14.9502 5.30176C14.9478 5.28038 14.9442 5.2601 14.9414 5.24609C14.9386 5.23185 14.9366 5.22235 14.9355 5.21387L14.8936 4.88965L14.708 5.15918C14.1145 6.0233 13.0952 6.41214 12.3213 6.67285C13.2582 5.39195 13.2958 3.60323 12.2852 2.27637ZM9.50098 1.99609C9.92263 2.06505 10.2342 2.15732 10.5088 2.31934C10.8113 2.49784 11.0804 2.76384 11.4043 3.18945C12.1935 4.22554 12.3738 5.53306 12.0098 6.68848L12.1309 6.75293C12.1201 6.76352 12.1065 6.7805 12.0986 6.80469C12.088 6.83758 12.0923 6.87096 12.1045 6.89746C12.1236 6.93852 12.1581 6.9563 12.1631 6.95898C12.1745 6.96504 12.1855 6.96847 12.1924 6.9707C12.2184 6.97907 12.256 6.98573 12.292 6.99121C12.369 7.00294 12.4845 7.0157 12.6113 7.03027C12.8278 7.05513 13.0823 7.08532 13.2734 7.12012C13.3237 7.12928 13.3674 7.13856 13.4033 7.14746C13.1324 7.47776 12.8966 7.70159 12.6191 7.8584C12.3898 7.9879 12.1276 8.0767 11.7871 8.1416L11.418 8.19922C10.1258 8.36384 8.90417 7.86624 8.08691 6.97266L7.91016 7.08203C7.90981 7.07714 7.91215 7.07173 7.91113 7.06641C7.90832 7.05165 7.90049 7.02623 7.87891 7.00293C7.85488 6.97704 7.82365 6.96503 7.79492 6.96289C7.75103 6.95965 7.71939 6.97987 7.71387 6.9834C7.70295 6.99032 7.69384 6.99803 7.68848 7.00293C7.66839 7.02129 7.64483 7.05064 7.62207 7.0791C7.57337 7.14003 7.50387 7.23328 7.42773 7.33594C7.29792 7.51097 7.1452 7.71693 7.01953 7.86523C6.9863 7.90445 6.95544 7.93708 6.92969 7.96387C6.77908 7.56443 6.7049 7.24818 6.70801 6.92969C6.71151 6.57839 6.80739 6.21232 7.01367 5.71875C7.51614 4.5188 8.55896 3.70784 9.74023 3.44629L9.7334 3.25977L9.73926 3.26465C9.74466 3.26943 9.76174 3.28409 9.78711 3.29297C9.80108 3.29782 9.82627 3.30426 9.85645 3.29785C9.8901 3.29064 9.91673 3.27068 9.93359 3.24707C9.95995 3.21003 9.9582 3.17098 9.95801 3.16504C9.95758 3.15184 9.95467 3.14001 9.95312 3.13281C9.9473 3.1059 9.93514 3.07017 9.92188 3.03613C9.89337 2.96297 9.84597 2.8562 9.79492 2.73828C9.70838 2.53838 9.60706 2.30332 9.54199 2.12109C9.52492 2.07327 9.51112 2.03137 9.50098 1.99609Z" fill="url(#paint0_linear_423_19220)" stroke="url(#paint1_linear_423_19220)" stroke-width="0.25"/>
</g>
<defs>
<linearGradient id="paint0_linear_423_19220" x1="0" y1="12" x2="24" y2="12" gradientUnits="userSpaceOnUse">
<stop offset="0.0625" stop-color="#C7863D"/>
<stop offset="0.5" stop-color="#FFCE6F"/>
<stop offset="0.9375" stop-color="#C7863D"/>
</linearGradient>
<linearGradient id="paint1_linear_423_19220" x1="0" y1="12" x2="24" y2="12" gradientUnits="userSpaceOnUse">
<stop offset="0.0625" stop-color="#C7863D"/>
<stop offset="0.5" stop-color="#FFCE6F"/>
<stop offset="0.9375" stop-color="#C7863D"/>
</linearGradient>
<clipPath id="clip0_423_19220">
<rect width="24" height="24" fill="white"/>
</clipPath>
</defs>
</svg>
