<svg width="34" height="33" viewBox="0 0 34 33" fill="none" xmlns="http://www.w3.org/2000/svg">
<path d="M7.66169 19.5065V26.3807C7.66169 26.7554 7.35804 27.0591 6.98332 27.0591C6.60861 27.0591 6.30496 26.7554 6.30496 26.3807V19.5065C6.30496 19.1318 6.60861 18.8281 6.98332 18.8281C7.35804 18.8281 7.66169 19.1318 7.66169 19.5065Z" fill="white" stroke="white" stroke-width="0.353385" stroke-miterlimit="10"/>
<path d="M7.66169 19.5065V26.3807C7.66169 26.7554 7.35804 27.0591 6.98332 27.0591C6.60861 27.0591 6.30496 26.7554 6.30496 26.3807V19.5065C6.30496 19.1318 6.60861 18.8281 6.98332 18.8281C7.35804 18.8281 7.66169 19.1318 7.66169 19.5065Z" fill="white" stroke="white" stroke-width="0.353385" stroke-miterlimit="10"/>
<path d="M7.66169 19.5065V26.3807C7.66169 26.7554 7.35804 27.0591 6.98332 27.0591C6.60861 27.0591 6.30496 26.7554 6.30496 26.3807V19.5065C6.30496 19.1318 6.60861 18.8281 6.98332 18.8281C7.35804 18.8281 7.66169 19.1318 7.66169 19.5065Z" fill="white" stroke="white" stroke-width="0.353385" stroke-miterlimit="10"/>
<path d="M7.66169 19.5065V26.3807C7.66169 26.7554 7.35804 27.0591 6.98332 27.0591C6.60861 27.0591 6.30496 26.7554 6.30496 26.3807V19.5065C6.30496 19.1318 6.60861 18.8281 6.98332 18.8281C7.35804 18.8281 7.66169 19.1318 7.66169 19.5065Z" fill="white" stroke="white" stroke-width="0.353385" stroke-miterlimit="10"/>
<path d="M7.66169 19.5065V26.3807C7.66169 26.7554 7.35804 27.0591 6.98332 27.0591C6.60861 27.0591 6.30496 26.7554 6.30496 26.3807V19.5065C6.30496 19.1318 6.60861 18.8281 6.98332 18.8281C7.35804 18.8281 7.66169 19.1318 7.66169 19.5065Z" fill="white" stroke="white" stroke-width="0.353385" stroke-miterlimit="10"/>
<path d="M7.66169 19.5065V26.3807C7.66169 26.7554 7.35804 27.0591 6.98332 27.0591C6.60861 27.0591 6.30496 26.7554 6.30496 26.3807V19.5065C6.30496 19.1318 6.60861 18.8281 6.98332 18.8281C7.35804 18.8281 7.66169 19.1318 7.66169 19.5065Z" fill="white" stroke="white" stroke-width="0.353385" stroke-miterlimit="10"/>
<path d="M7.66169 19.5065V26.3807C7.66169 26.7554 7.35804 27.0591 6.98332 27.0591C6.60861 27.0591 6.30496 26.7554 6.30496 26.3807V19.5065C6.30496 19.1318 6.60861 18.8281 6.98332 18.8281C7.35804 18.8281 7.66169 19.1318 7.66169 19.5065Z" fill="white" stroke="white" stroke-width="0.353385" stroke-miterlimit="10"/>
<path d="M7.66169 19.5065V26.3807C7.66169 26.7554 7.35804 27.0591 6.98332 27.0591C6.60861 27.0591 6.30496 26.7554 6.30496 26.3807V19.5065C6.30496 19.1318 6.60861 18.8281 6.98332 18.8281C7.35804 18.8281 7.66169 19.1318 7.66169 19.5065Z" fill="white" stroke="white" stroke-width="0.25" stroke-miterlimit="10"/>
<path d="M22.45 19.5065V26.3807C22.45 26.7554 22.1463 27.0591 21.7716 27.0591C21.3969 27.0591 21.0932 26.7554 21.0932 26.3807V19.5065C21.0932 19.1318 21.3969 18.8281 21.7716 18.8281C22.1463 18.8281 22.45 19.1318 22.45 19.5065Z" fill="white" stroke="white" stroke-width="0.353385" stroke-miterlimit="10"/>
<path d="M22.45 19.5065V26.3807C22.45 26.7554 22.1463 27.0591 21.7716 27.0591C21.3969 27.0591 21.0932 26.7554 21.0932 26.3807V19.5065C21.0932 19.1318 21.3969 18.8281 21.7716 18.8281C22.1463 18.8281 22.45 19.1318 22.45 19.5065Z" fill="white" stroke="white" stroke-width="0.353385" stroke-miterlimit="10"/>
<path d="M22.45 19.5065V26.3807C22.45 26.7554 22.1463 27.0591 21.7716 27.0591C21.3969 27.0591 21.0932 26.7554 21.0932 26.3807V19.5065C21.0932 19.1318 21.3969 18.8281 21.7716 18.8281C22.1463 18.8281 22.45 19.1318 22.45 19.5065Z" fill="white" stroke="white" stroke-width="0.353385" stroke-miterlimit="10"/>
<path d="M22.45 19.5065V26.3807C22.45 26.7554 22.1463 27.0591 21.7716 27.0591C21.3969 27.0591 21.0932 26.7554 21.0932 26.3807V19.5065C21.0932 19.1318 21.3969 18.8281 21.7716 18.8281C22.1463 18.8281 22.45 19.1318 22.45 19.5065Z" fill="white" stroke="white" stroke-width="0.353385" stroke-miterlimit="10"/>
<path d="M22.45 19.5065V26.3807C22.45 26.7554 22.1463 27.0591 21.7716 27.0591C21.3969 27.0591 21.0932 26.7554 21.0932 26.3807V19.5065C21.0932 19.1318 21.3969 18.8281 21.7716 18.8281C22.1463 18.8281 22.45 19.1318 22.45 19.5065Z" fill="white" stroke="white" stroke-width="0.353385" stroke-miterlimit="10"/>
<path d="M22.45 19.5065V26.3807C22.45 26.7554 22.1463 27.0591 21.7716 27.0591C21.3969 27.0591 21.0932 26.7554 21.0932 26.3807V19.5065C21.0932 19.1318 21.3969 18.8281 21.7716 18.8281C22.1463 18.8281 22.45 19.1318 22.45 19.5065Z" fill="white" stroke="white" stroke-width="0.353385" stroke-miterlimit="10"/>
<path d="M22.45 19.5065V26.3807C22.45 26.7554 22.1463 27.0591 21.7716 27.0591C21.3969 27.0591 21.0932 26.7554 21.0932 26.3807V19.5065C21.0932 19.1318 21.3969 18.8281 21.7716 18.8281C22.1463 18.8281 22.45 19.1318 22.45 19.5065Z" fill="white" stroke="white" stroke-width="0.353385" stroke-miterlimit="10"/>
<path d="M22.45 19.5065V26.3807C22.45 26.7554 22.1463 27.0591 21.7716 27.0591C21.3969 27.0591 21.0932 26.7554 21.0932 26.3807V19.5065C21.0932 19.1318 21.3969 18.8281 21.7716 18.8281C22.1463 18.8281 22.45 19.1318 22.45 19.5065Z" fill="white" stroke="white" stroke-width="0.25" stroke-miterlimit="10"/>
<path d="M15.0527 17.8723V26.4586C15.0527 26.7946 14.7491 27.0595 14.3744 27.0595C13.9997 27.0595 13.696 26.7881 13.696 26.4586V17.8723C13.696 17.5364 13.9997 17.2715 14.3744 17.2715C14.7491 17.2715 15.0527 17.5428 15.0527 17.8723Z" fill="white" stroke="white" stroke-width="0.353385" stroke-miterlimit="10"/>
<path d="M15.0527 17.8723V26.4586C15.0527 26.7946 14.7491 27.0595 14.3744 27.0595C13.9997 27.0595 13.696 26.7881 13.696 26.4586V17.8723C13.696 17.5364 13.9997 17.2715 14.3744 17.2715C14.7491 17.2715 15.0527 17.5428 15.0527 17.8723Z" fill="white" stroke="white" stroke-width="0.353385" stroke-miterlimit="10"/>
<path d="M15.0527 17.8723V26.4586C15.0527 26.7946 14.7491 27.0595 14.3744 27.0595C13.9997 27.0595 13.696 26.7881 13.696 26.4586V17.8723C13.696 17.5364 13.9997 17.2715 14.3744 17.2715C14.7491 17.2715 15.0527 17.5428 15.0527 17.8723Z" fill="white" stroke="white" stroke-width="0.353385" stroke-miterlimit="10"/>
<path d="M15.0527 17.8723V26.4586C15.0527 26.7946 14.7491 27.0595 14.3744 27.0595C13.9997 27.0595 13.696 26.7881 13.696 26.4586V17.8723C13.696 17.5364 13.9997 17.2715 14.3744 17.2715C14.7491 17.2715 15.0527 17.5428 15.0527 17.8723Z" fill="white" stroke="white" stroke-width="0.353385" stroke-miterlimit="10"/>
<path d="M15.0527 17.8723V26.4586C15.0527 26.7946 14.7491 27.0595 14.3744 27.0595C13.9997 27.0595 13.696 26.7881 13.696 26.4586V17.8723C13.696 17.5364 13.9997 17.2715 14.3744 17.2715C14.7491 17.2715 15.0527 17.5428 15.0527 17.8723Z" fill="white" stroke="white" stroke-width="0.353385" stroke-miterlimit="10"/>
<path d="M15.0527 17.8723V26.4586C15.0527 26.7946 14.7491 27.0595 14.3744 27.0595C13.9997 27.0595 13.696 26.7881 13.696 26.4586V17.8723C13.696 17.5364 13.9997 17.2715 14.3744 17.2715C14.7491 17.2715 15.0527 17.5428 15.0527 17.8723Z" fill="white" stroke="white" stroke-width="0.353385" stroke-miterlimit="10"/>
<path d="M15.0527 17.8723V26.4586C15.0527 26.7946 14.7491 27.0595 14.3744 27.0595C13.9997 27.0595 13.696 26.7881 13.696 26.4586V17.8723C13.696 17.5364 13.9997 17.2715 14.3744 17.2715C14.7491 17.2715 15.0527 17.5428 15.0527 17.8723Z" fill="white" stroke="white" stroke-width="0.353385" stroke-miterlimit="10"/>
<path d="M15.0527 17.8723V26.4586C15.0527 26.7946 14.7491 27.0595 14.3744 27.0595C13.9997 27.0595 13.696 26.7881 13.696 26.4586V17.8723C13.696 17.5364 13.9997 17.2715 14.3744 17.2715C14.7491 17.2715 15.0527 17.5428 15.0527 17.8723Z" fill="white" stroke="white" stroke-width="0.25" stroke-miterlimit="10"/>
<path d="M29.8474 16.7096V26.3748C29.8474 26.7496 29.5437 27.0532 29.169 27.0532C28.7943 27.0532 28.4906 26.7496 28.4906 26.3748V16.7096C28.4906 16.3349 28.7943 16.0312 29.169 16.0312C29.5437 16.0312 29.8474 16.3349 29.8474 16.7096Z" fill="white" stroke="white" stroke-width="0.353385" stroke-miterlimit="10"/>
<path d="M29.8474 16.7096V26.3748C29.8474 26.7496 29.5437 27.0532 29.169 27.0532C28.7943 27.0532 28.4906 26.7496 28.4906 26.3748V16.7096C28.4906 16.3349 28.7943 16.0312 29.169 16.0312C29.5437 16.0312 29.8474 16.3349 29.8474 16.7096Z" fill="white" stroke="white" stroke-width="0.353385" stroke-miterlimit="10"/>
<path d="M29.8474 16.7096V26.3748C29.8474 26.7496 29.5437 27.0532 29.169 27.0532C28.7943 27.0532 28.4906 26.7496 28.4906 26.3748V16.7096C28.4906 16.3349 28.7943 16.0312 29.169 16.0312C29.5437 16.0312 29.8474 16.3349 29.8474 16.7096Z" fill="white" stroke="white" stroke-width="0.353385" stroke-miterlimit="10"/>
<path d="M29.8474 16.7096V26.3748C29.8474 26.7496 29.5437 27.0532 29.169 27.0532C28.7943 27.0532 28.4906 26.7496 28.4906 26.3748V16.7096C28.4906 16.3349 28.7943 16.0312 29.169 16.0312C29.5437 16.0312 29.8474 16.3349 29.8474 16.7096Z" fill="white" stroke="white" stroke-width="0.353385" stroke-miterlimit="10"/>
<path d="M29.8474 16.7096V26.3748C29.8474 26.7496 29.5437 27.0532 29.169 27.0532C28.7943 27.0532 28.4906 26.7496 28.4906 26.3748V16.7096C28.4906 16.3349 28.7943 16.0312 29.169 16.0312C29.5437 16.0312 29.8474 16.3349 29.8474 16.7096Z" fill="white" stroke="white" stroke-width="0.353385" stroke-miterlimit="10"/>
<path d="M29.8474 16.7096V26.3748C29.8474 26.7496 29.5437 27.0532 29.169 27.0532C28.7943 27.0532 28.4906 26.7496 28.4906 26.3748V16.7096C28.4906 16.3349 28.7943 16.0312 29.169 16.0312C29.5437 16.0312 29.8474 16.3349 29.8474 16.7096Z" fill="white" stroke="white" stroke-width="0.353385" stroke-miterlimit="10"/>
<path d="M29.8474 16.7096V26.3748C29.8474 26.7496 29.5437 27.0532 29.169 27.0532C28.7943 27.0532 28.4906 26.7496 28.4906 26.3748V16.7096C28.4906 16.3349 28.7943 16.0312 29.169 16.0312C29.5437 16.0312 29.8474 16.3349 29.8474 16.7096Z" fill="white" stroke="white" stroke-width="0.353385" stroke-miterlimit="10"/>
<path d="M29.8474 16.7096V26.3748C29.8474 26.7496 29.5437 27.0532 29.169 27.0532C28.7943 27.0532 28.4906 26.7496 28.4906 26.3748V16.7096C28.4906 16.3349 28.7943 16.0312 29.169 16.0312C29.5437 16.0312 29.8474 16.3349 29.8474 16.7096Z" fill="white" stroke="white" stroke-width="0.25" stroke-miterlimit="10"/>
<path d="M9.0895 6.13374H27.0047C27.1404 6.13374 27.2631 6.10143 27.3665 6.04329C27.4117 6.02391 27.4505 5.99806 27.4892 5.97222L27.5345 5.94638C27.7218 5.7784 27.8252 5.5652 27.8252 5.33907C27.8252 5.22924 27.8058 5.11941 27.7606 5.0225C27.7348 4.96435 27.7024 4.89974 27.6637 4.85452C27.612 4.77699 27.5539 4.70592 27.4892 4.63485L27.4699 4.61547C27.4699 4.61547 27.4505 4.58963 27.444 4.58317C26.6688 3.67221 25.803 2.80647 24.9567 1.96012C24.7823 1.77922 24.6078 1.60478 24.4334 1.43034C24.2783 1.26882 24.1168 1.11377 23.9682 0.95871C23.6775 0.655056 23.4191 0.5 23.2059 0.5C23.109 0.5 22.9668 0.525842 22.7472 0.751967C22.5921 0.926406 22.2691 1.28821 22.9668 2.01181C23.109 2.15394 23.2446 2.29608 23.3739 2.43821L25.3379 4.5444H22.5534C22.4758 4.53794 22.3983 4.53794 22.3272 4.53794C19.995 4.5444 17.6627 4.5444 15.3304 4.5444H9.08304C8.6308 4.5444 8.26254 4.89974 8.26254 5.33907C8.26254 5.7784 8.6308 6.13374 9.08304 6.13374H9.0895Z" fill="white" stroke="white" stroke-width="0.25" stroke-miterlimit="10"/>
<path d="M27.0564 8.09766H9.14116C9.00549 8.09766 8.87628 8.12996 8.77937 8.18811C8.72769 8.20749 8.68892 8.23333 8.65016 8.25917L8.60494 8.28502C8.41758 8.44654 8.31421 8.6662 8.31421 8.89232C8.31421 9.00216 8.33359 9.11199 8.37882 9.2089C8.40466 9.26704 8.43696 9.33165 8.47572 9.37688C8.52095 9.4544 8.57909 9.51901 8.66308 9.61592C8.66954 9.62884 8.68246 9.64176 8.68892 9.64822C9.47711 10.5721 10.3428 11.4378 11.1762 12.2713C11.3442 12.4393 11.5057 12.6072 11.6673 12.7752C11.8352 12.9432 11.9967 13.1112 12.1583 13.2791C12.4554 13.5828 12.7074 13.7314 12.9206 13.7314C13.0175 13.7314 13.1596 13.7055 13.3793 13.4794C13.5344 13.305 13.8574 12.9432 13.1596 12.226C13.0304 12.0968 12.9077 11.9676 12.7849 11.8319L10.7886 9.68699H13.5731C13.6507 9.69345 13.7217 9.69345 13.7992 9.69345C16.1315 9.68699 18.4638 9.68699 20.7961 9.68699H27.0434C27.4957 9.68699 27.8639 9.33165 27.8639 8.89232C27.8639 8.45299 27.4957 8.09766 27.0434 8.09766H27.0564Z" fill="white" stroke="white" stroke-width="0.25" stroke-miterlimit="10"/>
<path d="M33.1745 31.8218C33.1745 32.1965 32.8708 32.5002 32.4961 32.5002H4.65743C2.31869 32.5002 0.419281 30.6007 0.419281 28.2619V4.09244C0.419281 3.71772 0.722929 3.41406 1.09764 3.41406C1.47236 3.41406 1.776 3.71772 1.776 4.09244V28.0423C1.776 29.7544 3.16503 31.1434 4.87709 31.1434H32.4961C32.8708 31.1434 33.1745 31.4471 33.1745 31.8218Z" fill="white" stroke="white" stroke-width="0.25" stroke-miterlimit="10"/>
</svg>
