<svg width="34" height="33" viewBox="0 0 34 33" fill="none" xmlns="http://www.w3.org/2000/svg">
<path d="M8.16173 19.5045V26.3785C8.16173 26.7532 7.85808 27.0568 7.48337 27.0568C7.10866 27.0568 6.80501 26.7532 6.80501 26.3785V19.5045C6.80501 19.1298 7.10866 18.8262 7.48337 18.8262C7.85808 18.8262 8.16173 19.1298 8.16173 19.5045Z" fill="white" stroke="white" stroke-width="0.353385" stroke-miterlimit="10"/>
<path d="M8.16173 19.5045V26.3785C8.16173 26.7532 7.85808 27.0568 7.48337 27.0568C7.10866 27.0568 6.80501 26.7532 6.80501 26.3785V19.5045C6.80501 19.1298 7.10866 18.8262 7.48337 18.8262C7.85808 18.8262 8.16173 19.1298 8.16173 19.5045Z" fill="white" stroke="white" stroke-width="0.353385" stroke-miterlimit="10"/>
<path d="M8.16173 19.5045V26.3785C8.16173 26.7532 7.85808 27.0568 7.48337 27.0568C7.10866 27.0568 6.80501 26.7532 6.80501 26.3785V19.5045C6.80501 19.1298 7.10866 18.8262 7.48337 18.8262C7.85808 18.8262 8.16173 19.1298 8.16173 19.5045Z" fill="white" stroke="white" stroke-width="0.353385" stroke-miterlimit="10"/>
<path d="M8.16173 19.5045V26.3785C8.16173 26.7532 7.85808 27.0568 7.48337 27.0568C7.10866 27.0568 6.80501 26.7532 6.80501 26.3785V19.5045C6.80501 19.1298 7.10866 18.8262 7.48337 18.8262C7.85808 18.8262 8.16173 19.1298 8.16173 19.5045Z" fill="white" stroke="white" stroke-width="0.353385" stroke-miterlimit="10"/>
<path d="M8.16173 19.5045V26.3785C8.16173 26.7532 7.85808 27.0568 7.48337 27.0568C7.10866 27.0568 6.80501 26.7532 6.80501 26.3785V19.5045C6.80501 19.1298 7.10866 18.8262 7.48337 18.8262C7.85808 18.8262 8.16173 19.1298 8.16173 19.5045Z" fill="white" stroke="white" stroke-width="0.353385" stroke-miterlimit="10"/>
<path d="M8.16173 19.5045V26.3785C8.16173 26.7532 7.85808 27.0568 7.48337 27.0568C7.10866 27.0568 6.80501 26.7532 6.80501 26.3785V19.5045C6.80501 19.1298 7.10866 18.8262 7.48337 18.8262C7.85808 18.8262 8.16173 19.1298 8.16173 19.5045Z" fill="white" stroke="white" stroke-width="0.353385" stroke-miterlimit="10"/>
<path d="M8.16173 19.5045V26.3785C8.16173 26.7532 7.85808 27.0568 7.48337 27.0568C7.10866 27.0568 6.80501 26.7532 6.80501 26.3785V19.5045C6.80501 19.1298 7.10866 18.8262 7.48337 18.8262C7.85808 18.8262 8.16173 19.1298 8.16173 19.5045Z" fill="white" stroke="white" stroke-width="0.353385" stroke-miterlimit="10"/>
<path d="M8.16173 19.5045V26.3785C8.16173 26.7532 7.85808 27.0568 7.48337 27.0568C7.10866 27.0568 6.80501 26.7532 6.80501 26.3785V19.5045C6.80501 19.1298 7.10866 18.8262 7.48337 18.8262C7.85808 18.8262 8.16173 19.1298 8.16173 19.5045Z" fill="white" stroke="white" stroke-width="0.25" stroke-miterlimit="10"/>
<path d="M22.95 19.5045V26.3785C22.95 26.7532 22.6464 27.0568 22.2717 27.0568C21.8969 27.0568 21.5933 26.7532 21.5933 26.3785V19.5045C21.5933 19.1298 21.8969 18.8262 22.2717 18.8262C22.6464 18.8262 22.95 19.1298 22.95 19.5045Z" fill="white" stroke="white" stroke-width="0.353385" stroke-miterlimit="10"/>
<path d="M22.95 19.5045V26.3785C22.95 26.7532 22.6464 27.0568 22.2717 27.0568C21.8969 27.0568 21.5933 26.7532 21.5933 26.3785V19.5045C21.5933 19.1298 21.8969 18.8262 22.2717 18.8262C22.6464 18.8262 22.95 19.1298 22.95 19.5045Z" fill="white" stroke="white" stroke-width="0.353385" stroke-miterlimit="10"/>
<path d="M22.95 19.5045V26.3785C22.95 26.7532 22.6464 27.0568 22.2717 27.0568C21.8969 27.0568 21.5933 26.7532 21.5933 26.3785V19.5045C21.5933 19.1298 21.8969 18.8262 22.2717 18.8262C22.6464 18.8262 22.95 19.1298 22.95 19.5045Z" fill="white" stroke="white" stroke-width="0.353385" stroke-miterlimit="10"/>
<path d="M22.95 19.5045V26.3785C22.95 26.7532 22.6464 27.0568 22.2717 27.0568C21.8969 27.0568 21.5933 26.7532 21.5933 26.3785V19.5045C21.5933 19.1298 21.8969 18.8262 22.2717 18.8262C22.6464 18.8262 22.95 19.1298 22.95 19.5045Z" fill="white" stroke="white" stroke-width="0.353385" stroke-miterlimit="10"/>
<path d="M22.95 19.5045V26.3785C22.95 26.7532 22.6464 27.0568 22.2717 27.0568C21.8969 27.0568 21.5933 26.7532 21.5933 26.3785V19.5045C21.5933 19.1298 21.8969 18.8262 22.2717 18.8262C22.6464 18.8262 22.95 19.1298 22.95 19.5045Z" fill="white" stroke="white" stroke-width="0.353385" stroke-miterlimit="10"/>
<path d="M22.95 19.5045V26.3785C22.95 26.7532 22.6464 27.0568 22.2717 27.0568C21.8969 27.0568 21.5933 26.7532 21.5933 26.3785V19.5045C21.5933 19.1298 21.8969 18.8262 22.2717 18.8262C22.6464 18.8262 22.95 19.1298 22.95 19.5045Z" fill="white" stroke="white" stroke-width="0.353385" stroke-miterlimit="10"/>
<path d="M22.95 19.5045V26.3785C22.95 26.7532 22.6464 27.0568 22.2717 27.0568C21.8969 27.0568 21.5933 26.7532 21.5933 26.3785V19.5045C21.5933 19.1298 21.8969 18.8262 22.2717 18.8262C22.6464 18.8262 22.95 19.1298 22.95 19.5045Z" fill="white" stroke="white" stroke-width="0.353385" stroke-miterlimit="10"/>
<path d="M22.95 19.5045V26.3785C22.95 26.7532 22.6464 27.0568 22.2717 27.0568C21.8969 27.0568 21.5933 26.7532 21.5933 26.3785V19.5045C21.5933 19.1298 21.8969 18.8262 22.2717 18.8262C22.6464 18.8262 22.95 19.1298 22.95 19.5045Z" fill="white" stroke="white" stroke-width="0.25" stroke-miterlimit="10"/>
<path d="M15.5528 17.8723V26.4583C15.5528 26.7943 15.2491 27.0591 14.8744 27.0591C14.4997 27.0591 14.196 26.7878 14.196 26.4583V17.8723C14.196 17.5364 14.4997 17.2715 14.8744 17.2715C15.2491 17.2715 15.5528 17.5428 15.5528 17.8723Z" fill="white" stroke="white" stroke-width="0.353385" stroke-miterlimit="10"/>
<path d="M15.5528 17.8723V26.4583C15.5528 26.7943 15.2491 27.0591 14.8744 27.0591C14.4997 27.0591 14.196 26.7878 14.196 26.4583V17.8723C14.196 17.5364 14.4997 17.2715 14.8744 17.2715C15.2491 17.2715 15.5528 17.5428 15.5528 17.8723Z" fill="white" stroke="white" stroke-width="0.353385" stroke-miterlimit="10"/>
<path d="M15.5528 17.8723V26.4583C15.5528 26.7943 15.2491 27.0591 14.8744 27.0591C14.4997 27.0591 14.196 26.7878 14.196 26.4583V17.8723C14.196 17.5364 14.4997 17.2715 14.8744 17.2715C15.2491 17.2715 15.5528 17.5428 15.5528 17.8723Z" fill="white" stroke="white" stroke-width="0.353385" stroke-miterlimit="10"/>
<path d="M15.5528 17.8723V26.4583C15.5528 26.7943 15.2491 27.0591 14.8744 27.0591C14.4997 27.0591 14.196 26.7878 14.196 26.4583V17.8723C14.196 17.5364 14.4997 17.2715 14.8744 17.2715C15.2491 17.2715 15.5528 17.5428 15.5528 17.8723Z" fill="white" stroke="white" stroke-width="0.353385" stroke-miterlimit="10"/>
<path d="M15.5528 17.8723V26.4583C15.5528 26.7943 15.2491 27.0591 14.8744 27.0591C14.4997 27.0591 14.196 26.7878 14.196 26.4583V17.8723C14.196 17.5364 14.4997 17.2715 14.8744 17.2715C15.2491 17.2715 15.5528 17.5428 15.5528 17.8723Z" fill="white" stroke="white" stroke-width="0.353385" stroke-miterlimit="10"/>
<path d="M15.5528 17.8723V26.4583C15.5528 26.7943 15.2491 27.0591 14.8744 27.0591C14.4997 27.0591 14.196 26.7878 14.196 26.4583V17.8723C14.196 17.5364 14.4997 17.2715 14.8744 17.2715C15.2491 17.2715 15.5528 17.5428 15.5528 17.8723Z" fill="white" stroke="white" stroke-width="0.353385" stroke-miterlimit="10"/>
<path d="M15.5528 17.8723V26.4583C15.5528 26.7943 15.2491 27.0591 14.8744 27.0591C14.4997 27.0591 14.196 26.7878 14.196 26.4583V17.8723C14.196 17.5364 14.4997 17.2715 14.8744 17.2715C15.2491 17.2715 15.5528 17.5428 15.5528 17.8723Z" fill="white" stroke="white" stroke-width="0.353385" stroke-miterlimit="10"/>
<path d="M15.5528 17.8723V26.4583C15.5528 26.7943 15.2491 27.0591 14.8744 27.0591C14.4997 27.0591 14.196 26.7878 14.196 26.4583V17.8723C14.196 17.5364 14.4997 17.2715 14.8744 17.2715C15.2491 17.2715 15.5528 17.5428 15.5528 17.8723Z" fill="white" stroke="white" stroke-width="0.25" stroke-miterlimit="10"/>
<path d="M30.3473 16.7086V26.3735C30.3473 26.7482 30.0437 27.0519 29.669 27.0519C29.2942 27.0519 28.9906 26.7482 28.9906 26.3735V16.7086C28.9906 16.3339 29.2942 16.0303 29.669 16.0303C30.0437 16.0303 30.3473 16.3339 30.3473 16.7086Z" fill="white" stroke="white" stroke-width="0.353385" stroke-miterlimit="10"/>
<path d="M30.3473 16.7086V26.3735C30.3473 26.7482 30.0437 27.0519 29.669 27.0519C29.2942 27.0519 28.9906 26.7482 28.9906 26.3735V16.7086C28.9906 16.3339 29.2942 16.0303 29.669 16.0303C30.0437 16.0303 30.3473 16.3339 30.3473 16.7086Z" fill="white" stroke="white" stroke-width="0.353385" stroke-miterlimit="10"/>
<path d="M30.3473 16.7086V26.3735C30.3473 26.7482 30.0437 27.0519 29.669 27.0519C29.2942 27.0519 28.9906 26.7482 28.9906 26.3735V16.7086C28.9906 16.3339 29.2942 16.0303 29.669 16.0303C30.0437 16.0303 30.3473 16.3339 30.3473 16.7086Z" fill="white" stroke="white" stroke-width="0.353385" stroke-miterlimit="10"/>
<path d="M30.3473 16.7086V26.3735C30.3473 26.7482 30.0437 27.0519 29.669 27.0519C29.2942 27.0519 28.9906 26.7482 28.9906 26.3735V16.7086C28.9906 16.3339 29.2942 16.0303 29.669 16.0303C30.0437 16.0303 30.3473 16.3339 30.3473 16.7086Z" fill="white" stroke="white" stroke-width="0.353385" stroke-miterlimit="10"/>
<path d="M30.3473 16.7086V26.3735C30.3473 26.7482 30.0437 27.0519 29.669 27.0519C29.2942 27.0519 28.9906 26.7482 28.9906 26.3735V16.7086C28.9906 16.3339 29.2942 16.0303 29.669 16.0303C30.0437 16.0303 30.3473 16.3339 30.3473 16.7086Z" fill="white" stroke="white" stroke-width="0.353385" stroke-miterlimit="10"/>
<path d="M30.3473 16.7086V26.3735C30.3473 26.7482 30.0437 27.0519 29.669 27.0519C29.2942 27.0519 28.9906 26.7482 28.9906 26.3735V16.7086C28.9906 16.3339 29.2942 16.0303 29.669 16.0303C30.0437 16.0303 30.3473 16.3339 30.3473 16.7086Z" fill="white" stroke="white" stroke-width="0.353385" stroke-miterlimit="10"/>
<path d="M30.3473 16.7086V26.3735C30.3473 26.7482 30.0437 27.0519 29.669 27.0519C29.2942 27.0519 28.9906 26.7482 28.9906 26.3735V16.7086C28.9906 16.3339 29.2942 16.0303 29.669 16.0303C30.0437 16.0303 30.3473 16.3339 30.3473 16.7086Z" fill="white" stroke="white" stroke-width="0.353385" stroke-miterlimit="10"/>
<path d="M30.3473 16.7086V26.3735C30.3473 26.7482 30.0437 27.0519 29.669 27.0519C29.2942 27.0519 28.9906 26.7482 28.9906 26.3735V16.7086C28.9906 16.3339 29.2942 16.0303 29.669 16.0303C30.0437 16.0303 30.3473 16.3339 30.3473 16.7086Z" fill="white" stroke="white" stroke-width="0.25" stroke-miterlimit="10"/>
<path d="M9.58948 6.13355H27.5047C27.6404 6.13355 27.7631 6.10125 27.8665 6.04311C27.9117 6.02372 27.9505 5.99788 27.9892 5.97204L28.0345 5.9462C28.2218 5.77822 28.3252 5.56503 28.3252 5.33891C28.3252 5.22908 28.3058 5.11925 28.2606 5.02235C28.2347 4.9642 28.2024 4.8996 28.1637 4.85437C28.112 4.77685 28.0538 4.70578 27.9892 4.63472L27.9699 4.61534C27.9699 4.61534 27.9505 4.58949 27.944 4.58303C27.1687 3.6721 26.303 2.8064 25.4567 1.96007C25.2822 1.77918 25.1078 1.60474 24.9334 1.43031C24.7783 1.2688 24.6168 1.11375 24.4682 0.958695C24.1775 0.655051 23.9191 0.5 23.7059 0.5C23.609 0.5 23.4668 0.525842 23.2472 0.751959C23.0921 0.926392 22.7691 1.28818 23.4668 2.01176C23.609 2.15389 23.7446 2.29602 23.8738 2.43815L25.8379 4.54427H23.0533C22.9758 4.53781 22.8983 4.53781 22.8272 4.53781C20.495 4.54427 18.1627 4.54427 15.8304 4.54427H9.58302C9.13078 4.54427 8.76253 4.8996 8.76253 5.33891C8.76253 5.77822 9.13078 6.13355 9.58302 6.13355H9.58948Z" fill="white" stroke="white" stroke-width="0.25" stroke-miterlimit="10"/>
<path d="M27.5563 8.09766H9.64113C9.50546 8.09766 9.37625 8.12996 9.27934 8.1881C9.22766 8.20748 9.18889 8.23333 9.15013 8.25917L9.10491 8.28501C8.91755 8.44652 8.81418 8.66618 8.81418 8.8923C8.81418 9.00213 8.83356 9.11195 8.87878 9.20886C8.90463 9.267 8.93693 9.33161 8.97569 9.37683C9.02092 9.45436 9.07906 9.51896 9.16305 9.61587C9.16951 9.62879 9.18243 9.64171 9.18889 9.64817C9.97708 10.572 10.8428 11.4377 11.6762 12.2711C11.8442 12.4391 12.0057 12.6071 12.1672 12.7751C12.3352 12.943 12.4967 13.111 12.6582 13.279C12.9554 13.5826 13.2074 13.7312 13.4206 13.7312C13.5175 13.7312 13.6596 13.7054 13.8793 13.4792C14.0343 13.3048 14.3574 12.943 13.6596 12.2259C13.5304 12.0967 13.4077 11.9675 13.2849 11.8318L11.2886 9.68694H14.0731C14.1506 9.6934 14.2217 9.6934 14.2992 9.6934C16.6315 9.68694 18.9638 9.68694 21.296 9.68694H27.5434C27.9957 9.68694 28.3639 9.33161 28.3639 8.8923C28.3639 8.45298 27.9957 8.09766 27.5434 8.09766H27.5563Z" fill="white" stroke="white" stroke-width="0.25" stroke-miterlimit="10"/>
<path d="M33.6745 31.8218C33.6745 32.1965 33.3708 32.5002 32.9961 32.5002H5.15743C2.81869 32.5002 0.919281 30.6008 0.919281 28.2621V4.09339C0.919281 3.71868 1.22293 3.41504 1.59764 3.41504C1.97236 3.41504 2.276 3.71868 2.276 4.09339V28.0424C2.276 29.7545 3.66503 31.1435 5.37709 31.1435H32.9961C33.3708 31.1435 33.6745 31.4471 33.6745 31.8218Z" fill="white" stroke="white" stroke-width="0.25" stroke-miterlimit="10"/>
</svg>
