<svg width="33" height="33" viewBox="0 0 33 33" fill="none" xmlns="http://www.w3.org/2000/svg">
<path d="M13.9797 32.506C12.7241 31.9887 12.2983 31.3258 12.2983 29.9354C12.2983 29.1756 12.2768 28.4157 12.2983 27.6559C12.3576 26.0392 11.684 24.7728 10.4714 23.765C9.44752 22.9136 8.59068 21.9381 7.98711 20.7526C5.75067 16.3605 7.33504 10.9877 11.5924 8.49793C17.3478 5.1298 24.5799 8.55721 25.5176 15.1641C25.9918 18.5269 24.9464 21.3992 22.2842 23.5926C20.9369 24.7027 20.2417 26.0769 20.2902 27.8283C20.3118 28.6582 20.2902 29.4935 20.2902 30.3288C20.2902 31.4282 19.7406 32.1503 18.6843 32.4575C18.6574 32.4683 18.6035 32.506 18.6035 32.506H13.9797ZM18.9538 27.1547C18.9969 26.8691 19.0292 26.6104 19.0831 26.3571C19.4334 24.7674 20.3118 23.5333 21.5351 22.477C23.8524 20.4723 24.7092 17.8964 24.1326 14.9216C23.2865 10.5889 19.2879 7.89975 14.939 8.62188C10.5307 9.36017 7.46975 13.9893 8.51522 18.3221C8.94634 20.1059 9.84094 21.5825 11.296 22.7142C12.3576 23.5441 13.1121 24.6003 13.4516 25.9206C13.554 26.3194 13.5971 26.7344 13.6672 27.1547H18.9538ZM18.9591 28.5181H13.6672C13.6672 29.2079 13.6402 29.8815 13.6779 30.5552C13.6995 30.9432 13.9258 31.1587 14.2707 31.1641C15.6234 31.1749 16.976 31.1803 18.3286 31.1641C18.7166 31.1641 18.943 30.9378 18.9591 30.5606C18.9807 29.8869 18.9645 29.2133 18.9645 28.5181H18.9591Z" fill="url(#paint0_linear_1963_27648)" stroke="url(#paint1_linear_1963_27648)" stroke-width="0.25" stroke-miterlimit="10"/>
<path d="M32.2969 16.6933C32.146 17.0651 31.8658 17.1783 31.4832 17.1729C30.6802 17.1621 29.8826 17.1729 29.0797 17.1729C28.8102 17.1729 28.5569 17.1244 28.4007 16.8711C28.1312 16.4454 28.3845 15.8688 28.8911 15.8472C29.8234 15.8149 30.761 15.8311 31.6987 15.8418C32.0059 15.8418 32.1837 16.052 32.2969 16.3161V16.5047V16.6933Z" fill="url(#paint2_linear_1963_27648)" stroke="url(#paint3_linear_1963_27648)" stroke-width="0.25" stroke-miterlimit="10"/>
<path d="M16.9705 2.50963C16.9705 2.92459 16.9759 3.34493 16.9705 3.75988C16.9597 4.22873 16.7118 4.49279 16.3023 4.49279C15.8873 4.49279 15.6394 4.22873 15.634 3.75988C15.6233 2.91381 15.6233 2.07312 15.634 1.22705C15.634 0.758203 15.8873 0.494141 16.3023 0.494141C16.7172 0.494141 16.9597 0.752814 16.9705 1.22705C16.9813 1.65278 16.9705 2.07851 16.9705 2.50963Z" fill="white" stroke="white" stroke-width="0.301627" stroke-miterlimit="10"/>
<path d="M2.29632 17.173C1.88137 17.173 1.46102 17.1784 1.04607 17.173C0.555667 17.1623 0.291597 16.9144 0.296986 16.4886C0.302375 16.0791 0.571834 15.8366 1.04607 15.8366C1.88137 15.8312 2.71128 15.8312 3.54658 15.8366C4.02081 15.8366 4.28488 16.0791 4.29566 16.4886C4.30644 16.9144 4.03698 17.1676 3.54658 17.173C3.13163 17.1784 2.71128 17.173 2.29632 17.173Z" fill="url(#paint4_linear_1963_27648)" stroke="url(#paint5_linear_1963_27648)" stroke-width="0.25" stroke-miterlimit="10"/>
<path d="M16.9705 2.50963C16.9705 2.92459 16.9759 3.34493 16.9705 3.75988C16.9597 4.22873 16.7118 4.49279 16.3023 4.49279C15.8873 4.49279 15.6394 4.22873 15.634 3.75988C15.6233 2.91381 15.6233 2.07312 15.634 1.22705C15.634 0.758203 15.8873 0.494141 16.3023 0.494141C16.7172 0.494141 16.9597 0.752814 16.9705 1.22705C16.9813 1.65278 16.9705 2.07851 16.9705 2.50963Z" fill="url(#paint6_linear_1963_27648)" stroke="url(#paint7_linear_1963_27648)" stroke-width="0.25" stroke-miterlimit="10"/>
<path d="M7.33508 8.31841C7.15338 8.3238 6.90395 8.15674 6.78539 8.0328C6.16565 7.3915 5.56207 6.73404 4.95311 6.07658C4.7645 5.87719 4.68906 5.61313 4.82917 5.39218C4.93695 5.21973 5.14174 5.06345 5.34114 4.99878C5.47586 4.95028 5.71295 5.01495 5.82074 5.12273C6.49975 5.76402 7.15721 6.42687 7.80928 7.1005C7.9979 7.2945 8.03563 7.56934 7.87934 7.79029C7.73923 7.98968 7.52909 8.13519 7.33508 8.31841Z" fill="url(#paint8_linear_1963_27648)" stroke="url(#paint9_linear_1963_27648)" stroke-width="0.25" stroke-miterlimit="10"/>
<path d="M27.0776 28.1061C26.862 27.9822 26.6141 27.896 26.4417 27.7343C25.8705 27.2008 25.3262 26.6403 24.7819 26.0799C24.4747 25.7727 24.4477 25.4493 24.6795 25.1583C24.922 24.8512 25.3315 24.7919 25.6172 25.0667C26.28 25.7026 26.9213 26.3547 27.5626 27.0068C27.7566 27.2008 27.7728 27.4541 27.6596 27.7073C27.5572 27.9337 27.4117 28.0953 27.1153 28.0091C27.1045 28.0415 27.0938 28.0738 27.083 28.1061H27.0776Z" fill="url(#paint10_linear_1963_27648)" stroke="url(#paint11_linear_1963_27648)" stroke-width="0.25" stroke-miterlimit="10"/>
<path d="M5.47579 28.0109C5.17401 27.9678 4.93148 27.9031 4.81831 27.6175C4.71053 27.3372 4.78059 27.0893 4.99077 26.8792C5.59972 26.2702 6.2087 25.6559 6.82304 25.0523C7.11944 24.7613 7.49667 24.7721 7.76612 25.0469C8.02479 25.311 8.03557 25.6828 7.76073 25.9684C7.15716 26.5882 6.54819 27.1971 5.92845 27.7953C5.81528 27.9085 5.62668 27.9462 5.47579 28.0163V28.0109Z" fill="url(#paint12_linear_1963_27648)" stroke="url(#paint13_linear_1963_27648)" stroke-width="0.25" stroke-miterlimit="10"/>
<path d="M26.924 5.10205C27.3228 5.11283 27.5222 5.24755 27.6354 5.49545C27.7432 5.73257 27.7324 5.98046 27.5492 6.16908C26.924 6.81037 26.2989 7.45166 25.6522 8.0714C25.3936 8.31929 24.8816 8.28696 24.6768 8.06062C24.4182 7.78039 24.4505 7.43011 24.7792 7.09599C25.3505 6.51936 25.9217 5.94274 26.5037 5.37689C26.6438 5.24216 26.7936 5.09666 26.924 5.10205Z" fill="url(#paint14_linear_1963_27648)" stroke="url(#paint15_linear_1963_27648)" stroke-width="0.25" stroke-miterlimit="10"/>
<path d="M16.4587 10.5026C19.6598 10.5619 22.3004 13.251 22.3004 16.409C22.3004 16.9748 21.9178 17.2874 21.4166 17.1311C21.0878 17.0287 20.9801 16.7808 20.9747 16.4575C20.9424 15.3366 20.5705 14.3396 19.8376 13.4881C18.9161 12.4265 17.7413 11.8768 16.3347 11.8229C15.7635 11.8014 15.4617 11.3056 15.7204 10.826C15.8929 10.508 16.1892 10.4811 16.4641 10.4972L16.4587 10.5026Z" fill="url(#paint16_linear_1963_27648)" stroke="url(#paint17_linear_1963_27648)" stroke-width="0.25" stroke-miterlimit="10"/>
<defs>
<linearGradient id="paint0_linear_1963_27648" x1="25.6282" y1="20.051" x2="6.97446" y2="20.051" gradientUnits="userSpaceOnUse">
<stop stop-color="#025436"/>
<stop offset="1" stop-color="#053725"/>
</linearGradient>
<linearGradient id="paint1_linear_1963_27648" x1="25.6282" y1="20.051" x2="6.97446" y2="20.051" gradientUnits="userSpaceOnUse">
<stop stop-color="#025436"/>
<stop offset="1" stop-color="#053725"/>
</linearGradient>
<linearGradient id="paint2_linear_1963_27648" x1="32.2969" y1="16.5115" x2="28.2914" y2="16.5115" gradientUnits="userSpaceOnUse">
<stop stop-color="#025436"/>
<stop offset="1" stop-color="#053725"/>
</linearGradient>
<linearGradient id="paint3_linear_1963_27648" x1="32.2969" y1="16.5115" x2="28.2914" y2="16.5115" gradientUnits="userSpaceOnUse">
<stop stop-color="#025436"/>
<stop offset="1" stop-color="#053725"/>
</linearGradient>
<linearGradient id="paint4_linear_1963_27648" x1="4.29597" y1="16.5149" x2="0.296906" y2="16.5149" gradientUnits="userSpaceOnUse">
<stop stop-color="#025436"/>
<stop offset="1" stop-color="#053725"/>
</linearGradient>
<linearGradient id="paint5_linear_1963_27648" x1="4.29597" y1="16.5149" x2="0.296906" y2="16.5149" gradientUnits="userSpaceOnUse">
<stop stop-color="#025436"/>
<stop offset="1" stop-color="#053725"/>
</linearGradient>
<linearGradient id="paint6_linear_1963_27648" x1="16.9753" y1="2.52596" x2="15.6259" y2="2.52596" gradientUnits="userSpaceOnUse">
<stop stop-color="#025436"/>
<stop offset="1" stop-color="#053725"/>
</linearGradient>
<linearGradient id="paint7_linear_1963_27648" x1="16.9753" y1="2.52596" x2="15.6259" y2="2.52596" gradientUnits="userSpaceOnUse">
<stop stop-color="#025436"/>
<stop offset="1" stop-color="#053725"/>
</linearGradient>
<linearGradient id="paint8_linear_1963_27648" x1="7.97679" y1="6.67753" x2="4.75687" y2="6.67753" gradientUnits="userSpaceOnUse">
<stop stop-color="#025436"/>
<stop offset="1" stop-color="#053725"/>
</linearGradient>
<linearGradient id="paint9_linear_1963_27648" x1="7.97679" y1="6.67753" x2="4.75687" y2="6.67753" gradientUnits="userSpaceOnUse">
<stop stop-color="#025436"/>
<stop offset="1" stop-color="#053725"/>
</linearGradient>
<linearGradient id="paint10_linear_1963_27648" x1="27.7303" y1="26.5245" x2="24.5257" y2="26.5245" gradientUnits="userSpaceOnUse">
<stop stop-color="#025436"/>
<stop offset="1" stop-color="#053725"/>
</linearGradient>
<linearGradient id="paint11_linear_1963_27648" x1="27.7303" y1="26.5245" x2="24.5257" y2="26.5245" gradientUnits="userSpaceOnUse">
<stop stop-color="#025436"/>
<stop offset="1" stop-color="#053725"/>
</linearGradient>
<linearGradient id="paint12_linear_1963_27648" x1="7.9635" y1="26.4527" x2="4.76822" y2="26.4527" gradientUnits="userSpaceOnUse">
<stop stop-color="#025436"/>
<stop offset="1" stop-color="#053725"/>
</linearGradient>
<linearGradient id="paint13_linear_1963_27648" x1="7.9635" y1="26.4527" x2="4.76822" y2="26.4527" gradientUnits="userSpaceOnUse">
<stop stop-color="#025436"/>
<stop offset="1" stop-color="#053725"/>
</linearGradient>
<linearGradient id="paint14_linear_1963_27648" x1="27.7045" y1="6.69866" x2="24.5049" y2="6.69866" gradientUnits="userSpaceOnUse">
<stop stop-color="#025436"/>
<stop offset="1" stop-color="#053725"/>
</linearGradient>
<linearGradient id="paint15_linear_1963_27648" x1="27.7045" y1="6.69866" x2="24.5049" y2="6.69866" gradientUnits="userSpaceOnUse">
<stop stop-color="#025436"/>
<stop offset="1" stop-color="#053725"/>
</linearGradient>
<linearGradient id="paint16_linear_1963_27648" x1="22.3004" y1="13.8867" x2="15.6269" y2="13.8867" gradientUnits="userSpaceOnUse">
<stop stop-color="#025436"/>
<stop offset="1" stop-color="#053725"/>
</linearGradient>
<linearGradient id="paint17_linear_1963_27648" x1="22.3004" y1="13.8867" x2="15.6269" y2="13.8867" gradientUnits="userSpaceOnUse">
<stop stop-color="#025436"/>
<stop offset="1" stop-color="#053725"/>
</linearGradient>
</defs>
</svg>
