<svg width="34" height="33" viewBox="0 0 34 33" fill="none" xmlns="http://www.w3.org/2000/svg">
<path d="M8.16174 19.5065V26.3807C8.16174 26.7554 7.85809 27.0591 7.48338 27.0591C7.10866 27.0591 6.80502 26.7554 6.80502 26.3807V19.5065C6.80502 19.1318 7.10866 18.8281 7.48338 18.8281C7.85809 18.8281 8.16174 19.1318 8.16174 19.5065Z" fill="url(#paint0_linear_1963_25975)" stroke="url(#paint1_linear_1963_25975)" stroke-width="0.353385" stroke-miterlimit="10"/>
<path d="M8.16174 19.5065V26.3807C8.16174 26.7554 7.85809 27.0591 7.48338 27.0591C7.10866 27.0591 6.80502 26.7554 6.80502 26.3807V19.5065C6.80502 19.1318 7.10866 18.8281 7.48338 18.8281C7.85809 18.8281 8.16174 19.1318 8.16174 19.5065Z" fill="url(#paint2_linear_1963_25975)" stroke="url(#paint3_linear_1963_25975)" stroke-width="0.353385" stroke-miterlimit="10"/>
<path d="M8.16174 19.5065V26.3807C8.16174 26.7554 7.85809 27.0591 7.48338 27.0591C7.10866 27.0591 6.80502 26.7554 6.80502 26.3807V19.5065C6.80502 19.1318 7.10866 18.8281 7.48338 18.8281C7.85809 18.8281 8.16174 19.1318 8.16174 19.5065Z" fill="url(#paint4_linear_1963_25975)" stroke="url(#paint5_linear_1963_25975)" stroke-width="0.353385" stroke-miterlimit="10"/>
<path d="M8.16174 19.5065V26.3807C8.16174 26.7554 7.85809 27.0591 7.48338 27.0591C7.10866 27.0591 6.80502 26.7554 6.80502 26.3807V19.5065C6.80502 19.1318 7.10866 18.8281 7.48338 18.8281C7.85809 18.8281 8.16174 19.1318 8.16174 19.5065Z" fill="url(#paint6_linear_1963_25975)" stroke="url(#paint7_linear_1963_25975)" stroke-width="0.353385" stroke-miterlimit="10"/>
<path d="M8.16174 19.5065V26.3807C8.16174 26.7554 7.85809 27.0591 7.48338 27.0591C7.10866 27.0591 6.80502 26.7554 6.80502 26.3807V19.5065C6.80502 19.1318 7.10866 18.8281 7.48338 18.8281C7.85809 18.8281 8.16174 19.1318 8.16174 19.5065Z" fill="url(#paint8_linear_1963_25975)" stroke="url(#paint9_linear_1963_25975)" stroke-width="0.353385" stroke-miterlimit="10"/>
<path d="M8.16174 19.5065V26.3807C8.16174 26.7554 7.85809 27.0591 7.48338 27.0591C7.10866 27.0591 6.80502 26.7554 6.80502 26.3807V19.5065C6.80502 19.1318 7.10866 18.8281 7.48338 18.8281C7.85809 18.8281 8.16174 19.1318 8.16174 19.5065Z" fill="url(#paint10_linear_1963_25975)" stroke="url(#paint11_linear_1963_25975)" stroke-width="0.353385" stroke-miterlimit="10"/>
<path d="M8.16174 19.5065V26.3807C8.16174 26.7554 7.85809 27.0591 7.48338 27.0591C7.10866 27.0591 6.80502 26.7554 6.80502 26.3807V19.5065C6.80502 19.1318 7.10866 18.8281 7.48338 18.8281C7.85809 18.8281 8.16174 19.1318 8.16174 19.5065Z" fill="url(#paint12_linear_1963_25975)" stroke="url(#paint13_linear_1963_25975)" stroke-width="0.353385" stroke-miterlimit="10"/>
<path d="M8.16174 19.5065V26.3807C8.16174 26.7554 7.85809 27.0591 7.48338 27.0591C7.10866 27.0591 6.80502 26.7554 6.80502 26.3807V19.5065C6.80502 19.1318 7.10866 18.8281 7.48338 18.8281C7.85809 18.8281 8.16174 19.1318 8.16174 19.5065Z" fill="url(#paint14_linear_1963_25975)" stroke="url(#paint15_linear_1963_25975)" stroke-width="0.25" stroke-miterlimit="10"/>
<path d="M22.95 19.5065V26.3807C22.95 26.7554 22.6464 27.0591 22.2717 27.0591C21.8969 27.0591 21.5933 26.7554 21.5933 26.3807V19.5065C21.5933 19.1318 21.8969 18.8281 22.2717 18.8281C22.6464 18.8281 22.95 19.1318 22.95 19.5065Z" fill="url(#paint16_linear_1963_25975)" stroke="url(#paint17_linear_1963_25975)" stroke-width="0.353385" stroke-miterlimit="10"/>
<path d="M22.95 19.5065V26.3807C22.95 26.7554 22.6464 27.0591 22.2717 27.0591C21.8969 27.0591 21.5933 26.7554 21.5933 26.3807V19.5065C21.5933 19.1318 21.8969 18.8281 22.2717 18.8281C22.6464 18.8281 22.95 19.1318 22.95 19.5065Z" fill="url(#paint18_linear_1963_25975)" stroke="url(#paint19_linear_1963_25975)" stroke-width="0.353385" stroke-miterlimit="10"/>
<path d="M22.95 19.5065V26.3807C22.95 26.7554 22.6464 27.0591 22.2717 27.0591C21.8969 27.0591 21.5933 26.7554 21.5933 26.3807V19.5065C21.5933 19.1318 21.8969 18.8281 22.2717 18.8281C22.6464 18.8281 22.95 19.1318 22.95 19.5065Z" fill="url(#paint20_linear_1963_25975)" stroke="url(#paint21_linear_1963_25975)" stroke-width="0.353385" stroke-miterlimit="10"/>
<path d="M22.95 19.5065V26.3807C22.95 26.7554 22.6464 27.0591 22.2717 27.0591C21.8969 27.0591 21.5933 26.7554 21.5933 26.3807V19.5065C21.5933 19.1318 21.8969 18.8281 22.2717 18.8281C22.6464 18.8281 22.95 19.1318 22.95 19.5065Z" fill="url(#paint22_linear_1963_25975)" stroke="url(#paint23_linear_1963_25975)" stroke-width="0.353385" stroke-miterlimit="10"/>
<path d="M22.95 19.5065V26.3807C22.95 26.7554 22.6464 27.0591 22.2717 27.0591C21.8969 27.0591 21.5933 26.7554 21.5933 26.3807V19.5065C21.5933 19.1318 21.8969 18.8281 22.2717 18.8281C22.6464 18.8281 22.95 19.1318 22.95 19.5065Z" fill="url(#paint24_linear_1963_25975)" stroke="url(#paint25_linear_1963_25975)" stroke-width="0.353385" stroke-miterlimit="10"/>
<path d="M22.95 19.5065V26.3807C22.95 26.7554 22.6464 27.0591 22.2717 27.0591C21.8969 27.0591 21.5933 26.7554 21.5933 26.3807V19.5065C21.5933 19.1318 21.8969 18.8281 22.2717 18.8281C22.6464 18.8281 22.95 19.1318 22.95 19.5065Z" fill="url(#paint26_linear_1963_25975)" stroke="url(#paint27_linear_1963_25975)" stroke-width="0.353385" stroke-miterlimit="10"/>
<path d="M22.95 19.5065V26.3807C22.95 26.7554 22.6464 27.0591 22.2717 27.0591C21.8969 27.0591 21.5933 26.7554 21.5933 26.3807V19.5065C21.5933 19.1318 21.8969 18.8281 22.2717 18.8281C22.6464 18.8281 22.95 19.1318 22.95 19.5065Z" fill="url(#paint28_linear_1963_25975)" stroke="url(#paint29_linear_1963_25975)" stroke-width="0.353385" stroke-miterlimit="10"/>
<path d="M22.95 19.5065V26.3807C22.95 26.7554 22.6464 27.0591 22.2717 27.0591C21.8969 27.0591 21.5933 26.7554 21.5933 26.3807V19.5065C21.5933 19.1318 21.8969 18.8281 22.2717 18.8281C22.6464 18.8281 22.95 19.1318 22.95 19.5065Z" fill="url(#paint30_linear_1963_25975)" stroke="url(#paint31_linear_1963_25975)" stroke-width="0.25" stroke-miterlimit="10"/>
<path d="M15.5528 17.8723V26.4586C15.5528 26.7946 15.2492 27.0595 14.8744 27.0595C14.4997 27.0595 14.1961 26.7881 14.1961 26.4586V17.8723C14.1961 17.5364 14.4997 17.2715 14.8744 17.2715C15.2492 17.2715 15.5528 17.5428 15.5528 17.8723Z" fill="url(#paint32_linear_1963_25975)" stroke="url(#paint33_linear_1963_25975)" stroke-width="0.353385" stroke-miterlimit="10"/>
<path d="M15.5528 17.8723V26.4586C15.5528 26.7946 15.2492 27.0595 14.8744 27.0595C14.4997 27.0595 14.1961 26.7881 14.1961 26.4586V17.8723C14.1961 17.5364 14.4997 17.2715 14.8744 17.2715C15.2492 17.2715 15.5528 17.5428 15.5528 17.8723Z" fill="url(#paint34_linear_1963_25975)" stroke="url(#paint35_linear_1963_25975)" stroke-width="0.353385" stroke-miterlimit="10"/>
<path d="M15.5528 17.8723V26.4586C15.5528 26.7946 15.2492 27.0595 14.8744 27.0595C14.4997 27.0595 14.1961 26.7881 14.1961 26.4586V17.8723C14.1961 17.5364 14.4997 17.2715 14.8744 17.2715C15.2492 17.2715 15.5528 17.5428 15.5528 17.8723Z" fill="url(#paint36_linear_1963_25975)" stroke="url(#paint37_linear_1963_25975)" stroke-width="0.353385" stroke-miterlimit="10"/>
<path d="M15.5528 17.8723V26.4586C15.5528 26.7946 15.2492 27.0595 14.8744 27.0595C14.4997 27.0595 14.1961 26.7881 14.1961 26.4586V17.8723C14.1961 17.5364 14.4997 17.2715 14.8744 17.2715C15.2492 17.2715 15.5528 17.5428 15.5528 17.8723Z" fill="url(#paint38_linear_1963_25975)" stroke="url(#paint39_linear_1963_25975)" stroke-width="0.353385" stroke-miterlimit="10"/>
<path d="M15.5528 17.8723V26.4586C15.5528 26.7946 15.2492 27.0595 14.8744 27.0595C14.4997 27.0595 14.1961 26.7881 14.1961 26.4586V17.8723C14.1961 17.5364 14.4997 17.2715 14.8744 17.2715C15.2492 17.2715 15.5528 17.5428 15.5528 17.8723Z" fill="url(#paint40_linear_1963_25975)" stroke="url(#paint41_linear_1963_25975)" stroke-width="0.353385" stroke-miterlimit="10"/>
<path d="M15.5528 17.8723V26.4586C15.5528 26.7946 15.2492 27.0595 14.8744 27.0595C14.4997 27.0595 14.1961 26.7881 14.1961 26.4586V17.8723C14.1961 17.5364 14.4997 17.2715 14.8744 17.2715C15.2492 17.2715 15.5528 17.5428 15.5528 17.8723Z" fill="url(#paint42_linear_1963_25975)" stroke="url(#paint43_linear_1963_25975)" stroke-width="0.353385" stroke-miterlimit="10"/>
<path d="M15.5528 17.8723V26.4586C15.5528 26.7946 15.2492 27.0595 14.8744 27.0595C14.4997 27.0595 14.1961 26.7881 14.1961 26.4586V17.8723C14.1961 17.5364 14.4997 17.2715 14.8744 17.2715C15.2492 17.2715 15.5528 17.5428 15.5528 17.8723Z" fill="url(#paint44_linear_1963_25975)" stroke="url(#paint45_linear_1963_25975)" stroke-width="0.353385" stroke-miterlimit="10"/>
<path d="M15.5528 17.8723V26.4586C15.5528 26.7946 15.2492 27.0595 14.8744 27.0595C14.4997 27.0595 14.1961 26.7881 14.1961 26.4586V17.8723C14.1961 17.5364 14.4997 17.2715 14.8744 17.2715C15.2492 17.2715 15.5528 17.5428 15.5528 17.8723Z" fill="url(#paint46_linear_1963_25975)" stroke="url(#paint47_linear_1963_25975)" stroke-width="0.25" stroke-miterlimit="10"/>
<path d="M30.3473 16.7096V26.3748C30.3473 26.7496 30.0437 27.0532 29.669 27.0532C29.2943 27.0532 28.9906 26.7496 28.9906 26.3748V16.7096C28.9906 16.3349 29.2943 16.0312 29.669 16.0312C30.0437 16.0312 30.3473 16.3349 30.3473 16.7096Z" fill="url(#paint48_linear_1963_25975)" stroke="url(#paint49_linear_1963_25975)" stroke-width="0.353385" stroke-miterlimit="10"/>
<path d="M30.3473 16.7096V26.3748C30.3473 26.7496 30.0437 27.0532 29.669 27.0532C29.2943 27.0532 28.9906 26.7496 28.9906 26.3748V16.7096C28.9906 16.3349 29.2943 16.0312 29.669 16.0312C30.0437 16.0312 30.3473 16.3349 30.3473 16.7096Z" fill="url(#paint50_linear_1963_25975)" stroke="url(#paint51_linear_1963_25975)" stroke-width="0.353385" stroke-miterlimit="10"/>
<path d="M30.3473 16.7096V26.3748C30.3473 26.7496 30.0437 27.0532 29.669 27.0532C29.2943 27.0532 28.9906 26.7496 28.9906 26.3748V16.7096C28.9906 16.3349 29.2943 16.0312 29.669 16.0312C30.0437 16.0312 30.3473 16.3349 30.3473 16.7096Z" fill="url(#paint52_linear_1963_25975)" stroke="url(#paint53_linear_1963_25975)" stroke-width="0.353385" stroke-miterlimit="10"/>
<path d="M30.3473 16.7096V26.3748C30.3473 26.7496 30.0437 27.0532 29.669 27.0532C29.2943 27.0532 28.9906 26.7496 28.9906 26.3748V16.7096C28.9906 16.3349 29.2943 16.0312 29.669 16.0312C30.0437 16.0312 30.3473 16.3349 30.3473 16.7096Z" fill="url(#paint54_linear_1963_25975)" stroke="url(#paint55_linear_1963_25975)" stroke-width="0.353385" stroke-miterlimit="10"/>
<path d="M30.3473 16.7096V26.3748C30.3473 26.7496 30.0437 27.0532 29.669 27.0532C29.2943 27.0532 28.9906 26.7496 28.9906 26.3748V16.7096C28.9906 16.3349 29.2943 16.0312 29.669 16.0312C30.0437 16.0312 30.3473 16.3349 30.3473 16.7096Z" fill="url(#paint56_linear_1963_25975)" stroke="url(#paint57_linear_1963_25975)" stroke-width="0.353385" stroke-miterlimit="10"/>
<path d="M30.3473 16.7096V26.3748C30.3473 26.7496 30.0437 27.0532 29.669 27.0532C29.2943 27.0532 28.9906 26.7496 28.9906 26.3748V16.7096C28.9906 16.3349 29.2943 16.0312 29.669 16.0312C30.0437 16.0312 30.3473 16.3349 30.3473 16.7096Z" fill="url(#paint58_linear_1963_25975)" stroke="url(#paint59_linear_1963_25975)" stroke-width="0.353385" stroke-miterlimit="10"/>
<path d="M30.3473 16.7096V26.3748C30.3473 26.7496 30.0437 27.0532 29.669 27.0532C29.2943 27.0532 28.9906 26.7496 28.9906 26.3748V16.7096C28.9906 16.3349 29.2943 16.0312 29.669 16.0312C30.0437 16.0312 30.3473 16.3349 30.3473 16.7096Z" fill="url(#paint60_linear_1963_25975)" stroke="url(#paint61_linear_1963_25975)" stroke-width="0.353385" stroke-miterlimit="10"/>
<path d="M30.3473 16.7096V26.3748C30.3473 26.7496 30.0437 27.0532 29.669 27.0532C29.2943 27.0532 28.9906 26.7496 28.9906 26.3748V16.7096C28.9906 16.3349 29.2943 16.0312 29.669 16.0312C30.0437 16.0312 30.3473 16.3349 30.3473 16.7096Z" fill="url(#paint62_linear_1963_25975)" stroke="url(#paint63_linear_1963_25975)" stroke-width="0.25" stroke-miterlimit="10"/>
<path d="M9.58948 6.13374H27.5047C27.6404 6.13374 27.7631 6.10143 27.8665 6.04329C27.9117 6.02391 27.9505 5.99806 27.9892 5.97222L28.0345 5.94638C28.2218 5.7784 28.3252 5.5652 28.3252 5.33907C28.3252 5.22924 28.3058 5.11941 28.2606 5.0225C28.2347 4.96435 28.2024 4.89974 28.1637 4.85452C28.112 4.77699 28.0538 4.70592 27.9892 4.63485L27.9699 4.61547C27.9699 4.61547 27.9505 4.58963 27.944 4.58317C27.1687 3.67221 26.303 2.80647 25.4567 1.96012C25.2822 1.77922 25.1078 1.60478 24.9334 1.43034C24.7783 1.26882 24.6168 1.11377 24.4682 0.95871C24.1775 0.655056 23.9191 0.5 23.7059 0.5C23.609 0.5 23.4668 0.525842 23.2472 0.751967C23.0921 0.926406 22.7691 1.28821 23.4668 2.01181C23.609 2.15394 23.7446 2.29608 23.8738 2.43821L25.8379 4.5444H23.0533C22.9758 4.53794 22.8983 4.53794 22.8272 4.53794C20.495 4.5444 18.1627 4.5444 15.8304 4.5444H9.58302C9.13078 4.5444 8.76253 4.89974 8.76253 5.33907C8.76253 5.7784 9.13078 6.13374 9.58302 6.13374H9.58948Z" fill="url(#paint64_linear_1963_25975)" stroke="url(#paint65_linear_1963_25975)" stroke-width="0.25" stroke-miterlimit="10"/>
<path d="M27.5563 8.09766H9.64113C9.50546 8.09766 9.37625 8.12996 9.27934 8.18811C9.22766 8.20749 9.18889 8.23333 9.15013 8.25917L9.10491 8.28502C8.91755 8.44654 8.81418 8.6662 8.81418 8.89232C8.81418 9.00216 8.83356 9.11199 8.87878 9.2089C8.90463 9.26704 8.93693 9.33165 8.97569 9.37688C9.02092 9.4544 9.07906 9.51901 9.16305 9.61592C9.16951 9.62884 9.18243 9.64176 9.18889 9.64822C9.97708 10.5721 10.8428 11.4378 11.6762 12.2713C11.8442 12.4393 12.0057 12.6072 12.1672 12.7752C12.3352 12.9432 12.4967 13.1112 12.6582 13.2791C12.9554 13.5828 13.2074 13.7314 13.4206 13.7314C13.5175 13.7314 13.6596 13.7056 13.8793 13.4794C14.0343 13.305 14.3574 12.9432 13.6596 12.226C13.5304 12.0968 13.4077 11.9676 13.2849 11.8319L11.2886 9.68699H14.0731C14.1506 9.69345 14.2217 9.69345 14.2992 9.69345C16.6315 9.68699 18.9638 9.68699 21.296 9.68699H27.5434C27.9957 9.68699 28.3639 9.33165 28.3639 8.89232C28.3639 8.45299 27.9957 8.09766 27.5434 8.09766H27.5563Z" fill="url(#paint66_linear_1963_25975)" stroke="url(#paint67_linear_1963_25975)" stroke-width="0.25" stroke-miterlimit="10"/>
<path d="M33.6745 31.8218C33.6745 32.1965 33.3708 32.5002 32.9961 32.5002H5.15743C2.8187 32.5002 0.919289 30.6007 0.919289 28.2619V4.09244C0.919289 3.71772 1.22294 3.41406 1.59765 3.41406C1.97236 3.41406 2.27601 3.71772 2.27601 4.09244V28.0423C2.27601 29.7544 3.66504 31.1434 5.37709 31.1434H32.9961C33.3708 31.1434 33.6745 31.4471 33.6745 31.8218Z" fill="url(#paint68_linear_1963_25975)" stroke="url(#paint69_linear_1963_25975)" stroke-width="0.25" stroke-miterlimit="10"/>
<defs>
<linearGradient id="paint0_linear_1963_25975" x1="8.16174" y1="23.0105" x2="6.80502" y2="23.0105" gradientUnits="userSpaceOnUse">
<stop stop-color="#025436"/>
<stop offset="1" stop-color="#053725"/>
</linearGradient>
<linearGradient id="paint1_linear_1963_25975" x1="8.16174" y1="23.0105" x2="6.80502" y2="23.0105" gradientUnits="userSpaceOnUse">
<stop stop-color="#025436"/>
<stop offset="1" stop-color="#053725"/>
</linearGradient>
<linearGradient id="paint2_linear_1963_25975" x1="8.16174" y1="23.0105" x2="6.80502" y2="23.0105" gradientUnits="userSpaceOnUse">
<stop stop-color="#025436"/>
<stop offset="1" stop-color="#053725"/>
</linearGradient>
<linearGradient id="paint3_linear_1963_25975" x1="8.16174" y1="23.0105" x2="6.80502" y2="23.0105" gradientUnits="userSpaceOnUse">
<stop stop-color="#025436"/>
<stop offset="1" stop-color="#053725"/>
</linearGradient>
<linearGradient id="paint4_linear_1963_25975" x1="8.16174" y1="23.0105" x2="6.80502" y2="23.0105" gradientUnits="userSpaceOnUse">
<stop stop-color="#025436"/>
<stop offset="1" stop-color="#053725"/>
</linearGradient>
<linearGradient id="paint5_linear_1963_25975" x1="8.16174" y1="23.0105" x2="6.80502" y2="23.0105" gradientUnits="userSpaceOnUse">
<stop stop-color="#025436"/>
<stop offset="1" stop-color="#053725"/>
</linearGradient>
<linearGradient id="paint6_linear_1963_25975" x1="8.16174" y1="23.0105" x2="6.80502" y2="23.0105" gradientUnits="userSpaceOnUse">
<stop stop-color="#025436"/>
<stop offset="1" stop-color="#053725"/>
</linearGradient>
<linearGradient id="paint7_linear_1963_25975" x1="8.16174" y1="23.0105" x2="6.80502" y2="23.0105" gradientUnits="userSpaceOnUse">
<stop stop-color="#025436"/>
<stop offset="1" stop-color="#053725"/>
</linearGradient>
<linearGradient id="paint8_linear_1963_25975" x1="8.16174" y1="23.0105" x2="6.80502" y2="23.0105" gradientUnits="userSpaceOnUse">
<stop stop-color="#025436"/>
<stop offset="1" stop-color="#053725"/>
</linearGradient>
<linearGradient id="paint9_linear_1963_25975" x1="8.16174" y1="23.0105" x2="6.80502" y2="23.0105" gradientUnits="userSpaceOnUse">
<stop stop-color="#025436"/>
<stop offset="1" stop-color="#053725"/>
</linearGradient>
<linearGradient id="paint10_linear_1963_25975" x1="8.16174" y1="23.0105" x2="6.80502" y2="23.0105" gradientUnits="userSpaceOnUse">
<stop stop-color="#025436"/>
<stop offset="1" stop-color="#053725"/>
</linearGradient>
<linearGradient id="paint11_linear_1963_25975" x1="8.16174" y1="23.0105" x2="6.80502" y2="23.0105" gradientUnits="userSpaceOnUse">
<stop stop-color="#025436"/>
<stop offset="1" stop-color="#053725"/>
</linearGradient>
<linearGradient id="paint12_linear_1963_25975" x1="8.16174" y1="23.0105" x2="6.80502" y2="23.0105" gradientUnits="userSpaceOnUse">
<stop stop-color="#025436"/>
<stop offset="1" stop-color="#053725"/>
</linearGradient>
<linearGradient id="paint13_linear_1963_25975" x1="8.16174" y1="23.0105" x2="6.80502" y2="23.0105" gradientUnits="userSpaceOnUse">
<stop stop-color="#025436"/>
<stop offset="1" stop-color="#053725"/>
</linearGradient>
<linearGradient id="paint14_linear_1963_25975" x1="8.16174" y1="23.0105" x2="6.80502" y2="23.0105" gradientUnits="userSpaceOnUse">
<stop stop-color="#025436"/>
<stop offset="1" stop-color="#053725"/>
</linearGradient>
<linearGradient id="paint15_linear_1963_25975" x1="8.16174" y1="23.0105" x2="6.80502" y2="23.0105" gradientUnits="userSpaceOnUse">
<stop stop-color="#025436"/>
<stop offset="1" stop-color="#053725"/>
</linearGradient>
<linearGradient id="paint16_linear_1963_25975" x1="22.95" y1="23.0105" x2="21.5933" y2="23.0105" gradientUnits="userSpaceOnUse">
<stop stop-color="#025436"/>
<stop offset="1" stop-color="#053725"/>
</linearGradient>
<linearGradient id="paint17_linear_1963_25975" x1="22.95" y1="23.0105" x2="21.5933" y2="23.0105" gradientUnits="userSpaceOnUse">
<stop stop-color="#025436"/>
<stop offset="1" stop-color="#053725"/>
</linearGradient>
<linearGradient id="paint18_linear_1963_25975" x1="22.95" y1="23.0105" x2="21.5933" y2="23.0105" gradientUnits="userSpaceOnUse">
<stop stop-color="#025436"/>
<stop offset="1" stop-color="#053725"/>
</linearGradient>
<linearGradient id="paint19_linear_1963_25975" x1="22.95" y1="23.0105" x2="21.5933" y2="23.0105" gradientUnits="userSpaceOnUse">
<stop stop-color="#025436"/>
<stop offset="1" stop-color="#053725"/>
</linearGradient>
<linearGradient id="paint20_linear_1963_25975" x1="22.95" y1="23.0105" x2="21.5933" y2="23.0105" gradientUnits="userSpaceOnUse">
<stop stop-color="#025436"/>
<stop offset="1" stop-color="#053725"/>
</linearGradient>
<linearGradient id="paint21_linear_1963_25975" x1="22.95" y1="23.0105" x2="21.5933" y2="23.0105" gradientUnits="userSpaceOnUse">
<stop stop-color="#025436"/>
<stop offset="1" stop-color="#053725"/>
</linearGradient>
<linearGradient id="paint22_linear_1963_25975" x1="22.95" y1="23.0105" x2="21.5933" y2="23.0105" gradientUnits="userSpaceOnUse">
<stop stop-color="#025436"/>
<stop offset="1" stop-color="#053725"/>
</linearGradient>
<linearGradient id="paint23_linear_1963_25975" x1="22.95" y1="23.0105" x2="21.5933" y2="23.0105" gradientUnits="userSpaceOnUse">
<stop stop-color="#025436"/>
<stop offset="1" stop-color="#053725"/>
</linearGradient>
<linearGradient id="paint24_linear_1963_25975" x1="22.95" y1="23.0105" x2="21.5933" y2="23.0105" gradientUnits="userSpaceOnUse">
<stop stop-color="#025436"/>
<stop offset="1" stop-color="#053725"/>
</linearGradient>
<linearGradient id="paint25_linear_1963_25975" x1="22.95" y1="23.0105" x2="21.5933" y2="23.0105" gradientUnits="userSpaceOnUse">
<stop stop-color="#025436"/>
<stop offset="1" stop-color="#053725"/>
</linearGradient>
<linearGradient id="paint26_linear_1963_25975" x1="22.95" y1="23.0105" x2="21.5933" y2="23.0105" gradientUnits="userSpaceOnUse">
<stop stop-color="#025436"/>
<stop offset="1" stop-color="#053725"/>
</linearGradient>
<linearGradient id="paint27_linear_1963_25975" x1="22.95" y1="23.0105" x2="21.5933" y2="23.0105" gradientUnits="userSpaceOnUse">
<stop stop-color="#025436"/>
<stop offset="1" stop-color="#053725"/>
</linearGradient>
<linearGradient id="paint28_linear_1963_25975" x1="22.95" y1="23.0105" x2="21.5933" y2="23.0105" gradientUnits="userSpaceOnUse">
<stop stop-color="#025436"/>
<stop offset="1" stop-color="#053725"/>
</linearGradient>
<linearGradient id="paint29_linear_1963_25975" x1="22.95" y1="23.0105" x2="21.5933" y2="23.0105" gradientUnits="userSpaceOnUse">
<stop stop-color="#025436"/>
<stop offset="1" stop-color="#053725"/>
</linearGradient>
<linearGradient id="paint30_linear_1963_25975" x1="22.95" y1="23.0105" x2="21.5933" y2="23.0105" gradientUnits="userSpaceOnUse">
<stop stop-color="#025436"/>
<stop offset="1" stop-color="#053725"/>
</linearGradient>
<linearGradient id="paint31_linear_1963_25975" x1="22.95" y1="23.0105" x2="21.5933" y2="23.0105" gradientUnits="userSpaceOnUse">
<stop stop-color="#025436"/>
<stop offset="1" stop-color="#053725"/>
</linearGradient>
<linearGradient id="paint32_linear_1963_25975" x1="15.5528" y1="22.245" x2="14.1961" y2="22.245" gradientUnits="userSpaceOnUse">
<stop stop-color="#025436"/>
<stop offset="1" stop-color="#053725"/>
</linearGradient>
<linearGradient id="paint33_linear_1963_25975" x1="15.5528" y1="22.245" x2="14.1961" y2="22.245" gradientUnits="userSpaceOnUse">
<stop stop-color="#025436"/>
<stop offset="1" stop-color="#053725"/>
</linearGradient>
<linearGradient id="paint34_linear_1963_25975" x1="15.5528" y1="22.245" x2="14.1961" y2="22.245" gradientUnits="userSpaceOnUse">
<stop stop-color="#025436"/>
<stop offset="1" stop-color="#053725"/>
</linearGradient>
<linearGradient id="paint35_linear_1963_25975" x1="15.5528" y1="22.245" x2="14.1961" y2="22.245" gradientUnits="userSpaceOnUse">
<stop stop-color="#025436"/>
<stop offset="1" stop-color="#053725"/>
</linearGradient>
<linearGradient id="paint36_linear_1963_25975" x1="15.5528" y1="22.245" x2="14.1961" y2="22.245" gradientUnits="userSpaceOnUse">
<stop stop-color="#025436"/>
<stop offset="1" stop-color="#053725"/>
</linearGradient>
<linearGradient id="paint37_linear_1963_25975" x1="15.5528" y1="22.245" x2="14.1961" y2="22.245" gradientUnits="userSpaceOnUse">
<stop stop-color="#025436"/>
<stop offset="1" stop-color="#053725"/>
</linearGradient>
<linearGradient id="paint38_linear_1963_25975" x1="15.5528" y1="22.245" x2="14.1961" y2="22.245" gradientUnits="userSpaceOnUse">
<stop stop-color="#025436"/>
<stop offset="1" stop-color="#053725"/>
</linearGradient>
<linearGradient id="paint39_linear_1963_25975" x1="15.5528" y1="22.245" x2="14.1961" y2="22.245" gradientUnits="userSpaceOnUse">
<stop stop-color="#025436"/>
<stop offset="1" stop-color="#053725"/>
</linearGradient>
<linearGradient id="paint40_linear_1963_25975" x1="15.5528" y1="22.245" x2="14.1961" y2="22.245" gradientUnits="userSpaceOnUse">
<stop stop-color="#025436"/>
<stop offset="1" stop-color="#053725"/>
</linearGradient>
<linearGradient id="paint41_linear_1963_25975" x1="15.5528" y1="22.245" x2="14.1961" y2="22.245" gradientUnits="userSpaceOnUse">
<stop stop-color="#025436"/>
<stop offset="1" stop-color="#053725"/>
</linearGradient>
<linearGradient id="paint42_linear_1963_25975" x1="15.5528" y1="22.245" x2="14.1961" y2="22.245" gradientUnits="userSpaceOnUse">
<stop stop-color="#025436"/>
<stop offset="1" stop-color="#053725"/>
</linearGradient>
<linearGradient id="paint43_linear_1963_25975" x1="15.5528" y1="22.245" x2="14.1961" y2="22.245" gradientUnits="userSpaceOnUse">
<stop stop-color="#025436"/>
<stop offset="1" stop-color="#053725"/>
</linearGradient>
<linearGradient id="paint44_linear_1963_25975" x1="15.5528" y1="22.245" x2="14.1961" y2="22.245" gradientUnits="userSpaceOnUse">
<stop stop-color="#025436"/>
<stop offset="1" stop-color="#053725"/>
</linearGradient>
<linearGradient id="paint45_linear_1963_25975" x1="15.5528" y1="22.245" x2="14.1961" y2="22.245" gradientUnits="userSpaceOnUse">
<stop stop-color="#025436"/>
<stop offset="1" stop-color="#053725"/>
</linearGradient>
<linearGradient id="paint46_linear_1963_25975" x1="15.5528" y1="22.245" x2="14.1961" y2="22.245" gradientUnits="userSpaceOnUse">
<stop stop-color="#025436"/>
<stop offset="1" stop-color="#053725"/>
</linearGradient>
<linearGradient id="paint47_linear_1963_25975" x1="15.5528" y1="22.245" x2="14.1961" y2="22.245" gradientUnits="userSpaceOnUse">
<stop stop-color="#025436"/>
<stop offset="1" stop-color="#053725"/>
</linearGradient>
<linearGradient id="paint48_linear_1963_25975" x1="30.3473" y1="21.6318" x2="28.9906" y2="21.6318" gradientUnits="userSpaceOnUse">
<stop stop-color="#025436"/>
<stop offset="1" stop-color="#053725"/>
</linearGradient>
<linearGradient id="paint49_linear_1963_25975" x1="30.3473" y1="21.6318" x2="28.9906" y2="21.6318" gradientUnits="userSpaceOnUse">
<stop stop-color="#025436"/>
<stop offset="1" stop-color="#053725"/>
</linearGradient>
<linearGradient id="paint50_linear_1963_25975" x1="30.3473" y1="21.6318" x2="28.9906" y2="21.6318" gradientUnits="userSpaceOnUse">
<stop stop-color="#025436"/>
<stop offset="1" stop-color="#053725"/>
</linearGradient>
<linearGradient id="paint51_linear_1963_25975" x1="30.3473" y1="21.6318" x2="28.9906" y2="21.6318" gradientUnits="userSpaceOnUse">
<stop stop-color="#025436"/>
<stop offset="1" stop-color="#053725"/>
</linearGradient>
<linearGradient id="paint52_linear_1963_25975" x1="30.3473" y1="21.6318" x2="28.9906" y2="21.6318" gradientUnits="userSpaceOnUse">
<stop stop-color="#025436"/>
<stop offset="1" stop-color="#053725"/>
</linearGradient>
<linearGradient id="paint53_linear_1963_25975" x1="30.3473" y1="21.6318" x2="28.9906" y2="21.6318" gradientUnits="userSpaceOnUse">
<stop stop-color="#025436"/>
<stop offset="1" stop-color="#053725"/>
</linearGradient>
<linearGradient id="paint54_linear_1963_25975" x1="30.3473" y1="21.6318" x2="28.9906" y2="21.6318" gradientUnits="userSpaceOnUse">
<stop stop-color="#025436"/>
<stop offset="1" stop-color="#053725"/>
</linearGradient>
<linearGradient id="paint55_linear_1963_25975" x1="30.3473" y1="21.6318" x2="28.9906" y2="21.6318" gradientUnits="userSpaceOnUse">
<stop stop-color="#025436"/>
<stop offset="1" stop-color="#053725"/>
</linearGradient>
<linearGradient id="paint56_linear_1963_25975" x1="30.3473" y1="21.6318" x2="28.9906" y2="21.6318" gradientUnits="userSpaceOnUse">
<stop stop-color="#025436"/>
<stop offset="1" stop-color="#053725"/>
</linearGradient>
<linearGradient id="paint57_linear_1963_25975" x1="30.3473" y1="21.6318" x2="28.9906" y2="21.6318" gradientUnits="userSpaceOnUse">
<stop stop-color="#025436"/>
<stop offset="1" stop-color="#053725"/>
</linearGradient>
<linearGradient id="paint58_linear_1963_25975" x1="30.3473" y1="21.6318" x2="28.9906" y2="21.6318" gradientUnits="userSpaceOnUse">
<stop stop-color="#025436"/>
<stop offset="1" stop-color="#053725"/>
</linearGradient>
<linearGradient id="paint59_linear_1963_25975" x1="30.3473" y1="21.6318" x2="28.9906" y2="21.6318" gradientUnits="userSpaceOnUse">
<stop stop-color="#025436"/>
<stop offset="1" stop-color="#053725"/>
</linearGradient>
<linearGradient id="paint60_linear_1963_25975" x1="30.3473" y1="21.6318" x2="28.9906" y2="21.6318" gradientUnits="userSpaceOnUse">
<stop stop-color="#025436"/>
<stop offset="1" stop-color="#053725"/>
</linearGradient>
<linearGradient id="paint61_linear_1963_25975" x1="30.3473" y1="21.6318" x2="28.9906" y2="21.6318" gradientUnits="userSpaceOnUse">
<stop stop-color="#025436"/>
<stop offset="1" stop-color="#053725"/>
</linearGradient>
<linearGradient id="paint62_linear_1963_25975" x1="30.3473" y1="21.6318" x2="28.9906" y2="21.6318" gradientUnits="userSpaceOnUse">
<stop stop-color="#025436"/>
<stop offset="1" stop-color="#053725"/>
</linearGradient>
<linearGradient id="paint63_linear_1963_25975" x1="30.3473" y1="21.6318" x2="28.9906" y2="21.6318" gradientUnits="userSpaceOnUse">
<stop stop-color="#025436"/>
<stop offset="1" stop-color="#053725"/>
</linearGradient>
<linearGradient id="paint64_linear_1963_25975" x1="28.3252" y1="3.36265" x2="8.76253" y2="3.36265" gradientUnits="userSpaceOnUse">
<stop stop-color="#025436"/>
<stop offset="1" stop-color="#053725"/>
</linearGradient>
<linearGradient id="paint65_linear_1963_25975" x1="28.3252" y1="3.36265" x2="8.76253" y2="3.36265" gradientUnits="userSpaceOnUse">
<stop stop-color="#025436"/>
<stop offset="1" stop-color="#053725"/>
</linearGradient>
<linearGradient id="paint66_linear_1963_25975" x1="28.3639" y1="10.9603" x2="8.81418" y2="10.9603" gradientUnits="userSpaceOnUse">
<stop stop-color="#025436"/>
<stop offset="1" stop-color="#053725"/>
</linearGradient>
<linearGradient id="paint67_linear_1963_25975" x1="28.3639" y1="10.9603" x2="8.81418" y2="10.9603" gradientUnits="userSpaceOnUse">
<stop stop-color="#025436"/>
<stop offset="1" stop-color="#053725"/>
</linearGradient>
<linearGradient id="paint68_linear_1963_25975" x1="33.6745" y1="18.1935" x2="0.919289" y2="18.1935" gradientUnits="userSpaceOnUse">
<stop stop-color="#025436"/>
<stop offset="1" stop-color="#053725"/>
</linearGradient>
<linearGradient id="paint69_linear_1963_25975" x1="33.6745" y1="18.1935" x2="0.919289" y2="18.1935" gradientUnits="userSpaceOnUse">
<stop stop-color="#025436"/>
<stop offset="1" stop-color="#053725"/>
</linearGradient>
</defs>
</svg>
