<svg width="19" height="33" viewBox="0 0 19 33" fill="none" xmlns="http://www.w3.org/2000/svg">
<path d="M18.522 4.86954C18.5349 4.28964 18.4319 3.71301 18.2189 3.17347C18.006 2.63393 17.6874 2.14235 17.2819 1.72757C16.8845 1.33198 16.4121 1.01968 15.8925 0.80895C15.3728 0.59822 14.8163 0.493299 14.2556 0.500331H14.1271C13.022 0.532458 11.814 0.545309 10.3426 0.545309H7.77248H5.20236H4.46987C4.01614 0.531248 3.56252 0.57661 3.12056 0.68024C2.22201 0.893475 1.42761 1.41715 0.877468 2.1589C0.327323 2.90066 0.0567666 3.81285 0.113514 4.73461C0.113514 7.51034 0.113514 10.2946 0.113514 13.0875V16.4865C0.113514 17.6366 0.113514 18.7868 0.113514 19.9305C0.113514 22.6034 0.145641 25.3663 0.0749623 28.0842C0.0486418 28.6735 0.14212 29.2621 0.349744 29.8143C0.557368 30.3665 0.874826 30.8708 1.28292 31.2968C1.68824 31.6927 2.16898 32.003 2.69658 32.2094C3.22419 32.4158 3.78789 32.5141 4.35422 32.4984H4.4763C6.06335 32.4598 7.68895 32.4341 9.28886 32.4341C10.8888 32.4341 12.5015 32.4341 14.1335 32.4984H14.2556C14.8159 32.5066 15.3722 32.4029 15.8919 32.1932C16.4116 31.9836 16.8842 31.6723 17.2819 31.2776C17.6876 30.8616 18.0062 30.3689 18.2191 29.8283C18.4321 29.2877 18.535 28.71 18.522 28.1292C18.4642 20.4188 18.4642 12.5863 18.522 4.86954ZM14.2685 31.1555H4.46987C2.54228 31.1555 1.43713 30.0375 1.43713 28.0842V4.95307C1.43713 2.9548 2.52301 1.84965 4.502 1.84965H14.3006C14.6789 1.83075 15.0571 1.8906 15.4111 2.02539C15.7651 2.16018 16.0873 2.36699 16.3573 2.63273C16.6272 2.89847 16.8391 3.21735 16.9795 3.56919C17.1198 3.92104 17.1856 4.29819 17.1727 4.67678C17.1727 12.5499 17.1727 20.4209 17.1727 28.2898C17.1915 28.6744 17.129 29.0587 16.9892 29.4175C16.8494 29.7763 16.6354 30.1015 16.3613 30.372C16.0872 30.6424 15.7591 30.852 15.3985 30.987C15.0379 31.122 14.6528 31.1794 14.2685 31.1555Z" fill="url(#paint0_linear_1963_24324)"/>
<path d="M15.014 10.376C14.9607 10.5058 14.8821 10.6238 14.7829 10.7231C14.6836 10.8224 14.5656 10.9009 14.4357 10.9543C13.639 11.3912 12.8423 11.8474 12.0455 12.3036L10.5998 13.1132C10.3878 13.2602 10.1429 13.3529 9.88662 13.383C9.57821 13.383 9.38545 13.1067 9.14771 12.7019L8.4345 11.4233L6.04428 12.7598L4.92628 13.4023L4.79777 13.4858C4.77173 13.5123 4.74129 13.534 4.70782 13.5501L4.62429 13.6015C4.59058 13.621 4.55354 13.634 4.51506 13.64H4.43153C4.24178 13.6262 4.05535 13.5828 3.87896 13.5115C3.83419 13.4766 3.79702 13.4328 3.76973 13.383C3.71583 13.3122 3.67724 13.231 3.65638 13.1445C3.63553 13.058 3.63287 12.9681 3.64858 12.8805C3.66428 12.7929 3.69801 12.7095 3.74762 12.6357C3.79723 12.5618 3.86165 12.499 3.93678 12.4513L5.42745 11.5518C6.18564 11.1213 6.886 10.7165 7.57351 10.3374L8.33812 9.91978L8.98065 9.57923L9.76454 11.0185L10.2015 11.8152C10.2015 11.8152 12.9258 10.2539 13.7482 9.79127C13.9477 9.64862 14.1796 9.55806 14.4229 9.52783C14.5316 9.53208 14.6368 9.56689 14.7266 9.62826C14.8164 9.68964 14.8871 9.77508 14.9305 9.8748C14.9804 9.94707 15.0137 10.0294 15.0282 10.1161C15.0426 10.2027 15.0378 10.2914 15.014 10.376Z" fill="url(#paint1_linear_1963_24324)"/>
<path d="M9.2693 26.6001C8.95177 26.6189 8.65249 26.7548 8.42936 26.9815C8.20623 27.2082 8.0751 27.5096 8.06134 27.8274C8.06227 27.9905 8.0957 28.1518 8.15969 28.3018C8.22368 28.4518 8.31694 28.5876 8.43401 28.7012C8.54922 28.8201 8.68697 28.9149 8.83921 28.98C8.99145 29.045 9.15513 29.0792 9.3207 29.0803C9.48598 29.0811 9.64971 29.0485 9.80208 28.9844C9.95444 28.9204 10.0923 28.8262 10.2074 28.7076C10.3214 28.5941 10.4114 28.4588 10.4721 28.3098C10.5328 28.1608 10.563 28.0011 10.5608 27.8402C10.5491 27.5061 10.4077 27.1898 10.1666 26.9582C9.92543 26.7267 9.60358 26.5982 9.2693 26.6001Z" fill="url(#paint2_linear_1963_24324)"/>
<path d="M10.4454 3.9126H8.16442C7.8273 3.9126 7.55402 4.18589 7.55402 4.523V4.63223C7.55402 4.96935 7.8273 5.24264 8.16442 5.24264H10.4454C10.7825 5.24264 11.0558 4.96935 11.0558 4.63223V4.523C11.0558 4.18589 10.7825 3.9126 10.4454 3.9126Z" fill="url(#paint3_linear_1963_24324)"/>
<path d="M6.04386 12.7602L4.7074 13.5377L4.62387 13.5891C4.59016 13.6086 4.55312 13.6216 4.51464 13.6276C4.4458 13.6578 4.37136 13.6732 4.29618 13.6726C4.13116 13.6722 3.9717 13.6129 3.84641 13.5055C3.80164 13.4706 3.76447 13.4269 3.73718 13.377C3.68578 13.3044 3.65003 13.2219 3.63219 13.1347C3.61435 13.0476 3.61481 12.9576 3.63353 12.8707C3.65226 12.7837 3.68884 12.7015 3.74097 12.6294C3.7931 12.5573 3.85964 12.4968 3.93636 12.4518L5.42703 11.5522L6.04386 12.7602Z" fill="url(#paint4_linear_1963_24324)"/>
<path d="M4.52157 15.0991H4.41234C4.05748 15.0991 3.76981 15.3868 3.76981 15.7417V20.6056C3.76981 20.9605 4.05748 21.2481 4.41234 21.2481H4.52157C4.87643 21.2481 5.1641 20.9605 5.1641 20.6056V15.7417C5.1641 15.3868 4.87643 15.0991 4.52157 15.0991Z" fill="url(#paint5_linear_1963_24324)"/>
<path d="M7.74007 13.897H7.63084C7.27598 13.897 6.98831 14.1846 6.98831 14.5395V20.605C6.98831 20.9599 7.27598 21.2475 7.63084 21.2475H7.74007C8.09493 21.2475 8.3826 20.9599 8.3826 20.605V14.5395C8.3826 14.1846 8.09493 13.897 7.74007 13.897Z" fill="url(#paint6_linear_1963_24324)"/>
<path d="M10.9722 15.0991H10.863C10.5081 15.0991 10.2205 15.3868 10.2205 15.7417V20.6056C10.2205 20.9605 10.5081 21.2481 10.863 21.2481H10.9722C11.3271 21.2481 11.6148 20.9605 11.6148 20.6056V15.7417C11.6148 15.3868 11.3271 15.0991 10.9722 15.0991Z" fill="url(#paint7_linear_1963_24324)"/>
<path d="M14.1977 12.7017H14.0885C13.7336 12.7017 13.4459 12.9893 13.4459 13.3442V20.6048C13.4459 20.9597 13.7336 21.2473 14.0885 21.2473H14.1977C14.5525 21.2473 14.8402 20.9597 14.8402 20.6048V13.3442C14.8402 12.9893 14.5525 12.7017 14.1977 12.7017Z" fill="url(#paint8_linear_1963_24324)"/>
<defs>
<linearGradient id="paint0_linear_1963_24324" x1="18.5231" y1="16.76" x2="0.0706177" y2="16.76" gradientUnits="userSpaceOnUse">
<stop stop-color="#025436"/>
<stop offset="1" stop-color="#053725"/>
</linearGradient>
<linearGradient id="paint1_linear_1963_24324" x1="15.0363" y1="11.6173" x2="3.63849" y2="11.6173" gradientUnits="userSpaceOnUse">
<stop stop-color="#025436"/>
<stop offset="1" stop-color="#053725"/>
</linearGradient>
<linearGradient id="paint2_linear_1963_24324" x1="10.5609" y1="27.8604" x2="8.06134" y2="27.8604" gradientUnits="userSpaceOnUse">
<stop stop-color="#025436"/>
<stop offset="1" stop-color="#053725"/>
</linearGradient>
<linearGradient id="paint3_linear_1963_24324" x1="11.0558" y1="4.58842" x2="7.55402" y2="4.58842" gradientUnits="userSpaceOnUse">
<stop stop-color="#025436"/>
<stop offset="1" stop-color="#053725"/>
</linearGradient>
<linearGradient id="paint4_linear_1963_24324" x1="6.04386" y1="12.6297" x2="3.61914" y2="12.6297" gradientUnits="userSpaceOnUse">
<stop stop-color="#025436"/>
<stop offset="1" stop-color="#053725"/>
</linearGradient>
<linearGradient id="paint5_linear_1963_24324" x1="5.1641" y1="18.2236" x2="3.76981" y2="18.2236" gradientUnits="userSpaceOnUse">
<stop stop-color="#025436"/>
<stop offset="1" stop-color="#053725"/>
</linearGradient>
<linearGradient id="paint6_linear_1963_24324" x1="8.3826" y1="17.632" x2="6.98831" y2="17.632" gradientUnits="userSpaceOnUse">
<stop stop-color="#025436"/>
<stop offset="1" stop-color="#053725"/>
</linearGradient>
<linearGradient id="paint7_linear_1963_24324" x1="11.6148" y1="18.2236" x2="10.2205" y2="18.2236" gradientUnits="userSpaceOnUse">
<stop stop-color="#025436"/>
<stop offset="1" stop-color="#053725"/>
</linearGradient>
<linearGradient id="paint8_linear_1963_24324" x1="14.8402" y1="17.0439" x2="13.4459" y2="17.0439" gradientUnits="userSpaceOnUse">
<stop stop-color="#025436"/>
<stop offset="1" stop-color="#053725"/>
</linearGradient>
</defs>
</svg>
