<svg width="40" height="41" viewBox="0 0 40 41" fill="none" xmlns="http://www.w3.org/2000/svg">
<path d="M30.1774 18.4476C29.6054 17.8457 28.6916 17.8516 28.1263 18.4607L21.959 25.1067L17.119 20.1035C16.5433 19.5085 15.6319 19.5216 15.0711 20.1331L4.20576 31.9816C3.63842 32.6003 3.64315 33.5983 4.21633 34.2107C4.78951 34.8231 5.71409 34.818 6.28144 34.1993L16.1364 23.4526L20.9703 28.4494C21.5435 29.042 22.4503 29.0318 23.012 28.4265L29.1702 21.7903L32.137 24.9122C32.7145 25.5199 33.639 25.5072 34.202 24.8839C34.765 24.2606 34.7532 23.2627 34.1757 22.655L30.1774 18.4476Z" fill="url(#paint0_linear_1534_2923)"/>
<path d="M8.66893 6.34999C7.89488 6.34999 7.26739 6.94695 7.26739 7.68332C7.26739 8.4197 7.89488 9.01666 8.66893 9.01666H10.4208C11.1949 9.01666 11.8224 8.4197 11.8224 7.68332C11.8224 6.94695 11.1949 6.34999 10.4208 6.34999H8.66893Z" fill="url(#paint1_linear_1534_2923)"/>
<path d="M31.5713 6.34999H15.5811C14.807 6.34999 14.1795 6.94695 14.1795 7.68332C14.1795 8.4197 14.807 9.01666 15.5811 9.01666H31.5713C32.3454 9.01666 32.9728 8.4197 32.9728 7.68332C32.9728 6.94695 32.3454 6.34999 31.5713 6.34999Z" fill="url(#paint2_linear_1534_2923)"/>
<path fill-rule="evenodd" clip-rule="evenodd" d="M3.29544 37.3014C1.08885 35.15 0 32.0771 0 28.407V12.593C0 8.92287 1.08885 5.85003 3.29544 3.6986C5.49706 1.55202 8.62965 0.5 12.3673 0.5H27.6327C31.3704 0.5 34.5029 1.55202 36.7046 3.6986C38.9112 5.85003 40 8.92287 40 12.593V28.407C40 32.0771 38.9112 35.15 36.7046 37.3014C34.5029 39.448 31.3704 40.5 27.6327 40.5H12.3673C8.62965 40.5 5.49706 39.448 3.29544 37.3014ZM37.3333 14.6833H2.66666L2.66665 28.407C2.66665 30.3734 3.02728 32.0135 3.68036 33.34C3.762 33.5059 3.8482 33.6668 3.93884 33.8228C3.98139 33.8961 4.02491 33.9683 4.0694 34.0394C4.38506 34.5439 4.74924 34.9945 5.15702 35.3921C5.35349 35.5836 5.5627 35.7654 5.78476 35.9369C7.33914 37.1375 9.52264 37.8333 12.3673 37.8333H27.6327C30.8837 37.8333 33.2712 36.9245 34.8429 35.3921C35.2507 34.9945 35.6149 34.5439 35.9306 34.0394C35.958 33.9956 35.985 33.9514 36.0116 33.9068C36.8584 32.4904 37.3333 30.6636 37.3333 28.407V14.6833ZM12.3673 3.16668C9.11628 3.16668 6.72878 4.07549 5.15703 5.60795C3.6587 7.06882 2.74899 9.24529 2.67198 12.1833H37.328C37.251 9.24529 36.3413 7.06882 34.843 5.60795C33.2712 4.07549 30.8837 3.16668 27.6327 3.16668H12.3673Z" fill="url(#paint3_linear_1534_2923)"/>
<defs>
<linearGradient id="paint0_linear_1534_2923" x1="0" y1="20.5" x2="40" y2="20.5" gradientUnits="userSpaceOnUse">
<stop offset="0.0625" stop-color="#C7863D"/>
<stop offset="0.5" stop-color="#FFCE6F"/>
<stop offset="0.9375" stop-color="#C7863D"/>
</linearGradient>
<linearGradient id="paint1_linear_1534_2923" x1="0" y1="20.5" x2="40" y2="20.5" gradientUnits="userSpaceOnUse">
<stop offset="0.0625" stop-color="#C7863D"/>
<stop offset="0.5" stop-color="#FFCE6F"/>
<stop offset="0.9375" stop-color="#C7863D"/>
</linearGradient>
<linearGradient id="paint2_linear_1534_2923" x1="0" y1="20.5" x2="40" y2="20.5" gradientUnits="userSpaceOnUse">
<stop offset="0.0625" stop-color="#C7863D"/>
<stop offset="0.5" stop-color="#FFCE6F"/>
<stop offset="0.9375" stop-color="#C7863D"/>
</linearGradient>
<linearGradient id="paint3_linear_1534_2923" x1="0" y1="20.5" x2="40" y2="20.5" gradientUnits="userSpaceOnUse">
<stop offset="0.0625" stop-color="#C7863D"/>
<stop offset="0.5" stop-color="#FFCE6F"/>
<stop offset="0.9375" stop-color="#C7863D"/>
</linearGradient>
</defs>
</svg>
