<svg width="33" height="32" viewBox="0 0 33 32" fill="none" xmlns="http://www.w3.org/2000/svg">
<g clip-path="url(#clip0_1885_28408)">
<path d="M13.7227 1.45801H20.4424C22.3259 1.458 23.8007 1.45851 24.9854 1.55469C26.1917 1.65265 27.1846 1.85522 28.082 2.30957C29.5608 3.05831 30.7636 4.25324 31.5176 5.72363C32.1538 6.96452 32.3074 8.41153 32.3545 10.3857C32.3748 11.2381 32.375 12.2207 32.375 13.3564V16.5527C32.3749 18.7345 30.5958 20.4979 28.4072 20.498H23.3691C20.2953 20.4979 17.7989 18.0214 17.7988 14.96C17.7988 11.8985 20.2953 9.42202 23.3691 9.42188H30.334L30.3252 9.28809C30.2451 8.03429 30.0768 7.25556 29.752 6.62207C29.1888 5.52402 28.2897 4.63034 27.1836 4.07031C26.6117 3.78089 25.9082 3.61146 24.8242 3.52344C23.7283 3.43447 22.3325 3.43359 20.3926 3.43359H13.752C11.8178 3.43359 10.1249 3.43396 8.73242 3.52441C7.30589 3.61707 6.35387 3.79836 5.81641 4.07031C4.71027 4.63034 3.81122 5.52402 3.24805 6.62207C2.95713 7.18941 2.78679 7.88797 2.69824 8.96484C2.60875 10.0533 2.60742 11.4395 2.60742 13.3672V16.5527C2.60742 18.4804 2.60874 19.8666 2.69824 20.9551C2.78678 22.0318 2.95721 22.7296 3.24805 23.2969C3.8112 24.3951 4.71013 25.2895 5.81641 25.8496C6.35388 26.1215 7.30594 26.3029 8.73242 26.3955C10.1249 26.486 11.8178 26.4863 13.752 26.4863H28.9854L28.7705 26.2725L27.249 24.7607C26.8614 24.3756 26.8608 23.7497 27.2471 23.3633C27.6335 22.9771 28.2607 22.9764 28.6484 23.3613L32.084 26.7744C32.2704 26.9597 32.3749 27.2114 32.375 27.4736C32.375 27.7361 32.2706 27.9884 32.084 28.1738L28.6484 31.5859C28.2607 31.9712 27.6336 31.9705 27.2471 31.584C26.8608 31.1976 26.8616 30.5726 27.249 30.1875L28.7705 28.6758L28.9854 28.4619H13.7227C11.8212 28.4619 10.0666 28.4612 8.60352 28.3662C7.16735 28.2729 5.85016 28.0823 4.91797 27.6104C3.43922 26.8616 2.23642 25.6667 1.48242 24.1963C1.02464 23.3035 0.820307 22.3157 0.72168 21.1162C0.624886 19.9388 0.624992 18.4736 0.625 16.6025V13.3174C0.624992 11.4463 0.624895 9.9811 0.72168 8.80371C0.820303 7.60428 1.02468 6.61638 1.48242 5.72363C2.23641 4.25324 3.43924 3.05831 4.91797 2.30957C5.85016 1.83761 7.16735 1.64602 8.60352 1.55273C10.0666 1.4577 11.8212 1.45801 13.7227 1.45801ZM23.3691 11.3975C21.3847 11.3976 19.7812 12.9953 19.7812 14.96C19.7813 16.9246 21.3847 18.5223 23.3691 18.5225H28.4072C29.5064 18.5223 30.3925 17.6377 30.3926 16.5527V13.3672C30.3926 12.6902 30.3927 12.0786 30.3887 11.5215L30.3877 11.3975H23.3691ZM23.3623 13.9473H24.5215C25.0807 13.9473 25.5342 14.4007 25.5342 14.96C25.5341 15.5192 25.0807 15.9727 24.5215 15.9727H23.3623C22.8031 15.9727 22.3496 15.5192 22.3496 14.96C22.3496 14.4007 22.803 13.9473 23.3623 13.9473ZM7.33301 7.12109H14.2178C14.7768 7.12128 15.2303 7.57479 15.2305 8.13379C15.2305 8.69294 14.7769 9.1463 14.2178 9.14648H7.33301C6.77396 9.14623 6.32129 8.69289 6.32129 8.13379C6.32146 7.57483 6.77407 7.12135 7.33301 7.12109Z" fill="url(#paint0_linear_1885_28408)" stroke="url(#paint1_linear_1885_28408)" stroke-width="0.25"/>
</g>
<defs>
<linearGradient id="paint0_linear_1885_28408" x1="32.5" y1="16.9155" x2="0.5" y2="16.9155" gradientUnits="userSpaceOnUse">
<stop stop-color="#025436"/>
<stop offset="1" stop-color="#053725"/>
</linearGradient>
<linearGradient id="paint1_linear_1885_28408" x1="32.5" y1="16.9155" x2="0.5" y2="16.9155" gradientUnits="userSpaceOnUse">
<stop stop-color="#025436"/>
<stop offset="1" stop-color="#053725"/>
</linearGradient>
<clipPath id="clip0_1885_28408">
<rect width="32" height="32" fill="white" transform="translate(0.5)"/>
</clipPath>
</defs>
</svg>
