<svg width="33" height="32" viewBox="0 0 33 32" fill="none" xmlns="http://www.w3.org/2000/svg">
<g clip-path="url(#clip0_1885_28405)">
<path d="M20.1055 17.4814C19.0159 18.2514 18.1089 19.2629 17.4619 20.4375C16.5205 20.8143 15.5234 21.0479 14.4697 21.1182C14.4366 21.1204 14.4032 21.1222 14.3701 21.124L14.0625 21.1416L14.2959 21.3438C14.3249 21.3689 14.353 21.3962 14.3799 21.4258H14.3809L15.8818 23.0752C16.0677 23.2796 16.1623 23.5515 16.1533 23.8066C16.1443 24.0604 16.0347 24.2903 15.8223 24.4277L15.8105 24.4355C15.1996 24.8335 14.4864 25.0615 13.7227 25.0615C12.9846 25.0633 12.2587 24.8451 11.6221 24.4297C11.4102 24.2898 11.3009 24.0591 11.292 23.8057C11.2831 23.5508 11.3768 23.2802 11.5615 23.0771L13.0635 21.4258C13.0943 21.3919 13.1266 21.361 13.1602 21.333L13.3965 21.1357L13.0898 21.1123C11.8069 21.0148 10.5971 20.66 9.45215 20.0938L8.96484 19.8379C8.82136 19.7581 8.67765 19.6773 8.53418 19.5967C8.27484 19.4509 8.01408 19.3046 7.75098 19.1621C7.66707 19.1166 7.53485 19.0549 7.40625 19.0605C6.39581 19.1037 5.47736 19.3806 4.73828 20.0322C4.1315 20.5676 3.70885 21.2085 3.40234 21.9004C2.62262 23.6589 2.43489 25.4963 2.4873 27.3438V27.3447C2.51798 28.4068 3.05128 29.2729 4.12891 29.8164C4.82828 30.1691 5.59349 30.2607 6.36621 30.2607H13.9326V30.2578C14.6756 30.258 15.4189 30.2592 16.1621 30.2607H16.167C16.9091 30.2623 17.6513 30.2625 18.3936 30.2627C18.8997 30.8738 19.4861 31.4161 20.1377 31.8721C18.2494 31.874 15.6308 31.8753 14.1045 31.875H6.37207C5.09515 31.875 3.87494 31.653 2.79785 30.9844C1.56839 30.2207 0.827733 29.1601 0.697266 27.8438C0.468194 25.5462 0.774707 23.2887 1.7666 21.1357C2.35826 19.8517 3.25119 18.7371 4.7168 18.0547C5.63322 17.6276 6.64255 17.493 7.66113 17.5107H7.66309L7.78418 17.5215C8.06827 17.5604 8.35381 17.6855 8.59766 17.8018C8.89115 17.9415 9.17035 18.1026 9.44727 18.2617H9.44824L9.45117 18.2637C9.61635 18.3586 9.78114 18.4529 9.94824 18.543C12.5516 19.9457 15.1491 19.942 17.7471 18.5312C17.8148 18.4945 17.8833 18.4582 17.9512 18.4219C18.2147 18.2807 18.4758 18.1408 18.7217 17.9844L18.7236 17.9834C19.1517 17.7012 19.6201 17.5379 20.1055 17.4814ZM25.1592 17.458C29.1356 17.4552 32.3713 20.6838 32.375 24.6592C32.3785 28.6336 29.1462 31.8732 25.1738 31.875C21.1985 31.8767 17.9599 28.6442 17.958 24.6738C17.9562 20.6974 21.1858 17.4608 25.1592 17.458ZM25.1719 19.208C22.1695 19.207 19.7164 21.6454 19.708 24.6416C19.6989 27.6615 22.148 30.123 25.1621 30.125C28.1635 30.1268 30.6168 27.6866 30.625 24.6904C30.6331 21.6697 28.1879 19.2101 25.1719 19.208ZM25.167 20.792C25.7003 20.7922 26.1328 21.2245 26.1328 21.7578V23.7012H28.0762C28.6094 23.7014 29.042 24.1337 29.042 24.667C29.0418 25.2002 28.6093 25.6326 28.0762 25.6328H26.1328V27.5762C26.1326 28.1093 25.7002 28.5418 25.167 28.542C24.6337 28.542 24.2014 28.1094 24.2012 27.5762V25.6328H22.2578C21.7245 25.6328 21.2922 25.2003 21.292 24.667C21.292 24.1335 21.7244 23.7012 22.2578 23.7012H24.2012V21.7578C24.2012 21.2244 24.6335 20.792 25.167 20.792ZM13.832 0.125C17.9966 0.125 21.3739 3.5021 21.375 7.66699C21.375 11.8309 17.9977 15.208 13.832 15.208C9.66751 15.2078 6.29199 11.8309 6.29199 7.66699C6.29209 3.50219 9.66758 0.125164 13.832 0.125ZM13.4697 4.30957C11.3141 3.9761 9.12855 5.13051 8.24805 7.2334C7.21127 9.70947 8.37763 12.5563 10.8535 13.5938V13.5947C10.8792 13.6061 10.9045 13.6151 10.9248 13.6221C10.9417 13.6279 10.9564 13.6329 10.9707 13.6387L11.2676 13.7578L11.1299 13.4688C10.5654 12.2853 10.7238 10.9535 10.9209 9.91406L11.0059 9.48828C11.0075 9.48029 11.012 9.45696 11.0068 9.42969C11.004 9.41471 10.9961 9.38956 10.9746 9.36621C10.9504 9.34009 10.9186 9.32734 10.8896 9.3252C10.8456 9.32208 10.8139 9.34269 10.8076 9.34668C10.796 9.35405 10.7856 9.36237 10.7793 9.36816C10.7554 9.39004 10.7257 9.42588 10.6953 9.46387C10.631 9.54434 10.5393 9.66847 10.4375 9.80566C10.2646 10.0388 10.0593 10.3146 9.89062 10.5137C9.82556 10.5904 9.76753 10.6502 9.72266 10.6924C9.50577 10.1296 9.39806 9.68755 9.40234 9.24023C9.40699 8.76398 9.53644 8.26992 9.8125 7.60938C10.4878 5.99605 11.8898 4.90625 13.4775 4.55469L13.4697 4.30957ZM16.8467 3.06055C15.2204 0.923287 12.1694 0.510747 10.0322 2.13672L10.0312 2.1377C10.0106 2.15372 9.99118 2.17066 9.97559 2.18457C9.96172 2.19693 9.94943 2.20808 9.9375 2.21777L9.69531 2.41504L10.0068 2.43945C11.4995 2.55673 12.6899 3.58789 13.5137 4.32129C13.5199 4.32682 13.5374 4.34251 13.5635 4.35156C13.5777 4.35652 13.6033 4.36297 13.6338 4.35645C13.6676 4.34913 13.694 4.3285 13.7109 4.30469C13.7371 4.26785 13.7356 4.22919 13.7354 4.22168C13.7349 4.20774 13.7323 4.19503 13.7305 4.18652C13.7236 4.15432 13.7074 4.10944 13.6895 4.06348C13.6518 3.96679 13.5907 3.82457 13.5225 3.66699C13.4072 3.40087 13.2709 3.08633 13.1836 2.8418C13.1501 2.74784 13.1271 2.66877 13.1133 2.60938C13.7093 2.70249 14.1466 2.82922 14.5322 3.05664C14.891 3.26832 15.2138 3.56988 15.5791 4.02344L15.7383 4.22754C16.7991 5.62029 17.042 7.37783 16.5527 8.93066L16.7207 9.02051C16.7175 9.02281 16.7132 9.02456 16.71 9.02734C16.6985 9.03719 16.6805 9.05646 16.6709 9.08594C16.6603 9.11893 16.6645 9.15209 16.6768 9.17871C16.696 9.22044 16.7315 9.23813 16.7373 9.24121C16.7496 9.24773 16.7614 9.25226 16.7695 9.25488C16.8006 9.26487 16.8472 9.27291 16.8955 9.28027C16.9973 9.29576 17.1498 9.31354 17.3193 9.33301C17.6076 9.36612 17.9494 9.40542 18.2061 9.45215C18.3048 9.47013 18.3855 9.48902 18.4443 9.50684C18.0645 9.97688 17.7367 10.2932 17.3467 10.5137C16.9321 10.748 16.4395 10.8826 15.7295 10.9736C13.9924 11.195 12.3494 10.5262 11.251 9.3252L11.043 9.45508C11.834 11.4875 13.9247 12.804 16.1865 12.5156C18.767 12.1855 20.6157 9.8893 20.418 7.32324L20.3926 7.07422C20.3896 7.04759 20.3847 7.02208 20.3809 7.00293C20.3771 6.9842 20.3737 6.97001 20.3721 6.95703L20.3311 6.63281L20.1455 6.90234C19.3136 8.11366 17.8627 8.63102 16.8193 8.97852C18.0923 7.33283 18.2042 5.00386 16.9717 3.23242L16.8467 3.06055Z" fill="url(#paint0_linear_1885_28405)" stroke="url(#paint1_linear_1885_28405)" stroke-width="0.25"/>
</g>
<defs>
<linearGradient id="paint0_linear_1885_28405" x1="32.5" y1="16.26" x2="0.5" y2="16.26" gradientUnits="userSpaceOnUse">
<stop stop-color="#025436"/>
<stop offset="1" stop-color="#053725"/>
</linearGradient>
<linearGradient id="paint1_linear_1885_28405" x1="32.5" y1="16.26" x2="0.5" y2="16.26" gradientUnits="userSpaceOnUse">
<stop stop-color="#025436"/>
<stop offset="1" stop-color="#053725"/>
</linearGradient>
<clipPath id="clip0_1885_28405">
<rect width="32" height="32" fill="white" transform="translate(0.5)"/>
</clipPath>
</defs>
</svg>
