<svg width="33" height="32" viewBox="0 0 33 32" fill="none" xmlns="http://www.w3.org/2000/svg">
<g clip-path="url(#clip0_1885_28411)">
<path d="M28.9785 22.2646L29.2021 22.3408C31.1885 23.0106 32.6248 24.8902 32.625 27.1016C32.625 29.8717 30.3718 32.125 27.6016 32.125H5.39844C2.62823 32.125 0.375 29.8717 0.375 27.1016C0.375207 24.8903 1.81235 23.0093 3.79883 22.3408L4.02246 22.2646L4.1084 22.2363L4.16309 22.3086L4.30469 22.498C4.58511 22.8723 4.88168 23.2335 5.19434 23.5791L5.5957 24.0225L5.74902 24.1924L5.52344 24.2295L4.93359 24.3281C3.60276 24.55 2.58617 25.7096 2.58594 27.1016C2.58594 28.6532 3.84886 29.916 5.39941 29.916H27.6016C29.1521 29.916 30.416 28.6532 30.416 27.1016C30.4158 25.7096 29.3973 24.5499 28.0674 24.3281L27.4795 24.2295L27.2539 24.1924L27.4072 24.0225L27.8057 23.5801C28.1181 23.2334 28.417 22.8721 28.6973 22.498L28.8389 22.3086L28.8926 22.2363L28.9785 22.2646ZM16.5 -0.125C23.9513 -0.125 30.0127 5.9364 30.0127 13.3877C30.0127 20.839 23.9513 26.9004 16.5 26.9004C9.04865 26.9004 2.9873 20.839 2.9873 13.3877C2.98734 5.9364 9.04867 -0.125 16.5 -0.125ZM16.5 2.08398C10.2684 2.08398 5.19632 7.15483 5.19629 13.3877C5.19629 19.6206 10.2684 24.6914 16.5 24.6914C22.7316 24.6914 27.8037 19.6206 27.8037 13.3877C27.8037 7.15483 22.7316 2.08398 16.5 2.08398ZM17.6045 3.79297V6.40527H18.459C20.508 6.40527 22.1756 8.07163 22.1758 10.1221V11.2266H19.9668V10.1221C19.9666 9.29145 19.2896 8.61523 18.459 8.61523H14.541C13.7104 8.61523 13.0334 9.29144 13.0332 10.1221C13.0332 11.0429 13.6921 11.8172 14.6035 11.9648L18.7471 12.6299H18.748C20.7337 12.95 22.1758 14.6437 22.1758 16.6533C22.1756 18.7038 20.508 20.3701 18.459 20.3701H17.6045V22.9824H15.3955V20.3701H14.541C12.492 20.3701 10.8244 18.7038 10.8242 16.6533V15.5488H13.0332V16.6533C13.0333 17.484 13.7103 18.1611 14.541 18.1611H18.459C19.2897 18.1611 19.9667 17.484 19.9668 16.6533C19.9668 15.7325 19.3079 14.9582 18.3965 14.8105L14.2529 14.1455H14.252C12.2663 13.8253 10.8242 12.1317 10.8242 10.1221C10.8244 8.07163 12.492 6.40527 14.541 6.40527H15.3955V3.79297H17.6045Z" fill="url(#paint0_linear_1885_28411)" stroke="url(#paint1_linear_1885_28411)" stroke-width="0.25"/>
</g>
<defs>
<linearGradient id="paint0_linear_1885_28411" x1="32.5" y1="16.26" x2="0.5" y2="16.26" gradientUnits="userSpaceOnUse">
<stop stop-color="#025436"/>
<stop offset="1" stop-color="#053725"/>
</linearGradient>
<linearGradient id="paint1_linear_1885_28411" x1="32.5" y1="16.26" x2="0.5" y2="16.26" gradientUnits="userSpaceOnUse">
<stop stop-color="#025436"/>
<stop offset="1" stop-color="#053725"/>
</linearGradient>
<clipPath id="clip0_1885_28411">
<rect width="32" height="32" fill="white" transform="translate(0.5)"/>
</clipPath>
</defs>
</svg>
