<svg width="184" height="191" viewBox="0 0 184 191" fill="none" xmlns="http://www.w3.org/2000/svg">
<path d="M146.294 188.244H37.7066C36.0414 188.244 34.6914 186.894 34.6914 185.229V73.627H149.309V185.229C149.309 186.894 147.959 188.244 146.294 188.244Z" stroke="#115231" stroke-width="4" stroke-miterlimit="10" stroke-linecap="round" stroke-linejoin="round"/>
<path d="M34.6914 73.627L2 106.047" stroke="#115231" stroke-width="4" stroke-miterlimit="10" stroke-linecap="round" stroke-linejoin="round"/>
<path d="M149.309 73.627L182 106.047" stroke="#115231" stroke-width="4" stroke-miterlimit="10" stroke-linecap="round" stroke-linejoin="round"/>
<path d="M58.0938 164.706H74.5942" stroke="#115231" stroke-width="4" stroke-miterlimit="10" stroke-linecap="round" stroke-linejoin="round"/>
<path d="M58.0938 141.6H82.296" stroke="#115231" stroke-width="4" stroke-miterlimit="10" stroke-linecap="round" stroke-linejoin="round"/>
<path d="M92.2086 73.6271C111.778 73.6271 127.643 57.7627 127.643 38.1929C127.643 18.6232 111.778 2.75879 92.2086 2.75879C72.6388 2.75879 56.7744 18.6232 56.7744 38.1929C56.7744 57.7627 72.6388 73.6271 92.2086 73.6271Z" stroke="#115231" stroke-width="4" stroke-miterlimit="10" stroke-linecap="round" stroke-linejoin="round"/>
<path d="M103.844 27.5596L80.75 50.6534" stroke="#115231" stroke-width="4" stroke-miterlimit="10" stroke-linecap="round" stroke-linejoin="round"/>
<ellipse cx="105.109" cy="51.8429" rx="5.7726" ry="5.7726" stroke="#115231" stroke-width="4" stroke-miterlimit="10" stroke-linecap="round" stroke-linejoin="round"/>
<ellipse cx="80.4083" cy="27.1837" rx="5.7726" ry="5.7726" stroke="#115231" stroke-width="4" stroke-miterlimit="10" stroke-linecap="round" stroke-linejoin="round"/>
</svg>
