<svg width="49" height="49" viewBox="0 0 49 49" fill="none" xmlns="http://www.w3.org/2000/svg">
<g clip-path="url(#clip0_1885_27240)">
<path d="M43.533 40.0516C43.533 39.1404 44.2717 38.4016 45.183 38.4016C46.0943 38.4016 46.833 39.1404 46.833 40.0516V44.6088C46.833 45.52 46.0943 46.2588 45.183 46.2588C44.2717 46.2588 43.533 45.52 43.533 44.6088V40.0516Z" fill="url(#paint0_linear_1885_27240)"/>
<path d="M37.4044 32.1945C37.4044 31.2832 38.1432 30.5445 39.0544 30.5445C39.9657 30.5445 40.7044 31.2832 40.7044 32.1945V44.6088C40.7044 45.52 39.9657 46.2588 39.0544 46.2588C38.1432 46.2588 37.4044 45.52 37.4044 44.6088V32.1945Z" fill="url(#paint1_linear_1885_27240)"/>
<path d="M31.1187 40.0516C31.1187 39.1404 31.8574 38.4016 32.7687 38.4016C33.68 38.4016 34.4187 39.1404 34.4187 40.0516V44.6088C34.4187 45.52 33.68 46.2588 32.7687 46.2588C31.8574 46.2588 31.1187 45.52 31.1187 44.6088V40.0516Z" fill="url(#paint2_linear_1885_27240)"/>
<path d="M18.737 2.25879C13.2022 2.25879 9.2153 3.44057 6.61504 6.04082C4.01479 8.64108 2.83301 12.628 2.83301 18.1628V30.3548C2.83301 35.8896 4.01479 39.8765 6.61504 42.4768C9.2153 45.077 13.2022 46.2588 18.737 46.2588H26.865C27.7843 46.2588 28.545 45.4981 28.545 44.5788C28.545 43.6595 27.7843 42.8987 26.865 42.8987H18.737C14.0643 42.8987 10.9432 42.0659 8.98454 40.1073C7.02584 38.1486 6.19306 35.0275 6.19306 30.3548V18.1628C6.19306 13.4901 7.02584 10.369 8.98454 8.41032C10.9432 6.45163 14.0643 5.61885 18.737 5.61885H30.929C35.6017 5.61885 38.7228 6.45163 40.6815 8.41032C42.6402 10.369 43.473 13.4901 43.473 18.1628V26.2908C43.473 27.2101 44.2337 27.9708 45.153 27.9708C46.0723 27.9708 46.833 27.2101 46.833 26.2908V18.1628C46.833 12.628 45.6512 8.64108 43.051 6.04082C40.4507 3.44057 36.4638 2.25879 30.929 2.25879H18.737Z" fill="url(#paint3_linear_1885_27240)"/>
<path d="M36.9471 14.8331L27.4829 14.8302L27.477 14.8302C27.3804 14.8317 27.2886 14.8632 27.2131 14.9175C27.138 14.9716 27.0831 15.0451 27.0514 15.1263C27.0198 15.2076 27.0119 15.2954 27.0274 15.3799C27.043 15.4646 27.0822 15.5457 27.1437 15.612L29.8882 18.5168L24.7194 23.9819L22.2424 21.3575L22.2396 21.3546C22.155 21.2668 22.0357 21.2127 21.9058 21.2127C21.7759 21.2127 21.6566 21.2667 21.5719 21.3546L12.3871 31.149L12.3855 31.1507C12.3036 31.2392 12.2616 31.3532 12.2616 31.4673C12.2616 31.5813 12.3036 31.6954 12.3855 31.7838L14.0533 33.5431L14.0555 33.5454C14.1401 33.6332 14.2595 33.6873 14.3893 33.6873C14.5192 33.6873 14.6386 33.6332 14.7232 33.5454L21.914 25.932L24.3854 28.5503L24.3881 28.5532C24.4728 28.641 24.5922 28.6951 24.722 28.6951C24.8519 28.6951 24.9712 28.641 25.0559 28.5532L25.0585 28.5504L37.2779 15.6177L37.2804 15.615C37.3419 15.5486 37.3811 15.4675 37.3967 15.3829C37.4123 15.2982 37.4042 15.2104 37.3727 15.1293C37.3411 15.0481 37.2862 14.9746 37.211 14.9204C37.1355 14.8661 37.0437 14.8346 36.9471 14.8331Z" fill="url(#paint4_linear_1885_27240)"/>
</g>
<defs>
<linearGradient id="paint0_linear_1885_27240" x1="46.833" y1="24.6163" x2="2.83301" y2="24.6163" gradientUnits="userSpaceOnUse">
<stop stop-color="#025436"/>
<stop offset="1" stop-color="#053725"/>
</linearGradient>
<linearGradient id="paint1_linear_1885_27240" x1="46.833" y1="24.6163" x2="2.83301" y2="24.6163" gradientUnits="userSpaceOnUse">
<stop stop-color="#025436"/>
<stop offset="1" stop-color="#053725"/>
</linearGradient>
<linearGradient id="paint2_linear_1885_27240" x1="46.833" y1="24.6163" x2="2.83301" y2="24.6163" gradientUnits="userSpaceOnUse">
<stop stop-color="#025436"/>
<stop offset="1" stop-color="#053725"/>
</linearGradient>
<linearGradient id="paint3_linear_1885_27240" x1="46.833" y1="24.6163" x2="2.83301" y2="24.6163" gradientUnits="userSpaceOnUse">
<stop stop-color="#025436"/>
<stop offset="1" stop-color="#053725"/>
</linearGradient>
<linearGradient id="paint4_linear_1885_27240" x1="46.833" y1="24.6163" x2="2.83301" y2="24.6163" gradientUnits="userSpaceOnUse">
<stop stop-color="#025436"/>
<stop offset="1" stop-color="#053725"/>
</linearGradient>
<clipPath id="clip0_1885_27240">
<rect width="48" height="48" fill="white" transform="translate(0.833008 0.258789)"/>
</clipPath>
</defs>
</svg>
