<svg width="173" height="184" viewBox="0 0 173 184" fill="none" xmlns="http://www.w3.org/2000/svg">
<path d="M74.5371 36.0761V35.6822C74.5371 29.1105 79.8644 23.7832 86.4362 23.7832C93.0079 23.7832 98.3353 29.1105 98.3353 35.6822V36.0686C98.3353 42.6404 93.0079 47.9677 86.4362 47.9677H85.7397V62.3144" stroke="#115231" stroke-width="4" stroke-miterlimit="10"/>
<ellipse cx="85.7729" cy="74.8666" rx="5.55703" ry="5.55701" stroke="#115231" stroke-width="4" stroke-miterlimit="10" stroke-linecap="round"/>
<path d="M39.5407 137.76L37.1027 147.285L16.3594 156.381C11.4148 158.63 8.24023 163.561 8.24023 168.994V181.758H86.435V168.994C86.435 163.561 82.8178 158.631 77.8728 156.381L56.759 147.285L54.0005 137.464" stroke="#115231" stroke-width="4" stroke-miterlimit="10"/>
<path d="M61.4446 121.124L60.7544 127.085C59.9528 134.01 54.0882 139.235 47.1168 139.235C40.1453 139.235 34.2808 134.01 33.4791 127.085L32.7889 121.124C31.7975 112.558 38.4937 105.042 47.1168 105.042C55.7398 105.042 62.436 112.558 61.4446 121.124Z" stroke="#115231" stroke-width="4" stroke-miterlimit="10"/>
<path d="M60.4672 148.881L47.117 162.231L33.6738 148.788" stroke="#115231" stroke-width="4" stroke-miterlimit="10"/>
<path d="M118.726 137.072L115.387 147.441L94.9978 156.382C90.0528 158.631 86.4355 163.562 86.4355 168.994V181.759H164.63V168.994C164.63 163.562 161.456 158.631 156.511 156.382L136.088 147.583L132.851 136.811" stroke="#115231" stroke-width="4" stroke-miterlimit="10"/>
<path d="M140.081 121.124L139.391 127.085C138.589 134.01 132.725 139.235 125.753 139.235C118.782 139.235 112.917 134.01 112.116 127.085L111.426 121.124C110.434 112.558 117.13 105.042 125.753 105.042C134.377 105.042 141.073 112.558 140.081 121.124Z" stroke="#115231" stroke-width="4" stroke-miterlimit="10"/>
<path d="M136.088 147.582V151.405C136.088 157.122 131.453 161.756 125.737 161.756C120.02 161.756 115.386 157.122 115.386 151.405V146.838" stroke="#115231" stroke-width="4" stroke-miterlimit="10"/>
<path d="M86.4359 94.2387C111.554 94.2387 131.916 73.8768 131.916 48.759C131.916 23.6413 111.554 3.2793 86.4359 3.2793C61.3181 3.2793 40.9561 23.6413 40.9561 48.759C40.9561 73.8768 61.3181 94.2387 86.4359 94.2387Z" stroke="#115231" stroke-width="4" stroke-miterlimit="10"/>
<path d="M22.2377 43.0488H0" stroke="#115231" stroke-width="4" stroke-miterlimit="10"/>
<path d="M28.4989 17.4833L12.7744 1.75879" stroke="#115231" stroke-width="4" stroke-miterlimit="10"/>
<path d="M150.634 43.0488H172.872" stroke="#115231" stroke-width="4" stroke-miterlimit="10"/>
<path d="M144.373 17.4833L160.098 1.75879" stroke="#115231" stroke-width="4" stroke-miterlimit="10"/>
</svg>
