<svg width="49" height="49" viewBox="0 0 49 49" fill="none" xmlns="http://www.w3.org/2000/svg">
<g clip-path="url(#clip0_1885_27244)">
<path d="M38.5411 27.7977C39.8879 25.4263 41.1919 23.1316 42.5215 20.7898C43.8546 23.1371 45.1578 25.4328 46.5 27.7977C45.6364 27.7977 44.8554 27.8106 44.0753 27.7903C43.8046 27.7829 43.7147 27.8835 43.6621 28.1375C42.3925 34.2395 39.0796 38.827 33.7243 41.8568C26.4402 45.978 16.9574 44.6889 10.9283 38.8122C8.86684 36.8029 7.2885 34.4685 6.20237 31.7859C6.05162 31.4147 5.91358 31.0416 6.01711 30.6261C6.16786 30.0222 6.64009 29.5946 7.22584 29.5429C7.89241 29.4848 8.43366 29.8153 8.68703 30.471C9.14654 31.6631 9.70777 32.8026 10.4279 33.8525C13.3558 38.1206 17.3379 40.7265 22.4371 41.2686C29.0747 41.974 34.3773 39.4429 38.2923 33.9569C39.5301 32.2218 40.3165 30.2595 40.8123 28.1753C40.8904 27.8475 40.7915 27.7829 40.4918 27.7912C39.8715 27.8106 39.2513 27.7977 38.5411 27.7977Z" fill="url(#paint0_linear_1885_27244)"/>
<path d="M10.4598 20.7935C9.11486 23.1611 7.81623 25.4466 6.48036 27.8004C5.1454 25.4494 3.84313 23.1584 2.5 20.7935C3.36 20.7935 4.13919 20.7815 4.91837 20.7999C5.18263 20.8064 5.28435 20.7205 5.33883 20.4601C6.6075 14.336 9.89132 9.65146 15.3247 6.73437C21.728 3.29646 28.2102 3.46268 34.5172 7.08711C38.3841 9.30979 41.0922 12.6378 42.8049 16.8043C43.0764 17.4655 43.1427 18.0888 42.6133 18.6428C41.9022 19.3862 40.7071 19.1138 40.3148 18.1156C39.8644 16.9696 39.3322 15.8689 38.6456 14.8503C35.7096 10.4955 31.6811 7.90711 26.5157 7.30227C17.9919 6.30405 10.2382 11.8658 8.21218 20.3373C8.12136 20.7187 8.18493 20.8184 8.56726 20.8009C9.16844 20.7722 9.77235 20.7935 10.4598 20.7935Z" fill="url(#paint1_linear_1885_27244)"/>
<path d="M36.2957 16.2131L27.7936 15.2664L27.7884 15.2659C27.7014 15.2577 27.6156 15.2804 27.5422 15.3278C27.469 15.375 27.412 15.4439 27.3751 15.5229C27.3382 15.6019 27.3219 15.6899 27.327 15.7769C27.3322 15.8641 27.3589 15.95 27.4072 16.0232L29.5692 19.2343L24.3545 24.2455L22.4035 21.3446L22.4013 21.3414C22.3345 21.2442 22.2329 21.1775 22.1162 21.1646C21.9996 21.1516 21.8867 21.1944 21.8014 21.2748L12.5265 30.2636C12.4436 30.3448 12.3923 30.4575 12.3804 30.5729C12.3685 30.6882 12.3943 30.8077 12.4587 30.9054L13.7731 32.8507L13.7748 32.8533C13.8417 32.9505 13.9432 33.0172 14.0599 33.0301C14.1766 33.0431 14.2894 33.0002 14.3747 32.9199L21.6304 25.9378L23.5769 28.832L23.5791 28.8352C23.646 28.9325 23.7475 28.9991 23.8642 29.012C23.9809 29.025 24.0937 28.9821 24.1789 28.9018L24.1816 28.8992L36.5108 17.0394L36.5134 17.0369C36.5756 16.9759 36.6193 16.8978 36.6421 16.8138C36.6649 16.7298 36.6669 16.6401 36.647 16.555C36.6271 16.4698 36.5855 16.3899 36.5236 16.3277C36.4615 16.2652 36.3823 16.2242 36.2957 16.2131Z" fill="url(#paint2_linear_1885_27244)"/>
</g>
<defs>
<linearGradient id="paint0_linear_1885_27244" x1="46.5" y1="24.5838" x2="2.5" y2="24.5838" gradientUnits="userSpaceOnUse">
<stop stop-color="#025436"/>
<stop offset="1" stop-color="#053725"/>
</linearGradient>
<linearGradient id="paint1_linear_1885_27244" x1="46.5" y1="24.5838" x2="2.5" y2="24.5838" gradientUnits="userSpaceOnUse">
<stop stop-color="#025436"/>
<stop offset="1" stop-color="#053725"/>
</linearGradient>
<linearGradient id="paint2_linear_1885_27244" x1="46.5" y1="24.5838" x2="2.5" y2="24.5838" gradientUnits="userSpaceOnUse">
<stop stop-color="#025436"/>
<stop offset="1" stop-color="#053725"/>
</linearGradient>
<clipPath id="clip0_1885_27244">
<rect width="48" height="48" fill="white" transform="translate(0.5 0.258789)"/>
</clipPath>
</defs>
</svg>
