<svg width="49" height="49" viewBox="0 0 49 49" fill="none" xmlns="http://www.w3.org/2000/svg">
<g clip-path="url(#clip0_1885_27248)">
<path fill-rule="evenodd" clip-rule="evenodd" d="M22.4778 3.8599V18.2348C22.4778 18.5284 22.3333 18.7052 22.0445 18.7652C13.6494 20.4732 14.9583 32.3669 23.534 31.9893C26.7115 31.8515 28.7967 29.9816 29.7897 26.3796C29.8619 26.0979 30.0454 25.9571 30.3403 25.9571C31.659 25.9545 32.9977 25.9312 34.344 25.9078C37.6149 25.851 40.931 25.7934 44.1155 26.029C45.4636 26.1309 46.1466 25.5585 46.1647 24.3119C46.3001 12.2834 36.1898 2.6103 24.1388 2.2597C23.9232 2.25246 23.7085 2.2885 23.5072 2.36567C23.306 2.44284 23.1224 2.55956 22.9674 2.70888C22.8124 2.8582 22.6892 3.03706 22.6051 3.23481C22.521 3.43255 22.4777 3.64514 22.4778 3.8599ZM26.2421 5.72979C35.1517 6.71868 41.5248 13.6319 42.7254 22.2532C42.7735 22.5649 42.6351 22.7207 42.3101 22.7207L30.1778 22.7297C29.895 22.7297 29.6543 22.6278 29.4557 22.4241L26.0344 18.9899C25.8057 18.7622 25.6914 18.4865 25.6914 18.1628L25.7185 6.19727C25.7185 5.84367 25.893 5.68784 26.2421 5.72979ZM26.5129 25.3638C26.5129 27.2554 24.973 28.7889 23.0736 28.7889C21.1741 28.7889 19.6343 27.2554 19.6343 25.3638C19.6343 23.4721 21.1741 21.9386 23.0736 21.9386C24.973 21.9386 26.5129 23.4721 26.5129 25.3638Z" fill="url(#paint0_linear_1885_27248)"/>
<path d="M2.23926 23.7995C0.460934 46.7507 31.559 55.1473 41.9671 34.4705C42.5689 33.2719 42.9691 32.1961 43.1677 31.2431C43.2009 31.0901 43.1837 30.9306 43.1187 30.7881C43.0536 30.6456 42.9442 30.5277 42.8066 30.452L41.8588 29.9216C41.7183 29.8426 41.5624 29.7944 41.4014 29.7805C41.2405 29.7665 41.0782 29.787 40.9254 29.8405C40.7726 29.8941 40.6327 29.9795 40.515 30.0912C40.3974 30.2028 40.3046 30.3381 40.243 30.488C35.2962 42.6154 22.4598 47.2002 11.9613 39.1363C0.343572 30.2093 4.72168 12.688 18.2802 8.211C18.4792 8.14513 18.6625 8.03937 18.8188 7.90022C18.9752 7.76107 19.1012 7.5915 19.1892 7.40196C19.2771 7.21242 19.3252 7.00694 19.3303 6.7982C19.3355 6.58945 19.2976 6.38187 19.2191 6.18827C18.8098 5.1814 18.0034 4.90871 16.7998 5.37019C7.77882 8.86427 2.92531 15.0074 2.23926 23.7995Z" fill="url(#paint1_linear_1885_27248)"/>
</g>
<defs>
<linearGradient id="paint0_linear_1885_27248" x1="46.166" y1="24.6163" x2="2.16602" y2="24.6163" gradientUnits="userSpaceOnUse">
<stop stop-color="#025436"/>
<stop offset="1" stop-color="#053725"/>
</linearGradient>
<linearGradient id="paint1_linear_1885_27248" x1="46.166" y1="24.6163" x2="2.16602" y2="24.6163" gradientUnits="userSpaceOnUse">
<stop stop-color="#025436"/>
<stop offset="1" stop-color="#053725"/>
</linearGradient>
<clipPath id="clip0_1885_27248">
<rect width="48" height="48" fill="white" transform="translate(0.166016 0.258789)"/>
</clipPath>
</defs>
</svg>
