<svg width="219" height="220" viewBox="0 0 219 220" fill="none" xmlns="http://www.w3.org/2000/svg">
<path d="M109.413 101.13C117.05 101.13 123.242 94.9381 123.242 87.3006C123.242 79.6631 117.05 73.4717 109.413 73.4717C101.775 73.4717 95.584 79.6631 95.584 87.3006C95.584 94.9381 101.775 101.13 109.413 101.13Z" stroke="#115231" stroke-width="4" stroke-miterlimit="10"/>
<path d="M109.413 101.131V144.847H123.242" stroke="#115231" stroke-width="4" stroke-miterlimit="10"/>
<path d="M109.517 121.201H123.243" stroke="#115231" stroke-width="4" stroke-miterlimit="10"/>
<path d="M109.512 25.6895V48.3912" stroke="#115231" stroke-width="4" stroke-miterlimit="10"/>
<path d="M49.7031 50.4619L65.7559 66.5146" stroke="#115231" stroke-width="4" stroke-miterlimit="10"/>
<path d="M24.9297 110.271H47.6315" stroke="#115231" stroke-width="4" stroke-miterlimit="10"/>
<path d="M49.7031 170.078L65.7559 154.025" stroke="#115231" stroke-width="4" stroke-miterlimit="10"/>
<path d="M109.512 194.851V172.149" stroke="#115231" stroke-width="4" stroke-miterlimit="10"/>
<path d="M169.319 170.078L153.267 154.025" stroke="#115231" stroke-width="4" stroke-miterlimit="10"/>
<path d="M194.092 110.271H171.391" stroke="#115231" stroke-width="4" stroke-miterlimit="10"/>
<path d="M169.319 50.4619L153.267 66.5146" stroke="#115231" stroke-width="4" stroke-miterlimit="10"/>
<path d="M109.501 25.688C115.833 25.688 120.965 20.5551 120.965 14.2234C120.965 7.89168 115.833 2.75879 109.501 2.75879C103.169 2.75879 98.0361 7.89168 98.0361 14.2234C98.0361 20.5551 103.169 25.688 109.501 25.688Z" stroke="#115231" stroke-width="4" stroke-miterlimit="10"/>
<path d="M109.501 217.759C115.833 217.759 120.965 212.626 120.965 206.295C120.965 199.963 115.833 194.83 109.501 194.83C103.169 194.83 98.0361 199.963 98.0361 206.295C98.0361 212.626 103.169 217.759 109.501 217.759Z" stroke="#115231" stroke-width="4" stroke-miterlimit="10"/>
<path d="M205.536 121.725C211.868 121.725 217.001 116.592 217.001 110.261C217.001 103.929 211.868 98.7959 205.536 98.7959C199.204 98.7959 194.071 103.929 194.071 110.261C194.071 116.592 199.204 121.725 205.536 121.725Z" stroke="#115231" stroke-width="4" stroke-miterlimit="10"/>
<path d="M13.4646 121.725C19.7964 121.725 24.9293 116.592 24.9293 110.261C24.9293 103.929 19.7964 98.7959 13.4646 98.7959C7.1329 98.7959 2 103.929 2 110.261C2 116.592 7.1329 121.725 13.4646 121.725Z" stroke="#115231" stroke-width="4" stroke-miterlimit="10"/>
<path d="M177.408 53.816C183.74 53.816 188.873 48.6831 188.873 42.3513C188.873 36.0196 183.74 30.8867 177.408 30.8867C171.076 30.8867 165.943 36.0196 165.943 42.3513C165.943 48.6831 171.076 53.816 177.408 53.816Z" stroke="#115231" stroke-width="4" stroke-miterlimit="10"/>
<path d="M41.5935 189.631C47.9253 189.631 53.0582 184.499 53.0582 178.167C53.0582 171.835 47.9253 166.702 41.5935 166.702C35.2618 166.702 30.1289 171.835 30.1289 178.167C30.1289 184.499 35.2618 189.631 41.5935 189.631Z" stroke="#115231" stroke-width="4" stroke-miterlimit="10"/>
<path d="M177.408 189.631C183.74 189.631 188.873 184.499 188.873 178.167C188.873 171.835 183.74 166.702 177.408 166.702C171.076 166.702 165.943 171.835 165.943 178.167C165.943 184.499 171.076 189.631 177.408 189.631Z" stroke="#115231" stroke-width="4" stroke-miterlimit="10"/>
<path d="M41.5935 53.816C47.9253 53.816 53.0582 48.6831 53.0582 42.3513C53.0582 36.0196 47.9253 30.8867 41.5935 30.8867C35.2618 30.8867 30.1289 36.0196 30.1289 42.3513C30.1289 48.6831 35.2618 53.816 41.5935 53.816Z" stroke="#115231" stroke-width="4" stroke-miterlimit="10"/>
<path d="M109.511 172.15C143.686 172.15 171.39 144.445 171.39 110.27C171.39 76.095 143.686 48.3906 109.511 48.3906C75.3353 48.3906 47.6309 76.095 47.6309 110.27C47.6309 144.445 75.3353 172.15 109.511 172.15Z" stroke="#115231" stroke-width="4" stroke-miterlimit="10"/>
</svg>
