<svg width="25" height="25" viewBox="0 0 25 25" fill="none" xmlns="http://www.w3.org/2000/svg">
<g clip-path="url(#clip0_1885_27597)">
<path d="M18.0976 11.3712C17.783 11.0401 17.2804 11.0434 16.9695 11.3784L13.5775 15.0337L10.9154 12.2819C10.5988 11.9547 10.0975 11.9619 9.78913 12.2982L3.81317 18.8149C3.50113 19.1552 3.50373 19.7041 3.81898 20.0409C4.13423 20.3777 4.64275 20.3749 4.95479 20.0346L10.375 14.124L13.0336 16.8722C13.3489 17.1981 13.8477 17.1925 14.1566 16.8596L17.5436 13.2097L19.1754 14.9267C19.493 15.2609 20.0015 15.254 20.3111 14.9111C20.6207 14.5683 20.6143 14.0195 20.2967 13.6852L18.0976 11.3712Z" fill="url(#paint0_linear_1885_27597)"/>
<path d="M6.26791 4.71749C5.84218 4.71749 5.49707 5.04582 5.49707 5.45083C5.49707 5.85584 5.84218 6.18416 6.26791 6.18416H7.23146C7.65719 6.18416 8.00231 5.85584 8.00231 5.45083C8.00231 5.04582 7.65719 4.71749 7.23146 4.71749H6.26791Z" fill="url(#paint1_linear_1885_27597)"/>
<path d="M18.8642 4.71749H10.0696C9.64387 4.71749 9.29875 5.04582 9.29875 5.45083C9.29875 5.85584 9.64387 6.18416 10.0696 6.18416H18.8642C19.2899 6.18416 19.6351 5.85584 19.6351 5.45083C19.6351 5.04582 19.2899 4.71749 18.8642 4.71749Z" fill="url(#paint2_linear_1885_27597)"/>
<path fill-rule="evenodd" clip-rule="evenodd" d="M3.31249 21.7408C2.09887 20.5575 1.5 18.8674 1.5 16.8488V8.15116C1.5 6.13258 2.09887 4.44251 3.31249 3.25923C4.52339 2.07861 6.24631 1.5 8.30203 1.5H16.698C18.7537 1.5 20.4766 2.07861 21.6875 3.25923C22.9011 4.44251 23.5 6.13258 23.5 8.15116V16.8488C23.5 18.8674 22.9011 20.5575 21.6875 21.7408C20.4766 22.9214 18.7537 23.5 16.698 23.5H8.30203C6.24631 23.5 4.52339 22.9214 3.31249 21.7408ZM22.0333 9.30083H2.96666L2.96666 16.8488C2.96666 17.9304 3.165 18.8324 3.5242 19.562C3.5691 19.6532 3.61651 19.7417 3.66636 19.8276C3.68976 19.8679 3.7137 19.9075 3.73817 19.9467C3.91178 20.2241 4.11208 20.472 4.33636 20.6906C4.44442 20.796 4.55949 20.896 4.68162 20.9903C5.53653 21.6506 6.73745 22.0333 8.30202 22.0333H16.698C18.486 22.0333 19.7992 21.5335 20.6636 20.6906C20.8879 20.472 21.0882 20.2241 21.2618 19.9467C21.2769 19.9226 21.2917 19.8983 21.3064 19.8738C21.7721 19.0947 22.0333 18.09 22.0333 16.8488V9.30083ZM8.30202 2.96667C6.51395 2.96667 5.20083 3.46652 4.33637 4.30937C3.51229 5.11285 3.01195 6.30991 2.96959 7.92583H22.0304C21.988 6.30991 21.4877 5.11285 20.6636 4.30937C19.7992 3.46652 18.486 2.96667 16.698 2.96667H8.30202Z" fill="url(#paint3_linear_1885_27597)"/>
</g>
<defs>
<linearGradient id="paint0_linear_1885_27597" x1="23.5" y1="12.6788" x2="1.5" y2="12.6788" gradientUnits="userSpaceOnUse">
<stop stop-color="#025436"/>
<stop offset="1" stop-color="#053725"/>
</linearGradient>
<linearGradient id="paint1_linear_1885_27597" x1="23.5" y1="12.6788" x2="1.5" y2="12.6788" gradientUnits="userSpaceOnUse">
<stop stop-color="#025436"/>
<stop offset="1" stop-color="#053725"/>
</linearGradient>
<linearGradient id="paint2_linear_1885_27597" x1="23.5" y1="12.6788" x2="1.5" y2="12.6788" gradientUnits="userSpaceOnUse">
<stop stop-color="#025436"/>
<stop offset="1" stop-color="#053725"/>
</linearGradient>
<linearGradient id="paint3_linear_1885_27597" x1="23.5" y1="12.6788" x2="1.5" y2="12.6788" gradientUnits="userSpaceOnUse">
<stop stop-color="#025436"/>
<stop offset="1" stop-color="#053725"/>
</linearGradient>
<clipPath id="clip0_1885_27597">
<rect width="24" height="24" fill="white" transform="translate(0.5 0.5)"/>
</clipPath>
</defs>
</svg>
