<svg width="25" height="25" viewBox="0 0 25 25" fill="none" xmlns="http://www.w3.org/2000/svg">
<g clip-path="url(#clip0_1885_27594)">
<path fill-rule="evenodd" clip-rule="evenodd" d="M1.5 13.5636V4.10308C1.5 2.66742 2.66164 1.5 4.09017 1.5L9.73567 1.50002C11.1642 1.50002 12.3258 2.66744 12.3258 4.10309L12.3258 8.11699L22.7939 8.117C23.1839 8.117 23.5 8.43472 23.5 8.82665C23.5 9.21857 23.1839 9.53629 22.7939 9.53629L18.2144 9.53628L18.2105 9.53629L12.3258 9.53628L12.3258 13.5636C12.3258 14.9992 11.1642 16.1667 9.73566 16.1667L4.09016 16.1667C2.66163 16.1667 1.5 14.9992 1.5 13.5636ZM2.91225 4.10308C2.91225 3.45128 3.4416 2.91929 4.09017 2.91929L9.73566 2.91931C10.3842 2.91931 10.9136 3.45129 10.9136 4.10309L10.9136 8.82356L10.9136 8.82664L10.9136 8.82972L10.9136 10.0305L2.91225 10.0305V4.10308ZM10.9136 11.4498L10.9136 13.5636C10.9136 14.2154 10.3842 14.7474 9.73567 14.7474L4.09016 14.7474C3.44159 14.7474 2.91225 14.2154 2.91225 13.5636V11.4498L10.9136 11.4498Z" fill="url(#paint0_linear_1885_27594)"/>
<path fill-rule="evenodd" clip-rule="evenodd" d="M11.6383 23.5H2.1875C1.8078 23.5 1.5 23.1922 1.5 22.8125L1.50024 22.7942L1.5 21.9781C1.5 20.5424 2.66164 19.375 4.09018 19.375H9.73566C11.1642 19.375 12.3258 20.5424 12.3258 21.9781L12.3256 22.7942L12.3258 22.8125C12.3258 23.1922 12.018 23.5 11.6383 23.5ZM9.73566 20.7943C10.3842 20.7943 10.9136 21.3263 10.9136 21.9781V22.125H2.91225V21.9781C2.91225 21.3263 3.4416 20.7943 4.09018 20.7943H9.73566Z" fill="url(#paint1_linear_1885_27594)"/>
<path fill-rule="evenodd" clip-rule="evenodd" d="M10.0024 17.8562C10.1963 17.6677 10.5085 17.6677 10.7024 17.8562C10.8992 18.0475 10.8992 18.3599 10.7024 18.5512L10.2834 18.9586C10.0895 19.1471 9.77721 19.1471 9.58331 18.9586C9.38653 18.7673 9.38653 18.4549 9.58331 18.2636L10.0024 17.8562Z" fill="url(#paint2_linear_1885_27594)"/>
<path fill-rule="evenodd" clip-rule="evenodd" d="M3.2976 17.8562C3.49149 17.6677 3.80377 17.6677 3.99766 17.8562L4.41671 18.2636C4.6135 18.4549 4.6135 18.7673 4.41671 18.9586C4.22282 19.1471 3.91054 19.1471 3.71665 18.9586L3.2976 18.5512C3.10082 18.3599 3.10082 18.0475 3.2976 17.8562Z" fill="url(#paint3_linear_1885_27594)"/>
<path fill-rule="evenodd" clip-rule="evenodd" d="M6.5024 17.3889C6.5024 17.114 6.73009 16.9 7.00001 16.9C7.26994 16.9 7.49763 17.114 7.49763 17.3889V17.7963C7.49763 18.0711 7.26994 18.2852 7.00001 18.2852C6.73009 18.2852 6.5024 18.0711 6.5024 17.7963V17.3889Z" fill="url(#paint4_linear_1885_27594)"/>
<path fill-rule="evenodd" clip-rule="evenodd" d="M18.9167 15.7807C17.1839 15.7807 15.7807 17.1839 15.7807 18.9167C15.7807 19.5047 15.9452 20.0585 16.2326 20.5245L16.2387 20.5344C16.7789 21.4425 17.7724 22.0526 18.9167 22.0526C20.0609 22.0526 21.0545 21.4425 21.5947 20.5344L21.6006 20.5245C21.888 20.0584 22.0526 19.5047 22.0526 18.9167C22.0526 17.1839 20.6494 15.7807 18.9167 15.7807ZM14.3333 18.9167C14.3333 16.3845 16.3845 14.3333 18.9167 14.3333C21.4488 14.3333 23.5 16.3845 23.5 18.9167C23.5 19.774 23.2604 20.5885 22.8357 21.2793C22.0436 22.6071 20.5879 23.5 18.9167 23.5C17.2455 23.5 15.7897 22.6071 14.9976 21.2793C14.5729 20.5885 14.3333 19.774 14.3333 18.9167Z" fill="url(#paint5_linear_1885_27594)"/>
<path fill-rule="evenodd" clip-rule="evenodd" d="M20.9546 17.4792C21.226 17.7726 21.2081 18.2305 20.9147 18.5019L18.8594 20.4027C18.574 20.6667 18.1311 20.658 17.8563 20.3832L16.901 19.4279C16.6184 19.1453 16.6184 18.6871 16.901 18.4045C17.1837 18.1219 17.6419 18.1219 17.9245 18.4045L18.3876 18.8676L19.9319 17.4393C20.2253 17.1679 20.6832 17.1858 20.9546 17.4792Z" fill="url(#paint6_linear_1885_27594)"/>
</g>
<defs>
<linearGradient id="paint0_linear_1885_27594" x1="23.5" y1="12.6788" x2="1.5" y2="12.6788" gradientUnits="userSpaceOnUse">
<stop stop-color="#025436"/>
<stop offset="1" stop-color="#053725"/>
</linearGradient>
<linearGradient id="paint1_linear_1885_27594" x1="23.5" y1="12.6788" x2="1.5" y2="12.6788" gradientUnits="userSpaceOnUse">
<stop stop-color="#025436"/>
<stop offset="1" stop-color="#053725"/>
</linearGradient>
<linearGradient id="paint2_linear_1885_27594" x1="23.5" y1="12.6788" x2="1.5" y2="12.6788" gradientUnits="userSpaceOnUse">
<stop stop-color="#025436"/>
<stop offset="1" stop-color="#053725"/>
</linearGradient>
<linearGradient id="paint3_linear_1885_27594" x1="23.5" y1="12.6788" x2="1.5" y2="12.6788" gradientUnits="userSpaceOnUse">
<stop stop-color="#025436"/>
<stop offset="1" stop-color="#053725"/>
</linearGradient>
<linearGradient id="paint4_linear_1885_27594" x1="23.5" y1="12.6788" x2="1.5" y2="12.6788" gradientUnits="userSpaceOnUse">
<stop stop-color="#025436"/>
<stop offset="1" stop-color="#053725"/>
</linearGradient>
<linearGradient id="paint5_linear_1885_27594" x1="23.5" y1="12.6788" x2="1.5" y2="12.6788" gradientUnits="userSpaceOnUse">
<stop stop-color="#025436"/>
<stop offset="1" stop-color="#053725"/>
</linearGradient>
<linearGradient id="paint6_linear_1885_27594" x1="23.5" y1="12.6788" x2="1.5" y2="12.6788" gradientUnits="userSpaceOnUse">
<stop stop-color="#025436"/>
<stop offset="1" stop-color="#053725"/>
</linearGradient>
<clipPath id="clip0_1885_27594">
<rect width="24" height="24" fill="white" transform="translate(0.5 0.5)"/>
</clipPath>
</defs>
</svg>
