<svg width="16" height="16" viewBox="0 0 16 16" fill="none" xmlns="http://www.w3.org/2000/svg">
<path fill-rule="evenodd" clip-rule="evenodd" d="M14.7022 7.95625L9.70218 2.95625C9.52218 2.76625 9.27218 2.65625 8.99218 2.65625C8.44218 2.65625 7.99219 3.10625 7.99219 3.65625C7.99219 3.93625 8.10218 4.18625 8.28219 4.36625L11.5722 7.65625L1.99219 7.65625C1.44219 7.65625 0.992187 8.10625 0.992187 8.65625C0.992187 9.20625 1.44219 9.65625 1.99219 9.65625L11.5822 9.65625L8.29219 12.9462C8.11219 13.1263 8.00219 13.3763 8.00219 13.6563C8.00219 14.2063 8.45219 14.6563 9.00218 14.6563C9.28218 14.6563 9.53218 14.5463 9.71218 14.3663L14.7122 9.36625C14.8922 9.18625 15.0022 8.93625 15.0022 8.65625C15.0022 8.37625 14.8822 8.13625 14.7022 7.95625Z" fill="#FF6600"/>
</svg>
