<svg width="20" height="20" viewBox="0 0 20 20" fill="none" xmlns="http://www.w3.org/2000/svg">
<g clip-path="url(#clip0_423_19422)">
<path d="M0 9.34862C0.0549703 8.97124 0.0920433 8.59004 0.167894 8.21649C0.842878 4.89841 2.68502 2.4359 5.74972 1C9.0049 -0.52524 12.2205 -0.27933 15.3116 1.55734C15.5886 1.72199 15.739 1.95131 15.6951 2.27678C15.6273 2.77924 15.0908 3.01919 14.6387 2.74137C14.0443 2.37633 13.4247 2.06831 12.7625 1.8458C7.85692 0.198877 2.61045 3.19533 1.54343 8.25393C0.579106 12.8258 3.50233 17.3807 8.0653 18.4158C12.8371 19.4982 17.5223 16.4592 18.4764 11.6609C18.6366 10.856 18.6677 10.0434 18.5983 9.22651C18.5625 8.80277 18.8156 8.47262 19.2149 8.42922C19.5912 8.38838 19.9116 8.67385 19.9525 9.08697C20.4264 13.8575 17.3071 18.3729 12.6615 19.6415C7.26844 21.114 1.72752 17.9159 0.320873 12.5055C0.180678 11.9668 0.130395 11.4044 0.0379253 10.8534C0.0272721 10.7913 0.0127838 10.7296 0 10.6679C0 10.228 0 9.78854 0 9.34862Z" fill="#007A5B"/>
<path d="M20 2.52191C19.8937 2.68423 19.8047 2.8658 19.6793 3.00668C16.7187 6.33047 13.7537 9.64989 10.79 12.9702C10.7579 13.0061 10.7259 13.0428 10.6931 13.0782C10.3771 13.4204 10.0294 13.4195 9.71572 13.0686C8.49967 11.7084 7.28479 10.3473 6.0707 8.98531C5.77498 8.65367 5.75467 8.23234 6.01483 7.93702C6.27422 7.64301 6.65548 7.66139 6.94963 7.9904C7.98169 9.14369 9.01258 10.2992 10.0423 11.4551C10.0923 11.5115 10.1294 11.5824 10.2232 11.7215C10.2939 11.5973 10.3247 11.5124 10.3782 11.4524C13.1979 8.2901 16.0198 5.13081 18.839 1.96802C19.03 1.75364 19.2336 1.61845 19.5148 1.68276C19.7648 1.74008 19.8867 1.94833 20 2.17146V2.52191Z" fill="#007A5B"/>
</g>
<defs>
<clipPath id="clip0_423_19422">
<rect width="20" height="20" fill="white"/>
</clipPath>
</defs>
</svg>
