<svg width="206" height="63" viewBox="0 0 206 63" fill="none" xmlns="http://www.w3.org/2000/svg">
<path d="M204.147 54.8412C204.147 56.4126 203.532 57.9196 202.436 59.0302C201.341 60.1407 199.856 60.7638 198.307 60.7622H7.20226C3.97686 60.7656 1.35918 58.115 1.35498 54.8412V7.62362C1.35918 4.34866 3.97562 1.6958 7.20226 1.69495H198.306C199.855 1.69495 201.34 2.31962 202.436 3.43151C203.531 4.5434 204.146 6.05138 204.145 7.62362L204.147 54.8412Z" fill="white"/>
<path d="M198.308 62.1381H7.20286C3.22993 62.1372 0.00755927 58.8721 0 54.8397V7.62361C0.00587774 3.58922 3.22801 0.320911 7.20286 0.317505H198.306C202.281 0.32261 205.502 3.58993 205.509 7.62361V54.8397C205.512 58.8653 202.276 62.1381 198.308 62.1381Z" fill="#A6A6A6"/>
<path d="M204.147 54.8412C204.147 56.4126 203.532 57.9196 202.436 59.0302C201.341 60.1407 199.856 60.7638 198.307 60.7622H7.20226C3.97686 60.7656 1.35918 58.115 1.35498 54.8412V7.62362C1.35918 4.34866 3.97562 1.6958 7.20226 1.69495H198.306C199.855 1.69495 201.34 2.31962 202.436 3.43151C203.531 4.5434 204.146 6.05138 204.145 7.62362L204.147 54.8412Z" fill="black"/>
<path d="M45.8899 30.9015C45.8457 25.9189 49.9094 23.4949 50.0953 23.382C47.7938 19.9763 44.2267 19.511 42.9731 19.4739C39.9771 19.1539 37.071 21.2935 35.5448 21.2935C33.9882 21.2935 31.638 19.5048 29.1051 19.5574C25.8456 19.6084 22.7963 21.5238 21.1239 24.4982C17.6725 30.5629 20.2466 39.4753 23.5533 44.3774C25.2074 46.7798 27.1402 49.4589 29.6702 49.3646C32.1452 49.2626 33.0698 47.7646 36.0566 47.7646C39.0161 47.7646 39.8842 49.3646 42.4644 49.3044C45.1207 49.2626 46.7931 46.8927 48.3894 44.4702C50.3009 41.72 51.0685 39.0084 51.099 38.8693C51.0381 38.8476 45.9417 36.8719 45.8899 30.9015ZM41.0159 16.2491C42.3471 14.5594 43.258 12.2606 43.0051 9.92773C41.0784 10.0143 38.6688 11.2804 37.2812 12.933C36.0536 14.3893 34.9569 16.7762 35.2402 19.0209C37.4046 19.1848 39.6268 17.9125 41.0159 16.2491Z" fill="white"/>
<path d="M198.311 0.317505H95.9492L136.042 62.1381H198.311C202.285 62.1347 205.506 58.8682 205.514 54.835V7.62361C205.507 3.58958 202.285 0.321759 198.311 0.317505Z" fill="url(#paint0_linear_1591_22268)"/>
<path d="M81.7329 49.0201H78.2739L76.3791 42.977H69.7931L67.9882 49.0201H64.6206L71.1472 28.4468H75.1774L81.7329 49.0201ZM75.808 40.4417L74.0945 35.0696C73.9132 34.5208 73.572 33.2284 73.0724 31.1939H73.0115C72.8105 32.0689 72.4891 33.3613 72.0489 35.0696L70.3643 40.4417H75.808ZM98.4843 41.4203C98.4843 43.9433 97.8095 45.9375 96.4585 47.4015C95.2491 48.7048 93.7458 49.3556 91.9531 49.3556C90.0172 49.3556 88.6251 48.6553 87.7797 47.2516V55.0354H84.5324V39.0612C84.5324 37.4766 84.4913 35.8518 84.4121 34.1853H87.268L87.4492 36.5367H87.5101C88.5931 34.765 90.2365 33.8792 92.442 33.8792C94.1662 33.8792 95.6056 34.5702 96.757 35.9538C97.907 37.3405 98.4843 39.1617 98.4843 41.4203ZM95.176 41.5409C95.176 40.097 94.8562 38.9066 94.2134 37.9682C93.5113 36.9927 92.5684 36.5042 91.3865 36.5042C90.5853 36.5042 89.8573 36.7763 89.2069 37.3127C88.555 37.8538 88.1285 38.5603 87.929 39.4353C87.8399 39.7625 87.7893 40.0993 87.7782 40.4386V42.9137C87.7782 43.9912 88.1042 44.9017 88.7561 45.6469C89.408 46.3889 90.2548 46.7615 91.2966 46.7615C92.5197 46.7615 93.4717 46.2807 94.1525 45.3269C94.8349 44.3699 95.176 43.1084 95.176 41.5409ZM115.295 41.4203C115.295 43.9433 114.62 45.9375 113.269 47.4015C112.058 48.7048 110.557 49.3556 108.762 49.3556C106.826 49.3556 105.434 48.6553 104.589 47.2516V55.0354H101.342V39.0612C101.342 37.4766 101.301 35.8518 101.221 34.1853H104.077L104.258 36.5367H104.319C105.401 34.765 107.044 33.8792 109.251 33.8792C110.974 33.8792 112.413 34.5702 113.568 35.9538C114.716 37.3405 115.295 39.1617 115.295 41.4203ZM111.985 41.5409C111.985 40.097 111.664 38.9066 111.021 37.9682C110.319 36.9927 109.379 36.5042 108.197 36.5042C107.396 36.5042 106.668 36.7763 106.015 37.3127C105.363 37.8538 104.938 38.5603 104.738 39.4353C104.639 39.8434 104.586 40.1758 104.586 40.4386V42.9137C104.586 43.9912 104.913 44.9017 105.562 45.6469C106.214 46.3874 107.061 46.7615 108.106 46.7615C109.33 46.7615 110.282 46.2807 110.962 45.3269C111.644 44.3699 111.985 43.1084 111.985 41.5409ZM134.09 43.2491C134.09 45.0007 133.487 46.4245 132.289 47.5236C130.969 48.7233 129.128 49.3247 126.767 49.3247C124.586 49.3247 122.838 48.898 121.519 48.0431L122.269 45.296C123.694 46.1524 125.258 46.5791 126.961 46.5791C128.185 46.5791 129.137 46.2977 129.816 45.7396C130.497 45.18 130.842 44.4318 130.842 43.498C130.842 42.6617 130.557 41.9614 129.998 41.3909C129.436 40.822 128.507 40.2917 127.201 39.8048C123.652 38.4614 121.876 36.4965 121.876 33.9117C121.876 32.2235 122.504 30.8414 123.756 29.7608C125.008 28.6817 126.668 28.1422 128.734 28.1422C130.578 28.1422 132.115 28.4684 133.335 29.1192L132.52 31.8061C131.372 31.1753 130.075 30.86 128.625 30.86C127.48 30.86 126.581 31.146 125.939 31.7149C125.398 32.2235 125.124 32.8434 125.124 33.5793C125.124 34.3909 125.436 35.0649 126.057 35.5936C126.597 36.0806 127.581 36.6109 129.003 37.1798C130.749 37.894 132.031 38.7257 132.852 39.6811C133.679 40.6365 134.09 41.8284 134.09 43.2491ZM144.854 36.6588H141.275V43.8613C141.275 45.6933 141.906 46.6069 143.17 46.6069C143.75 46.6069 144.231 46.5574 144.612 46.4539L144.702 48.9567C144.062 49.1994 143.22 49.3216 142.177 49.3216C140.894 49.3216 139.892 48.9243 139.168 48.1297C138.448 47.335 138.086 46.004 138.086 44.1303V36.6526H135.953V34.1791H138.086V31.4629L141.275 30.4859V34.1791H144.854V36.6588ZM160.972 41.4806C160.972 43.7608 160.329 45.633 159.047 47.097C157.705 48.6043 155.92 49.3556 153.695 49.3556C151.547 49.3556 149.84 48.6336 148.566 47.1913C147.293 45.7458 146.656 43.9247 146.656 41.7279C146.656 39.4291 147.314 37.5462 148.626 36.0822C149.94 34.6166 151.71 33.8838 153.935 33.8838C156.08 33.8838 157.802 34.6073 159.106 36.0512C160.352 37.4519 160.972 39.2606 160.972 41.4806ZM157.606 41.5563C157.606 40.1974 157.317 39.0318 156.736 38.0563C156.055 36.8783 155.081 36.2893 153.818 36.2893C152.517 36.2893 151.52 36.8783 150.84 38.0563C150.258 39.0318 149.969 40.2175 149.969 41.6182C149.969 42.9786 150.258 44.1473 150.84 45.1197C151.542 46.2977 152.522 46.8867 153.79 46.8867C155.032 46.8867 156.005 46.2854 156.709 45.0903C157.306 44.0917 157.606 42.9183 157.606 41.5563ZM171.532 37.0839C171.194 37.022 170.852 36.9915 170.508 36.9927C169.366 36.9927 168.483 37.4287 167.861 38.3068C167.322 39.0797 167.051 40.0568 167.051 41.2363V49.0201H163.804V38.8571C163.806 37.2998 163.775 35.7427 163.709 34.1868H166.538L166.656 37.0252H166.746C167.09 36.0497 167.63 35.2628 168.37 34.6738C169.047 34.1591 169.871 33.8804 170.717 33.8792C171.017 33.8792 171.288 33.9008 171.529 33.9395L171.532 37.0839ZM186.055 40.9008C186.063 41.4019 186.023 41.9025 185.936 42.3958H176.194C176.231 43.8613 176.703 44.9837 177.608 45.7566C178.429 46.4461 179.49 46.7924 180.794 46.7924C182.236 46.7924 183.552 46.5605 184.736 46.0921L185.245 48.3786C183.862 48.9907 182.229 49.2953 180.345 49.2953C178.078 49.2953 176.299 48.6182 175.005 47.267C173.713 45.9143 173.066 44.0963 173.066 41.8191C173.066 39.5837 173.667 37.7208 174.872 36.2352C176.133 34.6491 177.838 33.856 179.982 33.856C182.089 33.856 183.683 34.6491 184.766 36.2352C185.624 37.4921 186.055 39.0504 186.055 40.9008ZM182.958 40.0459C182.981 39.0674 182.768 38.2248 182.328 37.5121C181.766 36.5939 180.901 36.1363 179.742 36.1363C178.68 36.1363 177.815 36.583 177.157 37.4797C176.616 38.1924 176.295 39.0488 176.196 40.0429L182.958 40.0459Z" fill="white"/>
<path d="M68.8686 21.1734C67.9654 21.1734 67.1841 21.1285 66.5337 21.0528V11.1062C67.4433 10.9636 68.3625 10.8933 69.2829 10.896C73.007 10.896 74.722 12.7557 74.722 15.7873C74.722 19.2842 72.6963 21.1734 68.8686 21.1734ZM69.4139 12.1714C68.9113 12.1714 68.4833 12.2023 68.1284 12.2765V19.8377C68.3203 19.8686 68.6889 19.8825 69.2068 19.8825C71.6468 19.8825 73.0359 18.4726 73.0359 15.8321C73.0359 13.4777 71.7793 12.1714 69.4139 12.1714ZM80.0667 21.2491C77.9678 21.2491 76.6076 19.6583 76.6076 17.4987C76.6076 15.2478 77.9967 13.6431 80.1855 13.6431C82.2539 13.6431 83.6445 15.1581 83.6445 17.3796C83.6445 19.6583 82.2112 21.2491 80.0667 21.2491ZM80.1276 14.8273C78.9746 14.8273 78.2359 15.9218 78.2359 17.4523C78.2359 18.9534 78.9898 20.0479 80.1124 20.0479C81.2349 20.0479 81.9888 18.8776 81.9888 17.4214C81.9888 15.9373 81.2501 14.8273 80.1276 14.8273ZM95.6132 13.793L93.3666 21.0837H91.9029L90.9722 17.9176C90.7408 17.1432 90.5482 16.3573 90.395 15.5631H90.3645C90.2472 16.3578 90.0249 17.1539 89.7888 17.9176L88.7987 21.0837H87.3198L85.2057 13.793H86.8461L87.6594 17.259C87.8514 18.0846 88.0128 18.8637 88.1468 19.5996H88.1773C88.2946 18.9859 88.4865 18.2191 88.7683 17.2745L89.7888 13.7946H91.0895L92.0658 17.2003C92.3019 18.0258 92.4938 18.8359 92.6431 19.6011H92.6858C92.7893 18.8514 92.9523 18.0552 93.1732 17.2003L94.0459 13.7946L95.6132 13.793ZM103.884 21.0837H102.288V16.8973C102.288 15.608 101.8 14.9618 100.839 14.9618C99.8932 14.9618 99.2428 15.7873 99.2428 16.7473V21.0837H97.6466V15.877C97.6466 15.2323 97.6313 14.5413 97.5872 13.7915H98.9915L99.0661 14.9169H99.1103C99.5398 14.1378 100.411 13.6431 101.387 13.6431C102.895 13.6431 103.885 14.8134 103.885 16.718L103.884 21.0837ZM108.286 21.0837H106.688V10.4476H108.286V21.0837ZM114.105 21.2491C112.008 21.2491 110.646 19.6583 110.646 17.4987C110.646 15.2478 112.036 13.6431 114.223 13.6431C116.293 13.6431 117.682 15.1581 117.682 17.3796C117.683 19.6583 116.249 21.2491 114.105 21.2491ZM114.165 14.8273C113.012 14.8273 112.273 15.9218 112.273 17.4523C112.273 18.9534 113.029 20.0479 114.148 20.0479C115.272 20.0479 116.025 18.8776 116.025 17.4214C116.026 15.9373 115.289 14.8273 114.165 14.8273ZM123.975 21.0837L123.86 20.2442H123.817C123.33 20.9198 122.618 21.2491 121.717 21.2491C120.429 21.2491 119.516 20.3339 119.516 19.1033C119.516 17.3039 121.052 16.3732 123.713 16.3732V16.2387C123.713 15.2787 123.212 14.7979 122.222 14.7979C121.514 14.7979 120.893 14.9788 120.346 15.339L120.021 14.2738C120.685 13.8533 121.514 13.6431 122.487 13.6431C124.364 13.6431 125.311 14.6479 125.311 16.6592V19.3445C125.311 20.0804 125.343 20.6508 125.415 21.0852L123.975 21.0837ZM123.756 17.4523C121.983 17.4523 121.094 17.8882 121.094 18.9225C121.094 19.6877 121.552 20.0618 122.189 20.0618C123.001 20.0618 123.756 19.4326 123.756 18.5777V17.4523ZM133.062 21.0837L132.988 19.9134H132.943C132.485 20.7977 131.714 21.2491 130.637 21.2491C128.906 21.2491 127.623 19.7032 127.623 17.528C127.623 15.2478 128.953 13.6415 130.768 13.6415C131.73 13.6415 132.41 13.9708 132.794 14.6325H132.826V10.4476H134.424V19.1188C134.424 19.8238 134.441 20.4839 134.483 21.0837H133.062ZM132.826 16.7937C132.826 15.7734 132.161 14.903 131.145 14.903C129.961 14.903 129.238 15.9682 129.238 17.4677C129.238 18.9379 129.989 19.9443 131.113 19.9443C132.116 19.9443 132.826 19.0585 132.826 18.0088V16.7937ZM144.554 21.2491C142.457 21.2491 141.097 19.6583 141.097 17.4987C141.097 15.2478 142.486 13.6431 144.673 13.6431C146.743 13.6431 148.132 15.1581 148.132 17.3796C148.134 19.6583 146.7 21.2491 144.554 21.2491ZM144.614 14.8273C143.462 14.8273 142.723 15.9218 142.723 17.4523C142.723 18.9534 143.477 20.0479 144.598 20.0479C145.723 20.0479 146.475 18.8776 146.475 17.4214C146.478 15.9373 145.739 14.8273 144.614 14.8273ZM156.716 21.0837H155.119V16.8973C155.119 15.608 154.631 14.9618 153.67 14.9618C152.724 14.9618 152.075 15.7873 152.075 16.7473V21.0837H150.478V15.877C150.478 15.2323 150.462 14.5413 150.418 13.7915H151.823L151.897 14.9169H151.941C152.369 14.1378 153.242 13.6415 154.217 13.6415C155.725 13.6415 156.716 14.8118 156.716 16.7164V21.0837ZM167.456 15.0082H165.7V18.5484C165.7 19.4496 166.007 19.8995 166.629 19.8995C166.911 19.8995 167.147 19.8686 167.337 19.8238L167.381 21.0543C167.072 21.1749 166.658 21.2352 166.143 21.2352C164.885 21.2352 164.133 20.5302 164.133 18.6844V15.0082H163.085V13.793H164.133V12.4574L165.7 11.9766V13.7915H167.456V15.0082ZM175.906 21.0837H174.312V16.9282C174.312 15.6234 173.826 14.9633 172.863 14.9633C172.036 14.9633 171.265 15.5338 171.265 16.6886V21.0837H169.671V10.4476H171.265V14.8273H171.297C171.8 14.0327 172.528 13.6415 173.457 13.6415C174.977 13.6415 175.906 14.8412 175.906 16.7473V21.0837ZM184.564 17.8279H179.774C179.804 19.2085 180.704 19.9876 182.037 19.9876C182.745 19.9876 183.397 19.867 183.973 19.6429L184.221 20.7683C183.542 21.0682 182.742 21.2182 181.811 21.2182C179.565 21.2182 178.235 19.7774 178.235 17.5435C178.235 15.3081 179.597 13.6276 181.632 13.6276C183.467 13.6276 184.619 15.0082 184.619 17.0936C184.629 17.3397 184.61 17.5862 184.564 17.8279ZM183.1 16.6731C183.1 15.5477 182.541 14.7531 181.521 14.7531C180.604 14.7531 179.879 15.5631 179.775 16.6731H183.1Z" fill="white"/>
<defs>
<linearGradient id="paint0_linear_1591_22268" x1="150.73" y1="62.3022" x2="150.73" y2="-160.653" gradientUnits="userSpaceOnUse">
<stop stop-color="#1A1A1A" stop-opacity="0.1"/>
<stop offset="0.123" stop-color="#212121" stop-opacity="0.151"/>
<stop offset="0.308" stop-color="#353535" stop-opacity="0.227"/>
<stop offset="0.532" stop-color="#575757" stop-opacity="0.318"/>
<stop offset="0.783" stop-color="#858585" stop-opacity="0.421"/>
<stop offset="1" stop-color="#B3B3B3" stop-opacity="0.51"/>
</linearGradient>
</defs>
</svg>
