<svg width="207" height="64" viewBox="0 0 207 64" fill="none" xmlns="http://www.w3.org/2000/svg">
<g clip-path="url(#clip0_1591_22253)">
<path d="M199.333 62.5519H7.66667C3.37333 62.5519 0 59.1118 0 54.7335V7.82347C0 3.4452 3.37333 0.00512695 7.66667 0.00512695H199.333C203.627 0.00512695 207 3.4452 207 7.82347V54.7335C207 59.1118 203.627 62.5519 199.333 62.5519Z" fill="black"/>
<path d="M199.333 1.25606C202.86 1.25606 205.773 4.22703 205.773 7.82347V54.7335C205.773 58.33 202.86 61.301 199.333 61.301H7.66667C4.14 61.301 1.22667 58.33 1.22667 54.7335V7.82347C1.22667 4.22703 4.14 1.25606 7.66667 1.25606H199.333ZM199.333 0.00512695H7.66667C3.37333 0.00512695 0 3.60157 0 7.82347V54.7335C0 59.1118 3.37333 62.5519 7.66667 62.5519H199.333C203.627 62.5519 207 59.1118 207 54.7335V7.82347C207 3.60157 203.627 0.00512695 199.333 0.00512695Z" fill="#A6A6A6"/>
<path d="M72.6844 15.9562C72.6844 17.2072 72.3777 18.3018 71.611 19.0836C70.691 20.0218 69.6177 20.4909 68.2377 20.4909C66.8577 20.4909 65.7844 20.0218 64.8644 19.0836C63.9444 18.1454 63.4844 17.0508 63.4844 15.6435C63.4844 14.2362 63.9444 13.1416 64.8644 12.2034C65.7844 11.2652 66.8577 10.7961 68.2377 10.7961C68.851 10.7961 69.4644 10.9525 70.0777 11.2652C70.691 11.578 71.151 11.8907 71.4577 12.3598L70.691 13.1416C70.0777 12.3598 69.311 12.0471 68.2377 12.0471C67.3177 12.0471 66.3977 12.3598 65.7844 13.1416C65.0177 13.7671 64.711 14.7053 64.711 15.7999C64.711 16.8945 65.0177 17.8327 65.7844 18.4581C66.551 19.0836 67.3177 19.5527 68.2377 19.5527C69.311 19.5527 70.0777 19.24 70.8444 18.4581C71.3044 17.989 71.611 17.3636 71.611 16.5817H68.2377V15.3308H72.6844V15.9562ZM79.7377 12.0471H75.5977V15.018H79.431V16.1126H75.5977V19.0836H79.7377V20.3345H74.371V10.9525H79.7377V12.0471ZM84.7977 20.3345H83.571V12.0471H80.9644V10.9525H87.4044V12.0471H84.7977V20.3345ZM91.851 20.3345V10.9525H93.0777V20.3345H91.851ZM98.291 20.3345H97.0644V12.0471H94.4577V10.9525H100.744V12.0471H98.1377V20.3345H98.291ZM112.858 19.0836C111.938 20.0218 110.864 20.4909 109.484 20.4909C108.104 20.4909 107.031 20.0218 106.111 19.0836C105.191 18.1454 104.731 17.0508 104.731 15.6435C104.731 14.2362 105.191 13.1416 106.111 12.2034C107.031 11.2652 108.104 10.7961 109.484 10.7961C110.864 10.7961 111.938 11.2652 112.858 12.2034C113.778 13.1416 114.238 14.2362 114.238 15.6435C114.238 17.0508 113.778 18.1454 112.858 19.0836ZM107.031 18.3018C107.644 18.9272 108.564 19.3963 109.484 19.3963C110.404 19.3963 111.324 19.0836 111.938 18.3018C112.551 17.6763 113.011 16.7381 113.011 15.6435C113.011 14.5489 112.704 13.6107 111.938 12.9853C111.324 12.3598 110.404 11.8907 109.484 11.8907C108.564 11.8907 107.644 12.2034 107.031 12.9853C106.418 13.6107 105.958 14.5489 105.958 15.6435C105.958 16.7381 106.264 17.6763 107.031 18.3018ZM115.924 20.3345V10.9525H117.304L121.751 18.3018V10.9525H122.978V20.3345H121.751L116.998 12.6725V20.3345H115.924Z" fill="white" stroke="white" stroke-width="1.11241" stroke-miterlimit="10"/>
<path d="M104.416 34.0927C100.736 34.0927 97.8223 36.9073 97.8223 40.8164C97.8223 44.5692 100.736 47.5402 104.416 47.5402C108.096 47.5402 111.009 44.7256 111.009 40.8164C111.009 36.7509 108.096 34.0927 104.416 34.0927ZM104.416 44.7256C102.422 44.7256 100.736 43.0056 100.736 40.6601C100.736 38.3146 102.422 36.5945 104.416 36.5945C106.409 36.5945 108.096 38.1582 108.096 40.6601C108.096 43.0056 106.409 44.7256 104.416 44.7256ZM90.1556 34.0927C86.4756 34.0927 83.5623 36.9073 83.5623 40.8164C83.5623 44.5692 86.4756 47.5402 90.1556 47.5402C93.8356 47.5402 96.749 44.7256 96.749 40.8164C96.749 36.7509 93.8356 34.0927 90.1556 34.0927ZM90.1556 44.7256C88.1623 44.7256 86.4756 43.0056 86.4756 40.6601C86.4756 38.3146 88.1623 36.5945 90.1556 36.5945C92.149 36.5945 93.8356 38.1582 93.8356 40.6601C93.8356 43.0056 92.149 44.7256 90.1556 44.7256ZM73.1356 36.1254V38.94H79.729C79.5756 40.5037 78.9623 41.7546 78.1956 42.5365C77.2756 43.4747 75.7423 44.5692 73.1356 44.5692C68.9956 44.5692 65.929 41.2855 65.929 37.0636C65.929 32.8417 69.149 29.558 73.1356 29.558C75.2823 29.558 76.969 30.4962 78.1956 31.5908L80.189 29.558C78.5023 27.9943 76.3556 26.7434 73.289 26.7434C67.769 26.7434 63.0156 31.4344 63.0156 37.0636C63.0156 42.6928 67.769 47.3838 73.289 47.3838C76.3556 47.3838 78.5023 46.4456 80.3423 44.4129C82.1823 42.5365 82.7956 39.8782 82.7956 37.8455C82.7956 37.22 82.7956 36.5945 82.6423 36.1254H73.1356ZM142.749 38.3146C142.136 36.7509 140.602 34.0927 137.229 34.0927C133.856 34.0927 131.096 36.7509 131.096 40.8164C131.096 44.5692 133.856 47.5402 137.536 47.5402C140.449 47.5402 142.289 45.6638 142.902 44.5692L140.756 43.0056C139.989 44.1001 139.069 44.882 137.536 44.882C136.002 44.882 135.082 44.2565 134.316 42.8492L143.056 39.0964L142.749 38.3146ZM133.856 40.5037C133.856 38.0018 135.849 36.5945 137.229 36.5945C138.302 36.5945 139.376 37.22 139.682 38.0018L133.856 40.5037ZM126.649 46.9147H129.562V27.3689H126.649V46.9147ZM122.049 35.5C121.282 34.7181 120.056 33.9363 118.522 33.9363C115.302 33.9363 112.236 36.9073 112.236 40.6601C112.236 44.4129 115.149 47.2275 118.522 47.2275C120.056 47.2275 121.282 46.4456 121.896 45.6638H122.049V46.602C122.049 49.1039 120.669 50.5112 118.522 50.5112C116.836 50.5112 115.609 49.2602 115.302 48.1657L112.849 49.2602C113.616 50.9803 115.456 53.1694 118.676 53.1694C122.049 53.1694 124.809 51.1366 124.809 46.2893V34.4054H122.049V35.5ZM118.676 44.7256C116.682 44.7256 114.996 43.0056 114.996 40.6601C114.996 38.3146 116.682 36.5945 118.676 36.5945C120.669 36.5945 122.202 38.3146 122.202 40.6601C122.202 43.0056 120.669 44.7256 118.676 44.7256ZM156.089 27.3689H149.189V46.9147H152.102V39.5655H156.089C159.309 39.5655 162.376 37.22 162.376 33.4672C162.376 29.7144 159.309 27.3689 156.089 27.3689ZM156.242 36.7509H152.102V30.0271H156.242C158.389 30.0271 159.616 31.9035 159.616 33.3108C159.462 35.0309 158.236 36.7509 156.242 36.7509ZM173.876 33.9363C171.729 33.9363 169.582 34.8745 168.816 36.9073L171.422 38.0018C172.036 36.9073 172.956 36.5945 174.029 36.5945C175.562 36.5945 176.942 37.5327 177.096 39.0964V39.2528C176.636 38.94 175.409 38.4709 174.182 38.4709C171.422 38.4709 168.662 40.0346 168.662 42.8492C168.662 45.5074 170.962 47.2275 173.416 47.2275C175.409 47.2275 176.329 46.2893 177.096 45.3511H177.249V46.9147H180.009V39.4091C179.702 35.9691 177.096 33.9363 173.876 33.9363ZM173.569 44.7256C172.649 44.7256 171.269 44.2565 171.269 43.0056C171.269 41.4419 172.956 40.9728 174.336 40.9728C175.562 40.9728 176.176 41.2855 176.942 41.5983C176.636 43.4747 175.102 44.7256 173.569 44.7256ZM189.669 34.4054L186.449 42.8492H186.296L182.922 34.4054H179.856L184.916 46.2893L182.002 52.8567H184.916L192.736 34.4054H189.669ZM163.909 46.9147H166.822V27.3689H163.909V46.9147Z" fill="white"/>
<path d="M15.9493 11.7317C15.4893 12.2008 15.3359 12.9826 15.3359 13.9208V48.4779C15.3359 49.4161 15.6426 50.1979 16.1026 50.667L16.2559 50.8234L35.2693 31.4339V31.1212L15.9493 11.7317Z" fill="url(#paint0_linear_1591_22253)"/>
<path d="M41.4039 38.0033L35.1172 31.5923V31.1232L41.4039 24.7122L41.5572 24.8685L49.0705 29.2468C51.2172 30.4977 51.2172 32.5305 49.0705 33.7814L41.4039 38.0033Z" fill="url(#paint1_linear_1591_22253)"/>
<path d="M41.552 37.846L35.112 31.2786L15.9453 50.8244C16.712 51.6063 17.7853 51.6063 19.1653 50.9808L41.552 37.846Z" fill="url(#paint2_linear_1591_22253)"/>
<path d="M41.552 24.7124L19.1653 11.734C17.7853 10.9522 16.712 11.1085 15.9453 11.8904L35.112 31.2798L41.552 24.7124Z" fill="url(#paint3_linear_1591_22253)"/>
<path opacity="0.2" d="M41.3986 37.6887L19.1653 50.5108C17.9386 51.2926 16.8653 51.1363 16.0986 50.5108L15.9453 50.6672L16.0986 50.8235C16.8653 51.449 17.9386 51.6054 19.1653 50.8235L41.3986 37.6887Z" fill="black"/>
<path opacity="0.12" d="M15.9493 50.5117C15.4893 50.0426 15.3359 49.2608 15.3359 48.3226V48.4789C15.3359 49.4171 15.6426 50.199 16.1026 50.6681V50.5117H15.9493ZM49.0693 33.3113L41.4026 37.6896L41.5559 37.846L49.0693 33.4677C50.1426 32.8422 50.6026 32.0604 50.6026 31.2786C50.6026 32.0604 49.9893 32.6859 49.0693 33.3113Z" fill="black"/>
<path opacity="0.25" d="M19.1693 11.889L49.0693 29.2457C49.9893 29.8711 50.6026 30.4966 50.6026 31.2784C50.6026 30.4966 50.1426 29.7148 49.0693 29.0893L19.1693 11.7326C17.0226 10.4817 15.3359 11.4199 15.3359 13.9217V14.0781C15.3359 11.7326 17.0226 10.638 19.1693 11.889Z" fill="white"/>
</g>
<defs>
<linearGradient id="paint0_linear_1591_22253" x1="33.4293" y1="13.6237" x2="7.19128" y2="39.3512" gradientUnits="userSpaceOnUse">
<stop stop-color="#00A0FF"/>
<stop offset="0.007" stop-color="#00A1FF"/>
<stop offset="0.26" stop-color="#00BEFF"/>
<stop offset="0.512" stop-color="#00D2FF"/>
<stop offset="0.76" stop-color="#00DFFF"/>
<stop offset="1" stop-color="#00E3FF"/>
</linearGradient>
<linearGradient id="paint1_linear_1591_22253" x1="51.8827" y1="31.2811" x2="14.7806" y2="31.2811" gradientUnits="userSpaceOnUse">
<stop stop-color="#FFE000"/>
<stop offset="0.409" stop-color="#FFBD00"/>
<stop offset="0.775" stop-color="#FFA500"/>
<stop offset="1" stop-color="#FF9C00"/>
</linearGradient>
<linearGradient id="paint2_linear_1591_22253" x1="38.0667" y1="34.8687" x2="2.48756" y2="69.7577" gradientUnits="userSpaceOnUse">
<stop stop-color="#FF3A44"/>
<stop offset="1" stop-color="#C31162"/>
</linearGradient>
<linearGradient id="paint3_linear_1591_22253" x1="11.1874" y1="0.281679" x2="27.0759" y2="15.862" gradientUnits="userSpaceOnUse">
<stop stop-color="#32A071"/>
<stop offset="0.069" stop-color="#2DA771"/>
<stop offset="0.476" stop-color="#15CF74"/>
<stop offset="0.801" stop-color="#06E775"/>
<stop offset="1" stop-color="#00F076"/>
</linearGradient>
<clipPath id="clip0_1591_22253">
<rect width="207" height="62.5468" fill="white" transform="translate(0 0.770752)"/>
</clipPath>
</defs>
</svg>
