<svg width="72" height="76" viewBox="0 0 72 76" fill="none" xmlns="http://www.w3.org/2000/svg">
<mask id="mask0_6633_1802" style="mask-type:alpha" maskUnits="userSpaceOnUse" x="0" y="0" width="72" height="76">
<rect width="71.7639" height="75.8919" rx="10" fill="#D9D9D9"/>
</mask>
<g mask="url(#mask0_6633_1802)">
<ellipse cx="15.8402" cy="21.0794" rx="39.7611" ry="39.8919" fill="#15852B"/>
<ellipse opacity="0.5" cx="23.598" cy="21.0794" rx="39.7611" ry="39.8919" fill="#15852B"/>
<ellipse opacity="0.3" cx="15.8402" cy="32.1069" rx="39.7611" ry="39.8919" fill="#15852B"/>
</g>
<path d="M19.0468 26.914V20.6H21.5768V36H19.0468V29.334H12.4468V36H9.91684V20.6H12.4468V26.914H19.0468ZM29.6931 36.286C28.0871 36.286 26.7011 35.736 25.5791 34.614C24.4571 33.492 23.8851 32.128 23.8851 30.5C23.8851 28.872 24.4571 27.508 25.5791 26.386C26.7011 25.264 28.0871 24.714 29.6931 24.714C31.3211 24.714 32.6851 25.264 33.8071 26.386C34.9291 27.508 35.5011 28.872 35.5011 30.5C35.5011 32.128 34.9291 33.492 33.8071 34.614C32.6851 35.736 31.3211 36.286 29.6931 36.286ZM27.2511 32.986C27.9111 33.646 28.7251 33.976 29.6931 33.976C30.6611 33.976 31.4751 33.646 32.1351 32.986C32.7951 32.326 33.1251 31.49 33.1251 30.5C33.1251 29.51 32.7951 28.674 32.1351 28.014C31.4751 27.354 30.6611 27.024 29.6931 27.024C28.7251 27.024 27.9111 27.354 27.2511 28.014C26.5911 28.674 26.2611 29.51 26.2611 30.5C26.2611 31.49 26.5911 32.326 27.2511 32.986ZM43.5727 25V27.288H40.8447V32.568C40.8447 33.976 41.7687 33.954 43.5727 33.866V36C39.9427 36.44 38.4687 35.45 38.4687 32.568V27.288H36.4447V25H38.4687V22.624L40.8447 21.92V25H43.5727Z" fill="white"/>
</svg>
