<svg width="12" height="14" viewBox="0 0 12 14" fill="none" xmlns="http://www.w3.org/2000/svg">
<path d="M3.75781 7.9375H2.74219C2.56445 7.9375 2.4375 7.81055 2.4375 7.63281V6.61719C2.4375 6.46484 2.56445 6.3125 2.74219 6.3125H3.75781C3.91016 6.3125 4.0625 6.46484 4.0625 6.61719V7.63281C4.0625 7.81055 3.91016 7.9375 3.75781 7.9375ZM6.5 7.63281C6.5 7.81055 6.34766 7.9375 6.19531 7.9375H5.17969C5.00195 7.9375 4.875 7.81055 4.875 7.63281V6.61719C4.875 6.46484 5.00195 6.3125 5.17969 6.3125H6.19531C6.34766 6.3125 6.5 6.46484 6.5 6.61719V7.63281ZM8.9375 7.63281C8.9375 7.81055 8.78516 7.9375 8.63281 7.9375H7.61719C7.43945 7.9375 7.3125 7.81055 7.3125 7.63281V6.61719C7.3125 6.46484 7.43945 6.3125 7.61719 6.3125H8.63281C8.78516 6.3125 8.9375 6.46484 8.9375 6.61719V7.63281ZM6.5 10.0703C6.5 10.248 6.34766 10.375 6.19531 10.375H5.17969C5.00195 10.375 4.875 10.248 4.875 10.0703V9.05469C4.875 8.90234 5.00195 8.75 5.17969 8.75H6.19531C6.34766 8.75 6.5 8.90234 6.5 9.05469V10.0703ZM4.0625 10.0703C4.0625 10.248 3.91016 10.375 3.75781 10.375H2.74219C2.56445 10.375 2.4375 10.248 2.4375 10.0703V9.05469C2.4375 8.90234 2.56445 8.75 2.74219 8.75H3.75781C3.91016 8.75 4.0625 8.90234 4.0625 9.05469V10.0703ZM8.9375 10.0703C8.9375 10.248 8.78516 10.375 8.63281 10.375H7.61719C7.43945 10.375 7.3125 10.248 7.3125 10.0703V9.05469C7.3125 8.90234 7.43945 8.75 7.61719 8.75H8.63281C8.78516 8.75 8.9375 8.90234 8.9375 9.05469V10.0703ZM11.375 3.46875V12.4062C11.375 13.0918 10.8164 13.625 10.1562 13.625H1.21875C0.533203 13.625 0 13.0918 0 12.4062V3.46875C0 2.80859 0.533203 2.25 1.21875 2.25H2.4375V0.929688C2.4375 0.777344 2.56445 0.625 2.74219 0.625H3.75781C3.91016 0.625 4.0625 0.777344 4.0625 0.929688V2.25H7.3125V0.929688C7.3125 0.777344 7.43945 0.625 7.61719 0.625H8.63281C8.78516 0.625 8.9375 0.777344 8.9375 0.929688V2.25H10.1562C10.8164 2.25 11.375 2.80859 11.375 3.46875ZM10.1562 12.2539V4.6875H1.21875V12.2539C1.21875 12.3555 1.26953 12.4062 1.37109 12.4062H10.0039C10.0801 12.4062 10.1562 12.3555 10.1562 12.2539Z" fill="white"/>
</svg>
