<svg width="16" height="10" viewBox="0 0 16 10" fill="none" xmlns="http://www.w3.org/2000/svg">
<path d="M7.78125 2.28125V2.30664C9.35547 2.30664 10.625 3.57617 10.625 5.125C10.625 6.69922 9.35547 7.96875 7.78125 7.96875C6.20703 7.96875 4.9375 6.69922 4.9375 5.125C4.9375 4.8457 4.98828 4.5918 5.06445 4.33789C5.24219 4.46484 5.49609 4.51562 5.75 4.51562C6.51172 4.51562 7.17188 3.88086 7.17188 3.09375C7.14648 2.86523 7.0957 2.61133 6.96875 2.4082C7.22266 2.33203 7.50195 2.30664 7.78125 2.28125ZM14.9922 4.76953C15.043 4.87109 15.0684 4.99805 15.0684 5.15039C15.0684 5.27734 15.043 5.4043 14.9922 5.50586C13.6211 8.19727 10.8789 10 7.78125 10C4.6582 10 1.91602 8.19727 0.544922 5.50586C0.494141 5.4043 0.46875 5.27734 0.46875 5.125C0.46875 4.99805 0.494141 4.87109 0.544922 4.76953C1.91602 2.07812 4.6582 0.25 7.78125 0.25C10.8789 0.25 13.6211 2.07812 14.9922 4.76953ZM7.78125 8.78125C10.2695 8.78125 12.5801 7.38477 13.7988 5.125C12.5801 2.86523 10.2695 1.46875 7.78125 1.46875C5.26758 1.46875 2.95703 2.86523 1.73828 5.125C2.95703 7.38477 5.26758 8.78125 7.78125 8.78125Z" fill="#999999"/>
</svg>
