<svg width="15" height="10" viewBox="0 0 15 10" fill="none" xmlns="http://www.w3.org/2000/svg">
<path d="M14.0156 0.25C14.3457 0.25 14.625 0.529297 14.625 0.859375V9.39062C14.625 9.74609 14.3457 10 14.0156 10H1.42188C0.634766 10 0 9.36523 0 8.57812V1.67188C0 1.3418 0.253906 1.0625 0.609375 1.0625H1.67578C1.85352 0.605469 2.31055 0.25 2.84375 0.25H14.0156ZM1.21875 8.57812C1.21875 8.70508 1.29492 8.78125 1.42188 8.78125C1.52344 8.78125 1.625 8.70508 1.625 8.57812V2.28125H1.21875V8.57812ZM13.4062 8.78125V1.46875H2.84375V8.57812C2.84375 8.6543 2.81836 8.73047 2.81836 8.78125H13.4062ZM4.36719 5.73438C4.18945 5.73438 4.0625 5.60742 4.0625 5.42969V2.99219C4.0625 2.83984 4.18945 2.6875 4.36719 2.6875H7.82031C7.97266 2.6875 8.125 2.83984 8.125 2.99219V5.42969C8.125 5.60742 7.97266 5.73438 7.82031 5.73438H4.36719ZM5.07812 3.70312V4.71875H7.10938V3.70312H5.07812ZM4.0625 7.25781V6.64844C4.0625 6.49609 4.18945 6.34375 4.36719 6.34375H7.82031C7.97266 6.34375 8.125 6.49609 8.125 6.64844V7.25781C8.125 7.43555 7.97266 7.5625 7.82031 7.5625H4.36719C4.18945 7.5625 4.0625 7.43555 4.0625 7.25781ZM8.9375 7.25781V6.64844C8.9375 6.49609 9.06445 6.34375 9.24219 6.34375H11.8828C12.0352 6.34375 12.1875 6.49609 12.1875 6.64844V7.25781C12.1875 7.43555 12.0352 7.5625 11.8828 7.5625H9.24219C9.06445 7.5625 8.9375 7.43555 8.9375 7.25781ZM8.9375 3.60156V2.99219C8.9375 2.83984 9.06445 2.6875 9.24219 2.6875H11.8828C12.0352 2.6875 12.1875 2.83984 12.1875 2.99219V3.60156C12.1875 3.7793 12.0352 3.90625 11.8828 3.90625H9.24219C9.06445 3.90625 8.9375 3.7793 8.9375 3.60156ZM8.9375 5.42969V4.82031C8.9375 4.66797 9.06445 4.51562 9.24219 4.51562H11.8828C12.0352 4.51562 12.1875 4.66797 12.1875 4.82031V5.42969C12.1875 5.60742 12.0352 5.73438 11.8828 5.73438H9.24219C9.06445 5.73438 8.9375 5.60742 8.9375 5.42969Z" fill="white"/>
</svg>
