<svg width="11" height="14" viewBox="0 0 11 14" fill="none" xmlns="http://www.w3.org/2000/svg">
<path d="M10.291 0.625C10.4434 0.625 10.5957 0.777344 10.5957 0.929688V1.53906C10.5957 1.7168 10.4434 1.84375 10.291 1.84375H10.1895C10.1895 3.90039 9.37695 6.05859 7.70117 7.125C9.35156 8.2168 10.1895 10.375 10.1895 12.4062H10.291C10.4434 12.4062 10.5957 12.5586 10.5957 12.7109V13.3203C10.5957 13.498 10.4434 13.625 10.291 13.625H1.15039C0.972656 13.625 0.845703 13.498 0.845703 13.3203V12.7109C0.845703 12.5586 0.972656 12.4062 1.15039 12.4062H1.25195C1.25195 10.375 2.03906 8.2168 3.71484 7.125C2.06445 6.05859 1.25195 3.90039 1.25195 1.84375H1.15039C0.972656 1.84375 0.845703 1.7168 0.845703 1.53906V0.929688C0.845703 0.777344 0.972656 0.625 1.15039 0.625H10.291ZM8.9707 12.4062C8.9707 9.8418 7.49805 7.73438 5.7207 7.73438C3.91797 7.73438 2.4707 9.8418 2.4707 12.4062H8.9707Z" fill="#999999"/>
</svg>
