<svg width="41" height="40" viewBox="0 0 41 40" fill="none" xmlns="http://www.w3.org/2000/svg">
<path d="M17.9033 37.9171C16.4977 37.338 16.0211 36.596 16.0211 35.0396C16.0211 34.189 15.997 33.3384 16.0211 32.4878C16.0875 30.678 15.3334 29.2604 13.9761 28.1323C12.8299 27.1792 11.8707 26.0873 11.1951 24.7601C8.69159 19.8436 10.4652 13.8291 15.2309 11.0421C21.6736 7.27175 29.7693 11.1085 30.819 18.5044C31.3499 22.2687 30.1796 25.484 27.1995 27.9393C25.6913 29.182 24.9131 30.7203 24.9674 32.6808C24.9916 33.6099 24.9674 34.5449 24.9674 35.4799C24.9674 36.7106 24.3521 37.519 23.1697 37.8628C23.1396 37.8749 23.0792 37.9171 23.0792 37.9171H17.9033ZM23.4714 31.9268C23.5196 31.6071 23.5558 31.3175 23.6161 31.034C24.0083 29.2544 24.9916 27.8729 26.3609 26.6905C28.9549 24.4464 29.9141 21.5629 29.2686 18.2329C28.3215 13.3827 23.8454 10.3725 18.9771 11.1808C14.0425 12.0073 10.616 17.1893 11.7863 22.0394C12.2689 24.0362 13.2703 25.6891 14.8991 26.956C16.0875 27.885 16.9321 29.0673 17.3121 30.5453C17.4267 30.9917 17.475 31.4562 17.5534 31.9268H23.4714ZM23.4774 33.453H17.5534C17.5534 34.2252 17.5232 34.9792 17.5655 35.7333C17.5896 36.1677 17.843 36.409 18.2291 36.415C19.7432 36.4271 21.2574 36.4331 22.7716 36.415C23.2059 36.415 23.4593 36.1616 23.4774 35.7393C23.5015 34.9853 23.4834 34.2312 23.4834 33.453H23.4774Z" fill="url(#paint0_linear_6603_1161)" stroke="url(#paint1_linear_6603_1161)" stroke-width="0.3" stroke-miterlimit="10"/>
<path d="M38.4077 20.2165C38.2388 20.6328 37.9251 20.7595 37.4968 20.7534C36.598 20.7414 35.7051 20.7534 34.8063 20.7534C34.5047 20.7534 34.2211 20.6991 34.0462 20.4156C33.7446 19.939 34.0281 19.2936 34.5952 19.2694C35.6388 19.2332 36.6884 19.2513 37.7381 19.2634C38.082 19.2634 38.281 19.4987 38.4077 19.7943V20.0054V20.2165Z" fill="url(#paint2_linear_6603_1161)" stroke="url(#paint3_linear_6603_1161)" stroke-width="0.3" stroke-miterlimit="10"/>
<path d="M21.2512 4.33955C21.2512 4.80405 21.2572 5.27459 21.2512 5.7391C21.2391 6.26393 20.9616 6.55952 20.5032 6.55952C20.0387 6.55952 19.7612 6.26393 19.7551 5.7391C19.7431 4.79199 19.7431 3.85091 19.7551 2.9038C19.7551 2.37897 20.0387 2.08337 20.5032 2.08337C20.9677 2.08337 21.2391 2.37294 21.2512 2.9038C21.2633 3.38037 21.2512 3.85694 21.2512 4.33955Z" fill="#115231" stroke="#115231" stroke-width="0.361953" stroke-miterlimit="10"/>
<path d="M4.82509 20.7535C4.36059 20.7535 3.89004 20.7596 3.42554 20.7535C2.87658 20.7415 2.58097 20.464 2.587 19.9874C2.59304 19.5289 2.89467 19.2575 3.42554 19.2575C4.36058 19.2514 5.2896 19.2514 6.22465 19.2575C6.75551 19.2575 7.05112 19.5289 7.06318 19.9874C7.07525 20.464 6.77361 20.7475 6.22465 20.7535C5.76014 20.7596 5.2896 20.7535 4.82509 20.7535Z" fill="url(#paint4_linear_6603_1161)" stroke="url(#paint5_linear_6603_1161)" stroke-width="0.3" stroke-miterlimit="10"/>
<path d="M21.2512 4.33942C21.2512 4.80393 21.2572 5.27447 21.2512 5.73898C21.2391 6.26381 20.9616 6.5594 20.5032 6.5594C20.0387 6.5594 19.7612 6.26381 19.7551 5.73898C19.7431 4.79187 19.7431 3.85079 19.7551 2.90368C19.7551 2.37885 20.0387 2.08325 20.5032 2.08325C20.9677 2.08325 21.2391 2.37281 21.2512 2.90368C21.2633 3.38025 21.2512 3.85682 21.2512 4.33942Z" fill="url(#paint6_linear_6603_1161)" stroke="url(#paint7_linear_6603_1161)" stroke-width="0.3" stroke-miterlimit="10"/>
<path d="M10.4652 10.8425C10.2618 10.8485 9.98258 10.6615 9.84986 10.5228C9.15612 9.80492 8.48046 9.06895 7.79878 8.33298C7.58764 8.10977 7.5032 7.81418 7.66004 7.56684C7.78069 7.3738 8.00994 7.19886 8.23314 7.12647C8.38396 7.07217 8.64936 7.14456 8.77001 7.26521C9.53011 7.98309 10.2661 8.72509 10.996 9.47916C11.2072 9.69633 11.2494 10.004 11.0745 10.2513C10.9176 10.4745 10.6824 10.6374 10.4652 10.8425Z" fill="url(#paint8_linear_6603_1161)" stroke="url(#paint9_linear_6603_1161)" stroke-width="0.3" stroke-miterlimit="10"/>
<path d="M32.5656 32.9922C32.3243 32.8534 32.0469 32.7569 31.8538 32.5759C31.2144 31.9787 30.6051 31.3513 29.9958 30.7239C29.6519 30.3801 29.6218 30.0181 29.8812 29.6924C30.1526 29.3485 30.6111 29.2822 30.9308 29.5898C31.6728 30.3017 32.3907 31.0316 33.1086 31.7615C33.3258 31.9787 33.3439 32.2622 33.2172 32.5458C33.1026 32.7991 32.9397 32.9801 32.6079 32.8836C32.5958 32.9198 32.5838 32.956 32.5717 32.9922H32.5656Z" fill="url(#paint10_linear_6603_1161)" stroke="url(#paint11_linear_6603_1161)" stroke-width="0.3" stroke-miterlimit="10"/>
<path d="M8.38386 32.8854C8.04604 32.8372 7.77456 32.7648 7.64787 32.4451C7.52722 32.1314 7.60565 31.8539 7.84092 31.6186C8.5226 30.9369 9.20429 30.2492 9.892 29.5736C10.2238 29.2478 10.6461 29.2599 10.9477 29.5675C11.2373 29.8631 11.2493 30.2794 10.9417 30.5991C10.266 31.2928 9.58432 31.9745 8.89058 32.6441C8.76389 32.7708 8.55277 32.813 8.38386 32.8915V32.8854Z" fill="url(#paint12_linear_6603_1161)" stroke="url(#paint13_linear_6603_1161)" stroke-width="0.3" stroke-miterlimit="10"/>
<path d="M32.3936 7.24121C32.84 7.25328 33.0632 7.40409 33.1899 7.68159C33.3106 7.94702 33.2985 8.22452 33.0934 8.43566C32.3936 9.15353 31.6939 9.8714 30.97 10.5651C30.6804 10.8426 30.1073 10.8064 29.8781 10.5531C29.5885 10.2394 29.6247 9.84727 29.9927 9.47325C30.6321 8.82777 31.2716 8.18229 31.9231 7.54887C32.0799 7.39806 32.2476 7.23518 32.3936 7.24121Z" fill="url(#paint14_linear_6603_1161)" stroke="url(#paint15_linear_6603_1161)" stroke-width="0.3" stroke-miterlimit="10"/>
<path d="M20.6782 13.2864C24.2615 13.3528 27.2174 16.363 27.2174 19.8981C27.2174 20.5315 26.7891 20.8814 26.2281 20.7064C25.8601 20.5918 25.7395 20.3143 25.7335 19.9524C25.6973 18.6976 25.281 17.5816 24.4606 16.6284C23.429 15.44 22.1139 14.8247 20.5394 14.7644C19.9 14.7403 19.5622 14.1853 19.8517 13.6484C20.0448 13.2924 20.3765 13.2623 20.6842 13.2804L20.6782 13.2864Z" fill="url(#paint16_linear_6603_1161)" stroke="url(#paint17_linear_6603_1161)" stroke-width="0.3" stroke-miterlimit="10"/>
<defs>
<linearGradient id="paint0_linear_6603_1161" x1="10.0615" y1="23.7445" x2="30.9428" y2="23.7445" gradientUnits="userSpaceOnUse">
<stop offset="0.0625" stop-color="#C7863D"/>
<stop offset="0.5" stop-color="#FFCE6F"/>
<stop offset="0.9375" stop-color="#C7863D"/>
</linearGradient>
<linearGradient id="paint1_linear_6603_1161" x1="10.0615" y1="23.7445" x2="30.9428" y2="23.7445" gradientUnits="userSpaceOnUse">
<stop offset="0.0625" stop-color="#C7863D"/>
<stop offset="0.5" stop-color="#FFCE6F"/>
<stop offset="0.9375" stop-color="#C7863D"/>
</linearGradient>
<linearGradient id="paint2_linear_6603_1161" x1="33.9238" y1="20.0008" x2="38.4077" y2="20.0008" gradientUnits="userSpaceOnUse">
<stop offset="0.0625" stop-color="#C7863D"/>
<stop offset="0.5" stop-color="#FFCE6F"/>
<stop offset="0.9375" stop-color="#C7863D"/>
</linearGradient>
<linearGradient id="paint3_linear_6603_1161" x1="33.9238" y1="20.0008" x2="38.4077" y2="20.0008" gradientUnits="userSpaceOnUse">
<stop offset="0.0625" stop-color="#C7863D"/>
<stop offset="0.5" stop-color="#FFCE6F"/>
<stop offset="0.9375" stop-color="#C7863D"/>
</linearGradient>
<linearGradient id="paint4_linear_6603_1161" x1="2.58691" y1="20.0046" x2="7.06353" y2="20.0046" gradientUnits="userSpaceOnUse">
<stop offset="0.0625" stop-color="#C7863D"/>
<stop offset="0.5" stop-color="#FFCE6F"/>
<stop offset="0.9375" stop-color="#C7863D"/>
</linearGradient>
<linearGradient id="paint5_linear_6603_1161" x1="2.58691" y1="20.0046" x2="7.06353" y2="20.0046" gradientUnits="userSpaceOnUse">
<stop offset="0.0625" stop-color="#C7863D"/>
<stop offset="0.5" stop-color="#FFCE6F"/>
<stop offset="0.9375" stop-color="#C7863D"/>
</linearGradient>
<linearGradient id="paint6_linear_6603_1161" x1="19.7461" y1="4.32133" x2="21.2566" y2="4.32133" gradientUnits="userSpaceOnUse">
<stop offset="0.0625" stop-color="#C7863D"/>
<stop offset="0.5" stop-color="#FFCE6F"/>
<stop offset="0.9375" stop-color="#C7863D"/>
</linearGradient>
<linearGradient id="paint7_linear_6603_1161" x1="19.7461" y1="4.32133" x2="21.2566" y2="4.32133" gradientUnits="userSpaceOnUse">
<stop offset="0.0625" stop-color="#C7863D"/>
<stop offset="0.5" stop-color="#FFCE6F"/>
<stop offset="0.9375" stop-color="#C7863D"/>
</linearGradient>
<linearGradient id="paint8_linear_6603_1161" x1="7.5791" y1="8.97533" x2="11.1835" y2="8.97533" gradientUnits="userSpaceOnUse">
<stop offset="0.0625" stop-color="#C7863D"/>
<stop offset="0.5" stop-color="#FFCE6F"/>
<stop offset="0.9375" stop-color="#C7863D"/>
</linearGradient>
<linearGradient id="paint9_linear_6603_1161" x1="7.5791" y1="8.97533" x2="11.1835" y2="8.97533" gradientUnits="userSpaceOnUse">
<stop offset="0.0625" stop-color="#C7863D"/>
<stop offset="0.5" stop-color="#FFCE6F"/>
<stop offset="0.9375" stop-color="#C7863D"/>
</linearGradient>
<linearGradient id="paint10_linear_6603_1161" x1="29.709" y1="31.1924" x2="33.2962" y2="31.1924" gradientUnits="userSpaceOnUse">
<stop offset="0.0625" stop-color="#C7863D"/>
<stop offset="0.5" stop-color="#FFCE6F"/>
<stop offset="0.9375" stop-color="#C7863D"/>
</linearGradient>
<linearGradient id="paint11_linear_6603_1161" x1="29.709" y1="31.1924" x2="33.2962" y2="31.1924" gradientUnits="userSpaceOnUse">
<stop offset="0.0625" stop-color="#C7863D"/>
<stop offset="0.5" stop-color="#FFCE6F"/>
<stop offset="0.9375" stop-color="#C7863D"/>
</linearGradient>
<linearGradient id="paint12_linear_6603_1161" x1="7.5918" y1="31.1122" x2="11.1686" y2="31.1122" gradientUnits="userSpaceOnUse">
<stop offset="0.0625" stop-color="#C7863D"/>
<stop offset="0.5" stop-color="#FFCE6F"/>
<stop offset="0.9375" stop-color="#C7863D"/>
</linearGradient>
<linearGradient id="paint13_linear_6603_1161" x1="7.5918" y1="31.1122" x2="11.1686" y2="31.1122" gradientUnits="userSpaceOnUse">
<stop offset="0.0625" stop-color="#C7863D"/>
<stop offset="0.5" stop-color="#FFCE6F"/>
<stop offset="0.9375" stop-color="#C7863D"/>
</linearGradient>
<linearGradient id="paint14_linear_6603_1161" x1="29.6855" y1="8.9999" x2="33.2672" y2="8.9999" gradientUnits="userSpaceOnUse">
<stop offset="0.0625" stop-color="#C7863D"/>
<stop offset="0.5" stop-color="#FFCE6F"/>
<stop offset="0.9375" stop-color="#C7863D"/>
</linearGradient>
<linearGradient id="paint15_linear_6603_1161" x1="29.6855" y1="8.9999" x2="33.2672" y2="8.9999" gradientUnits="userSpaceOnUse">
<stop offset="0.0625" stop-color="#C7863D"/>
<stop offset="0.5" stop-color="#FFCE6F"/>
<stop offset="0.9375" stop-color="#C7863D"/>
</linearGradient>
<linearGradient id="paint16_linear_6603_1161" x1="19.7471" y1="17.0139" x2="27.2174" y2="17.0139" gradientUnits="userSpaceOnUse">
<stop offset="0.0625" stop-color="#C7863D"/>
<stop offset="0.5" stop-color="#FFCE6F"/>
<stop offset="0.9375" stop-color="#C7863D"/>
</linearGradient>
<linearGradient id="paint17_linear_6603_1161" x1="19.7471" y1="17.0139" x2="27.2174" y2="17.0139" gradientUnits="userSpaceOnUse">
<stop offset="0.0625" stop-color="#C7863D"/>
<stop offset="0.5" stop-color="#FFCE6F"/>
<stop offset="0.9375" stop-color="#C7863D"/>
</linearGradient>
</defs>
</svg>
