<svg width="56" height="57" viewBox="0 0 56 57" fill="none" xmlns="http://www.w3.org/2000/svg">
<path d="M22 32.0705C22 35.3787 24.6915 38.0705 28 38.0705C29.1323 38.0705 30.2371 37.75 31.1948 37.1436C31.4749 36.9666 31.5581 36.5957 31.3812 36.3157C31.2039 36.0356 30.8333 35.9512 30.5532 36.1299C29.7874 36.6145 28.9047 36.8705 28 36.8705C25.3533 36.8705 23.2 34.7172 23.2 32.0705C23.2 29.4239 25.3533 27.2705 28 27.2705C30.6467 27.2705 32.8 29.4239 32.8 32.0705C32.8 32.9752 32.544 33.8582 32.0594 34.6235C31.8818 34.9035 31.965 35.2744 32.2451 35.4514C32.5252 35.6289 32.8955 35.5451 33.0731 35.2656C33.6795 34.3076 34 33.2032 34 32.0705C34 28.762 31.3085 26.0705 28 26.0705C24.6915 26.0705 22 28.762 22 32.0705Z" fill="url(#paint0_linear_1093_9489)"/>
<path fill-rule="evenodd" clip-rule="evenodd" d="M27.5424 28.4159H28.7575V29.1516C29.7065 29.342 30.525 29.9758 30.525 30.8738V31.0078H29.3098V30.8738C29.3098 30.5724 28.9118 30.1538 28.15 30.1538C27.3881 30.1538 26.9901 30.5724 26.9901 30.8738C26.9901 30.9968 27.0526 31.1188 27.2725 31.2556C27.5063 31.4011 27.8606 31.5212 28.2871 31.6074C28.7667 31.7044 29.2936 31.8646 29.7152 32.1242C30.1445 32.3886 30.525 32.7995 30.525 33.3763C30.525 34.2743 29.7065 34.9081 28.7575 35.0985V35.8342H27.5424V35.0985C26.5934 34.9081 25.775 34.2743 25.775 33.3763V33.2422H26.9901V33.3763C26.9901 33.6776 27.3881 34.0963 28.15 34.0963C28.9118 34.0963 29.3098 33.6776 29.3098 33.3763C29.3098 33.2611 29.2471 33.1359 29.015 32.9929C28.7738 32.8444 28.417 32.7244 28.0128 32.6426C27.5161 32.5422 26.9866 32.3821 26.5676 32.1215C26.1358 31.8528 25.775 31.4428 25.775 30.8738C25.775 29.9758 26.5934 29.342 27.5424 29.1516V28.4159Z" fill="url(#paint1_linear_1093_9489)"/>
<path d="M21.2014 20.1805C20.7369 20.1805 20.3604 20.5387 20.3604 20.9805C20.3604 21.4224 20.7369 21.7805 21.2014 21.7805H22.2525C22.7169 21.7805 23.0934 21.4224 23.0934 20.9805C23.0934 20.5387 22.7169 20.1805 22.2525 20.1805H21.2014Z" fill="url(#paint2_linear_1093_9489)"/>
<path d="M34.9428 20.1805H25.3486C24.8842 20.1805 24.5077 20.5387 24.5077 20.9805C24.5077 21.4224 24.8842 21.7805 25.3486 21.7805H34.9428C35.4072 21.7805 35.7837 21.4224 35.7837 20.9805C35.7837 20.5387 35.4072 20.1805 34.9428 20.1805Z" fill="url(#paint3_linear_1093_9489)"/>
<path fill-rule="evenodd" clip-rule="evenodd" d="M17.9773 38.7514C16.6533 37.4605 16 35.6168 16 33.4147V23.9263C16 21.7243 16.6533 19.8805 17.9773 18.5897C19.2982 17.3017 21.1778 16.6705 23.4204 16.6705H32.5796C34.8222 16.6705 36.7018 17.3017 38.0227 18.5897C39.3467 19.8805 40 21.7243 40 23.9263V33.4147C40 35.6168 39.3467 37.4605 38.0227 38.7514C36.7018 40.0393 34.8222 40.6705 32.5796 40.6705H23.4204C21.1778 40.6705 19.2982 40.0393 17.9773 38.7514ZM38.4 25.1805H17.6L17.6 33.4147C17.6 34.5946 17.8164 35.5786 18.2082 36.3746C18.2572 36.4741 18.3089 36.5706 18.3633 36.6642C18.3888 36.7082 18.4149 36.7515 18.4416 36.7942C18.631 37.0969 18.8495 37.3672 19.0942 37.6058C19.2121 37.7207 19.3376 37.8298 19.4709 37.9327C20.4035 38.653 21.7136 39.0705 23.4204 39.0705H32.5796C34.5302 39.0705 35.9627 38.5252 36.9058 37.6058C37.1504 37.3672 37.3689 37.0969 37.5583 36.7942C37.5748 36.7679 37.591 36.7414 37.607 36.7146C38.115 35.8648 38.4 34.7687 38.4 33.4147V25.1805ZM23.4204 18.2705C21.4698 18.2705 20.0373 18.8158 19.0942 19.7353C18.1952 20.6118 17.6494 21.9177 17.6032 23.6805H38.3968C38.3506 21.9177 37.8048 20.6118 36.9058 19.7353C35.9627 18.8158 34.5302 18.2705 32.5796 18.2705H23.4204Z" fill="url(#paint4_linear_1093_9489)"/>
<defs>
<linearGradient id="paint0_linear_1093_9489" x1="40" y1="28.8656" x2="16" y2="28.8656" gradientUnits="userSpaceOnUse">
<stop stop-color="#025436"/>
<stop offset="1" stop-color="#053725"/>
</linearGradient>
<linearGradient id="paint1_linear_1093_9489" x1="40" y1="28.8656" x2="16" y2="28.8656" gradientUnits="userSpaceOnUse">
<stop stop-color="#025436"/>
<stop offset="1" stop-color="#053725"/>
</linearGradient>
<linearGradient id="paint2_linear_1093_9489" x1="40" y1="28.8656" x2="16" y2="28.8656" gradientUnits="userSpaceOnUse">
<stop stop-color="#025436"/>
<stop offset="1" stop-color="#053725"/>
</linearGradient>
<linearGradient id="paint3_linear_1093_9489" x1="40" y1="28.8656" x2="16" y2="28.8656" gradientUnits="userSpaceOnUse">
<stop stop-color="#025436"/>
<stop offset="1" stop-color="#053725"/>
</linearGradient>
<linearGradient id="paint4_linear_1093_9489" x1="40" y1="28.8656" x2="16" y2="28.8656" gradientUnits="userSpaceOnUse">
<stop stop-color="#025436"/>
<stop offset="1" stop-color="#053725"/>
</linearGradient>
</defs>
</svg>
