<svg width="50" height="50" viewBox="0 0 50 50" fill="none" xmlns="http://www.w3.org/2000/svg">
<path d="M24.9951 49.3207C38.4284 49.3207 49.3183 38.4308 49.3183 24.9975C49.3183 11.5642 38.4284 0.674316 24.9951 0.674316C11.5617 0.674316 0.671875 11.5642 0.671875 24.9975C0.671875 38.4308 11.5617 49.3207 24.9951 49.3207Z" fill="#15852B"/>
<path d="M40.9686 14.772C40.7854 15.0096 40.6238 15.2696 40.4142 15.4816C39.4006 16.5096 38.367 17.5176 37.3574 18.5496C37.0598 18.8536 36.7254 18.996 36.311 19.0336C34.8326 19.1696 33.355 19.316 31.879 19.4744C31.747 19.4888 31.6038 19.5912 31.5038 19.6912C29.7006 21.4824 27.9014 23.2776 26.1054 25.076C25.7998 25.3824 25.455 25.524 25.0294 25.3848C24.3894 25.176 24.1518 24.4008 24.5646 23.8696C24.6326 23.7816 24.7158 23.7056 24.795 23.6264C26.5718 21.852 28.3518 20.0808 30.1214 18.2992C30.2366 18.1832 30.323 17.996 30.3406 17.8328C30.4998 16.3696 30.6446 14.9048 30.783 13.4392C30.819 13.056 30.9686 12.7528 31.2462 12.4808C32.3278 11.42 33.3982 10.348 34.4638 9.27121C34.7998 8.93201 35.1686 8.74561 35.639 8.93121C36.0926 9.11041 36.2446 9.48241 36.275 9.94721C36.343 10.9904 36.4374 12.0328 36.5126 13.0752C36.5246 13.2456 36.595 13.2952 36.7558 13.3064C37.7598 13.38 38.7622 13.4864 39.7678 13.532C40.3358 13.5576 40.739 13.7608 40.9686 14.2832V14.7712V14.772ZM37.8014 15.3464C37.6494 15.3328 37.5726 15.3248 37.4958 15.3184C36.8374 15.2632 36.1782 15.2224 35.5222 15.1496C35.031 15.0952 34.7278 14.7888 34.667 14.3032C34.6126 13.8712 34.591 13.4344 34.5542 13C34.5278 12.6952 34.4998 12.3904 34.467 12.0208C33.907 12.5824 33.3942 13.0864 32.8958 13.6056C32.7998 13.7056 32.7246 13.8576 32.7086 13.9936C32.6198 14.7384 32.5518 15.4864 32.4774 16.2328C32.4374 16.632 32.3974 17.0312 32.355 17.4568C33.3046 17.364 34.211 17.2264 35.1206 17.2008C35.8334 17.1808 36.3398 16.8984 36.779 16.372C37.0734 16.0184 37.4286 15.716 37.8022 15.3448L37.8014 15.3464Z" fill="white"/>
<path d="M25.4445 35.1775C20.0861 35.1207 15.5101 31.1607 14.7637 25.8839C13.9725 20.2871 17.6285 15.0543 23.1965 13.8447C24.8933 13.4759 26.5917 13.5239 28.2693 13.9903C28.7325 14.1191 28.9989 14.4751 29.0037 14.9223C29.0085 15.3567 28.7429 15.7503 28.3117 15.8495C28.0957 15.8991 27.8469 15.8743 27.6253 15.8263C24.0677 15.0543 21.0381 15.9847 18.6669 18.7407C15.0549 22.9399 16.3677 29.5391 21.2757 32.1263C26.5221 34.8911 32.8885 31.9023 34.0845 26.1047C34.3485 24.8247 34.3125 23.5439 34.0109 22.2679C33.9517 22.0183 33.9165 21.7391 33.9677 21.4943C34.0589 21.0639 34.4581 20.8007 34.8957 20.8031C35.3261 20.8055 35.6965 21.0743 35.8221 21.5071C36.1061 22.4895 36.2181 23.4943 36.2077 24.5159C36.1549 29.5175 32.5821 33.8407 27.7053 34.8735C26.9629 35.0303 26.1981 35.0791 25.4437 35.1775H25.4445Z" fill="white"/>
<path d="M25.6301 20.4683C23.5037 20.4227 21.8229 21.8811 21.5549 23.9555C21.3085 25.8667 22.6517 27.7251 24.6069 28.1763C26.9469 28.7163 29.2709 26.9179 29.3581 24.5139C29.3669 24.2635 29.4405 23.9867 29.5701 23.7747C29.7829 23.4259 30.2365 23.3147 30.6261 23.4419C31.0381 23.5763 31.3109 23.9379 31.3037 24.3891C31.2741 26.1867 30.5973 27.7091 29.2005 28.8395C27.2565 30.4131 25.0757 30.7027 22.8381 29.5835C20.5789 28.4531 19.4861 26.5195 19.6021 23.9979C19.7501 20.7811 22.6437 18.2787 25.8501 18.5363C26.1261 18.5587 26.4285 18.6731 26.6509 18.8363C26.9805 19.0787 27.0461 19.5163 26.8829 19.8875C26.7173 20.2651 26.4213 20.4731 26.0037 20.4867C25.8621 20.4915 25.7197 20.4731 25.6301 20.4683Z" fill="white"/>
</svg>
