<svg width="24" height="24" viewBox="0 0 24 24" fill="none" xmlns="http://www.w3.org/2000/svg">
<path d="M10 21.9987H14C17.7712 21.9987 19.6569 21.9987 20.8284 20.8272C22 19.6556 22 17.77 22 13.9987C22 10.2275 22 8.34189 20.8284 7.17031C20.4658 6.80771 20.0343 6.55733 19.4996 6.38445C19.5 6.55397 19.5 6.72734 19.5 6.90371L19.5 9.06181C19.5 9.09116 19.5003 9.12314 19.5006 9.15746C19.5035 9.49792 19.5085 10.0685 19.264 10.5906C19.0195 11.1126 18.578 11.4741 18.3145 11.6898C18.2882 11.7113 18.263 11.7319 18.2407 11.7506L16.7342 13.006C15.8734 13.7234 15.1241 14.3478 14.4505 14.7811C13.7245 15.2481 12.9391 15.5934 12 15.5934C11.0609 15.5934 10.2756 15.2481 9.54949 14.7811C8.87589 14.3478 8.12661 13.7234 7.26587 13.006L5.75937 11.7506C5.73681 11.7318 5.71207 11.7115 5.68551 11.6898C5.42207 11.4741 4.98056 11.1126 4.73604 10.5906C4.49152 10.0685 4.49648 9.49792 4.49944 9.15746C4.49973 9.12315 4.50001 9.09116 4.50001 9.06181L4.50001 6.9037C4.49999 6.72712 4.49998 6.55381 4.5004 6.38409C3.96577 6.55699 3.53442 6.80746 3.17157 7.17031C2 8.34189 2 10.2275 2 13.9987C2 17.77 2 19.6556 3.17157 20.8272C4.34314 21.9987 6.22877 21.9987 10 21.9987Z" fill="#292929"/>
<path fill-rule="evenodd" clip-rule="evenodd" d="M6.71972 10.5982L8.15898 11.7976C9.99562 13.3281 10.9139 14.0934 12.0001 14.0934C13.0862 14.0934 14.0046 13.3281 15.8412 11.7976L17.2805 10.5982C17.6343 10.3033 17.8113 10.1559 17.9057 9.95432C18.0001 9.75275 18.0001 9.52243 18.0001 9.06179V6.99854C18.0001 6.6779 18.0001 6.37908 17.9982 6.10022C17.9865 4.32914 17.9005 3.36339 17.2679 2.73077C16.5356 1.99854 15.3571 1.99854 13.0001 1.99854H11.0001C8.64306 1.99854 7.46455 1.99854 6.73232 2.73077C6.09969 3.36339 6.01179 4.32914 6.00009 6.10022C5.99824 6.37908 6.00009 6.6779 6.00009 6.99854V9.06179C6.00009 9.52243 6.00009 9.75275 6.0945 9.95432C6.18891 10.1559 6.36584 10.3033 6.71972 10.5982ZM9.25 5.99854C9.25 5.58432 9.58579 5.24854 10 5.24854H14C14.4142 5.24854 14.75 5.58432 14.75 5.99854C14.75 6.41275 14.4142 6.74854 14 6.74854H10C9.58579 6.74854 9.25 6.41275 9.25 5.99854ZM10.25 8.99854C10.25 8.58432 10.5858 8.24854 11 8.24854H13C13.4142 8.24854 13.75 8.58432 13.75 8.99854C13.75 9.41275 13.4142 9.74854 13 9.74854H11C10.5858 9.74854 10.25 9.41275 10.25 8.99854Z" fill="#292929"/>
</svg>
