<svg width="24" height="24" viewBox="0 0 24 24" fill="none" xmlns="http://www.w3.org/2000/svg">
<path d="M19 4.99854L15 8.99854M15 8.99854V5.99854M15 8.99854H18" stroke="#292929" stroke-width="1.5" stroke-linecap="round" stroke-linejoin="round"/>
<path d="M15.5562 14.5462L15.1007 15.0257C15.1007 15.0257 14.0181 16.1655 11.0631 13.0544C8.10812 9.94337 9.1907 8.80361 9.1907 8.80361L9.47752 8.50165C10.1841 7.75778 10.2507 6.5635 9.63424 5.69164L8.37326 3.90815C7.61028 2.82903 6.13596 2.68648 5.26145 3.60718L3.69185 5.25967C3.25823 5.71619 2.96765 6.30799 3.00289 6.96447C3.09304 8.64399 3.81071 12.2576 7.81536 16.4737C12.0621 20.9448 16.0468 21.1225 17.6763 20.9616C18.1917 20.9108 18.6399 20.6328 19.0011 20.2525L20.4217 18.757C21.3806 17.7474 21.1102 16.0167 19.8833 15.3105L17.9728 14.2109C17.1672 13.7472 16.1858 13.8834 15.5562 14.5462Z" fill="#292929"/>
</svg>
