<svg width="248" height="408" viewBox="0 0 248 408" fill="none" xmlns="http://www.w3.org/2000/svg">
<g opacity="0.6">
<path d="M331.471 388.584L65.46 117.232C54.2332 105.776 54.8783 87.2579 66.8681 76.6164L156.734 -3.16828" stroke="white" stroke-width="0.6964" stroke-miterlimit="10"/>
<path d="M343.772 387.823L77.4949 116.196C66.4093 104.893 67.0377 86.6037 78.8824 76.0808L169.03 -3.9556" stroke="white" stroke-width="0.6964" stroke-miterlimit="10"/>
<path d="M356.066 387.057L89.5416 115.174C78.6006 104.01 79.2237 85.9544 90.9167 75.5727L181.343 -4.70398" stroke="white" stroke-width="0.6964" stroke-miterlimit="10"/>
<path d="M368.366 386.296L101.572 114.151C90.7641 103.124 91.3786 85.3124 102.923 75.0606L193.621 -5.47105" stroke="white" stroke-width="0.6964" stroke-miterlimit="10"/>
<path d="M380.669 385.533L113.62 113.117C102.953 102.242 103.566 84.6517 114.959 74.5412L205.935 -6.23073" stroke="white" stroke-width="0.6964" stroke-miterlimit="10"/>
<path d="M392.971 384.774L125.652 112.096C115.13 101.361 115.734 84.0147 126.967 74.0308L218.226 -6.9929" stroke="white" stroke-width="0.6964" stroke-miterlimit="10"/>
<path d="M405.263 384.006L137.698 111.071C127.318 100.488 127.908 83.3596 139.001 73.5203L230.538 -7.74371" stroke="white" stroke-width="0.6964" stroke-miterlimit="10"/>
</g>
</svg>
