<svg width="610" height="367" viewBox="0 0 610 367" fill="none" xmlns="http://www.w3.org/2000/svg">
<g opacity="0.1" clip-path="url(#clip0_423_18295)">
<path d="M608.888 349.288C560.15 206.944 469.318 114.044 338.9 73.1632C209.729 32.6736 64.5418 51.473 -34.507 74.3765C-90.6027 87.3468 -138.165 102.978 -168.187 113.806C-200.712 125.538 -220.21 134.309 -220.407 134.396L-220.992 133.644C-220.8 133.556 -201.25 124.763 -168.681 113.017C-138.626 102.177 -91.0056 86.5281 -34.8428 73.5432C28.2943 58.943 89.1385 50.6178 146.002 48.7868C217.106 46.499 282.152 54.4296 339.336 72.3555C368.806 81.5944 396.641 93.651 422.067 108.193C449.288 123.758 474.474 142.59 496.932 164.16C520.814 187.1 542.259 213.76 560.659 243.403C580.128 274.763 596.729 310.312 609.996 349.069L608.883 349.292L608.888 349.288Z" fill="url(#paint0_linear_423_18295)"/>
<path d="M596.974 350.088C550.461 209.462 461.389 116.711 332.223 74.4127C273.758 55.2662 211.753 48.22 152.189 48.22C80.8452 48.22 12.998 58.3214 -41.1887 69.8408C-97.5002 81.8133 -145.322 96.5488 -175.526 106.8C-208.243 117.906 -227.894 126.29 -228.086 126.371L-228.652 125.607C-228.456 125.523 -208.761 117.121 -175.996 106C-145.758 95.7338 -97.8791 80.9801 -41.5004 68.9966C21.8764 55.522 82.8598 48.22 139.752 47.2881C210.894 46.1296 275.801 54.9811 332.679 73.6051C361.875 83.1656 389.403 95.4707 414.503 110.181C441.364 125.921 466.162 144.837 488.202 166.4C511.638 189.329 532.594 215.869 550.485 245.288C569.413 276.407 585.428 311.594 598.086 349.876L596.969 350.092L596.974 350.088Z" fill="url(#paint1_linear_423_18295)"/>
<path d="M585.058 350.902C540.781 212.033 453.508 119.454 325.665 75.7412C263.521 54.4932 197.094 46.8624 133.784 46.8624C66.9007 46.8624 3.49507 55.3703 -47.7897 65.3182C-104.331 76.2858 -152.431 90.1258 -182.822 99.8033C-215.755 110.292 -235.57 118.288 -235.767 118.365L-236.309 117.59C-236.112 117.51 -216.264 109.499 -183.292 98.9992C-152.863 89.3072 -104.71 75.4525 -48.1014 64.4704C15.5344 52.125 76.6664 45.8537 133.592 45.8281H133.923C204.979 45.8281 269.641 55.6189 326.13 74.9335C355.039 84.8193 382.25 97.3729 407.01 112.247C433.501 128.159 457.892 147.156 479.505 168.704C502.485 191.611 522.943 218.027 540.32 247.216C558.696 278.087 574.127 312.901 586.176 350.693L585.058 350.902Z" fill="url(#paint2_linear_423_18295)"/>
<path d="M573.148 351.703C531.102 214.629 445.665 122.244 319.219 77.1202C192.1 31.759 45.8919 43.2053 -54.3752 60.7987C-111.162 70.7612 -159.549 83.7058 -190.142 92.8095C-223.281 102.673 -243.244 110.275 -243.441 110.348L-243.959 109.562C-243.762 109.486 -223.751 101.866 -190.564 91.9909C-159.938 82.8762 -111.493 69.917 -54.639 59.9435C9.27022 48.7311 70.5653 43.4977 127.539 44.3857C198.782 45.5004 263.435 56.245 319.703 76.3235C348.31 86.5309 375.19 99.333 399.594 114.368C425.702 130.452 449.675 149.522 470.852 171.051C493.362 193.933 513.321 220.217 530.171 249.165C547.99 279.776 562.826 314.207 574.266 351.498L573.143 351.699L573.148 351.703Z" fill="url(#paint3_linear_423_18295)"/>
<path d="M561.235 352.508C521.423 217.268 437.867 125.106 312.883 78.5788C186.456 31.5146 39.8445 40.4794 -60.8879 56.2856C-117.933 65.2358 -166.628 77.2814 -197.427 85.8113C-230.796 95.0502 -250.927 102.261 -251.124 102.334L-251.613 101.541C-251.412 101.468 -231.233 94.2389 -197.815 84.9891C-166.978 76.4518 -118.226 64.3916 -61.1134 55.4304C3.08852 45.3546 64.5612 41.1664 121.592 42.9828C192.903 45.2523 257.435 56.9654 313.397 77.7968C341.682 88.3257 368.216 101.373 392.257 116.569C417.962 132.817 441.508 151.96 462.239 173.467C484.264 196.32 503.714 222.461 520.037 251.161C537.295 281.502 551.536 315.537 562.362 352.321L561.239 352.511L561.235 352.508Z" fill="url(#paint4_linear_423_18295)"/>
<path d="M549.319 353.319C511.743 219.954 430.105 128.037 306.671 80.1245C180.944 31.3206 33.891 37.7784 -67.3259 51.7902C-177.023 66.9751 -257.998 94.0523 -258.804 94.3227L-259.27 93.5223C-259.068 93.4529 -238.712 86.6151 -205.054 77.9902C-173.992 70.0304 -124.923 58.8728 -67.5321 50.9277C-3.01849 41.9958 58.6411 38.8601 115.734 41.6084C187.126 45.0437 251.539 57.7399 307.189 79.3387C335.138 90.1893 361.313 103.474 384.975 118.827C410.267 135.236 433.372 154.445 453.642 175.923C475.179 198.739 494.101 224.731 509.891 253.175C526.578 283.238 540.22 316.867 550.436 353.129L549.309 353.311L549.319 353.319Z" fill="url(#paint5_linear_423_18295)"/>
<path d="M537.403 354.119C502.058 222.67 422.377 131.034 300.574 81.7509C221.205 49.6377 132.747 39.4925 52.7117 39.4925C6.68881 39.4925 -36.5329 42.8438 -73.6774 47.2988C-131.294 54.2097 -180.65 64.4463 -211.905 71.8176C-245.778 79.8066 -266.283 86.2424 -266.484 86.3046L-266.926 85.4932C-266.724 85.4275 -246.181 78.9807 -212.269 70.9844C-180.976 63.6057 -131.567 53.3545 -73.8837 46.4326C-9.04388 38.6519 52.8221 36.5798 109.992 40.2709C181.475 44.8867 245.773 58.5806 301.111 80.9688C328.71 92.1337 354.506 105.659 377.774 121.162C402.64 137.729 425.289 157 445.094 178.441C466.127 201.21 484.521 227.044 499.774 255.225C515.886 284.999 528.928 318.212 538.535 353.94L537.408 354.115L537.403 354.119Z" fill="url(#paint6_linear_423_18295)"/>
<path d="M525.494 354.924C492.378 225.43 414.693 134.101 294.597 83.4695C170.304 31.0695 22.2969 32.4473 -79.98 42.8337C-137.903 48.714 -187.615 58.0443 -219.118 64.8309C-253.255 72.1877 -273.957 78.2324 -274.164 78.2909L-274.576 77.4723C-274.37 77.4101 -253.634 71.3581 -219.459 63.9904C-187.922 57.1927 -138.153 47.8515 -80.1623 41.9639C-14.9724 35.3454 47.1094 34.344 104.361 38.9891C175.945 44.7999 240.137 59.5061 295.149 82.6984C322.379 94.1775 347.781 107.934 370.647 123.586C395.066 140.303 417.25 159.628 436.575 181.026C457.095 203.74 474.952 229.41 489.659 257.316C505.19 286.795 517.627 319.576 526.626 354.756L525.494 354.924Z" fill="url(#paint7_linear_423_18295)"/>
<path d="M513.58 355.733C482.685 228.23 407.034 137.241 288.732 85.2905C165.173 31.034 16.6379 29.8389 -86.2145 38.3907C-144.464 43.2331 -194.549 51.6461 -226.312 57.8516C-260.728 64.5761 -281.631 70.2262 -281.842 70.281L-282.23 69.455C-282.024 69.4002 -261.082 63.7392 -226.629 57.0074C-194.832 50.7945 -144.694 42.3706 -86.3728 37.5209C-20.8184 32.0682 41.4937 32.1523 98.8364 37.7621C170.531 44.779 234.612 60.5158 289.303 84.5267C316.149 96.3129 341.139 110.299 363.587 126.091C387.546 142.95 409.25 162.319 428.091 183.669C448.083 206.321 465.399 231.812 479.553 259.437C494.499 288.605 506.328 320.948 514.722 355.572L513.59 355.733H513.58Z" fill="url(#paint8_linear_423_18295)"/>
<path d="M501.664 356.536C472.981 231.061 399.402 140.449 282.966 87.2117C160.155 31.0584 11.0443 27.2649 -92.4222 33.9711C-204.551 41.2402 -288.692 62.0569 -289.527 62.2653L-289.887 61.432C-289.676 61.3808 -268.523 56.1145 -233.777 50.0223C-201.712 44.4014 -151.18 36.8985 -92.5182 33.0977C-26.5799 28.8254 35.9815 29.9986 93.4203 36.5879C165.239 44.829 229.211 61.6074 283.56 86.4589C309.999 98.5484 334.567 112.754 356.578 128.681C380.062 145.675 401.273 165.084 419.619 186.373C439.074 208.951 455.838 234.259 469.436 261.588C483.793 290.438 495.016 322.332 502.801 356.382L501.669 356.532L501.664 356.536Z" fill="url(#paint9_linear_423_18295)"/>
<path d="M489.75 357.337C463.268 233.932 391.799 143.732 277.32 89.2413C155.291 31.1583 5.58102 24.7335 -98.5186 29.5759C-211.338 34.8203 -296.362 54.0546 -297.206 54.2483L-297.537 53.4077C-297.326 53.3602 -275.948 48.4959 -240.899 43.0432C-208.556 38.0144 -157.607 31.4434 -98.5905 28.6988C-32.2446 25.6143 30.5711 27.8948 88.1153 35.4745C160.064 44.9509 223.93 62.7928 277.929 88.4958C331.747 114.115 376.58 147.971 411.173 189.133C430.081 211.631 446.284 236.742 459.321 263.768C473.082 292.285 483.697 323.718 490.882 357.191L489.745 357.334L489.75 357.337Z" fill="url(#paint10_linear_423_18295)"/>
<path d="M477.84 358.143C453.546 236.839 384.221 147.092 271.78 91.3923C150.557 31.3432 0.223419 22.2578 -104.543 25.2144C-218.082 28.4195 -304.032 46.0531 -304.885 46.2322L-305.188 45.3843C-304.972 45.3404 -283.363 40.8781 -247.993 36.0759C-215.353 31.6465 -163.977 26.0148 -104.581 24.3373C-37.818 22.4515 25.271 25.8503 82.9256 34.435C155.013 45.165 218.764 64.0813 272.409 90.6578C325.3 116.858 369.155 150.944 402.755 191.964C421.107 214.37 436.738 239.273 449.219 265.988C462.381 294.166 472.391 325.124 478.977 358.012L477.84 358.143Z" fill="url(#paint11_linear_423_18295)"/>
<path d="M465.925 358.944C443.803 239.778 376.651 150.521 266.335 93.6585C145.951 31.6067 -5.03937 19.8388 -110.501 20.8877C-224.793 22.0279 -311.707 38.0498 -312.57 38.2142L-312.844 37.3627C-312.628 37.3225 -290.775 33.2659 -255.074 29.1179C-222.127 25.2915 -170.305 20.6063 -110.516 20.0106C-43.3063 19.3381 20.061 23.8662 77.8355 33.4669C150.072 45.4687 213.707 65.4741 266.978 92.9349C318.901 119.698 361.753 153.989 394.346 194.851C412.131 217.152 427.192 241.843 439.102 268.233C451.66 296.055 461.066 326.535 467.061 358.82L465.92 358.944H465.925Z" fill="url(#paint12_linear_423_18295)"/>
<path d="M454.011 359.753C434.043 242.75 369.098 154.034 260.983 96.0604C141.472 31.9766 -10.1947 17.4823 -116.386 16.6089C-231.464 15.655 -319.38 30.0579 -320.253 30.2041L-320.498 29.3453C-320.277 29.3087 -298.175 25.6614 -262.129 22.1785C-228.865 18.9625 -176.573 15.2384 -116.376 15.7318C-48.7062 16.2909 14.9585 21.9593 72.8529 32.5869C145.238 45.8715 208.758 66.9879 261.64 95.3441C312.561 122.648 354.382 157.122 385.948 197.809C403.158 219.996 417.639 244.456 428.983 270.514C440.936 297.971 449.742 327.957 455.148 359.639L454.006 359.753H454.011Z" fill="url(#paint13_linear_423_18295)"/>
<path d="M442.096 360.557C424.258 245.751 361.553 157.612 255.717 98.5864C137.117 32.4413 -15.2549 15.1915 -122.194 12.3665C-238.084 9.30756 -327.045 22.0585 -327.933 22.1865L-328.148 21.324C-327.928 21.2911 -305.561 18.0567 -269.151 15.2427C-235.551 12.6479 -182.779 9.88864 -122.156 11.4894C-54.011 13.2874 9.96057 20.1179 67.9797 31.7835C140.523 46.3728 203.914 68.6075 256.393 97.8774C306.272 125.696 347.038 160.331 377.559 200.821C394.188 222.88 408.084 247.103 418.857 272.821C430.206 299.905 438.408 329.391 443.238 360.451L442.096 360.553V360.557Z" fill="url(#paint14_linear_423_18295)"/>
<path d="M430.187 361.362C414.459 248.781 354.013 161.267 250.532 101.247C132.896 33.0154 -20.1953 12.9734 -127.907 8.17125C-244.645 2.96706 -334.715 14.0552 -335.612 14.1685L-335.799 13.3023C-335.573 13.2731 -312.934 10.459 -276.154 8.32475C-242.213 6.3549 -188.933 4.5751 -127.868 7.2978C-59.2248 10.3567 5.05862 18.3567 63.2072 31.0784C135.909 46.9834 199.17 70.3583 251.222 100.549C300.027 128.854 339.714 163.628 369.174 203.902C385.209 225.822 398.52 249.797 408.727 275.16C419.471 301.861 427.078 330.831 431.328 361.274L430.182 361.365L430.187 361.362Z" fill="url(#paint15_linear_423_18295)"/>
<path d="M418.273 362.168C404.622 251.835 346.464 164.99 245.41 104.042C128.777 33.6974 -25.0627 10.8268 -133.58 4.02919C-251.196 -3.33854 -342.388 6.0575 -343.295 6.15252L-343.453 5.28272C-342.547 5.1877 -251.249 -4.22296 -133.513 3.15208C-64.3609 7.48281 0.253479 16.6705 58.5316 30.4594C131.396 47.6983 194.514 72.2245 246.12 103.351C293.817 132.116 332.396 167 360.786 207.033C376.226 228.803 388.942 252.518 398.578 277.516C408.718 303.822 415.731 332.273 419.419 362.084L418.273 362.168Z" fill="url(#paint16_linear_423_18295)"/>
<path d="M406.357 362.973C394.758 254.905 338.903 168.777 240.338 106.97C124.761 34.4913 -29.8612 8.75908 -139.213 -0.0631843C-257.721 -9.62368 -350.055 -1.94166 -350.976 -1.86491L-351.105 -2.73471C-350.185 -2.81512 -257.726 -10.5081 -139.093 -0.936639C-69.4135 4.68417 -4.46338 15.0743 53.9442 29.9449C126.972 48.536 189.931 74.2244 241.072 106.29C287.628 135.483 325.079 170.451 352.391 210.22C367.226 231.826 379.347 255.271 388.417 279.899C397.953 305.8 404.376 333.725 407.508 362.899L406.361 362.973H406.357Z" fill="url(#paint17_linear_423_18295)"/>
<path d="M394.443 363.772C384.864 257.992 331.33 172.624 235.322 110.035C120.857 35.4039 -34.5416 6.77353 -144.752 -4.10263C-264.186 -15.8888 -357.729 -9.94637 -358.659 -9.88424L-358.76 -10.7577C-357.829 -10.8198 -264.162 -16.7696 -144.608 -4.97243C-74.3865 1.95674 -9.09583 13.5675 49.4413 29.5272C122.632 49.4851 185.424 76.3466 236.07 109.366C281.455 138.954 317.756 173.976 343.978 213.461C358.205 234.892 369.731 258.051 378.231 282.299C387.167 307.783 393.004 335.174 395.589 363.71L394.443 363.772Z" fill="url(#paint18_linear_423_18295)"/>
<path d="M382.534 364.576C374.941 261.099 323.738 176.538 230.354 113.24C117.064 36.4563 -39.1261 4.88767 -150.2 -8.07163C-270.589 -22.12 -365.397 -17.9428 -366.342 -17.8989L-366.414 -18.776C-365.469 -18.8199 -270.565 -23.0008 -150.061 -8.94143C-79.2828 -0.685635 -13.6468 12.1567 45.0198 29.2238C118.374 50.5632 180.983 78.6087 231.107 112.582C275.288 142.528 310.427 177.58 335.547 216.757C349.164 237.998 360.091 260.865 368.029 284.726C376.366 309.789 381.628 336.636 383.676 364.528L382.525 364.576H382.534Z" fill="url(#paint19_linear_423_18295)"/>
<path d="M370.618 365.379C358.78 153.173 156.998 58.0874 -10.1855 15.6864C-104.889 -8.32811 -198.767 -18.3637 -260.849 -22.5519C-328.12 -27.0873 -373.572 -25.9324 -374.023 -25.9178L-374.066 -26.7949C-373.616 -26.8095 -328.111 -27.9681 -260.781 -23.4254C-221.239 -20.7575 -182.012 -16.6753 -144.196 -11.292C-96.9216 -4.56019 -51.7189 4.23283 -9.85455 14.8495C96.7393 41.8791 182.646 80.7351 245.476 130.336C282.793 159.792 312.272 193.414 333.104 230.271C356.017 270.808 369.02 316.254 371.759 365.346L370.608 365.383L370.618 365.379Z" fill="url(#paint20_linear_423_18295)"/>
<path d="M358.71 366.182C350.791 156.549 149.954 58.9306 -17.1289 13.9495C-111.779 -11.5306 -205.864 -23.1925 -268.123 -28.4917C-335.586 -34.2294 -381.25 -33.9407 -381.705 -33.9371L-381.715 -34.8178C-381.264 -34.8178 -335.548 -35.1102 -268.022 -29.3651C-228.369 -25.9919 -189.057 -21.2263 -151.183 -15.2034C-103.836 -7.67492 -58.619 1.85268 -16.774 13.1162C89.7575 41.7904 175.29 81.7464 237.448 131.87C274.367 161.64 303.343 195.372 323.57 232.134C345.817 272.565 358.029 317.66 359.861 366.16L358.71 366.186V366.182Z" fill="url(#paint21_linear_423_18295)"/>
</g>
<defs>
<linearGradient id="paint0_linear_423_18295" x1="-220.992" y1="198.842" x2="610.001" y2="198.842" gradientUnits="userSpaceOnUse">
<stop stop-color="#8CC63F"/>
<stop offset="1" stop-color="#39B54A"/>
</linearGradient>
<linearGradient id="paint1_linear_423_18295" x1="-228.652" y1="198.637" x2="598.091" y2="198.637" gradientUnits="userSpaceOnUse">
<stop stop-color="#8CC63F"/>
<stop offset="1" stop-color="#39B54A"/>
</linearGradient>
<linearGradient id="paint2_linear_423_18295" x1="-236.304" y1="198.365" x2="586.18" y2="198.365" gradientUnits="userSpaceOnUse">
<stop stop-color="#8CC63F"/>
<stop offset="1" stop-color="#39B54A"/>
</linearGradient>
<linearGradient id="paint3_linear_423_18295" x1="-243.959" y1="197.997" x2="574.266" y2="197.997" gradientUnits="userSpaceOnUse">
<stop stop-color="#8CC63F"/>
<stop offset="1" stop-color="#39B54A"/>
</linearGradient>
<linearGradient id="paint4_linear_423_18295" x1="-251.613" y1="197.541" x2="562.357" y2="197.541" gradientUnits="userSpaceOnUse">
<stop stop-color="#8CC63F"/>
<stop offset="1" stop-color="#39B54A"/>
</linearGradient>
<linearGradient id="paint5_linear_423_18295" x1="-259.27" y1="196.981" x2="550.446" y2="196.981" gradientUnits="userSpaceOnUse">
<stop stop-color="#8CC63F"/>
<stop offset="1" stop-color="#39B54A"/>
</linearGradient>
<linearGradient id="paint6_linear_423_18295" x1="-266.926" y1="196.309" x2="538.531" y2="196.309" gradientUnits="userSpaceOnUse">
<stop stop-color="#8CC63F"/>
<stop offset="1" stop-color="#39B54A"/>
</linearGradient>
<linearGradient id="paint7_linear_423_18295" x1="-274.581" y1="195.524" x2="526.621" y2="195.524" gradientUnits="userSpaceOnUse">
<stop stop-color="#8CC63F"/>
<stop offset="1" stop-color="#39B54A"/>
</linearGradient>
<linearGradient id="paint8_linear_423_18295" x1="-282.23" y1="194.611" x2="514.712" y2="194.611" gradientUnits="userSpaceOnUse">
<stop stop-color="#8CC63F"/>
<stop offset="1" stop-color="#39B54A"/>
</linearGradient>
<linearGradient id="paint9_linear_423_18295" x1="-289.887" y1="193.558" x2="502.796" y2="193.558" gradientUnits="userSpaceOnUse">
<stop stop-color="#8CC63F"/>
<stop offset="1" stop-color="#39B54A"/>
</linearGradient>
<linearGradient id="paint10_linear_423_18295" x1="-297.537" y1="192.353" x2="490.887" y2="192.353" gradientUnits="userSpaceOnUse">
<stop stop-color="#8CC63F"/>
<stop offset="1" stop-color="#39B54A"/>
</linearGradient>
<linearGradient id="paint11_linear_423_18295" x1="-305.192" y1="190.992" x2="478.977" y2="190.992" gradientUnits="userSpaceOnUse">
<stop stop-color="#8CC63F"/>
<stop offset="1" stop-color="#39B54A"/>
</linearGradient>
<linearGradient id="paint12_linear_423_18295" x1="-312.844" y1="189.446" x2="467.061" y2="189.446" gradientUnits="userSpaceOnUse">
<stop stop-color="#8CC63F"/>
<stop offset="1" stop-color="#39B54A"/>
</linearGradient>
<linearGradient id="paint13_linear_423_18295" x1="-320.498" y1="187.718" x2="455.153" y2="187.718" gradientUnits="userSpaceOnUse">
<stop stop-color="#8CC63F"/>
<stop offset="1" stop-color="#39B54A"/>
</linearGradient>
<linearGradient id="paint14_linear_423_18295" x1="-328.148" y1="185.786" x2="443.243" y2="185.786" gradientUnits="userSpaceOnUse">
<stop stop-color="#8CC63F"/>
<stop offset="1" stop-color="#39B54A"/>
</linearGradient>
<linearGradient id="paint15_linear_423_18295" x1="-335.804" y1="183.633" x2="431.328" y2="183.633" gradientUnits="userSpaceOnUse">
<stop stop-color="#8CC63F"/>
<stop offset="1" stop-color="#39B54A"/>
</linearGradient>
<linearGradient id="paint16_linear_423_18295" x1="-343.453" y1="181.249" x2="419.419" y2="181.249" gradientUnits="userSpaceOnUse">
<stop stop-color="#8CC63F"/>
<stop offset="1" stop-color="#39B54A"/>
</linearGradient>
<linearGradient id="paint17_linear_423_18295" x1="-351.105" y1="178.619" x2="407.503" y2="178.619" gradientUnits="userSpaceOnUse">
<stop stop-color="#8CC63F"/>
<stop offset="1" stop-color="#39B54A"/>
</linearGradient>
<linearGradient id="paint18_linear_423_18295" x1="-358.76" y1="175.727" x2="395.594" y2="175.727" gradientUnits="userSpaceOnUse">
<stop stop-color="#8CC63F"/>
<stop offset="1" stop-color="#39B54A"/>
</linearGradient>
<linearGradient id="paint19_linear_423_18295" x1="-366.409" y1="172.595" x2="383.68" y2="172.595" gradientUnits="userSpaceOnUse">
<stop stop-color="#8CC63F"/>
<stop offset="1" stop-color="#39B54A"/>
</linearGradient>
<linearGradient id="paint20_linear_423_18295" x1="-374.066" y1="169.221" x2="371.769" y2="169.221" gradientUnits="userSpaceOnUse">
<stop stop-color="#8CC63F"/>
<stop offset="1" stop-color="#39B54A"/>
</linearGradient>
<linearGradient id="paint21_linear_423_18295" x1="-381.715" y1="165.682" x2="359.856" y2="165.682" gradientUnits="userSpaceOnUse">
<stop stop-color="#8CC63F"/>
<stop offset="1" stop-color="#39B54A"/>
</linearGradient>
<clipPath id="clip0_423_18295">
<rect width="630" height="401" fill="white" transform="translate(-20 -34.8164)"/>
</clipPath>
</defs>
</svg>
