<svg width="443" height="206" viewBox="0 0 443 206" fill="none" xmlns="http://www.w3.org/2000/svg">
<g opacity="0.3" clip-path="url(#clip0_423_18244)">
<path d="M442.166 287.543C405.651 181.051 337.599 111.55 239.889 80.9657C143.113 50.6743 34.338 64.7386 -39.8701 81.8734C-81.8973 91.5769 -117.532 103.271 -140.024 111.372C-164.392 120.149 -179 126.71 -179.148 126.776L-179.586 126.213C-179.442 126.147 -164.795 119.569 -140.394 110.781C-117.876 102.672 -82.1992 90.9644 -40.1216 81.2501C7.18105 70.3272 52.766 64.0988 95.3682 62.729C148.64 61.0175 197.373 66.9505 240.216 80.3615C262.295 87.2734 283.149 96.2933 302.198 107.172C322.592 118.817 341.462 132.906 358.287 149.043C376.18 166.205 392.247 186.151 406.032 208.327C420.618 231.789 433.056 258.384 442.996 287.379L442.162 287.546L442.166 287.543Z" fill="url(#paint0_linear_423_18244)"/>
<path d="M433.24 288.144C398.393 182.938 331.659 113.548 234.887 81.9032C191.085 67.579 144.63 62.3076 100.005 62.3076C46.5533 62.3076 -4.27824 69.8648 -44.8752 78.4828C-87.0642 87.4398 -122.892 98.4638 -145.521 106.133C-170.033 114.442 -184.756 120.714 -184.9 120.774L-185.324 120.203C-185.177 120.14 -170.422 113.854 -145.874 105.534C-123.219 97.8541 -87.3481 86.8164 -45.1088 77.8512C2.3735 67.7704 48.0627 62.3076 90.6864 61.6104C143.987 60.7437 192.616 67.3658 235.229 81.2989C257.103 88.4514 277.727 97.6572 296.532 108.662C316.656 120.438 335.235 134.59 351.748 150.721C369.306 167.875 385.006 187.731 398.411 209.74C412.591 233.021 424.59 259.346 434.074 287.986L433.236 288.147L433.24 288.144Z" fill="url(#paint1_linear_423_18244)"/>
<path d="M424.314 288.75C391.142 184.859 325.756 115.597 229.976 82.8945C183.417 66.9983 133.649 61.2894 86.217 61.2894C36.1077 61.2894 -11.3962 67.6544 -49.819 75.0968C-92.1805 83.3019 -128.217 93.6561 -150.986 100.896C-175.66 108.743 -190.505 114.725 -190.653 114.783L-191.059 114.203C-190.911 114.143 -176.041 108.15 -151.338 100.295C-128.541 93.0436 -92.4644 82.6785 -50.0526 74.4624C-2.37621 65.2265 43.4243 60.5348 86.0732 60.5156H86.3212C139.557 60.5156 188.002 67.8404 230.324 82.2903C251.983 89.6861 272.369 99.0778 290.92 110.206C310.767 122.11 329.041 136.322 345.233 152.443C362.45 169.58 377.777 189.343 390.797 211.18C404.564 234.275 416.125 260.321 425.152 288.594L424.314 288.75Z" fill="url(#paint2_linear_423_18244)"/>
<path d="M415.391 289.353C383.889 186.804 319.88 117.687 225.145 83.9291C129.907 49.9931 20.3671 58.5564 -54.7537 71.7185C-97.2984 79.1718 -133.551 88.8561 -156.471 95.6668C-181.299 103.046 -196.256 108.733 -196.403 108.788L-196.791 108.2C-196.644 108.143 -181.651 102.442 -156.787 95.0543C-133.842 88.2354 -97.5463 78.5402 -54.9513 71.0787C-7.07008 62.6904 38.8526 58.7751 81.5375 59.4395C134.913 60.2734 183.352 68.3118 225.508 83.3331C246.94 90.9695 267.079 100.547 285.363 111.795C304.923 123.828 322.884 138.095 338.75 154.202C355.615 171.32 370.568 190.984 383.192 212.641C396.542 235.542 407.657 261.301 416.228 289.2L415.387 289.35L415.391 289.353Z" fill="url(#paint3_linear_423_18244)"/>
<path d="M406.463 289.951C376.636 188.775 314.036 119.825 220.397 85.0172C125.677 49.807 15.8346 56.5138 -59.6347 68.339C-102.373 75.0349 -138.856 84.0466 -161.93 90.428C-186.931 97.3399 -202.013 102.734 -202.161 102.789L-202.527 102.196C-202.376 102.141 -187.258 96.7329 -162.221 89.8128C-139.118 83.4259 -102.593 74.4033 -59.8036 67.6992C-11.7032 60.1612 34.3525 57.0279 77.0805 58.3867C130.507 60.0846 178.855 68.8475 220.782 84.4321C241.973 92.3091 261.853 102.07 279.864 113.438C299.122 125.594 316.763 139.916 332.295 156.006C348.797 173.103 363.369 192.66 375.598 214.131C388.528 236.83 399.197 262.293 407.308 289.812L406.467 289.954L406.463 289.951Z" fill="url(#paint4_linear_423_18244)"/>
<path d="M397.538 290.557C369.386 190.784 308.222 122.017 215.744 86.1728C121.549 49.6612 11.376 54.4924 -64.4563 64.9751C-146.642 76.3354 -207.309 96.5926 -207.913 96.795L-208.262 96.1962C-208.111 96.1442 -192.86 91.0287 -167.643 84.5761C-144.371 78.6212 -107.608 70.2739 -64.6108 64.3299C-16.2768 57.6476 29.919 55.3018 72.6937 57.3578C126.181 59.9279 174.44 69.4263 216.133 85.585C237.072 93.7026 256.683 103.641 274.41 115.127C293.359 127.404 310.67 141.774 325.856 157.843C341.991 174.912 356.168 194.357 367.998 215.637C380.501 238.128 390.721 263.287 398.375 290.415L397.531 290.552L397.538 290.557Z" fill="url(#paint5_linear_423_18244)"/>
<path d="M388.61 291.158C362.129 192.817 302.432 124.261 211.176 87.3915C151.713 63.3666 85.4393 55.7767 25.4764 55.7767C-9.00427 55.7767 -41.3863 58.2839 -69.2152 61.6168C-112.382 66.787 -149.36 74.4453 -172.776 79.9601C-198.154 85.9369 -213.517 90.7517 -213.667 90.7982L-213.998 90.1912C-213.847 90.142 -198.456 85.319 -173.049 79.3367C-149.604 73.8165 -112.586 66.1472 -69.3697 60.9688C-20.7913 55.1478 25.559 53.5976 68.3912 56.3591C121.947 59.8123 170.119 70.0571 211.579 86.8064C232.256 95.1591 251.583 105.278 269.015 116.876C287.644 129.27 304.613 143.687 319.451 159.728C335.209 176.762 348.991 196.09 360.419 217.173C372.49 239.448 382.261 264.295 389.459 291.024L388.614 291.155L388.61 291.158Z" fill="url(#paint6_linear_423_18244)"/>
<path d="M379.687 291.76C354.877 194.881 296.675 126.555 206.698 88.6767C113.577 49.4747 2.68869 50.5054 -73.9378 58.2758C-117.334 62.6751 -154.578 69.6553 -178.181 74.7326C-203.757 80.2364 -219.267 84.7586 -219.421 84.8024L-219.73 84.1899C-219.576 84.1435 -204.041 79.6157 -178.436 74.1037C-154.808 69.0182 -117.521 62.0298 -74.0744 57.6251C-25.2336 52.6736 21.2784 51.9244 64.1717 55.3995C117.803 59.7468 165.896 70.7489 207.111 88.0998C227.512 96.6877 246.544 106.979 263.674 118.689C281.97 131.195 298.59 145.653 313.069 161.662C328.442 178.654 341.821 197.859 352.839 218.737C364.475 240.79 373.793 265.315 380.535 291.634L379.687 291.76Z" fill="url(#paint7_linear_423_18244)"/>
<path d="M370.761 292.367C347.615 196.978 290.937 128.907 202.304 90.0409C109.733 49.45 -1.55074 48.5559 -78.6085 54.9538C-122.249 58.5765 -159.774 64.8705 -183.571 69.5131C-209.355 74.5439 -225.016 78.7709 -225.174 78.8119L-225.465 78.1939C-225.31 78.1529 -209.621 73.9178 -183.808 68.8815C-159.986 64.2335 -122.422 57.9313 -78.7271 54.3031C-29.6132 50.2238 17.0713 50.2866 60.0329 54.4835C113.747 59.7331 161.757 71.5063 202.731 89.4695C222.845 98.2871 241.568 108.751 258.386 120.565C276.336 133.177 292.597 147.668 306.713 163.641C321.691 180.587 334.664 199.658 345.268 220.325C356.466 242.146 365.328 266.343 371.617 292.246L370.769 292.367H370.761Z" fill="url(#paint8_linear_423_18244)"/>
<path d="M361.836 292.965C340.346 199.094 285.22 131.304 197.985 91.4757C105.975 49.4658 -5.73985 46.6277 -83.2576 51.6449C-167.265 57.0831 -230.304 72.6567 -230.93 72.8125L-231.199 72.1891C-231.041 72.1509 -215.193 68.211 -189.161 63.6532C-165.138 59.4481 -127.279 53.8349 -83.3295 50.9914C-33.9281 47.7952 12.9433 48.6729 55.9768 53.6025C109.784 59.768 157.712 72.3204 198.431 90.9125C218.239 99.957 236.645 110.585 253.136 122.5C270.731 135.214 286.622 149.735 300.367 165.661C314.943 182.552 327.503 201.486 337.69 221.932C348.446 243.515 356.855 267.376 362.688 292.85L361.84 292.962L361.836 292.965Z" fill="url(#paint9_linear_423_18244)"/>
<path d="M352.909 293.567C333.068 201.244 279.524 133.763 193.755 92.9969C102.33 49.5433 -9.8336 44.7367 -87.8257 48.3594C-172.351 52.2829 -236.051 66.6727 -236.684 66.8176L-236.932 66.1887C-236.774 66.1532 -220.757 62.514 -194.498 58.4347C-170.267 54.6725 -132.095 49.7566 -87.8796 47.7032C-38.1728 45.3956 8.88911 47.1017 52.0016 52.7723C105.906 59.8619 153.755 73.21 194.211 92.4391C234.532 111.605 268.121 136.934 294.038 167.729C308.204 184.56 320.344 203.347 330.111 223.565C340.421 244.9 348.374 268.416 353.757 293.458L352.905 293.565L352.909 293.567Z" fill="url(#paint10_linear_423_18244)"/>
<path d="M343.985 294.171C325.784 203.419 273.845 136.277 189.604 94.6064C98.7826 49.6818 -13.8483 42.8848 -92.3399 45.0967C-177.404 47.4945 -241.798 60.6867 -242.438 60.8207L-242.664 60.1864C-242.502 60.1536 -226.313 56.8152 -199.814 53.2225C-175.359 49.9088 -136.868 45.6955 -92.3686 44.4405C-42.3492 43.0297 4.91756 45.5724 48.1127 51.9949C102.121 60.0223 149.884 74.1742 190.075 94.0568C229.701 113.658 262.558 139.159 287.731 169.847C301.48 186.61 313.192 205.24 322.542 225.227C332.403 246.307 339.903 269.468 344.837 294.072L343.985 294.171Z" fill="url(#paint11_linear_423_18244)"/>
<path d="M335.06 294.771C318.486 205.619 268.175 138.844 185.526 96.3033C95.3337 49.8805 -17.7894 41.0766 -96.8021 41.8613C-182.431 42.7143 -247.547 54.7007 -248.194 54.8238L-248.398 54.1867C-248.237 54.1567 -231.864 51.1218 -205.117 48.0185C-180.433 45.1559 -141.607 41.6507 -96.8129 41.2051C-46.4592 40.702 1.01591 44.0896 44.3009 51.2721C98.4207 60.251 146.097 75.2177 186.008 95.762C224.908 115.784 257.014 141.438 281.432 172.009C294.757 188.692 306.041 207.164 314.964 226.907C324.372 247.722 331.419 270.525 335.911 294.678L335.056 294.771H335.06Z" fill="url(#paint12_linear_423_18244)"/>
<path d="M326.132 295.374C311.172 207.841 262.515 141.47 181.515 98.0981C91.9764 50.1551 -21.6535 39.3115 -101.212 38.6581C-187.43 37.9445 -253.297 48.7197 -253.951 48.829L-254.135 48.1865C-253.969 48.1592 -237.41 45.4305 -210.404 42.8249C-185.482 40.4189 -146.305 37.6328 -101.205 38.0019C-50.5066 38.4202 -2.80861 42.6608 40.5662 50.6117C94.7974 60.5503 142.388 76.3481 182.007 97.5622C220.157 117.989 251.489 143.78 275.139 174.219C288.033 190.818 298.882 209.118 307.381 228.612C316.336 249.153 322.934 271.587 326.984 295.289L326.129 295.374H326.132Z" fill="url(#paint13_linear_423_18244)"/>
<path d="M317.205 295.975C303.841 210.085 256.861 144.146 177.568 99.9869C88.7127 50.5019 -25.4454 37.5968 -105.565 35.4833C-192.39 33.1948 -259.041 42.7342 -259.705 42.8299L-259.867 42.1846C-259.702 42.16 -242.945 39.7403 -215.666 37.635C-190.493 35.6938 -150.956 33.6295 -105.536 34.8271C-54.4817 36.1723 -6.55377 41.2824 36.9145 50.0097C91.2642 60.9244 138.757 77.5588 178.075 99.4565C215.445 120.269 245.987 146.18 268.853 176.472C281.312 192.975 291.723 211.097 299.794 230.337C308.297 250.599 314.442 272.658 318.06 295.896L317.205 295.972V295.975Z" fill="url(#paint14_linear_423_18244)"/>
<path d="M308.284 296.575C296.5 212.35 251.214 146.879 173.685 101.976C85.5518 50.9296 -29.1454 35.9356 -109.844 32.343C-197.305 28.4495 -264.786 36.7449 -265.458 36.8297L-265.598 36.1817C-265.429 36.1598 -248.467 34.0545 -220.911 32.4578C-195.483 30.9841 -155.565 29.6526 -109.815 31.6895C-58.3866 33.978 -10.2251 39.963 33.3402 49.4805C87.8085 61.3794 135.205 78.867 174.202 101.454C210.767 122.629 240.501 148.645 262.573 178.775C274.586 195.174 284.559 213.11 292.206 232.085C300.255 252.061 305.955 273.734 309.139 296.509L308.28 296.578L308.284 296.575Z" fill="url(#paint15_linear_423_18244)"/>
<path d="M299.356 297.177C289.129 214.633 245.556 149.662 169.846 104.065C82.4639 51.4382 -32.7939 34.328 -114.096 29.2425C-202.215 23.7305 -270.536 30.76 -271.215 30.831L-271.334 30.1803C-270.655 30.1092 -202.254 23.0688 -114.045 28.5863C-62.2363 31.8263 -13.8268 38.6999 29.8355 49.0158C84.426 61.9127 131.714 80.2614 170.378 103.548C206.113 125.068 235.016 151.166 256.287 181.115C267.854 197.403 277.381 215.144 284.601 233.846C292.198 253.526 297.451 274.811 300.215 297.114L299.356 297.177Z" fill="url(#paint16_linear_423_18244)"/>
<path d="M290.429 297.778C281.74 216.93 239.892 152.494 166.047 106.255C79.4554 52.0315 -36.3881 32.7805 -118.315 26.1803C-207.102 19.0278 -276.279 24.7749 -276.969 24.8324L-277.066 24.1816C-276.376 24.1215 -207.106 18.3661 -118.225 25.5268C-66.021 29.7319 -17.36 37.5051 26.3994 48.6303C81.1121 62.5388 128.282 81.757 166.597 105.746C201.476 127.587 229.535 153.747 249.997 183.5C261.112 199.664 270.193 217.203 276.989 235.629C284.133 255.005 288.945 275.897 291.291 297.723L290.433 297.778H290.429Z" fill="url(#paint17_linear_423_18244)"/>
<path d="M281.503 298.383C274.327 219.247 234.219 155.38 162.289 108.555C76.5313 52.7215 -39.8945 31.3023 -122.465 23.1655C-211.946 14.3479 -282.028 18.7936 -282.725 18.8401L-282.801 18.1866C-282.104 18.1401 -211.928 13.689 -122.357 22.5148C-69.7466 27.6987 -20.8304 36.385 23.026 48.325C77.8609 63.2561 124.905 83.352 162.85 108.055C196.852 130.19 224.049 156.392 243.695 185.931C254.354 201.964 262.989 219.29 269.357 237.431C276.052 256.496 280.425 276.989 282.362 298.337L281.503 298.383Z" fill="url(#paint18_linear_423_18244)"/>
<path d="M272.582 298.983C266.893 221.569 228.531 158.307 158.567 110.951C73.6898 53.5073 -43.3289 29.8899 -126.546 20.1946C-216.742 9.68463 -287.773 12.8097 -288.481 12.8426L-288.535 12.1864C-287.827 12.1536 -216.724 9.0257 -126.442 19.5439C-73.4146 25.7203 -24.2397 35.3281 19.7137 48.0965C74.6708 64.0611 121.578 85.0428 159.131 110.459C192.232 132.863 218.559 159.086 237.379 188.396C247.581 204.287 255.767 221.394 261.714 239.245C267.96 257.996 271.902 278.081 273.437 298.948L272.574 298.983H272.582Z" fill="url(#paint19_linear_423_18244)"/>
<path d="M263.652 299.582C254.783 140.824 103.608 69.6878 -21.6476 37.9664C-92.5999 20.0004 -162.934 12.4924 -209.446 9.35912C-259.846 5.96606 -293.899 6.83004 -294.237 6.84098L-294.27 6.18479C-293.932 6.17385 -259.839 5.30713 -209.396 8.70566C-179.77 10.7016 -150.381 13.7556 -122.049 17.783C-86.6309 22.8193 -52.7647 29.3976 -21.3997 37.3402C58.4611 57.5619 122.823 86.6312 169.895 123.739C197.854 145.776 219.94 170.93 235.547 198.504C252.714 228.831 262.456 262.83 264.508 299.557L263.645 299.585L263.652 299.582Z" fill="url(#paint20_linear_423_18244)"/>
<path d="M254.731 300.182C248.798 143.349 98.3298 70.3175 -26.8499 36.6658C-97.7626 17.6034 -168.251 8.87883 -214.896 4.91434C-265.44 0.621749 -299.651 0.837746 -299.993 0.84048L-300 0.181554C-299.662 0.181554 -265.412 -0.0371765 -214.821 4.26088C-185.112 6.78449 -155.659 10.3498 -127.284 14.8556C-91.8115 20.488 -57.9346 27.6158 -26.584 36.0424C53.2301 57.4944 117.311 87.3867 163.881 124.885C191.541 147.158 213.25 172.394 228.404 199.896C245.071 230.144 254.221 263.88 255.593 300.165L254.731 300.184V300.182Z" fill="url(#paint21_linear_423_18244)"/>
</g>
<defs>
<linearGradient id="paint0_linear_423_18244" x1="-179.586" y1="174.99" x2="442.999" y2="174.99" gradientUnits="userSpaceOnUse">
<stop stop-color="#8CC63F"/>
<stop offset="1" stop-color="#39B54A"/>
</linearGradient>
<linearGradient id="paint1_linear_423_18244" x1="-185.324" y1="174.839" x2="434.077" y2="174.839" gradientUnits="userSpaceOnUse">
<stop stop-color="#8CC63F"/>
<stop offset="1" stop-color="#39B54A"/>
</linearGradient>
<linearGradient id="paint2_linear_423_18244" x1="-191.055" y1="174.633" x2="425.155" y2="174.633" gradientUnits="userSpaceOnUse">
<stop stop-color="#8CC63F"/>
<stop offset="1" stop-color="#39B54A"/>
</linearGradient>
<linearGradient id="paint3_linear_423_18244" x1="-196.791" y1="174.361" x2="416.228" y2="174.361" gradientUnits="userSpaceOnUse">
<stop stop-color="#8CC63F"/>
<stop offset="1" stop-color="#39B54A"/>
</linearGradient>
<linearGradient id="paint4_linear_423_18244" x1="-202.527" y1="174.016" x2="407.304" y2="174.016" gradientUnits="userSpaceOnUse">
<stop stop-color="#8CC63F"/>
<stop offset="1" stop-color="#39B54A"/>
</linearGradient>
<linearGradient id="paint5_linear_423_18244" x1="-208.262" y1="173.597" x2="398.382" y2="173.597" gradientUnits="userSpaceOnUse">
<stop stop-color="#8CC63F"/>
<stop offset="1" stop-color="#39B54A"/>
</linearGradient>
<linearGradient id="paint6_linear_423_18244" x1="-213.998" y1="173.096" x2="389.455" y2="173.096" gradientUnits="userSpaceOnUse">
<stop stop-color="#8CC63F"/>
<stop offset="1" stop-color="#39B54A"/>
</linearGradient>
<linearGradient id="paint7_linear_423_18244" x1="-219.734" y1="172.508" x2="380.531" y2="172.508" gradientUnits="userSpaceOnUse">
<stop stop-color="#8CC63F"/>
<stop offset="1" stop-color="#39B54A"/>
</linearGradient>
<linearGradient id="paint8_linear_423_18244" x1="-225.465" y1="171.827" x2="371.61" y2="171.827" gradientUnits="userSpaceOnUse">
<stop stop-color="#8CC63F"/>
<stop offset="1" stop-color="#39B54A"/>
</linearGradient>
<linearGradient id="paint9_linear_423_18244" x1="-231.199" y1="171.036" x2="362.684" y2="171.036" gradientUnits="userSpaceOnUse">
<stop stop-color="#8CC63F"/>
<stop offset="1" stop-color="#39B54A"/>
</linearGradient>
<linearGradient id="paint10_linear_423_18244" x1="-236.932" y1="170.138" x2="353.76" y2="170.138" gradientUnits="userSpaceOnUse">
<stop stop-color="#8CC63F"/>
<stop offset="1" stop-color="#39B54A"/>
</linearGradient>
<linearGradient id="paint11_linear_423_18244" x1="-242.668" y1="169.12" x2="344.837" y2="169.12" gradientUnits="userSpaceOnUse">
<stop stop-color="#8CC63F"/>
<stop offset="1" stop-color="#39B54A"/>
</linearGradient>
<linearGradient id="paint12_linear_423_18244" x1="-248.398" y1="167.965" x2="335.911" y2="167.965" gradientUnits="userSpaceOnUse">
<stop stop-color="#8CC63F"/>
<stop offset="1" stop-color="#39B54A"/>
</linearGradient>
<linearGradient id="paint13_linear_423_18244" x1="-254.135" y1="166.67" x2="326.988" y2="166.67" gradientUnits="userSpaceOnUse">
<stop stop-color="#8CC63F"/>
<stop offset="1" stop-color="#39B54A"/>
</linearGradient>
<linearGradient id="paint14_linear_423_18244" x1="-259.867" y1="165.223" x2="318.064" y2="165.223" gradientUnits="userSpaceOnUse">
<stop stop-color="#8CC63F"/>
<stop offset="1" stop-color="#39B54A"/>
</linearGradient>
<linearGradient id="paint15_linear_423_18244" x1="-265.601" y1="163.611" x2="309.139" y2="163.611" gradientUnits="userSpaceOnUse">
<stop stop-color="#8CC63F"/>
<stop offset="1" stop-color="#39B54A"/>
</linearGradient>
<linearGradient id="paint16_linear_423_18244" x1="-271.334" y1="161.826" x2="300.215" y2="161.826" gradientUnits="userSpaceOnUse">
<stop stop-color="#8CC63F"/>
<stop offset="1" stop-color="#39B54A"/>
</linearGradient>
<linearGradient id="paint17_linear_423_18244" x1="-277.066" y1="159.858" x2="291.288" y2="159.858" gradientUnits="userSpaceOnUse">
<stop stop-color="#8CC63F"/>
<stop offset="1" stop-color="#39B54A"/>
</linearGradient>
<linearGradient id="paint18_linear_423_18244" x1="-282.801" y1="157.701" x2="282.366" y2="157.701" gradientUnits="userSpaceOnUse">
<stop stop-color="#8CC63F"/>
<stop offset="1" stop-color="#39B54A"/>
</linearGradient>
<linearGradient id="paint19_linear_423_18244" x1="-288.532" y1="155.357" x2="273.44" y2="155.357" gradientUnits="userSpaceOnUse">
<stop stop-color="#8CC63F"/>
<stop offset="1" stop-color="#39B54A"/>
</linearGradient>
<linearGradient id="paint20_linear_423_18244" x1="-294.27" y1="152.83" x2="264.515" y2="152.83" gradientUnits="userSpaceOnUse">
<stop stop-color="#8CC63F"/>
<stop offset="1" stop-color="#39B54A"/>
</linearGradient>
<linearGradient id="paint21_linear_423_18244" x1="-300" y1="150.182" x2="255.59" y2="150.182" gradientUnits="userSpaceOnUse">
<stop stop-color="#8CC63F"/>
<stop offset="1" stop-color="#39B54A"/>
</linearGradient>
<clipPath id="clip0_423_18244">
<rect width="472" height="300" fill="white" transform="translate(-29 0.183594)"/>
</clipPath>
</defs>
</svg>
