<svg width="946" height="619" viewBox="0 0 946 619" fill="none" xmlns="http://www.w3.org/2000/svg">
<g clip-path="url(#clip0_1689_15026)">
<path opacity="0.2" d="M-4.88758e-06 486.34V618.515H980V343.797C980 343.797 873.762 404.772 561.756 404.772C194.801 404.772 -4.88758e-06 486.34 -4.88758e-06 486.34Z" fill="#E2EDE6"/>
<g opacity="0.11">
<path d="M372.131 526.848C563.561 526.848 718.745 517.861 718.745 506.776C718.745 495.69 563.561 486.703 372.131 486.703C180.702 486.703 25.5176 495.69 25.5176 506.776C25.5176 517.861 180.702 526.848 372.131 526.848Z" fill="#5B7F60"/>
<path d="M213.389 572.089C249.751 572.089 279.227 564.551 279.227 555.252C279.227 545.952 249.751 538.414 213.389 538.414C177.028 538.414 147.551 545.952 147.551 555.252C147.551 564.551 177.028 572.089 213.389 572.089Z" fill="#5B7F60"/>
<path d="M478.89 544.745C518.232 544.745 550.125 538.287 550.125 530.322C550.125 522.356 518.232 515.898 478.89 515.898C439.547 515.898 407.654 522.356 407.654 530.322C407.654 538.287 439.547 544.745 478.89 544.745Z" fill="#5B7F60"/>
</g>
<path d="M211.872 379.269C211.872 385.96 194.165 391.388 172.325 391.388C150.484 391.388 132.777 385.96 132.777 379.269V306.68C132.777 313.37 150.484 318.799 172.325 318.799C194.165 318.799 211.872 313.37 211.872 306.68V379.269Z" fill="#A1C5AA"/>
<path d="M211.872 341.696V306.68C211.872 313.37 194.165 318.799 172.325 318.799C150.484 318.799 132.777 313.37 132.777 306.68V329.072C132.777 329.072 151.588 348.529 211.872 341.696Z" fill="#80AA89"/>
<path d="M172.229 304.739C196.589 304.739 216.337 299.646 216.337 293.362C216.337 287.078 196.589 281.984 172.229 281.984C147.869 281.984 128.121 287.078 128.121 293.362C128.121 299.646 147.869 304.739 172.229 304.739Z" fill="#8AB795"/>
<path d="M216.337 312.296C216.337 318.576 196.595 323.673 172.229 323.673C147.863 323.673 128.121 318.576 128.121 312.296V293.359C128.121 299.64 147.863 304.737 172.229 304.737C196.595 304.737 216.337 299.64 216.337 293.359V312.296Z" fill="#A1C5AA"/>
<path opacity="0.18" d="M208.526 293.472C208.526 295.902 200.399 298.016 188.532 299.042C185.975 299.263 183.245 299.437 180.389 299.547C177.769 299.657 175.039 299.705 172.23 299.705C167.78 299.705 163.535 299.563 159.589 299.31C154.918 299.01 150.705 298.553 147.17 297.969C140.242 296.833 135.934 295.239 135.934 293.456C135.934 290.016 152.188 287.223 172.23 287.223C192.272 287.223 208.526 290.016 208.526 293.456V293.472Z" fill="black"/>
<path d="M172.229 299.704C172.924 302.418 177.768 299.657 180.388 299.546C183.244 299.436 185.974 299.262 188.531 299.041C188.531 299.041 189.588 288.437 203.791 269.501C217.994 250.564 225.885 236.757 229.83 218.215C233.775 199.673 234.959 173.636 229.83 173.636C224.701 173.636 219.967 183.893 219.967 183.893C219.967 183.893 232.592 128.662 208.525 129.057C184.459 129.451 189.194 192.572 182.487 205.591C175.78 218.61 163.155 264.42 172.229 299.704Z" fill="#005E22"/>
<path d="M172.23 299.707C172.23 299.707 186.953 273.843 191.956 242.014C196.958 210.186 185.123 187.573 178.81 187.573C172.498 187.573 173.524 195.194 169.073 190.46C164.607 185.726 167.085 144.43 147.185 148.375C127.27 152.32 133.329 201.238 137.275 208.071C137.275 208.071 129.384 178.878 116.491 183.344C103.598 187.809 110.4 228.033 114.471 241.462C121.225 263.823 144.218 282.491 147.201 295.636V297.955C150.736 298.539 154.949 298.997 159.621 299.297C163.55 299.549 167.811 299.691 172.261 299.691" fill="#008F39"/>
<path d="M319.293 279.426C319.293 279.426 280.061 175.293 301.098 166.44C322.149 157.587 341.087 206.648 341.087 206.648C341.087 206.648 323.207 136.947 341.087 136.742C358.966 136.552 369.224 166.44 369.224 166.44C369.224 166.44 373.706 115.517 385.273 114.46C396.841 113.403 393.685 170.211 385.273 181.794C385.273 181.794 399.729 154.968 409.339 169.438C418.95 183.909 377.304 287.364 380.76 291.388C384.216 295.412 319.293 279.426 319.293 279.426Z" fill="#005E22"/>
<path d="M633.887 304.391C633.887 304.391 617.743 270.732 612.283 229.309C606.807 187.886 619.779 158.44 626.691 158.44C633.603 158.44 632.483 168.366 637.359 162.211C642.251 156.057 639.537 102.31 661.346 107.438C683.155 112.567 676.527 176.24 672.219 185.14C672.219 185.14 680.867 147.141 694.991 152.964C709.115 158.787 701.666 211.13 697.216 228.614C689.815 257.713 664.613 282.015 661.362 299.136V302.15C657.495 302.908 652.872 303.507 647.743 303.886C643.435 304.217 638.763 304.391 633.903 304.391" fill="#3A925A"/>
<path d="M625.744 298.648C625.065 301.347 620.442 298.585 617.917 298.475C615.171 298.364 612.567 298.175 610.121 297.954C610.121 297.954 609.127 287.413 595.555 268.556C581.983 249.698 574.456 235.969 570.716 217.522C566.976 199.075 565.903 173.211 570.81 173.211C575.718 173.211 580.247 183.421 580.247 183.421C580.247 183.421 568.27 128.506 591.341 128.948C614.413 129.39 609.726 192.116 616.118 205.072C622.509 218.027 634.518 263.585 625.728 298.633L625.744 298.648Z" fill="#C7E5D3"/>
<path d="M445.24 235.984C445.24 235.984 415.619 181.685 434.698 172.453C453.762 163.238 467.365 209 467.365 209C467.365 209 462.094 129.547 485.813 137.973C509.532 146.4 481.963 241.476 478.917 241.476H445.256V235.984H445.24Z" fill="#3A925A"/>
<path d="M644.76 456.481C644.76 456.481 638.905 427.303 644.16 395.522C649.415 363.74 667.753 345.988 673.75 347.976C679.746 349.964 676.369 356.876 682.098 353.783C687.826 350.69 698.447 310.719 716.106 320.708C733.765 330.712 712.65 375.244 706.764 380.499C706.764 380.499 723.428 355.266 734.254 363.551C745.08 371.851 726.001 407.893 717.921 419.366C704.475 438.46 676.78 448.969 669.836 460.521L669.11 462.714C665.575 462.146 661.425 461.262 656.896 460.079C653.077 459.085 648.989 457.869 644.776 456.481" fill="#C7E5D3"/>
<path d="M527.712 472.943H667.627C670.231 472.943 672.692 473.574 674.854 474.694C676.796 475.704 678.516 477.093 679.889 478.782C682.098 481.496 683.424 484.967 683.424 488.755C683.424 497.481 676.354 504.551 667.627 504.551H527.712L499.086 466.394C498.202 465.211 497.729 463.775 497.729 462.307V461.881C497.729 460.65 499.291 460.114 500.033 461.092L502.873 464.769L527.176 496.234C527.176 496.234 534.546 490.711 527.697 472.959L527.712 472.943Z" fill="#8AB795"/>
<path d="M527.712 472.94C534.545 490.693 527.191 496.216 527.191 496.216L502.889 464.75C502.889 464.75 507.781 460.695 502.889 442.879L527.728 472.94H527.712Z" fill="#B9D4BF"/>
<path d="M667.627 472.943H527.712L497.729 436.648H632.135L667.642 464.264C667.642 464.264 678.011 472.564 680.267 479.271L679.873 478.766C678.5 477.077 676.795 475.689 674.839 474.679C672.677 473.558 670.215 472.927 667.611 472.927" fill="#80AA89"/>
<path d="M551.258 498.19H658.174C658.174 498.19 659.752 495.223 659.752 488.738C659.752 482.252 658.174 479.285 658.174 479.285H551.258C551.258 479.285 552.836 482.552 552.836 488.738C552.836 494.923 551.258 498.19 551.258 498.19Z" fill="#A1C5AA"/>
<path d="M527.712 435.068H667.627C670.231 435.068 672.692 435.699 674.854 436.819C676.796 437.829 678.516 439.218 679.889 440.907C682.098 443.621 683.424 447.092 683.424 450.88C683.424 459.606 676.354 466.676 667.627 466.676H527.712L499.086 428.519C498.202 427.336 497.729 425.9 497.729 424.432V424.006C497.729 422.775 499.291 422.239 500.033 423.217L502.873 426.894L527.176 458.359C527.176 458.359 534.546 452.836 527.697 435.084L527.712 435.068Z" fill="#8AB795"/>
<path d="M527.712 435.069C534.545 452.822 527.191 458.345 527.191 458.345L502.889 426.879C502.889 426.879 507.781 422.824 502.889 405.008L527.728 435.069H527.712Z" fill="#B9D4BF"/>
<path d="M667.627 435.068H527.712L497.729 398.773H632.135L667.642 426.389C667.642 426.389 678.011 434.689 680.267 441.396L679.873 440.891C678.5 439.202 676.795 437.814 674.839 436.804C672.677 435.683 670.215 435.052 667.611 435.052" fill="#80AA89"/>
<path d="M551.258 460.319H658.174C658.174 460.319 659.752 457.352 659.752 450.866C659.752 444.381 658.174 441.414 658.174 441.414H551.258C551.258 441.414 552.836 444.681 552.836 450.866C552.836 457.052 551.258 460.319 551.258 460.319Z" fill="#A1C5AA"/>
<path d="M271.113 474.251H131.215C128.611 474.251 126.149 474.883 123.987 476.003C122.046 477.013 120.326 478.402 118.953 480.09C116.744 482.804 115.418 486.276 115.418 490.063C115.418 498.79 122.488 505.859 131.215 505.859H271.129L299.756 467.703C300.64 466.519 301.113 465.083 301.113 463.616V463.189C301.113 461.959 299.551 461.422 298.809 462.4L295.968 466.077L271.666 497.543C271.666 497.543 264.296 492.02 271.145 474.267L271.113 474.251Z" fill="#8AB795"/>
<path d="M271.115 474.249C264.281 492.002 271.635 497.525 271.635 497.525L295.938 466.059C295.938 466.059 291.046 462.003 295.938 444.188L271.099 474.249H271.115Z" fill="#B9D4BF"/>
<path d="M131.215 474.252H271.129L301.113 437.957H166.706L131.199 465.572C131.199 465.572 120.831 473.873 118.574 480.579L118.969 480.074C120.342 478.386 122.046 476.997 124.003 475.987C126.165 474.867 128.627 474.236 131.231 474.236" fill="#80AA89"/>
<path d="M247.584 499.498H140.668C140.668 499.498 139.09 496.532 139.09 490.046C139.09 483.56 140.668 480.594 140.668 480.594H247.584C247.584 480.594 246.006 483.86 246.006 490.046C246.006 496.232 247.584 499.498 247.584 499.498Z" fill="#A1C5AA"/>
<path d="M271.113 436.376H131.215C128.611 436.376 126.149 437.008 123.987 438.128C122.046 439.138 120.326 440.527 118.953 442.215C116.744 444.929 115.418 448.401 115.418 452.188C115.418 460.915 122.488 467.984 131.215 467.984H271.129L299.756 429.828C300.64 428.644 301.113 427.208 301.113 425.741V425.314C301.113 424.084 299.551 423.547 298.809 424.525L295.968 428.202L271.666 459.668C271.666 459.668 264.296 454.145 271.145 436.392L271.113 436.376Z" fill="#A1C5AA"/>
<path d="M271.115 436.378C264.281 454.13 271.635 459.654 271.635 459.654L295.938 428.188C295.938 428.188 291.046 424.132 295.938 406.316L271.099 436.378H271.115Z" fill="#E1EBE5"/>
<path d="M131.215 436.38H271.129L301.113 400.086H166.706L131.199 427.701C131.199 427.701 120.831 436.002 118.574 442.708L118.969 442.203C120.342 440.515 122.046 439.126 124.003 438.116C126.165 436.996 128.627 436.365 131.231 436.365" fill="#B9D4BF"/>
<path d="M247.584 461.627H140.668C140.668 461.627 139.09 458.661 139.09 452.175C139.09 445.689 140.668 442.723 140.668 442.723H247.584C247.584 442.723 246.006 445.989 246.006 452.175C246.006 458.361 247.584 461.627 247.584 461.627Z" fill="#B9D4BF"/>
<path d="M556.134 397.197H696.049C698.653 397.197 701.114 397.828 703.276 398.948C705.217 399.958 706.938 401.347 708.311 403.035C710.52 405.75 711.845 409.221 711.845 413.008C711.845 421.735 704.776 428.805 696.049 428.805H556.134L527.508 390.648C526.624 389.464 526.15 388.028 526.15 386.561V386.135C526.15 384.904 527.713 384.367 528.454 385.346L531.295 389.023L555.598 420.488C555.598 420.488 562.967 414.965 556.119 397.213L556.134 397.197Z" fill="#A1C5AA"/>
<path d="M556.134 397.194C562.967 414.947 555.613 420.47 555.613 420.47L531.311 389.004C531.311 389.004 536.203 384.949 531.311 367.133L556.134 397.194Z" fill="#E1EBE5"/>
<path d="M696.033 397.197H556.119L526.135 360.902H660.542L696.049 388.518C696.049 388.518 706.417 396.818 708.674 403.525L708.279 403.02C706.906 401.331 705.202 399.943 703.245 398.933C701.083 397.812 698.621 397.181 696.017 397.181" fill="#B9D4BF"/>
<path d="M579.664 422.444H686.58C686.58 422.444 688.158 419.477 688.158 412.991C688.158 406.506 686.58 403.539 686.58 403.539H579.664C579.664 403.539 581.242 406.806 581.242 412.991C581.242 419.177 579.664 422.444 579.664 422.444Z" fill="#E2EDE6"/>
<path d="M527.712 359.31H667.627C670.231 359.31 672.692 359.941 674.854 361.062C676.796 362.072 678.516 363.46 679.889 365.149C682.098 367.863 683.424 371.335 683.424 375.122C683.424 383.848 676.354 390.918 667.627 390.918H527.712L499.086 352.761C498.202 351.578 497.729 350.142 497.729 348.674V348.248C497.729 347.017 499.291 346.481 500.033 347.459L502.873 351.136L527.176 382.602C527.176 382.602 534.546 377.079 527.697 359.326L527.712 359.31Z" fill="#8AB795"/>
<path d="M527.712 359.307C534.545 377.06 527.191 382.583 527.191 382.583L502.889 351.117C502.889 351.117 507.781 347.062 502.889 329.246L527.728 359.307H527.712Z" fill="#B9D4BF"/>
<path d="M667.627 359.31H527.712L497.729 323.016H632.135L667.642 350.631C667.642 350.631 678.011 358.931 680.267 365.638L679.873 365.133C678.5 363.445 676.795 362.056 674.839 361.046C672.677 359.926 670.215 359.294 667.611 359.294" fill="#80AA89"/>
<path d="M551.258 384.553H658.174C658.174 384.553 659.752 381.586 659.752 375.101C659.752 368.615 658.174 365.648 658.174 365.648H551.258C551.258 365.648 552.836 368.915 552.836 375.101C552.836 381.287 551.258 384.553 551.258 384.553Z" fill="#A1C5AA"/>
<path d="M537.197 321.435H677.111C679.715 321.435 682.177 322.066 684.339 323.187C686.28 324.197 688 325.585 689.373 327.274C691.582 329.988 692.908 333.46 692.908 337.247C692.908 345.973 685.838 353.043 677.111 353.043H537.197L508.57 314.886C507.686 313.703 507.213 312.267 507.213 310.799V310.373C507.213 309.142 508.775 308.606 509.517 309.584L512.358 313.261L536.66 344.727C536.66 344.727 544.03 339.204 537.181 321.451L537.197 321.435Z" fill="#A1C5AA"/>
<path d="M537.197 321.436C544.03 339.189 536.676 344.712 536.676 344.712L512.373 313.246C512.373 313.246 517.265 309.191 512.373 291.375L537.212 321.436H537.197Z" fill="#E1EBE5"/>
<path d="M677.096 321.435H537.181L507.197 285.141H641.604L677.111 312.756C677.111 312.756 687.479 321.056 689.736 327.763L689.342 327.258C687.969 325.57 686.264 324.181 684.307 323.171C682.145 322.051 679.684 321.419 677.08 321.419" fill="#B9D4BF"/>
<path d="M560.727 346.686H667.643C667.643 346.686 669.221 343.719 669.221 337.234C669.221 330.748 667.643 327.781 667.643 327.781H560.727C560.727 327.781 562.305 331.048 562.305 337.234C562.305 343.419 560.727 346.686 560.727 346.686Z" fill="#E2EDE6"/>
<path d="M568.601 234.12C568.601 234.12 576.223 258.848 577.012 263.834C577.801 268.821 582.015 292.239 582.015 292.239C582.015 292.239 590.726 294.148 591.215 291.181C591.483 289.603 589.369 247.265 588.848 238.838C588.327 230.427 580.957 214.379 580.957 214.379L553.861 215.957L554.919 293.012C554.919 293.012 562.288 297.225 566.754 291.954C566.754 291.954 565.697 263.55 566.486 257.238C567.275 250.926 568.585 234.088 568.585 234.088L568.601 234.12Z" fill="#37397A"/>
<path d="M553.071 164.417C553.071 164.417 553.592 170.729 552.282 171.518C550.973 172.307 547.027 183.085 547.027 183.085L555.707 219.9C555.707 219.9 574.644 221.478 579.899 216.475C585.154 211.473 575.165 171.502 575.165 171.502L569.121 168.614C569.121 168.614 561.23 168.093 559.131 161.781L553.087 164.417H553.071Z" fill="#C6674E"/>
<path opacity="0.18" d="M547.027 183.104C547.027 183.104 552.724 196.391 560.725 195.665C568.726 194.939 573.255 188.043 572.072 178.37C570.888 168.697 575.165 171.537 575.165 171.537C575.165 171.537 585.154 211.509 579.899 216.511C574.644 221.513 555.707 219.935 555.707 219.935L547.027 183.12" fill="black"/>
<path d="M546.239 227.54L547.817 255.424C547.817 255.424 560.963 256.213 564.387 252C564.387 252 564.308 250.295 564.198 247.518C563.772 237.466 562.762 213.449 562.556 206.237C562.288 197.037 553.088 169.422 553.088 169.422L545.986 171.268L546.049 185.47L546.239 227.556V227.54Z" fill="#E6E6E6"/>
<path d="M610.547 230.301L603.193 233.867L598.316 236.218L599.263 252.33L599.626 258.452L621.073 245.039L619.495 226.355L615.691 228.044L610.547 230.301Z" fill="#F5B13C"/>
<path opacity="0.1" d="M615.691 228.043L610.547 230.3L603.193 233.866L598.316 236.217L599.263 252.329L615.691 228.043Z" fill="black"/>
<path d="M605.417 223.859C605.417 223.859 604.896 227.015 604.628 228.862C604.359 230.708 604.359 233.075 604.359 233.075L606.727 232.018C606.727 232.018 605.669 228.341 607.247 229.651C608.825 230.96 610.135 235.174 612.25 234.905C614.349 234.637 615.927 233.848 615.927 232.538C615.927 231.229 609.883 222.281 609.883 222.281L605.417 223.859Z" fill="#DD9666"/>
<path d="M564.262 167.32L569.122 168.63C569.122 168.63 573.336 180.986 575.703 199.922C577.439 213.809 580.169 234.323 581.495 244.296C581.984 247.925 582.284 250.15 582.284 250.15C582.284 250.15 592.541 251.728 594.64 246.726C594.64 246.726 591.484 225.423 590.695 218.842C589.906 212.262 590.427 208.854 588.848 203.062C587.27 197.271 585.172 189.381 585.172 189.381C585.172 189.381 590.963 198.581 591.752 201.216C592.541 203.851 594.119 209.895 596.755 213.572C599.39 217.249 605.434 223.829 605.434 223.829C605.434 223.829 609.648 223.561 611.226 221.73C611.226 221.73 611.068 221.146 610.784 220.136C609.159 214.329 603.556 194.509 601.757 190.706C599.658 186.241 588.612 168.093 583.877 166.247C579.143 164.401 568.759 166.247 564.277 167.304L564.262 167.32Z" fill="#E6E6E6"/>
<path opacity="0.18" d="M590.694 218.859C591.484 225.44 594.64 246.743 594.64 246.743C592.541 251.745 582.283 250.167 582.283 250.167C582.283 250.167 581.983 247.942 581.494 244.313C581.494 244.313 583.735 244.849 586.102 238.537C588.469 232.225 588.58 229.621 589.022 226.876C589.464 224.13 590.71 218.875 590.71 218.875L590.694 218.859Z" fill="black"/>
<path opacity="0.18" d="M610.753 220.17C611.037 221.18 611.195 221.764 611.195 221.764C609.617 223.61 605.403 223.862 605.403 223.862C605.403 223.862 599.359 217.282 596.724 213.605C594.088 209.928 592.51 203.869 591.721 201.249C590.932 198.614 585.141 189.414 585.141 189.414C585.141 189.414 586.971 190.408 588.975 192.176C590.995 193.943 593.946 201.249 596.314 205.589C598.681 209.928 600.716 215.893 604.33 217.945C607.944 219.996 610.722 220.17 610.722 220.17H610.753Z" fill="black"/>
<path d="M564.655 167.574C564.655 167.574 568.332 170.857 570.178 178.352C572.025 185.848 578.858 226.482 579.126 227.934C579.394 229.386 582.156 214.252 582.409 209.266C582.677 204.263 581.888 184.538 580.831 183.355L574.786 178.494C574.786 178.494 579.647 172.845 579.647 172.309C579.647 171.772 571.63 166.123 571.094 165.87C570.573 165.602 569.247 164.687 567.937 164.955C566.628 165.223 563.203 166.407 563.203 166.407L564.655 167.59V167.574Z" fill="#F2F2F2"/>
<path d="M553.071 168.238C553.071 168.238 549.126 168.759 548.463 169.548C547.8 170.337 546.759 182.835 547.011 183.088C547.28 183.356 551.083 183.608 551.083 183.608C551.083 183.608 548.447 186.891 549.631 188.074C550.815 189.258 558.973 205.827 559.762 210.04C560.551 214.254 563.187 226.736 563.187 226.736C563.187 226.736 563.108 205.827 562.919 203.46C562.256 195.049 553.055 168.223 553.055 168.223L553.071 168.238Z" fill="#F2F2F2"/>
<path d="M542.088 144.835C542.088 144.835 544.25 154.697 544.36 156.575C544.471 158.453 547.517 159.542 547.517 159.542L554.807 157.569L557.758 154.113L555.596 148.196L554.223 141L547.217 141.789L542.088 144.85V144.835Z" fill="#DD9666"/>
<path d="M547.029 149.57L547.423 153.515C547.423 153.515 547.723 154.698 548.796 154.493C549.869 154.288 549.68 153.104 549.68 153.104L548.196 148.97C548.196 148.97 546.918 148.67 547.013 149.57H547.029Z" fill="#A6714D"/>
<path d="M543.667 154.303C543.667 154.303 542.578 155.392 542.578 157.064C542.578 158.737 542.972 161.893 544.74 163.676C546.507 165.459 546.413 166.343 548.78 166.438C551.147 166.532 558.738 164.954 559.921 162.193C561.105 159.431 561.105 154.697 560.805 152.725C560.505 150.752 558.738 142.657 557.949 140.29C557.16 137.923 554.887 136.645 553.419 136.739C551.952 136.834 550.753 137.718 548.78 137.339C546.807 136.96 542.168 136.361 540.4 138.128C538.633 139.895 537.449 142.073 539.217 144.44C540.984 146.807 545.529 146.113 547.801 145.718C550.074 145.324 553.625 143.162 553.625 143.162C553.625 143.162 554.808 147.407 554.903 148.385C554.998 149.363 556.386 152.03 555.203 154.303C554.019 156.575 549.679 157.269 548.401 157.364C547.123 157.459 543.967 157.064 543.667 154.303Z" fill="#333333"/>
<path d="M557.475 145.419C557.475 145.419 559.542 141.284 560.931 142.357C562.319 143.431 562.414 146.113 561.72 147.092C561.025 148.07 559.053 149.459 559.053 149.459C559.053 149.459 557.475 147.881 557.475 145.419Z" fill="#DD9666"/>
<path d="M542.484 148.276C542.484 148.276 539.627 145.909 538.933 147.787C538.239 149.665 541 151.243 541.994 151.637C542.989 152.032 543.573 152.032 543.573 152.032L544.156 150.943L543.367 148.181L542.484 148.276Z" fill="#DD9666"/>
<path d="M566.091 291.844C566.091 291.844 566.88 297.493 566.217 298.677C565.554 299.86 563.061 301.438 562.54 301.438C562.019 301.438 562.272 300.381 561.483 300.523C560.694 300.649 560.567 301.833 560.425 302.764C560.299 303.679 555.691 309.344 553.719 309.865C551.746 310.386 549.505 309.596 549.647 308.681C549.773 307.766 552.929 301.059 553.719 298.819C554.508 296.578 555.959 291.986 555.959 291.986L566.091 291.86V291.844Z" fill="#333333"/>
<path d="M581.889 292.256C581.889 292.256 582.11 297.953 582.899 299.026C583.688 300.099 586.197 301.266 586.67 301.187C587.144 301.109 586.734 300.114 587.46 300.114C588.185 300.114 588.501 301.266 588.769 302.166C589.038 303.05 594.119 307.941 595.981 308.162C597.843 308.383 599.721 307.263 599.453 306.379C599.185 305.495 595.224 299.357 594.151 297.274C593.078 295.191 591.01 290.867 591.01 290.867L581.873 292.272L581.889 292.256Z" fill="#333333"/>
<path opacity="0.18" d="M546.033 185.469C546.033 185.469 547.674 202.953 549 207.94C550.326 212.942 556.054 229.685 559.81 231.231C563.566 232.762 564.118 245.434 564.118 245.434L564.181 247.532C564.292 250.31 564.371 252.014 564.371 252.014C560.946 256.227 547.801 255.438 547.801 255.438L546.223 227.555L546.033 185.469Z" fill="black"/>
<path d="M429.474 498.296L417.828 472.811L405.566 445.969H345.22L332.674 473.426L321.311 498.28C318.376 504.687 323.063 511.977 330.117 511.977H420.669C427.723 511.977 432.394 504.687 429.474 498.28V498.296Z" fill="white"/>
<path d="M417.828 472.811L405.551 445.969H375.393H345.22L332.658 473.442L417.828 472.811Z" fill="#CCCCCC"/>
<path d="M533.093 452.424H217.678C204.233 452.424 193.328 441.52 193.328 428.075V224.021C193.328 210.576 204.233 199.672 217.678 199.672H533.077C546.523 199.672 557.427 210.576 557.427 224.021V428.075C557.427 441.52 546.523 452.424 533.077 452.424H533.093Z" fill="#333333"/>
<path d="M557.443 406.312V429.431C557.443 443.727 546.538 455.31 533.093 455.31H217.678C204.233 455.31 193.328 443.727 193.328 429.431V406.312H557.427H557.443Z" fill="white"/>
<path d="M534.64 217.945H215.422V387.914H534.64V217.945Z" fill="#E2EDE6"/>
<path d="M375.393 434.734C378.356 434.734 380.758 432.332 380.758 429.369C380.758 426.406 378.356 424.004 375.393 424.004C372.43 424.004 370.027 426.406 370.027 429.369C370.027 432.332 372.43 434.734 375.393 434.734Z" fill="#333333"/>
<path d="M365.75 326.038H241.822C236.504 326.038 232.195 321.73 232.195 316.412V240.856C232.195 235.538 236.504 231.23 241.822 231.23H365.75C371.068 231.23 375.376 235.538 375.376 240.856V316.412C375.376 321.73 371.068 326.038 365.75 326.038Z" fill="#B9D4BF"/>
<path d="M375.394 304.735V316.412C375.394 321.73 371.086 326.038 365.767 326.038H241.839C236.521 326.038 232.213 321.73 232.213 316.412V304.735C232.213 304.735 240.072 281.964 255.884 281.964C273.433 281.964 279.035 306.755 291.139 302.92C303.227 299.07 304.064 261.402 318.614 261.402C336.367 261.402 338.735 309.532 350.57 306.676C362.406 303.82 375.41 304.735 375.41 304.735H375.394Z" fill="#A1C5AA"/>
<mask id="mask0_1689_15026" style="mask-type:luminance" maskUnits="userSpaceOnUse" x="232" y="231" width="144" height="96">
<path d="M365.75 326.038H241.822C236.504 326.038 232.195 321.73 232.195 316.412V240.856C232.195 235.538 236.504 231.23 241.822 231.23H365.75C371.068 231.23 375.376 235.538 375.376 240.856V316.412C375.376 321.73 371.068 326.038 365.75 326.038Z" fill="white"/>
</mask>
<g mask="url(#mask0_1689_15026)">
<path d="M245.371 315.495C235.208 315.495 229.212 305.301 229.148 305.191L230.521 304.402C230.585 304.512 237.023 315.416 247.581 313.744C254.43 312.655 263.677 289.127 269.785 273.567C274.471 261.622 276.255 257.393 277.722 256.903C279.758 256.209 281.557 260.691 287.601 278.806C291.483 290.436 297.985 309.972 300.763 309.53C303.682 309.152 308.085 298.91 311.289 291.431C315.186 282.373 317.317 277.654 319.463 277.844C321.515 278.017 324.403 283.462 330.478 295.802C333.84 302.65 338.432 311.961 340.042 312.702C341.099 311.787 343.671 305.096 345.928 299.194C351.798 283.872 356.264 273.062 360.304 273.441C366.632 274.057 375.628 304.086 377.364 310.099L375.849 310.54C371.935 297.017 364.218 275.398 360.162 275.003C360.131 275.003 360.099 275.003 360.068 275.003C356.896 275.003 350.962 290.484 347.411 299.762C343.687 309.483 342.03 313.507 340.673 314.186C340.452 314.296 340.089 314.391 339.631 314.233C337.548 313.523 334.266 307.037 329.074 296.496C325.602 289.442 320.852 279.801 319.321 279.406C318.09 279.611 314.997 286.791 312.74 292.046C308.069 302.919 304.487 310.635 300.968 311.093C297.18 311.582 292.825 299.4 286.118 279.296C283.214 270.601 279.616 259.839 278.117 258.481C276.996 259.586 274.093 266.971 271.268 274.12C262.683 295.975 254.998 314.154 247.833 315.274C246.997 315.401 246.176 315.464 245.387 315.464L245.371 315.495Z" fill="#80AA89"/>
</g>
<path d="M519.586 323.025H390.402V244.25H391.98V321.447H519.586V323.025Z" fill="#80AA89"/>
<path d="M416.441 261.402H402.238V322.235H416.441V261.402Z" fill="#8AB795"/>
<path d="M438.533 275.367H424.33V322.234H438.533V275.367Z" fill="#8AB795"/>
<path d="M460.627 253.828H446.424V322.235H460.627V253.828Z" fill="#8AB795"/>
<path d="M482.719 281.965H468.516V322.236H482.719V281.965Z" fill="#8AB795"/>
<path d="M504.812 266.672H490.609V322.234H504.812V266.672Z" fill="#8AB795"/>
<path d="M309.128 334.594H232.195V337.229H309.128V334.594Z" fill="#8AB795"/>
<path d="M328.38 342.484H232.195V345.12H328.38V342.484Z" fill="#8AB795"/>
<path d="M300.953 348.797H232.195V351.432H300.953V348.797Z" fill="#8AB795"/>
<path d="M445.005 329.859H390.008V332.495H445.005V329.859Z" fill="#A1C5AA"/>
<path d="M486.193 337.75H390.008V340.385H486.193V337.75Z" fill="#A1C5AA"/>
<path d="M476.63 344.062H390.008V346.698H476.63V344.062Z" fill="#A1C5AA"/>
<path d="M264.73 377.652C269.376 373.005 269.376 365.471 264.73 360.825C260.083 356.178 252.549 356.178 247.902 360.825C243.255 365.471 243.255 373.005 247.902 377.652C252.549 382.298 260.083 382.298 264.73 377.652Z" fill="#B9D4BF"/>
<path d="M256.311 369.23L262.103 358.847C260.382 357.884 258.41 357.332 256.311 357.332C249.746 357.332 244.412 362.65 244.412 369.23C244.412 375.811 249.73 381.129 256.311 381.129C260.951 381.129 264.959 378.462 266.932 374.58L256.311 369.23Z" fill="#8AB795"/>
<path d="M315.234 377.648C319.88 373.001 319.88 365.468 315.234 360.821C310.587 356.174 303.053 356.174 298.406 360.821C293.759 365.468 293.759 373.001 298.406 377.648C303.053 382.294 310.587 382.294 315.234 377.648Z" fill="#B9D4BF"/>
<path d="M306.825 369.231L303.921 357.711C298.761 359.005 294.926 363.66 294.926 369.231C294.926 375.795 300.244 381.129 306.825 381.129C313.405 381.129 318.724 375.811 318.724 369.231C318.724 368.126 318.566 367.053 318.282 366.043L306.84 369.231H306.825Z" fill="#8AB795"/>
<path d="M368.926 371.931C370.403 365.528 366.41 359.14 360.006 357.663C353.603 356.186 347.214 360.179 345.737 366.582C344.26 372.985 348.253 379.373 354.657 380.85C361.06 382.327 367.449 378.334 368.926 371.931Z" fill="#B9D4BF"/>
<path d="M357.325 369.23V357.332C350.76 357.332 345.426 362.65 345.426 369.23C345.426 375.811 350.744 381.129 357.325 381.129C359.234 381.129 361.033 380.671 362.643 379.866L357.325 369.23Z" fill="#8AB795"/>
<path d="M497.113 355.691H394.742C392.781 355.691 391.191 357.281 391.191 359.242V374.233C391.191 376.194 392.781 377.784 394.742 377.784H497.113C499.074 377.784 500.664 376.194 500.664 374.233V359.242C500.664 357.281 499.074 355.691 497.113 355.691Z" fill="#B9D4BF"/>
<path d="M514.961 220.375C514.961 220.375 509.422 228.076 508.948 229.528C508.459 230.979 508.459 231.942 509.438 232.652C510.4 233.378 513.051 234.341 513.051 234.341L514.977 234.83L512.815 241.568C512.815 241.568 514.74 241.568 515.229 240.605C515.718 239.643 516.429 237.228 517.644 235.303C518.859 233.378 521.258 224.715 521.258 224.715L517.88 220.375H514.992H514.961Z" fill="#DD9666"/>
<path d="M546.018 171.251C545.055 170.777 534.94 173.412 533.015 176.553C531.089 179.693 520.011 206.646 518.575 210.496C517.123 214.346 513.762 221.574 513.762 221.574C513.762 221.574 518.575 222.063 521.952 226.876C521.952 226.876 525.077 223.751 524.84 222.789C524.603 221.826 523.877 222.063 524.351 221.1C524.84 220.138 526.039 221.1 526.513 220.374C527.002 219.649 533.977 207.135 535.176 205.21C536.376 203.284 537.102 201.833 536.865 200.397C536.628 198.945 538.317 197.982 538.79 197.02C539.28 196.057 542.404 194.132 542.404 192.443C542.404 190.755 546.491 186.905 546.491 186.905L546.018 171.251Z" fill="#E6E6E6"/>
<path d="M133.361 399.088C133.361 399.088 136.817 395.158 140.068 390.408C147.359 379.757 155.25 377.39 158.216 374.029C159.826 372.198 161.262 368.285 162.367 364.829C163.282 361.925 163.976 359.369 164.339 358.643C165.128 357.065 179.331 362.777 179.331 362.777C179.331 362.777 171.441 378.557 168.49 381.524C165.523 384.491 154.871 391.387 147.785 395.537C140.684 399.671 137.133 403.033 136.549 403.427C135.965 403.822 133.393 399.088 133.393 399.088H133.361Z" fill="#DD9666"/>
<path opacity="0.1" d="M168.475 381.54C171.426 378.573 179.316 362.793 179.316 362.793C179.316 362.793 165.113 357.08 164.324 358.658C163.961 359.384 163.283 361.941 162.352 364.844C162.352 364.844 166.518 368.269 169.863 368.095C173.209 367.921 168.475 381.54 168.475 381.54Z" fill="black"/>
<path d="M133.361 397.113C133.361 397.113 129.227 399.291 128.027 400.459C126.828 401.626 124.682 405.003 124.682 405.003C124.682 405.003 127.238 408.759 128.438 409.138C128.438 409.138 130.615 407.56 131.199 408.349C131.783 409.138 130.805 410.716 131.389 412.483C131.972 414.251 139.468 420.563 141.252 420.973C143.035 421.383 144.802 420.578 144.408 419.789C144.013 419 139.484 416.444 139.074 413.872C138.664 411.3 138.285 402.037 138.285 402.037C138.285 402.037 135.918 398.691 133.361 397.113Z" fill="#333333"/>
<path d="M175.182 363C175.182 363 175.024 365.194 174.803 368.097C174.392 373.257 173.714 380.674 173.209 381.936C172.42 383.909 168.285 389.827 166.897 398.111C165.508 406.396 164.719 416.858 164.719 416.858L170.242 418.436C170.242 418.436 181.478 390.032 184.05 386.087C186.623 382.142 188.39 376.618 189.179 372.863C189.479 371.395 189.889 369.675 190.252 368.097C190.836 365.651 191.341 363.584 191.341 363.584L175.166 362.984L175.182 363Z" fill="#DD9666"/>
<path opacity="0.1" d="M190.266 368.097C190.85 365.651 191.355 363.584 191.355 363.584L175.18 362.984C175.18 362.984 175.022 365.178 174.801 368.081C174.801 368.081 179.93 369.533 184.064 369.218C188.199 368.902 190.266 368.081 190.266 368.081V368.097Z" fill="black"/>
<path d="M163.551 414.475C163.551 414.475 160.205 418.231 159.416 420.188C158.627 422.145 158.232 423.943 158.232 423.943C158.232 423.943 161.389 426.91 163.945 427.494C163.945 427.494 164.924 425.521 165.713 426.894C166.502 428.267 165.523 432.417 168.285 433.396C171.047 434.374 179.521 433.79 180.515 433.585C181.509 433.38 181.904 432.402 181.115 431.613C180.326 430.824 179.142 431.802 175.986 429.435C172.83 427.068 172.041 423.312 172.041 420.756C172.041 418.199 171.851 417.205 171.851 417.205C171.851 417.205 164.939 414.239 163.566 414.444L163.551 414.475Z" fill="#333333"/>
<path d="M200.824 277.186C200.824 277.186 204.58 276.586 206.158 275.608C207.736 274.629 210.293 273.635 210.498 270.684C210.703 267.734 208.131 259.638 207.342 258.66C206.553 257.682 194.906 262.605 194.906 262.605L194.512 272.862L200.824 277.202V277.186Z" fill="#DD9666"/>
<path d="M233.965 262.589C233.965 262.589 237.516 254.509 238.51 251.732C239.504 248.955 240.877 244.031 241.666 244.031C242.455 244.031 242.85 245.215 242.455 246.398C242.061 247.582 241.066 251.322 241.066 251.322C241.066 251.322 244.617 252.505 244.617 253.878C244.617 255.251 243.828 257.034 242.439 258.218C241.051 259.401 237.516 263.346 237.105 263.93C236.695 264.514 233.949 262.541 233.949 262.541L233.965 262.589Z" fill="#DD9666"/>
<path d="M182.283 274.027C182.283 274.027 173.793 274.028 170.053 281.318C168.175 284.963 166.249 289.555 164.798 293.232C163.346 296.909 162.352 299.67 162.352 299.67L174.976 297.493L178.937 284.774L182.283 274.012V274.027Z" fill="#E6E6E6"/>
<path opacity="0.18" d="M178.937 284.789L174.976 297.508L162.352 299.686C162.352 299.686 163.33 296.924 164.798 293.247C164.798 293.247 167.212 293.721 170.652 289.223C174.093 284.726 178.937 284.789 178.937 284.789Z" fill="black"/>
<path d="M176.175 323.545L148.748 327.679L152.898 300.064L177.359 295.141L176.175 323.545Z" fill="#C6674E"/>
<path d="M159.211 328.077C158.943 328.077 158.675 327.935 158.532 327.683L149.648 312.502C149.427 312.123 149.553 311.65 149.932 311.429C150.311 311.208 150.8 311.334 151.005 311.713L159.874 326.894C160.095 327.272 159.969 327.746 159.59 327.967C159.464 328.046 159.322 328.077 159.195 328.077H159.211Z" fill="white"/>
<path d="M182.282 274.03C182.282 274.03 179.836 276.113 177.342 279.395C175.78 281.462 174.186 284.034 173.208 286.843C170.651 294.134 162.95 334.184 161.972 336.945C160.993 339.707 159.005 347.597 159.005 349.964C159.005 352.331 157.427 354.887 157.821 356.876C158.216 358.864 166.311 363.977 177.547 365.366C188.799 366.754 196.69 365.365 197.668 362.399C198.647 359.432 198.647 343.652 198.852 336.961C199.057 330.27 199.641 315.263 200.035 311.902C200.43 308.541 200.225 305.196 200.43 304.201C200.635 303.207 201.819 305.779 202.986 304.801C204.154 303.823 214.822 299.467 219.951 292.776C225.08 286.086 234.343 271.079 236.126 267.923C237.91 264.767 238.099 263.189 238.099 263.189C238.099 263.189 234.943 261.216 233.759 261.421C232.576 261.626 226.058 268.333 222.318 271.489C218.578 274.645 209.094 280.957 205.148 281.557C201.203 282.156 192.129 279 190.551 277.801C188.973 276.602 182.266 274.045 182.266 274.045L182.282 274.03Z" fill="#E6E6E6"/>
<path opacity="0.18" d="M205.163 281.523C201.218 282.123 192.144 278.967 190.566 277.767C188.988 276.568 182.281 274.012 182.281 274.012C182.281 274.012 179.835 276.095 177.341 279.377C177.341 279.377 176.158 284.064 185.043 285.058C193.927 286.052 191.75 285.452 195.9 285.058C200.05 284.663 205.163 281.507 205.163 281.507V281.523Z" fill="black"/>
<path opacity="0.18" d="M200.429 304.219C200.24 305.197 200.429 308.558 200.035 311.92C199.64 315.281 199.056 330.256 198.851 336.978C198.646 343.701 198.662 359.465 197.668 362.416C196.673 365.367 188.799 366.756 177.547 365.383C177.547 365.383 186.621 363.063 190.377 358.408C194.133 353.753 195.711 338.099 195.9 332.513C196.09 326.926 200.429 304.235 200.429 304.235V304.219Z" fill="black"/>
<path d="M201.818 266.533C201.818 266.533 202.418 267.717 202.797 267.622C203.176 267.527 202.986 266.438 204.375 264.655C205.764 262.872 209.804 261.105 209.504 258.154C209.204 255.203 203.681 251.242 197.479 251.747C191.277 252.252 186.132 254.903 183.37 260.237C180.609 265.57 177.547 276.806 186.227 280.262C194.906 283.718 199.735 282.929 201.408 281.935C203.081 280.94 204.075 276.601 203.87 273.445C203.665 270.289 202.892 270.099 201.992 270.194C201.092 270.289 197.558 271.378 197.652 268.316C197.747 265.255 200.714 265.16 201.787 266.549L201.818 266.533Z" fill="#F5B13C"/>
<path d="M209.614 263.772C209.614 263.772 211.287 267.118 211.287 267.528C211.287 267.938 210.766 268.617 209.977 268.712C209.977 268.712 209.315 265.855 209.22 265.066C209.125 264.277 208.62 263.094 209.614 263.788V263.772Z" fill="#A6714D"/>
<path d="M576.806 458.453C575.749 458.453 574.723 458.547 573.729 458.705V424.509C573.729 415.657 555.707 408.461 533.488 408.461C511.268 408.461 493.246 415.641 493.246 424.509V522.347C493.246 531.199 511.268 538.395 533.488 538.395C555.707 538.395 573.729 531.215 573.729 522.347V481.366C574.723 481.523 575.749 481.618 576.806 481.618C584.981 481.618 591.609 476.426 591.609 470.035C591.609 463.644 584.981 458.453 576.806 458.453ZM579.789 474.233C577.169 474.233 575.055 472.355 575.055 470.02C575.055 467.684 577.169 465.806 579.789 465.806C582.409 465.806 584.523 467.684 584.523 470.02C584.523 472.355 582.409 474.233 579.789 474.233Z" fill="#B9D4BF"/>
<path d="M564.796 424.072C564.796 429.405 550.672 433.729 533.234 433.729C515.796 433.729 501.672 429.405 501.672 424.072C501.672 418.738 515.796 414.414 533.234 414.414C550.672 414.414 564.796 418.738 564.796 424.072Z" fill="#8AB795"/>
<path d="M550.468 432.165L562.241 391.389C562.967 388.88 561.515 386.261 559.006 385.535C556.497 384.809 553.877 386.261 553.151 388.77L540.242 433.491C543.951 433.238 547.407 432.781 550.484 432.165H550.468Z" fill="#A1C5AA"/>
<path d="M546.632 515.262L542.513 498.772H523.86L519.741 515.262H506.422L524.144 449.664H542.197L559.967 515.262H546.6H546.632ZM540.035 487.994L536.216 472.798C535.995 471.867 535.475 469.563 534.67 465.855C533.865 462.146 533.392 459.669 533.234 458.406C532.808 460.963 532.271 463.787 531.624 466.88C530.977 469.957 529.273 476.995 526.543 487.994H540.051H540.035Z" fill="#DAE6DF"/>
<path d="M230.209 521.734V551.874C230.209 558.392 248.231 563.662 270.451 563.662C292.67 563.662 310.692 558.376 310.692 551.874V479.932C310.692 473.415 292.67 468.145 270.451 468.145C248.231 468.145 230.209 473.431 230.209 479.932V521.734Z" fill="#CCCCCC"/>
<path d="M270.718 486.702C288.149 486.702 302.28 483.523 302.28 479.601C302.28 475.679 288.149 472.5 270.718 472.5C253.287 472.5 239.156 475.679 239.156 479.601C239.156 483.523 253.287 486.702 270.718 486.702Z" fill="#E6E6E6"/>
<path d="M293.917 493.44L283.312 490.363L301.65 427.163C301.65 427.163 304.27 426.216 307.552 427.163C310.756 428.094 312.255 430.24 312.255 430.24L293.917 493.44Z" fill="#F5B13C"/>
<path d="M312.05 425.491C312.239 424.781 310.677 423.724 308.562 423.14C306.432 422.556 304.554 422.651 304.349 423.361L302.834 428.079C302.645 428.789 304.207 429.846 306.337 430.43C308.468 431.014 310.361 430.919 310.551 430.209L312.018 425.586H311.987C311.987 425.586 312.034 425.523 312.05 425.491Z" fill="white"/>
<path d="M310.771 425.144C310.644 425.618 309.382 425.681 307.977 425.302C306.557 424.907 305.515 424.213 305.657 423.74C305.784 423.266 307.046 423.203 308.451 423.582C309.871 423.976 310.913 424.671 310.771 425.144Z" fill="#333333"/>
<path d="M256.801 502.226L245.88 503.851L236.238 438.758C236.238 438.758 238.227 436.801 241.604 436.296C244.902 435.807 247.159 437.132 247.159 437.132L256.801 502.226Z" fill="#F5B13C"/>
<path d="M244.997 432.906C244.886 432.18 243.024 431.864 240.831 432.212C238.653 432.559 236.98 433.442 237.106 434.168L237.69 439.092C237.801 439.818 239.679 440.133 241.856 439.77C244.034 439.423 245.723 438.539 245.596 437.814L244.997 433.001H244.965C244.965 433.001 244.981 432.937 244.965 432.89L244.997 432.906Z" fill="white"/>
<path d="M243.671 433.111C243.75 433.6 242.645 434.184 241.193 434.42C239.742 434.657 238.511 434.452 238.432 433.963C238.353 433.474 239.457 432.89 240.909 432.653C242.361 432.416 243.592 432.622 243.671 433.111Z" fill="#333333"/>
<path d="M271.224 492.697L254.843 493.202L250.74 422.522C250.74 422.522 253.975 420.66 259.057 420.503C264.012 420.345 267.121 422.033 267.121 422.033L271.224 492.713V492.697Z" fill="#C6674E"/>
<path d="M264.595 417.253C264.532 416.464 261.833 415.927 258.566 416.054C255.3 416.18 252.696 416.937 252.759 417.726L252.869 423.044C252.933 423.833 255.631 424.37 258.914 424.243C262.196 424.117 264.8 423.36 264.737 422.571L264.61 417.363H264.563C264.563 417.363 264.61 417.284 264.595 417.253Z" fill="white"/>
<path d="M262.606 417.332C262.653 417.868 260.918 418.357 258.74 418.452C256.562 418.531 254.763 418.184 254.731 417.647C254.684 417.111 256.42 416.621 258.598 416.527C260.776 416.448 262.575 416.795 262.606 417.332Z" fill="#333333"/>
<path d="M283.769 510.94L267.451 509.331L272.485 438.714C272.485 438.714 275.941 437.278 280.991 437.783C285.931 438.273 288.803 440.34 288.803 440.34L283.769 510.956V510.94Z" fill="#37397A"/>
<path d="M291.265 420.803C291.265 416.038 272.975 426.421 272.896 428.031L272.233 440.608C272.17 442.217 276.021 443.701 280.85 443.922C285.679 444.127 289.655 442.99 289.719 441.381L291.249 421.04H291.186C291.202 420.961 291.265 420.882 291.265 420.803Z" fill="white"/>
<path d="M302.282 479.602C302.282 483.531 288.158 486.703 270.72 486.703C253.282 486.703 239.158 483.531 239.158 479.602L236.223 490.427L242.851 509.111L264.739 515.896L288.805 517.648L304.255 498.696L302.282 479.602Z" fill="#CCCCCC"/>
</g>
<defs>
<clipPath id="clip0_1689_15026">
<rect width="946" height="619" fill="white"/>
</clipPath>
</defs>
</svg>
