<svg width="286" height="262" viewBox="0 0 286 262" fill="none" xmlns="http://www.w3.org/2000/svg">
<mask id="mask0_1885_25697" style="mask-type:luminance" maskUnits="userSpaceOnUse" x="-186" y="0" width="472" height="473">
<path d="M108.463 341.862C152.519 336.207 171.27 324.988 196.756 292.608C201.672 286.223 135.497 282.757 140.959 280.933C172.999 270.261 220.059 254.116 246.911 214.895C247.093 216.081 247.366 217.267 247.548 218.544C257.743 298.445 201.399 371.597 121.57 381.813C53.8485 390.478 -8.77608 350.983 -32.5334 289.963C-2.31337 322.981 40.8321 343.23 87.7095 343.322C94.5363 343.322 101.454 342.866 108.463 341.953M-40.3614 415.379C-114.546 384.276 -149.59 298.719 -118.46 224.381C-92.0631 161.263 -26.6168 126.602 37.9193 136.635C-12.0529 147.763 -56.1996 182.059 -77.4993 233.046C-94.6118 274.183 -94.3387 295.983 -79.0467 334.292C-77.4993 338.031 -67.4866 325.535 -58.1111 313.13C-49.0087 300.999 -40.5435 288.868 -41.0896 291.696C-47.9164 324.897 -57.474 373.786 -36.9935 416.747C-38.1769 416.291 -39.2691 415.926 -40.4525 415.47M42.3795 130.433C17.1658 107.995 -20.3361 75.2498 -67.6687 71.5101C-66.7584 70.7804 -65.8482 69.8683 -64.938 69.1386C-0.947998 20.3403 90.4402 32.7451 139.229 96.8671C180.554 151.321 177.823 225.385 136.863 276.463C152.246 227.483 144.6 172.026 111.194 128.153C84.2505 92.6713 65.2265 82.0907 24.5387 76.2532C20.6247 75.7059 25.9041 89.5701 31.7297 103.434C37.4642 117.025 43.7448 130.615 42.6525 130.707C42.6525 130.707 42.4705 130.707 42.3795 130.524M-186 236.148C-186 366.581 -80.5031 472.295 49.6614 472.295C179.826 472.295 285.323 366.581 285.323 236.148C285.323 105.715 179.826 0 49.6614 0C-80.5031 0 -186 105.715 -186 236.148Z" fill="white"/>
</mask>
<g mask="url(#mask0_1885_25697)">
<path d="M-186.001 -4.6957L-190.707 472.319L285.325 477.095L290.032 0.0796341L-186.001 -4.6957Z" fill="url(#paint0_linear_1885_25697)" fill-opacity="0.05"/>
</g>
<defs>
<linearGradient id="paint0_linear_1885_25697" x1="55.8838" y1="-2.26923" x2="51.0986" y2="474.745" gradientUnits="userSpaceOnUse">
<stop stop-color="#025436"/>
<stop offset="1" stop-color="#053725"/>
</linearGradient>
</defs>
</svg>
