<svg width="36" height="36" viewBox="0 0 36 36" fill="none" xmlns="http://www.w3.org/2000/svg">
<path d="M0 18C0 8.05888 8.05888 0 18 0C27.9411 0 36 8.05888 36 18C36 27.9411 27.9411 36 18 36C8.05888 36 0 27.9411 0 18Z" fill="#15852B"/>
<path d="M24.32 18.75H21C18.51 18.75 17.25 17.34 17.25 14.55V11.68C17.25 10.66 17.37 9.19996 18.43 8.39996C19.32 7.73996 20.6 7.68996 22.49 8.23996C24.97 8.95996 27.04 11.03 27.76 13.51C28.31 15.39 28.26 16.68 27.6 17.56C26.8 18.63 25.34 18.75 24.32 18.75ZM20.28 9.35996C19.87 9.35996 19.55 9.43996 19.34 9.59996C18.95 9.88996 18.76 10.57 18.76 11.68V14.56C18.76 16.8 19.62 17.26 21.01 17.26H24.33C25.43 17.26 26.11 17.07 26.41 16.68C26.76 16.22 26.73 15.3 26.34 13.95C25.76 11.98 24.06 10.27 22.09 9.69996C21.35 9.46996 20.75 9.35996 20.28 9.35996Z" fill="white"/>
<path d="M17.0694 28.75C16.5394 28.75 15.9994 28.71 15.4594 28.62C11.3694 27.96 8.03939 24.64 7.37939 20.55C6.52939 15.29 9.91939 10.33 15.1094 9.26995C15.5194 9.18995 15.9094 9.44995 15.9994 9.84995C16.0794 10.26 15.8194 10.65 15.4194 10.74C11.0294 11.64 8.14939 15.84 8.87939 20.31C9.43939 23.77 12.2494 26.58 15.7094 27.14C20.1994 27.86 24.3894 24.97 25.2794 20.56C25.3594 20.15 25.7594 19.89 26.1594 19.97C26.5694 20.05 26.8294 20.45 26.7494 20.85C25.7994 25.52 21.7194 28.75 17.0694 28.75Z" fill="white"/>
</svg>
