<svg width="786" height="475" viewBox="0 0 786 475" fill="none" xmlns="http://www.w3.org/2000/svg">
<g opacity="0.13" clip-path="url(#clip0_1034_4981)">
<path d="M784.609 -107.325C723.803 108.477 610.479 249.319 447.766 311.297C286.61 372.682 105.472 344.181 -18.1032 309.458C-88.0892 289.794 -147.429 266.097 -184.885 249.68C-225.464 231.894 -249.79 218.597 -250.036 218.464L-250.766 219.605C-250.526 219.738 -226.134 233.069 -185.501 250.876C-148.004 267.31 -88.5919 291.035 -18.5221 310.721C60.2489 332.856 136.159 345.477 207.103 348.253C295.814 351.721 376.966 339.698 448.311 312.521C485.078 298.515 519.805 280.236 551.528 258.19C585.488 234.592 616.912 206.042 644.93 173.341C674.726 138.562 701.481 98.1433 724.437 53.2032C748.727 5.65911 769.439 -48.2346 785.991 -106.993L784.603 -107.331L784.609 -107.325Z" fill="url(#paint0_linear_1034_4981)"/>
<path d="M769.746 -108.541C711.717 104.657 600.589 245.272 439.438 309.4C366.496 338.427 289.137 349.109 214.825 349.109C125.815 349.109 41.1672 333.795 -26.4371 316.331C-96.6924 298.18 -156.356 275.84 -194.039 260.299C-234.857 243.461 -259.375 230.75 -259.614 230.629L-260.32 231.787C-260.075 231.914 -235.504 244.652 -194.625 261.512C-156.9 277.076 -97.1652 299.443 -26.8261 317.611C52.2441 338.039 128.328 349.109 199.308 350.522C288.066 352.279 369.045 338.859 440.007 310.624C476.433 296.13 510.777 277.474 542.092 255.173C575.604 231.31 606.543 202.632 634.041 169.942C663.28 135.18 689.425 94.944 711.747 50.3419C735.36 3.16341 755.342 -50.1818 771.134 -108.22L769.74 -108.547L769.746 -108.541Z" fill="url(#paint1_linear_1034_4981)"/>
<path d="M754.885 -109.773C699.645 100.76 590.761 241.116 431.262 307.387C353.73 339.6 270.854 351.169 191.867 351.169C108.422 351.169 29.3164 338.271 -34.6674 323.189C-105.21 306.562 -165.22 285.579 -203.137 270.908C-244.225 255.006 -268.946 242.883 -269.191 242.767L-269.867 243.941C-269.622 244.063 -244.859 256.208 -203.723 272.127C-165.759 286.82 -105.683 307.825 -35.0564 324.475C44.3369 343.191 120.606 352.698 191.628 352.737L192.041 352.737C280.692 352.737 361.366 337.894 431.842 308.612C467.91 293.624 501.858 274.592 532.749 252.042C565.8 227.918 596.23 199.118 623.195 166.45C651.866 131.721 677.389 91.6737 699.07 47.4207C721.996 0.618981 741.247 -52.161 756.28 -109.457L754.885 -109.773Z" fill="url(#paint2_linear_1034_4981)"/>
<path d="M740.024 -110.991C687.566 96.8215 580.974 236.883 423.217 305.293C264.622 374.064 82.2094 356.71 -42.8858 330.038C-113.734 314.934 -174.103 295.309 -212.271 281.507C-253.616 266.553 -278.522 255.029 -278.768 254.918L-279.414 256.109C-279.169 256.226 -254.202 267.778 -212.797 282.749C-174.588 296.567 -114.146 316.214 -43.2149 331.334C36.5195 348.333 112.992 356.267 184.074 354.921C272.958 353.231 353.62 336.941 423.821 306.501C459.512 291.026 493.048 271.617 523.495 248.823C556.068 224.439 585.977 195.528 612.398 162.888C640.482 128.198 665.382 88.3499 686.405 44.4625C708.637 -1.94581 727.146 -54.1441 741.419 -110.681L740.018 -110.985L740.024 -110.991Z" fill="url(#paint3_linear_1034_4981)"/>
<path d="M725.156 -112.203C675.486 92.8281 571.24 232.552 415.308 303.089C257.575 374.442 74.6595 360.851 -51.0162 336.887C-122.187 323.318 -182.939 305.056 -221.364 292.125C-262.997 278.118 -288.113 267.186 -288.358 267.075L-288.969 268.278C-288.717 268.389 -263.542 279.348 -221.849 293.371C-183.376 306.314 -122.552 324.598 -51.2974 338.184C28.8021 353.459 105.496 359.809 176.649 357.055C265.618 353.614 346.13 335.857 415.948 304.275C451.238 288.313 484.343 268.533 514.336 245.495C546.406 220.861 575.782 191.839 601.646 159.233C629.126 124.587 653.392 84.9548 673.757 41.4443C695.288 -4.55405 713.056 -56.1539 726.562 -111.92L725.162 -112.208L725.156 -112.203Z" fill="url(#paint4_linear_1034_4981)"/>
<path d="M710.295 -113.433C663.414 88.7554 561.562 228.108 407.563 300.746C250.703 374.735 67.2371 364.945 -59.043 343.702C-195.903 320.681 -296.93 279.63 -297.935 279.22L-298.516 280.434C-298.264 280.539 -272.867 290.905 -230.875 303.981C-192.121 316.049 -130.902 332.964 -59.3004 345.01C21.1881 358.551 98.1158 363.305 169.347 359.138C258.417 353.93 338.779 334.682 408.209 301.937C443.079 285.487 475.735 265.346 505.256 242.07C536.811 217.193 565.637 188.071 590.927 155.509C617.796 120.919 641.404 81.5138 661.104 38.3911C681.923 -7.18616 698.943 -58.171 711.689 -113.145L710.283 -113.422L710.295 -113.433Z" fill="url(#paint5_linear_1034_4981)"/>
<path d="M695.426 -114.65C651.328 84.6355 551.917 223.561 399.953 298.277C300.931 346.962 190.569 362.343 90.7155 362.343C33.2964 362.343 -20.6278 357.262 -66.97 350.508C-138.853 340.031 -200.431 324.512 -239.425 313.336C-281.686 301.224 -307.268 291.467 -307.52 291.373L-308.07 292.603C-307.819 292.703 -282.188 302.477 -239.88 314.599C-200.838 325.786 -139.194 341.327 -67.2273 351.821C13.6681 363.617 90.8532 366.759 162.18 361.163C251.363 354.165 331.582 333.404 400.623 299.462C435.056 282.536 467.24 262.03 496.27 238.526C527.292 213.411 555.55 184.195 580.259 151.688C606.5 117.17 629.45 78.0034 648.479 35.2796C668.581 -9.85993 684.852 -60.2132 696.838 -114.378L695.432 -114.644L695.426 -114.65Z" fill="url(#paint6_linear_1034_4981)"/>
<path d="M680.573 -115.87C639.258 80.4507 542.336 218.911 392.502 295.671C237.432 375.113 52.7751 373.024 -74.8275 357.277C-147.094 348.362 -209.115 334.217 -248.419 323.928C-291.009 312.775 -316.837 303.611 -317.095 303.522L-317.609 304.763C-317.352 304.857 -291.482 314.033 -248.844 325.203C-209.498 335.508 -147.405 349.67 -75.0549 358.596C6.27731 368.63 83.7317 370.148 155.16 363.106C244.469 354.296 324.557 332.001 393.19 296.84C427.163 279.437 458.856 258.582 487.383 234.851C517.849 209.509 545.526 180.21 569.637 147.769C595.237 113.334 617.517 74.417 635.864 32.1087C655.242 -12.582 670.759 -62.2814 681.985 -115.616L680.573 -115.87Z" fill="url(#paint7_linear_1034_4981)"/>
<path d="M665.704 -117.099C627.16 76.2028 532.776 214.148 385.18 292.908C231.025 375.164 45.7099 376.976 -82.6108 364.011C-155.284 356.67 -217.772 343.915 -257.399 334.507C-300.337 324.312 -326.416 315.747 -326.679 315.663L-327.164 316.916C-326.907 316.999 -300.779 325.581 -257.794 335.787C-218.125 345.206 -155.571 357.977 -82.8083 365.33C-1.0213 373.596 76.7204 373.469 148.262 364.964C237.709 354.326 317.659 330.468 385.892 294.066C419.386 276.197 450.564 254.993 478.57 231.052C508.462 205.493 535.54 176.128 559.047 143.76C583.989 109.419 605.592 70.773 623.252 28.8914C641.899 -15.3284 656.656 -64.3629 667.129 -116.855L665.716 -117.099L665.704 -117.099Z" fill="url(#paint8_linear_1034_4981)"/>
<path d="M650.843 -118.311C615.057 71.9156 523.259 209.29 377.991 290C224.769 375.132 38.7362 380.883 -90.3505 370.716C-230.245 359.696 -335.221 328.137 -336.262 327.821L-336.711 329.084C-336.448 329.162 -310.057 337.146 -266.707 346.382C-226.702 354.903 -163.658 366.278 -90.4702 372.041C-8.20438 378.518 69.8485 376.739 141.51 366.749C231.113 354.255 310.925 328.818 378.733 291.142C411.718 272.813 442.369 251.277 469.831 227.131C499.13 201.367 525.593 171.941 548.482 139.666C572.755 105.436 593.67 67.0676 610.635 25.6348C628.546 -18.103 642.549 -66.4561 652.262 -118.078L650.849 -118.305L650.843 -118.311Z" fill="url(#paint9_linear_1034_4981)"/>
<path d="M635.969 -119.531C602.929 67.5594 513.764 204.308 370.937 286.919C218.691 374.976 31.9103 384.716 -97.9663 377.375C-238.722 369.424 -344.799 340.264 -345.853 339.97L-346.266 341.245C-346.002 341.317 -319.33 348.691 -275.603 356.958C-235.251 364.582 -171.686 374.544 -98.056 378.705C-15.2816 383.381 63.0884 379.924 134.882 368.432C224.646 354.066 304.326 327.016 371.697 288.049C438.841 249.209 494.776 197.881 537.934 135.477C561.524 101.368 581.739 63.2987 598.004 22.3258C615.173 -20.9078 628.416 -68.5627 637.381 -119.309L635.963 -119.525L635.969 -119.531Z" fill="url(#paint10_linear_1034_4981)"/>
<path d="M621.116 -120.754C590.805 63.1504 504.315 199.212 364.031 283.656C212.791 374.695 25.2318 388.469 -105.477 383.986C-247.13 379.127 -354.362 352.394 -355.428 352.122L-355.805 353.408C-355.535 353.474 -328.576 360.239 -284.448 367.52C-243.725 374.235 -179.628 382.773 -105.524 385.316C-22.2294 388.175 56.4817 383.022 128.413 370.007C218.35 353.74 297.887 325.062 364.815 284.77C430.804 245.049 485.518 193.372 527.438 131.184C550.334 97.2142 569.836 59.4603 585.407 18.9583C601.828 -23.76 614.317 -70.6946 622.534 -120.555L621.116 -120.754Z" fill="url(#paint11_linear_1034_4981)"/>
<path d="M606.255 -121.974C578.655 58.6895 494.875 194.008 357.243 280.215C207.05 374.289 18.6711 392.13 -112.905 390.54C-255.498 388.811 -363.933 364.521 -365.01 364.272L-365.352 365.563C-365.082 365.624 -337.818 371.774 -293.277 378.063C-252.171 383.864 -187.517 390.967 -112.923 391.87C-29.0715 392.889 49.9867 386.024 122.067 371.469C212.19 353.274 291.584 322.944 358.045 281.312C422.825 240.738 476.288 188.75 516.951 126.8C539.141 92.9916 557.932 55.5591 572.791 15.5502C588.457 -26.6306 600.193 -72.8395 607.673 -121.785L606.249 -121.974L606.255 -121.974Z" fill="url(#paint12_linear_1034_4981)"/>
<path d="M591.386 -123.193C566.473 54.1905 485.446 188.689 350.561 276.58C201.457 373.735 12.2341 395.71 -120.252 397.034C-263.826 398.48 -373.512 376.644 -374.601 376.423L-374.906 377.725C-374.631 377.78 -347.055 383.31 -302.084 388.59C-260.583 393.466 -195.342 399.111 -120.24 398.363C-35.8136 397.516 43.6156 388.922 115.846 372.81C206.154 352.67 285.404 320.656 351.381 277.666C414.91 236.272 467.086 184.007 506.469 122.324C527.941 88.6864 546.007 51.603 560.16 12.0983C575.073 -29.5284 586.06 -74.9893 592.804 -123.021L591.38 -123.193L591.386 -123.193Z" fill="url(#paint13_linear_1034_4981)"/>
<path d="M576.519 -124.412C554.263 49.6409 476.031 183.264 343.988 272.751C196.021 373.031 5.91879 399.183 -127.501 403.466C-272.086 408.103 -383.077 388.772 -384.184 388.578L-384.453 389.886C-384.178 389.935 -356.273 394.839 -310.847 399.105C-268.927 403.039 -203.088 407.222 -127.453 404.795C-42.4341 402.069 37.3781 391.714 109.764 374.028C200.27 351.91 279.358 318.201 344.832 273.826C407.062 231.651 457.923 179.142 496.001 117.757C516.748 84.3142 534.085 47.5909 547.525 8.60141C561.684 -32.4602 571.917 -77.162 577.943 -124.252L576.519 -124.407L576.519 -124.412Z" fill="url(#paint14_linear_1034_4981)"/>
<path d="M561.666 -125.627C542.044 45.0521 466.63 177.728 337.525 268.722C190.761 372.165 -0.239106 402.55 -134.622 409.831C-280.267 417.721 -392.64 400.91 -393.759 400.739L-393.992 402.052C-393.711 402.096 -365.465 406.362 -319.578 409.598C-277.233 412.584 -210.76 415.283 -134.574 411.155C-48.9331 406.517 31.2681 394.389 103.815 375.102C194.519 350.989 273.445 315.551 338.387 269.78C399.277 226.868 448.791 174.149 485.546 113.091C505.551 79.8583 522.158 43.5118 534.892 5.05985C548.297 -35.42 557.788 -79.3406 563.09 -125.494L561.66 -125.633L561.666 -125.627Z" fill="url(#paint15_linear_1034_4981)"/>
<path d="M546.797 -126.846C529.766 40.4255 457.207 172.088 331.13 264.489C185.617 371.135 -6.31696 405.808 -141.705 416.114C-288.445 427.284 -402.218 413.039 -403.349 412.895L-403.547 414.213C-402.416 414.357 -288.511 428.624 -141.621 417.443C-55.3461 410.878 25.268 396.949 97.9769 376.044C188.884 349.909 267.631 312.725 332.016 265.536C391.523 221.926 439.655 169.04 475.076 108.348C494.339 75.3426 510.203 39.3894 522.226 1.49152C534.877 -38.3899 543.625 -81.5237 548.227 -126.719L546.797 -126.846Z" fill="url(#paint16_linear_1034_4981)"/>
<path d="M531.93 -128.065C517.46 35.7714 447.774 166.347 324.803 260.051C180.606 369.932 -12.3032 408.944 -148.733 422.319C-296.586 436.813 -411.783 425.167 -412.932 425.051L-413.094 426.369C-411.945 426.491 -296.592 438.154 -148.583 423.643C-61.6495 415.122 19.3835 399.37 92.254 376.825C183.365 348.64 261.914 309.695 325.718 261.081C383.802 216.823 430.527 163.81 464.601 103.517C483.111 70.7605 498.233 35.2173 509.549 -2.121C521.446 -41.3874 529.459 -83.7234 533.367 -127.954L531.936 -128.065L531.93 -128.065Z" fill="url(#paint17_linear_1034_4981)"/>
<path d="M517.062 -129.292C505.111 31.0764 438.321 160.5 318.539 255.389C175.731 368.534 -18.1477 411.939 -155.648 428.428C-304.657 446.297 -421.362 437.288 -422.523 437.194L-422.648 438.518C-421.487 438.612 -304.627 447.632 -155.469 429.747C-67.859 419.242 13.5989 401.639 86.6309 377.443C177.945 347.186 256.285 306.462 319.473 256.403C376.096 211.546 421.385 158.45 454.101 98.589C471.85 66.0988 486.231 30.9878 496.835 -5.77429C507.983 -44.4091 515.266 -85.9361 518.492 -129.197L517.062 -129.292Z" fill="url(#paint18_linear_1034_4981)"/>
<path d="M502.207 -130.506C492.734 26.3715 428.851 154.571 312.344 250.534C171.001 366.943 -23.8646 414.803 -162.442 434.45C-312.642 455.748 -430.927 449.415 -432.106 449.349L-432.195 450.679C-431.016 450.745 -312.612 457.084 -162.269 435.769C-73.9649 423.252 7.92383 403.783 81.1174 377.908C172.635 345.556 250.748 303.037 313.283 251.532C368.404 206.132 412.245 152.992 443.585 93.596C460.574 61.3938 474.206 26.7261 484.11 -9.44866C494.511 -47.4463 501.076 -88.1478 503.631 -130.434L502.195 -130.506L502.207 -130.506Z" fill="url(#paint19_linear_1034_4981)"/>
<path d="M487.34 -131.721C472.571 189.996 220.824 334.152 12.2425 398.434C-105.911 434.842 -223.035 450.056 -300.489 456.406C-384.419 463.282 -441.126 461.531 -441.688 461.509L-441.742 462.839C-441.18 462.861 -384.407 464.617 -300.406 457.73C-251.071 453.685 -202.132 447.496 -154.952 439.335C-95.971 429.129 -39.5753 415.799 12.6555 399.703C145.644 358.724 252.822 299.816 331.21 224.619C377.768 179.962 414.547 128.988 440.537 73.1105C469.124 11.6538 485.347 -57.2439 488.764 -131.671L487.328 -131.727L487.34 -131.721Z" fill="url(#paint20_linear_1034_4981)"/>
<path d="M472.487 -132.938C462.607 184.878 212.039 332.874 3.5831 401.068C-114.505 439.697 -231.886 457.377 -309.562 465.411C-393.731 474.11 -450.701 473.672 -451.269 473.667L-451.281 475.002C-450.719 475.002 -393.683 475.445 -309.436 466.735C-259.964 461.621 -210.917 454.396 -163.665 445.265C-104.595 433.852 -48.1808 419.407 4.02597 402.331C136.937 358.859 243.648 298.284 321.198 222.294C367.259 177.16 403.41 126.02 428.646 70.2866C456.401 8.99064 471.637 -59.3752 473.923 -132.905L472.487 -132.944L472.487 -132.938Z" fill="url(#paint21_linear_1034_4981)"/>
</g>
<defs>
<linearGradient id="paint0_linear_1034_4981" x1="-250.766" y1="120.76" x2="785.997" y2="120.76" gradientUnits="userSpaceOnUse">
<stop stop-color="#8CC63F"/>
<stop offset="1" stop-color="#39B54A"/>
</linearGradient>
<linearGradient id="paint1_linear_1034_4981" x1="-260.32" y1="121.068" x2="771.14" y2="121.068" gradientUnits="userSpaceOnUse">
<stop stop-color="#8CC63F"/>
<stop offset="1" stop-color="#39B54A"/>
</linearGradient>
<linearGradient id="paint2_linear_1034_4981" x1="-269.861" y1="121.482" x2="756.286" y2="121.482" gradientUnits="userSpaceOnUse">
<stop stop-color="#8CC63F"/>
<stop offset="1" stop-color="#39B54A"/>
</linearGradient>
<linearGradient id="paint3_linear_1034_4981" x1="-279.414" y1="122.037" x2="741.419" y2="122.037" gradientUnits="userSpaceOnUse">
<stop stop-color="#8CC63F"/>
<stop offset="1" stop-color="#39B54A"/>
</linearGradient>
<linearGradient id="paint4_linear_1034_4981" x1="-288.969" y1="122.737" x2="726.556" y2="122.737" gradientUnits="userSpaceOnUse">
<stop stop-color="#8CC63F"/>
<stop offset="1" stop-color="#39B54A"/>
</linearGradient>
<linearGradient id="paint5_linear_1034_4981" x1="-298.516" y1="123.584" x2="711.701" y2="123.584" gradientUnits="userSpaceOnUse">
<stop stop-color="#8CC63F"/>
<stop offset="1" stop-color="#39B54A"/>
</linearGradient>
<linearGradient id="paint6_linear_1034_4981" x1="-308.07" y1="124.6" x2="696.832" y2="124.6" gradientUnits="userSpaceOnUse">
<stop stop-color="#8CC63F"/>
<stop offset="1" stop-color="#39B54A"/>
</linearGradient>
<linearGradient id="paint7_linear_1034_4981" x1="-317.615" y1="125.79" x2="681.979" y2="125.79" gradientUnits="userSpaceOnUse">
<stop stop-color="#8CC63F"/>
<stop offset="1" stop-color="#39B54A"/>
</linearGradient>
<linearGradient id="paint8_linear_1034_4981" x1="-327.164" y1="127.171" x2="667.117" y2="127.171" gradientUnits="userSpaceOnUse">
<stop stop-color="#8CC63F"/>
<stop offset="1" stop-color="#39B54A"/>
</linearGradient>
<linearGradient id="paint9_linear_1034_4981" x1="-336.711" y1="128.774" x2="652.256" y2="128.774" gradientUnits="userSpaceOnUse">
<stop stop-color="#8CC63F"/>
<stop offset="1" stop-color="#39B54A"/>
</linearGradient>
<linearGradient id="paint10_linear_1034_4981" x1="-346.266" y1="130.595" x2="637.387" y2="130.595" gradientUnits="userSpaceOnUse">
<stop stop-color="#8CC63F"/>
<stop offset="1" stop-color="#39B54A"/>
</linearGradient>
<linearGradient id="paint11_linear_1034_4981" x1="-355.811" y1="132.658" x2="622.534" y2="132.658" gradientUnits="userSpaceOnUse">
<stop stop-color="#8CC63F"/>
<stop offset="1" stop-color="#39B54A"/>
</linearGradient>
<linearGradient id="paint12_linear_1034_4981" x1="-365.352" y1="134.995" x2="607.673" y2="134.995" gradientUnits="userSpaceOnUse">
<stop stop-color="#8CC63F"/>
<stop offset="1" stop-color="#39B54A"/>
</linearGradient>
<linearGradient id="paint13_linear_1034_4981" x1="-374.906" y1="137.621" x2="592.81" y2="137.621" gradientUnits="userSpaceOnUse">
<stop stop-color="#8CC63F"/>
<stop offset="1" stop-color="#39B54A"/>
</linearGradient>
<linearGradient id="paint14_linear_1034_4981" x1="-384.453" y1="140.552" x2="577.949" y2="140.552" gradientUnits="userSpaceOnUse">
<stop stop-color="#8CC63F"/>
<stop offset="1" stop-color="#39B54A"/>
</linearGradient>
<linearGradient id="paint15_linear_1034_4981" x1="-393.998" y1="143.82" x2="563.09" y2="143.819" gradientUnits="userSpaceOnUse">
<stop stop-color="#8CC63F"/>
<stop offset="1" stop-color="#39B54A"/>
</linearGradient>
<linearGradient id="paint16_linear_1034_4981" x1="-403.547" y1="147.437" x2="548.227" y2="147.437" gradientUnits="userSpaceOnUse">
<stop stop-color="#8CC63F"/>
<stop offset="1" stop-color="#39B54A"/>
</linearGradient>
<linearGradient id="paint17_linear_1034_4981" x1="-413.094" y1="151.427" x2="533.361" y2="151.427" gradientUnits="userSpaceOnUse">
<stop stop-color="#8CC63F"/>
<stop offset="1" stop-color="#39B54A"/>
</linearGradient>
<linearGradient id="paint18_linear_1034_4981" x1="-422.648" y1="155.796" x2="518.498" y2="155.796" gradientUnits="userSpaceOnUse">
<stop stop-color="#8CC63F"/>
<stop offset="1" stop-color="#39B54A"/>
</linearGradient>
<linearGradient id="paint19_linear_1034_4981" x1="-432.189" y1="160.549" x2="503.637" y2="160.549" gradientUnits="userSpaceOnUse">
<stop stop-color="#8CC63F"/>
<stop offset="1" stop-color="#39B54A"/>
</linearGradient>
<linearGradient id="paint20_linear_1034_4981" x1="-441.742" y1="165.667" x2="488.776" y2="165.667" gradientUnits="userSpaceOnUse">
<stop stop-color="#8CC63F"/>
<stop offset="1" stop-color="#39B54A"/>
</linearGradient>
<linearGradient id="paint21_linear_1034_4981" x1="-451.281" y1="171.032" x2="473.917" y2="171.032" gradientUnits="userSpaceOnUse">
<stop stop-color="#8CC63F"/>
<stop offset="1" stop-color="#39B54A"/>
</linearGradient>
<clipPath id="clip0_1034_4981">
<rect width="786" height="475" fill="white" transform="matrix(1 -1.6135e-07 -4.73675e-08 -1 0 475)"/>
</clipPath>
</defs>
</svg>
