<svg width="32" height="33" viewBox="0 0 32 33" fill="none" xmlns="http://www.w3.org/2000/svg">
<g clip-path="url(#clip0_1183_30534)">
<path fill-rule="evenodd" clip-rule="evenodd" d="M5.67551 32.5C2.55731 32.5 0 29.9686 0 26.8385L0.000760396 6.16153C0.000760396 3.03139 2.55806 0.5 5.67627 0.5H10.2683C11.731 0.5 13.1119 1.07418 14.1399 2.0516C14.2601 2.0088 14.3895 1.98549 14.5243 1.98549H23.4324C23.7746 1.98549 24.1068 2.02688 24.4243 2.10493C25.4633 2.36756 26.3454 3.01697 26.9124 3.89157C27.3107 4.51485 27.547 5.25265 27.563 6.04542L27.5633 6.06853V6.56523C28.5942 6.78442 29.5198 7.28546 30.2555 7.98359C31.3315 9.01388 32.0008 10.4634 32.0008 12.0692V26.8385C32.0008 29.9686 29.4435 32.5 26.3252 32.5H5.67551ZM5.3965 30.5C3.52734 30.5 2.00075 28.9791 2.00075 27.1185L2.00153 5.88148C2.00153 4.02093 3.52812 2.5 5.39728 2.5H10.1476C11.4227 2.5 12.6036 3.22814 13.1804 4.36933L14.5437 7.08099L14.5493 7.09173C15.0151 7.99479 15.9333 8.56772 16.9529 8.56772H26.605C28.4882 8.56772 30.0008 10.0859 30.0008 11.9492V27.1185C30.0008 28.9791 28.4742 30.5 26.605 30.5H5.3965ZM15.466 4.13999H23.4324C24.4877 4.13999 25.346 4.97789 25.3731 6.04328L25.3732 6.04583L25.3731 6.50634H16.9328C16.7732 6.50634 16.6168 6.42045 16.5277 6.25148L16.5268 6.24977L15.466 4.13999Z" fill="#007A5B"/>
<path fill-rule="evenodd" clip-rule="evenodd" d="M5.67551 32.5C2.55731 32.5 0 29.9686 0 26.8385L0.000760396 6.16153C0.000760396 3.03139 2.55806 0.5 5.67627 0.5H10.2683C11.731 0.5 13.1119 1.07418 14.1399 2.0516C14.2601 2.0088 14.3895 1.98549 14.5243 1.98549H23.4324C23.7746 1.98549 24.1068 2.02688 24.4243 2.10493C25.4633 2.36756 26.3454 3.01697 26.9124 3.89157C27.3107 4.51485 27.547 5.25265 27.563 6.04542L27.5633 6.06853V6.56523C28.5942 6.78442 29.5198 7.28546 30.2555 7.98359C31.3315 9.01388 32.0008 10.4634 32.0008 12.0692V26.8385C32.0008 29.9686 29.4435 32.5 26.3252 32.5H5.67551ZM5.3965 30.5C3.52734 30.5 2.00075 28.9791 2.00075 27.1185L2.00153 5.88148C2.00153 4.02093 3.52812 2.5 5.39728 2.5H10.1476C11.4227 2.5 12.6036 3.22814 13.1804 4.36933L14.5437 7.08099L14.5493 7.09173C15.0151 7.99479 15.9333 8.56772 16.9529 8.56772H26.605C28.4882 8.56772 30.0008 10.0859 30.0008 11.9492V27.1185C30.0008 28.9791 28.4742 30.5 26.605 30.5H5.3965ZM15.466 4.13999H23.4324C24.4877 4.13999 25.346 4.97789 25.3731 6.04328L25.3732 6.04583L25.3731 6.50634H16.9328C16.7732 6.50634 16.6168 6.42045 16.5277 6.25148L16.5268 6.24977L15.466 4.13999Z" fill="url(#paint0_linear_1183_30534)"/>
<path d="M26.6674 18.9733C26.6674 18.3511 26.1492 17.8467 25.5099 17.8467H19.9345C19.2952 17.8467 18.777 18.3511 18.777 18.9733C18.777 19.5956 19.2952 20.1 19.9345 20.1H25.5099C26.1492 20.1 26.6674 19.5956 26.6674 18.9733Z" fill="#007A5B"/>
<path d="M26.6674 18.9733C26.6674 18.3511 26.1492 17.8467 25.5099 17.8467H19.9345C19.2952 17.8467 18.777 18.3511 18.777 18.9733C18.777 19.5956 19.2952 20.1 19.9345 20.1H25.5099C26.1492 20.1 26.6674 19.5956 26.6674 18.9733Z" fill="url(#paint1_linear_1183_30534)"/>
<path d="M26.6674 23.3733C26.6674 22.7511 26.1492 22.2467 25.5099 22.2467H19.9345C19.2952 22.2467 18.777 22.7511 18.777 23.3733C18.777 23.9956 19.2952 24.5 19.9345 24.5H25.5099C26.1492 24.5 26.6674 23.9956 26.6674 23.3733Z" fill="#007A5B"/>
<path d="M26.6674 23.3733C26.6674 22.7511 26.1492 22.2467 25.5099 22.2467H19.9345C19.2952 22.2467 18.777 22.7511 18.777 23.3733C18.777 23.9956 19.2952 24.5 19.9345 24.5H25.5099C26.1492 24.5 26.6674 23.9956 26.6674 23.3733Z" fill="url(#paint2_linear_1183_30534)"/>
<path fill-rule="evenodd" clip-rule="evenodd" d="M9.87294 15.7582C10.0571 15.3644 10.368 15.1666 10.6725 15.1667C10.977 15.1668 11.2882 15.3642 11.4721 15.7582L12.5882 18.1937L15.1868 18.5764C16.0172 18.6994 16.2724 19.5499 15.6699 20.1593L13.8042 22.0558L14.254 24.7176C14.3996 25.5798 13.7131 26.1 12.9713 25.6917L10.6725 24.4391C10.3685 24.6067 9.76948 24.9322 9.25271 25.213C8.851 25.4312 8.49896 25.6225 8.37374 25.6917C7.63278 26.1 6.94846 25.5792 7.09107 24.7176L7.52414 22.0558L5.65849 20.1593C5.05886 19.5477 5.32788 18.697 6.15822 18.5764L8.7402 18.1937L9.87294 15.7582Z" fill="#007A5B"/>
<path fill-rule="evenodd" clip-rule="evenodd" d="M9.87294 15.7582C10.0571 15.3644 10.368 15.1666 10.6725 15.1667C10.977 15.1668 11.2882 15.3642 11.4721 15.7582L12.5882 18.1937L15.1868 18.5764C16.0172 18.6994 16.2724 19.5499 15.6699 20.1593L13.8042 22.0558L14.254 24.7176C14.3996 25.5798 13.7131 26.1 12.9713 25.6917L10.6725 24.4391C10.3685 24.6067 9.76948 24.9322 9.25271 25.213C8.851 25.4312 8.49896 25.6225 8.37374 25.6917C7.63278 26.1 6.94846 25.5792 7.09107 24.7176L7.52414 22.0558L5.65849 20.1593C5.05886 19.5477 5.32788 18.697 6.15822 18.5764L8.7402 18.1937L9.87294 15.7582Z" fill="url(#paint3_linear_1183_30534)"/>
</g>
<defs>
<linearGradient id="paint0_linear_1183_30534" x1="0" y1="16.5" x2="32.0008" y2="16.5" gradientUnits="userSpaceOnUse">
<stop offset="0.0625" stop-color="#C7863D"/>
<stop offset="0.5" stop-color="#FFCE6F"/>
<stop offset="0.9375" stop-color="#C7863D"/>
</linearGradient>
<linearGradient id="paint1_linear_1183_30534" x1="0" y1="16.5" x2="32.0008" y2="16.5" gradientUnits="userSpaceOnUse">
<stop offset="0.0625" stop-color="#C7863D"/>
<stop offset="0.5" stop-color="#FFCE6F"/>
<stop offset="0.9375" stop-color="#C7863D"/>
</linearGradient>
<linearGradient id="paint2_linear_1183_30534" x1="0" y1="16.5" x2="32.0008" y2="16.5" gradientUnits="userSpaceOnUse">
<stop offset="0.0625" stop-color="#C7863D"/>
<stop offset="0.5" stop-color="#FFCE6F"/>
<stop offset="0.9375" stop-color="#C7863D"/>
</linearGradient>
<linearGradient id="paint3_linear_1183_30534" x1="0" y1="16.5" x2="32.0008" y2="16.5" gradientUnits="userSpaceOnUse">
<stop offset="0.0625" stop-color="#C7863D"/>
<stop offset="0.5" stop-color="#FFCE6F"/>
<stop offset="0.9375" stop-color="#C7863D"/>
</linearGradient>
<clipPath id="clip0_1183_30534">
<rect width="32" height="32" fill="white" transform="translate(0 0.5)"/>
</clipPath>
</defs>
</svg>
