<svg width="1342" height="384" viewBox="0 0 1342 384" fill="none" xmlns="http://www.w3.org/2000/svg">
<g clip-path="url(#clip0_3023_10006)">
<g opacity="0.18" clip-path="url(#clip1_3023_10006)">
<path d="M1323.55 131.244C1097.37 330.259 847.192 401.499 579.946 342.977C315.256 285.015 81.674 108.076 -67.6605 -30.155C-152.236 -108.439 -219.341 -182.87 -260.74 -231.524C-305.593 -284.234 -330.753 -318.855 -331.007 -319.203L-332.772 -318.476C-332.526 -318.133 -307.297 -283.421 -262.383 -230.642C-220.936 -181.936 -153.75 -107.417 -69.0723 -29.0401C26.1178 59.0739 123.562 134.002 220.544 193.685C341.817 268.312 462.721 319.157 579.902 344.815C640.291 358.037 700.64 364.735 759.275 364.721C822.045 364.71 884.529 356.999 944.991 341.818C1009.29 325.67 1073.06 300.633 1134.49 267.387C1199.5 232.217 1263.68 186.916 1325.26 132.726L1323.55 131.232L1323.55 131.244Z" fill="url(#paint0_linear_3023_10006)"/>
<path d="M1303.65 118.016C1083.04 316.256 836.069 388.985 569.589 334.172C448.97 309.363 334.229 260.003 230.734 200.819C106.77 129.931 -1.07611 44.9573 -83.7771 -28.908C-169.72 -105.672 -238.164 -178.804 -280.455 -226.635C-326.262 -278.45 -352.073 -312.55 -352.327 -312.88L-354.07 -312.115C-353.811 -311.773 -327.943 -277.599 -282.067 -225.711C-239.733 -177.821 -171.206 -104.6 -85.1581 -27.7503C11.5677 58.6454 110.271 131.933 208.197 190.081C330.659 262.784 452.237 311.889 569.578 336.029C629.812 348.42 689.874 354.381 748.11 353.751C810.429 353.078 872.321 344.834 932.051 329.251C995.566 312.679 1058.36 287.366 1118.69 254.002C1182.51 218.713 1245.32 173.46 1305.37 119.49L1303.64 118.005L1303.65 118.016Z" fill="url(#paint1_linear_3023_10006)"/>
<path d="M1283.75 104.763C1068.77 302.168 825.1 376.386 559.513 325.347C430.413 300.536 307.406 247.797 197.402 184.892C81.1896 118.436 -20.5233 40.6452 -99.7442 -27.6049C-187.086 -102.851 -256.904 -174.702 -300.09 -221.722C-346.886 -272.678 -373.366 -306.266 -373.631 -306.595L-375.343 -305.787C-375.082 -305.452 -348.558 -271.805 -301.706 -220.792C-258.468 -173.708 -188.573 -101.779 -101.129 -26.4409C-2.83036 58.2491 97.1554 129.893 196.041 186.499L196.616 186.828C320.08 257.431 442.166 304.66 559.519 327.213C619.576 338.753 679.336 343.968 737.143 342.713C798.991 341.374 860.255 332.586 919.229 316.604C981.929 299.618 1043.73 274.025 1102.95 240.551C1165.56 205.146 1226.98 159.959 1285.48 106.235L1283.75 104.763Z" fill="url(#paint2_linear_3023_10006)"/>
<path d="M1263.85 91.536C1054.53 288.039 814.241 363.744 549.678 316.545C283.711 269.091 41.0452 103.919 -115.685 -26.2916C-204.451 -100.034 -275.659 -170.615 -319.765 -216.837C-367.541 -266.911 -394.672 -299.961 -394.941 -300.284L-396.622 -299.433C-396.356 -299.104 -369.161 -265.974 -321.312 -215.833C-277.159 -169.559 -205.865 -98.895 -116.993 -25.0671C-17.0938 57.9251 84.2071 127.926 184.084 182.992C308.981 251.843 431.999 297.405 549.727 318.411C609.58 329.091 669.011 333.545 726.361 331.658C787.713 329.64 848.325 320.31 906.522 303.927C968.381 286.517 1029.19 260.658 1087.24 227.078C1148.63 191.571 1208.64 146.461 1265.58 93.0023L1263.83 91.5376L1263.85 91.536Z" fill="url(#paint3_linear_3023_10006)"/>
<path d="M1243.95 78.2995C1040.33 273.834 803.537 351.02 540.12 307.714C273.661 263.907 27.8281 102.648 -131.487 -24.918C-221.709 -97.1577 -294.344 -166.481 -339.379 -211.911C-388.176 -261.128 -415.988 -293.665 -416.257 -293.987L-417.895 -293.095C-417.618 -292.767 -389.741 -260.151 -340.872 -210.867C-295.777 -165.387 -223.057 -95.9809 -132.729 -23.6554C-31.1908 57.6517 71.4576 126.012 172.357 179.522C298.519 246.432 422.291 290.191 540.235 309.584C599.848 319.385 658.923 323.071 715.8 320.542C776.615 317.837 836.557 307.956 893.958 291.167C954.945 273.327 1014.73 247.21 1071.62 213.539C1131.77 177.945 1190.34 132.929 1245.72 79.7435L1243.96 78.298L1243.95 78.2995Z" fill="url(#paint4_linear_3023_10006)"/>
<path d="M1224.05 65.049C1026.19 259.545 792.97 338.212 530.869 298.853C263.897 258.766 14.8052 101.427 -147.135 -23.5013C-322.645 -158.895 -436.427 -286.422 -437.558 -287.693L-439.163 -286.764C-438.882 -286.443 -410.308 -254.33 -360.401 -205.895C-314.34 -161.194 -240.172 -93.0427 -148.351 -22.2069C-45.1344 57.4215 58.8852 124.138 160.82 176.09C288.282 241.054 412.823 282.986 530.988 300.734C590.338 309.643 649.023 312.558 705.398 309.379C765.657 305.985 824.897 295.551 881.469 278.356C941.57 260.093 1000.29 233.713 1056 199.957C1114.88 164.278 1172.01 119.373 1225.81 66.4898L1224.03 65.0522L1224.05 65.049Z" fill="url(#paint5_linear_3023_10006)"/>
<path d="M1204.15 51.8167C1012.06 245.2 782.522 325.323 521.892 289.966C352.063 266.928 188.278 196.671 49.2125 117.146C-30.7546 71.4171 -102.523 22.6456 -162.635 -22.0061C-255.876 -91.2679 -331.46 -158.104 -378.438 -201.973C-429.353 -249.517 -458.584 -281.079 -458.873 -281.388L-460.446 -280.416C-460.161 -280.101 -430.874 -248.482 -379.9 -200.887C-332.862 -156.967 -257.201 -90.053 -163.854 -20.7054C-58.9265 57.246 46.5087 122.319 149.514 172.708C278.308 235.711 403.641 275.793 522.049 291.86C581.102 299.875 639.37 301.994 695.21 298.164C754.883 294.072 813.394 283.078 869.12 265.483C928.299 246.803 985.942 220.171 1040.46 186.339C1098.05 150.59 1153.73 105.813 1205.94 53.2528L1204.15 51.8279L1204.15 51.8167Z" fill="url(#paint6_linear_3023_10006)"/>
<path d="M1184.25 38.585C997.986 230.786 772.218 312.357 513.214 281.042C245.16 248.631 -10.6406 99.1737 -178.027 -20.5054C-272.826 -88.2807 -349.927 -153.894 -397.92 -196.994C-449.922 -243.702 -479.884 -274.779 -480.184 -275.086L-481.715 -274.073C-481.418 -273.76 -451.405 -242.636 -399.348 -195.871C-351.307 -152.719 -274.117 -87.0292 -179.208 -19.1745C-72.5168 57.1045 34.3579 120.531 138.453 169.342C268.61 230.368 394.766 268.586 513.406 282.931C572.131 290.032 629.943 291.36 685.232 286.869C744.279 282.074 802.036 270.522 856.885 252.527C915.118 233.432 971.664 206.553 1024.96 172.654C1081.25 136.843 1135.45 92.2149 1186.05 40.002L1184.25 38.585Z" fill="url(#paint7_linear_3023_10006)"/>
<path d="M1164.35 25.3399C983.927 216.285 762.03 299.286 504.832 272.047C236.207 243.592 -23.0673 98.0833 -193.277 -18.9785C-289.675 -85.2737 -368.338 -149.664 -417.359 -192.011C-470.472 -237.896 -501.177 -268.488 -501.489 -268.793L-502.985 -267.743C-502.681 -267.443 -471.921 -236.794 -418.748 -190.858C-369.676 -148.465 -290.932 -84.0032 -194.417 -17.6238C-85.9333 56.9908 22.4204 118.759 127.633 165.984C259.18 225.023 386.169 261.34 505.065 273.942C563.428 280.128 620.752 280.646 675.455 275.499C733.843 269.999 790.81 257.894 844.771 239.501C902.025 219.989 957.451 192.882 1009.51 158.925C1064.47 123.072 1117.17 78.6013 1166.18 26.7537L1164.37 25.3494L1164.35 25.3399Z" fill="url(#paint8_linear_3023_10006)"/>
<path d="M1144.45 12.1047C969.881 201.721 751.958 286.127 496.723 262.978C227.513 238.564 -35.3447 96.9997 -208.456 -17.4639C-396.06 -141.513 -521.566 -261.304 -522.809 -262.495L-524.263 -261.404C-523.947 -261.105 -492.428 -230.933 -438.111 -185.818C-387.984 -144.187 -307.641 -80.9353 -209.491 -16.0408C-99.1673 56.903 10.7025 117.026 117.055 162.643C250.036 219.678 377.869 254.075 497.008 264.877C554.965 270.131 611.774 269.849 665.852 264.033C723.55 257.826 779.698 245.16 832.739 226.384C888.987 206.466 943.273 179.129 994.068 145.133C1047.69 109.247 1098.9 64.9565 1146.27 13.501L1144.45 12.1159L1144.45 12.1047Z" fill="url(#paint9_linear_3023_10006)"/>
<path d="M1124.54 -1.12708C955.854 187.081 742.009 272.866 488.928 253.84C219.158 233.558 -47.3571 95.9722 -223.422 -15.8805C-414.238 -137.096 -542.851 -255.013 -544.125 -256.189L-545.536 -255.056C-545.216 -254.764 -512.906 -225.066 -457.428 -180.763C-406.229 -139.885 -324.235 -77.8384 -224.419 -14.4273C-112.205 56.857 -0.793108 115.307 106.728 159.308C241.162 214.324 369.868 246.767 489.245 255.742C608.223 264.681 719.778 250.374 820.803 213.193C876.021 192.871 929.136 165.319 978.654 131.293C1030.91 95.3942 1080.6 51.2993 1126.36 0.251776L1124.53 -1.12551L1124.54 -1.12708Z" fill="url(#paint10_linear_3023_10006)"/>
<path d="M1104.65 -14.3598C941.853 172.368 732.184 259.496 481.443 244.599C211.119 228.535 -59.1248 94.9546 -238.222 -14.2825C-432.316 -132.668 -564.129 -248.722 -565.434 -249.882L-566.802 -248.708C-566.471 -248.418 -533.361 -219.19 -476.678 -175.698C-424.366 -135.566 -340.696 -74.7284 -239.161 -12.7959C-125.031 56.8193 -12.0322 113.597 96.6793 155.961C232.601 208.936 362.176 239.397 481.805 246.5C599.751 253.51 709.835 237.83 808.993 199.91C863.153 179.194 915.069 151.437 963.312 117.398C1014.19 81.4946 1062.36 37.6251 1106.49 -13.0016L1104.65 -14.3598Z" fill="url(#paint11_linear_3023_10006)"/>
<path d="M1084.75 -27.5929C927.848 157.578 722.442 246.013 474.237 235.247C203.381 223.499 -70.6711 93.9289 -252.874 -12.683C-450.329 -128.228 -585.418 -242.438 -586.755 -243.582L-588.077 -242.373C-587.741 -242.089 -553.803 -213.323 -495.895 -170.64C-442.451 -131.251 -357.065 -71.6155 -253.771 -11.1726C-137.659 56.7766 -23.0545 111.868 86.8753 152.584C224.32 203.496 354.777 231.95 474.635 237.144C591.457 242.212 700.003 225.181 797.254 186.533C850.326 165.44 901.04 137.484 947.967 103.443C997.444 67.5551 1044.09 23.9174 1086.6 -26.2473L1084.74 -27.5975L1084.75 -27.5929Z" fill="url(#paint12_linear_3023_10006)"/>
<path d="M1064.84 -40.8341C913.838 142.716 712.802 232.403 467.319 225.756C195.959 218.408 -81.978 92.9046 -267.358 -11.0901C-468.262 -123.776 -606.703 -236.168 -608.074 -237.29L-609.353 -236.04C-609.006 -235.757 -574.227 -207.455 -515.058 -165.585C-460.457 -126.942 -373.299 -68.5106 -268.213 -9.55581C-150.078 56.7099 -33.8228 110.115 77.3362 149.165C216.314 197.995 347.676 224.403 467.749 227.654C583.367 230.786 690.302 212.413 785.596 173.05C837.555 151.581 887.031 123.449 932.644 89.424C980.708 53.5709 1025.82 10.195 1066.7 -39.5076L1064.83 -40.8389L1064.84 -40.8341Z" fill="url(#paint13_linear_3023_10006)"/>
<path d="M1044.94 -54.0714C899.819 127.776 703.249 218.686 460.679 216.132C188.853 213.272 -93.0481 91.8586 -281.668 -9.48695C-486.073 -119.319 -627.973 -229.878 -629.388 -230.983L-630.62 -229.698C-630.269 -229.421 -594.622 -201.575 -534.154 -160.505C-478.352 -122.609 -389.401 -65.3781 -282.474 -7.92411C-162.281 56.6599 -44.3377 108.349 68.0697 145.719C208.62 192.438 340.868 216.773 461.149 218.037C575.471 219.239 680.733 199.537 774.013 159.478C824.836 137.655 873.06 109.355 917.343 75.3533C963.986 39.5477 1007.55 -3.55833 1046.82 -52.7529L1044.94 -54.065L1044.94 -54.0714Z" fill="url(#paint14_linear_3023_10006)"/>
<path d="M1025.05 -67.3043C885.809 112.771 693.786 204.839 454.319 206.354C182.095 208.079 -103.832 90.8046 -295.76 -7.87133C-503.772 -114.818 -649.25 -223.588 -650.696 -224.676L-651.882 -223.356C-651.52 -223.081 -614.979 -195.694 -553.194 -155.439C-496.179 -118.291 -405.371 -62.257 -296.561 -6.31485C-174.249 56.573 -54.6011 106.539 59.0813 142.202C201.214 186.791 334.371 209.015 454.826 208.254C567.764 207.543 671.289 186.528 762.513 145.791C812.164 123.618 859.124 95.168 902.072 61.2204C947.283 25.4813 989.299 -17.32 1026.95 -66.0175L1025.04 -67.3154L1025.05 -67.3043Z" fill="url(#paint15_linear_3023_10006)"/>
<path d="M1005.15 -80.5419C871.75 97.6903 684.368 190.869 448.195 196.409C175.613 202.802 -114.427 89.7013 -309.738 -6.3066C-521.426 -110.364 -670.536 -217.308 -672.017 -218.374L-673.157 -217.019C-671.676 -215.953 -522.397 -108.879 -310.493 -4.71516C-186.033 56.467 -64.6293 104.698 50.3389 138.634C194.081 181.066 328.132 201.146 448.742 198.315C560.213 195.703 661.921 173.396 751.047 132.015C799.516 109.512 845.185 80.9225 886.777 47.0429C930.546 11.3895 971.013 -31.1006 1007.06 -79.2568L1005.15 -80.5419Z" fill="url(#paint16_linear_3023_10006)"/>
<path d="M985.248 -93.7849C857.67 82.5483 675.001 176.769 442.3 186.276C169.429 197.428 -124.813 88.5244 -323.587 -4.79324C-539.005 -105.926 -691.803 -211.024 -693.327 -212.072L-694.417 -210.689C-692.896 -209.634 -539.893 -104.393 -324.247 -3.15573C-197.588 56.3081 -74.4055 102.782 41.8631 134.967C187.233 175.21 322.164 193.113 442.899 188.186C552.811 183.697 652.645 160.124 739.634 118.129C786.89 95.3109 831.256 66.6001 871.498 32.7997C913.813 -2.74902 952.732 -44.9104 987.176 -92.514L985.257 -93.7801L985.248 -93.7849Z" fill="url(#paint17_linear_3023_10006)"/>
<path d="M965.338 -107.009C843.542 67.3534 665.662 162.56 436.626 175.966C163.549 191.966 -134.924 87.3279 -337.232 -3.2725C-556.471 -101.456 -713.098 -204.731 -714.653 -205.764L-715.697 -204.345C-714.142 -203.313 -557.305 -99.901 -337.846 -1.61751C-208.945 56.1105 -83.9573 100.801 33.6189 131.221C180.631 169.251 316.436 184.947 437.261 177.872C545.532 171.533 643.42 146.722 728.234 104.139C774.257 81.0214 817.306 52.2153 856.179 18.5085C897.038 -16.9118 934.41 -58.7272 967.268 -105.762L965.338 -107.009Z" fill="url(#paint18_linear_3023_10006)"/>
<path d="M945.444 -120.241C829.388 52.0922 656.361 148.211 431.179 165.456C158.005 186.366 -144.765 86.0495 -350.643 -1.78758C-573.79 -96.9869 -734.372 -198.452 -735.97 -199.467L-736.967 -198.014C-735.369 -196.999 -574.624 -95.432 -351.266 -0.137363C-220.079 55.8374 -93.2673 98.7301 25.6347 127.354C174.303 163.144 310.969 176.601 431.834 167.348C538.369 159.191 634.269 133.175 716.861 90.0302C761.636 66.6373 803.353 37.7435 840.866 4.15265C880.265 -31.1328 916.096 -72.5735 947.381 -119.024L945.428 -120.251L945.444 -120.241Z" fill="url(#paint19_linear_3023_10006)"/>
<path d="M925.539 -133.477C694.024 223.646 248.897 188.444 -83.7429 96.0345C-272.166 43.6813 -445.26 -32.1523 -557.294 -86.5573C-678.69 -145.515 -756.517 -192.685 -757.286 -193.158L-758.233 -191.677C-757.464 -191.203 -679.549 -143.975 -558.045 -84.9722C-486.686 -50.3195 -414.47 -18.44 -343.412 9.7767C-254.578 45.0476 -167.295 74.6765 -83.9998 97.8182C128.081 156.745 315.973 174.558 474.45 150.764C568.572 136.639 653.217 107.483 726.051 64.1115C806.16 16.4113 873.93 -49.6674 927.49 -132.285L925.526 -133.493L925.539 -133.477Z" fill="url(#paint20_linear_3023_10006)"/>
<path d="M905.648 -146.705C683.499 209.839 237.496 179.979 -97.5334 92.155C-287.322 42.4017 -462.391 -30.8097 -575.837 -83.4597C-698.762 -140.518 -777.817 -186.392 -778.605 -186.851L-779.498 -185.33C-778.714 -184.882 -699.571 -138.949 -576.53 -81.8413C-504.278 -48.3051 -431.233 -17.5278 -359.439 9.63433C-269.688 43.5917 -181.65 71.958 -97.7449 93.9561C115.863 149.962 304.198 165.491 462.027 140.122C555.77 125.054 639.649 95.2072 711.338 51.4006C790.184 3.22214 856.23 -63.0331 907.626 -145.523L905.651 -146.711L905.648 -146.705Z" fill="url(#paint21_linear_3023_10006)"/>
</g>
</g>
<defs>
<linearGradient id="paint0_linear_3023_10006" x1="-267.956" y1="-431.822" x2="1175.93" y2="393.862" gradientUnits="userSpaceOnUse">
<stop offset="0.0625" stop-color="#C7863D"/>
<stop offset="0.5" stop-color="#FFCE6F"/>
<stop offset="0.9375" stop-color="#C7863D"/>
</linearGradient>
<linearGradient id="paint1_linear_3023_10006" x1="-281.47" y1="-439.071" x2="1155.03" y2="382.39" gradientUnits="userSpaceOnUse">
<stop offset="0.0625" stop-color="#C7863D"/>
<stop offset="0.5" stop-color="#FFCE6F"/>
<stop offset="0.9375" stop-color="#C7863D"/>
</linearGradient>
<linearGradient id="paint2_linear_3023_10006" x1="-295.048" y1="-446.2" x2="1134.06" y2="371.033" gradientUnits="userSpaceOnUse">
<stop offset="0.0625" stop-color="#C7863D"/>
<stop offset="0.5" stop-color="#FFCE6F"/>
<stop offset="0.9375" stop-color="#C7863D"/>
</linearGradient>
<linearGradient id="paint3_linear_3023_10006" x1="-308.713" y1="-453.16" x2="1112.99" y2="359.841" gradientUnits="userSpaceOnUse">
<stop offset="0.0625" stop-color="#C7863D"/>
<stop offset="0.5" stop-color="#FFCE6F"/>
<stop offset="0.9375" stop-color="#C7863D"/>
</linearGradient>
<linearGradient id="paint4_linear_3023_10006" x1="-322.465" y1="-459.975" x2="1091.86" y2="348.804" gradientUnits="userSpaceOnUse">
<stop offset="0.0625" stop-color="#C7863D"/>
<stop offset="0.5" stop-color="#FFCE6F"/>
<stop offset="0.9375" stop-color="#C7863D"/>
</linearGradient>
<linearGradient id="paint5_linear_3023_10006" x1="-336.317" y1="-466.611" x2="1070.59" y2="337.926" gradientUnits="userSpaceOnUse">
<stop offset="0.0625" stop-color="#C7863D"/>
<stop offset="0.5" stop-color="#FFCE6F"/>
<stop offset="0.9375" stop-color="#C7863D"/>
</linearGradient>
<linearGradient id="paint6_linear_3023_10006" x1="-350.289" y1="-473.048" x2="1049.24" y2="327.271" gradientUnits="userSpaceOnUse">
<stop offset="0.0625" stop-color="#C7863D"/>
<stop offset="0.5" stop-color="#FFCE6F"/>
<stop offset="0.9375" stop-color="#C7863D"/>
</linearGradient>
<linearGradient id="paint7_linear_3023_10006" x1="-364.365" y1="-479.284" x2="1027.76" y2="316.803" gradientUnits="userSpaceOnUse">
<stop offset="0.0625" stop-color="#C7863D"/>
<stop offset="0.5" stop-color="#FFCE6F"/>
<stop offset="0.9375" stop-color="#C7863D"/>
</linearGradient>
<linearGradient id="paint8_linear_3023_10006" x1="-378.57" y1="-485.309" x2="1006.17" y2="306.555" gradientUnits="userSpaceOnUse">
<stop offset="0.0625" stop-color="#C7863D"/>
<stop offset="0.5" stop-color="#FFCE6F"/>
<stop offset="0.9375" stop-color="#C7863D"/>
</linearGradient>
<linearGradient id="paint9_linear_3023_10006" x1="-392.92" y1="-491.085" x2="984.415" y2="296.543" gradientUnits="userSpaceOnUse">
<stop offset="0.0625" stop-color="#C7863D"/>
<stop offset="0.5" stop-color="#FFCE6F"/>
<stop offset="0.9375" stop-color="#C7863D"/>
</linearGradient>
<linearGradient id="paint10_linear_3023_10006" x1="-407.416" y1="-496.589" x2="962.501" y2="286.797" gradientUnits="userSpaceOnUse">
<stop offset="0.0625" stop-color="#C7863D"/>
<stop offset="0.5" stop-color="#FFCE6F"/>
<stop offset="0.9375" stop-color="#C7863D"/>
</linearGradient>
<linearGradient id="paint11_linear_3023_10006" x1="-422.063" y1="-501.816" x2="940.462" y2="277.343" gradientUnits="userSpaceOnUse">
<stop offset="0.0625" stop-color="#C7863D"/>
<stop offset="0.5" stop-color="#FFCE6F"/>
<stop offset="0.9375" stop-color="#C7863D"/>
</linearGradient>
<linearGradient id="paint12_linear_3023_10006" x1="-436.897" y1="-506.743" x2="918.227" y2="268.184" gradientUnits="userSpaceOnUse">
<stop offset="0.0625" stop-color="#C7863D"/>
<stop offset="0.5" stop-color="#FFCE6F"/>
<stop offset="0.9375" stop-color="#C7863D"/>
</linearGradient>
<linearGradient id="paint13_linear_3023_10006" x1="-451.918" y1="-511.348" x2="895.805" y2="259.346" gradientUnits="userSpaceOnUse">
<stop offset="0.0625" stop-color="#C7863D"/>
<stop offset="0.5" stop-color="#FFCE6F"/>
<stop offset="0.9375" stop-color="#C7863D"/>
</linearGradient>
<linearGradient id="paint14_linear_3023_10006" x1="-467.134" y1="-515.589" x2="873.189" y2="250.873" gradientUnits="userSpaceOnUse">
<stop offset="0.0625" stop-color="#C7863D"/>
<stop offset="0.5" stop-color="#FFCE6F"/>
<stop offset="0.9375" stop-color="#C7863D"/>
</linearGradient>
<linearGradient id="paint15_linear_3023_10006" x1="-482.56" y1="-519.453" x2="850.362" y2="242.777" gradientUnits="userSpaceOnUse">
<stop offset="0.0625" stop-color="#C7863D"/>
<stop offset="0.5" stop-color="#FFCE6F"/>
<stop offset="0.9375" stop-color="#C7863D"/>
</linearGradient>
<linearGradient id="paint16_linear_3023_10006" x1="-498.234" y1="-522.909" x2="827.295" y2="235.093" gradientUnits="userSpaceOnUse">
<stop offset="0.0625" stop-color="#C7863D"/>
<stop offset="0.5" stop-color="#FFCE6F"/>
<stop offset="0.9375" stop-color="#C7863D"/>
</linearGradient>
<linearGradient id="paint17_linear_3023_10006" x1="-514.139" y1="-525.943" x2="803.989" y2="227.827" gradientUnits="userSpaceOnUse">
<stop offset="0.0625" stop-color="#C7863D"/>
<stop offset="0.5" stop-color="#FFCE6F"/>
<stop offset="0.9375" stop-color="#C7863D"/>
</linearGradient>
<linearGradient id="paint18_linear_3023_10006" x1="-530.316" y1="-528.523" x2="780.403" y2="221.01" gradientUnits="userSpaceOnUse">
<stop offset="0.0625" stop-color="#C7863D"/>
<stop offset="0.5" stop-color="#FFCE6F"/>
<stop offset="0.9375" stop-color="#C7863D"/>
</linearGradient>
<linearGradient id="paint19_linear_3023_10006" x1="-546.734" y1="-530.677" x2="756.584" y2="214.625" gradientUnits="userSpaceOnUse">
<stop offset="0.0625" stop-color="#C7863D"/>
<stop offset="0.5" stop-color="#FFCE6F"/>
<stop offset="0.9375" stop-color="#C7863D"/>
</linearGradient>
<linearGradient id="paint20_linear_3023_10006" x1="-563.379" y1="-532.421" x2="732.53" y2="208.643" gradientUnits="userSpaceOnUse">
<stop offset="0.0625" stop-color="#C7863D"/>
<stop offset="0.5" stop-color="#FFCE6F"/>
<stop offset="0.9375" stop-color="#C7863D"/>
</linearGradient>
<linearGradient id="paint21_linear_3023_10006" x1="-580.187" y1="-533.867" x2="708.338" y2="202.975" gradientUnits="userSpaceOnUse">
<stop offset="0.0625" stop-color="#C7863D"/>
<stop offset="0.5" stop-color="#FFCE6F"/>
<stop offset="0.9375" stop-color="#C7863D"/>
</linearGradient>
<clipPath id="clip0_3023_10006">
<rect width="1342" height="384" fill="white"/>
</clipPath>
<clipPath id="clip1_3023_10006">
<rect width="1261" height="803" fill="white" transform="matrix(0.868086 0.496414 0.496414 -0.868086 -151 174.073)"/>
</clipPath>
</defs>
</svg>
