<svg width="412" height="487" viewBox="0 0 412 487" fill="none" xmlns="http://www.w3.org/2000/svg">
<path d="M51.0215 1.5H360.979C388.331 1.50015 410.5 23.6852 410.5 51.0625V282.656C410.5 299.935 400.835 315.755 385.468 323.623L206 391.396L26.5342 323.625C11.1743 315.757 1.5 299.935 1.5 282.656V51.0625C1.5 23.6852 23.6689 1.50015 51.0215 1.5Z" fill="#03482F" stroke="url(#paint0_linear_3016_49381)" stroke-width="3"/>
<g filter="url(#filter0_dd_3016_49381)">
<path d="M323.022 58H88.9685C60.8156 58 38 80.8577 38 109.062V380.426C38 395.761 46.6186 409.791 60.2848 416.694L206 470L351.715 416.694C365.381 409.781 374 395.761 374 380.426V109.072C374 80.8674 351.184 58.0097 323.032 58.0097L323.022 58Z" fill="white"/>
</g>
<defs>
<filter id="filter0_dd_3016_49381" x="28.91" y="56.46" width="354.18" height="430.18" filterUnits="userSpaceOnUse" color-interpolation-filters="sRGB">
<feFlood flood-opacity="0" result="BackgroundImageFix"/>
<feColorMatrix in="SourceAlpha" type="matrix" values="0 0 0 0 0 0 0 0 0 0 0 0 0 0 0 0 0 0 127 0" result="hardAlpha"/>
<feOffset dy="3.09"/>
<feGaussianBlur stdDeviation="2.09"/>
<feColorMatrix type="matrix" values="0 0 0 0 0.121569 0 0 0 0 0.545098 0 0 0 0 0.141176 0 0 0 0.1 0"/>
<feBlend mode="multiply" in2="BackgroundImageFix" result="effect1_dropShadow_3016_49381"/>
<feColorMatrix in="SourceAlpha" type="matrix" values="0 0 0 0 0 0 0 0 0 0 0 0 0 0 0 0 0 0 127 0" result="hardAlpha"/>
<feOffset dy="7.55"/>
<feGaussianBlur stdDeviation="4.545"/>
<feColorMatrix type="matrix" values="0 0 0 0 0.121569 0 0 0 0 0.545098 0 0 0 0 0.141176 0 0 0 0.1 0"/>
<feBlend mode="multiply" in2="effect1_dropShadow_3016_49381" result="effect2_dropShadow_3016_49381"/>
<feBlend mode="normal" in="SourceGraphic" in2="effect2_dropShadow_3016_49381" result="shape"/>
</filter>
<linearGradient id="paint0_linear_3016_49381" x1="0" y1="196.5" x2="412" y2="196.5" gradientUnits="userSpaceOnUse">
<stop offset="0.0625" stop-color="#C7863D"/>
<stop offset="0.5" stop-color="#FFCE6F"/>
<stop offset="0.9375" stop-color="#C7863D"/>
</linearGradient>
</defs>
</svg>
