<svg width="58" height="58" viewBox="0 0 58 58" fill="none" xmlns="http://www.w3.org/2000/svg">
<path fill-rule="evenodd" clip-rule="evenodd" d="M8.02764 28.163H7.30457C5.04712 28.163 3.20713 26.3109 3.20713 24.0386V15.9839C3.20713 15.1289 3.51785 14.325 3.93819 13.6973C4.35906 13.0688 4.98645 12.4729 5.78618 12.1509L27.4785 3.41699C27.9832 3.21378 28.5393 3.14996 28.9969 3.14996C29.4545 3.14996 30.0105 3.21378 30.5153 3.41699L52.2076 12.1509C53.0073 12.4729 53.6347 13.0688 54.0556 13.6973C54.4759 14.325 54.7866 15.1289 54.7866 15.9839V24.0386C54.7866 26.3109 52.9466 28.163 50.6892 28.163H49.9661V41.7491H50.6892C52.9466 41.7491 54.7866 43.6011 54.7866 45.8734V51.4534H55.5097C56.4415 51.4534 57.1969 52.2138 57.1969 53.1517C57.1969 54.0896 56.4415 54.85 55.5097 54.85H2.48405C1.55225 54.85 0.796875 54.0896 0.796875 53.1517C0.796875 52.2138 1.55225 51.4534 2.48405 51.4534H3.20713V45.8734C3.20713 43.6011 5.04712 41.7491 7.30457 41.7491H8.02764V28.163ZM7.03938 15.3045L28.7219 6.57453C28.7273 6.57307 28.7472 6.56774 28.7833 6.56197C28.8407 6.55282 28.9147 6.5465 28.9969 6.5465C29.079 6.5465 29.153 6.55282 29.2104 6.56197C29.2466 6.56774 29.2664 6.57307 29.2718 6.57453L50.9544 15.3045C50.9982 15.3221 51.1301 15.4055 51.2575 15.5958C51.3855 15.7869 51.4123 15.9413 51.4123 15.9839V24.0386C51.4123 24.435 51.083 24.7664 50.6892 24.7664H48.2838L48.2789 24.7664L48.2741 24.7664H38.6428L38.6379 24.7664L38.633 24.7664H29.0017L28.9969 24.7664L28.992 24.7664H19.3607L19.3558 24.7664L19.351 24.7664H9.7197L9.71482 24.7664L9.70995 24.7664H7.30457C6.91073 24.7664 6.58149 24.435 6.58149 24.0386V15.9839C6.58149 15.9413 6.60821 15.7869 6.73621 15.5958C6.86368 15.4055 6.99553 15.3221 7.03938 15.3045ZM11.402 28.163V41.7491H17.6687V28.163H11.402ZM21.043 28.163V41.7491H27.3097V28.163H21.043ZM30.6841 28.163V41.7491H36.9507V28.163H30.6841ZM40.3251 28.163V41.7491H46.5917V28.163H40.3251ZM9.72608 45.1456H19.3446L19.3558 45.1456L19.3671 45.1456H28.9856L28.9969 45.1456L29.0081 45.1456H38.6266L38.6379 45.1456L38.6492 45.1456H48.2677L48.2789 45.1456L48.2902 45.1456H50.6892C51.083 45.1456 51.4123 45.477 51.4123 45.8734V51.4534H6.58149V45.8734C6.58149 45.477 6.91073 45.1456 7.30457 45.1456H9.70357L9.71482 45.1456L9.72608 45.1456Z" fill="#007A5B"/>
<path fill-rule="evenodd" clip-rule="evenodd" d="M8.02764 28.163H7.30457C5.04712 28.163 3.20713 26.3109 3.20713 24.0386V15.9839C3.20713 15.1289 3.51785 14.325 3.93819 13.6973C4.35906 13.0688 4.98645 12.4729 5.78618 12.1509L27.4785 3.41699C27.9832 3.21378 28.5393 3.14996 28.9969 3.14996C29.4545 3.14996 30.0105 3.21378 30.5153 3.41699L52.2076 12.1509C53.0073 12.4729 53.6347 13.0688 54.0556 13.6973C54.4759 14.325 54.7866 15.1289 54.7866 15.9839V24.0386C54.7866 26.3109 52.9466 28.163 50.6892 28.163H49.9661V41.7491H50.6892C52.9466 41.7491 54.7866 43.6011 54.7866 45.8734V51.4534H55.5097C56.4415 51.4534 57.1969 52.2138 57.1969 53.1517C57.1969 54.0896 56.4415 54.85 55.5097 54.85H2.48405C1.55225 54.85 0.796875 54.0896 0.796875 53.1517C0.796875 52.2138 1.55225 51.4534 2.48405 51.4534H3.20713V45.8734C3.20713 43.6011 5.04712 41.7491 7.30457 41.7491H8.02764V28.163ZM7.03938 15.3045L28.7219 6.57453C28.7273 6.57307 28.7472 6.56774 28.7833 6.56197C28.8407 6.55282 28.9147 6.5465 28.9969 6.5465C29.079 6.5465 29.153 6.55282 29.2104 6.56197C29.2466 6.56774 29.2664 6.57307 29.2718 6.57453L50.9544 15.3045C50.9982 15.3221 51.1301 15.4055 51.2575 15.5958C51.3855 15.7869 51.4123 15.9413 51.4123 15.9839V24.0386C51.4123 24.435 51.083 24.7664 50.6892 24.7664H48.2838L48.2789 24.7664L48.2741 24.7664H38.6428L38.6379 24.7664L38.633 24.7664H29.0017L28.9969 24.7664L28.992 24.7664H19.3607L19.3558 24.7664L19.351 24.7664H9.7197L9.71482 24.7664L9.70995 24.7664H7.30457C6.91073 24.7664 6.58149 24.435 6.58149 24.0386V15.9839C6.58149 15.9413 6.60821 15.7869 6.73621 15.5958C6.86368 15.4055 6.99553 15.3221 7.03938 15.3045ZM11.402 28.163V41.7491H17.6687V28.163H11.402ZM21.043 28.163V41.7491H27.3097V28.163H21.043ZM30.6841 28.163V41.7491H36.9507V28.163H30.6841ZM40.3251 28.163V41.7491H46.5917V28.163H40.3251ZM9.72608 45.1456H19.3446L19.3558 45.1456L19.3671 45.1456H28.9856L28.9969 45.1456L29.0081 45.1456H38.6266L38.6379 45.1456L38.6492 45.1456H48.2677L48.2789 45.1456L48.2902 45.1456H50.6892C51.083 45.1456 51.4123 45.477 51.4123 45.8734V51.4534H6.58149V45.8734C6.58149 45.477 6.91073 45.1456 7.30457 45.1456H9.70357L9.71482 45.1456L9.72608 45.1456Z" fill="url(#paint0_linear_1185_30625)"/>
<path fill-rule="evenodd" clip-rule="evenodd" d="M28.9968 14.8194C27.9319 14.8194 27.0686 15.6884 27.0686 16.7603C27.0686 17.8322 27.9319 18.7012 28.9968 18.7012C30.0618 18.7012 30.9251 17.8322 30.9251 16.7603C30.9251 15.6884 30.0618 14.8194 28.9968 14.8194ZM23.6943 16.7603C23.6943 13.8125 26.0683 11.4229 28.9968 11.4229C31.9254 11.4229 34.2994 13.8125 34.2994 16.7603C34.2994 19.7081 31.9254 22.0977 28.9968 22.0977C26.0683 22.0977 23.6943 19.7081 23.6943 16.7603Z" fill="#007A5B"/>
<path fill-rule="evenodd" clip-rule="evenodd" d="M28.9968 14.8194C27.9319 14.8194 27.0686 15.6884 27.0686 16.7603C27.0686 17.8322 27.9319 18.7012 28.9968 18.7012C30.0618 18.7012 30.9251 17.8322 30.9251 16.7603C30.9251 15.6884 30.0618 14.8194 28.9968 14.8194ZM23.6943 16.7603C23.6943 13.8125 26.0683 11.4229 28.9968 11.4229C31.9254 11.4229 34.2994 13.8125 34.2994 16.7603C34.2994 19.7081 31.9254 22.0977 28.9968 22.0977C26.0683 22.0977 23.6943 19.7081 23.6943 16.7603Z" fill="url(#paint1_linear_1185_30625)"/>
<defs>
<linearGradient id="paint0_linear_1185_30625" x1="0.796875" y1="29" x2="57.1969" y2="29" gradientUnits="userSpaceOnUse">
<stop offset="0.0625" stop-color="#C7863D"/>
<stop offset="0.5" stop-color="#FFCE6F"/>
<stop offset="0.9375" stop-color="#C7863D"/>
</linearGradient>
<linearGradient id="paint1_linear_1185_30625" x1="0.796875" y1="29" x2="57.1969" y2="29" gradientUnits="userSpaceOnUse">
<stop offset="0.0625" stop-color="#C7863D"/>
<stop offset="0.5" stop-color="#FFCE6F"/>
<stop offset="0.9375" stop-color="#C7863D"/>
</linearGradient>
</defs>
</svg>
