<svg width="47" height="36" viewBox="0 0 47 36" fill="none" xmlns="http://www.w3.org/2000/svg">
<path d="M20.7398 0V9.90258C20.7398 12.8252 20.1895 15.9026 19.0889 19.1347C18.0227 22.3324 16.5093 25.4097 14.5488 28.3668C12.5884 31.3238 10.2839 33.8682 7.63557 36L0 30.5329C2.02927 27.5759 3.78339 24.4298 5.26235 21.0946C6.7757 17.7593 7.53238 14.0802 7.53238 10.0573V0H20.7398ZM47 0V9.90258C47 12.8252 46.4497 15.9026 45.3491 19.1347C44.2828 22.3324 42.7695 25.4097 40.809 28.3668C38.8485 31.3238 36.5441 33.8682 33.8957 36L26.2602 30.5329C28.2894 27.5759 30.0435 24.4298 31.5225 21.0946C33.0359 17.7593 33.7925 14.0802 33.7925 10.0573V0H47Z" fill="#115231"/>
</svg>
