<svg width="46" height="36" viewBox="0 0 46 36" fill="none" xmlns="http://www.w3.org/2000/svg">
<path d="M0 36V26.0974C0 23.1748 0.537422 20.0974 1.61227 16.8653C2.68711 13.6332 4.18182 10.5387 6.09639 7.58166C8.01095 4.62463 10.2614 2.09742 12.8478 0L20.3045 5.46704C18.2556 8.52722 16.5089 11.7249 15.0646 15.0602C13.6203 18.3954 12.8981 22.0229 12.8981 25.9427V36H0ZM25.6955 36V26.0974C25.6955 23.1748 26.2329 20.0974 27.3078 16.8653C28.3826 13.6332 29.8773 10.5387 31.7919 7.58166C33.7065 4.62463 35.9569 2.09742 38.5433 0L46 5.46704C43.9511 8.52722 42.2045 11.7249 40.7601 15.0602C39.3158 18.3954 38.5936 22.0229 38.5936 25.9427V36H25.6955Z" fill="#115231"/>
</svg>
