<svg width="25" height="25" viewBox="0 0 25 25" fill="none" xmlns="http://www.w3.org/2000/svg">
<path fill-rule="evenodd" clip-rule="evenodd" d="M12.5508 0.502441C13.7182 0.502441 14.6414 1.3844 15.232 2.58065L18.1694 7.26474L21.7295 7.86082C23.0122 8.07626 24.0921 8.70498 24.4436 9.80682C24.7955 10.9101 24.2789 12.0535 23.3547 12.9791L23.3535 12.9802L20.5878 15.7674C20.4789 15.8772 20.3569 16.084 20.2803 16.3534C20.2043 16.6212 20.1978 16.8641 20.2319 17.0199L20.2324 17.0221L21.0237 20.4699C21.3524 21.9075 21.2435 23.3363 20.2282 24.0823C19.2143 24.8272 17.8292 24.498 16.5676 23.747L13.2304 21.7561C13.0897 21.6721 12.848 21.604 12.5564 21.604C12.267 21.604 12.0202 21.6712 11.8704 21.7583L11.8683 21.7595L8.53771 23.7465C7.27761 24.5001 5.89417 24.8235 4.88019 24.0779C3.86557 23.3318 3.75117 21.9057 4.081 20.4692L4.87208 17.0221L4.87256 17.0199C4.90665 16.8641 4.90022 16.6212 4.82415 16.3534C4.74761 16.084 4.62557 15.8772 4.51664 15.7674L1.74895 12.9782C0.830477 12.0526 0.315508 10.9101 0.664614 9.80835C1.01397 8.70581 2.0919 8.07633 3.37543 7.86075L6.93254 7.26517L6.93372 7.26497C7.06533 7.24214 7.27065 7.15559 7.48229 6.99745C7.69465 6.83877 7.83559 6.66614 7.89455 6.54484L7.89759 6.53864L9.86254 2.57823C10.4587 1.38289 11.3848 0.502441 12.5508 0.502441ZM9.39628 7.2903L11.3583 3.33583C11.8334 2.38361 12.3136 2.18945 12.5509 2.18945C12.7867 2.18945 13.2639 2.38118 13.7335 3.33267L15.6971 7.29036C15.9063 7.71891 16.2559 8.08525 16.617 8.35375C16.9796 8.62337 17.43 8.85082 17.8947 8.92886L21.4547 9.52494C22.4484 9.69193 22.7745 10.0866 22.8499 10.3231C22.9247 10.5577 22.8895 11.067 22.1739 11.7833L22.1719 11.7853L19.4042 14.5745C19.0444 14.9371 18.8037 15.4219 18.671 15.8891C18.5382 16.3567 18.4885 16.8945 18.5989 17.3911L19.3924 20.8487C19.6886 22.1441 19.3902 22.6103 19.2421 22.7191C19.0926 22.8289 18.557 22.9717 17.4197 22.2949L14.0835 20.3046C13.6216 20.0289 13.0655 19.917 12.5565 19.917C12.0466 19.917 11.4907 20.0292 11.0265 20.3014L7.6834 22.2957C6.55526 22.9704 6.01917 22.827 5.86693 22.7151C5.71534 22.6036 5.41686 22.1345 5.71196 20.8494L6.50434 17.3966L6.50558 17.3911C6.61603 16.8945 6.56636 16.3567 6.43354 15.8891C6.30083 15.4219 6.06016 14.9371 5.70037 14.5745L2.93268 11.7853C2.22179 11.0689 2.18433 10.5581 2.25931 10.3215C2.33402 10.0857 2.65744 9.69171 3.65023 9.52487L7.20987 8.92887L7.21281 8.92836C7.67273 8.84966 8.11968 8.62134 8.47936 8.35258C8.838 8.0846 9.1872 7.71862 9.39628 7.2903Z" fill="#007A5B"/>
<path fill-rule="evenodd" clip-rule="evenodd" d="M12.5508 0.502441C13.7182 0.502441 14.6414 1.3844 15.232 2.58065L18.1694 7.26474L21.7295 7.86082C23.0122 8.07626 24.0921 8.70498 24.4436 9.80682C24.7955 10.9101 24.2789 12.0535 23.3547 12.9791L23.3535 12.9802L20.5878 15.7674C20.4789 15.8772 20.3569 16.084 20.2803 16.3534C20.2043 16.6212 20.1978 16.8641 20.2319 17.0199L20.2324 17.0221L21.0237 20.4699C21.3524 21.9075 21.2435 23.3363 20.2282 24.0823C19.2143 24.8272 17.8292 24.498 16.5676 23.747L13.2304 21.7561C13.0897 21.6721 12.848 21.604 12.5564 21.604C12.267 21.604 12.0202 21.6712 11.8704 21.7583L11.8683 21.7595L8.53771 23.7465C7.27761 24.5001 5.89417 24.8235 4.88019 24.0779C3.86557 23.3318 3.75117 21.9057 4.081 20.4692L4.87208 17.0221L4.87256 17.0199C4.90665 16.8641 4.90022 16.6212 4.82415 16.3534C4.74761 16.084 4.62557 15.8772 4.51664 15.7674L1.74895 12.9782C0.830477 12.0526 0.315508 10.9101 0.664614 9.80835C1.01397 8.70581 2.0919 8.07633 3.37543 7.86075L6.93254 7.26517L6.93372 7.26497C7.06533 7.24214 7.27065 7.15559 7.48229 6.99745C7.69465 6.83877 7.83559 6.66614 7.89455 6.54484L7.89759 6.53864L9.86254 2.57823C10.4587 1.38289 11.3848 0.502441 12.5508 0.502441ZM9.39628 7.2903L11.3583 3.33583C11.8334 2.38361 12.3136 2.18945 12.5509 2.18945C12.7867 2.18945 13.2639 2.38118 13.7335 3.33267L15.6971 7.29036C15.9063 7.71891 16.2559 8.08525 16.617 8.35375C16.9796 8.62337 17.43 8.85082 17.8947 8.92886L21.4547 9.52494C22.4484 9.69193 22.7745 10.0866 22.8499 10.3231C22.9247 10.5577 22.8895 11.067 22.1739 11.7833L22.1719 11.7853L19.4042 14.5745C19.0444 14.9371 18.8037 15.4219 18.671 15.8891C18.5382 16.3567 18.4885 16.8945 18.5989 17.3911L19.3924 20.8487C19.6886 22.1441 19.3902 22.6103 19.2421 22.7191C19.0926 22.8289 18.557 22.9717 17.4197 22.2949L14.0835 20.3046C13.6216 20.0289 13.0655 19.917 12.5565 19.917C12.0466 19.917 11.4907 20.0292 11.0265 20.3014L7.6834 22.2957C6.55526 22.9704 6.01917 22.827 5.86693 22.7151C5.71534 22.6036 5.41686 22.1345 5.71196 20.8494L6.50434 17.3966L6.50558 17.3911C6.61603 16.8945 6.56636 16.3567 6.43354 15.8891C6.30083 15.4219 6.06016 14.9371 5.70037 14.5745L2.93268 11.7853C2.22179 11.0689 2.18433 10.5581 2.25931 10.3215C2.33402 10.0857 2.65744 9.69171 3.65023 9.52487L7.20987 8.92887L7.21281 8.92836C7.67273 8.84966 8.11968 8.62134 8.47936 8.35258C8.838 8.0846 9.1872 7.71862 9.39628 7.2903Z" fill="url(#paint0_linear_1185_30813)"/>
<path fill-rule="evenodd" clip-rule="evenodd" d="M10.7189 9.97054L11.8593 7.66951C12.1354 7.11542 12.4146 7.00244 12.5525 7.00244C12.6895 7.00244 12.9669 7.11401 13.2399 7.66767L14.3812 9.97058C14.5028 10.2199 14.706 10.4331 14.9159 10.5893C15.1267 10.7462 15.3885 10.8786 15.6586 10.924L17.7279 11.2708C18.3054 11.368 18.495 11.5976 18.5388 11.7353C18.5823 11.8718 18.5618 12.1682 18.1459 12.5849L18.1447 12.5861L16.536 14.2091C16.3268 14.4201 16.1869 14.7022 16.1098 14.9741C16.0326 15.2461 16.0037 15.559 16.0679 15.848L16.5291 17.86C16.7013 18.6137 16.5278 18.885 16.4418 18.9483C16.3548 19.0122 16.0435 19.0953 15.3825 18.7014L13.4433 17.5433C13.1748 17.3829 12.8516 17.3178 12.5557 17.3178C12.2593 17.3178 11.9363 17.3831 11.6664 17.5415L9.72326 18.702C9.06752 19.0946 8.75592 19.0111 8.66743 18.946C8.57932 18.8811 8.40582 18.6081 8.57735 17.8603L9.03792 15.8513L9.03864 15.848C9.10284 15.559 9.07397 15.2461 8.99677 14.9741C8.91963 14.7022 8.77974 14.4201 8.57061 14.2091L6.96189 12.5861C6.54868 12.1692 6.52691 11.872 6.57049 11.7344C6.61392 11.5972 6.80191 11.3679 7.37897 11.2708L9.44801 10.924L9.44972 10.9237C9.71705 10.8779 9.97684 10.7451 10.1859 10.5887C10.3944 10.4327 10.5973 10.2198 10.7189 9.97054Z" fill="#007A5B"/>
<path fill-rule="evenodd" clip-rule="evenodd" d="M10.7189 9.97054L11.8593 7.66951C12.1354 7.11542 12.4146 7.00244 12.5525 7.00244C12.6895 7.00244 12.9669 7.11401 13.2399 7.66767L14.3812 9.97058C14.5028 10.2199 14.706 10.4331 14.9159 10.5893C15.1267 10.7462 15.3885 10.8786 15.6586 10.924L17.7279 11.2708C18.3054 11.368 18.495 11.5976 18.5388 11.7353C18.5823 11.8718 18.5618 12.1682 18.1459 12.5849L18.1447 12.5861L16.536 14.2091C16.3268 14.4201 16.1869 14.7022 16.1098 14.9741C16.0326 15.2461 16.0037 15.559 16.0679 15.848L16.5291 17.86C16.7013 18.6137 16.5278 18.885 16.4418 18.9483C16.3548 19.0122 16.0435 19.0953 15.3825 18.7014L13.4433 17.5433C13.1748 17.3829 12.8516 17.3178 12.5557 17.3178C12.2593 17.3178 11.9363 17.3831 11.6664 17.5415L9.72326 18.702C9.06752 19.0946 8.75592 19.0111 8.66743 18.946C8.57932 18.8811 8.40582 18.6081 8.57735 17.8603L9.03792 15.8513L9.03864 15.848C9.10284 15.559 9.07397 15.2461 8.99677 14.9741C8.91963 14.7022 8.77974 14.4201 8.57061 14.2091L6.96189 12.5861C6.54868 12.1692 6.52691 11.872 6.57049 11.7344C6.61392 11.5972 6.80191 11.3679 7.37897 11.2708L9.44801 10.924L9.44972 10.9237C9.71705 10.8779 9.97684 10.7451 10.1859 10.5887C10.3944 10.4327 10.5973 10.2198 10.7189 9.97054Z" fill="url(#paint1_linear_1185_30813)"/>
<defs>
<linearGradient id="paint0_linear_1185_30813" x1="0.554687" y1="17.8569" x2="24.5547" y2="17.8569" gradientUnits="userSpaceOnUse">
<stop offset="0.0625" stop-color="#C7863D"/>
<stop offset="0.5" stop-color="#FFCE6F"/>
<stop offset="0.9375" stop-color="#C7863D"/>
</linearGradient>
<linearGradient id="paint1_linear_1185_30813" x1="0.554687" y1="17.8569" x2="24.5547" y2="17.8569" gradientUnits="userSpaceOnUse">
<stop offset="0.0625" stop-color="#C7863D"/>
<stop offset="0.5" stop-color="#FFCE6F"/>
<stop offset="0.9375" stop-color="#C7863D"/>
</linearGradient>
</defs>
</svg>
