<svg width="95" height="274" viewBox="0 0 95 274" fill="none" xmlns="http://www.w3.org/2000/svg">
<g filter="url(#filter0_d_3016_49434)">
<path d="M22.2313 122.512C25.3491 122.512 27.8767 119.985 27.8767 116.867C27.8767 113.749 25.3491 111.222 22.2313 111.222C19.1135 111.222 16.5859 113.749 16.5859 116.867C16.5859 119.985 19.1135 122.512 22.2313 122.512Z" fill="white"/>
</g>
<path d="M17.6931 116.867C17.6931 119.375 19.7263 121.408 22.2344 121.408C24.7424 121.408 26.7756 119.375 26.7756 116.867C26.7756 114.359 24.7424 112.325 22.2344 112.325C19.7263 112.325 17.6931 114.359 17.6931 116.867ZM79.4434 173.199C79.7759 172.866 79.7759 172.327 79.4434 171.995L74.0245 166.576C73.692 166.243 73.1529 166.243 72.8203 166.576C72.4878 166.908 72.4878 167.447 72.8203 167.78L77.6371 172.597L72.8203 177.413C72.4878 177.746 72.4878 178.285 72.8203 178.618C73.1529 178.95 73.692 178.95 74.0245 178.618L79.4434 173.199ZM22.2344 116.867V117.718H30.7833V116.867V116.015H22.2344V116.867ZM30.7833 116.867V117.718C36.7121 117.718 41.5121 112.909 41.5121 106.989H40.6606H39.8091C39.8091 111.969 35.7706 116.015 30.7833 116.015V116.867ZM40.6606 106.989H41.5121V10.7373H40.6606H39.8091V106.989H40.6606ZM40.6606 10.7373H41.5121C41.5121 5.74908 45.559 1.70305 50.5378 1.70305V0.851562V7.48038e-05C44.6176 7.48038e-05 39.8091 4.80951 39.8091 10.7373H40.6606ZM50.5378 0.851562V1.70305C55.5246 1.70305 59.5636 5.74861 59.5636 10.7373H60.4151H61.2666C61.2666 4.80999 56.4671 7.48038e-05 50.5378 7.48038e-05V0.851562ZM60.4151 10.7373H59.5636V162.719H60.4151H61.2666V10.7373H60.4151ZM60.4151 162.719H59.5636C59.5636 168.648 64.373 173.448 70.2923 173.448V172.597V171.745C65.3126 171.745 61.2666 167.707 61.2666 162.719H60.4151ZM70.2923 172.597V173.448H78.8413V172.597V171.745H70.2923V172.597Z" fill="white"/>
<path d="M17.6931 116.867C17.6931 119.375 19.7263 121.408 22.2344 121.408C24.7424 121.408 26.7756 119.375 26.7756 116.867C26.7756 114.359 24.7424 112.325 22.2344 112.325C19.7263 112.325 17.6931 114.359 17.6931 116.867ZM79.4434 173.199C79.7759 172.866 79.7759 172.327 79.4434 171.995L74.0245 166.576C73.692 166.243 73.1529 166.243 72.8203 166.576C72.4878 166.908 72.4878 167.447 72.8203 167.78L77.6371 172.597L72.8203 177.413C72.4878 177.746 72.4878 178.285 72.8203 178.618C73.1529 178.95 73.692 178.95 74.0245 178.618L79.4434 173.199ZM22.2344 116.867V117.718H30.7833V116.867V116.015H22.2344V116.867ZM30.7833 116.867V117.718C36.7121 117.718 41.5121 112.909 41.5121 106.989H40.6606H39.8091C39.8091 111.969 35.7706 116.015 30.7833 116.015V116.867ZM40.6606 106.989H41.5121V10.7373H40.6606H39.8091V106.989H40.6606ZM40.6606 10.7373H41.5121C41.5121 5.74908 45.559 1.70305 50.5378 1.70305V0.851562V7.48038e-05C44.6176 7.48038e-05 39.8091 4.80951 39.8091 10.7373H40.6606ZM50.5378 0.851562V1.70305C55.5246 1.70305 59.5636 5.74861 59.5636 10.7373H60.4151H61.2666C61.2666 4.80999 56.4671 7.48038e-05 50.5378 7.48038e-05V0.851562ZM60.4151 10.7373H59.5636V162.719H60.4151H61.2666V10.7373H60.4151ZM60.4151 162.719H59.5636C59.5636 168.648 64.373 173.448 70.2923 173.448V172.597V171.745C65.3126 171.745 61.2666 167.707 61.2666 162.719H60.4151ZM70.2923 172.597V173.448H78.8413V172.597V171.745H70.2923V172.597Z" fill="url(#paint0_linear_3016_49434)"/>
<path d="M60.4242 55.4824L56.7969 53.3792V22.666L60.4242 24.7607L64.0601 22.666V53.3792L60.4242 55.4824Z" fill="#03482F"/>
<g filter="url(#filter1_d_3016_49434)">
<path d="M60.4255 63.9553L55.0781 60.8644V56.1982L60.4255 59.2891L65.7728 56.1982V60.8644L60.4255 63.9553ZM65.7813 70.3755V65.7094L60.434 68.8003L55.0866 65.7094V70.3755L60.434 73.4664L65.7813 70.3755Z" fill="#03482F"/>
</g>
<defs>
<filter id="filter0_d_3016_49434" x="4.66511" y="107.816" width="28.3188" height="28.3205" filterUnits="userSpaceOnUse" color-interpolation-filters="sRGB">
<feFlood flood-opacity="0" result="BackgroundImageFix"/>
<feColorMatrix in="SourceAlpha" type="matrix" values="0 0 0 0 0 0 0 0 0 0 0 0 0 0 0 0 0 0 127 0" result="hardAlpha"/>
<feOffset dx="-3.40595" dy="5.10893"/>
<feGaussianBlur stdDeviation="4.25744"/>
<feColorMatrix type="matrix" values="0 0 0 0 0.611765 0 0 0 0 0.219608 0 0 0 0 0.709804 0 0 0 0.15 0"/>
<feBlend mode="normal" in2="BackgroundImageFix" result="effect1_dropShadow_3016_49434"/>
<feBlend mode="normal" in="SourceGraphic" in2="effect1_dropShadow_3016_49434" result="shape"/>
</filter>
<filter id="filter1_d_3016_49434" x="43.1573" y="52.7923" width="27.7329" height="34.2979" filterUnits="userSpaceOnUse" color-interpolation-filters="sRGB">
<feFlood flood-opacity="0" result="BackgroundImageFix"/>
<feColorMatrix in="SourceAlpha" type="matrix" values="0 0 0 0 0 0 0 0 0 0 0 0 0 0 0 0 0 0 127 0" result="hardAlpha"/>
<feOffset dx="-3.40595" dy="5.10893"/>
<feGaussianBlur stdDeviation="4.25744"/>
<feColorMatrix type="matrix" values="0 0 0 0 0.611765 0 0 0 0 0.219608 0 0 0 0 0.709804 0 0 0 0.15 0"/>
<feBlend mode="normal" in2="BackgroundImageFix" result="effect1_dropShadow_3016_49434"/>
<feBlend mode="normal" in="SourceGraphic" in2="effect1_dropShadow_3016_49434" result="shape"/>
</filter>
<linearGradient id="paint0_linear_3016_49434" x1="22.2344" y1="125.041" x2="78.8413" y2="125.041" gradientUnits="userSpaceOnUse">
<stop offset="0.0625" stop-color="#C7863D"/>
<stop offset="0.5" stop-color="#FFCE6F"/>
<stop offset="0.9375" stop-color="#C7863D"/>
</linearGradient>
</defs>
</svg>
