<svg width="94" height="251" viewBox="0 0 94 251" fill="none" xmlns="http://www.w3.org/2000/svg">
<g filter="url(#filter0_d_3061_10021)">
<path d="M22.0047 110.21C25.1226 110.21 27.6501 112.738 27.6501 115.856C27.6501 118.973 25.1226 121.501 22.0047 121.501C18.8869 121.501 16.3594 118.973 16.3594 115.856C16.3594 112.738 18.8869 110.21 22.0047 110.21Z" fill="white"/>
</g>
<path d="M17.4665 115.856C17.4665 113.348 19.4997 111.315 22.0078 111.315C24.5159 111.315 26.5491 113.348 26.5491 115.856C26.5491 118.364 24.5159 120.397 22.0078 120.397C19.4997 120.397 17.4665 118.364 17.4665 115.856ZM79.2168 59.5239C79.5493 59.8565 79.5493 60.3956 79.2168 60.7281L73.798 66.147C73.4654 66.4795 72.9263 66.4795 72.5938 66.147C72.2613 65.8144 72.2613 65.2753 72.5938 64.9428L77.4105 60.126L72.5938 55.3093C72.2613 54.9768 72.2613 54.4376 72.5938 54.1051C72.9263 53.7726 73.4654 53.7726 73.798 54.1051L79.2168 59.5239ZM22.0078 115.856V115.004H30.5567V115.856V116.707H22.0078V115.856ZM30.5567 115.856V115.004C36.4855 115.004 41.2855 119.814 41.2855 125.733H40.434H39.5825C39.5825 120.753 35.544 116.707 30.5567 116.707V115.856ZM40.434 125.733H41.2855V221.985H40.434H39.5825V125.733H40.434ZM40.434 221.985H41.2855C41.2855 226.974 45.3325 231.02 50.3113 231.02V231.871V232.723C44.391 232.723 39.5825 227.913 39.5825 221.985H40.434ZM50.3113 231.871V231.02C55.2981 231.02 59.337 226.974 59.337 221.985H60.1885H61.04C61.04 227.913 56.2405 232.723 50.3113 232.723V231.871ZM60.1885 221.985H59.337V70.0033H60.1885H61.04V221.985H60.1885ZM60.1885 70.0033H59.337C59.337 64.0745 64.1465 59.2745 70.0658 59.2745V60.126V60.9775C65.086 60.9775 61.04 65.016 61.04 70.0033H60.1885ZM70.0658 60.126V59.2745H78.6147V60.126V60.9775H70.0658V60.126Z" fill="white"/>
<path d="M17.4665 115.856C17.4665 113.348 19.4997 111.315 22.0078 111.315C24.5159 111.315 26.5491 113.348 26.5491 115.856C26.5491 118.364 24.5159 120.397 22.0078 120.397C19.4997 120.397 17.4665 118.364 17.4665 115.856ZM79.2168 59.5239C79.5493 59.8565 79.5493 60.3956 79.2168 60.7281L73.798 66.147C73.4654 66.4795 72.9263 66.4795 72.5938 66.147C72.2613 65.8144 72.2613 65.2753 72.5938 64.9428L77.4105 60.126L72.5938 55.3093C72.2613 54.9768 72.2613 54.4376 72.5938 54.1051C72.9263 53.7726 73.4654 53.7726 73.798 54.1051L79.2168 59.5239ZM22.0078 115.856V115.004H30.5567V115.856V116.707H22.0078V115.856ZM30.5567 115.856V115.004C36.4855 115.004 41.2855 119.814 41.2855 125.733H40.434H39.5825C39.5825 120.753 35.544 116.707 30.5567 116.707V115.856ZM40.434 125.733H41.2855V221.985H40.434H39.5825V125.733H40.434ZM40.434 221.985H41.2855C41.2855 226.974 45.3325 231.02 50.3113 231.02V231.871V232.723C44.391 232.723 39.5825 227.913 39.5825 221.985H40.434ZM50.3113 231.871V231.02C55.2981 231.02 59.337 226.974 59.337 221.985H60.1885H61.04C61.04 227.913 56.2405 232.723 50.3113 232.723V231.871ZM60.1885 221.985H59.337V70.0033H60.1885H61.04V221.985H60.1885ZM60.1885 70.0033H59.337C59.337 64.0745 64.1465 59.2745 70.0658 59.2745V60.126V60.9775C65.086 60.9775 61.04 65.016 61.04 70.0033H60.1885ZM70.0658 60.126V59.2745H78.6147V60.126V60.9775H70.0658V60.126Z" fill="url(#paint0_linear_3061_10021)"/>
<path d="M60.1977 177.239L56.5703 179.343V210.056L60.1977 207.961L63.8335 210.056V179.343L60.1977 177.239Z" fill="#03482F"/>
<g filter="url(#filter1_d_3061_10021)">
<path d="M60.1911 167.423L54.8438 170.514V175.18L60.1911 172.089L65.5384 175.18V170.514L60.1911 167.423ZM65.547 161.002V165.669L60.1996 162.578L54.8523 165.669V161.002L60.1996 157.912L65.547 161.002Z" fill="#03482F"/>
</g>
<defs>
<filter id="filter0_d_3061_10021" x="4.43855" y="106.804" width="28.3188" height="28.3205" filterUnits="userSpaceOnUse" color-interpolation-filters="sRGB">
<feFlood flood-opacity="0" result="BackgroundImageFix"/>
<feColorMatrix in="SourceAlpha" type="matrix" values="0 0 0 0 0 0 0 0 0 0 0 0 0 0 0 0 0 0 127 0" result="hardAlpha"/>
<feOffset dx="-3.40595" dy="5.10893"/>
<feGaussianBlur stdDeviation="4.25744"/>
<feColorMatrix type="matrix" values="0 0 0 0 0.611765 0 0 0 0 0.219608 0 0 0 0 0.709804 0 0 0 0.15 0"/>
<feBlend mode="normal" in2="BackgroundImageFix" result="effect1_dropShadow_3061_10021"/>
<feBlend mode="normal" in="SourceGraphic" in2="effect1_dropShadow_3061_10021" result="shape"/>
</filter>
<filter id="filter1_d_3061_10021" x="42.9229" y="154.506" width="27.7329" height="34.2979" filterUnits="userSpaceOnUse" color-interpolation-filters="sRGB">
<feFlood flood-opacity="0" result="BackgroundImageFix"/>
<feColorMatrix in="SourceAlpha" type="matrix" values="0 0 0 0 0 0 0 0 0 0 0 0 0 0 0 0 0 0 127 0" result="hardAlpha"/>
<feOffset dx="-3.40595" dy="5.10893"/>
<feGaussianBlur stdDeviation="4.25744"/>
<feColorMatrix type="matrix" values="0 0 0 0 0.611765 0 0 0 0 0.219608 0 0 0 0 0.709804 0 0 0 0.15 0"/>
<feBlend mode="normal" in2="BackgroundImageFix" result="effect1_dropShadow_3061_10021"/>
<feBlend mode="normal" in="SourceGraphic" in2="effect1_dropShadow_3061_10021" result="shape"/>
</filter>
<linearGradient id="paint0_linear_3061_10021" x1="22.0078" y1="107.682" x2="78.6147" y2="107.682" gradientUnits="userSpaceOnUse">
<stop offset="0.0625" stop-color="#C7863D"/>
<stop offset="0.5" stop-color="#FFCE6F"/>
<stop offset="0.9375" stop-color="#C7863D"/>
</linearGradient>
</defs>
</svg>
