<svg width="82" height="82" viewBox="0 0 82 82" fill="none" xmlns="http://www.w3.org/2000/svg">
<path d="M40.6382 81.1583C63.0346 81.1583 81.1905 63.0024 81.1905 40.606C81.1905 18.2096 63.0346 0.0537109 40.6382 0.0537109C18.2418 0.0537109 0.0859375 18.2096 0.0859375 40.606C0.0859375 63.0024 18.2418 81.1583 40.6382 81.1583Z" fill="white"/>
<path d="M73.4254 48.4435C77.7446 30.3272 66.56 12.1397 48.4437 7.82045C30.3275 3.50121 12.1399 14.6859 7.82068 32.8021C3.50144 50.9184 14.6861 69.1059 32.8024 73.4252C50.9186 77.7444 69.1062 66.5597 73.4254 48.4435Z" fill="url(#paint0_linear_3016_49445)"/>
<path d="M73.4254 48.4435C77.7446 30.3272 66.56 12.1397 48.4437 7.82045C30.3275 3.50121 12.1399 14.6859 7.82068 32.8021C3.50144 50.9184 14.6861 69.1059 32.8024 73.4252C50.9186 77.7444 69.1062 66.5597 73.4254 48.4435Z" fill="url(#paint1_radial_3016_49445)"/>
<g style="mix-blend-mode:multiply">
<path d="M63.5402 40.608C63.5402 53.2537 53.279 63.5148 40.6334 63.5148C27.9877 63.5148 17.7266 53.269 17.7266 40.608C17.7266 27.9469 27.9723 17.7012 40.6334 17.7012C53.2944 17.7012 63.5402 27.9469 63.5402 40.608Z" fill="#B4B4B4"/>
</g>
<defs>
<linearGradient id="paint0_linear_3016_49445" x1="6.89319" y1="40.6165" x2="74.3521" y2="40.6165" gradientUnits="userSpaceOnUse">
<stop stop-color="#03482F"/>
</linearGradient>
<radialGradient id="paint1_radial_3016_49445" cx="0" cy="0" r="1" gradientUnits="userSpaceOnUse" gradientTransform="translate(7.82067 32.8021) rotate(13.41) scale(67.4435)">
<stop offset="0.0572917" stop-color="#04784E"/>
<stop offset="0.640625" stop-color="#064C32"/>
</radialGradient>
</defs>
</svg>
