<svg width="40" height="41" viewBox="0 0 40 41" fill="none" xmlns="http://www.w3.org/2000/svg">
<path d="M2.80563 13.4264C2.9663 10.9529 4.95493 9.01446 7.43058 8.89181C11.0155 8.7142 16.1393 8.5 20 8.5C23.8607 8.5 28.9845 8.7142 32.5694 8.89181C35.0451 9.01446 37.0337 10.9529 37.1944 13.4264C37.3483 15.7962 37.5 18.7121 37.5 21C37.5 23.2879 37.3483 26.2038 37.1944 28.5736C37.0337 31.0471 35.0451 32.9855 32.5694 33.1082C28.9845 33.2858 23.8607 33.5 20 33.5C16.1393 33.5 11.0155 33.2858 7.43058 33.1082C4.95494 32.9855 2.9663 31.0471 2.80563 28.5736C2.6517 26.2038 2.5 23.2879 2.5 21C2.5 18.7121 2.6517 15.7962 2.80563 13.4264Z" fill="#FC0D1B"/>
<path d="M16.25 16V26L26.25 21L16.25 16Z" fill="white"/>
</svg>
