<svg width="20" height="20" viewBox="0 0 20 20" fill="none" xmlns="http://www.w3.org/2000/svg">
<path d="M17.4737 16.1083C17.4737 16.4083 17.407 16.7167 17.2654 17.0167C17.1237 17.3167 16.9404 17.6 16.6987 17.8667C16.2904 18.3167 15.8404 18.6417 15.332 18.85C14.832 19.0583 14.2904 19.1667 13.707 19.1667C12.857 19.1667 11.9487 18.9667 10.9904 18.5583C10.032 18.15 9.0737 17.6 8.1237 16.9083C7.16536 16.2083 6.25703 15.4333 5.39036 14.575C4.53203 13.7083 3.75703 12.8 3.06536 11.85C2.38203 10.9 1.83203 9.95 1.43203 9.00833C1.03203 8.05833 0.832031 7.15 0.832031 6.28333C0.832031 5.71667 0.932031 5.175 1.13203 4.675C1.33203 4.16667 1.6487 3.7 2.09036 3.28333C2.6237 2.75833 3.20703 2.5 3.8237 2.5C4.05703 2.5 4.29036 2.55 4.4987 2.65C4.71536 2.75 4.90703 2.9 5.05703 3.11667L6.99037 5.84167C7.14037 6.05 7.2487 6.24167 7.3237 6.425C7.3987 6.6 7.44037 6.775 7.44037 6.93333C7.44037 7.13333 7.38203 7.33333 7.26537 7.525C7.15703 7.71667 6.9987 7.91667 6.7987 8.11667L6.16536 8.775C6.0737 8.86667 6.03203 8.975 6.03203 9.10833C6.03203 9.175 6.04037 9.23333 6.05703 9.3C6.08203 9.36667 6.10703 9.41667 6.1237 9.46667C6.2737 9.74167 6.53203 10.1 6.8987 10.5333C7.2737 10.9667 7.6737 11.4083 8.10703 11.85C8.55703 12.2917 8.99036 12.7 9.43203 13.075C9.86536 13.4417 10.2237 13.6917 10.507 13.8417C10.5487 13.8583 10.5987 13.8833 10.657 13.9083C10.7237 13.9333 10.7904 13.9417 10.8654 13.9417C11.007 13.9417 11.1154 13.8917 11.207 13.8L11.8404 13.175C12.0487 12.9667 12.2487 12.8083 12.4404 12.7083C12.632 12.5917 12.8237 12.5333 13.032 12.5333C13.1904 12.5333 13.357 12.5667 13.5404 12.6417C13.7237 12.7167 13.9154 12.825 14.1237 12.9667L16.882 14.925C17.0987 15.075 17.2487 15.25 17.3404 15.4583C17.4237 15.6667 17.4737 15.875 17.4737 16.1083Z" stroke="url(#paint0_linear_6582_28033)" stroke-width="1.5" stroke-miterlimit="10"/>
<path d="M14.5807 8.33464C14.5807 7.83464 14.1891 7.06797 13.6057 6.44297C13.0724 5.86797 12.3641 5.41797 11.6641 5.41797" stroke="#E9AE3D" stroke-width="1.5" stroke-linecap="round" stroke-linejoin="round"/>
<path d="M17.4974 8.33333C17.4974 5.10833 14.8891 2.5 11.6641 2.5" stroke="#E9AE3D" stroke-width="1.5" stroke-linecap="round" stroke-linejoin="round"/>
<defs>
<linearGradient id="paint0_linear_6582_28033" x1="0.832031" y1="10.8333" x2="17.4737" y2="10.8333" gradientUnits="userSpaceOnUse">
<stop offset="0.0625" stop-color="#C7863D"/>
<stop offset="0.5" stop-color="#FFCE6F"/>
<stop offset="0.9375" stop-color="#C7863D"/>
</linearGradient>
</defs>
</svg>
