<svg width="120" height="52" viewBox="0 0 120 52" fill="none" xmlns="http://www.w3.org/2000/svg">
<g clip-path="url(#clip0_6582_27961)">
<path d="M114.195 21.3157L99.6623 13.127C98.9532 12.7441 98.6805 12.0878 98.6805 11.4861C98.6805 10.5016 99.3896 9.51705 100.59 9.51705H109.948H113.143C115.535 9.51705 117.234 9.10293 118.379 6.55567L120.008 2.09406H99.9351C94.8701 2.09406 90.787 6.18843 90.787 11.2673C90.787 14.5959 92.587 17.6511 95.4701 19.292L109.792 27.3166C110.665 27.8089 111.047 28.6293 111.047 29.4497C111.047 30.7077 110.119 31.9579 108.592 31.9579H94.7532L79.3403 8.65755L75 2.09406L70.6597 8.65755L60.3896 24.1833L50.1195 8.65755L45.7792 2.09406L41.439 8.65755L21.1481 39.3184H29.8364L34.7455 31.8954H42.4909C45.5922 31.8954 47.0571 31.3719 48.7325 28.934L51.826 24.4724H39.6623L45.787 15.221L56.0571 30.7468L50.3844 39.3262H59.0727L68.8675 24.5271L71.9221 28.9418C73.5974 31.3875 75.0545 31.9032 78.1558 31.9032H86.0416L90.9584 39.3262H92.9065H109.535C114.818 39.3262 119.174 35.0131 119.174 29.7154C119.174 26.2227 117.265 22.9956 114.218 21.3079M68.8753 24.4724L74.9922 15.221L81.1091 24.4724H68.8753ZM13.987 0C6.26494 0 0 6.44628 0 14.4084C0 22.3705 6.26494 28.809 13.987 28.809C21.7091 28.809 27.9818 22.3627 27.9818 14.4084C27.9818 6.45409 21.7169 0 13.987 0ZM7.19221 4.20376C10.9948 1.22675 16.4182 1.98467 19.3091 5.89151C21.7636 9.21232 21.6 13.7286 19.1688 16.8463C20.0805 13.8615 19.6286 10.4781 17.6494 7.79805C16.0519 5.63366 14.9221 4.99294 12.5065 4.63351C12.039 4.56319 13.8234 8.18092 13.5662 7.93869C12.0701 6.5713 9.84156 4.571 7.03636 4.3444C7.09091 4.29752 7.14545 4.24282 7.2 4.19594L7.19221 4.20376ZM8.64156 25.3241C4.23896 23.4254 2.15844 18.2137 4.00519 13.6739C5.57143 9.82179 9.45974 7.7121 13.2857 8.32156C10.3169 8.99354 7.6987 11.0954 6.43636 14.1974C5.41558 16.7056 5.43896 18.034 6.34286 20.3702C6.52208 20.8234 8.66494 17.4245 8.59481 17.7683C8.18961 19.792 7.62078 22.7769 8.83636 25.3944C8.76623 25.3632 8.6961 25.3476 8.63377 25.3163L8.64156 25.3241ZM18.2571 23.2847C14.2364 23.8083 10.5195 21.4017 9.11688 17.6823C11.1662 19.9952 14.2364 21.2766 17.4857 20.8547C20.1039 20.5109 21.2104 19.8233 22.7221 17.8464C23.0182 17.4557 19.0831 17.2448 19.4104 17.1354C21.3117 16.4869 24.1091 15.5023 25.6987 13.1035C25.7065 13.1739 25.7299 13.252 25.7377 13.3223C26.3455 18.198 22.9948 22.6597 18.2571 23.2847ZM0.833766 51.5155C0.514286 51.1952 0.358442 50.7576 0.358442 50.2029H1.27792C1.27792 50.4998 1.35584 50.7342 1.51169 50.9139C1.66753 51.0858 1.88571 51.1717 2.15844 51.1717H3.04675C3.3039 51.1717 3.51429 51.117 3.67792 50.9998C3.84156 50.8826 3.91948 50.7342 3.91948 50.5467V50.195C3.91948 50.0544 3.86494 49.9294 3.75584 49.8356C3.64675 49.7418 3.48312 49.6715 3.28052 49.6325L1.83117 49.3824C1.37922 49.3043 1.02857 49.1558 0.794805 48.937C0.553247 48.7104 0.428571 48.4291 0.428571 48.0775V47.64C0.428571 47.3665 0.498701 47.1321 0.646753 46.9211C0.794805 46.7101 0.997403 46.5539 1.26234 46.4367C1.52727 46.3195 1.83896 46.2648 2.18961 46.2648H3.09351C3.42078 46.2648 3.71688 46.3351 3.96623 46.4679C4.21558 46.6086 4.41039 46.7961 4.55065 47.0461C4.69091 47.2962 4.76104 47.5853 4.76104 47.9134H3.84935C3.84935 47.6712 3.77922 47.4681 3.63896 47.3196C3.4987 47.1711 3.31948 47.093 3.09351 47.093H2.18961C1.94026 47.093 1.73766 47.1477 1.58961 47.2571C1.44156 47.3665 1.36364 47.5149 1.36364 47.7025V47.9916C1.36364 48.14 1.41818 48.2651 1.51948 48.3666C1.62078 48.4682 1.77662 48.5307 1.97922 48.562L3.42857 48.8198C3.88831 48.898 4.23896 49.0464 4.48831 49.2652C4.73766 49.484 4.86234 49.7575 4.86234 50.0935V50.6092C4.86234 50.8826 4.78442 51.1249 4.63636 51.3358C4.48831 51.5468 4.27792 51.7109 4.00519 51.8281C3.73247 51.9453 3.42078 52.0078 3.07013 52.0078H2.15065C1.5974 52.0078 1.16104 51.8515 0.841558 51.5312L0.833766 51.5155ZM7.34026 47.1399H5.57143V46.3351H10.0442V47.1399H8.27532V51.9297H7.34026V47.1399ZM13.574 50.5467H11.361L10.8468 51.9297H9.88052L12.0468 46.3351H12.4675C12.7558 46.3351 12.9506 46.4757 13.0675 46.757L15.0623 51.9297H14.0883L13.574 50.5467ZM11.6182 49.7653H13.3091L12.4753 47.4915H12.4675L11.626 49.7653H11.6182ZM16.8156 49.7653L14.7506 46.3351H15.7636L17.2753 48.9136L18.787 46.3351H19.8L17.7351 49.7653V51.9297H16.8078V49.7653H16.8156ZM23.4078 46.3351H24.3429V48.7104H27.1013V46.3351H28.0286V51.9297H27.1013V49.5231H24.3429V51.9297H23.4078V46.3351ZM30.3662 51.75C30.0779 51.5859 29.8597 51.3593 29.7039 51.0624C29.5481 50.7654 29.4701 50.4216 29.4701 50.031V46.3273H30.4052V50.0153C30.4052 50.3591 30.4909 50.6404 30.6701 50.8514C30.8494 51.0624 31.0753 51.1639 31.3636 51.1639H32.2208C32.5091 51.1639 32.7506 51.0624 32.9299 50.8514C33.1091 50.6404 33.1948 50.3591 33.1948 50.0153V46.3273H34.1299V50.031C34.1299 50.4216 34.0519 50.7654 33.8883 51.0624C33.7247 51.3593 33.5065 51.5859 33.2182 51.75C32.9299 51.914 32.6026 51.9922 32.2208 51.9922H31.3636C30.9896 51.9922 30.6623 51.914 30.374 51.75H30.3662ZM35.5636 46.3351H36.3974L39.2182 50.4295V46.3351H40.1299V51.9297H39.2883L36.4753 47.8509V51.9297H35.5636V46.3351ZM42.4052 51.7343C42.1013 51.5624 41.8753 51.3202 41.7039 50.9998C41.5403 50.6795 41.4545 50.3122 41.4545 49.8981V48.3666C41.4545 47.9525 41.5403 47.5853 41.7039 47.2649C41.8675 46.9446 42.1091 46.7023 42.413 46.5304C42.7169 46.3585 43.0675 46.2726 43.4727 46.2726H44.3532C44.7351 46.2726 45.0701 46.3507 45.3662 46.507C45.6545 46.6633 45.8805 46.882 46.0442 47.1711C46.2 47.4524 46.2857 47.7884 46.2857 48.1557H45.3662C45.3662 47.8353 45.2727 47.5775 45.0857 47.3821C44.8987 47.1868 44.6571 47.093 44.3532 47.093H43.4727C43.1455 47.093 42.8883 47.2102 42.6857 47.4524C42.4831 47.6868 42.3896 48.0072 42.3896 48.3979V49.8669C42.3896 50.2654 42.4831 50.5779 42.6779 50.8123C42.8727 51.0467 43.1299 51.1639 43.4493 51.1639H44.361C44.6727 51.1639 44.9221 51.0545 45.1169 50.8358C45.3117 50.617 45.413 50.3357 45.413 49.9997V49.7262H43.8623V48.9136H46.3247V49.9997C46.3247 50.3904 46.239 50.7342 46.0753 51.0311C45.9117 51.3358 45.6779 51.5702 45.3818 51.7343C45.0857 51.9062 44.7429 51.9844 44.3532 51.9844H43.4416C43.0442 51.9844 42.6935 51.8984 42.3974 51.7265L42.4052 51.7343ZM47.626 46.3351H50.5013C50.961 46.3351 51.3273 46.4601 51.6078 46.7101C51.8883 46.9602 52.0286 47.2884 52.0286 47.7025V48.2729C52.0286 48.5464 51.9429 48.7964 51.7792 49.0074C51.6156 49.2183 51.3818 49.3746 51.0779 49.4762V49.4918C51.2494 49.5934 51.3818 49.7262 51.4909 49.8825C51.5922 50.0388 51.6857 50.2419 51.7558 50.492L52.2 51.9375H51.2338L50.8052 50.5545C50.7351 50.3122 50.626 50.1325 50.4857 49.9997C50.3455 49.8669 50.174 49.8044 49.9792 49.8044H48.5455V51.9297H47.6104V46.3351H47.626ZM50.2987 48.9995C50.5403 48.9995 50.7351 48.9292 50.8831 48.7964C51.0312 48.6636 51.1013 48.4917 51.1013 48.2807V47.7259C51.1013 47.554 51.0468 47.4134 50.9299 47.3118C50.813 47.2102 50.6727 47.1555 50.4857 47.1555H48.5532V48.9995H50.2909H50.2987ZM54.8338 49.7653L52.7688 46.3351H53.7818L55.2935 48.9136L56.8052 46.3351H57.8182L55.7532 49.7653V51.9297H54.826V49.7653H54.8338ZM61.4182 46.3351H65.4312V47.1477H62.3532V48.8355H65.1351V49.6481H62.3532V51.9297H61.4182V46.3351ZM67.2156 51.7343C66.9039 51.5624 66.6701 51.3202 66.4987 50.9998C66.3273 50.6795 66.2416 50.3122 66.2416 49.8981V48.3666C66.2416 47.9525 66.3273 47.5853 66.4987 47.2649C66.6701 46.9446 66.9117 46.7023 67.2156 46.5304C67.5195 46.3585 67.8779 46.2726 68.2831 46.2726H69.1247C69.5299 46.2726 69.8883 46.3585 70.2 46.5304C70.5117 46.7023 70.7532 46.9524 70.9247 47.2649C71.0961 47.5853 71.1818 47.9447 71.1818 48.3666V49.8981C71.1818 50.3122 71.0961 50.6795 70.9247 50.9998C70.7532 51.3202 70.5117 51.5624 70.2 51.7343C69.8883 51.9062 69.5299 51.9922 69.1247 51.9922H68.2831C67.8779 51.9922 67.5195 51.9062 67.2156 51.7343ZM69.1325 51.1717C69.4597 51.1717 69.7325 51.0545 69.9351 50.8123C70.1455 50.5701 70.2468 50.2575 70.2468 49.8669V48.3979C70.2468 48.0072 70.1455 47.6947 69.9429 47.4524C69.7403 47.2102 69.4675 47.093 69.1325 47.093H68.2987C67.9636 47.093 67.6909 47.2102 67.4883 47.4524C67.2857 47.6947 67.1844 48.0072 67.1844 48.3979V49.8669C67.1844 50.2575 67.2857 50.5701 67.4883 50.8123C67.6909 51.0545 67.9636 51.1717 68.2987 51.1717H69.1325ZM72.4987 46.3351H75.374C75.8338 46.3351 76.2 46.4601 76.4805 46.7101C76.761 46.9602 76.9013 47.2884 76.9013 47.7025V48.2729C76.9013 48.5464 76.8156 48.7964 76.652 49.0074C76.4883 49.2183 76.2545 49.3746 75.9506 49.4762V49.4918C76.1221 49.5934 76.2545 49.7262 76.3636 49.8825C76.4649 50.0388 76.5584 50.2419 76.6286 50.492L77.0727 51.9375H76.1065L75.6779 50.5545C75.6078 50.3122 75.4987 50.1325 75.3584 49.9997C75.2182 49.8669 75.0468 49.8044 74.8519 49.8044H73.4182V51.9297H72.4831V46.3351H72.4987ZM75.1714 48.9995C75.413 48.9995 75.6078 48.9292 75.7558 48.7964C75.9039 48.6636 75.974 48.4917 75.974 48.2807V47.7259C75.974 47.554 75.9195 47.4134 75.8026 47.3118C75.6857 47.2102 75.5455 47.1555 75.3584 47.1555H73.426V48.9995H75.1636H75.1714ZM81.1403 51.5155C80.8208 51.1952 80.6649 50.7576 80.6649 50.2029H81.5844C81.5844 50.4998 81.6623 50.7342 81.8182 50.9139C81.974 51.0858 82.1922 51.1717 82.4649 51.1717H83.3532C83.6104 51.1717 83.8208 51.117 83.9844 50.9998C84.1481 50.8826 84.226 50.7342 84.226 50.5467V50.195C84.226 50.0544 84.1714 49.9294 84.0623 49.8356C83.9532 49.7418 83.7896 49.6715 83.587 49.6325L82.1377 49.3824C81.6857 49.3043 81.3351 49.1558 81.1013 48.937C80.8597 48.7104 80.7351 48.4291 80.7351 48.0775V47.64C80.7351 47.3665 80.8052 47.1321 80.9532 46.9211C81.1013 46.7101 81.3039 46.5539 81.5688 46.4367C81.8338 46.3195 82.1455 46.2648 82.4961 46.2648H83.4C83.7273 46.2648 84.0234 46.3351 84.2727 46.4679C84.5221 46.6086 84.7169 46.7961 84.8571 47.0461C84.9974 47.2962 85.0675 47.5853 85.0675 47.9134H84.1558C84.1558 47.6712 84.0857 47.4681 83.9455 47.3196C83.8052 47.1711 83.626 47.093 83.4 47.093H82.4961C82.2468 47.093 82.0442 47.1477 81.8961 47.2571C81.7481 47.3665 81.6701 47.5149 81.6701 47.7025V47.9916C81.6701 48.14 81.7247 48.2651 81.826 48.3666C81.9273 48.4682 82.0831 48.5307 82.2857 48.562L83.7351 48.8198C84.1948 48.898 84.5455 49.0464 84.7948 49.2652C85.0442 49.484 85.1688 49.7575 85.1688 50.0935V50.6092C85.1688 50.8826 85.0909 51.1249 84.9429 51.3358C84.7948 51.5468 84.5844 51.7109 84.3117 51.8281C84.039 51.9453 83.7273 52.0078 83.3766 52.0078H82.4571C81.9039 52.0078 81.4675 51.8515 81.1481 51.5312L81.1403 51.5155ZM87.2649 51.75C86.9766 51.5859 86.7584 51.3593 86.6026 51.0624C86.4468 50.7654 86.3688 50.4216 86.3688 50.031V46.3273H87.3039V50.0153C87.3039 50.3591 87.3896 50.6404 87.5688 50.8514C87.748 51.0624 87.974 51.1639 88.2623 51.1639H89.1195C89.4078 51.1639 89.6493 51.0624 89.8286 50.8514C90.0078 50.6404 90.0935 50.3591 90.0935 50.0153V46.3273H91.0286V50.031C91.0286 50.4216 90.9506 50.7654 90.787 51.0624C90.6234 51.3593 90.4052 51.5859 90.1169 51.75C89.8286 51.914 89.5013 51.9922 89.1195 51.9922H88.2623C87.8883 51.9922 87.561 51.914 87.2727 51.75H87.2649ZM93.2338 51.7343C92.9377 51.5624 92.7039 51.3202 92.5403 50.9998C92.3766 50.6795 92.2909 50.3122 92.2909 49.8981V48.3666C92.2909 47.9525 92.3766 47.5853 92.5403 47.2649C92.7039 46.9446 92.9454 46.7023 93.2493 46.5304C93.5532 46.3585 93.9039 46.2726 94.3013 46.2726H95.1429C95.5169 46.2726 95.8519 46.3507 96.1481 46.5148C96.4364 46.6789 96.6623 46.9055 96.826 47.2024C96.9896 47.4993 97.0675 47.8431 97.0675 48.2338H96.1481C96.1481 47.89 96.0545 47.6165 95.8675 47.4134C95.6805 47.2024 95.439 47.1008 95.1429 47.1008H94.3013C93.974 47.1008 93.7169 47.218 93.5221 47.4603C93.3273 47.7025 93.226 48.015 93.226 48.4057V49.8747C93.226 50.2732 93.3195 50.5857 93.5143 50.8201C93.7013 51.0545 93.9584 51.1717 94.2701 51.1717H95.1351C95.4468 51.1717 95.6961 51.0545 95.8831 50.8201C96.0701 50.5857 96.1714 50.281 96.1714 49.9059H97.0909C97.0909 50.3201 97.013 50.6873 96.8494 50.9998C96.6857 51.3124 96.4597 51.5546 96.1636 51.7343C95.8675 51.9062 95.5247 51.9922 95.1351 51.9922H94.2701C93.8727 51.9922 93.5299 51.9062 93.2338 51.7343ZM99.0545 51.7343C98.7584 51.5624 98.5247 51.3202 98.361 50.9998C98.1974 50.6795 98.1117 50.3122 98.1117 49.8981V48.3666C98.1117 47.9525 98.1974 47.5853 98.361 47.2649C98.5247 46.9446 98.7662 46.7023 99.0701 46.5304C99.374 46.3585 99.7247 46.2726 100.122 46.2726H100.964C101.338 46.2726 101.673 46.3507 101.969 46.5148C102.257 46.6789 102.483 46.9055 102.647 47.2024C102.81 47.4993 102.888 47.8431 102.888 48.2338H101.969C101.969 47.89 101.875 47.6165 101.688 47.4134C101.501 47.2024 101.26 47.1008 100.964 47.1008H100.122C99.7948 47.1008 99.5377 47.218 99.3429 47.4603C99.148 47.7025 99.0468 48.015 99.0468 48.4057V49.8747C99.0468 50.2732 99.1403 50.5857 99.3351 50.8201C99.5221 51.0545 99.7792 51.1717 100.091 51.1717H100.956C101.268 51.1717 101.517 51.0545 101.704 50.8201C101.891 50.5857 101.992 50.281 101.992 49.9059H102.912C102.912 50.3201 102.834 50.6873 102.67 50.9998C102.506 51.3124 102.281 51.5546 101.984 51.7343C101.688 51.9062 101.345 51.9922 100.956 51.9922H100.091C99.6935 51.9922 99.3506 51.9062 99.0545 51.7343ZM104.268 51.7421C104.143 51.6171 104.081 51.453 104.081 51.2499V46.3351H108.171V47.1399H105.016V48.6557H107.938V49.4684H105.016V51.1171H108.171V51.9219H104.766C104.556 51.9219 104.392 51.8594 104.268 51.7343V51.7421ZM109.706 51.5155C109.387 51.1952 109.231 50.7576 109.231 50.2029H110.151C110.151 50.4998 110.229 50.7342 110.384 50.9139C110.54 51.0858 110.758 51.1717 111.031 51.1717H111.919C112.177 51.1717 112.387 51.117 112.551 50.9998C112.714 50.8826 112.792 50.7342 112.792 50.5467V50.195C112.792 50.0544 112.738 49.9294 112.629 49.8356C112.519 49.7418 112.356 49.6715 112.153 49.6325L110.704 49.3824C110.252 49.3043 109.901 49.1558 109.668 48.937C109.426 48.7104 109.301 48.4291 109.301 48.0775V47.64C109.301 47.3665 109.371 47.1321 109.519 46.9211C109.668 46.7101 109.87 46.5539 110.135 46.4367C110.4 46.3195 110.712 46.2648 111.062 46.2648H111.966C112.294 46.2648 112.59 46.3351 112.839 46.4679C113.088 46.6086 113.283 46.7961 113.423 47.0461C113.564 47.2962 113.634 47.5853 113.634 47.9134H112.722C112.722 47.6712 112.652 47.4681 112.512 47.3196C112.371 47.1711 112.192 47.093 111.966 47.093H111.062C110.813 47.093 110.61 47.1477 110.462 47.2571C110.314 47.3665 110.236 47.5149 110.236 47.7025V47.9916C110.236 48.14 110.291 48.2651 110.392 48.3666C110.494 48.4682 110.649 48.5307 110.852 48.562L112.301 48.8198C112.761 48.898 113.112 49.0464 113.361 49.2652C113.61 49.484 113.735 49.7575 113.735 50.0935V50.6092C113.735 50.8826 113.657 51.1249 113.509 51.3358C113.361 51.5468 113.151 51.7109 112.878 51.8281C112.605 51.9453 112.294 52.0078 111.943 52.0078H111.023C110.47 52.0078 110.034 51.8515 109.714 51.5312L109.706 51.5155ZM115.247 51.5155C114.927 51.1952 114.771 50.7576 114.771 50.2029H115.691C115.691 50.4998 115.769 50.7342 115.925 50.9139C116.081 51.0858 116.299 51.1717 116.571 51.1717H117.46C117.717 51.1717 117.927 51.117 118.091 50.9998C118.255 50.8826 118.332 50.7342 118.332 50.5467V50.195C118.332 50.0544 118.278 49.9294 118.169 49.8356C118.06 49.7418 117.896 49.6715 117.693 49.6325L116.244 49.3824C115.792 49.3043 115.442 49.1558 115.208 48.937C114.966 48.7104 114.842 48.4291 114.842 48.0775V47.64C114.842 47.3665 114.912 47.1321 115.06 46.9211C115.208 46.7101 115.41 46.5539 115.675 46.4367C115.94 46.3195 116.252 46.2648 116.603 46.2648H117.506C117.834 46.2648 118.13 46.3351 118.379 46.4679C118.629 46.6086 118.823 46.7961 118.964 47.0461C119.104 47.2962 119.174 47.5853 119.174 47.9134H118.262C118.262 47.6712 118.192 47.4681 118.052 47.3196C117.912 47.1711 117.732 47.093 117.506 47.093H116.603C116.353 47.093 116.151 47.1477 116.003 47.2571C115.855 47.3665 115.777 47.5149 115.777 47.7025V47.9916C115.777 48.14 115.831 48.2651 115.932 48.3666C116.034 48.4682 116.19 48.5307 116.392 48.562L117.842 48.8198C118.301 48.898 118.652 49.0464 118.901 49.2652C119.151 49.484 119.275 49.7575 119.275 50.0935V50.6092C119.275 50.8826 119.197 51.1249 119.049 51.3358C118.901 51.5468 118.691 51.7109 118.418 51.8281C118.145 51.9453 117.834 52.0078 117.483 52.0078H116.564C116.01 52.0078 115.574 51.8515 115.255 51.5312L115.247 51.5155Z" fill="url(#paint0_linear_6582_27961)"/>
</g>
<defs>
<linearGradient id="paint0_linear_6582_27961" x1="0" y1="25.9961" x2="120" y2="25.9961" gradientUnits="userSpaceOnUse">
<stop stop-color="#C7863D"/>
<stop offset="0.5" stop-color="#FFCE6F"/>
<stop offset="1" stop-color="#C7863D"/>
</linearGradient>
<clipPath id="clip0_6582_27961">
<rect width="120" height="52" fill="white"/>
</clipPath>
</defs>
</svg>
