<svg width="20" height="20" viewBox="0 0 20 20" fill="none" xmlns="http://www.w3.org/2000/svg">
<g clip-path="url(#clip0_6582_27984)">
<path fill-rule="evenodd" clip-rule="evenodd" d="M15.4214 20C17.9474 19.9988 20.0024 17.9389 20 15.4117C19.9976 12.8839 17.9403 10.8316 15.412 10.8333C12.8854 10.8351 10.8322 12.8927 10.8333 15.4211C10.8345 17.9459 12.8936 20.0012 15.4214 20ZM18.75 15.4312C18.745 17.2607 17.2467 18.7512 15.4136 18.75C13.5731 18.7488 12.0778 17.2459 12.0833 15.4015C12.0883 13.572 13.5861 12.0827 15.4198 12.0833C17.2615 12.0846 18.7549 13.5862 18.75 15.4312Z" fill="url(#paint0_linear_6582_27984)"/>
<path fill-rule="evenodd" clip-rule="evenodd" d="M15.4167 12.9167C15.7932 12.9167 16.0985 13.2219 16.0985 13.5985V14.7348H17.2348C17.6114 14.7348 17.9167 15.0401 17.9167 15.4167C17.9167 15.7932 17.6114 16.0985 17.2348 16.0985H16.0985V17.2348C16.0985 17.6114 15.7932 17.9167 15.4167 17.9167C15.0401 17.9167 14.7348 17.6114 14.7348 17.2348V16.0985H13.5985C13.2219 16.0985 12.9167 15.7932 12.9167 15.4167C12.9167 15.0401 13.2219 14.7348 13.5985 14.7348H14.7348V13.5985C14.7348 13.2219 15.0401 12.9167 15.4167 12.9167Z" fill="url(#paint1_linear_6582_27984)"/>
<path fill-rule="evenodd" clip-rule="evenodd" d="M3.54167 4.79198C3.54167 2.14574 5.68664 0 8.33271 0C10.9788 0 13.1244 2.14574 13.125 4.79198C13.125 7.4376 10.9794 9.58333 8.33271 9.58333C5.68664 9.58333 3.54167 7.4376 3.54167 4.79198ZM10.1547 1.96016C9.16433 0.658593 7.30615 0.407403 6.00467 1.39779C5.99411 1.40597 5.9841 1.41489 5.97395 1.42394C5.9655 1.43148 5.95688 1.43916 5.94781 1.44653C6.91064 1.52214 7.67291 2.18635 8.18525 2.64249C8.21826 2.67176 8.15313 2.5213 8.06723 2.3229C7.92387 1.99176 7.72269 1.52705 7.82349 1.54151C8.65136 1.66085 9.03874 1.8758 9.58608 2.595C10.2652 3.48667 10.4202 4.6114 10.1072 5.60491C10.9382 4.56828 10.9956 3.06427 10.1547 1.96016ZM4.91437 4.55079C4.28269 6.05918 4.99372 7.79439 6.50264 8.42549C6.51526 8.4311 6.52808 8.43552 6.54131 8.4401C6.55167 8.44368 6.56227 8.44734 6.57324 8.45173C6.15712 7.57944 6.35144 6.58717 6.48952 5.91421C6.49838 5.87179 6.40152 6.00238 6.27347 6.17503C6.05823 6.46524 5.75486 6.87428 5.71725 6.78025C5.40672 6.00232 5.39985 5.55992 5.74849 4.72575C6.18086 3.69287 7.07809 2.99553 8.09403 2.77059C6.78131 2.56751 5.45046 3.27047 4.91437 4.55079ZM6.66197 5.88109C7.14369 7.11892 8.41706 7.92061 9.79414 7.74502C11.4161 7.53757 12.5633 6.05418 12.3552 4.43144C12.3539 4.41832 12.3513 4.4052 12.3487 4.39208C12.3464 4.38083 12.3442 4.36958 12.3427 4.35833C11.796 5.15439 10.8388 5.48244 10.1878 5.69864C10.1463 5.71239 10.3077 5.73093 10.5211 5.75545C10.8799 5.79665 11.3857 5.85475 11.323 5.93546C10.8045 6.5928 10.4252 6.82087 9.52859 6.93584C8.41643 7.07768 7.36488 6.64966 6.66197 5.88109Z" fill="url(#paint2_linear_6582_27984)"/>
<path d="M12.5315 10.8336C12.1153 10.8273 11.709 10.9356 11.3469 11.1743C11.1961 11.2703 11.0354 11.3564 10.8701 11.4449C10.8277 11.4677 10.785 11.4906 10.7424 11.5136C9.14174 12.3829 7.54595 12.3849 5.94191 11.5206C5.83848 11.4648 5.73664 11.4063 5.63317 11.3469L5.63123 11.3458C5.4585 11.2465 5.28118 11.1447 5.09452 11.0558C4.921 10.9731 4.6999 10.8758 4.48024 10.8662L4.47697 10.8662C3.83306 10.855 3.18964 10.9399 2.60264 11.2135C1.66582 11.6497 1.09638 12.3625 0.720897 13.1774C0.0945347 14.5369 -0.09901 15.9618 0.045389 17.4101C0.129744 18.2612 0.609701 18.9437 1.39486 19.4314C2.08463 19.8597 2.86299 19.9999 3.66983 19.9999H8.50287C9.52861 20.0002 11.3435 19.9998 12.5318 19.9984C12.0342 19.684 11.5911 19.291 11.2201 18.837C10.744 18.8369 10.268 18.8359 9.79204 18.8349L9.78882 18.8349C9.29834 18.8338 8.80783 18.8328 8.31741 18.8328V18.8349H3.66648C3.18892 18.8349 2.72479 18.7779 2.30332 18.5653C1.65411 18.2379 1.33862 17.7218 1.3204 17.0879C1.28779 15.9396 1.4043 14.8039 1.88522 13.7193C2.07318 13.2951 2.33113 12.9047 2.70033 12.579C3.14529 12.1866 3.70052 12.0172 4.32001 11.9908C4.37706 11.9883 4.44275 12.0168 4.49454 12.0449C4.65846 12.1337 4.82094 12.225 4.98322 12.3162C5.07288 12.3666 5.16271 12.4171 5.25259 12.4671C6.06614 12.9189 6.93358 13.2025 7.86261 13.2731C7.83884 13.293 7.81601 13.3148 7.79431 13.3387L6.85562 14.3707C6.59671 14.6554 6.59406 15.1268 6.90873 15.3341C7.31899 15.6018 7.78741 15.7426 8.26432 15.7414C8.76089 15.7414 9.22426 15.5925 9.61992 15.3327H9.61859C9.93458 15.1283 9.93193 14.6554 9.6717 14.3693L8.733 13.3387C8.71396 13.3178 8.69404 13.2984 8.67338 13.2805C8.69438 13.2793 8.71541 13.278 8.73647 13.2766C9.41244 13.2315 10.052 13.0812 10.6551 12.8368C11.0995 12.0196 11.7479 11.3288 12.5315 10.8336Z" fill="url(#paint3_linear_6582_27984)"/>
</g>
<defs>
<linearGradient id="paint0_linear_6582_27984" x1="0" y1="10" x2="20" y2="10" gradientUnits="userSpaceOnUse">
<stop offset="0.0625" stop-color="#C7863D"/>
<stop offset="0.5" stop-color="#FFCE6F"/>
<stop offset="0.9375" stop-color="#C7863D"/>
</linearGradient>
<linearGradient id="paint1_linear_6582_27984" x1="0" y1="10" x2="20" y2="10" gradientUnits="userSpaceOnUse">
<stop offset="0.0625" stop-color="#C7863D"/>
<stop offset="0.5" stop-color="#FFCE6F"/>
<stop offset="0.9375" stop-color="#C7863D"/>
</linearGradient>
<linearGradient id="paint2_linear_6582_27984" x1="0" y1="10" x2="20" y2="10" gradientUnits="userSpaceOnUse">
<stop offset="0.0625" stop-color="#C7863D"/>
<stop offset="0.5" stop-color="#FFCE6F"/>
<stop offset="0.9375" stop-color="#C7863D"/>
</linearGradient>
<linearGradient id="paint3_linear_6582_27984" x1="0" y1="10" x2="20" y2="10" gradientUnits="userSpaceOnUse">
<stop offset="0.0625" stop-color="#C7863D"/>
<stop offset="0.5" stop-color="#FFCE6F"/>
<stop offset="0.9375" stop-color="#C7863D"/>
</linearGradient>
<clipPath id="clip0_6582_27984">
<rect width="20" height="20" fill="white"/>
</clipPath>
</defs>
</svg>
