<svg width="147" height="173" viewBox="0 0 147 173" fill="none" xmlns="http://www.w3.org/2000/svg">
<path d="M74.4653 0.0484802C95.9419 12.7018 118.631 22.5432 142.58 29.3304C146.361 30.397 146.846 31.0757 146.846 35.0026C146.846 47.9467 147.04 60.8909 146.7 73.835C146.022 100.935 136.568 124.545 118.049 144.422C108.789 154.36 98.172 162.505 85.9066 168.371C82.9493 169.777 79.7981 170.892 76.6469 171.813C72.8654 172.977 69.2294 171.765 65.6904 170.407C55.5581 166.48 46.5893 160.566 38.3477 153.585C25.452 142.677 15.4166 129.539 8.7264 113.928C4.07232 103.068 0.92112 91.7726 0.4848 79.992C-0.04848 64.5269 0.09696 49.0618 0 33.5966C0 31.3181 0.872641 30.3 3.29664 29.5728C14.0592 26.5186 24.6763 22.931 35.051 18.7133C46.9771 13.8168 58.5154 8.09616 69.6658 1.59984C70.5869 1.06656 71.508 0.53328 72.3806 0C73.1563 0.04848 73.7866 0.0484802 74.4653 0.0484802ZM139.962 57.9336C139.865 57.9336 139.816 57.9336 139.719 57.9336C139.719 51.1949 139.671 44.4562 139.768 37.7659C139.768 36.5054 139.477 35.9237 138.216 35.5358C115.964 29.088 94.8754 20.0707 74.8046 8.58096C73.8835 8.04768 73.1563 7.95072 72.1867 8.53248C52.116 20.1192 30.9787 29.1365 8.7264 35.5843C7.5144 35.9237 7.22352 36.457 7.22352 37.669C7.272 48.383 7.22352 59.0971 7.272 69.8112C7.32048 82.2221 9.16272 94.3421 13.4774 106.074C18.6648 120.133 26.664 132.399 37.3296 142.822C46.2014 151.5 56.1883 158.627 67.7266 163.523C71.3141 165.026 74.8046 165.559 78.4406 163.862C79.992 163.135 81.6403 162.553 83.1917 161.778C102.147 152.227 116.934 138.265 127.308 119.746C134.096 107.674 138.071 94.6814 139.138 80.8646C139.622 73.2048 139.671 65.545 139.962 57.9336Z" fill="#15852B"/>
<path d="M14.6252 51.2009C14.6252 49.1648 14.6252 47.1771 14.6252 45.1409C14.6737 42.5715 15.4009 41.5049 17.8249 40.6808C23.9819 38.4992 30.1873 36.3661 36.2958 34.0875C40.0288 32.6816 42.2104 35.5419 41.774 37.8689C41.4347 39.6627 40.1742 40.4384 38.6228 41.0201C33.5809 42.8139 28.539 44.7046 23.4486 46.4014C22.2366 46.7893 21.8003 47.371 21.8488 48.6315C21.9457 51.6857 21.8972 54.7885 21.8488 57.8912C21.8488 59.491 21.267 60.8485 19.7156 61.5757C18.3582 62.2059 16.9038 62.1089 15.9827 60.9939C15.2555 60.0728 14.7222 58.7638 14.6252 57.5518C14.4313 55.4672 14.6252 53.3341 14.6252 51.2009Z" fill="#15852B"/>
<path d="M114.529 116.05C117.486 116.05 119.038 119.104 117.341 121.722C115.644 124.291 113.802 126.764 111.911 129.188C107.16 135.199 101.585 140.387 95.6219 145.138C93.5858 146.738 91.5011 146.737 90.0952 145.041C88.7378 143.344 88.9802 141.211 90.9679 139.611C96.3976 135.199 101.585 130.497 105.948 124.97C107.742 122.74 109.39 120.413 111.039 118.086C111.96 116.922 112.929 115.953 114.529 116.05Z" fill="#15852B"/>
<path d="M80.7348 145.29C82.7709 145.242 84.6132 146.987 84.6617 149.023C84.7101 151.108 82.8194 153.144 80.6863 153.241C78.5532 153.338 76.7594 151.592 76.7109 149.411C76.7109 147.181 78.5047 145.339 80.7348 145.29Z" fill="#15852B"/>
<path d="M55.9866 32.5562C56.0351 34.5924 54.2413 36.4346 52.0597 36.5316C50.0235 36.6286 48.1328 34.7378 48.1328 32.6047C48.1328 30.617 49.9266 28.8233 51.9627 28.7263C53.9989 28.6294 55.9381 30.4716 55.9866 32.5562Z" fill="#15852B"/>
<path d="M58.0895 74.4841C58.0895 72.4964 57.944 70.4117 58.0895 68.3271C58.6228 61.1521 64.101 55.1406 70.9851 54.074C78.4026 52.959 85.4807 56.6919 88.0986 63.5276C89.0197 66.0001 89.0682 68.8119 89.4076 71.5268C89.553 72.5449 89.4076 73.5629 89.4076 74.6295C90.4741 74.7749 91.2983 74.8234 92.1224 75.0173C95.1282 75.6476 97.6492 78.2655 97.6976 81.5621C97.8431 90.337 97.8431 99.1604 97.6976 107.935C97.6492 111.62 94.7888 114.238 91.0559 114.529C88.341 114.722 85.6261 114.626 82.9112 114.626C74.7181 114.626 66.5735 114.626 58.3803 114.626C52.3203 114.626 49.6055 111.862 49.6055 105.754C49.6055 98.821 49.6055 91.9369 49.6055 85.0042C49.6055 77.6838 50.7205 76.2294 58.0895 74.4841ZM73.6516 108.372C78.8389 108.372 83.9778 108.323 89.1651 108.372C90.8135 108.372 91.5407 107.887 91.5407 106.093C91.4922 98.4817 91.4922 90.8703 91.5407 83.2589C91.5407 81.6106 91.0074 81.0773 89.3591 81.0773C78.9359 81.1258 68.5611 81.1258 58.1379 81.0773C56.3442 81.0773 55.8594 81.7561 55.8594 83.4044C55.9079 90.9673 55.9079 98.4817 55.8594 106.045C55.8594 107.741 56.4411 108.42 58.1379 108.372C63.3253 108.323 68.5127 108.372 73.6516 108.372ZM83.0567 74.7265C83.0567 72.5934 83.2021 70.5572 83.0082 68.5695C82.6204 64.0124 79.0328 60.5703 74.5242 60.2309C69.9671 59.8431 65.7008 62.6065 64.7312 66.9697C64.198 69.4422 64.3434 72.0601 64.1495 74.7265C70.6458 74.7265 76.7543 74.7265 83.0567 74.7265Z" fill="#15852B"/>
<path d="M73.7885 82.0547C77.9578 82.1032 81.6422 84.915 82.8058 88.8904C83.9693 92.9627 82.2725 97.4228 78.491 99.5075C77.1821 100.235 76.6973 101.059 76.8427 102.465C76.8427 102.61 76.8427 102.756 76.8427 102.901C76.7942 105.761 75.7277 107.216 73.74 107.216C71.7038 107.216 70.4918 105.761 70.5888 102.95C70.6373 101.253 70.1525 100.235 68.6011 99.3136C64.9651 97.1805 63.4622 92.7203 64.6742 88.7449C65.8862 84.7696 69.6192 82.0547 73.7885 82.0547ZM73.74 88.3571C72.0917 88.3571 70.6858 89.6661 70.6373 91.3629C70.5888 93.1566 71.9462 94.611 73.6915 94.611C75.3398 94.611 76.7458 93.3021 76.7942 91.6053C76.8427 89.86 75.4853 88.4056 73.74 88.3571Z" fill="#15852B"/>
</svg>
