<svg width="228" height="173" viewBox="0 0 228 173" fill="none" xmlns="http://www.w3.org/2000/svg">
<path d="M203.809 93.8165C203.701 93.7229 203.588 93.6246 203.48 93.531C204.98 75.981 201.431 59.3624 192.68 43.8154C192.088 42.7624 192.088 42.0885 192.76 41.0401C195.077 37.4132 195.105 33.6036 192.868 29.9439C190.607 26.2467 187.096 23.8926 182.847 24.9456C179.313 25.8255 177.419 24.4589 175.417 22.2733C175.139 21.9738 174.839 21.679 174.5 21.4543C173.532 20.8085 173.429 20.055 173.706 18.9131C174.787 14.4531 172.883 10.0305 168.978 7.54071C165.142 5.09775 160.607 5.20539 156.974 7.99935C156.006 8.74815 155.329 8.67327 154.323 8.18655C145.031 3.70311 135.199 1.13378 124.925 0.305424C109.076 -0.972216 93.9468 1.74219 79.6447 8.75751C78.8457 9.15063 78.3569 9.11787 77.6472 8.52351C73.6804 5.18667 68.7736 4.91522 64.6517 7.70918C60.5862 10.4657 58.9741 15.1083 60.5486 19.8865C60.8823 20.8927 60.6802 21.4169 59.9517 22.1189C59.3078 22.7367 58.6639 23.3591 58.0294 23.9862C54.3258 23.2608 50.7256 22.6571 47.2429 22.1844C21.9428 18.7399 6.08032 22.3248 1.36152 32.5506C-3.35728 42.7718 4.24262 57.0925 23.3387 73.9593V77.4927C24.5654 81.3069 26.8073 84.1664 30.7459 85.5329C31.0796 85.6499 31.3146 86.4408 31.3475 86.9369C31.5214 89.3237 31.5073 91.7339 31.747 94.1114C33.9607 116.201 43.2385 134.841 59.5005 150.014C60.3606 150.814 60.5392 151.46 60.2619 152.565C59.1903 156.809 60.887 161.059 64.5483 163.619C68.2049 166.179 72.7827 166.314 76.4299 163.806C77.4921 163.076 78.2347 163.034 79.3862 163.614C89.0729 168.528 99.3894 171.327 110.199 172.207C126.358 173.522 141.76 170.714 156.274 163.408C157.054 163.015 157.552 162.996 158.29 163.572C162.252 166.675 167.037 166.853 171.027 164.134C175.008 161.424 176.61 156.894 175.158 152.097C174.871 151.151 175.022 150.636 175.722 149.991C177.254 148.568 178.725 147.108 180.135 145.619C186.288 146.448 191.885 146.864 196.891 146.864C212.363 146.864 222.247 142.928 225.801 135.225C230.515 125.009 222.91 110.688 203.809 93.8165ZM198.465 89.2816C198.433 90.3018 198.381 91.3221 198.31 92.347C198.221 93.6293 198.094 94.9069 197.944 96.1752C197.305 101.637 196.101 106.981 194.32 112.214C194.132 112.766 193.93 113.313 193.714 113.856C193.657 114.006 193.535 114.128 193.624 113.992C185.752 107.543 177.879 101.094 169.791 94.467C170.547 91.1349 169.979 87.6576 167.445 84.5548C167.182 84.2365 167.45 83.2584 167.751 82.7483C168.926 80.7406 170.059 78.7141 171.154 76.669C172.042 75.0076 172.893 73.3275 173.72 71.6427C176.065 66.8738 178.185 61.9972 180.041 56.9989C181.221 53.8259 182.391 50.6388 183.294 47.3815C183.891 45.2241 185.714 46.2537 186.894 45.6733C187.129 45.5564 188.013 46.2911 188.295 46.8012C195.697 60.0784 198.982 74.2682 198.465 89.2816ZM183.9 30.0281C186.847 30.0609 189.174 32.4851 189.131 35.4756C189.089 38.3632 186.753 40.7313 183.905 40.7687C180.789 40.8108 178.439 38.4989 178.434 35.3867C178.434 32.2698 180.756 29.9907 183.9 30.0281ZM163.403 11.1162C166.355 11.1349 168.761 13.5639 168.729 16.4935C168.691 19.5589 166.44 21.8287 163.403 21.8568C160.32 21.8849 157.97 19.5168 157.989 16.4046C158.013 13.4703 160.438 11.0975 163.403 11.1162ZM82.3425 13.3439C94.8304 7.25523 108.047 4.68591 121.912 5.39259C131.857 5.89803 141.393 8.13039 150.488 12.1973C151.334 12.5764 152.166 12.9929 152.965 13.3767C152.673 16.4327 152.673 16.428 149.886 17.3172C146.874 18.2766 146.78 18.2298 143.87 19.4185C141.243 21.3093 143.4 25.1749 145.929 24.2764C149.087 22.9894 149.444 22.9753 152.739 21.9925C153.219 21.8521 154.069 21.9504 154.342 22.278C159.028 27.7817 164.151 28.6475 170.312 24.7303C171.901 26.2139 173.433 27.6413 175.031 29.1295C173.452 31.8018 172.728 34.5443 173.396 37.5629C173.988 40.2492 175.337 42.4582 177.583 44.0307C178.429 44.6203 178.519 45.1211 178.232 46.0524C175.797 53.9055 172.785 61.4964 169.208 68.844C168.385 70.5335 167.535 72.209 166.656 73.8704C165.514 76.0231 164.325 78.1572 163.084 80.2632C162.539 81.1945 161.932 81.0916 161.011 81.2086C158.036 81.5877 157.12 79.7578 156.015 77.5769C153.402 72.4149 150.455 67.5056 147.184 62.8443C144.618 59.1892 141.854 55.6932 138.884 52.347C135.65 48.7013 132.186 45.2334 128.478 41.9574C127.528 41.1197 127.246 40.4645 127.636 39.1588C128.092 37.6378 128.125 35.953 128.097 34.3431C128.083 33.3743 128.125 32.7753 129.084 32.2277C131.796 30.688 131.486 30.5382 134.292 29.2091C137.906 27.5992 134.78 23.2047 132.402 24.2811C128.967 25.8957 128.656 26.3824 125.348 28.3246C121.085 24.5806 115.285 23.7195 109.828 28.3012C102.144 23.8037 94.0643 20.1159 85.5432 17.3968C84.5374 17.0739 83.4752 16.8726 82.5446 16.4093C81.9853 16.1285 81.3085 15.4733 81.2709 14.9445C81.238 14.425 81.8161 13.5966 82.3425 13.3439ZM164.757 91.7573C164.729 94.7946 162.435 97.0878 159.408 97.1066C156.457 97.1253 154.013 94.57 154.079 91.528C154.14 88.6545 156.532 86.2817 159.371 86.277C162.468 86.2723 164.79 88.6311 164.757 91.7573ZM148.782 92.4546H148.786C148.871 94.0505 149.346 95.5902 150.225 97.0083C150.709 97.7898 150.638 98.2906 150.065 98.9973C142.31 108.582 133.615 117.174 123.947 124.733C115.877 121.686 107.676 118.265 99.4552 114.502C90.9435 110.608 82.7185 106.485 74.9024 102.222C75.1092 102.007 75.2925 101.754 75.4382 101.454C77.0879 95.5762 79.2311 89.7917 81.8678 84.0962C82.0746 83.7218 85.2424 78.0075 88.7298 72.1481C89.2938 72.1902 91.6908 67.4868 91.5733 67.4775C92.847 65.4417 94.0643 63.5744 95.103 62.1376C98.7361 57.3359 102.797 52.8431 107.191 48.6264C107.657 48.1818 108.169 47.7794 108.597 47.2973C109.151 46.6796 109.697 46.1647 110.275 45.795C111.421 45.0696 112.714 44.9433 114.509 45.8605C117.038 47.1522 119.924 46.586 122.471 45.2381C122.659 45.1398 122.828 45.0696 122.993 45.0182C123.698 45.3224 124.398 45.6312 125.103 45.9401C129.07 49.4969 132.75 53.269 136.153 57.2563C142.517 64.7163 147.898 72.9156 152.269 81.8685C152.514 82.3692 152.546 83.469 152.283 83.6235C152.269 83.6328 152.255 83.6516 152.241 83.6749C151.799 84.1898 148.133 88.5468 148.782 92.4546ZM112.197 35.8594C112.159 32.9344 114.58 30.4493 117.484 30.4212C120.591 30.3932 122.974 32.7472 122.955 35.8219C122.936 38.8218 120.629 41.1478 117.611 41.2086C114.758 41.2648 112.235 38.775 112.197 35.8594ZM70.7241 11.1396C73.7509 11.1817 75.9834 13.4749 75.9928 16.545C75.9975 19.4607 73.5394 21.9223 70.6254 21.9177C67.7161 21.913 65.2674 19.4513 65.2721 16.5357C65.2768 13.4047 67.6127 11.0928 70.7241 11.1396ZM25.6981 68.5117C10.1082 54.4062 3.11932 42.2055 6.49392 34.8906C9.02252 29.4057 17.4449 26.5368 30.3182 26.5368C35.1122 26.5368 40.5313 26.9346 46.4862 27.7443C48.7234 28.0485 51.017 28.4088 53.3529 28.8207C53.2213 28.9657 53.0803 29.1108 52.9487 29.2606C52.4129 29.8643 52.1591 31.2028 52.4552 31.9235C52.7607 32.6676 53.8746 33.4632 54.683 33.5194C55.4914 33.5755 56.5254 32.911 57.174 32.2792C57.9448 31.5304 58.6968 30.7629 59.4488 29.9953C60.9951 28.4135 62.5085 26.8083 64.0219 25.2358C64.271 25.2919 64.5154 25.3481 64.7645 25.4043C67.0299 26.7474 69.2389 27.2529 71.5231 27.0376C72.1106 26.9814 72.7028 26.8831 73.2997 26.7334C76.4299 25.9612 78.653 23.9722 80.2463 21.2812C89.4583 23.9301 98.0546 27.6039 106.219 32.2932C106.98 32.7285 107.154 33.1637 107.121 34.081C107.065 35.5926 107.102 37.1745 107.445 38.644C107.492 38.8405 107.544 39.0418 107.6 39.2337C107.976 40.5113 107.666 41.101 106.787 41.8732C106.12 42.4582 105.462 43.0526 104.809 43.6516C99.9017 48.1538 95.4226 53.0537 91.3712 58.3421L91.3618 58.3374C91.3618 58.3374 91.014 58.782 90.4218 59.5776C90.2338 59.821 90.0505 60.0269 89.8578 60.1907C89.886 60.2048 89.9095 60.2188 89.9377 60.2328C88.8097 61.7679 87.1177 64.15 85.2283 67.075C84.7912 67.0516 83.823 69.8689 82.2908 71.8252C80.674 74.5723 79.0431 77.5722 77.6002 80.6704L77.6049 80.6751C74.6721 86.8527 72.2845 93.2081 70.4421 99.7414C60.2666 93.9944 50.8478 88.0133 42.4677 81.9621C43.638 80.544 44.2255 78.8124 44.5263 76.8094C44.8788 74.446 44.437 71.2168 42.322 68.7224C41.7392 68.0344 41.1188 67.2388 40.3386 66.7708C39.314 66.1577 39.2858 65.4885 39.5772 64.4729C41.6405 57.2376 44.6015 50.4002 48.5213 43.9652C49.6211 42.1587 49.4049 40.7547 47.9808 39.8514C46.4768 38.9014 45.1467 39.3787 43.9717 41.3022C39.8639 48.0274 36.682 55.1644 34.6375 62.7694C34.285 64.0798 33.7492 64.6461 32.3439 64.8333C29.4581 65.2264 27.2585 66.49 25.6981 68.5117ZM28.6168 75.1339C28.645 73.9874 29.0586 72.9109 29.726 72.0358C30.7083 70.7394 32.2452 69.8783 33.9184 69.8736C36.9922 69.8689 39.3328 72.2558 39.2999 75.3633C39.2858 76.6877 38.8534 77.853 38.1249 78.7516C37.1332 79.9778 35.5869 80.7125 33.7774 80.6704C30.8681 80.6002 28.5463 78.1104 28.6168 75.1339ZM70.7335 160.315C67.7443 160.371 65.258 157.904 65.2627 154.886C65.2674 151.956 67.6973 149.494 70.5925 149.48C73.4548 149.466 75.9552 151.951 75.9928 154.848C76.0351 157.797 73.6616 160.263 70.7335 160.315ZM78.7188 148.02C77.29 146.158 75.2784 145.095 72.9942 144.473C72.4819 144.332 71.7675 143.687 71.7252 143.223C70.9732 134.762 71.0813 126.455 72.0683 118.307C72.3174 114.979 67.9182 113.945 66.7761 117.886C65.7985 125.79 65.6246 133.737 66.3296 141.721C66.5364 144.066 66.3719 145.853 63.3357 146.607C46.411 129.955 37.8335 109.546 36.4611 85.9073C36.8512 85.7108 37.2225 85.5376 37.5797 85.3691C54.0579 97.4669 74.6063 109.317 97.0911 119.608C104.301 122.907 111.506 125.949 118.622 128.715C118.283 128.959 117.945 129.207 117.602 129.45C106.298 137.429 94.1301 143.785 81.1769 148.68C80.0771 149.097 79.4755 149.003 78.7188 148.02ZM154.525 157.067C154.633 158.073 154.398 158.508 153.515 158.925C129.493 170.199 105.499 170.175 81.5153 158.822C81.3085 158.723 81.1205 158.583 80.8996 158.452C81.0312 157.291 81.0124 156.098 81.3461 155.017C81.52 154.46 82.2485 153.898 82.8548 153.669C92.095 150.196 100.983 145.994 109.48 140.977C114.711 137.883 119.726 134.537 124.525 130.948C138.094 135.955 151.263 139.905 163.479 142.62C163.46 142.91 163.446 143.205 163.432 143.495C163.399 144.042 162.778 144.838 162.257 145.02C156.767 146.935 153.9 151.264 154.525 157.067ZM165.091 160.736C162.106 160.764 159.705 158.433 159.676 155.476C159.648 152.326 161.928 150.014 165.048 150.023C168.099 150.033 170.345 152.279 170.378 155.344C170.411 158.312 168.061 160.708 165.091 160.736ZM172.503 145.807C171.957 146.307 171.487 147.009 170.599 146.284C169.786 145.619 168.508 145.652 168.672 143.869C168.677 143.818 168.682 143.761 168.686 143.71L169.208 143.813V143.808C170.735 144.108 172.244 144.384 173.734 144.641C173.33 145.034 172.921 145.423 172.503 145.807ZM178.439 139.713C175.511 139.273 172.503 138.745 169.424 138.131L168.874 138.014L169.043 132.829C168.653 126.867 163.648 127.597 163.474 132.829C163.427 134.238 163.403 135.6 163.399 136.835L163.197 136.793C152.64 134.373 141.365 131.032 129.737 126.867C138.493 119.734 146.483 111.718 153.707 102.826C154.549 101.791 155.207 101.295 156.588 101.922C157.561 102.367 158.755 102.329 160.222 102.573C161.016 106.612 161.829 110.674 162.609 114.736C162.858 116.047 163.14 117.277 164.691 117.656C166.604 118.124 168.259 116.758 167.906 114.694C167.21 110.608 166.308 106.56 165.471 102.503C165.274 101.548 164.926 100.729 166.087 99.9567C167.234 99.1938 167.723 100.069 168.357 100.504C176.206 105.905 183.458 112.012 190.24 118.686C191.105 119.538 191.195 120.174 190.678 121.241C187.397 127.99 183.327 134.153 178.439 139.713ZM220.668 132.885C217.406 139.952 204.364 142.68 184.633 140.518C194.137 128.907 200.223 115.546 202.653 100.354C217.406 113.997 223.958 125.762 220.668 132.885Z" fill="#E9AE3D"/>
</svg>
