<svg width="48" height="48" viewBox="0 0 48 48" fill="none" xmlns="http://www.w3.org/2000/svg">
<path d="M48 6.03037L46.0198 4L37.8636 12.3654H33.0484L19.1848 26.5802L11.9621 19.1744L0 31.437L1.98019 33.4674L11.9621 23.2302L19.1848 30.6359L34.2123 15.2277H39.0275L48 6.03037Z" fill="url(#paint0_linear_1700_25665)"/>
<path d="M10.6044 30.8028H13.04V33.4422H10.6044V30.8028ZM13.04 33.4422H15.4755V36.0817H13.04V33.4422ZM10.6044 36.0817H13.04V38.7211H10.6044V36.0817ZM15.4755 36.0817H17.9111V38.7211H15.4755V36.0817ZM13.04 38.7211H15.4755V41.3606H13.04V38.7211ZM10.6044 41.3606H13.04V44H10.6044V41.3606ZM15.4755 41.3606H17.9111V44H15.4755V41.3606ZM8.16886 33.4422H10.6044V36.0817H8.16886V33.4422ZM5.7333 36.0817H8.16886V38.7211H5.7333V36.0817ZM3.29774 38.7211H5.7333V41.3606H3.29774V38.7211ZM8.16886 38.7211H10.6044V41.3606H8.16886V38.7211ZM5.7333 41.3606H8.16886V44H5.7333V41.3606ZM0.862183 41.3606H3.29774V44H0.862183V41.3606ZM42.2667 17.6055H44.7022V20.245H42.2667V17.6055ZM44.7022 14.9661H47.1378V17.6055H44.7022V14.9661ZM44.7022 20.245H47.1378V22.8844H44.7022V20.245ZM42.2667 22.8844H44.7022V25.5239H42.2667V22.8844ZM39.8311 25.5239H42.2667V28.1633H39.8311V25.5239ZM44.7022 25.5239H47.1378V28.1633H44.7022V25.5239ZM42.2667 28.1633H44.7022V30.8028H42.2667V28.1633ZM39.8311 30.8028H42.2667V33.4422H39.8311V30.8028ZM44.7022 30.8028H47.1378V33.4422H44.7022V30.8028ZM42.2667 33.4422H44.7022V36.0817H42.2667V33.4422ZM39.8311 36.0817H42.2667V38.7211H39.8311V36.0817ZM44.7022 36.0817H47.1378V38.7211H44.7022V36.0817ZM42.2667 38.7211H44.7022V41.3606H42.2667V38.7211ZM39.8311 41.3606H42.2667V44H39.8311V41.3606ZM44.7022 41.3606H47.1378V44H44.7022V41.3606ZM32.5244 22.8844H34.96V25.5239H32.5244V22.8844ZM37.3956 22.8844H39.8311V25.5239H37.3956V22.8844ZM39.8311 20.245H42.2667V22.8844H39.8311V20.245ZM34.96 25.5239H37.3956V28.1633H34.96V25.5239ZM32.5244 28.1633H34.96V30.8028H32.5244V28.1633ZM37.3956 28.1633H39.8311V30.8028H37.3956V28.1633ZM34.96 30.8028H37.3956V33.4422H34.96V30.8028ZM32.5244 33.4422H34.96V36.0817H32.5244V33.4422ZM37.3956 33.4422H39.8311V36.0817H37.3956V33.4422ZM34.96 36.0817H37.3956V38.7211H34.96V36.0817ZM32.5244 38.7211H34.96V41.3606H32.5244V38.7211ZM37.3956 38.7211H39.8311V41.3606H37.3956V38.7211ZM34.96 41.3606H37.3956V44H34.96V41.3606ZM30.0889 25.5239H32.5244V28.1633H30.0889V25.5239ZM27.6533 28.1633H30.0889V30.8028H27.6533V28.1633ZM25.2178 30.8028H27.6533V33.4422H25.2178V30.8028ZM30.0889 30.8028H32.5244V33.4422H30.0889V30.8028ZM27.6533 33.4422H30.0889V36.0817H27.6533V33.4422ZM25.2178 36.0817H27.6533V38.7211H25.2178V36.0817ZM30.0889 36.0817H32.5244V38.7211H30.0889V36.0817ZM27.6533 38.7211H30.0889V41.3606H27.6533V38.7211ZM25.2178 41.3606H27.6533V44H25.2178V41.3606ZM30.0889 41.3606H32.5244V44H30.0889V41.3606ZM22.7822 33.4422H25.2178V36.0817H22.7822V33.4422ZM20.3467 36.0817H22.7822V38.7211H20.3467V36.0817ZM17.9111 38.7211H20.3467V41.3606H17.9111V38.7211ZM22.7822 38.7211H25.2178V41.3606H22.7822V38.7211ZM20.3467 41.3606H22.7822V44H20.3467V41.3606Z" fill="url(#paint1_linear_1700_25665)"/>
<defs>
<linearGradient id="paint0_linear_1700_25665" x1="0" y1="24" x2="48" y2="24" gradientUnits="userSpaceOnUse">
<stop offset="0.0625" stop-color="#C7863D"/>
<stop offset="0.5" stop-color="#FFCE6F"/>
<stop offset="0.9375" stop-color="#C7863D"/>
</linearGradient>
<linearGradient id="paint1_linear_1700_25665" x1="0" y1="24" x2="48" y2="24" gradientUnits="userSpaceOnUse">
<stop offset="0.0625" stop-color="#C7863D"/>
<stop offset="0.5" stop-color="#FFCE6F"/>
<stop offset="0.9375" stop-color="#C7863D"/>
</linearGradient>
</defs>
</svg>
