<svg width="48" height="48" viewBox="0 0 48 48" fill="none" xmlns="http://www.w3.org/2000/svg">
<g clip-path="url(#clip0_1700_25667)">
<path d="M39.5676 26.8928C41.0368 24.2843 42.4594 21.7601 43.9098 19.1841C45.3641 21.7662 46.7858 24.2914 48.25 26.8928C47.3079 26.8928 46.4559 26.907 45.6048 26.8846C45.3096 26.8765 45.2115 26.9872 45.1541 27.2666C43.7691 33.9787 40.155 39.0251 34.3129 42.3578C26.3666 46.8911 16.0217 45.4731 9.44452 39.0088C7.19564 36.7985 5.47382 34.2306 4.28895 31.2798C4.12449 30.8715 3.97391 30.4611 4.08684 30.004C4.2513 29.3397 4.76646 28.8694 5.40546 28.8126C6.13263 28.7486 6.72308 29.1122 6.99948 29.8334C7.50078 31.1447 8.11302 32.3982 8.89865 33.5531C12.0926 38.248 16.4368 41.1145 21.9996 41.7107C29.2406 42.4868 35.0252 39.7026 39.2961 33.6679C40.6464 31.7593 41.5044 29.6008 42.0453 27.3082C42.1305 26.9476 42.0225 26.8765 41.6956 26.8856C41.0189 26.907 40.3423 26.8928 39.5676 26.8928Z" fill="url(#paint0_linear_1700_25667)"/>
<path d="M8.93343 19.1882C7.46621 21.7926 6.04952 24.3066 4.59221 26.8958C3.13589 24.3096 1.71524 21.7895 0.25 19.1882C1.18819 19.1882 2.0382 19.175 2.88822 19.1953C3.17651 19.2024 3.28747 19.1079 3.34691 18.8215C4.73091 12.0849 8.31326 6.93194 14.2406 3.72313C21.226 -0.0585586 28.2975 0.124279 35.1779 4.11116C39.3963 6.5561 42.3505 10.2169 44.219 14.8001C44.5152 15.5273 44.5875 16.213 44.0099 16.8224C43.2342 17.6401 41.9305 17.3405 41.5025 16.2424C41.0111 14.9819 40.4306 13.7711 39.6816 12.6507C36.4787 7.86035 32.084 5.01316 26.4489 4.34783C17.1502 3.24979 8.6917 9.36774 6.48147 18.6864C6.3824 19.1059 6.45174 19.2156 6.86883 19.1963C7.52467 19.1648 8.18348 19.1882 8.93343 19.1882Z" fill="url(#paint1_linear_1700_25667)"/>
<path d="M37.118 14.1497L27.843 13.1084L27.8373 13.1078C27.7424 13.0988 27.6489 13.1238 27.5687 13.1759C27.4889 13.2278 27.4267 13.3036 27.3865 13.3905C27.3462 13.4774 27.3284 13.5742 27.334 13.6699C27.3396 13.7658 27.3688 13.8603 27.4215 13.9409L29.78 17.4731L24.0913 22.9854L21.9629 19.7944L21.9606 19.7909C21.8876 19.6839 21.7768 19.6106 21.6495 19.5964C21.5223 19.5821 21.3991 19.6292 21.3061 19.7176L11.188 29.6053C11.0976 29.6947 11.0416 29.8186 11.0286 29.9455C11.0156 30.0724 11.0438 30.2038 11.114 30.3112L12.5479 32.4512L12.5498 32.4539C12.6227 32.5609 12.7335 32.6342 12.8608 32.6484C12.9881 32.6627 13.1112 32.6156 13.2042 32.5272L21.1195 24.8469L23.243 28.0305L23.2454 28.034C23.3183 28.141 23.4291 28.2143 23.5564 28.2285C23.6837 28.2428 23.8068 28.1957 23.8998 28.1073L23.9026 28.1045L37.3527 15.0587L37.3555 15.0559C37.4233 14.9888 37.471 14.9029 37.4959 14.8105C37.5208 14.7181 37.523 14.6195 37.5013 14.5258C37.4796 14.4321 37.4342 14.3442 37.3667 14.2758C37.2989 14.207 37.2125 14.1619 37.118 14.1497Z" fill="url(#paint2_linear_1700_25667)"/>
</g>
<defs>
<linearGradient id="paint0_linear_1700_25667" x1="0.25" y1="23" x2="48.25" y2="23" gradientUnits="userSpaceOnUse">
<stop offset="0.0625" stop-color="#C7863D"/>
<stop offset="0.5" stop-color="#FFCE6F"/>
<stop offset="0.9375" stop-color="#C7863D"/>
</linearGradient>
<linearGradient id="paint1_linear_1700_25667" x1="0.25" y1="23" x2="48.25" y2="23" gradientUnits="userSpaceOnUse">
<stop offset="0.0625" stop-color="#C7863D"/>
<stop offset="0.5" stop-color="#FFCE6F"/>
<stop offset="0.9375" stop-color="#C7863D"/>
</linearGradient>
<linearGradient id="paint2_linear_1700_25667" x1="0.25" y1="23" x2="48.25" y2="23" gradientUnits="userSpaceOnUse">
<stop offset="0.0625" stop-color="#C7863D"/>
<stop offset="0.5" stop-color="#FFCE6F"/>
<stop offset="0.9375" stop-color="#C7863D"/>
</linearGradient>
<clipPath id="clip0_1700_25667">
<rect width="48" height="48" fill="white"/>
</clipPath>
</defs>
</svg>
