<svg width="166" height="200" viewBox="0 0 166 200" fill="none" xmlns="http://www.w3.org/2000/svg">
<g clip-path="url(#clip0_1700_25611)">
<path d="M116.757 65.1827C99.3002 48.3426 80.0208 34.1016 56.521 25.416C56.854 27.1033 57.1253 28.5039 57.4107 29.8998C57.6915 31.2628 57.9817 32.6164 58.2957 34.0828C56.3354 34.4964 54.5607 34.8724 52.6099 35.2813C51.606 30.5719 50.5735 26.0035 49.698 21.4116C49.4125 19.9217 50.2071 18.6903 51.7487 18.3378C56.7684 17.1863 61.8119 16.1382 67.0885 14.9961C67.4977 16.9513 67.8736 18.7373 68.2732 20.622C66.6365 20.9933 65.2139 21.3176 63.8911 21.6184C71.4754 25.5711 79.0977 29.5426 86.7105 33.5094C86.3584 32.8326 85.9445 32.0289 85.3973 30.9855C87.9809 29.6084 90.5597 28.2313 93.2575 26.7931C94.1377 28.5368 94.9799 30.1959 95.8601 31.9396C93.6667 33.1052 91.5827 34.2097 89.2132 35.4693C100.751 43.0786 111.219 51.6561 120.878 61.1689C119.503 62.5131 118.204 63.7774 116.757 65.1827Z" fill="#FF6600"/>
<path d="M146.962 66.5598C151.568 65.2579 155.883 63.9842 160.232 62.8327C162.192 62.311 163.548 62.9502 164.091 64.6986C165.58 69.5067 166.936 74.3571 168.416 79.4331C166.494 79.9689 164.709 80.4671 162.825 80.9935C162.311 79.3015 161.85 77.7975 161.25 75.8188C152.457 98.783 138.445 117.874 121.607 135.184C120.327 133.756 119.09 132.374 117.738 130.87C134.629 113.353 149.084 93.7352 157.211 69.6853C154.142 70.5266 151.434 71.2739 148.556 72.0635C148.018 70.2117 147.519 68.4915 146.962 66.5598Z" fill="#FF6600"/>
<path d="M104.135 185.011C103.574 183.099 103.089 181.425 102.537 179.55C104.207 179.024 105.796 178.521 107.737 177.91C84.5182 169.257 65.196 155.383 47.5391 138.637C48.9903 137.41 50.3796 136.24 51.9783 134.891C60.6331 143.031 70.0825 150.936 80.4882 157.643C90.8607 164.331 101.699 170.098 113.956 173.84C113.142 170.963 112.395 168.303 111.572 165.389C113.38 164.877 115.165 164.374 117.182 163.805C118.505 168.5 119.856 173.031 121.036 177.609C121.421 179.108 120.522 180.293 119.057 180.73C114.18 182.191 109.274 183.55 104.135 185.011Z" fill="#FF6600"/>
<path d="M8.66738 126.46C11.741 125.83 14.4579 125.271 17.3602 124.679C17.7837 126.535 18.1786 128.279 18.6259 130.234C16.7179 130.657 14.9004 131.075 13.0733 131.465C10.404 132.039 7.73481 132.608 5.06081 133.143C3.35269 133.486 2.09182 132.819 1.47804 131.296C1.32578 130.916 1.22586 130.511 1.14022 130.112C0.141041 125.478 -0.853381 120.843 -1.89062 116.012C0.031607 115.603 1.80158 115.222 3.75712 114.809C4.12824 116.383 4.4613 117.821 4.90856 119.725C14.396 97.7806 28.2751 79.3754 44.8615 62.7891C46.2508 64.185 47.5355 65.4681 48.9391 66.8781C40.4746 75.4415 32.524 84.5219 25.6487 94.4812C18.7924 104.398 12.8877 114.799 8.66738 126.46Z" fill="#FF6600"/>
<path d="M123.641 181.929C123.931 180.175 124.221 178.408 124.44 177.059C128.042 177.059 131.415 177.106 134.779 177.05C140.974 176.942 146.803 175.522 151.827 171.786C157.303 167.711 160.035 162.029 161.019 155.468C162.39 146.368 160.715 137.589 157.922 128.969C156.771 125.411 155.362 121.933 154.025 118.295C155.691 117.571 157.361 116.843 159.359 115.969C160.891 120.147 162.542 124.213 163.87 128.381C165.977 135.008 167.31 141.809 167.333 148.784C167.367 157.771 165.406 166.141 159.069 173.017C155.205 177.21 150.404 179.851 144.899 181.379C138.919 183.042 128.722 183.39 123.641 181.929Z" fill="#FF6600"/>
<path d="M101.042 29.2428C100.3 27.5837 99.5623 25.9387 98.7344 24.101C100.466 23.396 102.127 22.6816 103.816 22.0424C112.97 18.5879 122.339 16.1157 132.226 16.1016C141.29 16.0922 149.664 18.1226 156.554 24.3501C160.788 28.1806 163.429 32.9605 164.942 38.3984C166.855 45.2604 166.698 52.1647 165.594 59.257C163.705 58.9656 161.959 58.7024 159.965 58.3969C160.07 57.3018 160.184 56.2255 160.279 55.1445C160.855 48.6491 160.693 42.243 157.957 36.1424C154.498 28.4109 148.284 24.1621 140.096 22.5782C130.232 20.6653 120.716 22.5829 111.348 25.5298C107.917 26.6061 104.568 27.9597 101.042 29.2428Z" fill="#FF6600"/>
<path d="M-0.893119 140.078C1.07669 140.421 2.82288 140.727 4.77366 141.07C4.57858 142.752 4.35971 144.36 4.21697 145.972C3.71262 151.819 3.96004 157.614 6.22485 163.122C9.80762 171.827 16.7115 176.353 25.8611 177.72C29.1822 178.214 32.5794 178.181 36.1003 178.397C36.2526 180.066 36.4096 181.847 36.5856 183.755C31.5231 184.366 26.6938 183.957 21.9548 182.839C6.2534 179.135 -1.44029 166.934 -1.74004 152.148C-1.78762 149.92 -1.74004 147.683 -1.59255 145.46C-1.48311 143.711 -1.15005 141.982 -0.893119 140.078Z" fill="#FF6600"/>
<path d="M43.6499 15.9505C43.3216 17.807 43.0076 19.5695 42.665 21.5153C40.9236 21.3273 39.2964 21.1111 37.6596 20.9795C30.6939 20.4202 23.8614 20.8385 17.5809 24.2554C10.087 28.3256 6.53277 34.9808 5.45746 43.0742C5.05303 46.1339 5.07682 49.2453 4.89602 52.4742C3.14983 52.6246 1.34655 52.7797 -0.447214 52.9301C-2.47888 35.1077 6.08552 18.2159 26.4973 15.4711C32.1832 14.705 37.8452 14.987 43.6499 15.9505Z" fill="#FF6600"/>
<path d="M73.827 165.578C74.7691 167.284 75.635 168.863 76.6104 170.631C73.2846 172.285 70.0872 173.874 66.6852 175.561C65.8431 173.756 65.0723 172.092 64.2539 170.335C67.4418 168.746 70.544 167.204 73.827 165.578Z" fill="#FF6600"/>
<path d="M21.9062 107.988C23.5811 106.85 25.0846 105.83 26.7071 104.73C28.8101 107.583 30.8656 110.366 33.0447 113.317C31.5079 114.497 30.0329 115.63 28.4342 116.861C26.2503 113.886 24.1568 111.043 21.9062 107.988Z" fill="#FF6600"/>
<path d="M52.725 62.7486C51.3927 61.3668 50.1319 60.0602 48.7188 58.5938C51.4498 56.1404 54.1048 53.7622 56.9168 51.2383C58.211 52.7235 59.429 54.1194 60.7279 55.6093C58.0302 58.0157 55.437 60.3281 52.725 62.7486Z" fill="#FF6600"/>
<path d="M12.867 93.2724C11.1779 89.9542 9.5697 86.7911 7.87109 83.4447C9.69817 82.6175 11.392 81.8467 13.162 81.043C14.7607 84.192 16.3261 87.2658 17.9723 90.4994C16.3356 91.3877 14.7036 92.276 12.867 93.2724Z" fill="#FF6600"/>
<path d="M134.297 85.7359C135.829 84.575 137.275 83.4799 138.917 82.2344C141.091 85.2095 143.223 88.1141 145.416 91.1127C143.808 92.1937 142.3 93.2042 140.601 94.3416C138.489 91.4605 136.428 88.6499 134.297 85.7359Z" fill="#FF6600"/>
<path d="M96.5774 150.477C97.7907 152.009 98.9374 153.461 100.16 155.012C97.1674 157.169 94.3031 159.233 91.2056 161.465C90.1065 159.905 89.0455 158.405 87.875 156.742C90.7726 154.655 93.6132 152.61 96.5774 150.477Z" fill="#FF6600"/>
<path d="M108.6 147.955C107.249 146.418 106.093 145.097 104.789 143.616C107.425 141.224 110.018 138.874 112.587 136.543C113.972 137.84 115.333 139.109 116.832 140.51C114.058 143.015 111.407 145.412 108.6 147.955Z" fill="#FF6600"/>
<path d="M68.9775 48.8136C67.7594 47.2391 66.6508 45.8056 65.4375 44.2358C68.4636 42.0738 71.3802 39.987 74.4158 37.8203C75.5245 39.4277 76.5569 40.9176 77.6989 42.5767C74.8155 44.64 71.9893 46.661 68.9775 48.8136Z" fill="#FF6600"/>
<path d="M127.628 77.319C125.183 74.6541 122.847 72.1161 120.387 69.4418C121.805 68.107 123.161 66.8286 124.617 65.4609C127.1 68.1775 129.503 70.8095 132.049 73.5872C130.559 74.8468 129.146 76.0359 127.628 77.319Z" fill="#FF6600"/>
<path d="M39.7819 121.66C42.2561 124.33 44.6065 126.872 46.9475 129.401C45.6295 130.769 44.3306 132.118 42.9222 133.579C40.3862 130.835 37.9596 128.207 35.4141 125.462C36.87 124.189 38.2356 123.004 39.7819 121.66Z" fill="#FF6600"/>
<path d="M9.27936 71.1111C7.43326 71.7362 5.72038 72.319 3.78863 72.9723C2.88461 69.8844 2.02341 66.9375 1.12891 63.859C3.12727 63.3937 4.89724 62.9848 6.79568 62.543C7.62358 65.41 8.43244 68.1877 9.27936 71.1111Z" fill="#FF6600"/>
<path d="M54.4586 174.266C55.0867 176.056 55.6624 177.701 56.3571 179.68C53.2787 180.564 50.2716 181.428 47.1313 182.331C46.6555 180.315 46.2416 178.571 45.8086 176.733C48.6967 175.911 51.4563 175.121 54.4586 174.266Z" fill="#FF6600"/>
<path d="M156.453 109.951C154.882 110.736 153.517 111.422 152.142 112.095C151.885 112.221 151.599 112.301 151.219 112.438C150.862 111.798 150.524 111.192 150.196 110.586C149.254 108.847 148.316 107.108 147.312 105.247C149.011 104.288 150.586 103.4 152.361 102.398C153.726 104.918 155.049 107.366 156.453 109.951Z" fill="#FF6600"/>
<path d="M115.483 121.408C114.607 122.982 113.275 123.494 111.453 123.49C94.6667 123.438 77.8757 123.461 61.0895 123.457C58.0586 123.457 57.088 122.517 57.1118 119.518C57.1546 115.133 56.9024 110.71 57.3735 106.368C58.2014 98.8147 62.4503 93.4473 69.3018 90.0633C69.5206 89.9552 69.7348 89.8377 70.0773 89.6591C66.9418 84.5643 66.0473 79.1452 67.8363 73.43C69.1353 69.2846 71.6665 65.9758 75.254 63.4942C82.372 58.5733 92.1069 59.0433 98.6491 64.4624C105.049 69.764 108.512 79.8173 102.546 89.692C105.639 91.0785 108.346 92.982 110.53 95.567C112.99 98.4763 114.546 101.794 115.193 105.526C115.25 105.851 115.378 106.161 115.478 106.48C115.483 111.453 115.483 116.43 115.483 121.408ZM109.516 117.554C109.516 114.141 109.688 110.875 109.478 107.627C109.093 101.729 104.858 96.5352 99.182 94.7774C98.5873 94.5941 97.7023 94.6834 97.1741 95.003C89.9087 99.4304 82.6908 99.4304 75.4253 95.003C74.8972 94.6834 74.0074 94.58 73.4175 94.7774C68.5024 96.4177 65.2051 99.7406 63.7016 104.624C62.3979 108.844 63.2353 113.206 63.026 117.558C78.6084 117.554 93.9863 117.554 109.516 117.554ZM86.4639 65.9241C79.1746 65.7737 73.0511 71.6346 72.8703 78.9337C72.6895 86.1153 78.6988 92.2958 85.9881 92.418C93.4391 92.5449 99.5722 86.7357 99.734 79.4037C99.8957 72.1328 93.934 66.0745 86.4639 65.9241Z" fill="#FF6600"/>
</g>
<defs>
<clipPath id="clip0_1700_25611">
<rect width="166" height="200" fill="white"/>
</clipPath>
</defs>
</svg>
