<svg width="30" height="48" viewBox="0 0 30 48" fill="none" xmlns="http://www.w3.org/2000/svg">
<path d="M29.9061 29.984C29.8509 29.7015 29.7007 29.4461 29.4811 29.2599C29.3345 29.1377 25.8611 26.2734 21.9008 28.6295C19.001 30.3522 18.6621 33.1843 18.7026 34.658C17.6996 35.2404 16.8934 35.8696 16.2559 36.5076V25.1992C22.5937 24.5633 27.5592 19.1705 27.5592 12.6316C27.5592 5.66632 21.9253 0 15 0C8.07462 0 2.44075 5.66632 2.44075 12.6316C2.44075 15.0154 3.11164 17.3413 4.38167 19.3581C4.7533 19.9465 5.52844 20.1217 6.11469 19.7492C6.70034 19.376 6.8745 18.5958 6.50349 18.0062C5.48919 16.3951 4.9526 14.5362 4.9526 12.6316C4.9526 7.05963 9.45994 2.52632 15 2.52632C20.54 2.52632 25.0474 7.05963 25.0474 12.6316C25.0474 18.2035 20.54 22.7368 15 22.7368C13.1063 22.7368 11.258 22.1972 9.65618 21.177C9.06991 20.802 8.29479 20.979 7.92316 21.5681C7.55215 22.1577 7.7263 22.9379 8.31195 23.3111C9.96013 24.3609 11.8194 24.9782 13.7441 25.1739V33.9813C13.1065 33.3432 12.3004 32.714 11.2974 32.1317C11.3379 30.658 10.9991 27.8259 8.09978 26.1032C4.13761 23.7502 0.664814 26.6127 0.518863 26.7335C0.299328 26.9198 0.149082 27.1752 0.0938839 27.4576C0.0570853 27.6464 -0.760973 32.0859 3.20249 34.4421C5.31396 35.6951 7.99606 35.6087 10.0576 34.3235C13.5994 36.3845 13.7394 39.0234 13.7441 39.1727V45.4737H11.2322C10.5386 45.4737 9.9763 46.0387 9.9763 46.7368C9.9763 47.435 10.5386 48 11.2322 48H18.7678C19.4613 48 20.0237 47.435 20.0237 46.7368C20.0237 46.0387 19.4613 45.4737 18.7678 45.4737H16.2559V41.7015C16.2588 41.5825 16.3792 38.9252 19.939 36.8518C21.9829 38.1253 24.7297 38.1955 26.7982 36.9683C30.761 34.6123 29.9429 30.1727 29.9061 29.984ZM4.47979 32.266C2.62903 31.1657 2.47449 29.2784 2.5125 28.4075C3.25637 27.9523 4.97223 27.1789 6.82238 28.2792C8.67376 29.3783 8.82769 31.2669 8.78967 32.1378C8.05132 32.5905 6.33239 33.3701 4.47979 32.266ZM25.5202 34.7924C23.6688 35.8952 21.9499 35.118 21.2103 34.6628C21.1723 33.7944 21.3256 31.9058 23.1782 30.8055C25.0314 29.704 26.7485 30.4799 27.4874 30.9338C27.5255 31.8022 27.3728 33.692 25.5202 34.7924Z" fill="url(#paint0_linear_1700_25669)"/>
<path fill-rule="evenodd" clip-rule="evenodd" d="M13.7209 4.5H16.2791V6.08664C18.2769 6.49747 20 7.86432 20 9.8012V10.0904H17.4419V9.8012C17.4419 9.15128 16.6039 8.24833 15 8.24833C13.3961 8.24833 12.5581 9.15128 12.5581 9.8012C12.5581 10.0666 12.6897 10.3297 13.1527 10.6248C13.645 10.9386 14.3907 11.1975 15.2888 11.3836C16.2984 11.5928 17.4077 11.9382 18.2951 12.4981C19.1991 13.0685 20 13.9547 20 15.1988C20 17.1357 18.2769 18.5025 16.2791 18.9134V20.5H13.7209V18.9134C11.7231 18.5025 10 17.1357 10 15.1988V14.9096H12.5581V15.1988C12.5581 15.8487 13.3961 16.7517 15 16.7517C16.6039 16.7517 17.4419 15.8487 17.4419 15.1988C17.4419 14.9502 17.3098 14.6802 16.8211 14.3719C16.3133 14.0515 15.5622 13.7927 14.7112 13.6164C13.6656 13.3997 12.5509 13.0545 11.6687 12.4923C10.7596 11.9128 10 11.0284 10 9.8012C10 7.86432 11.7231 6.49747 13.7209 6.08664V4.5Z" fill="url(#paint1_linear_1700_25669)"/>
<defs>
<linearGradient id="paint0_linear_1700_25669" x1="0" y1="24" x2="30" y2="24" gradientUnits="userSpaceOnUse">
<stop offset="0.0625" stop-color="#C7863D"/>
<stop offset="0.5" stop-color="#FFCE6F"/>
<stop offset="0.9375" stop-color="#C7863D"/>
</linearGradient>
<linearGradient id="paint1_linear_1700_25669" x1="0" y1="24" x2="30" y2="24" gradientUnits="userSpaceOnUse">
<stop offset="0.0625" stop-color="#C7863D"/>
<stop offset="0.5" stop-color="#FFCE6F"/>
<stop offset="0.9375" stop-color="#C7863D"/>
</linearGradient>
</defs>
</svg>
