<svg width="16" height="16" viewBox="0 0 16 16" fill="none" xmlns="http://www.w3.org/2000/svg">
<path d="M5.63985 8.47339L9.41318 12.2401C9.47516 12.3025 9.54889 12.3521 9.63013 12.386C9.71137 12.4198 9.79851 12.4373 9.88652 12.4373C9.97452 12.4373 10.0617 12.4198 10.1429 12.386C10.2241 12.3521 10.2979 12.3025 10.3598 12.2401C10.484 12.1151 10.5537 11.9462 10.5537 11.7701C10.5537 11.5939 10.484 11.425 10.3598 11.3001L7.05985 7.96672L10.3599 4.66672C10.484 4.54182 10.5537 4.37285 10.5537 4.19672C10.5537 4.0206 10.484 3.85163 10.3599 3.72672C10.2981 3.66373 10.2245 3.61362 10.1432 3.57929C10.062 3.54496 9.97472 3.52709 9.88652 3.52672C9.79831 3.52709 9.71106 3.54496 9.62981 3.57929C9.54856 3.61362 9.47493 3.66373 9.41318 3.72672L5.63985 7.49339C5.57218 7.55582 5.51817 7.63159 5.48124 7.71592C5.4443 7.80025 5.42523 7.89132 5.42523 7.98339C5.42523 8.07546 5.4443 8.16653 5.48124 8.25086C5.51817 8.33519 5.57218 8.41096 5.63985 8.47339Z" fill="#15852B"/>
</svg>
