<svg width="20" height="20" viewBox="0 0 20 20" fill="none" xmlns="http://www.w3.org/2000/svg">
<path fill-rule="evenodd" clip-rule="evenodd" d="M11.2246 4.55806C11.4687 4.31398 11.8644 4.31398 12.1085 4.55806L17.1085 9.55806C17.3526 9.80214 17.3526 10.1979 17.1085 10.4419L12.1085 15.4419C11.8644 15.686 11.4687 15.686 11.2246 15.4419C10.9806 15.1979 10.9806 14.8021 11.2246 14.5581L15.1577 10.625H3.33325C2.98807 10.625 2.70825 10.3452 2.70825 10C2.70825 9.65482 2.98807 9.375 3.33325 9.375H15.1577L11.2246 5.44194C10.9806 5.19786 10.9806 4.80214 11.2246 4.55806Z" fill="url(#paint0_linear_1534_8176)"/>
<defs>
<linearGradient id="paint0_linear_1534_8176" x1="2.70825" y1="10" x2="17.2916" y2="10" gradientUnits="userSpaceOnUse">
<stop offset="0.0625" stop-color="#C7863D"/>
<stop offset="0.5" stop-color="#FFCE6F"/>
<stop offset="0.9375" stop-color="#C7863D"/>
</linearGradient>
</defs>
</svg>
