<svg width="16" height="16" viewBox="0 0 16 16" fill="none" xmlns="http://www.w3.org/2000/svg">
<path d="M10.3602 7.52661L6.58682 3.75994C6.52484 3.69746 6.45111 3.64786 6.36987 3.61402C6.28863 3.58017 6.20149 3.56274 6.11348 3.56274C6.02548 3.56274 5.93834 3.58017 5.8571 3.61402C5.77586 3.64786 5.70213 3.69746 5.64015 3.75994C5.51598 3.88485 5.44629 4.05382 5.44629 4.22994C5.44629 4.40607 5.51598 4.57503 5.64015 4.69994L8.94015 8.03328L5.64015 11.3333C5.51598 11.4582 5.44629 11.6272 5.44629 11.8033C5.44629 11.9794 5.51598 12.1484 5.64015 12.2733C5.70189 12.3363 5.77552 12.3864 5.85677 12.4207C5.93802 12.455 6.02528 12.4729 6.11348 12.4733C6.20169 12.4729 6.28894 12.455 6.37019 12.4207C6.45144 12.3864 6.52507 12.3363 6.58682 12.2733L10.3602 8.50661C10.4278 8.44418 10.4818 8.36841 10.5188 8.28408C10.5557 8.19975 10.5748 8.10868 10.5748 8.01661C10.5748 7.92454 10.5557 7.83347 10.5188 7.74914C10.4818 7.66481 10.4278 7.58904 10.3602 7.52661Z" fill="#15852B"/>
</svg>
