<svg width="20" height="21" viewBox="0 0 20 21" fill="none" xmlns="http://www.w3.org/2000/svg">
<path d="M3.33333 9.50005C2.98815 9.50005 2.70833 9.77987 2.70833 10.125C2.70833 10.4702 2.98815 10.75 3.33333 10.75H11.0417V15.125C11.0417 15.3778 11.1939 15.6057 11.4275 15.7025C11.661 15.7992 11.9299 15.7457 12.1086 15.567L17.1086 10.567C17.2258 10.4498 17.2917 10.2908 17.2917 10.125C17.2917 9.95929 17.2258 9.80032 17.1086 9.68311L12.1086 4.68311C11.9299 4.50436 11.661 4.45089 11.4275 4.54762C11.1939 4.64436 11.0417 4.87226 11.0417 5.12505V9.50005H3.33333Z" fill="#115231"/>
</svg>
