<svg width="20" height="21" viewBox="0 0 20 21" fill="none" xmlns="http://www.w3.org/2000/svg">
<path d="M14.1665 12.1478C14.6267 12.1478 14.9998 11.7747 14.9998 11.3145C14.9998 10.8542 14.6267 10.4811 14.1665 10.4811C13.7063 10.4811 13.3332 10.8542 13.3332 11.3145C13.3332 11.7747 13.7063 12.1478 14.1665 12.1478Z" fill="#1C274C"/>
<path d="M14.1665 15.4811C14.6267 15.4811 14.9998 15.108 14.9998 14.6478C14.9998 14.1875 14.6267 13.8145 14.1665 13.8145C13.7063 13.8145 13.3332 14.1875 13.3332 14.6478C13.3332 15.108 13.7063 15.4811 14.1665 15.4811Z" fill="#1C274C"/>
<path d="M10.8332 11.3145C10.8332 11.7747 10.4601 12.1478 9.99984 12.1478C9.5396 12.1478 9.1665 11.7747 9.1665 11.3145C9.1665 10.8542 9.5396 10.4811 9.99984 10.4811C10.4601 10.4811 10.8332 10.8542 10.8332 11.3145Z" fill="#1C274C"/>
<path d="M10.8332 14.6478C10.8332 15.108 10.4601 15.4811 9.99984 15.4811C9.5396 15.4811 9.1665 15.108 9.1665 14.6478C9.1665 14.1875 9.5396 13.8145 9.99984 13.8145C10.4601 13.8145 10.8332 14.1875 10.8332 14.6478Z" fill="#1C274C"/>
<path d="M5.83317 12.1478C6.29341 12.1478 6.6665 11.7747 6.6665 11.3145C6.6665 10.8542 6.29341 10.4811 5.83317 10.4811C5.37293 10.4811 4.99984 10.8542 4.99984 11.3145C4.99984 11.7747 5.37293 12.1478 5.83317 12.1478Z" fill="#1C274C"/>
<path d="M5.83317 15.4811C6.29341 15.4811 6.6665 15.108 6.6665 14.6478C6.6665 14.1875 6.29341 13.8145 5.83317 13.8145C5.37293 13.8145 4.99984 14.1875 4.99984 14.6478C4.99984 15.108 5.37293 15.4811 5.83317 15.4811Z" fill="#1C274C"/>
<path fill-rule="evenodd" clip-rule="evenodd" d="M5.83317 1.93945C6.17835 1.93945 6.45817 2.21928 6.45817 2.56445V3.20005C7.00984 3.18944 7.61761 3.18945 8.28605 3.18945H11.7135C12.382 3.18945 12.9898 3.18944 13.5415 3.20005V2.56445C13.5415 2.21928 13.8213 1.93945 14.1665 1.93945C14.5117 1.93945 14.7915 2.21928 14.7915 2.56445V3.25369C15.0081 3.27021 15.2133 3.29097 15.4074 3.31707C16.3844 3.44842 17.1752 3.72519 17.7988 4.34882C18.4224 4.97246 18.6992 5.76325 18.8306 6.74027C18.9582 7.68961 18.9582 8.90262 18.9582 10.4341V12.1948C18.9582 13.7262 18.9582 14.9393 18.8306 15.8886C18.6992 16.8657 18.4224 17.6564 17.7988 18.2801C17.1752 18.9037 16.3844 19.1805 15.4074 19.3118C14.458 19.4395 13.245 19.4395 11.7136 19.4395H8.28616C6.75471 19.4395 5.54166 19.4395 4.59232 19.3118C3.6153 19.1805 2.82451 18.9037 2.20087 18.2801C1.57724 17.6564 1.30047 16.8657 1.16912 15.8886C1.04148 14.9393 1.04149 13.7263 1.0415 12.1948V10.4341C1.04149 8.90264 1.04148 7.68961 1.16912 6.74027C1.30047 5.76325 1.57724 4.97246 2.20087 4.34882C2.82451 3.72519 3.6153 3.44842 4.59232 3.31707C4.78642 3.29097 4.99155 3.27021 5.20817 3.25369V2.56445C5.20817 2.21928 5.48799 1.93945 5.83317 1.93945ZM4.75888 4.55592C3.92047 4.66864 3.43743 4.88003 3.08476 5.23271C2.73208 5.58538 2.52069 6.06842 2.40797 6.90683C2.38888 7.04881 2.37292 7.19829 2.35957 7.35612H17.6401C17.6268 7.19829 17.6108 7.04882 17.5917 6.90683C17.479 6.06842 17.2676 5.58538 16.9149 5.23271C16.5622 4.88003 16.0792 4.66864 15.2408 4.55592C14.3844 4.44078 13.2555 4.43945 11.6665 4.43945H8.33317C6.74415 4.43945 5.61527 4.44078 4.75888 4.55592ZM2.2915 10.4811C2.2915 9.76944 2.29177 9.15006 2.30241 8.60612H17.6973C17.7079 9.15006 17.7082 9.76944 17.7082 10.4811V12.1478C17.7082 13.7368 17.7068 14.8657 17.5917 15.7221C17.479 16.5605 17.2676 17.0435 16.9149 17.3962C16.5622 17.7489 16.0792 17.9603 15.2408 18.073C14.3844 18.1881 13.2555 18.1895 11.6665 18.1895H8.33317C6.74415 18.1895 5.61526 18.1881 4.75888 18.073C3.92047 17.9603 3.43743 17.7489 3.08476 17.3962C2.73208 17.0435 2.52069 16.5605 2.40797 15.7221C2.29283 14.8657 2.2915 13.7368 2.2915 12.1478V10.4811Z" fill="#1C274C"/>
</svg>
