<svg width="18" height="18" viewBox="0 0 18 18" fill="none" xmlns="http://www.w3.org/2000/svg">
<g clip-path="url(#clip0_1183_15166)">
<path fill-rule="evenodd" clip-rule="evenodd" d="M14.25 11.5135C12.7387 11.5135 11.5135 12.7387 11.5135 14.25C11.5135 15.7613 12.7387 16.9865 14.25 16.9865C15.7613 16.9865 16.9865 15.7613 16.9865 14.25C16.9865 12.7387 15.7613 11.5135 14.25 11.5135ZM10.5 14.25C10.5 12.1789 12.1789 10.5 14.25 10.5C16.3211 10.5 18 12.1789 18 14.25C18 16.3211 16.3211 18 14.25 18C12.1789 18 10.5 16.3211 10.5 14.25Z" fill="white"/>
<path fill-rule="evenodd" clip-rule="evenodd" d="M14.0068 12.375C14.2866 12.375 14.5135 12.6019 14.5135 12.8818V14.1313L15.3381 14.9559C15.536 15.1538 15.536 15.4746 15.3381 15.6725C15.1402 15.8704 14.8193 15.8704 14.6214 15.6725L13.6484 14.6995C13.5534 14.6045 13.5 14.4756 13.5 14.3412V12.8818C13.5 12.6019 13.7269 12.375 14.0068 12.375Z" fill="white"/>
<path fill-rule="evenodd" clip-rule="evenodd" d="M5.61538 0C5.96587 0 6.25 0.281124 6.25 0.627907V1.25581H11.75V0.627907C11.75 0.281124 12.0341 0 12.3846 0C12.7351 0 13.0192 0.281124 13.0192 0.627907V1.28114C14.3188 1.38816 15.3494 1.83377 16.0756 2.60762C16.9085 3.49505 17.25 4.7177 17.25 6.06977V9C17.25 9.34678 16.9659 9.62791 16.6154 9.62791C16.2649 9.62791 15.9808 9.34678 15.9808 9V7.19162H2.01923V13.186C2.01923 14.3456 2.31231 15.216 2.85447 15.7937C3.38871 16.3629 4.25557 16.7442 5.61538 16.7442H9C9.35049 16.7442 9.63461 17.0253 9.63461 17.3721C9.63461 17.7189 9.35049 18 9 18H5.61538C4.01366 18 2.76513 17.544 1.92438 16.6482C1.09154 15.7608 0.75 14.5381 0.75 13.186V6.06977C0.75 4.7177 1.09154 3.49505 1.92438 2.60762C2.65063 1.83377 3.68115 1.38816 4.98077 1.28114V0.627907C4.98077 0.281124 5.2649 0 5.61538 0ZM4.98077 3.13953V2.542C3.97809 2.6428 3.30041 2.98697 2.85447 3.46214C2.33339 4.01737 2.0424 4.84296 2.02056 5.93581H15.9794C15.9576 4.84296 15.6666 4.01737 15.1455 3.46214C14.6996 2.98697 14.0219 2.6428 13.0192 2.542V3.13953C13.0192 3.48632 12.7351 3.76744 12.3846 3.76744C12.0341 3.76744 11.75 3.48632 11.75 3.13953V2.51163H6.25V3.13953C6.25 3.48632 5.96587 3.76744 5.61538 3.76744C5.2649 3.76744 4.98077 3.48632 4.98077 3.13953Z" fill="white"/>
<path d="M8.99618 9.58606C8.52886 9.58606 8.15002 9.96089 8.15002 10.4233C8.15002 10.8856 8.52886 11.2605 8.99618 11.2605H9.00378C9.4711 11.2605 9.84993 10.8856 9.84993 10.4233C9.84993 9.96089 9.4711 9.58606 9.00378 9.58606H8.99618Z" fill="white"/>
<path d="M5.01826 10.4233C5.01826 9.96089 5.3971 9.58606 5.86442 9.58606H5.87202C6.33934 9.58606 6.71817 9.96089 6.71817 10.4233C6.71817 10.8856 6.33934 11.2605 5.87202 11.2605H5.86442C5.3971 11.2605 5.01826 10.8856 5.01826 10.4233Z" fill="white"/>
<path d="M5.86442 12.0977C5.3971 12.0977 5.01826 12.4725 5.01826 12.9349C5.01826 13.3973 5.3971 13.7721 5.86442 13.7721H5.87202C6.33934 13.7721 6.71817 13.3973 6.71817 12.9349C6.71817 12.4725 6.33934 12.0977 5.87202 12.0977H5.86442Z" fill="white"/>
</g>
<defs>
<clipPath id="clip0_1183_15166">
<rect width="18" height="18" fill="white"/>
</clipPath>
</defs>
</svg>
