<svg width="25" height="24" viewBox="0 0 25 24" fill="none" xmlns="http://www.w3.org/2000/svg">
<path d="M3.60362 3.09499C2.69973 3.99637 2.17442 5.41626 2.17442 7.51391V13.0798C2.17442 15.7907 2.72549 17.1475 3.56293 17.8782C4.42803 18.633 5.81713 18.9239 8.03488 18.9239H8.59302C8.90872 18.9239 9.21587 19.0222 9.45743 19.1416C9.69594 19.2595 9.96571 19.4451 10.1588 19.7071L11.8302 21.9295C12.0637 22.2399 12.3144 22.3302 12.5 22.3302C12.6856 22.3302 12.9363 22.2399 13.1698 21.9295L14.8442 19.7032L14.8474 19.6989C15.2154 19.216 15.7953 18.9239 16.407 18.9239H16.9651C19.0686 18.9239 20.4925 18.4001 21.3964 17.4987C22.3003 16.5973 22.8256 15.1774 22.8256 13.0798V7.51391C22.8256 7.05282 23.2004 6.67904 23.6628 6.67904C24.1252 6.67904 24.5 7.05282 24.5 7.51391V13.0798C24.5 15.4348 23.909 17.3544 22.5804 18.6794C21.2517 20.0044 19.3267 20.5937 16.9651 20.5937H16.407C16.3271 20.5937 16.2379 20.635 16.1817 20.7077L16.1805 20.7093L14.5093 22.9314C14.006 23.6005 13.2855 24 12.5 24C11.7145 24 10.994 23.6005 10.4907 22.9314L8.8149 20.7032C8.81242 20.7008 8.80739 20.6963 8.7992 20.6899C8.77902 20.6743 8.74972 20.6554 8.71374 20.6376C8.67784 20.6199 8.64362 20.6073 8.61616 20.5999C8.59999 20.5956 8.59041 20.5941 8.58738 20.5937H8.03488C5.78752 20.5937 3.82778 20.328 2.46032 19.1348C1.06521 17.9175 0.5 15.9347 0.5 13.0798V7.51391C0.5 5.15888 1.09097 3.23925 2.41963 1.91429C3.74829 0.589325 5.67327 0 8.03488 0H12.5C12.9624 0 13.3372 0.373788 13.3372 0.834879C13.3372 1.29597 12.9624 1.66976 12.5 1.66976H8.03488C5.93138 1.66976 4.50752 2.19361 3.60362 3.09499Z" fill="#007A5B"/>
<path d="M3.60362 3.09499C2.69973 3.99637 2.17442 5.41626 2.17442 7.51391V13.0798C2.17442 15.7907 2.72549 17.1475 3.56293 17.8782C4.42803 18.633 5.81713 18.9239 8.03488 18.9239H8.59302C8.90872 18.9239 9.21587 19.0222 9.45743 19.1416C9.69594 19.2595 9.96571 19.4451 10.1588 19.7071L11.8302 21.9295C12.0637 22.2399 12.3144 22.3302 12.5 22.3302C12.6856 22.3302 12.9363 22.2399 13.1698 21.9295L14.8442 19.7032L14.8474 19.6989C15.2154 19.216 15.7953 18.9239 16.407 18.9239H16.9651C19.0686 18.9239 20.4925 18.4001 21.3964 17.4987C22.3003 16.5973 22.8256 15.1774 22.8256 13.0798V7.51391C22.8256 7.05282 23.2004 6.67904 23.6628 6.67904C24.1252 6.67904 24.5 7.05282 24.5 7.51391V13.0798C24.5 15.4348 23.909 17.3544 22.5804 18.6794C21.2517 20.0044 19.3267 20.5937 16.9651 20.5937H16.407C16.3271 20.5937 16.2379 20.635 16.1817 20.7077L16.1805 20.7093L14.5093 22.9314C14.006 23.6005 13.2855 24 12.5 24C11.7145 24 10.994 23.6005 10.4907 22.9314L8.8149 20.7032C8.81242 20.7008 8.80739 20.6963 8.7992 20.6899C8.77902 20.6743 8.74972 20.6554 8.71374 20.6376C8.67784 20.6199 8.64362 20.6073 8.61616 20.5999C8.59999 20.5956 8.59041 20.5941 8.58738 20.5937H8.03488C5.78752 20.5937 3.82778 20.328 2.46032 19.1348C1.06521 17.9175 0.5 15.9347 0.5 13.0798V7.51391C0.5 5.15888 1.09097 3.23925 2.41963 1.91429C3.74829 0.589325 5.67327 0 8.03488 0H12.5C12.9624 0 13.3372 0.373788 13.3372 0.834879C13.3372 1.29597 12.9624 1.66976 12.5 1.66976H8.03488C5.93138 1.66976 4.50752 2.19361 3.60362 3.09499Z" fill="url(#paint0_linear_3301_13338)"/>
<path fill-rule="evenodd" clip-rule="evenodd" d="M19.1839 0.355705C19.8508 -0.0512483 20.6702 -0.0748906 21.2939 0.113926L21.2954 0.114366C23.0835 0.659203 23.5857 2.60993 23.1186 4.01237C22.7582 5.11547 21.9653 5.9103 21.2341 6.41702C20.8634 6.67398 20.4894 6.87057 20.1579 7.0055C19.8536 7.12941 19.5024 7.23563 19.1977 7.23563C18.894 7.23563 18.5448 7.13071 18.241 7.00722C17.9109 6.87301 17.5387 6.67728 17.1693 6.42092C16.4389 5.91406 15.6496 5.12034 15.2784 4.01691L15.2779 4.01541C14.8069 2.6064 15.3158 0.674472 17.0933 0.116457L17.1015 0.113884C17.7447 -0.0808281 18.5327 -0.0310356 19.1839 0.355705ZM20.8068 1.71146C20.4175 1.59391 20.0437 1.71706 19.8865 1.94396C19.7337 2.16451 19.484 2.29847 19.2153 2.30409C18.9465 2.30971 18.6914 2.18629 18.5295 1.97233C18.3347 1.715 17.9474 1.6046 17.592 1.71046C16.961 1.91145 16.6014 2.69358 16.8661 3.48668C17.0867 4.1417 17.581 4.67237 18.1257 5.05033C18.3939 5.23646 18.6573 5.37328 18.8731 5.46101C19.056 5.53535 19.1618 5.55721 19.1921 5.56346L19.1975 5.56459L19.2036 5.5633C19.2346 5.55681 19.3412 5.53446 19.5251 5.45961C19.7431 5.37085 20.0088 5.23281 20.2785 5.04588C20.8277 4.66531 21.3176 4.13646 21.5271 3.49346L21.529 3.48738C21.7968 2.68626 21.4282 1.90131 20.8068 1.71146Z" fill="#007A5B"/>
<path fill-rule="evenodd" clip-rule="evenodd" d="M19.1839 0.355705C19.8508 -0.0512483 20.6702 -0.0748906 21.2939 0.113926L21.2954 0.114366C23.0835 0.659203 23.5857 2.60993 23.1186 4.01237C22.7582 5.11547 21.9653 5.9103 21.2341 6.41702C20.8634 6.67398 20.4894 6.87057 20.1579 7.0055C19.8536 7.12941 19.5024 7.23563 19.1977 7.23563C18.894 7.23563 18.5448 7.13071 18.241 7.00722C17.9109 6.87301 17.5387 6.67728 17.1693 6.42092C16.4389 5.91406 15.6496 5.12034 15.2784 4.01691L15.2779 4.01541C14.8069 2.6064 15.3158 0.674472 17.0933 0.116457L17.1015 0.113884C17.7447 -0.0808281 18.5327 -0.0310356 19.1839 0.355705ZM20.8068 1.71146C20.4175 1.59391 20.0437 1.71706 19.8865 1.94396C19.7337 2.16451 19.484 2.29847 19.2153 2.30409C18.9465 2.30971 18.6914 2.18629 18.5295 1.97233C18.3347 1.715 17.9474 1.6046 17.592 1.71046C16.961 1.91145 16.6014 2.69358 16.8661 3.48668C17.0867 4.1417 17.581 4.67237 18.1257 5.05033C18.3939 5.23646 18.6573 5.37328 18.8731 5.46101C19.056 5.53535 19.1618 5.55721 19.1921 5.56346L19.1975 5.56459L19.2036 5.5633C19.2346 5.55681 19.3412 5.53446 19.5251 5.45961C19.7431 5.37085 20.0088 5.23281 20.2785 5.04588C20.8277 4.66531 21.3176 4.13646 21.5271 3.49346L21.529 3.48738C21.7968 2.68626 21.4282 1.90131 20.8068 1.71146Z" fill="url(#paint1_linear_3301_13338)"/>
<path d="M16.9612 9.74026C16.3447 9.74026 15.8449 10.2386 15.8449 10.8534C15.8449 11.4682 16.3447 11.9666 16.9612 11.9666H16.9712C17.5877 11.9666 18.0875 11.4682 18.0875 10.8534C18.0875 10.2386 17.5877 9.74026 16.9712 9.74026H16.9612Z" fill="#007A5B"/>
<path d="M16.9612 9.74026C16.3447 9.74026 15.8449 10.2386 15.8449 10.8534C15.8449 11.4682 16.3447 11.9666 16.9612 11.9666H16.9712C17.5877 11.9666 18.0875 11.4682 18.0875 10.8534C18.0875 10.2386 17.5877 9.74026 16.9712 9.74026H16.9612Z" fill="url(#paint2_linear_3301_13338)"/>
<path d="M11.3787 10.8534C11.3787 10.2386 11.8785 9.74026 12.495 9.74026H12.505C13.1215 9.74026 13.6213 10.2386 13.6213 10.8534C13.6213 11.4682 13.1215 11.9666 12.505 11.9666H12.495C11.8785 11.9666 11.3787 11.4682 11.3787 10.8534Z" fill="#007A5B"/>
<path d="M11.3787 10.8534C11.3787 10.2386 11.8785 9.74026 12.495 9.74026H12.505C13.1215 9.74026 13.6213 10.2386 13.6213 10.8534C13.6213 11.4682 13.1215 11.9666 12.505 11.9666H12.495C11.8785 11.9666 11.3787 11.4682 11.3787 10.8534Z" fill="url(#paint3_linear_3301_13338)"/>
<path d="M8.02875 9.74026C7.41225 9.74026 6.91247 10.2386 6.91247 10.8534C6.91247 11.4682 7.41225 11.9666 8.02875 11.9666H8.03878C8.65528 11.9666 9.15506 11.4682 9.15506 10.8534C9.15506 10.2386 8.65528 9.74026 8.03878 9.74026H8.02875Z" fill="#007A5B"/>
<path d="M8.02875 9.74026C7.41225 9.74026 6.91247 10.2386 6.91247 10.8534C6.91247 11.4682 7.41225 11.9666 8.02875 11.9666H8.03878C8.65528 11.9666 9.15506 11.4682 9.15506 10.8534C9.15506 10.2386 8.65528 9.74026 8.03878 9.74026H8.02875Z" fill="url(#paint4_linear_3301_13338)"/>
<defs>
<linearGradient id="paint0_linear_3301_13338" x1="0.5" y1="12" x2="24.5" y2="12" gradientUnits="userSpaceOnUse">
<stop stop-color="#C7863D"/>
<stop offset="0.5" stop-color="#FFCE6F"/>
<stop offset="1" stop-color="#C7863D"/>
</linearGradient>
<linearGradient id="paint1_linear_3301_13338" x1="0.5" y1="12" x2="24.5" y2="12" gradientUnits="userSpaceOnUse">
<stop stop-color="#C7863D"/>
<stop offset="0.5" stop-color="#FFCE6F"/>
<stop offset="1" stop-color="#C7863D"/>
</linearGradient>
<linearGradient id="paint2_linear_3301_13338" x1="0.5" y1="12" x2="24.5" y2="12" gradientUnits="userSpaceOnUse">
<stop stop-color="#C7863D"/>
<stop offset="0.5" stop-color="#FFCE6F"/>
<stop offset="1" stop-color="#C7863D"/>
</linearGradient>
<linearGradient id="paint3_linear_3301_13338" x1="0.5" y1="12" x2="24.5" y2="12" gradientUnits="userSpaceOnUse">
<stop stop-color="#C7863D"/>
<stop offset="0.5" stop-color="#FFCE6F"/>
<stop offset="1" stop-color="#C7863D"/>
</linearGradient>
<linearGradient id="paint4_linear_3301_13338" x1="0.5" y1="12" x2="24.5" y2="12" gradientUnits="userSpaceOnUse">
<stop stop-color="#C7863D"/>
<stop offset="0.5" stop-color="#FFCE6F"/>
<stop offset="1" stop-color="#C7863D"/>
</linearGradient>
</defs>
</svg>
