<svg width="27" height="27" viewBox="0 0 27 27" fill="none" xmlns="http://www.w3.org/2000/svg">
<path d="M8.79952 12.6447L12.0988 15.944L17.5975 10.4452M13.1985 23.0923C10.5735 23.0923 8.05594 22.0495 6.19976 20.1934C4.34357 18.3372 3.30078 15.8196 3.30078 13.1946V13.1946C3.30078 10.5696 4.34357 8.05204 6.19976 6.19585C8.05594 4.33967 10.5735 3.29688 13.1985 3.29688V3.29688C15.8235 3.29688 18.3411 4.33967 20.1973 6.19585C22.0534 8.05204 23.0962 10.5696 23.0962 13.1946V13.1946C23.0962 15.8196 22.0534 18.3372 20.1973 20.1934C18.3411 22.0495 15.8235 23.0923 13.1985 23.0923V23.0923Z" stroke="white" stroke-width="2.0303" stroke-linecap="round" stroke-linejoin="round"/>
</svg>
