<svg width="24" height="24" viewBox="0 0 24 24" fill="none" xmlns="http://www.w3.org/2000/svg">
<g clip-path="url(#clip0_1885_25710)">
<path d="M12 22C17.5228 22 22 17.5228 22 12C22 6.47715 17.5228 2 12 2C6.47715 2 2 6.47715 2 12C2 17.5228 6.47715 22 12 22Z" fill="url(#paint0_linear_1885_25710)"/>
<path d="M7.5 12L10.5 15L16.5 9M22 12C22 17.5228 17.5228 22 12 22C6.47715 22 2 17.5228 2 12C2 6.47715 6.47715 2 12 2C17.5228 2 22 6.47715 22 12Z" stroke="url(#paint1_linear_1885_25710)" stroke-width="3" stroke-linecap="round" stroke-linejoin="round"/>
<path d="M7.5 12L10.5 15L16.5 9" stroke="white" stroke-width="3" stroke-linecap="round" stroke-linejoin="round"/>
</g>
<defs>
<linearGradient id="paint0_linear_1885_25710" x1="22" y1="12.1625" x2="2" y2="12.1625" gradientUnits="userSpaceOnUse">
<stop stop-color="#025436"/>
<stop offset="1" stop-color="#053725"/>
</linearGradient>
<linearGradient id="paint1_linear_1885_25710" x1="22" y1="12.1625" x2="2" y2="12.1625" gradientUnits="userSpaceOnUse">
<stop stop-color="#025436"/>
<stop offset="1" stop-color="#053725"/>
</linearGradient>
<clipPath id="clip0_1885_25710">
<rect width="24" height="24" fill="white"/>
</clipPath>
</defs>
</svg>
