<svg width="18" height="18" viewBox="0 0 18 18" fill="none" xmlns="http://www.w3.org/2000/svg">
<path fill-rule="evenodd" clip-rule="evenodd" d="M9 6.1875C7.4467 6.1875 6.1875 7.4467 6.1875 9C6.1875 10.5533 7.4467 11.8125 9 11.8125C10.5533 11.8125 11.8125 10.5533 11.8125 9C11.8125 7.4467 10.5533 6.1875 9 6.1875ZM7.3125 9C7.3125 8.06802 8.06802 7.3125 9 7.3125C9.93198 7.3125 10.6875 8.06802 10.6875 9C10.6875 9.93198 9.93198 10.6875 9 10.6875C8.06802 10.6875 7.3125 9.93198 7.3125 9Z" fill="#666666"/>
<path fill-rule="evenodd" clip-rule="evenodd" d="M9 2.4375C5.6144 2.4375 3.33397 4.46565 2.01043 6.18515L1.98656 6.21615C1.68723 6.6049 1.41155 6.96294 1.22452 7.3863C1.02423 7.83965 0.9375 8.33377 0.9375 9C0.9375 9.66623 1.02423 10.1603 1.22452 10.6137C1.41155 11.0371 1.68723 11.3951 1.98656 11.7839L2.01043 11.8149C3.33397 13.5344 5.6144 15.5625 9 15.5625C12.3856 15.5625 14.666 13.5344 15.9896 11.8149L16.0134 11.7839C16.3128 11.3951 16.5885 11.0371 16.7755 10.6137C16.9758 10.1603 17.0625 9.66623 17.0625 9C17.0625 8.33377 16.9758 7.83965 16.7755 7.3863C16.5885 6.96293 16.3128 6.60489 16.0134 6.21613L15.9896 6.18515C14.666 4.46565 12.3856 2.4375 9 2.4375ZM2.90191 6.87135C4.12398 5.28369 6.11277 3.5625 9 3.5625C11.8872 3.5625 13.876 5.28369 15.0981 6.87135C15.427 7.29869 15.6197 7.55404 15.7464 7.84091C15.8649 8.10901 15.9375 8.4367 15.9375 9C15.9375 9.5633 15.8649 9.89099 15.7464 10.1591C15.6197 10.446 15.427 10.7013 15.0981 11.1287C13.876 12.7163 11.8872 14.4375 9 14.4375C6.11277 14.4375 4.12398 12.7163 2.90191 11.1287C2.57298 10.7013 2.3803 10.446 2.25357 10.1591C2.13513 9.89099 2.0625 9.5633 2.0625 9C2.0625 8.4367 2.13513 8.10901 2.25357 7.84091C2.3803 7.55404 2.57298 7.29869 2.90191 6.87135Z" fill="#666666"/>
</svg>
