<svg width="28" height="28" viewBox="0 0 28 28" fill="none" xmlns="http://www.w3.org/2000/svg">
<path fill-rule="evenodd" clip-rule="evenodd" d="M24.2083 8.16669C24.2083 8.64994 23.8165 9.04169 23.3333 9.04169L4.66658 9.04169C4.18334 9.04169 3.79158 8.64994 3.79158 8.16669C3.79158 7.68344 4.18334 7.29169 4.66658 7.29169L23.3333 7.29169C23.8165 7.29169 24.2083 7.68344 24.2083 8.16669Z" fill="#292929"/>
<path fill-rule="evenodd" clip-rule="evenodd" d="M24.2083 14C24.2083 14.4832 23.8165 14.875 23.3333 14.875L4.66658 14.875C4.18334 14.875 3.79158 14.4832 3.79158 14C3.79158 13.5168 4.18334 13.125 4.66658 13.125L23.3333 13.125C23.8165 13.125 24.2083 13.5168 24.2083 14Z" fill="#292929"/>
<path fill-rule="evenodd" clip-rule="evenodd" d="M24.2083 19.8333C24.2083 20.3166 23.8165 20.7083 23.3333 20.7083L4.66658 20.7083C4.18334 20.7083 3.79158 20.3166 3.79158 19.8333C3.79158 19.3501 4.18334 18.9583 4.66658 18.9583L23.3333 18.9583C23.8165 18.9583 24.2083 19.3501 24.2083 19.8333Z" fill="#292929"/>
</svg>
