<svg width="20" height="20" viewBox="0 0 20 20" fill="none" xmlns="http://www.w3.org/2000/svg">
<g opacity="0.7">
<path d="M6.66634 12.5002C6.66634 11.5797 5.92015 10.8335 4.99967 10.8335C4.0792 10.8335 3.33301 11.5797 3.33301 12.5002V14.1668C3.33301 15.0873 4.0792 15.8335 4.99967 15.8335C5.92015 15.8335 6.66634 15.0873 6.66634 14.1668V12.5002Z" stroke="white" stroke-width="1.5" stroke-linecap="round" stroke-linejoin="round"/>
<path d="M16.6663 12.5002C16.6663 11.5797 15.9201 10.8335 14.9997 10.8335C14.0792 10.8335 13.333 11.5797 13.333 12.5002V14.1668C13.333 15.0873 14.0792 15.8335 14.9997 15.8335C15.9201 15.8335 16.6663 15.0873 16.6663 14.1668V12.5002Z" stroke="white" stroke-width="1.5" stroke-linecap="round" stroke-linejoin="round"/>
<path d="M3.33301 12.5002V10.0002C3.33301 8.23205 4.03539 6.53636 5.28563 5.28612C6.53587 4.03588 8.23156 3.3335 9.99967 3.3335C11.7678 3.3335 13.4635 4.03588 14.7137 5.28612C15.964 6.53636 16.6663 8.23205 16.6663 10.0002V12.5002M14.9997 15.8335C14.9997 16.4965 14.4729 17.1324 13.5352 17.6013C12.5975 18.0701 11.3258 18.3335 9.99967 18.3335" stroke="white" stroke-width="1.5" stroke-linecap="round" stroke-linejoin="round"/>
</g>
</svg>
