<svg width="20" height="20" viewBox="0 0 20 20" fill="none" xmlns="http://www.w3.org/2000/svg">
<g opacity="0.5">
<path d="M2.08325 9.11534C2.08325 8.09519 2.5504 7.1312 3.3511 6.49906L7.93444 2.88064C9.14547 1.92457 10.8544 1.92457 12.0654 2.88064L16.6487 6.49906C17.4494 7.1312 17.9166 8.09518 17.9166 9.11534V14.5833C17.9166 16.4243 16.4242 17.9167 14.5833 17.9167H13.3333C12.873 17.9167 12.4999 17.5436 12.4999 17.0833V14.5833C12.4999 13.6629 11.7537 12.9167 10.8333 12.9167H9.16659C8.24611 12.9167 7.49992 13.6629 7.49992 14.5833V17.0833C7.49992 17.5436 7.12682 17.9167 6.66659 17.9167H5.41658C3.57564 17.9167 2.08325 16.4243 2.08325 14.5833L2.08325 9.11534Z" stroke="white" stroke-width="1.25"/>
</g>
</svg>
