<svg width="34" height="34" viewBox="0 0 34 34" fill="none" xmlns="http://www.w3.org/2000/svg">
<path d="M14.683 33.0119C13.4273 32.4945 13.0016 31.8317 13.0016 30.4413C13.0016 29.6814 12.98 28.9216 13.0016 28.1617C13.0609 26.545 12.3872 25.2786 11.1747 24.2709C10.1508 23.4194 9.29396 22.444 8.69039 21.2584C6.45394 16.8664 8.03832 11.4935 12.2956 9.00379C18.0511 5.63566 25.2832 9.06307 26.2209 15.67C26.6951 19.0328 25.6496 21.9051 22.9875 24.0984C21.6402 25.2086 20.945 26.5828 20.9935 28.3342C21.0151 29.1641 20.9935 29.9994 20.9935 30.8347C20.9935 31.9341 20.4439 32.6562 19.3876 32.9634C19.3607 32.9741 19.3068 33.0119 19.3068 33.0119H14.683ZM19.6571 27.6606C19.7002 27.3749 19.7325 27.1163 19.7864 26.863C20.1367 25.2732 21.0151 24.0391 22.2384 22.9829C24.5557 20.9782 25.4125 18.4022 24.8359 15.4275C23.9898 11.0947 19.9912 8.40561 15.6422 9.12774C11.234 9.86603 8.17303 14.4952 9.2185 18.828C9.64962 20.6117 10.5442 22.0883 11.9993 23.22C13.0609 24.0499 13.8154 25.1062 14.1549 26.4265C14.2572 26.8253 14.3004 27.2402 14.3704 27.6606H19.6571ZM19.6624 29.024H14.3704C14.3704 29.7138 14.3435 30.3874 14.3812 31.061C14.4027 31.449 14.6291 31.6646 14.974 31.67C16.3266 31.6808 17.6793 31.6862 19.0319 31.67C19.4199 31.67 19.6463 31.4437 19.6624 31.0664C19.684 30.3928 19.6678 29.7192 19.6678 29.024H19.6624Z" fill="url(#paint0_linear_2023_27764)" stroke="url(#paint1_linear_2023_27764)" stroke-width="0.25" stroke-miterlimit="10"/>
<path d="M32.9997 17.1992C32.8488 17.571 32.5686 17.6842 32.186 17.6788C31.383 17.668 30.5854 17.6788 29.7825 17.6788C29.513 17.6788 29.2597 17.6303 29.1035 17.377C28.834 16.9513 29.0873 16.3746 29.5939 16.3531C30.5262 16.3208 31.4638 16.3369 32.4015 16.3477C32.7087 16.3477 32.8865 16.5579 32.9997 16.8219V17.0105V17.1992Z" fill="url(#paint2_linear_2023_27764)" stroke="url(#paint3_linear_2023_27764)" stroke-width="0.25" stroke-miterlimit="10"/>
<path d="M17.6737 3.01549C17.6737 3.43045 17.679 3.85079 17.6737 4.26574C17.6629 4.73459 17.415 4.99865 17.0054 4.99865C16.5905 4.99865 16.3426 4.73459 16.3372 4.26574C16.3264 3.41967 16.3264 2.57898 16.3372 1.73291C16.3372 1.26406 16.5905 1 17.0054 1C17.4204 1 17.6629 1.25867 17.6737 1.73291C17.6844 2.15864 17.6737 2.58437 17.6737 3.01549Z" fill="white" stroke="white" stroke-width="0.301627" stroke-miterlimit="10"/>
<path d="M2.99942 17.6784C2.58446 17.6784 2.16412 17.6838 1.74916 17.6784C1.25876 17.6676 0.994692 17.4197 1.00008 16.994C1.00547 16.5844 1.27493 16.3419 1.74916 16.3419C2.58446 16.3365 3.41438 16.3365 4.24967 16.3419C4.72391 16.3419 4.98798 16.5844 4.99876 16.994C5.00953 17.4197 4.74007 17.673 4.24967 17.6784C3.83472 17.6838 3.41437 17.6784 2.99942 17.6784Z" fill="url(#paint4_linear_2023_27764)" stroke="url(#paint5_linear_2023_27764)" stroke-width="0.25" stroke-miterlimit="10"/>
<path d="M17.6737 3.01549C17.6737 3.43045 17.679 3.85079 17.6737 4.26574C17.6629 4.73459 17.415 4.99865 17.0054 4.99865C16.5905 4.99865 16.3426 4.73459 16.3372 4.26574C16.3264 3.41967 16.3264 2.57898 16.3372 1.73291C16.3372 1.26406 16.5905 1 17.0054 1C17.4204 1 17.6629 1.25867 17.6737 1.73291C17.6844 2.15864 17.6737 2.58437 17.6737 3.01549Z" fill="url(#paint6_linear_2023_27764)" stroke="url(#paint7_linear_2023_27764)" stroke-width="0.25" stroke-miterlimit="10"/>
<path d="M8.03818 8.82427C7.85648 8.82966 7.60704 8.6626 7.48848 8.53866C6.86875 7.89736 6.26516 7.2399 5.65621 6.58244C5.46759 6.38305 5.39215 6.11899 5.53227 5.89804C5.64005 5.72559 5.84484 5.56931 6.04423 5.50464C6.17896 5.45614 6.41605 5.52081 6.52383 5.62859C7.20285 6.26988 7.86031 6.93273 8.51238 7.60636C8.70099 7.80036 8.73872 8.0752 8.58244 8.29615C8.44232 8.49554 8.23218 8.64105 8.03818 8.82427Z" fill="url(#paint8_linear_2023_27764)" stroke="url(#paint9_linear_2023_27764)" stroke-width="0.25" stroke-miterlimit="10"/>
<path d="M27.7804 28.612C27.5649 28.488 27.317 28.4018 27.1445 28.2401C26.5733 27.7066 26.029 27.1462 25.4847 26.5857C25.1775 26.2785 25.1506 25.9552 25.3823 25.6642C25.6248 25.357 26.0344 25.2977 26.32 25.5726C26.9829 26.2085 27.6242 26.8606 28.2655 27.5126C28.4595 27.7066 28.4756 27.9599 28.3625 28.2132C28.2601 28.4395 28.1146 28.6012 27.8182 28.515C27.8074 28.5473 27.7966 28.5796 27.7858 28.612H27.7804Z" fill="url(#paint10_linear_2023_27764)" stroke="url(#paint11_linear_2023_27764)" stroke-width="0.25" stroke-miterlimit="10"/>
<path d="M6.17925 28.5162C5.87747 28.4731 5.63494 28.4085 5.52177 28.1228C5.41399 27.8426 5.48405 27.5947 5.69423 27.3845C6.30318 26.7756 6.91216 26.1612 7.5265 25.5577C7.8229 25.2667 8.20013 25.2774 8.46958 25.5523C8.72826 25.8163 8.73903 26.1882 8.46419 26.4738C7.86062 27.0935 7.25165 27.7025 6.63191 28.3007C6.51874 28.4138 6.33014 28.4516 6.17925 28.5216V28.5162Z" fill="url(#paint12_linear_2023_27764)" stroke="url(#paint13_linear_2023_27764)" stroke-width="0.25" stroke-miterlimit="10"/>
<path d="M27.6272 5.60742C28.026 5.6182 28.2254 5.75293 28.3386 6.00082C28.4463 6.23794 28.4355 6.48583 28.2523 6.67445C27.6272 7.31574 27.0021 7.95703 26.3554 8.57677C26.0967 8.82466 25.5848 8.79233 25.38 8.56599C25.1213 8.28576 25.1536 7.93548 25.4824 7.60136C26.0536 7.02473 26.6248 6.44811 27.2068 5.88226C27.347 5.74754 27.4968 5.60203 27.6272 5.60742Z" fill="url(#paint14_linear_2023_27764)" stroke="url(#paint15_linear_2023_27764)" stroke-width="0.25" stroke-miterlimit="10"/>
<path d="M17.1619 11.008C20.3629 11.0673 23.0035 13.7564 23.0035 16.9144C23.0035 17.4802 22.6209 17.7928 22.1197 17.6365C21.791 17.5341 21.6832 17.2862 21.6779 16.9629C21.6455 15.8419 21.2737 14.845 20.5407 13.9935C19.6192 12.9319 18.4444 12.3822 17.0379 12.3283C16.4667 12.3067 16.1649 11.811 16.4236 11.3313C16.596 11.0134 16.8924 10.9864 17.1672 11.0026L17.1619 11.008Z" fill="url(#paint16_linear_2023_27764)" stroke="url(#paint17_linear_2023_27764)" stroke-width="0.25" stroke-miterlimit="10"/>
<defs>
<linearGradient id="paint0_linear_2023_27764" x1="26.3315" y1="20.5569" x2="7.67773" y2="20.5569" gradientUnits="userSpaceOnUse">
<stop stop-color="#025436"/>
<stop offset="1" stop-color="#053725"/>
</linearGradient>
<linearGradient id="paint1_linear_2023_27764" x1="26.3315" y1="20.5569" x2="7.67773" y2="20.5569" gradientUnits="userSpaceOnUse">
<stop stop-color="#025436"/>
<stop offset="1" stop-color="#053725"/>
</linearGradient>
<linearGradient id="paint2_linear_2023_27764" x1="32.9997" y1="17.0174" x2="28.9941" y2="17.0174" gradientUnits="userSpaceOnUse">
<stop stop-color="#025436"/>
<stop offset="1" stop-color="#053725"/>
</linearGradient>
<linearGradient id="paint3_linear_2023_27764" x1="32.9997" y1="17.0174" x2="28.9941" y2="17.0174" gradientUnits="userSpaceOnUse">
<stop stop-color="#025436"/>
<stop offset="1" stop-color="#053725"/>
</linearGradient>
<linearGradient id="paint4_linear_2023_27764" x1="4.99907" y1="17.0203" x2="1" y2="17.0203" gradientUnits="userSpaceOnUse">
<stop stop-color="#025436"/>
<stop offset="1" stop-color="#053725"/>
</linearGradient>
<linearGradient id="paint5_linear_2023_27764" x1="4.99907" y1="17.0203" x2="1" y2="17.0203" gradientUnits="userSpaceOnUse">
<stop stop-color="#025436"/>
<stop offset="1" stop-color="#053725"/>
</linearGradient>
<linearGradient id="paint6_linear_2023_27764" x1="17.6784" y1="3.03182" x2="16.3291" y2="3.03182" gradientUnits="userSpaceOnUse">
<stop stop-color="#025436"/>
<stop offset="1" stop-color="#053725"/>
</linearGradient>
<linearGradient id="paint7_linear_2023_27764" x1="17.6784" y1="3.03182" x2="16.3291" y2="3.03182" gradientUnits="userSpaceOnUse">
<stop stop-color="#025436"/>
<stop offset="1" stop-color="#053725"/>
</linearGradient>
<linearGradient id="paint8_linear_2023_27764" x1="8.67988" y1="7.18339" x2="5.45996" y2="7.18339" gradientUnits="userSpaceOnUse">
<stop stop-color="#025436"/>
<stop offset="1" stop-color="#053725"/>
</linearGradient>
<linearGradient id="paint9_linear_2023_27764" x1="8.67988" y1="7.18339" x2="5.45996" y2="7.18339" gradientUnits="userSpaceOnUse">
<stop stop-color="#025436"/>
<stop offset="1" stop-color="#053725"/>
</linearGradient>
<linearGradient id="paint10_linear_2023_27764" x1="28.4331" y1="27.0304" x2="25.2285" y2="27.0304" gradientUnits="userSpaceOnUse">
<stop stop-color="#025436"/>
<stop offset="1" stop-color="#053725"/>
</linearGradient>
<linearGradient id="paint11_linear_2023_27764" x1="28.4331" y1="27.0304" x2="25.2285" y2="27.0304" gradientUnits="userSpaceOnUse">
<stop stop-color="#025436"/>
<stop offset="1" stop-color="#053725"/>
</linearGradient>
<linearGradient id="paint12_linear_2023_27764" x1="8.66696" y1="26.958" x2="5.47168" y2="26.958" gradientUnits="userSpaceOnUse">
<stop stop-color="#025436"/>
<stop offset="1" stop-color="#053725"/>
</linearGradient>
<linearGradient id="paint13_linear_2023_27764" x1="8.66696" y1="26.958" x2="5.47168" y2="26.958" gradientUnits="userSpaceOnUse">
<stop stop-color="#025436"/>
<stop offset="1" stop-color="#053725"/>
</linearGradient>
<linearGradient id="paint14_linear_2023_27764" x1="28.4076" y1="7.20404" x2="25.208" y2="7.20404" gradientUnits="userSpaceOnUse">
<stop stop-color="#025436"/>
<stop offset="1" stop-color="#053725"/>
</linearGradient>
<linearGradient id="paint15_linear_2023_27764" x1="28.4076" y1="7.20404" x2="25.208" y2="7.20404" gradientUnits="userSpaceOnUse">
<stop stop-color="#025436"/>
<stop offset="1" stop-color="#053725"/>
</linearGradient>
<linearGradient id="paint16_linear_2023_27764" x1="23.0035" y1="14.3921" x2="16.3301" y2="14.3921" gradientUnits="userSpaceOnUse">
<stop stop-color="#025436"/>
<stop offset="1" stop-color="#053725"/>
</linearGradient>
<linearGradient id="paint17_linear_2023_27764" x1="23.0035" y1="14.3921" x2="16.3301" y2="14.3921" gradientUnits="userSpaceOnUse">
<stop stop-color="#025436"/>
<stop offset="1" stop-color="#053725"/>
</linearGradient>
</defs>
</svg>
