<svg width="30" height="30" viewBox="0 0 30 30" fill="none" xmlns="http://www.w3.org/2000/svg">
<g clip-path="url(#clip0_423_20957)">
<circle cx="15" cy="15" r="15" fill="#0077B5"/>
<path fill-rule="evenodd" clip-rule="evenodd" d="M11.0811 7.71291C11.0811 8.64673 10.37 9.40245 9.25812 9.40245C8.18952 9.40245 7.47849 8.64673 7.5005 7.71291C7.47849 6.73371 8.1895 6 9.27942 6C10.37 6 11.0597 6.73371 11.0811 7.71291ZM7.58989 21.6143V10.7372H10.9703V21.6136H7.58989V21.6143Z" fill="white"/>
<path fill-rule="evenodd" clip-rule="evenodd" d="M13.6792 14.2081C13.6792 12.8514 13.6345 11.6948 13.5898 10.7383H16.5261L16.6822 12.2284H16.7489C17.1938 11.5387 18.3057 10.4941 20.1073 10.4941C22.3312 10.4941 23.9994 11.9623 23.9994 15.1639V21.6154H20.6189V15.5875C20.6189 14.1854 20.13 13.2296 18.9067 13.2296C17.9722 13.2296 17.4166 13.8746 17.1945 14.4969C17.1051 14.7197 17.0611 15.0305 17.0611 15.3427V21.6154H13.6806V14.2081H13.6792Z" fill="white"/>
</g>
<defs>
<clipPath id="clip0_423_20957">
<rect width="30" height="30" fill="white"/>
</clipPath>
</defs>
</svg>
