<svg width="20" height="20" viewBox="0 0 20 20" fill="none" xmlns="http://www.w3.org/2000/svg">
<path opacity="0.7" d="M10 10.833C11.3807 10.833 12.5 9.71372 12.5 8.33301C12.5 6.9523 11.3807 5.83301 10 5.83301C8.61929 5.83301 7.5 6.9523 7.5 8.33301C7.5 9.71372 8.61929 10.833 10 10.833Z" stroke="white" stroke-width="1.2" stroke-linecap="round" stroke-linejoin="round"/>
<path opacity="0.7" d="M10.0007 1.6665C8.23254 1.6665 6.53685 2.36888 5.28661 3.61913C4.03636 4.86937 3.33398 6.56506 3.33398 8.33317C3.33398 9.90984 3.66898 10.9415 4.58398 12.0832L10.0007 18.3332L15.4173 12.0832C16.3323 10.9415 16.6673 9.90984 16.6673 8.33317C16.6673 6.56506 15.9649 4.86937 14.7147 3.61913C13.4645 2.36888 11.7688 1.6665 10.0007 1.6665V1.6665Z" stroke="white" stroke-width="1.2" stroke-linecap="round" stroke-linejoin="round"/>
</svg>
