<svg width="20" height="20" viewBox="0 0 20 20" fill="none" xmlns="http://www.w3.org/2000/svg">
<g opacity="0.7">
<path fill-rule="evenodd" clip-rule="evenodd" d="M8.28664 2.7085H11.714C13.2455 2.70848 14.4585 2.70847 15.4078 2.83611C16.3849 2.96747 17.1757 3.24423 17.7993 3.86787C18.4229 4.4915 18.6997 5.28229 18.831 6.25931C18.9587 7.20866 18.9587 8.42169 18.9587 9.95315V10.0472C18.9587 11.5786 18.9587 12.7917 18.831 13.741C18.6997 14.718 18.4229 15.5088 17.7993 16.1325C17.1757 16.7561 16.3849 17.0329 15.4078 17.1642C14.4585 17.2919 13.2455 17.2918 11.714 17.2918H8.28665C6.75518 17.2918 5.54215 17.2919 4.59281 17.1642C3.61579 17.0329 2.825 16.7561 2.20136 16.1325C1.57773 15.5088 1.30096 14.718 1.1696 13.741C1.04197 12.7917 1.04198 11.5786 1.04199 10.0472V9.95315C1.04198 8.42168 1.04197 7.20866 1.1696 6.25931C1.30096 5.28229 1.57773 4.4915 2.20136 3.86787C2.825 3.24423 3.61579 2.96747 4.59281 2.83611C5.54215 2.70847 6.75518 2.70848 8.28664 2.7085ZM4.75937 4.07496C3.92096 4.18768 3.43792 4.39907 3.08525 4.75175C2.73257 5.10442 2.52118 5.58746 2.40846 6.42587C2.29332 7.28226 2.29199 8.41115 2.29199 10.0002C2.29199 11.5892 2.29332 12.7181 2.40846 13.5745C2.52118 14.4129 2.73257 14.8959 3.08525 15.2486C3.43792 15.6013 3.92096 15.8126 4.75937 15.9254C5.61575 16.0405 6.74464 16.0418 8.33366 16.0418H11.667C13.256 16.0418 14.3849 16.0405 15.2413 15.9254C16.0797 15.8126 16.5627 15.6013 16.9154 15.2486C17.2681 14.8959 17.4795 14.4129 17.5922 13.5745C17.7073 12.7181 17.7087 11.5892 17.7087 10.0002C17.7087 8.41115 17.7073 7.28226 17.5922 6.42587C17.4795 5.58746 17.2681 5.10442 16.9154 4.75175C16.5627 4.39907 16.0797 4.18768 15.2413 4.07496C14.3849 3.95982 13.256 3.9585 11.667 3.9585H8.33366C6.74464 3.9585 5.61575 3.95982 4.75937 4.07496ZM4.52019 6.26671C4.74117 6.00154 5.13527 5.96571 5.40044 6.18669L7.19952 7.68592C7.97699 8.33381 8.51677 8.78218 8.97248 9.07527C9.41361 9.35899 9.71277 9.45423 10.0003 9.45423C10.2879 9.45423 10.587 9.35899 11.0282 9.07527C11.4839 8.78218 12.0237 8.33381 12.8011 7.68592L14.6002 6.18669C14.8654 5.96571 15.2595 6.00154 15.4805 6.26671C15.7014 6.53189 15.6656 6.92599 15.4004 7.14697L13.57 8.67231C12.8314 9.28786 12.2327 9.78676 11.7043 10.1266C11.1539 10.4806 10.6179 10.7042 10.0003 10.7042C9.38276 10.7042 8.84672 10.4806 8.29631 10.1266C7.76792 9.78677 7.16925 9.28786 6.43063 8.67232L4.60021 7.14697C4.33504 6.92599 4.29921 6.53189 4.52019 6.26671Z" fill="white"/>
</g>
</svg>
