<svg width="20" height="20" viewBox="0 0 20 20" fill="none" xmlns="http://www.w3.org/2000/svg">
<g opacity="0.7">
<path fill-rule="evenodd" clip-rule="evenodd" d="M4.77691 1.70226C5.79135 0.693575 7.46167 0.873121 8.31109 2.00777L9.36192 3.41144C10.0531 4.33468 9.99209 5.62502 9.17167 6.44078L8.97269 6.63863C8.964 6.66387 8.94292 6.74322 8.96632 6.89401C9.019 7.23359 9.30257 7.95393 10.493 9.1376C11.683 10.3209 12.4085 10.6041 12.7528 10.657C12.9089 10.6809 12.9906 10.6586 13.0158 10.6498L13.3558 10.3117C14.0852 9.58651 15.2059 9.45095 16.1089 9.94183L17.701 10.8073C19.0643 11.5484 19.4087 13.4015 18.2918 14.5121L17.108 15.6892C16.735 16.06 16.2334 16.3693 15.6213 16.4264C14.1138 16.5669 10.5986 16.3876 6.90517 12.7151C3.45691 9.28642 2.79519 6.29643 2.71146 4.82323L3.33546 4.78777L2.71146 4.82323C2.66913 4.07831 3.02114 3.44806 3.46891 3.00283L4.77691 1.70226ZM7.31043 2.75689C6.88824 2.19294 6.10135 2.1481 5.65827 2.58866L4.35027 3.88923C4.07534 4.1626 3.94306 4.46388 3.95945 4.75231C4.02597 5.92281 4.56039 8.62088 7.78653 11.8287C11.1711 15.194 14.2971 15.2944 15.5053 15.1818C15.7521 15.1587 15.9976 15.0305 16.2266 14.8028L17.4104 13.6257C17.8916 13.1472 17.7855 12.276 17.104 11.9055L15.5119 11.0401C15.0723 10.8011 14.5572 10.8799 14.2372 11.1981L13.8577 11.5755L13.417 11.1323C13.8577 11.5755 13.8571 11.5761 13.8565 11.5767L13.8552 11.5779L13.8527 11.5804L13.8473 11.5856L13.8351 11.5969C13.8263 11.6049 13.8163 11.6137 13.805 11.6231C13.7824 11.6418 13.7545 11.663 13.7212 11.6853C13.6545 11.73 13.5664 11.7786 13.4557 11.8199C13.23 11.904 12.9324 11.9491 12.5633 11.8925C11.841 11.7817 10.8841 11.2893 9.61164 10.024C8.33957 8.75915 7.84296 7.80671 7.73109 7.08564C7.67389 6.71693 7.71952 6.41918 7.80462 6.1933C7.84633 6.0826 7.89549 5.99458 7.94059 5.928C7.96309 5.8948 7.9845 5.86704 8.00339 5.84449C8.01284 5.83322 8.02167 5.82323 8.02971 5.81451L8.04115 5.80235L8.04639 5.79697L8.04888 5.79445L8.0501 5.79323C8.05069 5.79264 8.05129 5.79204 8.49197 6.23524L8.05129 5.79204L8.2903 5.55439C8.64747 5.19925 8.6975 4.60971 8.36126 4.16056L7.31043 2.75689Z" fill="white"/>
</g>
</svg>
