<svg width="32" height="32" viewBox="0 0 32 32" fill="none" xmlns="http://www.w3.org/2000/svg">
<path d="M25.5627 11.1879C25.449 10.7648 25.2259 10.3792 24.9159 10.0697C24.6059 9.76022 24.2198 9.53781 23.7966 9.42481C22.2581 9.00635 15.9996 9.00635 15.9996 9.00635C15.9996 9.00635 9.75657 9.00635 8.19965 9.42481C7.77698 9.53828 7.39158 9.7609 7.08212 10.0704C6.77267 10.3798 6.55005 10.7652 6.43658 11.1879C6.02735 12.7448 6.02734 15.994 6.02734 15.994C6.02734 15.994 6.02734 19.2402 6.4458 20.7971C6.55965 21.2199 6.78237 21.6055 7.09172 21.9154C7.40108 22.2253 7.78627 22.4487 8.20889 22.5633C9.76581 22.9787 16.0089 22.9787 16.0089 22.9787C16.0089 22.9787 22.252 22.9787 23.8058 22.5633C24.229 22.4492 24.6148 22.226 24.9247 21.9161C25.2347 21.6061 25.4578 21.2203 25.572 20.7971C25.9873 19.2402 25.9873 15.994 25.9873 15.994C25.9873 15.994 25.9781 12.7448 25.5627 11.1879ZM14.0027 18.9879V13.0002L19.1873 15.994L14.0027 18.9879Z" fill="white"/>
</svg>
