<svg width="32" height="32" viewBox="0 0 32 32" fill="none" xmlns="http://www.w3.org/2000/svg">
<path fill-rule="evenodd" clip-rule="evenodd" d="M3.99407 17.0891L4.22176 18.4552L3.99407 19.8183C3.99408 19.8283 3.99207 19.8381 3.98817 19.8473C3.98427 19.8564 3.97855 19.8647 3.97136 19.8716C3.96417 19.8785 3.95567 19.8839 3.94635 19.8874C3.93704 19.8909 3.92711 19.8925 3.91715 19.8921C3.89757 19.8921 3.87878 19.8843 3.86493 19.8705C3.85108 19.8567 3.8433 19.8379 3.8433 19.8183L3.68945 18.4552L3.8433 17.0891C3.8433 17.0695 3.85108 17.0507 3.86493 17.0368C3.87878 17.023 3.89757 17.0152 3.91715 17.0152C3.92711 17.0148 3.93704 17.0164 3.94635 17.0199C3.95567 17.0234 3.96417 17.0288 3.97136 17.0357C3.97855 17.0426 3.98427 17.0509 3.98817 17.0601C3.99207 17.0692 3.99408 17.0791 3.99407 17.0891Z" fill="white"/>
<path fill-rule="evenodd" clip-rule="evenodd" d="M4.90191 16.2586L5.2096 18.4555L4.90191 20.6493C4.90233 20.6593 4.90072 20.6692 4.8972 20.6785C4.89367 20.6879 4.88828 20.6964 4.88139 20.7035C4.87449 20.7107 4.86621 20.7164 4.85705 20.7203C4.84788 20.7242 4.83801 20.7263 4.82805 20.7262C4.81783 20.7267 4.80764 20.725 4.79811 20.7213C4.78858 20.7176 4.77994 20.7119 4.7727 20.7047C4.76547 20.6975 4.75982 20.6888 4.7561 20.6793C4.75239 20.6697 4.75069 20.6595 4.75113 20.6493L4.52344 18.4555L4.75113 16.2586L4.82805 16.1816C4.83801 16.1816 4.84788 16.1836 4.85705 16.1875C4.86621 16.1914 4.87449 16.1972 4.88139 16.2043C4.88828 16.2115 4.89367 16.22 4.8972 16.2294C4.90072 16.2387 4.90233 16.2486 4.90191 16.2586Z" fill="white"/>
<path fill-rule="evenodd" clip-rule="evenodd" d="M5.96319 15.8031L6.1909 18.4554L5.96319 20.9539C5.95543 21.0114 5.9283 21.0646 5.88627 21.1047C5.84723 21.1018 5.81051 21.085 5.78283 21.0573C5.75515 21.0296 5.73835 20.9929 5.7355 20.9539L5.50781 18.4554L5.7355 15.8031C5.7355 15.7293 5.81242 15.7293 5.81242 15.6523C5.85125 15.6558 5.88763 15.6728 5.91519 15.7004C5.94275 15.7279 5.95974 15.7643 5.96319 15.8031Z" fill="white"/>
<path fill-rule="evenodd" clip-rule="evenodd" d="M6.95027 15.729L7.17796 18.4552L6.95027 21.0306C6.94681 21.0694 6.92983 21.1058 6.90227 21.1333C6.87471 21.1609 6.83833 21.1779 6.7995 21.1814C6.76046 21.1785 6.72374 21.1617 6.69606 21.134C6.66838 21.1063 6.65159 21.0696 6.64874 21.0306L6.41797 18.4552L6.64874 15.729C6.72258 15.6521 6.72258 15.5752 6.7995 15.5752C6.83881 15.5788 6.87556 15.5962 6.90319 15.6244C6.93081 15.6526 6.94751 15.6897 6.95027 15.729Z" fill="white"/>
<path fill-rule="evenodd" clip-rule="evenodd" d="M8.00623 15.954L8.23392 18.4555L7.92623 21.1048C7.92623 21.1456 7.91003 21.1847 7.88118 21.2135C7.85233 21.2424 7.81319 21.2586 7.77239 21.2586C7.73158 21.2586 7.69246 21.2424 7.66361 21.2135C7.63476 21.1847 7.61854 21.1456 7.61854 21.1048L7.46777 18.4555L7.61854 15.954C7.61854 15.8802 7.69546 15.8032 7.84623 15.8032C7.8869 15.8039 7.92585 15.8197 7.95545 15.8476C7.98505 15.8755 8.00317 15.9135 8.00623 15.954Z" fill="white"/>
<path fill-rule="evenodd" clip-rule="evenodd" d="M8.99386 14.3627L9.21847 18.455L8.99386 21.1042C8.99386 21.1811 8.91694 21.2581 8.76617 21.2581C8.72663 21.2551 8.6895 21.2379 8.66175 21.2096C8.634 21.1813 8.61752 21.1438 8.61538 21.1042L8.3877 18.455L8.61538 14.3627C8.61538 14.2888 8.68924 14.2119 8.84001 14.2119C8.87938 14.2147 8.91648 14.2314 8.94467 14.259C8.97286 14.2866 8.9903 14.3234 8.99386 14.3627Z" fill="white"/>
<path fill-rule="evenodd" clip-rule="evenodd" d="M10.0525 13.465L10.2801 18.465L10.0525 21.1142C10.0495 21.1736 10.0245 21.2298 9.98246 21.2719C9.94039 21.314 9.88419 21.3389 9.82476 21.3419C9.79378 21.3466 9.76213 21.344 9.73237 21.3342C9.7026 21.3244 9.67555 21.3077 9.6534 21.2856C9.63124 21.2634 9.61459 21.2364 9.60481 21.2066C9.59503 21.1768 9.59236 21.1452 9.59706 21.1142L9.44629 18.465L9.59706 13.465C9.59706 13.4046 9.62104 13.3467 9.66374 13.304C9.70644 13.2613 9.76438 13.2373 9.82476 13.2373C9.88515 13.2373 9.94306 13.2613 9.98576 13.304C10.0285 13.3467 10.0525 13.4046 10.0525 13.465Z" fill="white"/>
<path fill-rule="evenodd" clip-rule="evenodd" d="M11.0368 13.0005L11.1876 18.4558L11.0368 21.0312C11.0406 21.0631 11.0375 21.0955 11.0278 21.1261C11.0182 21.1568 11.0021 21.185 10.9808 21.209C10.9594 21.233 10.9332 21.2522 10.9039 21.2654C10.8746 21.2785 10.8428 21.2853 10.8107 21.2853C10.7785 21.2853 10.7468 21.2785 10.7175 21.2654C10.6881 21.2522 10.6619 21.233 10.6406 21.209C10.6192 21.185 10.6032 21.1568 10.5935 21.1261C10.5838 21.0955 10.5808 21.0631 10.5845 21.0312L10.4307 18.4558L10.5845 13.0005C10.5874 12.9415 10.6119 12.8857 10.6534 12.8437C10.6948 12.8017 10.7502 12.7765 10.8091 12.7728C10.8401 12.7681 10.8718 12.7707 10.9015 12.7805C10.9313 12.7903 10.9583 12.8069 10.9805 12.8291C11.0026 12.8512 11.0193 12.8783 11.0291 12.9081C11.0389 12.9378 11.0415 12.9695 11.0368 13.0005Z" fill="white"/>
<path fill-rule="evenodd" clip-rule="evenodd" d="M12.0212 12.8493L12.175 18.4554L12.0212 21.0308C12.0258 21.0615 12.0231 21.0928 12.0135 21.1223C12.0039 21.1518 11.9876 21.1787 11.9658 21.2008C11.944 21.2228 11.9173 21.2396 11.888 21.2496C11.8586 21.2596 11.8273 21.2627 11.7966 21.2585C11.7655 21.2631 11.7338 21.2603 11.7039 21.2506C11.674 21.2408 11.6468 21.2242 11.6245 21.2021C11.6021 21.1801 11.5852 21.1531 11.575 21.1234C11.5648 21.0936 11.5617 21.062 11.5658 21.0308L11.415 18.4554L11.5658 12.8493C11.5702 12.7898 11.596 12.7339 11.6384 12.6921C11.6809 12.6502 11.7371 12.6251 11.7966 12.6216C11.8552 12.6259 11.9103 12.6514 11.9516 12.6933C11.9929 12.7352 12.0176 12.7906 12.0212 12.8493Z" fill="white"/>
<path fill-rule="evenodd" clip-rule="evenodd" d="M13.1569 13.0001L13.3108 18.4555L13.1569 21.0309C13.1569 21.1125 13.1245 21.1907 13.0668 21.2484C13.0091 21.3061 12.9308 21.3385 12.8492 21.3385C12.7676 21.3385 12.6894 21.3061 12.6317 21.2484C12.574 21.1907 12.5415 21.1125 12.5415 21.0309L12.3877 18.4555L12.5415 13.0001C12.5415 12.9185 12.574 12.8402 12.6317 12.7825C12.6894 12.7248 12.7676 12.6924 12.8492 12.6924C12.9308 12.6924 13.0091 12.7248 13.0668 12.7825C13.1245 12.8402 13.1569 12.9185 13.1569 13.0001Z" fill="white"/>
<path fill-rule="evenodd" clip-rule="evenodd" d="M14.2183 13.1572L14.3691 18.4618L14.2183 20.9602C14.2183 21.0418 14.1859 21.1201 14.1282 21.1778C14.0705 21.2355 13.9922 21.2679 13.9106 21.2679C13.829 21.2679 13.7507 21.2355 13.693 21.1778C13.6353 21.1201 13.6029 21.0418 13.6029 20.9602L13.4521 18.4618L13.6029 13.231C13.6029 13.0033 13.6798 12.9233 13.9106 12.8525C13.9905 12.8562 14.0662 12.8894 14.123 12.9457C14.1799 13.0019 14.2138 13.0773 14.2183 13.1572Z" fill="white"/>
<path fill-rule="evenodd" clip-rule="evenodd" d="M15.2027 12.1661L15.3565 18.4553L15.2027 20.9538C15.2027 21.0354 15.1703 21.1136 15.1125 21.1713C15.0548 21.229 14.9766 21.2615 14.895 21.2615C14.8134 21.2615 14.7351 21.229 14.6774 21.1713C14.6197 21.1136 14.5873 21.0354 14.5873 20.9538L14.4365 18.4553L14.5873 12.1661C14.5873 12.0845 14.6197 12.0062 14.6774 11.9485C14.7351 11.8908 14.8134 11.8584 14.895 11.8584C14.9766 11.8584 15.0548 11.8908 15.1125 11.9485C15.1703 12.0062 15.2027 12.0845 15.2027 12.1661Z" fill="white"/>
<path fill-rule="evenodd" clip-rule="evenodd" d="M16.2642 11.6368L16.415 18.4552L16.2642 20.9537C16.2642 21.0353 16.2318 21.1136 16.1741 21.1713C16.1164 21.229 16.0381 21.2614 15.9565 21.2614C15.8749 21.2614 15.7966 21.229 15.7389 21.1713C15.6812 21.1136 15.6488 21.0353 15.6488 20.9537L15.498 18.4552L15.6488 11.6368C15.6488 11.486 15.7257 11.3291 15.8765 11.3291H15.9503C16.0316 11.332 16.1088 11.3652 16.1669 11.4221C16.2249 11.4791 16.2596 11.5556 16.2642 11.6368Z" fill="white"/>
<path fill-rule="evenodd" clip-rule="evenodd" d="M28.3081 18.3018C28.3056 19.1049 27.9856 19.8744 27.4177 20.4422C26.8498 21.0101 26.0804 21.3302 25.2773 21.3326H16.8712C16.7918 21.3012 16.7218 21.2498 16.6679 21.1836C16.614 21.1173 16.578 21.0383 16.5635 20.9541V11.3357C16.5635 11.108 16.6404 11.028 16.8712 10.9572C17.3844 10.7806 17.9199 10.6771 18.4619 10.6495H18.8404C20.1718 10.6417 21.4572 11.1364 22.4399 12.0347C23.4226 12.933 24.0304 14.1689 24.1419 15.4957C24.5004 15.3416 24.8873 15.2651 25.2773 15.271C26.0806 15.2727 26.8506 15.5925 27.4186 16.1605C27.9866 16.7286 28.3065 17.4985 28.3081 18.3018Z" fill="white"/>
</svg>
