<svg width="32" height="32" viewBox="0 0 32 32" fill="none" xmlns="http://www.w3.org/2000/svg">
<path d="M24.4209 14.0956C24.4209 14.271 24.3963 14.2802 24.2178 14.2802C23.6624 14.2751 23.1092 14.208 22.5686 14.0802C21.6442 13.866 20.7656 13.4877 19.9748 12.9633C19.9348 12.9356 19.8886 12.8771 19.8455 12.8986C19.8025 12.9202 19.8179 12.994 19.8179 13.0463C19.8179 15.2002 19.8179 17.354 19.8179 19.4894C19.8189 20.9951 19.2666 22.4487 18.2658 23.5737C17.2651 24.6987 15.8857 25.4166 14.3902 25.591C13.1897 25.7395 11.9723 25.5252 10.8948 24.9756C10.7147 24.8903 10.5435 24.7873 10.384 24.6679L10.2332 24.5356C10.1214 24.4768 10.0179 24.4033 9.92555 24.3171C9.26727 23.8059 8.72149 23.1644 8.32231 22.4328C7.92314 21.7011 7.67913 20.895 7.60555 20.0648C7.5794 19.7484 7.5794 19.4304 7.60555 19.114C7.64605 18.3905 7.81809 17.6805 8.11324 17.0186C8.44883 16.273 8.93093 15.6025 9.53088 15.047C10.1308 14.4914 10.8364 14.0622 11.6055 13.7848C12.1284 13.5949 12.6752 13.4789 13.2302 13.4402C13.6311 13.4094 14.0341 13.4187 14.4332 13.4679C14.4886 13.4679 14.5225 13.4833 14.5194 13.5479C14.5194 13.7725 14.5194 13.994 14.5194 14.2156C14.5194 14.2156 14.5532 15.911 14.5532 16.6771C14.5548 16.7038 14.5548 16.7305 14.5532 16.7571C14.5532 16.8371 14.5102 16.8617 14.4363 16.8402C14.2251 16.7842 14.0085 16.7512 13.7902 16.7417C13.4533 16.7225 13.116 16.7728 12.7994 16.8894C12.312 17.0562 11.8812 17.3564 11.5561 17.756C11.231 18.1556 11.0246 18.6385 10.9605 19.1496C10.8964 19.6607 10.9771 20.1796 11.1934 20.6471C11.4097 21.1146 11.7529 21.512 12.184 21.794C12.2609 21.8463 12.3409 21.8986 12.4117 21.9571L12.464 22.0063C12.6759 22.0969 12.8951 22.1689 13.1194 22.2217C13.4863 22.294 13.864 22.2919 14.2302 22.2158C14.5964 22.1397 14.9436 21.991 15.2513 21.7784C15.559 21.5659 15.8211 21.2939 16.022 20.9784C16.2229 20.663 16.3585 20.3105 16.4209 19.9417C16.446 19.783 16.4573 19.6224 16.4548 19.4617C16.4548 15.154 16.4548 10.8463 16.4548 6.53865C16.4548 6.33865 16.424 6.36326 16.624 6.36326H19.6794C19.7809 6.36326 19.784 6.36326 19.7809 6.46788C19.7986 6.74058 19.8336 7.0119 19.8855 7.28019C20.3132 9.46173 22.8548 10.794 23.6394 10.914C23.8542 10.9479 24.0712 10.9664 24.2886 10.9694C24.3809 10.9694 24.384 10.9694 24.384 11.0587C24.3871 11.2494 24.4209 13.3263 24.4209 14.0956Z" fill="white"/>
</svg>
