<svg width="32" height="32" viewBox="0 0 32 32" fill="none" xmlns="http://www.w3.org/2000/svg">
<path d="M25.978 19.994C25.9036 19.9984 25.8743 20.0603 25.8328 20.1028C25.0284 20.9143 24.0781 21.5679 23.0376 22.0294C20.4867 23.1572 17.8912 23.2362 15.2577 22.3294C15.0295 22.2461 14.7808 22.2378 14.5447 22.2961C14.1967 22.383 13.8522 22.4874 13.5077 22.5914C12.4957 22.9064 11.4623 23.0473 10.4056 22.8402C10.3313 22.8068 10.2767 22.7691 10.3645 22.6945C10.4183 22.6533 10.4764 22.6156 10.5345 22.5779C11.0775 22.2243 11.5877 21.8374 11.9242 21.2671C12.2062 20.7929 12.1603 20.5139 11.808 20.1647C9.84127 18.1912 8.97873 15.8316 9.41019 13.0438C9.6546 11.4707 10.372 10.1096 11.4172 8.92817C12.048 8.21266 12.7979 7.63368 13.6193 7.15152C13.6695 7.12294 13.7391 7.11382 13.7482 7.03921C13.7312 6.99794 13.7027 7.01064 13.6774 7.01064C12.2798 7.01064 10.8822 6.98207 9.48929 7.01857C8.15297 7.05985 7.00054 8.09599 7.0049 9.58176C7.0128 13.9216 7.0049 18.2626 7.0049 22.6072C7.0049 23.9557 8.02918 25.0835 9.36867 25.1335C10.5005 25.1791 11.6332 25.1414 12.7694 25.1379C12.8524 25.1422 12.9351 25.1458 13.0181 25.1458H19.0065C20.4998 25.1458 21.9923 25.1537 23.4857 25.1458C24.8706 25.1458 25.9946 24.0228 25.9946 22.6366V20.1766C25.995 20.1186 26.0155 20.0567 25.978 19.994ZM15.7485 16.232C15.72 15.9697 15.5409 15.8324 15.2091 15.828C14.7207 15.824 14.2338 15.826 13.7225 15.8268C13.6968 15.8268 13.6711 15.8268 13.6454 15.8268C13.5683 15.8268 13.4903 15.8268 13.412 15.8268C13.4627 15.7613 13.4963 15.7153 13.5263 15.6744L13.5267 15.674C13.5386 15.6582 13.5501 15.6427 13.5615 15.6276C14.1045 14.9371 14.6479 14.2458 15.1917 13.551C15.3491 13.3517 15.5065 13.147 15.6069 12.9065C15.7157 12.6497 15.6141 12.4081 15.3704 12.2954L15.3701 12.295C15.353 12.287 15.3352 12.2799 15.3171 12.2735C15.1929 12.2358 15.0604 12.2196 14.9271 12.2279C14.1892 12.2235 13.4464 12.2235 12.7081 12.2279C12.6045 12.2279 12.5005 12.2406 12.4012 12.2656C12.1687 12.3239 12.0283 12.5608 12.0864 12.7981C12.1275 12.9561 12.2521 13.0811 12.4103 13.1188C12.5096 13.1438 12.6136 13.1565 12.7172 13.1521C13.1653 13.1565 13.6173 13.1521 14.0646 13.1565C14.0685 13.1565 14.0725 13.1565 14.0764 13.1557H14.0768C14.1112 13.1529 14.1496 13.1402 14.1812 13.1593C14.1812 13.1593 14.1812 13.1593 14.1816 13.1593C14.1935 13.1668 14.2046 13.1787 14.2141 13.1974C14.1765 13.2478 14.1397 13.297 14.1021 13.343C13.4599 14.1581 12.8208 14.9788 12.1778 15.7939C12.0204 15.9979 11.9369 16.2221 12.0536 16.4725C12.1303 16.6376 12.2588 16.7134 12.4063 16.7507C12.4131 16.7523 12.4194 16.7538 12.4261 16.7554C12.4668 16.765 12.5092 16.7713 12.5523 16.7765C12.555 16.7769 12.5578 16.7773 12.561 16.7773C12.5894 16.7804 12.6183 16.7828 12.6472 16.7848C12.8378 16.7975 13.0328 16.7892 13.2277 16.7892C13.8997 16.7892 14.5672 16.7935 15.2391 16.7848C15.2917 16.784 15.3408 16.7788 15.3859 16.7693C15.3969 16.7669 15.4076 16.7646 15.4183 16.7618C15.6576 16.6975 15.779 16.5034 15.7485 16.232ZM19.2386 13.8295C19.2343 13.4966 18.9238 13.2847 18.5999 13.3509C18.4556 13.3815 18.3626 13.4672 18.28 13.5668C18.2733 13.5748 18.2669 13.5827 18.2606 13.5906C18.2543 13.5986 18.2479 13.6061 18.242 13.614C18.2357 13.622 18.2294 13.6299 18.2234 13.6383C18.2143 13.6303 18.2056 13.6228 18.1965 13.6148C18.1918 13.6109 18.1874 13.6073 18.1827 13.6033C18.1736 13.5958 18.1645 13.5887 18.1554 13.5815C18.1471 13.5748 18.1384 13.5684 18.1301 13.5617C17.6369 13.1827 17.0991 13.1751 16.5727 13.4883C16.4422 13.5648 16.3275 13.651 16.2278 13.7454C16.2267 13.7462 16.2259 13.7474 16.2247 13.7482C15.8086 14.145 15.6599 14.6883 15.726 15.2982C15.8047 16.0058 16.1116 16.584 16.8499 16.8209C17.3099 16.9709 17.7374 16.9169 18.1151 16.609C18.2143 16.53 18.244 16.5463 18.3136 16.634C18.4504 16.809 18.6865 16.8757 18.8942 16.7963C18.9547 16.7781 19.0092 16.7487 19.0563 16.711C19.0579 16.7098 19.0591 16.7086 19.0607 16.7074C19.1718 16.6161 19.2386 16.4772 19.2386 16.3257C19.2434 15.4939 19.2469 14.6617 19.2386 13.8295ZM18.0202 15.6609C17.979 15.7149 17.9335 15.7606 17.8833 15.7983C17.5808 16.0229 17.1533 15.9606 16.9294 15.6609C16.8211 15.5153 16.7629 15.3403 16.755 15.1574C16.7507 14.5712 17.0698 14.2172 17.5262 14.2462C17.7212 14.2506 17.9039 14.3458 18.0202 14.5085C18.2527 14.8244 18.2527 15.3451 18.0202 15.6609ZM24.6179 15.003C24.5859 14.0018 23.8705 13.3053 22.8743 13.2839C22.8663 13.2839 22.8584 13.2835 22.8505 13.2835C22.8323 13.2835 22.8141 13.2835 22.7959 13.2835C22.7829 13.2835 22.7695 13.2839 22.756 13.2843C22.0564 13.3053 21.5012 13.7093 21.2473 14.3216C21.2346 14.3518 21.2227 14.3823 21.2121 14.4133C21.2073 14.4272 21.2026 14.4407 21.1978 14.4546C21.1931 14.4684 21.1887 14.4823 21.1848 14.4966C21.1804 14.5105 21.1765 14.5248 21.1725 14.5391C21.1666 14.5605 21.161 14.5819 21.1555 14.6038C21.1519 14.6181 21.1488 14.6327 21.1452 14.6474C21.1405 14.6692 21.1357 14.6915 21.1318 14.7141C21.1045 14.8629 21.0922 15.0197 21.0974 15.1828C21.0962 15.2609 21.0997 15.3375 21.108 15.4121C21.1096 15.4268 21.1116 15.4411 21.1136 15.4554C21.1164 15.4768 21.1199 15.4982 21.1235 15.5197C21.1258 15.534 21.1286 15.5478 21.1314 15.5621C21.133 15.5693 21.1341 15.576 21.1357 15.5832C21.1389 15.5971 21.1421 15.6109 21.1452 15.6248C21.1519 15.6522 21.1591 15.6796 21.167 15.7066C21.1733 15.7284 21.18 15.7502 21.1875 15.7717C21.1978 15.8018 21.2085 15.8312 21.2204 15.8606C21.2255 15.8733 21.2306 15.8856 21.2362 15.8983C21.2449 15.9189 21.2544 15.9391 21.2639 15.9594C21.2738 15.9796 21.2836 15.9998 21.2943 16.0197C21.3149 16.059 21.3374 16.0971 21.3612 16.1344C21.6589 16.6019 22.1841 16.905 22.8011 16.911C22.8153 16.911 22.83 16.911 22.8446 16.911C22.8521 16.911 22.8592 16.911 22.8667 16.9106C22.9166 16.9094 22.9672 16.9062 23.0182 16.9011C24.0085 16.8011 24.6511 16.0562 24.6179 15.003ZM23.3896 15.6736C23.3528 15.7157 23.3152 15.757 23.2697 15.7903C22.9707 16.0237 22.544 15.9653 22.3158 15.6657C22.1917 15.4951 22.1296 15.2915 22.1379 15.0831C22.1379 14.5625 22.4539 14.2212 22.9004 14.2462C23.0953 14.2506 23.278 14.3502 23.3943 14.5085C23.63 14.8244 23.63 15.3574 23.3896 15.6736ZM20.7323 14.7177C20.7323 14.5966 20.7319 14.4756 20.7319 14.3549C20.7319 13.7057 20.7363 13.0521 20.7319 12.4021C20.7319 12.3969 20.7319 12.3918 20.7319 12.3866C20.7272 12.0604 20.5172 11.8572 20.2052 11.8616C20.0565 11.8636 19.9323 11.9136 19.8429 12.0009C19.8401 12.0037 19.8374 12.0065 19.8346 12.0092C19.7448 12.1013 19.693 12.2334 19.6907 12.3938C19.6863 12.5894 19.6907 12.7807 19.6907 12.9763V16.2848C19.6907 16.2971 19.691 16.3094 19.6914 16.3213C19.6914 16.3249 19.6918 16.3288 19.6922 16.3324C19.7084 16.5471 19.8334 16.7328 20.0015 16.8034C20.013 16.8082 20.0244 16.8126 20.0363 16.8161C20.0426 16.8181 20.0493 16.8201 20.0557 16.8217C20.3072 16.8912 20.5651 16.7677 20.6742 16.5419C20.6746 16.5411 20.675 16.5399 20.6758 16.5392C20.69 16.509 20.7019 16.4769 20.7106 16.4431C20.7232 16.3927 20.7312 16.3435 20.7276 16.2895C20.7347 15.7649 20.7331 15.2415 20.7323 14.7177Z" fill="#FDFEFE"/>
<path d="M12.7649 25.1411C11.633 25.1411 10.4968 25.1788 9.36417 25.1367C8.02429 25.0827 7 23.9549 7 22.61C7 18.2702 7.00791 13.9292 7 9.58457C7 8.0988 8.15677 7.06265 9.48835 7.02495C10.8816 6.98725 12.2788 7.01702 13.6765 7.01702C13.7014 7.01702 13.7346 7.00432 13.7473 7.04559C13.7393 7.12019 13.6642 7.12892 13.6183 7.15789C12.7977 7.64164 12.0471 8.21984 11.4163 8.93653C10.3758 10.1179 9.65366 11.4747 9.40965 13.0522C8.97858 15.8364 9.84547 18.2004 11.8066 20.1726C12.1547 20.5262 12.2001 20.8012 11.9229 21.2751C11.5875 21.8453 11.0766 22.2322 10.5332 22.5858C10.4751 22.6192 10.4169 22.6604 10.3588 22.6981C10.2722 22.7727 10.3256 22.8104 10.3999 22.8438C10.4169 22.8815 10.4375 22.9148 10.4624 22.9477C10.9394 23.3724 11.391 23.826 11.86 24.2585C12.0803 24.4625 12.2994 24.6752 12.5114 24.8871C12.5984 24.9661 12.7443 24.9911 12.7649 25.1411Z" fill="white"/>
<path d="M12.765 25.141C12.7444 24.9954 12.5992 24.9704 12.5118 24.8835C12.3007 24.6672 12.0808 24.4589 11.8605 24.2549C11.3915 23.8223 10.9398 23.3687 10.4629 22.9441C10.438 22.9108 10.4174 22.8778 10.4004 22.8402C11.4579 23.0485 12.4905 22.9064 13.5069 22.5949C13.8513 22.4909 14.195 22.3866 14.5438 22.2997C14.7799 22.237 15.0287 22.2493 15.2569 22.333C17.8864 23.2398 20.4819 23.1572 23.0367 22.033C24.0772 21.5715 25.0276 20.9214 25.832 20.1107C25.8731 20.0694 25.9027 20.0067 25.9771 20.002C26.0147 20.0603 25.9941 20.1222 25.9941 20.1853V22.6203C26.002 24.01 24.8907 25.1422 23.5057 25.1549H23.4852C21.9919 25.1629 20.4993 25.1549 19.006 25.1549H13.0137C12.9303 25.1446 12.848 25.141 12.765 25.141Z" fill="white"/>
<path d="M13.4112 15.827C14.0376 15.827 14.6261 15.8226 15.2114 15.827C15.5388 15.8313 15.7168 15.9686 15.7508 16.231C15.7884 16.5595 15.5978 16.7806 15.2407 16.7842C14.5687 16.7921 13.9012 16.7885 13.2293 16.7885C13.0343 16.7885 12.8437 16.7965 12.6487 16.7842C12.4078 16.7715 12.1717 16.7214 12.0555 16.4718C11.9392 16.2222 12.0223 15.9976 12.1797 15.7932C12.8183 14.9781 13.461 14.1575 14.104 13.3424C14.1416 13.292 14.1784 13.2428 14.216 13.1967C14.1748 13.1257 14.1167 13.159 14.0665 13.1554C13.6184 13.1511 13.1664 13.1554 12.7191 13.1511C12.6155 13.1511 12.5115 13.1384 12.4122 13.1177C12.1761 13.0638 12.031 12.8269 12.0847 12.5935C12.1223 12.4356 12.2465 12.3062 12.4043 12.2685C12.5035 12.2435 12.6076 12.2308 12.7112 12.2308C13.4491 12.2264 14.1918 12.2264 14.9302 12.2308C15.0627 12.2264 15.1916 12.2435 15.3201 12.2764C15.6021 12.3725 15.7227 12.6348 15.61 12.9094C15.5108 13.1463 15.3534 13.3503 15.1948 13.5539C14.6518 14.2487 14.1084 14.9392 13.5646 15.6262C13.5187 15.6813 13.4776 15.7353 13.4112 15.827Z" fill="white"/>
<path d="M19.2341 13.834C19.2298 13.5011 18.9229 13.2892 18.5954 13.3554C18.4574 13.3824 18.3629 13.4669 18.279 13.567C18.2723 13.5749 18.266 13.5828 18.2597 13.5908C18.2533 13.5987 18.247 13.6062 18.2411 13.6142C18.2348 13.6221 18.2284 13.63 18.2225 13.6384C18.2134 13.6304 18.2047 13.6229 18.1956 13.615C18.1909 13.611 18.1865 13.6074 18.1818 13.6035C18.1727 13.5959 18.1636 13.5888 18.1545 13.5816C18.1462 13.5749 18.1375 13.5685 18.1292 13.5618C17.6352 13.1828 17.0981 13.1765 16.5682 13.4927C16.4393 13.5681 16.3258 13.6531 16.2269 13.7455C16.2257 13.7463 16.2249 13.7475 16.2237 13.7483C15.803 14.1448 15.6515 14.6868 15.7215 15.3027C15.8045 16.0055 16.1071 16.5837 16.8454 16.8254C17.3062 16.9754 17.7329 16.9214 18.1106 16.6135C18.2098 16.5345 18.2387 16.5516 18.3091 16.6385C18.4459 16.8179 18.682 16.8802 18.8897 16.8008C18.9514 16.7818 19.0075 16.7508 19.0554 16.7107C19.057 16.7095 19.0581 16.7083 19.0597 16.7071C19.1673 16.6155 19.2341 16.479 19.2341 16.3301C19.2424 15.4988 19.2468 14.6662 19.2341 13.834ZM17.5253 14.2463C17.7202 14.2507 17.9029 14.3459 18.0192 14.5087C18.2518 14.8245 18.2518 15.3456 18.0192 15.6615C17.9781 15.7154 17.9326 15.7611 17.8824 15.7988C17.5798 16.0234 17.1523 15.9611 16.9285 15.6615C16.8201 15.5158 16.762 15.3408 16.7541 15.1579C16.7497 14.5714 17.0689 14.2174 17.5253 14.2463ZM24.6213 15.0031C24.5893 14.0011 23.8719 13.3035 22.8733 13.284C22.8654 13.284 22.8575 13.2836 22.8496 13.2836C22.8314 13.2836 22.8132 13.2836 22.795 13.2836C22.7831 13.2836 22.7713 13.284 22.7594 13.2844C22.0563 13.3054 21.5006 13.7094 21.2459 14.3217C21.2333 14.3519 21.2214 14.3825 21.2107 14.4134C21.206 14.4273 21.2012 14.4408 21.1965 14.4547C21.1917 14.4686 21.1874 14.4825 21.1834 14.4967C21.1791 14.5106 21.1751 14.5249 21.1712 14.5392C21.1652 14.5606 21.1597 14.5821 21.1542 14.6039C21.1506 14.6182 21.1474 14.6329 21.1439 14.6475C21.1391 14.6694 21.1344 14.6916 21.1304 14.7142C21.1032 14.863 21.0909 15.0198 21.096 15.1829C21.0949 15.2611 21.0984 15.3377 21.1067 15.4123C21.1083 15.4269 21.1103 15.4412 21.1123 15.4555C21.115 15.4769 21.1186 15.4984 21.1221 15.5198C21.1245 15.5341 21.1273 15.548 21.13 15.5623C21.1316 15.5694 21.1328 15.5762 21.1344 15.5833C21.1376 15.5972 21.1407 15.6111 21.1439 15.625C21.1506 15.6523 21.1577 15.6797 21.1656 15.7067C21.172 15.7285 21.1787 15.7504 21.1862 15.7718C21.1965 15.802 21.2072 15.8313 21.219 15.8607C21.2242 15.8734 21.2293 15.8857 21.2349 15.8984C21.2436 15.919 21.253 15.9397 21.2625 15.9595C21.2724 15.9797 21.2823 16 21.293 16.0198C21.3139 16.0591 21.3361 16.0972 21.3598 16.1345C21.6576 16.6012 22.182 16.904 22.7998 16.9111C22.814 16.9111 22.8286 16.9111 22.8433 16.9111C22.8508 16.9111 22.8579 16.9111 22.8654 16.9107C22.9168 16.9095 22.969 16.9064 23.0216 16.9012C24.0123 16.8004 24.6546 16.0563 24.6213 15.0031ZM22.3149 15.6658C22.1907 15.4952 22.1286 15.2916 22.1369 15.0833C22.1369 14.5626 22.4529 14.2213 22.8994 14.2463C23.0944 14.2507 23.2771 14.3503 23.3934 14.5087C23.6295 14.8245 23.6295 15.3579 23.389 15.6742C23.3522 15.7162 23.3147 15.7575 23.2692 15.7908C22.9698 16.0238 22.5431 15.9655 22.3149 15.6658ZM20.7314 14.7178C20.7314 14.5968 20.731 14.4757 20.731 14.3551C20.731 13.7058 20.7354 13.0523 20.731 12.4022C20.731 12.3971 20.731 12.3919 20.731 12.3868C20.7247 12.0625 20.5143 11.8609 20.2042 11.8653C20.0555 11.8653 19.9314 11.9141 19.842 12.001C19.8392 12.0038 19.8364 12.0066 19.8337 12.0094C19.7439 12.1014 19.6921 12.2336 19.6897 12.3939C19.6854 12.5895 19.6897 12.7808 19.6897 12.9765V16.2849C19.6897 16.2972 19.6901 16.3095 19.6905 16.3214C19.6905 16.325 19.6909 16.329 19.6913 16.3325C19.7075 16.5508 19.8325 16.7333 20.0006 16.8036C20.012 16.8083 20.0235 16.8127 20.0354 16.8163C20.0417 16.8183 20.0484 16.8202 20.0547 16.8218C20.105 16.8345 20.1584 16.8389 20.2086 16.8389C20.4127 16.8333 20.5871 16.7135 20.6733 16.5421C20.6737 16.5413 20.6741 16.5401 20.6749 16.5393C20.712 16.4643 20.7326 16.3794 20.7314 16.2897C20.735 15.7658 20.7326 15.2416 20.7314 14.7178Z" fill="white"/>
</svg>
