<svg width="20" height="20" viewBox="0 0 20 20" fill="none" xmlns="http://www.w3.org/2000/svg">
<path d="M11.0687 3.16896L12.4611 5.95379C12.651 6.34146 13.1573 6.71329 13.5845 6.7845L16.1083 7.20381C17.7222 7.47279 18.1019 8.64369 16.939 9.79876L14.9769 11.7608C14.6446 12.0931 14.4627 12.7339 14.5655 13.1928L15.1272 15.6216C15.5703 17.5441 14.5497 18.2878 12.8487 17.283L10.4832 15.8827C10.056 15.6295 9.35188 15.6295 8.91675 15.8827L6.55122 17.283C4.85817 18.2878 3.82968 17.5362 4.27272 15.6216L4.83443 13.1928C4.93728 12.7339 4.75532 12.0931 4.42304 11.7608L2.461 9.79876C1.30592 8.64369 1.67776 7.47279 3.2917 7.20381L5.81546 6.7845C6.23476 6.71329 6.7411 6.34146 6.93097 5.95379L8.32339 3.16896C9.08289 1.65787 10.3171 1.65787 11.0687 3.16896Z" fill="#EF7A57"/>
</svg>
