<svg width="20" height="20" viewBox="0 0 20 20" fill="none" xmlns="http://www.w3.org/2000/svg">
<path fill-rule="evenodd" clip-rule="evenodd" d="M9.9968 0C10.9696 0 11.7389 0.734965 12.2311 1.73184L14.679 5.63525L17.6457 6.13198C18.7146 6.31151 19.6145 6.83545 19.9074 7.75365C20.2006 8.67305 19.7702 9.62588 19 10.3972L18.999 10.3982L16.6943 12.7208C16.6035 12.8123 16.5018 12.9846 16.438 13.2091C16.3747 13.4323 16.3693 13.6347 16.3977 13.7645L16.3981 13.7664L17.0575 16.6395C17.3314 17.8376 17.2407 19.0283 16.3946 19.6499C15.5497 20.2706 14.3954 19.9963 13.3441 19.3704L10.5631 17.7114C10.4458 17.6414 10.2444 17.5847 10.0015 17.5847C9.76022 17.5847 9.55461 17.6406 9.42978 17.7132L9.42803 17.7142L6.65252 19.3701C5.60244 19.9981 4.44957 20.2675 3.60458 19.6462C2.75907 19.0245 2.66373 17.836 2.93859 16.6389L3.59783 13.7664L3.59823 13.7645C3.62664 13.6347 3.62128 13.4323 3.55788 13.2091C3.4941 12.9846 3.3924 12.8123 3.30163 12.7208L0.995222 10.3965C0.229825 9.62513 -0.199316 8.67304 0.091605 7.75492C0.382737 6.83614 1.28101 6.31157 2.35062 6.13192L5.31487 5.63561L5.31586 5.63544C5.42554 5.61641 5.59663 5.54429 5.773 5.41251C5.94997 5.28027 6.06742 5.13641 6.11655 5.03533L6.11909 5.03017L7.75655 1.72982C8.25335 0.73371 9.02509 0 9.9968 0ZM7.36799 5.65655L9.00299 2.36116C9.3989 1.56764 9.7991 1.40584 9.99682 1.40584C10.1933 1.40584 10.591 1.56562 10.9824 2.35853L12.6187 5.6566C12.793 6.01373 13.0843 6.319 13.3852 6.54276C13.6874 6.76744 14.0628 6.95698 14.45 7.02202L17.4167 7.51875C18.2447 7.6579 18.5165 7.98678 18.5793 8.18385C18.6417 8.37936 18.6123 8.80384 18.016 9.4007L18.0143 9.40239L15.7079 11.7267C15.4081 12.0289 15.2075 12.4329 15.0969 12.8223C14.9862 13.2119 14.9448 13.66 15.0369 14.0739L15.6981 16.9552C15.945 18.0347 15.6962 18.4232 15.5728 18.5139C15.4482 18.6054 15.0019 18.7244 14.0541 18.1604L11.274 16.5018C10.8891 16.272 10.4257 16.1788 10.0015 16.1788C9.57655 16.1788 9.11335 16.2723 8.7265 16.4991L5.9406 18.1611C5.00047 18.7233 4.55373 18.6038 4.42687 18.5105C4.30055 18.4177 4.05181 18.0267 4.29772 16.9558L4.95804 14.0785L4.95908 14.0739C5.05112 13.66 5.00973 13.2119 4.89904 12.8223C4.78845 12.4329 4.58789 12.0289 4.28807 11.7267L1.98166 9.40239C1.38925 8.80538 1.35804 8.37975 1.42052 8.18257C1.48278 7.98608 1.75229 7.65773 2.57962 7.51869L5.54598 7.02202L5.54844 7.0216C5.9317 6.95602 6.30416 6.76575 6.60389 6.54179C6.90276 6.31847 7.19376 6.01348 7.36799 5.65655Z" fill="#E9AE3D"/>
<path fill-rule="evenodd" clip-rule="evenodd" d="M8.47015 7.89008L9.42049 5.97255C9.65062 5.51082 9.88323 5.41667 9.99816 5.41667C10.1124 5.41667 10.3435 5.50964 10.571 5.97102L11.5221 7.89011C11.6235 8.09792 11.7928 8.27555 11.9677 8.40575C12.1433 8.53649 12.3615 8.64678 12.5866 8.68463L14.311 8.97366C14.7923 9.05464 14.9502 9.246 14.9868 9.36067C15.023 9.47444 15.0059 9.72144 14.6593 10.0687L14.6583 10.0697L13.3177 11.4222C13.1435 11.598 13.0269 11.8331 12.9626 12.0597C12.8983 12.2864 12.8742 12.5472 12.9277 12.788L13.312 14.4646C13.4555 15.0927 13.3109 15.3188 13.2392 15.3715C13.1668 15.4248 12.9074 15.494 12.3565 15.1658L10.7405 14.2008C10.5168 14.067 10.2474 14.0128 10.0009 14.0128C9.75388 14.0128 9.48464 14.0672 9.25978 14.1992L7.64047 15.1663C7.09403 15.4934 6.83436 15.4239 6.76062 15.3696C6.68719 15.3156 6.54261 15.0881 6.68555 14.4649L7.06936 12.7907L7.06996 12.788C7.12346 12.5472 7.0994 12.2864 7.03507 12.0597C6.97079 11.8331 6.85421 11.598 6.67994 11.4222L5.33933 10.0697C4.995 9.72234 4.97686 9.47467 5.01317 9.35993C5.04936 9.2456 5.20601 9.05453 5.6869 8.97363L7.4111 8.68463L7.41253 8.68438C7.6353 8.64622 7.85179 8.53551 8.02601 8.40519C8.19973 8.27524 8.36888 8.09778 8.47015 7.89008Z" fill="#E9AE3D"/>
</svg>
