<svg width="16" height="17" viewBox="0 0 16 17" fill="none" xmlns="http://www.w3.org/2000/svg">
<path d="M7.04894 3.68584C7.3483 2.76453 8.6517 2.76453 8.95106 3.68584L9.5716 5.59567C9.70547 6.00769 10.0894 6.28665 10.5227 6.28665H12.5308C13.4995 6.28665 13.9023 7.52627 13.1186 8.09567L11.494 9.27601C11.1435 9.53065 10.9968 9.98202 11.1307 10.394L11.7512 12.3039C12.0506 13.2252 10.9961 13.9913 10.2124 13.4219L8.58778 12.2416C8.2373 11.9869 7.7627 11.9869 7.41221 12.2416L5.78761 13.4219C5.0039 13.9913 3.94942 13.2252 4.24878 12.3039L4.86932 10.394C5.00319 9.98202 4.85653 9.53065 4.50604 9.27601L2.88144 8.09567C2.09773 7.52627 2.50051 6.28665 3.46923 6.28665H5.47735C5.91057 6.28665 6.29453 6.00769 6.4284 5.59567L7.04894 3.68584Z" fill="url(#paint0_linear_1885_27262)"/>
<defs>
<linearGradient id="paint0_linear_1885_27262" x1="16" y1="8.8888" x2="3.77492e-08" y2="8.8888" gradientUnits="userSpaceOnUse">
<stop stop-color="#025436"/>
<stop offset="1" stop-color="#053725"/>
</linearGradient>
</defs>
</svg>
