<svg width="24" height="24" viewBox="0 0 24 24" fill="none" xmlns="http://www.w3.org/2000/svg">
<g clip-path="url(#clip0_1885_23909)">
<path d="M11.8765 24.0004C11.079 23.4783 10.2789 22.9597 9.48541 22.4315C9.32127 22.322 9.16518 22.2772 8.96328 22.2913C8.09677 22.3526 7.22825 22.3923 6.36073 22.4436C6.06619 22.4607 5.87586 22.332 5.74546 22.0707C5.35525 21.2883 4.96052 20.5079 4.5542 19.7335C4.49076 19.6129 4.37646 19.4953 4.25663 19.4325C3.50894 19.041 2.75924 18.652 1.99645 18.2902C1.63897 18.1204 1.50756 17.8837 1.53777 17.4942C1.60272 16.653 1.643 15.8098 1.67774 14.9665C1.68328 14.8304 1.64099 14.6716 1.56748 14.5565C1.10023 13.8258 0.624434 13.1002 0.138059 12.3821C-0.0502469 12.1042 -0.0437015 11.8619 0.144101 11.5861C0.636517 10.8624 1.11685 10.1308 1.59215 9.39557C1.65408 9.29958 1.69134 9.16541 1.6863 9.05134C1.64703 8.18499 1.60373 7.31813 1.5418 6.45329C1.51612 6.09349 1.64149 5.86635 1.96977 5.70755C2.75068 5.32965 3.52304 4.93366 4.29288 4.53466C4.39459 4.48189 4.49227 4.3834 4.54463 4.28189C4.94742 3.50549 5.34468 2.72658 5.73036 1.94164C5.88191 1.63309 6.10244 1.51399 6.44431 1.53811C7.33448 1.60093 8.22567 1.64766 9.11735 1.68937C9.21553 1.6939 9.32882 1.64465 9.41492 1.58937C10.1495 1.11248 10.8841 0.63508 11.6086 0.14311C11.8856 -0.0448341 12.1272 -0.0493568 12.4057 0.139592C13.1111 0.618496 13.829 1.0778 14.5359 1.55419C14.6935 1.66023 14.8436 1.70244 15.0364 1.68937C15.911 1.63108 16.7871 1.59239 17.6626 1.54264C17.9582 1.52605 18.146 1.65771 18.2754 1.91852C18.6686 2.70849 19.0679 3.49544 19.4757 4.27737C19.5321 4.38491 19.6363 4.48893 19.7441 4.54521C20.5069 4.9417 21.2767 5.32463 22.044 5.71257C22.4398 5.91258 22.5012 6.0357 22.4735 6.47138C22.4176 7.35281 22.3683 8.23423 22.326 9.11616C22.3215 9.20712 22.3693 9.31215 22.4211 9.39205C22.9443 10.1981 23.4734 11.0001 24.0006 11.8037V12.2258C23.9669 12.2655 23.9281 12.3017 23.8994 12.3449C23.4115 13.0801 22.9196 13.8127 22.4433 14.5555C22.3663 14.6761 22.3189 14.8424 22.3245 14.9846C22.3597 15.8505 22.407 16.7163 22.4655 17.5807C22.4871 17.9038 22.3708 18.1103 22.0783 18.253C21.3069 18.6309 20.5396 19.0179 19.7788 19.4169C19.6459 19.4867 19.5165 19.6134 19.4465 19.746C19.0427 20.5119 18.6515 21.2848 18.2683 22.0617C18.1238 22.3551 17.9093 22.4627 17.5891 22.4411C16.6919 22.3808 15.7932 22.3325 14.8949 22.2858C14.8164 22.2818 14.7227 22.3074 14.6568 22.3506C13.8215 22.8969 12.9902 23.4486 12.1579 23.9994H11.876L11.8765 24.0004ZM15.98 21.3441V21.3451C16.4099 21.3697 16.8399 21.3873 17.2689 21.4214C17.4265 21.434 17.5035 21.3822 17.573 21.2405C17.9245 20.5259 18.2925 19.8199 18.6449 19.1058C18.7537 18.8852 18.9042 18.7299 19.1273 18.6209C19.8297 18.2782 20.5205 17.9118 21.2259 17.5756C21.4262 17.4802 21.4675 17.3666 21.4529 17.1626C21.3975 16.3676 21.3638 15.5711 21.3135 14.7756C21.2994 14.5535 21.3573 14.3675 21.4811 14.1836C21.9312 13.5168 22.3668 12.8394 22.8194 12.174C22.9151 12.0333 22.9045 11.9388 22.8139 11.8047C22.3718 11.1509 21.9448 10.487 21.5018 9.83376C21.3638 9.62974 21.2979 9.42421 21.314 9.17647C21.3663 8.38097 21.4016 7.58497 21.4539 6.78948C21.4655 6.6141 21.4338 6.51209 21.2576 6.42716C20.5325 6.07791 19.8115 5.7186 19.1026 5.33769C18.9299 5.24472 18.7648 5.07889 18.6716 4.90653C18.2975 4.21254 17.9431 3.5075 17.6032 2.79643C17.5076 2.59592 17.3928 2.5517 17.1883 2.56577C16.3918 2.62055 15.5943 2.65573 14.7973 2.70698C14.5747 2.72105 14.3884 2.66075 14.2046 2.53713C13.536 2.08787 12.8578 1.65319 12.1912 1.20193C12.0507 1.10695 11.956 1.11298 11.8201 1.20494C11.1525 1.6552 10.4753 2.09189 9.80663 2.54115C9.62236 2.66477 9.43405 2.72055 9.21201 2.70648C8.39182 2.65522 7.57062 2.61653 6.75043 2.56326C6.59536 2.55321 6.51631 2.59693 6.44632 2.73965C6.08784 3.4683 5.71273 4.18842 5.35223 4.91557C5.25355 5.11507 5.11509 5.25126 4.9152 5.34975C4.18614 5.70956 3.46464 6.08344 2.73558 6.44224C2.60266 6.50756 2.55634 6.58043 2.5659 6.72767C2.61726 7.5307 2.65401 8.33474 2.70789 9.13777C2.72501 9.39205 2.66811 9.60662 2.52411 9.81919C2.076 10.478 1.64703 11.1504 1.19842 11.8092C1.10225 11.9504 1.1098 12.0444 1.20244 12.1805C1.6279 12.8077 2.03069 13.4509 2.4652 14.0715C2.6671 14.36 2.72702 14.652 2.70034 14.9952C2.64193 15.7349 2.61676 16.4776 2.56641 17.2178C2.55483 17.3902 2.60266 17.4797 2.76277 17.5575C3.48729 17.9083 4.20225 18.2792 4.92477 18.6334C5.12516 18.7314 5.2616 18.8696 5.35979 19.0691C5.71223 19.7832 6.0823 20.4888 6.43021 21.2049C6.51631 21.3822 6.62053 21.4285 6.80783 21.4159C7.61996 21.3616 8.4326 21.3114 9.24625 21.2843C9.41995 21.2782 9.62085 21.338 9.76938 21.431C10.4446 21.8556 11.1092 22.2968 11.7677 22.7466C11.9394 22.8637 12.0562 22.8798 12.2385 22.7541C12.888 22.3054 13.5476 21.8697 14.2182 21.4526C14.3854 21.3486 14.6079 21.2928 14.8068 21.2878C15.197 21.2787 15.5882 21.3214 15.979 21.3431L15.98 21.3441Z" fill="#15852B" stroke="#15852B" stroke-width="0.3"/>
<path d="M12.0169 4.51953C16.1541 4.5331 19.5069 7.88694 19.4953 11.9996C19.4832 16.1248 16.1108 19.4827 12.0008 19.4646C7.85656 19.4465 4.52042 16.1203 4.52344 11.9835C4.52646 7.84573 7.90188 4.50647 12.0174 4.52003L12.0169 4.51953ZM18.4984 11.9981C18.51 8.44323 15.5887 5.52206 12.0174 5.51654C8.44766 5.51101 5.53395 8.41408 5.52589 11.984C5.51784 15.5459 8.42954 18.459 12.0033 18.4645C15.5731 18.4701 18.4873 15.569 18.4984 11.9981Z" fill="#15852B" stroke="#15852B" stroke-width="0.3"/>
<path d="M11.0895 13.1489C11.158 13.0866 11.227 13.0248 11.2944 12.9614C12.3926 11.9267 13.4877 10.889 14.5913 9.86138C14.7041 9.75635 14.8627 9.67494 15.0127 9.64228C15.2131 9.59856 15.3758 9.71062 15.476 9.88902C15.5726 10.0614 15.5616 10.2358 15.4478 10.3966C15.3944 10.4724 15.3269 10.5398 15.2595 10.6036C14.0254 11.7674 12.7908 12.9303 11.5553 14.0921C11.165 14.459 10.937 14.4514 10.5624 14.0675C9.9617 13.4519 9.36103 12.8373 8.76188 12.2202C8.69139 12.1479 8.6214 12.072 8.56703 11.9876C8.43964 11.7891 8.47036 11.5504 8.63349 11.3865C8.80266 11.2167 9.05189 11.19 9.2548 11.3282C9.33133 11.3805 9.39628 11.4504 9.46526 11.5132C10.0246 12.0257 10.5835 12.5388 11.1424 13.0514L11.0895 13.1474V13.1489Z" fill="#15852B" stroke="#15852B" stroke-width="0.3"/>
</g>
<defs>
<clipPath id="clip0_1885_23909">
<rect width="24" height="24" fill="white"/>
</clipPath>
</defs>
</svg>
