<svg width="24" height="25" viewBox="0 0 24 25" fill="none" xmlns="http://www.w3.org/2000/svg">
<path d="M6.87891 19.4001C6.46891 19.4001 6.12891 19.0601 6.12891 18.6501V16.5801C6.12891 16.1701 6.46891 15.8301 6.87891 15.8301C7.28891 15.8301 7.62891 16.1701 7.62891 16.5801V18.6501C7.62891 19.0701 7.28891 19.4001 6.87891 19.4001Z" fill="#15852B"/>
<path d="M12 19.4C11.59 19.4 11.25 19.06 11.25 18.65V14.5C11.25 14.09 11.59 13.75 12 13.75C12.41 13.75 12.75 14.09 12.75 14.5V18.65C12.75 19.07 12.41 19.4 12 19.4Z" fill="#15852B"/>
<path d="M17.1211 19.3997C16.7111 19.3997 16.3711 19.0597 16.3711 18.6497V12.4297C16.3711 12.0197 16.7111 11.6797 17.1211 11.6797C17.5311 11.6797 17.8711 12.0197 17.8711 12.4297V18.6497C17.8711 19.0697 17.5411 19.3997 17.1211 19.3997Z" fill="#15852B"/>
<path d="M6.88154 13.6804C6.54154 13.6804 6.24154 13.4504 6.15154 13.1104C6.05154 12.7104 6.29154 12.3004 6.70154 12.2004C10.3815 11.2804 13.6215 9.27041 16.0915 6.40041L16.5515 5.86041C16.8215 5.55041 17.2915 5.51041 17.6115 5.78041C17.9215 6.05041 17.9615 6.52041 17.6915 6.84041L17.2315 7.38041C14.5615 10.5004 11.0415 12.6704 7.06154 13.6604C7.00154 13.6804 6.94154 13.6804 6.88154 13.6804Z" fill="#15852B"/>
<path d="M17.1214 10.0196C16.7114 10.0196 16.3714 9.67961 16.3714 9.26961V7.09961H14.1914C13.7814 7.09961 13.4414 6.75961 13.4414 6.34961C13.4414 5.93961 13.7814 5.59961 14.1914 5.59961H17.1214C17.5314 5.59961 17.8714 5.93961 17.8714 6.34961V9.27961C17.8714 9.68961 17.5414 10.0196 17.1214 10.0196Z" fill="#15852B"/>
<path d="M15 23.25H9C3.57 23.25 1.25 20.93 1.25 15.5V9.5C1.25 4.07 3.57 1.75 9 1.75H15C20.43 1.75 22.75 4.07 22.75 9.5V15.5C22.75 20.93 20.43 23.25 15 23.25ZM9 3.25C4.39 3.25 2.75 4.89 2.75 9.5V15.5C2.75 20.11 4.39 21.75 9 21.75H15C19.61 21.75 21.25 20.11 21.25 15.5V9.5C21.25 4.89 19.61 3.25 15 3.25H9Z" fill="#15852B"/>
</svg>
