<svg width="24" height="25" viewBox="0 0 24 25" fill="none" xmlns="http://www.w3.org/2000/svg">
<path fill-rule="evenodd" clip-rule="evenodd" d="M11.9992 3.25C8.54743 3.25 5.74921 6.04822 5.74921 9.5C5.74921 12.9518 8.54743 15.75 11.9992 15.75C15.451 15.75 18.2492 12.9518 18.2492 9.5C18.2492 6.04822 15.451 3.25 11.9992 3.25ZM4.24921 9.5C4.24921 5.21979 7.71901 1.75 11.9992 1.75C16.2794 1.75 19.7492 5.21979 19.7492 9.5C19.7492 10.441 19.5815 11.3428 19.2744 12.1772L21.5616 14.5454C21.8189 14.8118 22.0333 15.0338 22.1934 15.2187C22.3512 15.4009 22.5129 15.6092 22.6084 15.8513C22.9418 16.6961 22.6736 17.6959 21.8694 18.1883C21.6382 18.3298 21.3748 18.3885 21.1484 18.4264C20.9168 18.4652 20.6226 18.4963 20.2755 18.533L20.2522 18.5355C19.793 18.584 19.7058 18.5995 19.6465 18.6222C19.4684 18.6905 19.3221 18.8359 19.2497 19.0386C19.2242 19.1099 19.2086 19.2116 19.1621 19.6831L19.1599 19.7053C19.1243 20.0664 19.0944 20.369 19.0573 20.6065C19.0212 20.8379 18.9662 21.101 18.8342 21.3321C18.3649 22.154 17.3755 22.4623 16.5173 22.0992C16.2757 21.997 16.0713 21.8259 15.8966 21.6637C15.7179 21.4978 15.5035 21.2758 15.2463 21.0095L15.2267 20.9892L11.9992 17.5893L8.76725 20.9939L8.7521 21.0095C8.49489 21.2758 8.28054 21.4978 8.10183 21.6637C7.92716 21.8259 7.72269 21.997 7.48111 22.0992C6.62292 22.4623 5.63354 22.154 5.1642 21.3321C5.03224 21.101 4.97721 20.8379 4.94108 20.6065C4.904 20.369 4.87415 20.0664 4.83853 19.7053L4.83634 19.6831C4.78982 19.2116 4.77425 19.1099 4.74875 19.0386C4.67629 18.8359 4.53 18.6905 4.35188 18.6222C4.29263 18.5995 4.20539 18.584 3.74622 18.5355L3.72295 18.533C3.3758 18.4963 3.0816 18.4652 2.85006 18.4264C2.62364 18.3885 2.36024 18.3298 2.12901 18.1883C1.32482 17.6959 1.0566 16.6961 1.39 15.8513C1.48554 15.6092 1.64724 15.4009 1.805 15.2187C1.96516 15.0338 2.17951 14.8118 2.43688 14.5453L4.72406 12.1772C4.41691 11.3428 4.24921 10.441 4.24921 9.5ZM5.4268 13.6088L3.53074 15.572C3.25463 15.8578 3.06909 16.0503 2.93891 16.2007C2.81692 16.3415 2.78842 16.396 2.78542 16.4018C2.69514 16.6307 2.78479 16.8246 2.90382 16.9036C2.91274 16.9065 2.96363 16.9246 3.09773 16.947C3.27891 16.9773 3.52725 17.0039 3.90399 17.0438C3.92918 17.0464 3.95418 17.0491 3.97898 17.0517C4.31811 17.0871 4.62051 17.1188 4.88875 17.2216C5.48775 17.4512 5.94596 17.9316 6.16118 18.5336C6.25745 18.8028 6.28712 19.1065 6.32173 19.4608C6.32415 19.4855 6.3266 19.5106 6.32909 19.5358C6.36748 19.9249 6.3934 20.1848 6.42312 20.3751C6.44857 20.538 6.46905 20.5902 6.46977 20.5934C6.54958 20.7277 6.71363 20.7942 6.89467 20.7185C6.89467 20.7185 6.94468 20.6912 7.08125 20.5644C7.22588 20.4301 7.41109 20.2388 7.68601 19.9541L7.68828 19.9518L10.4083 17.0865C8.31239 16.6493 6.52726 15.3654 5.4268 13.6088ZM13.5902 17.0865C15.686 16.6493 17.4712 15.3654 18.5716 13.6088L20.4677 15.572C20.7438 15.8578 20.9293 16.0503 21.0595 16.2007C21.1815 16.3415 21.21 16.396 21.213 16.4018C21.3033 16.6307 21.2136 16.8246 21.0946 16.9036C21.0857 16.9065 21.0348 16.9246 20.9007 16.947C20.7195 16.9773 20.4712 17.0039 20.0944 17.0438C20.0692 17.0464 20.0442 17.0491 20.0194 17.0517C19.6803 17.0871 19.3779 17.1188 19.1097 17.2216C18.5107 17.4512 18.0525 17.9316 17.8372 18.5336C17.741 18.8028 17.7113 19.1065 17.6767 19.4608C17.6743 19.4855 17.6718 19.5106 17.6693 19.5358C17.6309 19.9249 17.605 20.1848 17.5753 20.3751C17.5499 20.538 17.5294 20.5902 17.5287 20.5934C17.4486 20.7282 17.2836 20.7946 17.1018 20.7177L17.1039 20.7186C17.1039 20.7186 17.0537 20.6912 16.9172 20.5644C16.7725 20.4301 16.5873 20.2388 16.3124 19.9541L16.3101 19.9518L13.5902 17.0865ZM11.9992 7.53449C11.9411 7.63513 11.8764 7.75103 11.8003 7.88769L11.7019 8.06405C11.695 8.0765 11.6876 8.09009 11.6796 8.10466C11.6011 8.24827 11.471 8.4861 11.2542 8.65071C11.0328 8.81877 10.7665 8.87659 10.6108 8.9104C10.5952 8.91379 10.5807 8.91693 10.5675 8.91992L10.3766 8.96312C10.2014 9.00275 10.0587 9.03509 9.93671 9.06575C10.0161 9.16345 10.1192 9.28474 10.2532 9.44154L10.3834 9.59372C10.3926 9.60452 10.4027 9.61609 10.4134 9.6284C10.5213 9.75273 10.6956 9.95346 10.7761 10.2126C10.8558 10.4687 10.8283 10.7324 10.811 10.8988C10.8092 10.9154 10.8076 10.931 10.8062 10.9456L10.7865 11.1487C10.7683 11.3369 10.7541 11.4872 10.7447 11.6094C10.8489 11.5635 10.9674 11.5089 11.1082 11.4441L11.287 11.3618C11.2993 11.3561 11.3128 11.3498 11.3274 11.3429C11.4709 11.2752 11.7205 11.1575 11.9992 11.1575C12.2779 11.1575 12.5276 11.2752 12.6711 11.3429C12.6857 11.3498 12.6991 11.3561 12.7114 11.3618L12.8902 11.4441C13.031 11.5089 13.1496 11.5635 13.2538 11.6094C13.2443 11.4872 13.2301 11.3369 13.2119 11.1487L13.1922 10.9456C13.1908 10.931 13.1892 10.9154 13.1874 10.8988C13.1701 10.7324 13.1426 10.4687 13.2223 10.2126C13.3029 9.95346 13.4771 9.75273 13.5851 9.62841C13.5958 9.61609 13.6058 9.60452 13.615 9.59372L13.7452 9.44153C13.8793 9.28474 13.9824 9.16345 14.0617 9.06575C13.9397 9.03509 13.797 9.00275 13.6218 8.96312L13.4309 8.91992C13.4177 8.91693 13.4032 8.91379 13.3876 8.9104C13.2319 8.87659 12.9656 8.81877 12.7442 8.65071C12.5274 8.4861 12.3974 8.24828 12.3188 8.10466C12.3109 8.0901 12.3034 8.0765 12.2965 8.06405L12.1982 7.88769C12.122 7.75103 12.0573 7.63513 11.9992 7.53449ZM11.0127 6.29963C11.1849 6.07481 11.4975 5.75 11.9992 5.75C12.5009 5.75 12.8135 6.07481 12.9857 6.29963C13.15 6.51421 13.3155 6.81124 13.4852 7.11577C13.4929 7.12961 13.5006 7.14347 13.5084 7.15734L13.6067 7.33369C13.6295 7.37459 13.6474 7.40677 13.6631 7.4343C13.6904 7.44071 13.7222 7.44792 13.762 7.45691L13.9529 7.5001C13.9685 7.50364 13.9841 7.50717 13.9998 7.5107C14.3276 7.58478 14.6534 7.65839 14.9034 7.75695C15.1796 7.86577 15.5539 8.0777 15.6982 8.54161C15.8399 8.99734 15.661 9.38336 15.5049 9.63146C15.3603 9.86108 15.1406 10.1179 14.9157 10.3807C14.9055 10.3926 14.8954 10.4045 14.8852 10.4164L14.755 10.5686C14.7206 10.6089 14.6946 10.6394 14.6727 10.6657C14.6757 10.702 14.6797 10.7443 14.6852 10.8009L14.7049 11.004C14.7064 11.0195 14.7079 11.0349 14.7094 11.0504C14.7436 11.4023 14.7766 11.7424 14.7645 12.0145C14.7518 12.2997 14.6833 12.7315 14.2962 13.0254C13.8967 13.3286 13.4556 13.2626 13.1759 13.1824C12.9182 13.1086 12.6136 12.9682 12.3069 12.8269C12.2922 12.8201 12.2775 12.8134 12.2628 12.8066L12.0841 12.7243C12.0506 12.7089 12.0232 12.6963 11.9992 12.6854C11.9753 12.6963 11.9478 12.7089 11.9143 12.7243L11.7356 12.8066C11.7209 12.8134 11.7062 12.8201 11.6915 12.8269C11.3848 12.9682 11.0803 13.1086 10.8225 13.1824C10.5428 13.2626 10.1017 13.3286 9.70227 13.0254C9.31511 12.7315 9.24665 12.2997 9.23394 12.0145C9.22182 11.7424 9.25485 11.4023 9.28903 11.0504C9.29053 11.0349 9.29203 11.0195 9.29353 11.004L9.3132 10.8009C9.31869 10.7443 9.32277 10.702 9.32576 10.6657C9.30386 10.6394 9.27788 10.6089 9.24339 10.5686L9.11324 10.4164C9.10306 10.4045 9.09289 10.3926 9.08272 10.3807C8.85781 10.1179 8.63812 9.86108 8.49357 9.63146C8.33739 9.38336 8.15855 8.99734 8.30027 8.54161C8.44453 8.0777 8.81883 7.86577 9.09498 7.75695C9.34506 7.65839 9.67085 7.58478 9.99867 7.5107C10.0143 7.50717 10.0299 7.50364 10.0456 7.5001L10.2365 7.45691C10.2762 7.44792 10.308 7.44071 10.3353 7.4343C10.351 7.40677 10.369 7.37459 10.3918 7.33369L10.4901 7.15734C10.4978 7.14347 10.5055 7.12961 10.5132 7.11576C10.6829 6.81124 10.8484 6.51421 11.0127 6.29963Z" fill="#15852B"/>
</svg>
