<svg width="26" height="26" viewBox="0 0 26 26" fill="none" xmlns="http://www.w3.org/2000/svg">
<path d="M7.45313 20.4749C7.00896 20.4749 6.64062 20.1066 6.64062 19.6624V17.4199C6.64062 16.9758 7.00896 16.6074 7.45313 16.6074C7.89729 16.6074 8.26563 16.9758 8.26563 17.4199V19.6624C8.26563 20.1174 7.89729 20.4749 7.45313 20.4749Z" fill="#E9AE3D"/>
<path d="M13 20.4753C12.5558 20.4753 12.1875 20.107 12.1875 19.6628V15.167C12.1875 14.7228 12.5558 14.3545 13 14.3545C13.4442 14.3545 13.8125 14.7228 13.8125 15.167V19.6628C13.8125 20.1178 13.4442 20.4753 13 20.4753Z" fill="#E9AE3D"/>
<path d="M18.5469 20.4747C18.1027 20.4747 17.7344 20.1063 17.7344 19.6622V12.9238C17.7344 12.4797 18.1027 12.1113 18.5469 12.1113C18.991 12.1113 19.3594 12.4797 19.3594 12.9238V19.6622C19.3594 20.1172 19.0019 20.4747 18.5469 20.4747Z" fill="#E9AE3D"/>
<path d="M7.45207 14.2785C7.08374 14.2785 6.75874 14.0294 6.66124 13.661C6.5529 13.2277 6.8129 12.7835 7.25707 12.6752C11.2437 11.6785 14.7537 9.50103 17.4296 6.39186L17.9279 5.80686C18.2204 5.47103 18.7296 5.4277 19.0762 5.7202C19.4121 6.0127 19.4554 6.52186 19.1629 6.86853L18.6646 7.45353C15.7721 10.8335 11.9587 13.1844 7.64707 14.2569C7.58207 14.2785 7.51707 14.2785 7.45207 14.2785Z" fill="#E9AE3D"/>
<path d="M18.5453 10.3137C18.1011 10.3137 17.7328 9.94539 17.7328 9.50122V7.15039H15.3711C14.9269 7.15039 14.5586 6.78206 14.5586 6.33789C14.5586 5.89372 14.9269 5.52539 15.3711 5.52539H18.5453C18.9894 5.52539 19.3578 5.89372 19.3578 6.33789V9.51206C19.3578 9.95622 19.0003 10.3137 18.5453 10.3137Z" fill="#E9AE3D"/>
<path d="M16.2513 24.6462H9.7513C3.8688 24.6462 1.35547 22.1328 1.35547 16.2503V9.75032C1.35547 3.86783 3.8688 1.35449 9.7513 1.35449H16.2513C22.1338 1.35449 24.6471 3.86783 24.6471 9.75032V16.2503C24.6471 22.1328 22.1338 24.6462 16.2513 24.6462ZM9.7513 2.97949C4.75714 2.97949 2.98047 4.75616 2.98047 9.75032V16.2503C2.98047 21.2445 4.75714 23.0212 9.7513 23.0212H16.2513C21.2455 23.0212 23.0221 21.2445 23.0221 16.2503V9.75032C23.0221 4.75616 21.2455 2.97949 16.2513 2.97949H9.7513Z" fill="#E9AE3D"/>
</svg>
