<svg width="22" height="21" viewBox="0 0 22 21" fill="none" xmlns="http://www.w3.org/2000/svg">
<path d="M10.8969 20.5C10.2323 20.0649 9.56562 19.6327 8.90438 19.1926C8.7676 19.1013 8.63753 19.0641 8.46928 19.0758C7.7472 19.1269 7.02344 19.16 6.30052 19.2027C6.05507 19.2169 5.89647 19.1097 5.78781 18.892C5.46264 18.2399 5.13369 17.5896 4.7951 16.9443C4.74224 16.8438 4.64699 16.7458 4.54713 16.6934C3.92407 16.3672 3.29933 16.0431 2.66368 15.7416C2.36579 15.6001 2.25628 15.4028 2.28145 15.0783C2.33558 14.3773 2.36914 13.6746 2.39809 12.9719C2.40271 12.8584 2.36747 12.7261 2.30621 12.6302C1.91685 12.0213 1.52035 11.4166 1.11505 10.8182C0.958128 10.5866 0.963583 10.3848 1.12008 10.1549C1.53042 9.55188 1.93069 8.94216 2.32677 8.32951C2.37837 8.24953 2.40942 8.13772 2.40523 8.04266C2.3725 7.32071 2.33642 6.59834 2.28481 5.87766C2.26341 5.57782 2.36789 5.38854 2.64145 5.25621C3.2922 4.9413 3.93582 4.61132 4.57734 4.27882C4.6621 4.23485 4.74349 4.15277 4.78713 4.06818C5.12279 3.4212 5.45383 2.77211 5.77522 2.11801C5.90151 1.86089 6.08528 1.76164 6.37017 1.78174C7.11197 1.83409 7.85461 1.87303 8.59767 1.90779C8.67949 1.91156 8.77389 1.87052 8.84564 1.82445C9.45779 1.42705 10.0699 1.02922 10.6737 0.619256C10.9045 0.462639 11.1059 0.45887 11.3379 0.616325C11.9257 1.01541 12.524 1.39815 13.1131 1.79514C13.2444 1.8835 13.3694 1.91868 13.5301 1.90779C14.2589 1.85921 14.989 1.82697 15.7186 1.78551C15.9649 1.77169 16.1214 1.88141 16.2292 2.09874C16.5569 2.75704 16.8896 3.41282 17.2295 4.06441C17.2765 4.15403 17.3633 4.24071 17.4531 4.28761C18.0888 4.61802 18.7303 4.93711 19.3697 5.2604C19.6995 5.42707 19.7507 5.52966 19.7276 5.89273C19.681 6.62724 19.6399 7.36175 19.6047 8.09668C19.6009 8.17247 19.6408 8.25999 19.684 8.32658C20.1199 8.99827 20.5609 9.66662 21.0002 10.3362V10.688C20.9721 10.7211 20.9398 10.7512 20.9158 10.7872C20.5093 11.3999 20.0994 12.0104 19.7024 12.6294C19.6382 12.7299 19.5988 12.8685 19.6034 12.987C19.6328 13.7085 19.6722 14.43 19.7209 15.1503C19.7389 15.4196 19.642 15.5917 19.3983 15.7106C18.7555 16.0255 18.116 16.348 17.4821 16.6805C17.3713 16.7387 17.2635 16.8442 17.2052 16.9548C16.8687 17.593 16.5427 18.237 16.2234 18.8844C16.1029 19.129 15.9242 19.2186 15.6574 19.2006C14.9097 19.1503 14.1608 19.1101 13.4122 19.0712C13.3468 19.0678 13.2687 19.0892 13.2138 19.1252C12.5177 19.5804 11.825 20.0402 11.1315 20.4992H10.8965L10.8969 20.5ZM14.3164 18.2864V18.2873C14.6747 18.3078 15.033 18.3224 15.3905 18.3509C15.5218 18.3614 15.586 18.3182 15.6439 18.2002C15.9368 17.6047 16.2435 17.0163 16.5372 16.4213C16.6278 16.2374 16.7533 16.108 16.9392 16.0171C17.5245 15.7316 18.1001 15.4263 18.6879 15.1461C18.8549 15.0666 18.8893 14.9719 18.8771 14.8019C18.831 14.1394 18.8029 13.4757 18.7609 12.8128C18.7492 12.6277 18.7974 12.4727 18.9006 12.3195C19.2757 11.7638 19.6387 11.1993 20.0159 10.6448C20.0956 10.5276 20.0868 10.4489 20.0112 10.3371C19.6429 9.79224 19.2871 9.23906 18.9178 8.69467C18.8029 8.52465 18.7479 8.35338 18.7613 8.14693C18.805 7.48403 18.8344 6.82071 18.878 6.15781C18.8876 6.01166 18.8612 5.92665 18.7144 5.85588C18.1102 5.56484 17.5093 5.26542 16.9186 4.948C16.7747 4.87053 16.6371 4.73234 16.5594 4.5887C16.2477 4.01039 15.9523 3.42287 15.6691 2.83032C15.5894 2.66324 15.4937 2.62638 15.3234 2.63811C14.6596 2.68375 13.995 2.71307 13.3308 2.75578C13.1454 2.76751 12.9902 2.71726 12.837 2.61424C12.2798 2.23987 11.7147 1.87764 11.1591 1.50159C11.0421 1.42244 10.9632 1.42747 10.8499 1.5041C10.2936 1.87931 9.72925 2.24322 9.17206 2.61759C9.0185 2.72061 8.86158 2.76709 8.67655 2.75536C7.99307 2.71265 7.30875 2.6804 6.62527 2.63602C6.49604 2.62764 6.43017 2.66407 6.37185 2.783C6.07311 3.39021 5.76053 3.99029 5.46012 4.59624C5.37788 4.76249 5.2625 4.87598 5.09593 4.95805C4.48839 5.25789 3.88715 5.56945 3.27961 5.86844C3.16885 5.92288 3.13025 5.9836 3.13822 6.1063C3.18101 6.77548 3.21164 7.4455 3.25654 8.11468C3.2708 8.32658 3.22339 8.50539 3.10339 8.68253C2.72997 9.23152 2.3725 9.79183 1.99866 10.3408C1.91853 10.4585 1.92482 10.5368 2.00202 10.6503C2.35656 11.1729 2.69221 11.7089 3.0543 12.2261C3.22255 12.4665 3.27248 12.7098 3.25024 12.9958C3.20157 13.6122 3.18059 14.2311 3.13864 14.848C3.12899 14.9916 3.16885 15.0661 3.30227 15.131C3.90603 15.4233 4.50182 15.7324 5.10391 16.0276C5.27089 16.1093 5.3846 16.2244 5.46641 16.3907C5.76011 16.9857 6.0685 17.5737 6.35842 18.1704C6.43017 18.3182 6.51702 18.3568 6.6731 18.3463C7.34987 18.3011 8.02705 18.2592 8.70508 18.2366C8.84983 18.2316 9.01724 18.2814 9.14101 18.3589C9.70366 18.7127 10.2575 19.0804 10.8063 19.4552C10.9494 19.5528 11.0467 19.5662 11.1986 19.4615C11.7398 19.0875 12.2895 18.7244 12.8483 18.3769C12.9876 18.2902 13.1731 18.2437 13.3388 18.2395C13.664 18.232 13.99 18.2676 14.3156 18.2856L14.3164 18.2864Z" fill="#15852B" stroke="#15852B" stroke-width="0.3"/>
<path d="M11.014 4.2666C14.4616 4.27791 17.2555 7.07273 17.2459 10.4999C17.2358 13.9375 14.4255 16.7357 11.0006 16.7206C7.54709 16.7055 4.76702 13.9337 4.76953 10.4865C4.77205 7.03839 7.58485 4.25571 11.0144 4.26702L11.014 4.2666ZM16.4151 10.4986C16.4248 7.5363 13.9904 5.10203 11.0144 5.09743C8.03967 5.09282 5.61161 7.51201 5.6049 10.4869C5.59819 13.4551 8.02456 15.8827 11.0027 15.8873C13.9774 15.8919 16.4059 13.4743 16.4151 10.4986Z" fill="#15852B" stroke="#15852B" stroke-width="0.3"/>
<path d="M10.2419 11.4574C10.2989 11.4054 10.3564 11.3539 10.4127 11.3012C11.3277 10.4389 12.2403 9.57418 13.16 8.71781C13.254 8.63029 13.3861 8.56245 13.5112 8.53523C13.6782 8.4988 13.8137 8.59218 13.8972 8.74084C13.9777 8.88448 13.9685 9.02979 13.8737 9.16379C13.8292 9.22703 13.773 9.28314 13.7168 9.33632C12.6884 10.3062 11.6596 11.2752 10.63 12.2434C10.3048 12.5491 10.1148 12.5428 9.8026 12.2229C9.30205 11.7099 8.8015 11.1977 8.30221 10.6835C8.24347 10.6232 8.18515 10.5599 8.13984 10.4896C8.03369 10.3242 8.05928 10.1253 8.19522 9.98876C8.3362 9.84721 8.54389 9.82502 8.71297 9.94018C8.77675 9.98373 8.83087 10.0419 8.88835 10.0943C9.3545 10.5214 9.82022 10.949 10.2859 11.3761L10.2419 11.4561V11.4574Z" fill="#15852B" stroke="#15852B" stroke-width="0.3"/>
</svg>
