<svg width="26" height="26" viewBox="0 0 26 26" fill="none" xmlns="http://www.w3.org/2000/svg">
<path fill-rule="evenodd" clip-rule="evenodd" d="M13.0005 2.97949C9.26102 2.97949 6.22962 6.0109 6.22962 9.75033C6.22962 13.4898 9.26102 16.5212 13.0005 16.5212C16.7399 16.5212 19.7713 13.4898 19.7713 9.75033C19.7713 6.0109 16.7399 2.97949 13.0005 2.97949ZM4.60462 9.75033C4.60462 5.11344 8.36356 1.35449 13.0005 1.35449C17.6373 1.35449 21.3963 5.11344 21.3963 9.75033C21.3963 10.7697 21.2146 11.7467 20.8819 12.6506L23.3597 15.2162C23.6385 15.5048 23.8707 15.7452 24.0442 15.9456C24.2151 16.1429 24.3903 16.3686 24.4938 16.6309C24.8549 17.5461 24.5644 18.6293 23.6932 19.1626C23.4427 19.316 23.1573 19.3795 22.912 19.4206C22.6612 19.4626 22.3425 19.4963 21.9664 19.5361L21.9412 19.5387C21.4438 19.5914 21.3493 19.6081 21.2851 19.6327C21.0921 19.7067 20.9336 19.8642 20.8551 20.0838C20.8275 20.1611 20.8106 20.2712 20.7602 20.782L20.7579 20.8061C20.7193 21.1973 20.6869 21.5251 20.6468 21.7824C20.6076 22.033 20.548 22.3181 20.4051 22.5684C19.8966 23.4588 18.8248 23.7928 17.8951 23.3994C17.6333 23.2887 17.4118 23.1034 17.2226 22.9277C17.029 22.7479 16.7968 22.5075 16.5182 22.219L16.4969 22.197L13.0005 18.5138L9.49916 22.202L9.48275 22.219C9.2041 22.5075 8.97188 22.7479 8.77829 22.9277C8.58905 23.1034 8.36755 23.2887 8.10584 23.3994C7.17613 23.7928 6.10431 23.4588 5.59585 22.5684C5.4529 22.3181 5.39328 22.033 5.35414 21.7824C5.31397 21.5251 5.28163 21.1972 5.24304 20.8061L5.24067 20.782C5.19027 20.2712 5.1734 20.1611 5.14578 20.0838C5.06728 19.8642 4.9088 19.7067 4.71584 19.6327C4.65165 19.6081 4.55714 19.5914 4.05971 19.5387L4.03449 19.5361C3.65842 19.4963 3.33971 19.4626 3.08887 19.4206C2.84358 19.3795 2.55823 19.316 2.30773 19.1626C1.43652 18.6293 1.14595 17.5461 1.50714 16.6309C1.61063 16.3686 1.78582 16.1429 1.95672 15.9456C2.13022 15.7452 2.36244 15.5048 2.64125 15.2161L5.11903 12.6506C4.78629 11.7467 4.60462 10.7697 4.60462 9.75033ZM5.88034 14.2015L3.82627 16.3283C3.52715 16.638 3.32615 16.8465 3.18512 17.0094C3.05297 17.162 3.02209 17.221 3.01884 17.2272C2.92104 17.4753 3.01816 17.6853 3.1471 17.7709C3.15677 17.7741 3.2119 17.7936 3.35718 17.8179C3.55345 17.8508 3.82249 17.8796 4.23062 17.9228C4.25791 17.9256 4.285 17.9285 4.31186 17.9313C4.67925 17.9697 5.00685 18.004 5.29745 18.1154C5.94636 18.3641 6.44276 18.8846 6.67592 19.5367C6.78021 19.8284 6.81235 20.1574 6.84985 20.5412C6.85247 20.568 6.85512 20.5951 6.85782 20.6225C6.89941 21.044 6.92749 21.3255 6.95969 21.5317C6.98725 21.7082 7.00944 21.7647 7.01022 21.7681C7.09668 21.9137 7.27441 21.9857 7.47053 21.9038C7.47053 21.9038 7.52471 21.8741 7.67265 21.7368C7.82934 21.5913 8.02999 21.384 8.32782 21.0756L8.33028 21.0731L11.2769 17.9691C9.00639 17.4954 7.0725 16.1045 5.88034 14.2015ZM14.724 17.9691C16.9945 17.4954 18.9284 16.1045 20.1206 14.2015L22.1746 16.3283C22.4737 16.638 22.6747 16.8465 22.8158 17.0094C22.9479 17.162 22.9788 17.221 22.9821 17.2272C23.0798 17.4753 22.9827 17.6853 22.8538 17.7709C22.8441 17.7741 22.789 17.7936 22.6437 17.8179C22.4474 17.8508 22.1784 17.8796 21.7703 17.9228C21.743 17.9256 21.7159 17.9285 21.689 17.9313C21.3216 17.9697 20.994 18.004 20.7034 18.1154C20.0545 18.3641 19.5581 18.8846 19.325 19.5367C19.2207 19.8284 19.1886 20.1574 19.1511 20.5411C19.1484 20.568 19.1458 20.5951 19.1431 20.6225C19.1015 21.044 19.0734 21.3255 19.0412 21.5317C19.0137 21.7082 18.9915 21.7647 18.9907 21.7681C18.9039 21.9142 18.7252 21.9862 18.5282 21.9029L18.5305 21.9038C18.5305 21.9038 18.4762 21.8741 18.3282 21.7368C18.1716 21.5913 17.9709 21.384 17.6731 21.0756L17.6706 21.0731L14.724 17.9691ZM13.0004 7.62102C12.9375 7.73005 12.8674 7.85561 12.7849 8.00366L12.6784 8.19471C12.6709 8.2082 12.6628 8.22293 12.6542 8.23871C12.5691 8.39429 12.4282 8.65193 12.1933 8.83027C11.9535 9.01232 11.665 9.07496 11.4963 9.11159C11.4794 9.11526 11.4637 9.11867 11.4494 9.12191L11.2426 9.1687C11.0528 9.21164 10.8983 9.24667 10.7661 9.27989C10.852 9.38573 10.9637 9.51713 11.109 9.68699L11.25 9.85186C11.26 9.86356 11.2709 9.87609 11.2824 9.88943C11.3994 10.0241 11.5882 10.2416 11.6755 10.5223C11.7617 10.7997 11.732 11.0855 11.7132 11.2657C11.7113 11.2837 11.7096 11.3006 11.708 11.3164L11.6867 11.5364C11.667 11.7403 11.6516 11.9031 11.6414 12.0355C11.7542 11.9858 11.8827 11.9267 12.0352 11.8564L12.2289 11.7673C12.2422 11.7611 12.2568 11.7542 12.2726 11.7468C12.4281 11.6735 12.6986 11.5459 13.0005 11.5459C13.3023 11.5459 13.5728 11.6735 13.7283 11.7468C13.7441 11.7542 13.7587 11.7611 13.772 11.7673L13.9657 11.8564C14.1182 11.9267 14.2467 11.9858 14.3595 12.0355C14.3493 11.9031 14.3339 11.7403 14.3142 11.5364L14.2929 11.3164C14.2913 11.3006 14.2896 11.2837 14.2877 11.2657C14.2689 11.0855 14.2392 10.7997 14.3254 10.5223C14.4127 10.2416 14.6015 10.0241 14.7185 9.88943C14.73 9.87609 14.7409 9.86356 14.7509 9.85186L14.8919 9.68699C15.0372 9.51713 15.1489 9.38573 15.2348 9.27989C15.1026 9.24667 14.9481 9.21164 14.7583 9.1687L14.5515 9.12191C14.5372 9.11867 14.5215 9.11526 14.5046 9.11159C14.3359 9.07496 14.0474 9.01232 13.8076 8.83027C13.5727 8.65193 13.4318 8.39429 13.3467 8.23871C13.3381 8.22293 13.33 8.2082 13.3225 8.19471L13.216 8.00366C13.1335 7.85561 13.0634 7.73005 13.0004 7.62102ZM11.9317 6.28326C12.1183 6.0397 12.4569 5.68783 13.0005 5.68783C13.544 5.68783 13.8826 6.0397 14.0692 6.28326C14.2472 6.51572 14.4265 6.8375 14.6103 7.16741C14.6186 7.1824 14.627 7.19742 14.6354 7.21244L14.7419 7.40349C14.7666 7.4478 14.786 7.48266 14.803 7.51248C14.8326 7.51943 14.8671 7.52723 14.9101 7.53697L15.1169 7.58377C15.1338 7.5876 15.1508 7.59143 15.1677 7.59525C15.5228 7.6755 15.8758 7.75525 16.1467 7.86202C16.4459 7.97991 16.8514 8.20951 17.0076 8.71207C17.1612 9.20578 16.9674 9.62397 16.7982 9.89275C16.6416 10.1415 16.4036 10.4197 16.16 10.7045C16.149 10.7173 16.1379 10.7302 16.1269 10.7431L15.9859 10.908C15.9486 10.9517 15.9204 10.9846 15.8967 11.0131C15.8999 11.0525 15.9044 11.0983 15.9103 11.1597L15.9316 11.3796C15.9332 11.3964 15.9349 11.4132 15.9365 11.4299C15.9735 11.8112 16.0093 12.1796 15.9962 12.4743C15.9824 12.7834 15.9082 13.2511 15.4888 13.5695C15.0561 13.898 14.5782 13.8264 14.2752 13.7396C13.996 13.6596 13.6661 13.5076 13.3338 13.3545C13.3179 13.3471 13.302 13.3398 13.286 13.3325L13.0924 13.2433C13.0562 13.2266 13.0264 13.2129 13.0005 13.2012C12.9745 13.2129 12.9447 13.2266 12.9085 13.2433L12.7149 13.3325C12.6989 13.3398 12.683 13.3471 12.6671 13.3545C12.3348 13.5076 12.0049 13.6596 11.7257 13.7396C11.4227 13.8264 10.9448 13.898 10.5121 13.5695C10.0927 13.2511 10.0185 12.7834 10.0047 12.4743C9.99161 12.1796 10.0274 11.8112 10.0644 11.4299C10.066 11.4132 10.0677 11.3964 10.0693 11.3796L10.0906 11.1597C10.0965 11.0983 10.101 11.0525 10.1042 11.0131C10.0805 10.9846 10.0523 10.9517 10.015 10.908L9.87398 10.7431C9.86296 10.7302 9.85193 10.7173 9.84092 10.7045C9.59726 10.4197 9.35927 10.1415 9.20267 9.89275C9.03347 9.62397 8.83973 9.20578 8.99326 8.71207C9.14954 8.20951 9.55504 7.97991 9.85419 7.86202C10.1251 7.75525 10.4781 7.6755 10.8332 7.59525C10.8501 7.59143 10.8671 7.5876 10.884 7.58377L11.0908 7.53697C11.1338 7.52723 11.1683 7.51943 11.1979 7.51248C11.2149 7.48266 11.2343 7.4478 11.259 7.40349L11.3655 7.21244C11.3739 7.19742 11.3823 7.1824 11.3906 7.1674C11.5744 6.8375 11.7537 6.51572 11.9317 6.28326Z" fill="#E8618C"/>
</svg>
