<svg width="24" height="24" viewBox="0 0 24 24" fill="none" xmlns="http://www.w3.org/2000/svg">
<path fill-rule="evenodd" clip-rule="evenodd" d="M12.0516 2H11.9484C10.2682 1.99999 8.93732 1.99997 7.89575 2.14245C6.82382 2.28908 5.95621 2.59803 5.27199 3.29418C4.58778 3.99033 4.28413 4.87308 4.14001 5.9637C3.99997 7.02343 3.99999 8.37751 4 10.087V13.9129C3.99999 15.6225 3.99997 16.9766 4.14001 18.0363C4.28413 19.1269 4.58778 20.0097 5.27199 20.7058C5.95621 21.402 6.82382 21.7109 7.89575 21.8575C8.93731 22 10.2682 22 11.9484 22H12.0516C13.7318 22 15.0627 22 16.1043 21.8575C17.1762 21.7109 18.0438 21.402 18.728 20.7058C19.4122 20.0097 19.7159 19.1269 19.86 18.0363C20 16.9766 20 15.6225 20 13.913V10.0871C20 8.37754 20 7.02343 19.86 5.9637C19.7159 4.87308 19.4122 3.99033 18.728 3.29418C18.0438 2.59803 17.1762 2.28908 16.1043 2.14245C15.0627 1.99997 13.7318 1.99999 12.0516 2ZM8.57143 18.5116C8.57143 18.1263 8.87843 17.814 9.25714 17.814H14.7429C15.1216 17.814 15.4286 18.1263 15.4286 18.5116C15.4286 18.8969 15.1216 19.2093 14.7429 19.2093H9.25714C8.87843 19.2093 8.57143 18.8969 8.57143 18.5116Z" fill="url(#paint0_radial_2599_38133)"/>
<g clip-path="url(#clip0_2599_38133)">
<path d="M12.2306 12.8775C12.1714 12.9423 12.0877 12.9792 12 12.9792C11.9123 12.9792 11.8286 12.9423 11.7694 12.8775L10.1027 11.0546C9.98624 10.9272 9.99509 10.7296 10.1225 10.6131C10.2498 10.4967 10.4475 10.5055 10.564 10.6329L11.6875 11.8617V7.25C11.6875 7.07741 11.8274 6.9375 12 6.9375C12.1726 6.9375 12.3125 7.07741 12.3125 7.25V11.8617L13.436 10.6329C13.5525 10.5055 13.7502 10.4967 13.8775 10.6131C14.0049 10.7296 14.0138 10.9272 13.8973 11.0546L12.2306 12.8775Z" fill="white"/>
<path d="M8.5625 12.25C8.5625 12.0774 8.42259 11.9375 8.25 11.9375C8.07741 11.9375 7.9375 12.0774 7.9375 12.25V12.2729C7.93749 12.8427 7.93749 13.302 7.98605 13.6632C8.03648 14.0383 8.14435 14.3541 8.39515 14.6049C8.64594 14.8557 8.96173 14.9635 9.33677 15.0139C9.69801 15.0625 10.1573 15.0625 10.7271 15.0625H13.2729C13.8427 15.0625 14.302 15.0625 14.6632 15.0139C15.0383 14.9635 15.3541 14.8557 15.6049 14.6049C15.8557 14.3541 15.9635 14.0383 16.0139 13.6632C16.0625 13.302 16.0625 12.8427 16.0625 12.2729V12.25C16.0625 12.0774 15.9226 11.9375 15.75 11.9375C15.5774 11.9375 15.4375 12.0774 15.4375 12.25C15.4375 12.8481 15.4368 13.2652 15.3945 13.5799C15.3534 13.8857 15.2782 14.0476 15.1629 14.1629C15.0476 14.2782 14.8857 14.3534 14.58 14.3945C14.2652 14.4368 13.8481 14.4375 13.25 14.4375H10.75C10.1519 14.4375 9.73478 14.4368 9.42005 14.3945C9.11431 14.3534 8.95241 14.2782 8.83709 14.1629C8.72177 14.0476 8.64658 13.8857 8.60548 13.5799C8.56316 13.2652 8.5625 12.8481 8.5625 12.25Z" fill="white"/>
</g>
<defs>
<radialGradient id="paint0_radial_2599_38133" cx="0" cy="0" r="1" gradientUnits="userSpaceOnUse" gradientTransform="translate(12 2) rotate(90) scale(20 16)">
<stop offset="0.0572917" stop-color="#04784E"/>
<stop offset="0.640625" stop-color="#064C32"/>
</radialGradient>
<clipPath id="clip0_2599_38133">
<rect x="7" y="6" width="10" height="10" rx="5" fill="white"/>
</clipPath>
</defs>
</svg>
