<svg width="24" height="24" viewBox="0 0 24 24" fill="none" xmlns="http://www.w3.org/2000/svg">
<path d="M12.8 8.79922C13.4365 8.79922 14.047 9.05207 14.4971 9.50216C14.9471 9.95225 15.2 10.5627 15.2 11.1992C15.2 11.4114 15.2843 11.6149 15.4343 11.7649C15.5843 11.9149 15.7878 11.9992 16 11.9992C16.2122 11.9992 16.4157 11.9149 16.5657 11.7649C16.7157 11.6149 16.8 11.4114 16.8 11.1992C16.8 10.1384 16.3786 9.12094 15.6284 8.37079C14.8783 7.62065 13.8609 7.19922 12.8 7.19922C12.5878 7.19922 12.3843 7.2835 12.2343 7.43353C12.0843 7.58356 12 7.78705 12 7.99922C12 8.21139 12.0843 8.41487 12.2343 8.5649C12.3843 8.71493 12.5878 8.79922 12.8 8.79922V8.79922Z" fill="#115231"/>
<path d="M12.8 5.6C14.2852 5.6 15.7096 6.19 16.7598 7.2402C17.81 8.2904 18.4 9.71479 18.4 11.2C18.4 11.4122 18.4843 11.6157 18.6343 11.7657C18.7843 11.9157 18.9878 12 19.2 12C19.4122 12 19.6157 11.9157 19.7657 11.7657C19.9157 11.6157 20 11.4122 20 11.2C20 9.29044 19.2414 7.45909 17.8912 6.10883C16.5409 4.75857 14.7096 4 12.8 4C12.5878 4 12.3843 4.08429 12.2343 4.23431C12.0843 4.38434 12 4.58783 12 4.8C12 5.01217 12.0843 5.21566 12.2343 5.36569C12.3843 5.51571 12.5878 5.6 12.8 5.6V5.6ZM19.8 15.128C19.756 14.9996 19.68 14.8845 19.5793 14.7935C19.4785 14.7025 19.3562 14.6387 19.224 14.608L14.424 13.512C14.2937 13.4825 14.1581 13.486 14.0295 13.5223C13.901 13.5587 13.7836 13.6266 13.688 13.72C13.576 13.824 13.568 13.832 13.048 14.824C11.3226 14.0289 9.93999 12.6407 9.152 10.912C10.168 10.4 10.176 10.4 10.28 10.28C10.3734 10.1844 10.4413 10.067 10.4776 9.93847C10.514 9.8099 10.5175 9.67429 10.488 9.544L9.392 4.8C9.36132 4.66776 9.29748 4.5455 9.20651 4.44473C9.11554 4.34396 9.00043 4.268 8.872 4.224C8.68517 4.15727 8.49225 4.10904 8.296 4.08C8.0938 4.03312 7.88747 4.00632 7.68 4C6.704 4 5.76798 4.38771 5.07785 5.07785C4.38771 5.76798 4 6.704 4 7.68C4.00423 10.9462 5.30359 14.0773 7.61312 16.3869C9.92265 18.6964 13.0538 19.9958 16.32 20C16.8033 20 17.2818 19.9048 17.7283 19.7199C18.1747 19.5349 18.5804 19.2639 18.9221 18.9221C19.2639 18.5804 19.5349 18.1747 19.7199 17.7283C19.9048 17.2818 20 16.8033 20 16.32C20.0002 16.1164 19.9842 15.9131 19.952 15.712C19.9184 15.5133 19.8675 15.3179 19.8 15.128V15.128Z" fill="#115231"/>
</svg>
