<svg width="24" height="24" viewBox="0 0 24 24" fill="none" xmlns="http://www.w3.org/2000/svg">
<g clip-path="url(#clip0_2599_38124)">
<path d="M7.54688 24H5.08008V19.7168H7.54688V20.4609H5.98828V21.4014H7.43848V22.1455H5.98828V23.25H7.54688V24ZM11.8887 24H10.8574L9.73535 22.1953L9.35156 22.4707V24H8.44336V19.7168H9.35156V21.6768C9.41211 21.5928 9.47168 21.5088 9.53027 21.4248C9.58887 21.3408 9.64844 21.2568 9.70898 21.1729L10.8691 19.7168H11.877L10.3828 21.6123L11.8887 24ZM13.7607 21.4805L14.6543 19.7168H15.6328L14.2119 22.333V24H13.3096V22.3623L11.8887 19.7168H12.873L13.7607 21.4805ZM17.9912 20.4111C17.8174 20.4111 17.6631 20.4453 17.5283 20.5137C17.3955 20.5801 17.2832 20.6768 17.1914 20.8037C17.1016 20.9307 17.0332 21.084 16.9863 21.2637C16.9395 21.4434 16.916 21.6455 16.916 21.8701C16.916 22.1729 16.9531 22.4316 17.0273 22.6465C17.1035 22.8594 17.2207 23.0225 17.3789 23.1357C17.5371 23.2471 17.7412 23.3027 17.9912 23.3027C18.165 23.3027 18.3389 23.2832 18.5127 23.2441C18.6885 23.2051 18.8789 23.1494 19.084 23.0771V23.8389C18.8945 23.917 18.708 23.9727 18.5244 24.0059C18.3408 24.041 18.1348 24.0586 17.9062 24.0586C17.4648 24.0586 17.1016 23.9678 16.8164 23.7861C16.5332 23.6025 16.3232 23.3467 16.1865 23.0186C16.0498 22.6885 15.9814 22.3037 15.9814 21.8643C15.9814 21.54 16.0254 21.2432 16.1133 20.9736C16.2012 20.7041 16.3301 20.4707 16.5 20.2734C16.6699 20.0762 16.8799 19.9238 17.1299 19.8164C17.3799 19.709 17.667 19.6553 17.9912 19.6553C18.2041 19.6553 18.417 19.6826 18.6299 19.7373C18.8447 19.79 19.0498 19.8633 19.2451 19.957L18.9521 20.6953C18.792 20.6191 18.6309 20.5527 18.4688 20.4961C18.3066 20.4395 18.1475 20.4111 17.9912 20.4111Z" fill="url(#paint0_radial_2599_38124)"/>
<circle cx="12.0001" cy="5.00033" r="3.33333" fill="url(#paint1_radial_2599_38124)"/>
<ellipse cx="12.0001" cy="14.1663" rx="5.83333" ry="3.33333" fill="url(#paint2_radial_2599_38124)"/>
</g>
<defs>
<radialGradient id="paint0_radial_2599_38124" cx="0" cy="0" r="1" gradientUnits="userSpaceOnUse" gradientTransform="translate(12 20) rotate(90) scale(4 15)">
<stop offset="0.0572917" stop-color="#04784E"/>
<stop offset="0.640625" stop-color="#064C32"/>
</radialGradient>
<radialGradient id="paint1_radial_2599_38124" cx="0" cy="0" r="1" gradientUnits="userSpaceOnUse" gradientTransform="translate(12.0001 1.66699) rotate(90) scale(6.66667)">
<stop offset="0.0572917" stop-color="#04784E"/>
<stop offset="0.640625" stop-color="#064C32"/>
</radialGradient>
<radialGradient id="paint2_radial_2599_38124" cx="0" cy="0" r="1" gradientUnits="userSpaceOnUse" gradientTransform="translate(12.0001 10.833) rotate(90) scale(6.66667 11.6667)">
<stop offset="0.0572917" stop-color="#04784E"/>
<stop offset="0.640625" stop-color="#064C32"/>
</radialGradient>
<clipPath id="clip0_2599_38124">
<rect width="24" height="24" fill="white"/>
</clipPath>
</defs>
</svg>
