<svg width="24" height="24" viewBox="0 0 24 24" fill="none" xmlns="http://www.w3.org/2000/svg">
<g clip-path="url(#clip0_2599_38060)">
<path d="M12 0C5.241 0 0 4.953 0 11.64C0 15.138 1.434 18.162 3.768 20.25C3.963 20.424 4.083 20.67 4.089 20.934L4.155 23.07C4.15981 23.2272 4.20314 23.3807 4.2812 23.5172C4.35926 23.6537 4.46965 23.769 4.60267 23.8528C4.73569 23.9366 4.88726 23.9865 5.04408 23.9981C5.20089 24.0096 5.35814 23.9825 5.502 23.919L7.884 22.869C8.085 22.779 8.313 22.764 8.526 22.821C9.621 23.121 10.785 23.283 12 23.283C18.759 23.283 24 18.33 24 11.643C24 4.956 18.759 0 12 0Z" fill="url(#paint0_radial_2599_38060)"/>
<path d="M4.79389 15.0451L8.31889 9.45309C8.45149 9.24256 8.62631 9.0618 8.83229 8.92223C9.03828 8.78267 9.27097 8.68732 9.51566 8.64222C9.76035 8.59711 10.0117 8.60323 10.2539 8.66018C10.4962 8.71713 10.7239 8.82368 10.9229 8.97309L13.7279 11.0761C13.8531 11.1698 14.0055 11.2203 14.1619 11.2197C14.3183 11.2192 14.4703 11.1677 14.5949 11.0731L18.3809 8.19909C18.8849 7.81509 19.5449 8.42109 19.2089 8.95809L15.6809 14.5471C15.5483 14.7576 15.3735 14.9384 15.1675 15.078C14.9615 15.2175 14.7288 15.3129 14.4841 15.358C14.2394 15.4031 13.988 15.397 13.7458 15.34C13.5036 15.2831 13.2758 15.1765 13.0769 15.0271L10.2719 12.9241C10.1467 12.8303 9.99432 12.7799 9.83789 12.7805C9.68146 12.781 9.52946 12.8325 9.40489 12.9271L5.61889 15.8011C5.11489 16.1851 4.45489 15.5821 4.79389 15.0451Z" fill="white"/>
</g>
<defs>
<radialGradient id="paint0_radial_2599_38060" cx="0" cy="0" r="1" gradientUnits="userSpaceOnUse" gradientTransform="translate(4.02 24) scale(26.4 26.4)">
<stop stop-color="#0099FF"/>
<stop offset="0.6" stop-color="#A033FF"/>
<stop offset="0.9" stop-color="#FF5280"/>
<stop offset="1" stop-color="#FF7061"/>
</radialGradient>
<clipPath id="clip0_2599_38060">
<rect width="24" height="24" fill="white"/>
</clipPath>
</defs>
</svg>
