<svg width="176" height="56" viewBox="0 0 176 56" fill="none" xmlns="http://www.w3.org/2000/svg">
<mask id="mask0_6581_27396" style="mask-type:luminance" maskUnits="userSpaceOnUse" x="0" y="0" width="43" height="43">
<path d="M26.2474 30.4008C30.1747 29.8958 31.8406 28.8932 34.1095 26.0212C34.5467 25.4559 28.6445 25.1393 29.1344 24.981C31.9913 24.0312 36.1825 22.614 38.5796 19.1089C38.5796 19.2144 38.6248 19.3199 38.6399 19.4255C39.0437 22.568 38.2836 25.7497 36.5029 28.3703C34.7222 30.9909 32.0441 32.8693 28.9736 33.651C25.9032 34.4328 22.6529 34.0639 19.8358 32.6139C17.0187 31.1639 14.8296 28.7331 13.6815 25.78C15.0414 27.2708 16.6967 28.4623 18.5421 29.2786C20.3875 30.0949 22.3827 30.5181 24.4006 30.5214C25.0181 30.5218 25.6351 30.4815 26.2474 30.4008ZM12.9805 36.9363C10.0571 35.715 7.68172 33.4662 6.30235 30.614C4.92299 27.7619 4.63503 24.5035 5.49278 21.4537C6.35052 18.4038 8.29469 15.7732 10.9585 14.0582C13.6224 12.3431 16.8217 11.6622 19.9531 12.1437C17.6774 12.6425 15.5551 13.6817 13.7655 15.1734C11.9759 16.6652 10.5717 18.5657 9.67127 20.7145C8.16367 24.3704 8.16367 26.3077 9.53559 29.7601C9.67127 30.0917 10.5683 29.0063 11.405 27.8756C12.2417 26.7449 12.9729 25.7197 12.9126 25.9609C12.3096 28.9158 11.4578 33.2653 13.2744 37.087C13.1765 37.0418 13.0709 37.0116 12.9729 36.974M20.3526 11.5784C18.0912 9.58082 14.767 6.67114 10.5532 6.33947C10.6361 6.27163 10.7115 6.19625 10.802 6.12841C13.3219 4.21073 16.4562 3.28095 19.6142 3.51431C22.7723 3.74766 25.7359 5.12803 27.9466 7.39527C30.1573 9.66251 31.4624 12.66 31.6159 15.8229C31.7694 18.9858 30.7608 22.0957 28.7801 24.5664C29.4898 22.3475 29.6548 19.9904 29.2612 17.6943C28.8675 15.3982 27.9269 13.2307 26.5187 11.3749C24.1216 8.22397 22.403 7.27418 18.7697 6.78421C18.4229 6.73899 18.8903 7.97522 19.4104 9.20392C19.7854 9.97765 20.1004 10.779 20.3526 11.601M1.35296e-06 21.0084C1.62045e-06 25.1638 1.23232 29.2259 3.54109 32.6809C5.84986 36.1359 9.13137 38.8286 12.9706 40.4184C16.8098 42.0083 21.0343 42.4239 25.1098 41.6127C29.1852 40.8014 32.9285 38.7998 35.8663 35.861C38.8041 32.9222 40.8044 29.1781 41.6141 25.1024C42.4239 21.0266 42.0068 16.8023 40.4156 12.9636C38.8243 9.12498 36.1304 5.84443 32.6746 3.5369C29.2188 1.22937 25.1563 -0.00148964 21.0009 1.35298e-06C18.2424 1.17528e-06 15.5109 0.543456 12.9625 1.59932C10.414 2.65519 8.09857 4.20278 6.14836 6.15369C4.19815 8.1046 2.65139 10.4206 1.59644 12.9694C0.541485 15.5182 -0.000988781 18.2499 1.35296e-06 21.0084Z" fill="white"/>
</mask>
<g mask="url(#mask0_6581_27396)">
<path d="M-0.00373889 -0.41476L-0.425781 42.0071L41.9961 42.4291L42.4181 0.00728263L-0.00373889 -0.41476Z" fill="url(#paint0_linear_6581_27396)"/>
</g>
<mask id="mask1_6581_27396" style="mask-type:luminance" maskUnits="userSpaceOnUse" x="35" y="3" width="141" height="53">
<path d="M160.432 3.49758H146.11C143.227 3.46181 140.415 4.39075 138.12 6.13674C135.826 7.88273 134.181 10.3455 133.447 13.1337C132.713 15.9218 132.933 18.8753 134.07 21.5245C135.208 24.1738 137.198 26.3668 139.725 27.7549L160.213 39.0619C160.887 39.4307 161.417 40.0147 161.719 40.7205C162.021 41.4264 162.078 42.2132 161.88 42.955C161.682 43.6969 161.241 44.3508 160.627 44.8121C160.013 45.2734 159.262 45.5154 158.495 45.4994H136.536L114.676 12.7467L108.548 3.49758L102.374 12.7543L89.2655 32.4134L76.187 12.8146L70.0134 3.49758L63.8397 12.7543L35.0068 55.9998H47.3541L54.3494 45.5069H63.8247C68.2193 45.5069 70.2847 44.7531 72.6441 41.3158L77.0162 35.0065H61.3522L70.0134 22.0109L83.0994 41.6098L73.5186 55.9998H85.8583L108.548 22.0109L117.209 35.0065H101.522L105.894 41.3158C108.254 44.7757 110.319 45.5069 114.714 45.5069H124.189L131.162 55.9998H159.806C163.431 56.018 166.915 54.6012 169.498 52.059C172.081 49.5167 173.553 46.0556 173.593 42.4314C173.582 40.0016 172.919 37.6194 171.672 35.5336C170.426 33.4478 168.642 31.735 166.507 30.5741L145.725 19.056C145.298 18.8409 144.94 18.5097 144.692 18.1005C144.444 17.6912 144.316 17.2203 144.323 16.7419C144.314 16.3799 144.378 16.0198 144.511 15.683C144.644 15.3462 144.843 15.0396 145.097 14.7815C145.351 14.5234 145.654 14.319 145.989 14.1805C146.323 14.042 146.682 13.9723 147.044 13.9754H165.324C168.709 13.9754 171.113 13.3875 172.726 9.79182L175.033 3.49758H160.432Z" fill="white"/>
</mask>
<g mask="url(#mask1_6581_27396)">
<path d="M175.033 3.49707H35.0068V56.0069H175.033V3.49707Z" fill="url(#paint1_linear_6581_27396)"/>
</g>
<defs>
<linearGradient id="paint0_linear_6581_27396" x1="19.9014" y1="42.2093" x2="21.2586" y2="-0.182588" gradientUnits="userSpaceOnUse">
<stop stop-color="#BDBDBD"/>
<stop offset="0.302083" stop-color="white"/>
<stop offset="0.510417" stop-color="#F5F5F5"/>
<stop offset="0.723958" stop-color="white"/>
<stop offset="1" stop-color="#BDBDBD"/>
</linearGradient>
<linearGradient id="paint1_linear_6581_27396" x1="35.0068" y1="28.658" x2="174.55" y2="36.8674" gradientUnits="userSpaceOnUse">
<stop stop-color="#BDBDBD"/>
<stop offset="0.302083" stop-color="white"/>
<stop offset="0.510417" stop-color="#F5F5F5"/>
<stop offset="0.723958" stop-color="white"/>
<stop offset="1" stop-color="#BDBDBD"/>
</linearGradient>
</defs>
</svg>
