<svg width="16" height="16" viewBox="0 0 16 16" fill="none" xmlns="http://www.w3.org/2000/svg">
<path d="M13.8555 2.14562C13.788 2.07845 13.7028 2.03195 13.6098 2.01158C13.5168 1.99121 13.4199 1.99781 13.3305 2.03062L2.33049 6.03062C2.23562 6.0666 2.15395 6.13059 2.09631 6.21409C2.03868 6.2976 2.00781 6.39666 2.00781 6.49812C2.00781 6.59958 2.03868 6.69864 2.09631 6.78214C2.15395 6.86564 2.23562 6.92963 2.33049 6.96562L7.13049 8.88562L9.05049 13.6856C9.08656 13.7763 9.14839 13.8545 9.22836 13.9104C9.30832 13.9664 9.40292 13.9978 9.50049 14.0006C9.60153 13.9985 9.69957 13.9659 9.78169 13.907C9.86381 13.8481 9.92615 13.7657 9.96049 13.6706L13.9605 2.67062C13.9946 2.58216 14.0028 2.48583 13.9842 2.39288C13.9656 2.29993 13.921 2.21417 13.8555 2.14562ZM9.50049 12.1006L8.10549 8.60062L10.5005 6.20562L9.79549 5.50062L7.38049 7.91562L3.90049 6.50062L12.6655 3.33562L9.50049 12.1006Z" fill="url(#paint0_linear_6584_721)"/>
<defs>
<linearGradient id="paint0_linear_6584_721" x1="2.00781" y1="8.00031" x2="13.9939" y2="8.00031" gradientUnits="userSpaceOnUse">
<stop offset="0.0625" stop-color="#C7863D"/>
<stop offset="0.5" stop-color="#FFCE6F"/>
<stop offset="0.9375" stop-color="#C7863D"/>
</linearGradient>
</defs>
</svg>
