<svg width="1600" height="253" viewBox="0 0 1600 253" fill="none" xmlns="http://www.w3.org/2000/svg">
<g opacity="0.6" clip-path="url(#clip0_1093_10270)">
<rect width="1920" height="253" fill="url(#paint0_linear_1093_10270)"/>
<rect width="1920" height="253" fill="url(#paint1_linear_1093_10270)"/>
<g opacity="0.18" clip-path="url(#clip1_1093_10270)">
<path d="M-307.41 192.218C-81.2268 391.233 168.948 462.473 436.194 403.951C700.885 345.989 934.467 169.05 1083.8 30.8191C1168.38 -47.4651 1235.48 -121.896 1276.88 -170.55C1321.73 -223.26 1346.89 -257.881 1347.15 -258.229L1348.91 -257.502C1348.67 -257.159 1323.44 -222.447 1278.52 -169.668C1237.08 -120.962 1169.89 -46.4424 1085.21 31.934C990.023 120.048 892.579 194.976 795.596 254.659C674.324 329.286 553.419 380.131 436.239 405.789C375.849 419.011 315.5 425.709 256.865 425.695C194.096 425.684 131.612 417.973 71.1494 402.792C6.84926 386.644 -56.9155 361.608 -118.352 328.361C-183.355 293.191 -247.538 247.891 -309.118 193.7L-307.406 192.207L-307.41 192.218Z" fill="url(#paint2_linear_1093_10270)"/>
<path d="M-287.505 178.99C-66.8963 377.23 180.071 449.959 446.552 395.146C567.171 370.337 681.912 320.977 785.407 261.793C909.37 190.905 1017.22 105.931 1099.92 32.0659C1185.86 -44.6985 1254.3 -117.83 1296.6 -165.661C1342.4 -217.476 1368.21 -251.576 1368.47 -251.906L1370.21 -251.141C1369.95 -250.799 1344.08 -216.625 1298.21 -164.737C1255.87 -116.847 1187.35 -43.6265 1101.3 33.2236C1004.57 119.619 905.87 192.907 807.944 251.055C685.482 323.758 563.904 372.863 446.563 397.003C386.328 409.394 326.266 415.355 268.03 414.724C205.712 414.051 143.819 405.808 84.0892 390.225C20.575 373.653 -42.2197 348.34 -102.552 314.976C-166.373 279.687 -229.179 234.434 -289.228 180.464L-287.501 178.978L-287.505 178.99Z" fill="url(#paint3_linear_1093_10270)"/>
<path d="M-267.608 165.737C-52.6301 363.142 191.041 437.36 456.627 386.321C585.728 361.51 708.734 308.771 818.738 245.866C934.951 179.41 1036.66 101.619 1115.88 33.3689C1203.23 -41.8771 1273.04 -113.729 1316.23 -160.748C1363.03 -211.704 1389.51 -245.292 1389.77 -245.621L1391.48 -244.813C1391.22 -244.478 1364.7 -210.831 1317.85 -159.818C1274.61 -112.734 1204.71 -40.8052 1117.27 34.533C1018.97 119.223 918.985 190.866 820.1 247.473L819.525 247.802C696.061 318.404 573.974 365.634 456.622 388.187C396.564 399.727 336.805 404.942 278.998 403.687C217.15 402.348 155.886 393.56 96.912 377.578C34.2113 360.592 -27.5931 334.999 -86.8044 301.525C-149.42 266.12 -210.839 220.933 -269.343 167.209L-267.608 165.737Z" fill="url(#paint4_linear_1093_10270)"/>
<path d="M-247.706 152.51C-38.3871 349.012 201.9 424.718 466.463 377.519C732.429 330.065 975.095 164.892 1131.83 34.682C1220.59 -39.06 1291.8 -109.641 1335.91 -155.863C1383.68 -205.938 1410.81 -238.988 1411.08 -239.31L1412.76 -238.459C1412.5 -238.13 1385.3 -205.001 1337.45 -154.86C1293.3 -108.585 1222.01 -37.9213 1133.13 35.9065C1033.23 118.899 931.933 188.9 832.056 243.966C707.16 312.817 584.142 358.379 466.413 379.385C406.561 390.065 347.13 394.519 289.779 392.632C228.427 390.613 167.816 381.284 109.619 364.9C47.7601 347.491 -13.0467 321.631 -71.1014 288.052C-132.493 252.545 -192.497 207.435 -249.444 153.976L-247.694 152.511L-247.706 152.51Z" fill="url(#paint5_linear_1093_10270)"/>
<path d="M-227.805 139.274C-24.1943 334.808 212.604 411.995 476.02 368.688C742.479 324.881 988.312 163.622 1147.63 36.0561C1237.85 -36.1836 1310.48 -105.507 1355.52 -150.937C1404.32 -200.153 1432.13 -232.69 1432.4 -233.013L1434.04 -232.12C1433.76 -231.793 1405.88 -199.177 1357.01 -149.893C1311.92 -104.412 1239.2 -35.0067 1148.87 37.3187C1047.33 118.626 944.683 186.987 843.783 240.496C717.622 307.406 593.849 351.166 475.906 370.558C416.292 380.36 357.218 384.045 300.341 381.516C239.525 378.811 179.583 368.93 122.183 352.141C61.1952 334.302 1.41341 308.185 -55.4775 274.513C-115.625 238.919 -174.203 193.904 -229.579 140.718L-227.817 139.272L-227.805 139.274Z" fill="url(#paint6_linear_1093_10270)"/>
<path d="M-207.914 126.023C-10.0504 320.519 223.171 399.187 485.272 359.827C752.243 319.74 1001.34 162.401 1163.28 37.4728C1338.79 -97.9206 1452.57 -225.448 1453.7 -226.719L1455.3 -225.79C1455.02 -225.469 1426.45 -193.356 1376.54 -144.921C1330.48 -100.22 1256.31 -32.0685 1164.49 38.7672C1061.28 118.396 957.255 185.112 855.321 237.064C727.859 302.028 603.317 343.96 485.153 361.708C425.803 370.617 367.117 373.532 310.742 370.353C250.484 366.959 191.243 356.526 134.672 339.33C74.5708 321.068 15.8548 294.687 -39.8567 260.931C-98.7361 225.252 -155.869 180.347 -209.667 127.464L-207.89 126.026L-207.914 126.023Z" fill="url(#paint7_linear_1093_10270)"/>
<path d="M-188.007 112.791C4.07728 306.174 233.618 386.297 494.248 350.941C664.078 327.902 827.863 257.645 966.928 178.121C1046.9 132.391 1118.66 83.6199 1178.78 38.9683C1272.02 -30.2936 1347.6 -97.1297 1394.58 -140.998C1445.49 -188.543 1474.72 -220.105 1475.01 -220.413L1476.59 -219.441C1476.3 -219.127 1447.01 -187.508 1396.04 -139.912C1349 -95.9926 1273.34 -29.0786 1180 40.269C1075.07 118.22 969.632 183.293 866.627 233.682C737.833 296.685 612.5 336.768 494.092 352.834C435.038 360.849 376.771 362.968 320.931 359.138C261.258 355.047 202.747 344.052 147.021 326.458C87.8417 307.777 30.1987 281.146 -24.3179 247.314C-81.9102 211.565 -137.587 166.788 -189.796 114.227L-188.012 112.802L-188.007 112.791Z" fill="url(#paint8_linear_1093_10270)"/>
<path d="M-168.111 99.5594C18.1542 291.76 243.923 373.332 502.927 342.016C770.981 309.606 1026.78 160.148 1194.17 40.469C1288.97 -27.3063 1366.07 -92.9196 1414.06 -136.02C1466.06 -182.727 1496.02 -213.805 1496.32 -214.112L1497.86 -213.098C1497.56 -212.785 1467.55 -181.662 1415.49 -134.897C1367.45 -91.7444 1290.26 -26.0549 1195.35 41.7999C1088.66 118.079 981.783 181.505 877.688 230.317C747.531 291.342 621.375 329.56 502.735 343.905C444.01 351.006 386.197 352.334 330.908 347.844C271.862 343.049 214.105 331.496 159.255 313.502C101.023 294.407 44.4763 267.527 -8.81761 233.628C-65.1072 197.817 -119.305 153.189 -169.911 100.976L-168.111 99.5594Z" fill="url(#paint9_linear_1093_10270)"/>
<path d="M-148.214 86.314C32.2132 277.259 254.11 360.26 511.308 333.021C779.933 304.567 1039.21 159.057 1209.42 41.9956C1305.82 -24.2996 1384.48 -88.69 1433.5 -131.037C1486.61 -176.922 1517.32 -207.514 1517.63 -207.819L1519.13 -206.769C1518.82 -206.469 1488.06 -175.82 1434.89 -129.884C1385.82 -87.4909 1307.07 -23.029 1210.56 43.3503C1102.07 117.965 993.72 179.733 888.508 226.958C756.96 285.997 629.971 322.314 511.076 334.916C452.713 341.102 395.388 341.62 340.686 336.473C282.298 330.973 225.331 318.868 171.37 300.475C114.116 280.964 58.6897 253.857 6.63387 219.899C-48.3301 184.046 -101.034 139.575 -150.037 87.7278L-148.23 86.3235L-148.214 86.314Z" fill="url(#paint10_linear_1093_10270)"/>
<path d="M-128.308 73.0791C46.2599 262.695 264.182 347.101 519.417 323.952C788.627 299.538 1051.49 157.974 1224.6 43.5105C1412.2 -80.5388 1537.71 -200.329 1538.95 -201.521L1540.4 -200.43C1540.09 -200.131 1508.57 -169.959 1454.25 -124.844C1404.12 -83.2127 1323.78 -19.9609 1225.63 44.9335C1115.31 117.877 1005.44 178 899.085 223.618C766.104 280.652 638.272 315.049 519.132 325.852C461.176 331.106 404.367 330.823 350.289 325.008C292.591 318.8 236.442 306.135 183.402 287.358C127.154 267.44 72.8677 240.103 22.073 206.107C-31.5498 170.221 -82.7565 125.931 -130.131 74.4754L-128.313 73.0902L-128.308 73.0791Z" fill="url(#paint11_linear_1093_10270)"/>
<path d="M-108.4 59.847C60.287 248.055 274.132 333.84 527.213 314.814C796.982 294.532 1063.5 156.946 1239.56 45.0936C1430.38 -76.1224 1558.99 -194.039 1560.27 -195.214L1561.68 -194.082C1561.36 -193.79 1529.05 -164.092 1473.57 -119.789C1422.37 -78.9106 1340.38 -16.8642 1240.56 46.5469C1128.35 117.831 1016.93 176.282 909.413 220.282C774.979 275.298 646.273 307.741 526.895 316.716C407.918 325.655 296.362 311.349 195.338 274.167C140.12 253.845 87.0048 226.293 37.4867 192.267C-14.772 156.368 -64.4626 112.273 -110.221 61.2259L-108.388 59.8486L-108.4 59.847Z" fill="url(#paint12_linear_1093_10270)"/>
<path d="M-88.5099 46.6143C74.2876 233.343 283.956 320.47 534.698 305.573C805.022 289.509 1075.27 155.929 1254.36 46.6917C1448.46 -71.6943 1580.27 -187.748 1581.57 -188.908L1582.94 -187.734C1582.61 -187.443 1549.5 -158.216 1492.82 -114.724C1440.51 -74.5921 1356.84 -13.7543 1255.3 48.1783C1141.17 117.793 1028.17 174.571 919.461 216.935C783.54 269.91 653.965 300.371 534.336 307.474C416.39 314.484 306.305 298.804 207.148 260.884C152.987 240.169 101.071 212.412 52.8288 178.372C1.94968 142.469 -46.2185 98.5993 -90.3543 47.9725L-88.5099 46.6143Z" fill="url(#paint13_linear_1093_10270)"/>
<path d="M-68.6045 33.3815C88.2922 218.552 293.699 306.988 541.903 296.222C812.76 284.473 1086.81 154.903 1269.01 48.2914C1466.47 -67.2534 1601.56 -181.463 1602.9 -182.607L1604.22 -181.399C1603.88 -181.114 1569.94 -152.349 1512.04 -109.665C1458.59 -70.2767 1373.21 -10.6411 1269.91 49.8018C1153.8 117.751 1039.2 172.842 929.265 213.559C791.821 264.471 661.364 292.924 541.506 298.118C424.683 303.187 316.137 286.156 218.886 247.508C165.815 226.414 115.101 198.458 68.1737 164.417C18.697 128.529 -27.9452 84.8918 -70.4563 34.727L-68.5963 33.3768L-68.6045 33.3815Z" fill="url(#paint14_linear_1093_10270)"/>
<path d="M-48.7009 20.1395C102.303 203.689 303.338 293.377 548.822 286.73C820.181 279.381 1098.12 153.878 1283.5 49.8836C1484.4 -62.8026 1622.84 -175.194 1624.21 -176.316L1625.49 -175.066C1625.15 -174.783 1590.37 -146.482 1531.2 -104.611C1476.6 -65.9688 1389.44 -7.53698 1284.35 51.4178C1166.22 117.684 1049.96 171.088 938.804 210.139C799.827 258.968 668.465 285.376 548.392 288.628C432.774 291.76 325.838 273.387 230.545 234.024C178.586 212.555 129.11 184.423 83.4963 150.398C35.4331 114.545 -9.6768 71.1687 -50.5635 21.466L-48.6925 20.1347L-48.7009 20.1395Z" fill="url(#paint15_linear_1093_10270)"/>
<path d="M-28.7982 6.90223C116.322 188.75 312.891 279.659 555.462 277.106C827.287 274.246 1109.19 152.832 1297.81 51.4867C1502.21 -58.3456 1644.11 -168.905 1645.53 -170.009L1646.76 -168.724C1646.41 -168.448 1610.76 -140.602 1550.29 -99.5317C1494.49 -61.6358 1405.54 -4.40449 1298.61 53.0495C1178.42 117.633 1060.48 169.323 948.071 206.693C807.521 253.412 675.273 277.747 554.992 279.01C440.67 280.212 335.408 260.511 242.128 220.452C191.304 198.629 143.081 170.328 98.7972 136.327C52.1546 100.521 8.59249 57.4153 -30.6764 8.22072L-28.7946 6.90859L-28.7982 6.90223Z" fill="url(#paint16_linear_1093_10270)"/>
<path d="M-8.90889 -6.33018C130.332 173.745 322.354 265.813 561.821 267.328C834.046 269.053 1119.97 151.779 1311.9 53.1028C1519.91 -53.8438 1665.39 -162.613 1666.84 -163.702L1668.02 -162.382C1667.66 -162.107 1631.12 -134.72 1569.33 -94.4647C1512.32 -57.3167 1421.51 -1.28285 1312.7 54.6593C1190.39 117.547 1070.74 167.514 957.059 203.176C814.927 247.765 681.77 269.99 561.315 269.228C448.377 268.517 344.852 247.502 253.628 206.765C203.976 184.592 157.017 156.142 114.069 122.194C68.8578 86.4554 26.8413 43.6541 -10.8052 -5.04343L-8.90416 -6.34132L-8.90889 -6.33018Z" fill="url(#paint17_linear_1093_10270)"/>
<path d="M10.993 -19.5683C144.391 158.664 331.773 251.843 567.945 257.382C840.528 263.776 1130.57 150.675 1325.88 54.667C1537.57 -49.3908 1686.68 -156.334 1688.16 -157.4L1689.3 -156.045C1687.82 -154.979 1538.54 -47.9058 1326.63 56.2585C1202.17 117.441 1080.77 165.671 965.802 199.608C822.06 242.04 688.008 262.12 567.399 259.288C455.928 256.677 354.219 234.37 265.094 192.989C216.624 170.486 170.956 141.896 129.363 108.017C85.5947 72.3631 45.1276 29.873 9.08468 -18.2831L10.993 -19.5683Z" fill="url(#paint18_linear_1093_10270)"/>
<path d="M30.8921 -32.8103C158.47 143.523 341.14 237.744 573.841 247.25C846.711 258.402 1140.95 149.499 1339.73 56.1814C1555.15 -44.9512 1707.94 -150.049 1709.47 -151.098L1710.56 -149.714C1709.04 -148.66 1556.03 -43.4185 1340.39 57.8189C1213.73 117.283 1090.55 163.757 974.278 195.941C828.908 236.185 693.976 254.088 573.241 249.161C463.329 244.672 363.496 221.099 276.507 179.103C229.251 156.285 184.885 127.575 144.643 93.7744C102.327 58.2256 63.4086 16.0642 28.9645 -31.5394L30.8838 -32.8055L30.8921 -32.8103Z" fill="url(#paint19_linear_1093_10270)"/>
<path d="M50.8029 -46.035C172.598 128.328 350.479 223.534 579.515 236.94C852.591 252.94 1151.06 148.302 1353.37 57.7019C1572.61 -40.4815 1729.24 -143.757 1730.79 -144.789L1731.84 -143.371C1730.28 -142.338 1573.45 -38.9266 1353.99 59.3569C1225.09 117.085 1100.1 161.775 982.522 192.195C835.51 230.225 699.704 245.922 578.879 238.846C470.608 232.508 372.72 207.696 287.907 165.114C241.884 141.996 198.835 113.19 159.962 79.4829C119.103 44.0626 81.731 2.24721 48.8728 -44.7879L50.8029 -46.035Z" fill="url(#paint20_linear_1093_10270)"/>
<path d="M70.6962 -59.2669C186.752 113.067 359.779 209.185 584.961 226.431C858.136 247.34 1160.91 147.024 1366.78 59.1868C1589.93 -36.0126 1750.51 -137.477 1752.11 -138.493L1753.11 -137.039C1751.51 -136.024 1590.76 -34.4577 1367.41 60.837C1236.22 116.812 1109.41 159.704 990.506 188.328C841.838 224.119 705.171 237.576 584.307 228.323C477.772 220.165 381.871 194.149 299.28 151.005C254.504 127.612 212.788 98.7179 175.275 65.127C135.875 29.8416 100.045 -11.5992 68.7598 -58.0499L70.7127 -59.2763L70.6962 -59.2669Z" fill="url(#paint21_linear_1093_10270)"/>
<path d="M90.6015 -72.5034C322.117 284.619 767.244 249.418 1099.88 157.008C1288.31 104.655 1461.4 28.8213 1573.43 -25.5836C1694.83 -84.5418 1772.66 -131.711 1773.43 -132.185L1774.37 -130.703C1773.61 -130.23 1695.69 -83.0012 1574.19 -23.9986C1502.83 10.6541 1430.61 42.5336 1359.55 70.7503C1270.72 106.021 1183.44 135.65 1100.14 158.792C888.059 217.719 700.167 235.532 541.691 211.738C447.569 197.612 362.924 168.456 290.09 125.085C209.98 77.3849 142.211 11.3062 88.6506 -71.3118L90.6145 -72.5193L90.6015 -72.5034Z" fill="url(#paint22_linear_1093_10270)"/>
<path d="M110.493 -85.731C332.642 270.813 778.645 240.953 1113.67 153.129C1303.46 103.375 1478.53 30.1639 1591.98 -22.4861C1714.9 -79.5448 1793.96 -125.418 1794.75 -125.877L1795.64 -124.356C1794.85 -123.908 1715.71 -77.9756 1592.67 -20.8676C1520.42 12.6685 1447.37 43.4458 1375.58 70.608C1285.83 104.565 1197.79 132.932 1113.89 154.93C900.278 210.936 711.943 226.465 554.113 201.096C460.371 186.028 376.492 156.181 304.802 112.374C225.957 64.1958 159.911 -2.05945 108.515 -84.5491L110.489 -85.7373L110.493 -85.731Z" fill="url(#paint23_linear_1093_10270)"/>
</g>
</g>
<defs>
<linearGradient id="paint0_linear_1093_10270" x1="1920" y1="6.74615" x2="387.916" y2="906.667" gradientUnits="userSpaceOnUse">
<stop stop-color="#B0E8CB"/>
<stop offset="1" stop-color="#E8F8EE"/>
</linearGradient>
<linearGradient id="paint1_linear_1093_10270" x1="960" y1="0" x2="960" y2="253" gradientUnits="userSpaceOnUse">
<stop stop-color="#C0EDD5"/>
<stop offset="1" stop-color="white"/>
</linearGradient>
<linearGradient id="paint2_linear_1093_10270" x1="1284.1" y1="-370.847" x2="-159.787" y2="454.836" gradientUnits="userSpaceOnUse">
<stop offset="0.0625" stop-color="#C7863D"/>
<stop offset="0.5" stop-color="#FFCE6F"/>
<stop offset="0.9375" stop-color="#C7863D"/>
</linearGradient>
<linearGradient id="paint3_linear_1093_10270" x1="1297.61" y1="-378.097" x2="-138.889" y2="443.364" gradientUnits="userSpaceOnUse">
<stop offset="0.0625" stop-color="#C7863D"/>
<stop offset="0.5" stop-color="#FFCE6F"/>
<stop offset="0.9375" stop-color="#C7863D"/>
</linearGradient>
<linearGradient id="paint4_linear_1093_10270" x1="1311.19" y1="-385.226" x2="-117.918" y2="432.007" gradientUnits="userSpaceOnUse">
<stop offset="0.0625" stop-color="#C7863D"/>
<stop offset="0.5" stop-color="#FFCE6F"/>
<stop offset="0.9375" stop-color="#C7863D"/>
</linearGradient>
<linearGradient id="paint5_linear_1093_10270" x1="1324.85" y1="-392.187" x2="-96.8527" y2="420.815" gradientUnits="userSpaceOnUse">
<stop offset="0.0625" stop-color="#C7863D"/>
<stop offset="0.5" stop-color="#FFCE6F"/>
<stop offset="0.9375" stop-color="#C7863D"/>
</linearGradient>
<linearGradient id="paint6_linear_1093_10270" x1="1338.61" y1="-399.001" x2="-75.7167" y2="409.778" gradientUnits="userSpaceOnUse">
<stop offset="0.0625" stop-color="#C7863D"/>
<stop offset="0.5" stop-color="#FFCE6F"/>
<stop offset="0.9375" stop-color="#C7863D"/>
</linearGradient>
<linearGradient id="paint7_linear_1093_10270" x1="1352.46" y1="-405.637" x2="-54.4465" y2="398.9" gradientUnits="userSpaceOnUse">
<stop offset="0.0625" stop-color="#C7863D"/>
<stop offset="0.5" stop-color="#FFCE6F"/>
<stop offset="0.9375" stop-color="#C7863D"/>
</linearGradient>
<linearGradient id="paint8_linear_1093_10270" x1="1366.43" y1="-412.074" x2="-33.0992" y2="388.245" gradientUnits="userSpaceOnUse">
<stop offset="0.0625" stop-color="#C7863D"/>
<stop offset="0.5" stop-color="#FFCE6F"/>
<stop offset="0.9375" stop-color="#C7863D"/>
</linearGradient>
<linearGradient id="paint9_linear_1093_10270" x1="1380.51" y1="-418.309" x2="-11.6225" y2="377.778" gradientUnits="userSpaceOnUse">
<stop offset="0.0625" stop-color="#C7863D"/>
<stop offset="0.5" stop-color="#FFCE6F"/>
<stop offset="0.9375" stop-color="#C7863D"/>
</linearGradient>
<linearGradient id="paint10_linear_1093_10270" x1="1394.71" y1="-424.335" x2="9.9671" y2="367.53" gradientUnits="userSpaceOnUse">
<stop offset="0.0625" stop-color="#C7863D"/>
<stop offset="0.5" stop-color="#FFCE6F"/>
<stop offset="0.9375" stop-color="#C7863D"/>
</linearGradient>
<linearGradient id="paint11_linear_1093_10270" x1="1409.06" y1="-430.11" x2="31.726" y2="357.517" gradientUnits="userSpaceOnUse">
<stop offset="0.0625" stop-color="#C7863D"/>
<stop offset="0.5" stop-color="#FFCE6F"/>
<stop offset="0.9375" stop-color="#C7863D"/>
</linearGradient>
<linearGradient id="paint12_linear_1093_10270" x1="1423.56" y1="-435.614" x2="53.6394" y2="347.771" gradientUnits="userSpaceOnUse">
<stop offset="0.0625" stop-color="#C7863D"/>
<stop offset="0.5" stop-color="#FFCE6F"/>
<stop offset="0.9375" stop-color="#C7863D"/>
</linearGradient>
<linearGradient id="paint13_linear_1093_10270" x1="1438.2" y1="-440.842" x2="75.6788" y2="338.317" gradientUnits="userSpaceOnUse">
<stop offset="0.0625" stop-color="#C7863D"/>
<stop offset="0.5" stop-color="#FFCE6F"/>
<stop offset="0.9375" stop-color="#C7863D"/>
</linearGradient>
<linearGradient id="paint14_linear_1093_10270" x1="1453.04" y1="-445.768" x2="97.9138" y2="329.158" gradientUnits="userSpaceOnUse">
<stop offset="0.0625" stop-color="#C7863D"/>
<stop offset="0.5" stop-color="#FFCE6F"/>
<stop offset="0.9375" stop-color="#C7863D"/>
</linearGradient>
<linearGradient id="paint15_linear_1093_10270" x1="1468.06" y1="-450.375" x2="120.336" y2="320.32" gradientUnits="userSpaceOnUse">
<stop offset="0.0625" stop-color="#C7863D"/>
<stop offset="0.5" stop-color="#FFCE6F"/>
<stop offset="0.9375" stop-color="#C7863D"/>
</linearGradient>
<linearGradient id="paint16_linear_1093_10270" x1="1483.27" y1="-454.615" x2="142.952" y2="311.847" gradientUnits="userSpaceOnUse">
<stop offset="0.0625" stop-color="#C7863D"/>
<stop offset="0.5" stop-color="#FFCE6F"/>
<stop offset="0.9375" stop-color="#C7863D"/>
</linearGradient>
<linearGradient id="paint17_linear_1093_10270" x1="1498.7" y1="-458.478" x2="165.779" y2="303.751" gradientUnits="userSpaceOnUse">
<stop offset="0.0625" stop-color="#C7863D"/>
<stop offset="0.5" stop-color="#FFCE6F"/>
<stop offset="0.9375" stop-color="#C7863D"/>
</linearGradient>
<linearGradient id="paint18_linear_1093_10270" x1="1514.37" y1="-461.936" x2="188.845" y2="296.067" gradientUnits="userSpaceOnUse">
<stop offset="0.0625" stop-color="#C7863D"/>
<stop offset="0.5" stop-color="#FFCE6F"/>
<stop offset="0.9375" stop-color="#C7863D"/>
</linearGradient>
<linearGradient id="paint19_linear_1093_10270" x1="1530.28" y1="-464.968" x2="212.151" y2="288.802" gradientUnits="userSpaceOnUse">
<stop offset="0.0625" stop-color="#C7863D"/>
<stop offset="0.5" stop-color="#FFCE6F"/>
<stop offset="0.9375" stop-color="#C7863D"/>
</linearGradient>
<linearGradient id="paint20_linear_1093_10270" x1="1546.46" y1="-467.549" x2="235.737" y2="281.985" gradientUnits="userSpaceOnUse">
<stop offset="0.0625" stop-color="#C7863D"/>
<stop offset="0.5" stop-color="#FFCE6F"/>
<stop offset="0.9375" stop-color="#C7863D"/>
</linearGradient>
<linearGradient id="paint21_linear_1093_10270" x1="1562.87" y1="-469.702" x2="259.557" y2="275.599" gradientUnits="userSpaceOnUse">
<stop offset="0.0625" stop-color="#C7863D"/>
<stop offset="0.5" stop-color="#FFCE6F"/>
<stop offset="0.9375" stop-color="#C7863D"/>
</linearGradient>
<linearGradient id="paint22_linear_1093_10270" x1="1579.52" y1="-471.447" x2="283.61" y2="269.617" gradientUnits="userSpaceOnUse">
<stop offset="0.0625" stop-color="#C7863D"/>
<stop offset="0.5" stop-color="#FFCE6F"/>
<stop offset="0.9375" stop-color="#C7863D"/>
</linearGradient>
<linearGradient id="paint23_linear_1093_10270" x1="1596.33" y1="-472.893" x2="307.803" y2="263.948" gradientUnits="userSpaceOnUse">
<stop offset="0.0625" stop-color="#C7863D"/>
<stop offset="0.5" stop-color="#FFCE6F"/>
<stop offset="0.9375" stop-color="#C7863D"/>
</linearGradient>
<clipPath id="clip0_1093_10270">
<rect width="1600" height="253" fill="white"/>
</clipPath>
<clipPath id="clip1_1093_10270">
<rect width="1261" height="803" fill="white" transform="translate(1167.14 235.047) rotate(150.237)"/>
</clipPath>
</defs>
</svg>
