<svg width="156" height="129" viewBox="0 0 156 129" fill="none" xmlns="http://www.w3.org/2000/svg">
<g opacity="0.3" clip-path="url(#clip0_1093_10396)">
<path fill-rule="evenodd" clip-rule="evenodd" d="M66.8611 0C44.8603 0 27.8991 4.67942 16.5393 16.0393C5.17942 27.3991 0.5 44.3603 0.5 66.3611V113.639C0.5 135.64 5.17941 152.601 16.5393 163.961C27.8991 175.321 44.8603 180 66.8611 180H114.139C136.14 180 153.101 175.321 164.461 163.961C175.821 152.601 180.5 135.64 180.5 113.639V66.3611C180.5 44.3603 175.821 27.3991 164.461 16.0393C153.101 4.67941 136.14 0 114.139 0H66.8611ZM11.0882 66.3611C11.0882 45.5757 15.5492 32.0034 24.0263 23.5263C32.5034 15.0492 46.0757 10.5882 66.8611 10.5882H114.139C134.924 10.5882 148.497 15.0492 156.974 23.5263C165.451 32.0034 169.912 45.5757 169.912 66.3611V113.639C169.912 134.424 165.451 147.997 156.974 156.474C148.497 164.951 134.924 169.412 114.139 169.412H66.8611C46.1845 169.412 32.6456 164.997 24.1598 156.607C32.2104 144.785 40.3151 132.884 48.5644 120.768C56.3152 126.445 64.0489 132.11 71.9873 137.921L73.0955 138.733L100.872 97.9371C104.977 100.945 109.122 103.985 113.262 107.02L115.968 109.005L110.222 71.7881L73.6591 78.2981C73.6591 78.2981 83.2084 85.5426 86.2476 87.7316L89.4447 90.0344C82.8895 99.6567 76.361 109.243 69.7748 118.915L69.5627 119.226C61.9537 113.65 54.2696 108.018 46.7525 102.512L45.6454 101.701L43.553 104.771C34.4177 118.187 25.3182 131.55 16.274 144.83C12.8537 136.936 11.0882 126.715 11.0882 113.639V66.3611Z" fill="url(#paint0_linear_1093_10396)"/>
<path fill-rule="evenodd" clip-rule="evenodd" d="M128 33.7501C119.715 33.7501 113 40.4658 113 48.7501C113 57.0344 119.715 63.7501 128 63.7501C136.285 63.7501 143 57.0344 143 48.7501C143 40.4658 136.285 33.7501 128 33.7501Z" fill="url(#paint1_linear_1093_10396)"/>
</g>
<defs>
<linearGradient id="paint0_linear_1093_10396" x1="0.5" y1="90" x2="180.5" y2="90" gradientUnits="userSpaceOnUse">
<stop offset="0.0625" stop-color="#C7863D"/>
<stop offset="0.5" stop-color="#FFCE6F"/>
<stop offset="0.9375" stop-color="#C7863D"/>
</linearGradient>
<linearGradient id="paint1_linear_1093_10396" x1="113" y1="48.7501" x2="143" y2="48.7501" gradientUnits="userSpaceOnUse">
<stop offset="0.0625" stop-color="#C7863D"/>
<stop offset="0.5" stop-color="#FFCE6F"/>
<stop offset="0.9375" stop-color="#C7863D"/>
</linearGradient>
<clipPath id="clip0_1093_10396">
<rect width="180" height="180" fill="white" transform="translate(0.5)"/>
</clipPath>
</defs>
</svg>
