<svg width="156" height="129" viewBox="0 0 156 129" fill="none" xmlns="http://www.w3.org/2000/svg">
<g opacity="0.3" clip-path="url(#clip0_1093_10406)">
<path d="M111.461 15H44.3072C10.9708 15 0.835938 24.7297 0.835938 56.6757L0.836061 123.517C0.815043 149.994 7.85914 161.135 29.3916 164.126V152.743C23.242 151.713 19.8594 149.992 17.8292 148.053C14.7133 145.077 12.0774 138.943 12.0896 123.526L12.0895 66.7906H88.1939C91.6882 66.7906 94.5859 64.2406 94.5859 61.1656C94.5859 58.0906 91.6882 55.5406 88.1939 55.5406H12.0943C12.2204 40.8682 14.8025 34.9094 17.8607 31.9768C21.1445 28.8278 27.9582 26.25 44.3072 26.25H111.461C114.568 26.25 117.086 23.7316 117.086 20.625C117.086 17.5184 114.568 15 111.461 15Z" fill="#007A5B"/>
<path d="M111.461 15H44.3072C10.9708 15 0.835938 24.7297 0.835938 56.6757L0.836061 123.517C0.815043 149.994 7.85914 161.135 29.3916 164.126V152.743C23.242 151.713 19.8594 149.992 17.8292 148.053C14.7133 145.077 12.0774 138.943 12.0896 123.526L12.0895 66.7906H88.1939C91.6882 66.7906 94.5859 64.2406 94.5859 61.1656C94.5859 58.0906 91.6882 55.5406 88.1939 55.5406H12.0943C12.2204 40.8682 14.8025 34.9094 17.8607 31.9768C21.1445 28.8278 27.9582 26.25 44.3072 26.25H111.461C114.568 26.25 117.086 23.7316 117.086 20.625C117.086 17.5184 114.568 15 111.461 15Z" fill="url(#paint0_linear_1093_10406)"/>
<path d="M137.448 165H102.565V153.75H137.448C153.753 153.75 160.563 151.185 163.843 148.052C166.959 145.076 169.595 138.942 169.582 123.524L169.586 91.1249C169.586 88.0183 172.104 85.4999 175.211 85.4999C178.318 85.4999 180.836 88.0183 180.836 91.1249L180.836 123.515C180.861 155.325 170.69 165 137.448 165Z" fill="#007A5B"/>
<path d="M137.448 165H102.565V153.75H137.448C153.753 153.75 160.563 151.185 163.843 148.052C166.959 145.076 169.595 138.942 169.582 123.524L169.586 91.1249C169.586 88.0183 172.104 85.4999 175.211 85.4999C178.318 85.4999 180.836 88.0183 180.836 91.1249L180.836 123.515C180.861 155.325 170.69 165 137.448 165Z" fill="url(#paint1_linear_1093_10406)"/>
<path d="M132.356 132.567H115.609C112.176 132.567 109.329 129.811 109.329 126.486C109.329 123.162 112.176 120.405 115.609 120.405H132.356C135.789 120.405 138.636 123.162 138.636 126.486C138.636 129.811 135.789 132.567 132.356 132.567Z" fill="#007A5B"/>
<path d="M132.356 132.567H115.609C112.176 132.567 109.329 129.811 109.329 126.486C109.329 123.162 112.176 120.405 115.609 120.405H132.356C135.789 120.405 138.636 123.162 138.636 126.486C138.636 129.811 135.789 132.567 132.356 132.567Z" fill="url(#paint2_linear_1093_10406)"/>
<path d="M149.282 110.068H115.789C112.356 110.068 109.509 107.311 109.509 103.986C109.509 100.662 112.356 97.9053 115.789 97.9053H149.282C152.715 97.9053 155.562 100.662 155.562 103.986C155.562 107.311 152.715 110.068 149.282 110.068Z" fill="#007A5B"/>
<path d="M149.282 110.068H115.789C112.356 110.068 109.509 107.311 109.509 103.986C109.509 100.662 112.356 97.9053 115.789 97.9053H149.282C152.715 97.9053 155.562 100.662 155.562 103.986C155.562 107.311 152.715 110.068 149.282 110.068Z" fill="url(#paint3_linear_1093_10406)"/>
<path d="M54.682 138.006L74.2767 141.165C78.5081 141.853 81.5711 145.465 81.5711 149.767C81.5711 153.633 78.438 156.776 74.6006 156.776H56.0713C52.2339 156.776 49.1007 153.633 49.1007 149.767V144.362H38.3359V149.767C38.3359 159.595 46.2901 167.586 56.0713 167.586H59.9535V180H70.7183V167.586H74.6006C84.3818 167.586 92.3359 159.595 92.3359 149.767C92.3359 140.142 85.4604 132.027 75.9899 130.494L56.3947 127.335C52.1636 126.647 49.1007 123.035 49.1007 118.733C49.1007 114.867 52.2339 111.724 56.0713 111.724H74.6006C78.438 111.724 81.5711 114.867 81.5711 118.733V124.138H92.3359V118.733C92.3359 108.905 84.3818 100.914 74.6006 100.914H70.7183V88.4999H59.9535V100.914H56.0713C46.2901 100.914 38.3359 108.905 38.3359 118.733C38.3359 128.357 45.2115 136.473 54.682 138.006Z" fill="#007A5B"/>
<path d="M54.682 138.006L74.2767 141.165C78.5081 141.853 81.5711 145.465 81.5711 149.767C81.5711 153.633 78.438 156.776 74.6006 156.776H56.0713C52.2339 156.776 49.1007 153.633 49.1007 149.767V144.362H38.3359V149.767C38.3359 159.595 46.2901 167.586 56.0713 167.586H59.9535V180H70.7183V167.586H74.6006C84.3818 167.586 92.3359 159.595 92.3359 149.767C92.3359 140.142 85.4604 132.027 75.9899 130.494L56.3947 127.335C52.1636 126.647 49.1007 123.035 49.1007 118.733C49.1007 114.867 52.2339 111.724 56.0713 111.724H74.6006C78.438 111.724 81.5711 114.867 81.5711 118.733V124.138H92.3359V118.733C92.3359 108.905 84.3818 100.914 74.6006 100.914H70.7183V88.4999H59.9535V100.914H56.0713C46.2901 100.914 38.3359 108.905 38.3359 118.733C38.3359 128.357 45.2115 136.473 54.682 138.006Z" fill="url(#paint4_linear_1093_10406)"/>
<path fill-rule="evenodd" clip-rule="evenodd" d="M146.378 18.1954C141.985 22.588 141.986 29.7112 146.38 34.1053C150.775 38.4995 157.898 38.5008 162.29 34.1081C166.683 29.7155 166.682 22.5924 162.288 18.1982C157.893 13.804 150.77 13.8027 146.378 18.1954ZM151.683 28.803C150.218 27.3382 150.218 24.9638 151.682 23.4996C153.146 22.0354 155.52 22.0358 156.985 23.5006C158.45 24.9653 158.45 27.3397 156.986 28.8039C155.522 30.2681 153.147 30.2677 151.683 28.803Z" fill="#007A5B"/>
<path fill-rule="evenodd" clip-rule="evenodd" d="M146.378 18.1954C141.985 22.588 141.986 29.7112 146.38 34.1053C150.775 38.4995 157.898 38.5008 162.29 34.1081C166.683 29.7155 166.682 22.5924 162.288 18.1982C157.893 13.804 150.77 13.8027 146.378 18.1954ZM151.683 28.803C150.218 27.3382 150.218 24.9638 151.682 23.4996C153.146 22.0354 155.52 22.0358 156.985 23.5006C158.45 24.9653 158.45 27.3397 156.986 28.8039C155.522 30.2681 153.147 30.2677 151.683 28.803Z" fill="url(#paint5_linear_1093_10406)"/>
<path fill-rule="evenodd" clip-rule="evenodd" d="M127.886 26.4391C127.886 11.8507 139.725 0.0221602 154.323 3.08968e-05C168.935 -0.0221161 180.822 11.865 180.825 26.4529V26.4621C180.804 35.7841 175.97 44.005 168.671 48.694L168.656 66.4821C168.67 67.9821 168.202 69.4098 167.631 70.5292C167.055 71.6588 166.187 72.8382 165.041 73.697L159.787 77.6795C158.143 78.9226 156.15 79.4203 154.343 79.4158C152.535 79.4113 150.568 78.9041 148.941 77.7081L148.896 77.6748L143.644 73.6932C142.464 72.8084 141.609 71.5896 141.055 70.4806C140.497 69.3647 140.049 67.9743 140.027 66.5524L140.027 66.4965L140.024 48.6997C132.737 43.9867 127.866 35.7878 127.886 26.4391ZM154.337 7.50006C143.863 7.51593 135.384 16.0037 135.386 26.4449L135.386 26.4541C135.37 33.7111 139.482 40.0416 145.528 43.2427C146.755 43.8928 147.523 45.1682 147.524 46.5573L147.527 66.4397C147.529 66.4559 147.537 66.5198 147.567 66.6302C147.607 66.775 147.673 66.9483 147.762 67.1277C147.852 67.3073 147.95 67.459 148.037 67.5708C148.1 67.6517 148.149 67.6978 148.149 67.6978L148.164 67.7096L153.393 71.6738C153.534 71.7721 153.874 71.9146 154.359 71.9158C154.858 71.917 155.166 71.7687 155.262 71.6966L160.519 67.7119L160.541 67.6951C160.541 67.6951 160.599 67.6454 160.679 67.5455C160.769 67.4324 160.865 67.2854 160.95 67.118C161.036 66.9501 161.094 66.7948 161.127 66.6722C161.15 66.5899 161.156 66.5353 161.156 66.5353L161.156 66.4962L161.159 62.9964L155.146 62.9954C153.075 62.995 151.395 61.3158 151.395 59.2447C151.395 57.1736 153.073 55.495 155.144 55.4954L161.165 55.4964L161.173 46.5345C161.174 45.1407 161.949 43.8628 163.183 43.2166C169.199 40.0682 173.307 33.7299 173.325 26.4474C173.321 16.0056 164.798 7.4842 154.337 7.50006Z" fill="#007A5B"/>
<path fill-rule="evenodd" clip-rule="evenodd" d="M127.886 26.4391C127.886 11.8507 139.725 0.0221602 154.323 3.08968e-05C168.935 -0.0221161 180.822 11.865 180.825 26.4529V26.4621C180.804 35.7841 175.97 44.005 168.671 48.694L168.656 66.4821C168.67 67.9821 168.202 69.4098 167.631 70.5292C167.055 71.6588 166.187 72.8382 165.041 73.697L159.787 77.6795C158.143 78.9226 156.15 79.4203 154.343 79.4158C152.535 79.4113 150.568 78.9041 148.941 77.7081L148.896 77.6748L143.644 73.6932C142.464 72.8084 141.609 71.5896 141.055 70.4806C140.497 69.3647 140.049 67.9743 140.027 66.5524L140.027 66.4965L140.024 48.6997C132.737 43.9867 127.866 35.7878 127.886 26.4391ZM154.337 7.50006C143.863 7.51593 135.384 16.0037 135.386 26.4449L135.386 26.4541C135.37 33.7111 139.482 40.0416 145.528 43.2427C146.755 43.8928 147.523 45.1682 147.524 46.5573L147.527 66.4397C147.529 66.4559 147.537 66.5198 147.567 66.6302C147.607 66.775 147.673 66.9483 147.762 67.1277C147.852 67.3073 147.95 67.459 148.037 67.5708C148.1 67.6517 148.149 67.6978 148.149 67.6978L148.164 67.7096L153.393 71.6738C153.534 71.7721 153.874 71.9146 154.359 71.9158C154.858 71.917 155.166 71.7687 155.262 71.6966L160.519 67.7119L160.541 67.6951C160.541 67.6951 160.599 67.6454 160.679 67.5455C160.769 67.4324 160.865 67.2854 160.95 67.118C161.036 66.9501 161.094 66.7948 161.127 66.6722C161.15 66.5899 161.156 66.5353 161.156 66.5353L161.156 66.4962L161.159 62.9964L155.146 62.9954C153.075 62.995 151.395 61.3158 151.395 59.2447C151.395 57.1736 153.073 55.495 155.144 55.4954L161.165 55.4964L161.173 46.5345C161.174 45.1407 161.949 43.8628 163.183 43.2166C169.199 40.0682 173.307 33.7299 173.325 26.4474C173.321 16.0056 164.798 7.4842 154.337 7.50006Z" fill="url(#paint6_linear_1093_10406)"/>
</g>
<defs>
<linearGradient id="paint0_linear_1093_10406" x1="0.835938" y1="89.9999" x2="180.836" y2="89.9999" gradientUnits="userSpaceOnUse">
<stop offset="0.0625" stop-color="#C7863D"/>
<stop offset="0.5" stop-color="#FFCE6F"/>
<stop offset="0.9375" stop-color="#C7863D"/>
</linearGradient>
<linearGradient id="paint1_linear_1093_10406" x1="0.835938" y1="89.9999" x2="180.836" y2="89.9999" gradientUnits="userSpaceOnUse">
<stop offset="0.0625" stop-color="#C7863D"/>
<stop offset="0.5" stop-color="#FFCE6F"/>
<stop offset="0.9375" stop-color="#C7863D"/>
</linearGradient>
<linearGradient id="paint2_linear_1093_10406" x1="0.835938" y1="89.9999" x2="180.836" y2="89.9999" gradientUnits="userSpaceOnUse">
<stop offset="0.0625" stop-color="#C7863D"/>
<stop offset="0.5" stop-color="#FFCE6F"/>
<stop offset="0.9375" stop-color="#C7863D"/>
</linearGradient>
<linearGradient id="paint3_linear_1093_10406" x1="0.835938" y1="89.9999" x2="180.836" y2="89.9999" gradientUnits="userSpaceOnUse">
<stop offset="0.0625" stop-color="#C7863D"/>
<stop offset="0.5" stop-color="#FFCE6F"/>
<stop offset="0.9375" stop-color="#C7863D"/>
</linearGradient>
<linearGradient id="paint4_linear_1093_10406" x1="0.835938" y1="89.9999" x2="180.836" y2="89.9999" gradientUnits="userSpaceOnUse">
<stop offset="0.0625" stop-color="#C7863D"/>
<stop offset="0.5" stop-color="#FFCE6F"/>
<stop offset="0.9375" stop-color="#C7863D"/>
</linearGradient>
<linearGradient id="paint5_linear_1093_10406" x1="0.835938" y1="89.9999" x2="180.836" y2="89.9999" gradientUnits="userSpaceOnUse">
<stop offset="0.0625" stop-color="#C7863D"/>
<stop offset="0.5" stop-color="#FFCE6F"/>
<stop offset="0.9375" stop-color="#C7863D"/>
</linearGradient>
<linearGradient id="paint6_linear_1093_10406" x1="0.835938" y1="89.9999" x2="180.836" y2="89.9999" gradientUnits="userSpaceOnUse">
<stop offset="0.0625" stop-color="#C7863D"/>
<stop offset="0.5" stop-color="#FFCE6F"/>
<stop offset="0.9375" stop-color="#C7863D"/>
</linearGradient>
<clipPath id="clip0_1093_10406">
<rect width="180" height="180" fill="white" transform="translate(0.835938)"/>
</clipPath>
</defs>
</svg>
