<svg width="155" height="129" viewBox="0 0 155 129" fill="none" xmlns="http://www.w3.org/2000/svg">
<g opacity="0.3" clip-path="url(#clip0_1093_10401)">
<path d="M160.18 125.766L161.439 126.19C172.396 129.885 180.312 140.255 180.312 152.449C180.312 167.725 167.889 180.148 152.613 180.148H27.7148C12.4388 180.148 0.0157574 167.725 0.015625 152.449C0.015625 140.255 7.94021 129.877 18.8975 126.19L20.1562 125.767L20.2588 125.731L20.3232 125.818L21.1201 126.882C22.7084 129.002 24.3883 131.048 26.1602 133.007L28.415 135.499L28.5977 135.7L28.3291 135.745L25.0146 136.297C17.2639 137.588 11.3408 144.341 11.3408 152.449C11.341 161.484 18.6949 168.831 27.7227 168.831H152.613C161.641 168.831 168.995 161.483 168.995 152.449C168.995 144.342 163.065 137.588 155.321 136.297L152.015 135.746L151.746 135.701L151.929 135.5L154.172 133.01C155.94 131.047 157.629 129 159.216 126.882L160.013 125.817L160.077 125.731L160.18 125.766ZM90.1641 -0.148438C131.772 -0.148438 165.619 33.6983 165.619 75.3057C165.619 116.913 131.772 150.761 90.1641 150.761C48.5564 150.761 14.709 116.913 14.709 75.3057C14.7092 33.6983 48.5565 -0.148438 90.1641 -0.148438ZM90.1641 11.1689C54.8053 11.1689 26.0276 39.9397 26.0273 75.3057C26.0273 110.672 54.8051 139.443 90.1641 139.443C125.523 139.443 154.301 110.672 154.301 75.3057C154.301 39.9397 125.523 11.1689 90.1641 11.1689ZM95.8232 21.8916V36.5859H101.185C112.405 36.586 121.537 45.7102 121.537 56.9385V62.5977H110.22V56.9385C110.22 51.9593 106.164 47.9043 101.185 47.9043H79.1436C74.1645 47.9044 70.1096 51.9593 70.1094 56.9385C70.1094 62.3909 74.014 66.9772 79.4092 67.8506L102.719 71.5898L103.228 71.6777C113.866 73.6374 121.537 82.8133 121.537 93.6738C121.537 104.902 112.405 114.026 101.185 114.026H95.8232V128.721H84.5049V114.026H79.1436C67.9235 114.026 58.7912 104.902 58.791 93.6738V88.0146H70.1094V93.6738C70.1095 98.653 74.1645 102.708 79.1436 102.708H101.185C106.164 102.708 110.22 98.6531 110.22 93.6738C110.22 88.2214 106.314 83.6351 100.919 82.7617L77.6094 79.0225C66.7071 77.2658 58.791 67.9714 58.791 56.9385C58.7912 45.7102 67.9235 36.586 79.1436 36.5859H84.5049V21.8916H95.8232Z" fill="url(#paint0_linear_1093_10401)" stroke="url(#paint1_linear_1093_10401)" stroke-width="0.297619"/>
</g>
<defs>
<linearGradient id="paint0_linear_1093_10401" x1="0.164063" y1="90" x2="180.164" y2="90" gradientUnits="userSpaceOnUse">
<stop offset="0.0625" stop-color="#C7863D"/>
<stop offset="0.5" stop-color="#FFCE6F"/>
<stop offset="0.9375" stop-color="#C7863D"/>
</linearGradient>
<linearGradient id="paint1_linear_1093_10401" x1="0.164063" y1="90" x2="180.164" y2="90" gradientUnits="userSpaceOnUse">
<stop offset="0.0625" stop-color="#C7863D"/>
<stop offset="0.5" stop-color="#FFCE6F"/>
<stop offset="0.9375" stop-color="#C7863D"/>
</linearGradient>
<clipPath id="clip0_1093_10401">
<rect width="180" height="180" fill="white" transform="translate(0.164062)"/>
</clipPath>
</defs>
</svg>
