<svg width="24" height="25" viewBox="0 0 24 25" fill="none" xmlns="http://www.w3.org/2000/svg">
<path d="M10 22.7351H14C17.7712 22.7351 19.6569 22.7351 20.8284 21.5635C22 20.3919 22 18.5063 22 14.7351C22 10.9638 22 9.07821 20.8284 7.90664C20.4658 7.54404 20.0343 7.29366 19.4996 7.12078C19.5 7.2903 19.5 7.46367 19.5 7.64003L19.5 9.79814C19.5 9.82749 19.5003 9.85947 19.5006 9.89379C19.5035 10.2342 19.5085 10.8048 19.264 11.3269C19.0195 11.849 18.578 12.2104 18.3145 12.4261C18.2882 12.4477 18.263 12.4683 18.2407 12.4869L16.7342 13.7423C15.8734 14.4597 15.1241 15.0842 14.4505 15.5174C13.7245 15.9844 12.9391 16.3298 12 16.3298C11.0609 16.3298 10.2756 15.9844 9.54949 15.5174C8.87589 15.0842 8.12661 14.4597 7.26587 13.7423L5.75937 12.4869C5.73681 12.4681 5.71207 12.4479 5.68551 12.4261C5.42207 12.2104 4.98056 11.849 4.73604 11.3269C4.49152 10.8048 4.49648 10.2342 4.49944 9.89379C4.49973 9.85948 4.50001 9.82749 4.50001 9.79814L4.50001 7.64002C4.49999 7.46344 4.49998 7.29014 4.5004 7.12042C3.96577 7.29332 3.53442 7.54379 3.17157 7.90664C2 9.07821 2 10.9638 2 14.7351C2 18.5063 2 20.3919 3.17157 21.5635C4.34314 22.7351 6.22877 22.7351 10 22.7351Z" fill="#292929"/>
<path fill-rule="evenodd" clip-rule="evenodd" d="M6.71972 11.3346L8.15898 12.5339C9.99562 14.0645 10.9139 14.8297 12.0001 14.8297C13.0862 14.8297 14.0046 14.0645 15.8412 12.5339L17.2805 11.3346C17.6343 11.0397 17.8113 10.8922 17.9057 10.6906C18.0001 10.4891 18.0001 10.2588 18.0001 9.79811V7.73486C18.0001 7.41423 18.0001 7.11541 17.9982 6.83655C17.9865 5.06547 17.9005 4.09972 17.2679 3.4671C16.5356 2.73486 15.3571 2.73486 13.0001 2.73486H11.0001C8.64306 2.73486 7.46455 2.73486 6.73232 3.4671C6.09969 4.09972 6.01179 5.06547 6.00009 6.83655C5.99824 7.11541 6.00009 7.41423 6.00009 7.73486V9.79811C6.00009 10.2588 6.00009 10.4891 6.0945 10.6906C6.18891 10.8922 6.36584 11.0397 6.71972 11.3346ZM9.25 6.73486C9.25 6.32065 9.58579 5.98486 10 5.98486H14C14.4142 5.98486 14.75 6.32065 14.75 6.73486C14.75 7.14908 14.4142 7.48486 14 7.48486H10C9.58579 7.48486 9.25 7.14908 9.25 6.73486ZM10.25 9.73486C10.25 9.32065 10.5858 8.98486 11 8.98486H13C13.4142 8.98486 13.75 9.32065 13.75 9.73486C13.75 10.1491 13.4142 10.4849 13 10.4849H11C10.5858 10.4849 10.25 10.1491 10.25 9.73486Z" fill="#292929"/>
</svg>
