<svg width="24" height="25" viewBox="0 0 24 25" fill="none" xmlns="http://www.w3.org/2000/svg">
<path d="M19 5.73486L15 9.73486M15 9.73486V6.73486M15 9.73486H18" stroke="#292929" stroke-width="1.5" stroke-linecap="round" stroke-linejoin="round"/>
<path d="M15.5562 15.2826L15.1007 15.7621C15.1007 15.7621 14.0181 16.9018 11.0631 13.7908C8.10812 10.6797 9.1907 9.53994 9.1907 9.53994L9.47752 9.23798C10.1841 8.49411 10.2507 7.29983 9.63424 6.42796L8.37326 4.64448C7.61028 3.56536 6.13596 3.42281 5.26145 4.34351L3.69185 5.996C3.25823 6.45252 2.96765 7.04431 3.00289 7.7008C3.09304 9.38032 3.81071 12.9939 7.81536 17.21C12.0621 21.6811 16.0468 21.8588 17.6763 21.698C18.1917 21.6471 18.6399 21.3691 19.0011 20.9889L20.4217 19.4933C21.3806 18.4838 21.1102 16.753 19.8833 16.0468L17.9728 14.9472C17.1672 14.4835 16.1858 14.6197 15.5562 15.2826Z" fill="#292929"/>
</svg>
