<svg width="20" height="20" viewBox="0 0 20 20" fill="none" xmlns="http://www.w3.org/2000/svg">
<path fill-rule="evenodd" clip-rule="evenodd" d="M15.796 1.04169C15.4354 1.04165 15.1047 1.04161 14.8357 1.07778C14.5394 1.1176 14.2263 1.21131 13.9688 1.46883C13.7113 1.72635 13.6176 2.03945 13.5778 2.33569C13.5416 2.60469 13.5416 2.93538 13.5417 3.29606V14.204C13.5416 14.5647 13.5416 14.8954 13.5778 15.1644C13.6176 15.4606 13.7113 15.7737 13.9688 16.0312C14.2263 16.2887 14.5394 16.3825 14.8357 16.4223C15.1047 16.4584 15.4354 16.4584 15.7961 16.4584H15.8706C16.2313 16.4584 16.562 16.4584 16.831 16.4223C17.1272 16.3825 17.4404 16.2887 17.6979 16.0312C17.9554 15.7737 18.0491 15.4606 18.0889 15.1644C18.1251 14.8954 18.1251 14.5647 18.125 14.204V3.29607C18.1251 2.93539 18.1251 2.6047 18.0889 2.33569C18.0491 2.03945 17.9554 1.72635 17.6979 1.46883C17.4404 1.21131 17.1272 1.1176 16.831 1.07778C16.562 1.04161 16.2313 1.04165 15.8706 1.04169H15.796ZM14.8547 2.35158L14.8527 2.35272L14.8516 2.35475C14.8507 2.35636 14.8494 2.35913 14.8476 2.36333C14.8402 2.38148 14.8274 2.42178 14.8166 2.50225C14.793 2.67785 14.7917 2.92285 14.7917 3.33336V14.1667C14.7917 14.5772 14.793 14.8222 14.8166 14.9978C14.8274 15.0783 14.8402 15.1186 14.8476 15.1367C14.8494 15.1409 14.8507 15.1437 14.8516 15.1453L14.8527 15.1473L14.8547 15.1485C14.8554 15.1488 14.8563 15.1493 14.8574 15.1498C14.8589 15.1505 14.8609 15.1514 14.8633 15.1524C14.8815 15.1599 14.9218 15.1726 15.0022 15.1834C15.1778 15.207 15.4228 15.2084 15.8333 15.2084C16.2438 15.2084 16.4889 15.207 16.6645 15.1834C16.7449 15.1726 16.7852 15.1599 16.8034 15.1524C16.8076 15.1507 16.8103 15.1493 16.8119 15.1485L16.814 15.1473L16.8151 15.1453C16.816 15.1437 16.8173 15.1409 16.819 15.1367C16.8265 15.1186 16.8393 15.0783 16.8501 14.9978C16.8737 14.8222 16.875 14.5772 16.875 14.1667V3.33336C16.875 2.92285 16.8737 2.67785 16.8501 2.50225C16.8393 2.42178 16.8265 2.38148 16.819 2.36333C16.8173 2.35913 16.816 2.35636 16.8151 2.35475L16.814 2.35272L16.8119 2.35158C16.8103 2.35074 16.8076 2.34939 16.8034 2.34766C16.7852 2.34019 16.7449 2.32745 16.6645 2.31663C16.4889 2.29302 16.2438 2.29169 15.8333 2.29169C15.4228 2.29169 15.1778 2.29302 15.0022 2.31663C14.9218 2.32745 14.8815 2.34019 14.8633 2.34766C14.8591 2.34939 14.8563 2.35074 14.8547 2.35158Z" fill="#666666"/>
<path fill-rule="evenodd" clip-rule="evenodd" d="M9.96272 3.54169H10.0373C10.398 3.54165 10.7287 3.54161 10.9977 3.57778C11.2939 3.6176 11.607 3.71131 11.8645 3.96883C12.1221 4.22635 12.2158 4.53945 12.2556 4.83569C12.2918 5.10469 12.2917 5.43538 12.2917 5.79605V14.204C12.2917 14.5647 12.2918 14.8954 12.2556 15.1644C12.2158 15.4606 12.1221 15.7737 11.8645 16.0312C11.607 16.2887 11.2939 16.3824 10.9977 16.4223C10.7287 16.4584 10.398 16.4584 10.0373 16.4584H9.96272C9.60206 16.4584 9.27133 16.4584 9.00233 16.4223C8.7061 16.3824 8.39299 16.2887 8.13548 16.0312C7.87796 15.7737 7.78425 15.4606 7.74442 15.1644C7.70825 14.8954 7.70829 14.5647 7.70834 14.204V5.79607C7.70829 5.43539 7.70825 5.1047 7.74442 4.83569C7.78425 4.53945 7.87796 4.22635 8.13548 3.96883C8.39299 3.71131 8.7061 3.6176 9.00233 3.57778C9.27134 3.54161 9.60204 3.54165 9.96272 3.54169ZM9.01937 4.85272L9.0214 4.85158L9.01946 15.1474L9.01822 15.1453C9.01738 15.1437 9.01603 15.1409 9.0143 15.1367C9.00684 15.1186 8.99409 15.0783 8.98328 14.9978C8.95967 14.8222 8.95834 14.5772 8.95834 14.1667V5.83336C8.95834 5.42285 8.95967 5.17785 8.98328 5.00225C8.99409 4.92178 9.00684 4.88148 9.0143 4.86333C9.01603 4.85913 9.01738 4.85636 9.01822 4.85475L9.01937 4.85272ZM9.01946 15.1474L9.0214 4.85158L9.02458 4.85002L9.02998 4.84766C9.04813 4.84019 9.08843 4.82745 9.16889 4.81663C9.34449 4.79302 9.5895 4.79169 10 4.79169C10.4105 4.79169 10.6555 4.79302 10.8311 4.81663C10.9116 4.82745 10.9519 4.84019 10.97 4.84766C10.9742 4.84939 10.977 4.85074 10.9786 4.85158L10.9806 4.85272L10.9818 4.85475C10.9826 4.85636 10.984 4.85913 10.9857 4.86333C10.9932 4.88148 11.0059 4.92178 11.0167 5.00225C11.0403 5.17785 11.0417 5.42285 11.0417 5.83336V14.1667C11.0417 14.5772 11.0403 14.8222 11.0167 14.9978C11.0059 15.0783 10.9932 15.1186 10.9857 15.1367C10.984 15.1409 10.9826 15.1437 10.9818 15.1453L10.9806 15.1473L10.9786 15.1485C10.9775 15.149 10.976 15.1498 10.9738 15.1508C10.9727 15.1513 10.9715 15.1518 10.97 15.1524C10.9519 15.1599 10.9116 15.1726 10.8311 15.1834C10.6555 15.207 10.4105 15.2084 10 15.2084C9.5895 15.2084 9.34449 15.207 9.16889 15.1834C9.08843 15.1726 9.04813 15.1599 9.02998 15.1524C9.02577 15.1507 9.02301 15.1493 9.0214 15.1485L9.01946 15.1474Z" fill="#666666"/>
<path fill-rule="evenodd" clip-rule="evenodd" d="M4.12938 6.87502C3.7687 6.87498 3.43801 6.87494 3.169 6.91111C2.87277 6.95094 2.55966 7.04464 2.30214 7.30216C2.04462 7.55968 1.95092 7.87279 1.91109 8.16902C1.87492 8.43803 1.87496 8.76872 1.875 9.1294V14.204C1.87496 14.5647 1.87492 14.8954 1.91109 15.1644C1.95092 15.4606 2.04462 15.7737 2.30214 16.0312C2.55966 16.2887 2.87277 16.3824 3.169 16.4223C3.43801 16.4584 3.7687 16.4584 4.12939 16.4584H4.20396C4.56464 16.4584 4.89534 16.4584 5.16435 16.4223C5.46058 16.3824 5.77368 16.2887 6.0312 16.0312C6.28872 15.7737 6.38243 15.4606 6.42226 15.1644C6.45842 14.8954 6.45838 14.5647 6.45834 14.204V9.12941C6.45838 8.76873 6.45842 8.43803 6.42226 8.16902C6.38243 7.87279 6.28872 7.55968 6.0312 7.30216C5.77368 7.04464 5.46058 6.95094 5.16435 6.91111C4.89534 6.87494 4.56464 6.87498 4.20396 6.87502H4.12938ZM3.18807 8.18491L3.18604 8.18606L3.18489 8.18809C3.18405 8.1897 3.1827 8.19246 3.18097 8.19666C3.1735 8.21481 3.16076 8.25511 3.14994 8.33558C3.12633 8.51118 3.12501 8.75619 3.12501 9.16669V14.1667C3.12501 14.5772 3.12633 14.8222 3.14994 14.9978C3.16076 15.0783 3.1735 15.1186 3.18097 15.1367C3.1827 15.1409 3.18405 15.1437 3.18489 15.1453L3.1857 15.1468L3.18807 15.1485C3.18968 15.1493 3.19244 15.1507 3.19664 15.1524C3.21479 15.1599 3.25509 15.1726 3.33556 15.1834C3.51116 15.207 3.75617 15.2084 4.16667 15.2084C4.57718 15.2084 4.82218 15.207 4.99779 15.1834C5.07825 15.1726 5.11855 15.1599 5.1367 15.1524C5.14091 15.1507 5.14367 15.1493 5.14528 15.1485L5.14731 15.1473L5.14846 15.1453L5.1503 15.1415L5.15237 15.1367C5.15984 15.1186 5.17258 15.0783 5.1834 14.9978C5.20701 14.8222 5.20834 14.5772 5.20834 14.1667V9.16669C5.20834 8.75619 5.20701 8.51118 5.1834 8.33558C5.17258 8.25511 5.15984 8.21481 5.15237 8.19666C5.15064 8.19246 5.1493 8.1897 5.14846 8.18809L5.14731 8.18606L5.14528 8.18491C5.14367 8.18407 5.14091 8.18272 5.1367 8.18099C5.11855 8.17352 5.07825 8.16078 4.99779 8.14996C4.82218 8.12635 4.57718 8.12503 4.16667 8.12503C3.75617 8.12503 3.51116 8.12635 3.33556 8.14996C3.25509 8.16078 3.21479 8.17352 3.19664 8.18099C3.19244 8.18272 3.18968 8.18407 3.18807 8.18491Z" fill="#666666"/>
<path d="M2.50001 17.7084C2.15483 17.7084 1.87501 17.9882 1.87501 18.3334C1.87501 18.6785 2.15483 18.9584 2.50001 18.9584H17.5C17.8452 18.9584 18.125 18.6785 18.125 18.3334C18.125 17.9882 17.8452 17.7084 17.5 17.7084H2.50001Z" fill="#666666"/>
</svg>
