<svg width="440" height="259" viewBox="0 0 440 259" fill="none" xmlns="http://www.w3.org/2000/svg">
<g clip-path="url(#clip0_1034_5031)">
<mask id="mask0_1034_5031" style="mask-type:luminance" maskUnits="userSpaceOnUse" x="-35" y="-226" width="462" height="476">
<path d="M253.539 118.256C296.669 112.567 315.026 101.281 339.977 68.706C344.789 62.2828 280.005 58.7959 285.352 56.9607C316.719 46.2248 362.79 29.9833 389.078 -9.47354C389.256 -8.28065 389.523 -7.08778 389.701 -5.80313C399.682 74.5786 344.522 148.17 266.371 158.447C200.072 167.165 138.764 127.432 115.506 66.045C145.091 99.2621 187.329 119.633 233.222 119.725C239.905 119.725 246.678 119.266 253.539 118.348M107.842 192.215C35.2161 160.925 0.908245 74.8539 31.3844 0.069519C57.2267 -63.4284 121.298 -98.2972 184.478 -88.2036C135.556 -77.0089 92.3366 -42.5071 71.4845 8.78671C54.7316 50.1705 54.9989 72.1011 69.9696 110.64C71.4845 114.402 81.2868 101.831 90.4652 89.352C99.3764 77.1479 107.664 64.9438 107.129 67.7884C100.446 101.189 91.089 150.372 111.139 193.591C109.981 193.133 108.911 192.766 107.753 192.307M188.844 -94.4433C164.16 -117.016 127.446 -149.958 81.1085 -153.72C81.9996 -154.454 82.8908 -155.372 83.7819 -156.106C146.427 -205.198 235.895 -192.718 283.659 -128.211C324.115 -73.4303 321.442 1.07887 281.342 52.4645C296.402 3.18935 288.916 -52.6007 256.212 -96.7373C229.836 -132.432 211.211 -143.076 171.378 -148.949C167.547 -149.499 172.715 -135.552 178.418 -121.604C184.032 -107.932 190.181 -94.2598 189.112 -94.168C189.112 -94.168 188.933 -94.168 188.844 -94.3515M-34.7363 11.9066C-34.7363 143.123 68.5438 249.473 195.973 249.473C323.403 249.473 426.683 143.123 426.683 11.9066C426.683 -119.31 323.403 -225.66 195.973 -225.66C68.5438 -225.66 -34.7363 -119.31 -34.7363 11.9066Z" fill="white"/>
</mask>
<g mask="url(#mask0_1034_5031)">
<path d="M-49.4918 -225.66L-54.0332 254.222L431.657 259.302L436.199 -220.58L-49.4918 -225.66Z" fill="url(#paint0_linear_1034_5031)" fill-opacity="0.05"/>
</g>
</g>
<defs>
<linearGradient id="paint0_linear_1034_5031" x1="197.3" y1="-223.079" x2="192.281" y2="256.798" gradientUnits="userSpaceOnUse">
<stop stop-color="#025436"/>
<stop offset="1" stop-color="#053725"/>
</linearGradient>
<clipPath id="clip0_1034_5031">
<rect width="440" height="259" fill="white"/>
</clipPath>
</defs>
</svg>
