<svg width="24" height="24" viewBox="0 0 24 24" fill="none" xmlns="http://www.w3.org/2000/svg">
<path fill-rule="evenodd" clip-rule="evenodd" d="M12.25 2.83416C11.7896 2.75592 11.162 2.74999 10.0298 2.74999C8.11311 2.74999 6.75075 2.75157 5.71785 2.88981C4.70596 3.02524 4.12453 3.27927 3.7019 3.70189C3.27869 4.1251 3.02502 4.70475 2.88976 5.71084C2.75159 6.7385 2.75 8.09317 2.75 9.99999V14C2.75 15.9068 2.75159 17.2615 2.88976 18.2891C3.02502 19.2952 3.27869 19.8749 3.7019 20.2981C4.12511 20.7213 4.70476 20.975 5.71085 21.1102C6.73851 21.2484 8.09318 21.25 10 21.25H14C15.9068 21.25 17.2615 21.2484 18.2892 21.1102C19.2952 20.975 19.8749 20.7213 20.2981 20.2981C20.7213 19.8749 20.975 19.2952 21.1102 18.2891C21.2484 17.2615 21.25 15.9068 21.25 14V13.5629C21.25 12.0269 21.2392 11.2987 21.0762 10.75H17.9463C16.8135 10.75 15.8877 10.75 15.1569 10.6518C14.3929 10.5491 13.7306 10.3268 13.2019 9.79809C12.6732 9.26939 12.4509 8.60706 12.3482 7.8431C12.25 7.11224 12.25 6.18651 12.25 5.05368V2.83416ZM13.75 3.60944V4.99999C13.75 6.1997 13.7516 7.02404 13.8348 7.64323C13.9152 8.24085 14.059 8.53389 14.2626 8.73743C14.4661 8.94097 14.7591 9.0848 15.3568 9.16515C15.976 9.2484 16.8003 9.24999 18 9.24999H20.0195C19.723 8.96244 19.3432 8.61791 18.85 8.17401L14.8912 4.61111C14.4058 4.17427 14.0446 3.85181 13.75 3.60944ZM10.1755 1.24996C11.5601 1.24959 12.4546 1.24935 13.2779 1.56529C14.1012 1.88123 14.7632 2.47728 15.7873 3.39949C15.8226 3.43133 15.8584 3.46355 15.8947 3.49617L19.8534 7.05906C19.8956 7.09699 19.9372 7.13444 19.9783 7.17143C21.162 8.23608 21.9274 8.92452 22.3391 9.84896C22.7508 10.7734 22.7505 11.8029 22.75 13.3949C22.75 13.4502 22.75 13.5062 22.75 13.5629V14.0564C22.75 15.8942 22.75 17.3498 22.5969 18.489C22.4392 19.6614 22.1071 20.6104 21.3588 21.3587C20.6104 22.1071 19.6614 22.4392 18.489 22.5969C17.3498 22.75 15.8942 22.75 14.0564 22.75H9.94359C8.10583 22.75 6.65019 22.75 5.51098 22.5969C4.33856 22.4392 3.38961 22.1071 2.64124 21.3587C1.89288 20.6104 1.56076 19.6614 1.40314 18.489C1.24997 17.3498 1.24998 15.8942 1.25 14.0564V9.94357C1.24998 8.10581 1.24997 6.65018 1.40314 5.51097C1.56076 4.33854 1.89288 3.3896 2.64124 2.64123C3.39019 1.89228 4.34232 1.56053 5.51887 1.40306C6.66283 1.24996 8.1257 1.24997 9.97352 1.24999L10.0298 1.24999C10.0789 1.24999 10.1275 1.24998 10.1755 1.24996Z" fill="#02542D"/>
<path fill-rule="evenodd" clip-rule="evenodd" d="M7.98705 19.0471C8.27554 19.3176 8.72446 19.3176 9.01296 19.0471L11.013 17.1721C11.3151 16.8888 11.3305 16.4142 11.0472 16.112C10.7639 15.8098 10.2892 15.7945 9.98705 16.0778L9.25 16.7688V13.5C9.25 13.0858 8.91421 12.75 8.5 12.75C8.08579 12.75 7.75 13.0858 7.75 13.5V16.7688L7.01296 16.0778C6.71077 15.7945 6.23615 15.8098 5.95285 16.112C5.66955 16.4142 5.68486 16.8888 5.98705 17.1721L7.98705 19.0471Z" fill="#02542D"/>
</svg>
