<svg width="786" height="475" viewBox="0 0 786 475" fill="none" xmlns="http://www.w3.org/2000/svg">
<g opacity="0.13" clip-path="url(#clip0_3987_20501)">
<path d="M784.609 -107.325C723.803 108.477 610.479 249.319 447.766 311.297C286.61 372.682 105.472 344.181 -18.1032 309.458C-88.0892 289.794 -147.429 266.097 -184.885 249.68C-225.464 231.894 -249.79 218.597 -250.036 218.464L-250.766 219.605C-250.526 219.738 -226.134 233.069 -185.501 250.876C-148.004 267.31 -88.5919 291.035 -18.5221 310.721C60.2489 332.856 136.159 345.477 207.103 348.253C295.814 351.721 376.966 339.698 448.311 312.521C485.078 298.515 519.805 280.236 551.528 258.19C585.488 234.592 616.912 206.042 644.93 173.341C674.726 138.562 701.481 98.1433 724.437 53.2032C748.727 5.65911 769.439 -48.2346 785.991 -106.993L784.603 -107.331L784.609 -107.325Z" fill="url(#paint0_linear_3987_20501)"/>
<path d="M769.746 -108.542C711.717 104.656 600.589 245.271 439.438 309.399C366.496 338.426 289.137 349.108 214.825 349.108C125.815 349.108 41.1672 333.794 -26.4371 316.33C-96.6924 298.179 -156.356 275.839 -194.039 260.298C-234.857 243.46 -259.375 230.75 -259.614 230.628L-260.32 231.786C-260.075 231.913 -235.504 244.651 -194.625 261.511C-156.9 277.075 -97.1652 299.442 -26.8261 317.61C52.2441 338.038 128.328 349.108 199.308 350.521C288.066 352.278 369.045 338.858 440.007 310.623C476.433 296.129 510.777 277.474 542.092 255.172C575.604 231.309 606.543 202.631 634.041 169.941C663.28 135.179 689.425 94.943 711.747 50.3409C735.36 3.16244 755.342 -50.1828 771.134 -108.221L769.74 -108.548L769.746 -108.542Z" fill="url(#paint1_linear_3987_20501)"/>
<path d="M754.885 -109.773C699.645 100.759 590.761 241.115 431.262 307.386C353.73 339.599 270.854 351.168 191.867 351.168C108.422 351.168 29.3164 338.27 -34.6674 323.188C-105.21 306.561 -165.22 285.578 -203.137 270.907C-244.225 255.005 -268.946 242.882 -269.191 242.766L-269.867 243.941C-269.622 244.062 -244.859 256.207 -203.723 272.126C-165.759 286.819 -105.683 307.824 -35.0564 324.474C44.3369 343.19 120.606 352.697 191.628 352.736L192.041 352.736C280.692 352.736 361.366 337.893 431.842 308.611C467.91 293.623 501.858 274.591 532.749 252.041C565.8 227.917 596.23 199.117 623.195 166.449C651.866 131.72 677.389 91.6727 699.07 47.4197C721.996 0.618004 741.247 -52.162 756.28 -109.458L754.885 -109.773Z" fill="url(#paint2_linear_3987_20501)"/>
<path d="M740.024 -110.992C687.566 96.8205 580.974 236.882 423.217 305.292C264.622 374.063 82.2094 356.709 -42.8858 330.037C-113.734 314.933 -174.103 295.308 -212.271 281.506C-253.616 266.552 -278.522 255.028 -278.768 254.917L-279.414 256.108C-279.169 256.225 -254.202 267.777 -212.797 282.748C-174.588 296.566 -114.146 316.213 -43.2149 331.333C36.5195 348.332 112.992 356.266 184.074 354.92C272.958 353.23 353.62 336.94 423.821 306.5C459.512 291.025 493.048 271.616 523.495 248.822C556.068 224.438 585.977 195.527 612.398 162.887C640.482 128.197 665.382 88.3489 686.405 44.4615C708.637 -1.94678 727.146 -54.1451 741.419 -110.682L740.018 -110.986L740.024 -110.992Z" fill="url(#paint3_linear_3987_20501)"/>
<path d="M725.156 -112.202C675.486 92.8291 571.24 232.553 415.308 303.09C257.575 374.443 74.6595 360.852 -51.0162 336.888C-122.187 323.319 -182.939 305.057 -221.364 292.126C-262.997 278.119 -288.113 267.187 -288.358 267.076L-288.969 268.279C-288.717 268.39 -263.542 279.349 -221.849 293.372C-183.376 306.315 -122.552 324.599 -51.2974 338.185C28.8021 353.46 105.496 359.81 176.649 357.056C265.618 353.615 346.13 335.858 415.948 304.276C451.238 288.314 484.343 268.534 514.336 245.496C546.406 220.862 575.782 191.84 601.646 159.234C629.126 124.588 653.392 84.9558 673.757 41.4452C695.288 -4.55308 713.056 -56.153 726.562 -111.919L725.162 -112.207L725.156 -112.202Z" fill="url(#paint4_linear_3987_20501)"/>
<path d="M710.295 -113.433C663.414 88.7554 561.562 228.108 407.563 300.746C250.703 374.735 67.2371 364.945 -59.043 343.702C-195.903 320.681 -296.93 279.63 -297.935 279.22L-298.516 280.434C-298.264 280.539 -272.867 290.905 -230.875 303.981C-192.121 316.049 -130.902 332.964 -59.3004 345.01C21.1881 358.551 98.1158 363.305 169.347 359.138C258.417 353.93 338.779 334.682 408.209 301.937C443.079 285.487 475.735 265.346 505.256 242.07C536.811 217.193 565.637 188.071 590.927 155.509C617.796 120.919 641.404 81.5138 661.104 38.3911C681.923 -7.18616 698.943 -58.171 711.689 -113.145L710.283 -113.422L710.295 -113.433Z" fill="url(#paint5_linear_3987_20501)"/>
<path d="M695.426 -114.65C651.328 84.6354 551.917 223.561 399.953 298.277C300.931 346.962 190.569 362.343 90.7158 362.343C33.2967 362.343 -20.6276 357.262 -66.9698 350.508C-138.853 340.031 -200.431 324.511 -239.425 313.336C-281.685 301.224 -307.268 291.467 -307.52 291.373L-308.07 292.603C-307.819 292.703 -282.188 302.476 -239.879 314.599C-200.838 325.786 -139.194 341.327 -67.2271 351.821C13.6683 363.617 90.8534 366.759 162.18 361.163C251.364 354.165 331.583 333.404 400.623 299.462C435.057 282.536 467.24 262.03 496.27 238.526C527.292 213.411 555.55 184.195 580.259 151.688C606.5 117.17 629.45 78.0032 648.48 35.2794C668.581 -9.86005 684.852 -60.2133 696.839 -114.378L695.432 -114.644L695.426 -114.65Z" fill="url(#paint6_linear_3987_20501)"/>
<path d="M680.573 -115.871C639.258 80.4497 542.336 218.91 392.502 295.67C237.432 375.112 52.7751 373.023 -74.8275 357.276C-147.094 348.361 -209.115 334.216 -248.419 323.927C-291.009 312.774 -316.837 303.61 -317.095 303.521L-317.609 304.762C-317.352 304.856 -291.482 314.032 -248.844 325.202C-209.498 335.507 -147.405 349.669 -75.0549 358.595C6.27731 368.629 83.7317 370.147 155.16 363.105C244.469 354.295 324.557 332 393.19 296.839C427.163 279.436 458.856 258.581 487.383 234.85C517.849 209.508 545.526 180.209 569.637 147.768C595.237 113.333 617.517 74.416 635.864 32.1078C655.242 -12.583 670.759 -62.2824 681.985 -115.617L680.573 -115.871Z" fill="url(#paint7_linear_3987_20501)"/>
<path d="M665.704 -117.099C627.16 76.2028 532.776 214.148 385.18 292.908C231.025 375.164 45.7099 376.976 -82.6108 364.011C-155.284 356.67 -217.772 343.915 -257.399 334.507C-300.337 324.312 -326.416 315.747 -326.679 315.663L-327.164 316.916C-326.907 316.999 -300.779 325.581 -257.794 335.787C-218.125 345.206 -155.571 357.977 -82.8083 365.33C-1.0213 373.596 76.7204 373.469 148.262 364.964C237.709 354.326 317.659 330.468 385.892 294.066C419.386 276.197 450.564 254.993 478.57 231.052C508.462 205.493 535.54 176.128 559.047 143.76C583.989 109.419 605.592 70.773 623.252 28.8914C641.899 -15.3284 656.656 -64.3629 667.129 -116.855L665.716 -117.099L665.704 -117.099Z" fill="url(#paint8_linear_3987_20501)"/>
<path d="M650.843 -118.31C615.057 71.9166 523.259 209.291 377.991 290.001C224.769 375.133 38.7362 380.884 -90.3505 370.717C-230.245 359.697 -335.221 328.138 -336.262 327.822L-336.711 329.085C-336.448 329.163 -310.057 337.147 -266.707 346.383C-226.702 354.904 -163.658 366.279 -90.4702 372.042C-8.20438 378.519 69.8485 376.74 141.51 366.75C231.113 354.256 310.925 328.819 378.733 291.143C411.718 272.814 442.369 251.278 469.831 227.132C499.13 201.368 525.593 171.942 548.482 139.667C572.755 105.437 593.67 67.0686 610.635 25.6357C628.546 -18.102 642.549 -66.4551 652.262 -118.077L650.849 -118.304L650.843 -118.31Z" fill="url(#paint9_linear_3987_20501)"/>
<path d="M635.969 -119.53C602.929 67.5604 513.764 204.309 370.937 286.92C218.691 374.977 31.9103 384.717 -97.9663 377.376C-238.722 369.425 -344.799 340.265 -345.853 339.971L-346.266 341.246C-346.002 341.318 -319.33 348.692 -275.603 356.959C-235.251 364.583 -171.686 374.545 -98.056 378.706C-15.2816 383.382 63.0884 379.925 134.882 368.433C224.646 354.067 304.326 327.017 371.697 288.05C438.841 249.21 494.776 197.882 537.934 135.478C561.524 101.369 581.739 63.2997 598.004 22.3268C615.173 -20.9068 628.416 -68.5618 637.381 -119.308L635.963 -119.525L635.969 -119.53Z" fill="url(#paint10_linear_3987_20501)"/>
<path d="M621.116 -120.754C590.805 63.1504 504.315 199.212 364.031 283.656C212.791 374.695 25.2318 388.469 -105.477 383.986C-247.13 379.127 -354.362 352.394 -355.428 352.122L-355.805 353.408C-355.535 353.474 -328.576 360.239 -284.448 367.52C-243.725 374.235 -179.628 382.773 -105.524 385.316C-22.2294 388.175 56.4817 383.022 128.413 370.007C218.35 353.74 297.887 325.062 364.815 284.77C430.804 245.049 485.518 193.372 527.438 131.184C550.334 97.2142 569.836 59.4603 585.407 18.9583C601.828 -23.76 614.317 -70.6946 622.534 -120.555L621.116 -120.754Z" fill="url(#paint11_linear_3987_20501)"/>
<path d="M606.254 -121.974C578.655 58.6895 494.875 194.008 357.243 280.215C207.05 374.289 18.6708 392.13 -112.905 390.54C-255.499 388.811 -363.934 364.521 -365.011 364.272L-365.352 365.563C-365.083 365.624 -337.818 371.774 -293.277 378.063C-252.171 383.864 -187.517 390.967 -112.923 391.87C-29.0717 392.889 49.9865 386.024 122.067 371.469C212.19 353.274 291.583 322.944 358.045 281.312C422.825 240.738 476.288 188.75 516.951 126.8C539.141 92.9915 557.931 55.559 572.79 15.5501C588.457 -26.6307 600.192 -72.8395 607.673 -121.785L606.248 -121.974L606.254 -121.974Z" fill="url(#paint12_linear_3987_20501)"/>
<path d="M591.386 -123.194C566.473 54.1895 485.446 188.688 350.561 276.579C201.457 373.734 12.2341 395.709 -120.252 397.033C-263.826 398.479 -373.512 376.643 -374.601 376.422L-374.906 377.724C-374.631 377.779 -347.055 383.309 -302.084 388.589C-260.583 393.465 -195.342 399.111 -120.24 398.363C-35.8136 397.515 43.6156 388.921 115.846 372.809C206.154 352.669 285.404 320.655 351.381 277.665C414.91 236.271 467.086 184.006 506.469 122.323C527.941 88.6855 546.007 51.6021 560.16 12.0974C575.073 -29.5294 586.06 -74.9903 592.804 -123.022L591.38 -123.194L591.386 -123.194Z" fill="url(#paint13_linear_3987_20501)"/>
<path d="M576.519 -124.412C554.263 49.6409 476.031 183.264 343.988 272.751C196.021 373.031 5.91879 399.183 -127.501 403.466C-272.086 408.103 -383.077 388.772 -384.184 388.578L-384.453 389.886C-384.178 389.935 -356.273 394.839 -310.847 399.105C-268.927 403.039 -203.088 407.222 -127.453 404.795C-42.4341 402.069 37.3781 391.714 109.764 374.028C200.27 351.91 279.358 318.201 344.832 273.826C407.062 231.651 457.923 179.142 496.001 117.757C516.748 84.3142 534.085 47.5909 547.525 8.60141C561.684 -32.4602 571.917 -77.162 577.943 -124.252L576.519 -124.407L576.519 -124.412Z" fill="url(#paint14_linear_3987_20501)"/>
<path d="M561.666 -125.628C542.044 45.0511 466.63 177.727 337.525 268.721C190.761 372.164 -0.239106 402.549 -134.622 409.83C-280.267 417.72 -392.64 400.909 -393.759 400.738L-393.992 402.051C-393.711 402.095 -365.465 406.361 -319.578 409.597C-277.233 412.583 -210.76 415.282 -134.574 411.154C-48.9331 406.516 31.2681 394.388 103.815 375.101C194.519 350.988 273.445 315.55 338.387 269.779C399.277 226.867 448.791 174.148 485.546 113.09C505.551 79.8574 522.158 43.5108 534.892 5.05887C548.297 -35.421 557.788 -79.3416 563.09 -125.495L561.66 -125.634L561.666 -125.628Z" fill="url(#paint15_linear_3987_20501)"/>
<path d="M546.797 -126.846C529.766 40.4255 457.207 172.088 331.13 264.489C185.617 371.135 -6.31696 405.808 -141.705 416.114C-288.445 427.284 -402.218 413.039 -403.349 412.895L-403.547 414.213C-402.416 414.357 -288.511 428.624 -141.621 417.443C-55.3461 410.878 25.268 396.949 97.9769 376.044C188.884 349.909 267.631 312.725 332.016 265.536C391.523 221.926 439.655 169.04 475.076 108.348C494.339 75.3426 510.203 39.3894 522.226 1.49152C534.877 -38.3899 543.625 -81.5237 548.227 -126.719L546.797 -126.846Z" fill="url(#paint16_linear_3987_20501)"/>
<path d="M531.93 -128.064C517.46 35.7724 447.774 166.348 324.803 260.052C180.606 369.933 -12.3032 408.945 -148.733 422.32C-296.586 436.814 -411.783 425.168 -412.932 425.052L-413.094 426.37C-411.945 426.492 -296.592 438.155 -148.583 423.644C-61.6495 415.123 19.3835 399.371 92.254 376.826C183.365 348.641 261.914 309.696 325.718 261.082C383.802 216.824 430.527 163.811 464.601 103.518C483.111 70.7615 498.233 35.2183 509.549 -2.12002C521.446 -41.3865 529.459 -83.7224 533.367 -127.953L531.936 -128.064L531.93 -128.064Z" fill="url(#paint17_linear_3987_20501)"/>
<path d="M517.062 -129.292C505.111 31.0764 438.321 160.5 318.539 255.389C175.731 368.534 -18.1477 411.939 -155.648 428.428C-304.657 446.297 -421.362 437.288 -422.523 437.194L-422.648 438.518C-421.487 438.612 -304.627 447.632 -155.469 429.747C-67.859 419.242 13.5989 401.639 86.6309 377.443C177.945 347.186 256.285 306.462 319.473 256.403C376.096 211.546 421.385 158.45 454.101 98.589C471.85 66.0988 486.231 30.9878 496.835 -5.77429C507.983 -44.4091 515.266 -85.9361 518.492 -129.197L517.062 -129.292Z" fill="url(#paint18_linear_3987_20501)"/>
<path d="M502.207 -130.507C492.734 26.3705 428.851 154.57 312.344 250.533C171.001 366.942 -23.8646 414.802 -162.442 434.449C-312.642 455.747 -430.927 449.414 -432.106 449.348L-432.195 450.678C-431.016 450.744 -312.612 457.083 -162.269 435.768C-73.9649 423.251 7.92383 403.782 81.1174 377.907C172.635 345.555 250.748 303.036 313.283 251.531C368.404 206.131 412.245 152.991 443.585 93.595C460.574 61.3928 474.206 26.7251 484.11 -9.44964C494.511 -47.4473 501.076 -88.1488 503.631 -130.435L502.195 -130.507L502.207 -130.507Z" fill="url(#paint19_linear_3987_20501)"/>
<path d="M487.34 -131.721C472.571 189.996 220.824 334.152 12.2425 398.434C-105.911 434.842 -223.035 450.056 -300.489 456.406C-384.419 463.282 -441.126 461.531 -441.688 461.509L-441.742 462.839C-441.18 462.861 -384.407 464.617 -300.406 457.73C-251.071 453.685 -202.132 447.496 -154.952 439.335C-95.971 429.129 -39.5753 415.799 12.6555 399.703C145.644 358.724 252.822 299.816 331.21 224.619C377.768 179.962 414.547 128.988 440.537 73.1105C469.124 11.6538 485.347 -57.2439 488.764 -131.671L487.328 -131.727L487.34 -131.721Z" fill="url(#paint20_linear_3987_20501)"/>
<path d="M472.487 -132.938C462.607 184.878 212.039 332.874 3.5831 401.068C-114.505 439.697 -231.886 457.377 -309.562 465.411C-393.731 474.11 -450.701 473.672 -451.269 473.667L-451.281 475.002C-450.719 475.002 -393.683 475.445 -309.436 466.735C-259.964 461.621 -210.917 454.396 -163.665 445.265C-104.595 433.852 -48.1808 419.407 4.02597 402.331C136.937 358.859 243.648 298.284 321.198 222.294C367.259 177.16 403.41 126.02 428.646 70.2866C456.401 8.99064 471.637 -59.3752 473.923 -132.905L472.487 -132.944L472.487 -132.938Z" fill="url(#paint21_linear_3987_20501)"/>
</g>
<defs>
<linearGradient id="paint0_linear_3987_20501" x1="-250.766" y1="120.76" x2="785.997" y2="120.76" gradientUnits="userSpaceOnUse">
<stop stop-color="#8CC63F"/>
<stop offset="1" stop-color="#39B54A"/>
</linearGradient>
<linearGradient id="paint1_linear_3987_20501" x1="-260.32" y1="121.067" x2="771.14" y2="121.067" gradientUnits="userSpaceOnUse">
<stop stop-color="#8CC63F"/>
<stop offset="1" stop-color="#39B54A"/>
</linearGradient>
<linearGradient id="paint2_linear_3987_20501" x1="-269.861" y1="121.481" x2="756.286" y2="121.481" gradientUnits="userSpaceOnUse">
<stop stop-color="#8CC63F"/>
<stop offset="1" stop-color="#39B54A"/>
</linearGradient>
<linearGradient id="paint3_linear_3987_20501" x1="-279.414" y1="122.036" x2="741.419" y2="122.036" gradientUnits="userSpaceOnUse">
<stop stop-color="#8CC63F"/>
<stop offset="1" stop-color="#39B54A"/>
</linearGradient>
<linearGradient id="paint4_linear_3987_20501" x1="-288.969" y1="122.738" x2="726.556" y2="122.737" gradientUnits="userSpaceOnUse">
<stop stop-color="#8CC63F"/>
<stop offset="1" stop-color="#39B54A"/>
</linearGradient>
<linearGradient id="paint5_linear_3987_20501" x1="-298.516" y1="123.584" x2="711.701" y2="123.584" gradientUnits="userSpaceOnUse">
<stop stop-color="#8CC63F"/>
<stop offset="1" stop-color="#39B54A"/>
</linearGradient>
<linearGradient id="paint6_linear_3987_20501" x1="-308.07" y1="124.6" x2="696.833" y2="124.6" gradientUnits="userSpaceOnUse">
<stop stop-color="#8CC63F"/>
<stop offset="1" stop-color="#39B54A"/>
</linearGradient>
<linearGradient id="paint7_linear_3987_20501" x1="-317.615" y1="125.789" x2="681.979" y2="125.789" gradientUnits="userSpaceOnUse">
<stop stop-color="#8CC63F"/>
<stop offset="1" stop-color="#39B54A"/>
</linearGradient>
<linearGradient id="paint8_linear_3987_20501" x1="-327.164" y1="127.171" x2="667.117" y2="127.171" gradientUnits="userSpaceOnUse">
<stop stop-color="#8CC63F"/>
<stop offset="1" stop-color="#39B54A"/>
</linearGradient>
<linearGradient id="paint9_linear_3987_20501" x1="-336.711" y1="128.775" x2="652.256" y2="128.775" gradientUnits="userSpaceOnUse">
<stop stop-color="#8CC63F"/>
<stop offset="1" stop-color="#39B54A"/>
</linearGradient>
<linearGradient id="paint10_linear_3987_20501" x1="-346.266" y1="130.596" x2="637.387" y2="130.596" gradientUnits="userSpaceOnUse">
<stop stop-color="#8CC63F"/>
<stop offset="1" stop-color="#39B54A"/>
</linearGradient>
<linearGradient id="paint11_linear_3987_20501" x1="-355.811" y1="132.658" x2="622.534" y2="132.658" gradientUnits="userSpaceOnUse">
<stop stop-color="#8CC63F"/>
<stop offset="1" stop-color="#39B54A"/>
</linearGradient>
<linearGradient id="paint12_linear_3987_20501" x1="-365.352" y1="134.995" x2="607.673" y2="134.995" gradientUnits="userSpaceOnUse">
<stop stop-color="#8CC63F"/>
<stop offset="1" stop-color="#39B54A"/>
</linearGradient>
<linearGradient id="paint13_linear_3987_20501" x1="-374.906" y1="137.62" x2="592.81" y2="137.62" gradientUnits="userSpaceOnUse">
<stop stop-color="#8CC63F"/>
<stop offset="1" stop-color="#39B54A"/>
</linearGradient>
<linearGradient id="paint14_linear_3987_20501" x1="-384.453" y1="140.552" x2="577.949" y2="140.552" gradientUnits="userSpaceOnUse">
<stop stop-color="#8CC63F"/>
<stop offset="1" stop-color="#39B54A"/>
</linearGradient>
<linearGradient id="paint15_linear_3987_20501" x1="-393.998" y1="143.819" x2="563.09" y2="143.819" gradientUnits="userSpaceOnUse">
<stop stop-color="#8CC63F"/>
<stop offset="1" stop-color="#39B54A"/>
</linearGradient>
<linearGradient id="paint16_linear_3987_20501" x1="-403.547" y1="147.437" x2="548.227" y2="147.437" gradientUnits="userSpaceOnUse">
<stop stop-color="#8CC63F"/>
<stop offset="1" stop-color="#39B54A"/>
</linearGradient>
<linearGradient id="paint17_linear_3987_20501" x1="-413.094" y1="151.428" x2="533.361" y2="151.428" gradientUnits="userSpaceOnUse">
<stop stop-color="#8CC63F"/>
<stop offset="1" stop-color="#39B54A"/>
</linearGradient>
<linearGradient id="paint18_linear_3987_20501" x1="-422.648" y1="155.796" x2="518.498" y2="155.796" gradientUnits="userSpaceOnUse">
<stop stop-color="#8CC63F"/>
<stop offset="1" stop-color="#39B54A"/>
</linearGradient>
<linearGradient id="paint19_linear_3987_20501" x1="-432.189" y1="160.548" x2="503.637" y2="160.548" gradientUnits="userSpaceOnUse">
<stop stop-color="#8CC63F"/>
<stop offset="1" stop-color="#39B54A"/>
</linearGradient>
<linearGradient id="paint20_linear_3987_20501" x1="-441.742" y1="165.667" x2="488.776" y2="165.667" gradientUnits="userSpaceOnUse">
<stop stop-color="#8CC63F"/>
<stop offset="1" stop-color="#39B54A"/>
</linearGradient>
<linearGradient id="paint21_linear_3987_20501" x1="-451.281" y1="171.032" x2="473.917" y2="171.032" gradientUnits="userSpaceOnUse">
<stop stop-color="#8CC63F"/>
<stop offset="1" stop-color="#39B54A"/>
</linearGradient>
<clipPath id="clip0_3987_20501">
<rect width="786" height="475" fill="white" transform="matrix(1 -1.6135e-07 -4.73675e-08 -1 0 475)"/>
</clipPath>
</defs>
</svg>
