<svg width="360" height="374" viewBox="0 0 360 374" fill="none" xmlns="http://www.w3.org/2000/svg">
<g clip-path="url(#clip0_3987_20524)">
<g opacity="0.07">
<path fill-rule="evenodd" clip-rule="evenodd" d="M212.731 -36.0114C109.545 -36.0114 25.658 47.7129 25.658 150.7C25.658 253.687 109.545 337.411 212.731 337.411C315.74 337.411 399.805 253.679 399.805 150.7C399.805 47.7129 315.918 -36.0114 212.731 -36.0114ZM0.714844 150.7C0.714844 33.9639 95.7689 -60.9062 212.731 -60.9062C329.694 -60.9062 424.748 33.9639 424.748 150.7C424.748 267.444 329.5 362.306 212.731 362.306C95.7689 362.306 0.714844 267.436 0.714844 150.7Z" fill="#808080"/>
<path d="M122.937 15.684C173.733 -23.0792 246.255 -13.2477 284.906 37.6946C317.729 80.9089 315.486 139.775 283.053 180.348C295.27 141.463 289.223 97.4413 262.715 62.5422C241.354 34.393 226.235 25.9801 193.924 21.3089C187.632 20.4041 211.481 67.4579 208.043 64.4009C188.047 46.5478 158.296 20.5508 120.718 17.5916C121.499 16.9557 122.181 16.271 122.937 15.684ZM142.373 290.744C83.4815 266.043 55.7307 198.128 80.3845 139.09C101.307 88.9794 153.249 61.4661 204.483 69.4144C164.832 78.2186 129.814 105.512 112.939 145.938C99.3321 178.587 99.6003 195.902 111.72 226.35C114.061 232.22 142.787 188.003 141.861 192.454C136.471 218.793 128.887 257.63 145.128 291.771C144.153 291.379 143.251 291.135 142.373 290.744ZM270.836 264.111C217.09 270.983 167.392 239.605 148.591 191.158C176.025 221.239 217.066 237.991 260.472 232.44C295.465 227.94 310.267 219.013 330.507 193.285C334.409 188.247 281.858 185.459 286.199 184.016C311.609 175.555 348.967 162.715 370.305 131.558C370.427 132.512 370.695 133.465 370.792 134.419C378.913 197.932 334.141 255.991 270.836 264.111Z" fill="#808080"/>
</g>
</g>
<defs>
<clipPath id="clip0_3987_20524">
<rect width="359" height="374" fill="white" transform="translate(0.640625)"/>
</clipPath>
</defs>
</svg>
