<svg width="499" height="504" viewBox="0 0 499 504" fill="none" xmlns="http://www.w3.org/2000/svg">
<mask id="mask0_2019_27687" style="mask-type:luminance" maskUnits="userSpaceOnUse" x="20" y="0" width="479" height="494">
<path d="M318.758 356.931C363.457 351.026 382.481 339.313 408.34 305.505C413.327 298.839 346.187 295.22 351.728 293.315C384.236 282.173 431.982 265.317 459.225 224.367C459.41 225.605 459.687 226.843 459.872 228.177C470.215 311.6 413.05 387.976 332.057 398.642C263.347 407.689 199.809 366.454 175.705 302.743C206.366 337.218 250.141 358.359 297.702 358.454C304.628 358.454 311.647 357.978 318.758 357.026M167.763 433.688C92.4962 401.214 56.9407 311.886 88.5251 234.271C115.307 168.371 181.708 132.182 247.186 142.658C196.484 154.276 151.694 190.084 130.083 243.318C112.721 286.268 112.998 309.029 128.513 349.026C130.083 352.931 140.242 339.884 149.754 326.932C158.99 314.266 167.578 301.601 167.024 304.553C160.098 339.217 150.401 390.262 171.18 435.116C169.979 434.64 168.871 434.259 167.671 433.783M251.711 136.182C226.129 112.755 188.08 78.5666 140.057 74.6621C140.981 73.9002 141.904 72.9479 142.828 72.1861C207.751 21.2368 300.473 34.1884 349.973 101.137C391.901 157.99 389.13 235.319 347.572 288.649C363.18 237.509 355.422 179.608 321.529 133.801C294.193 96.756 274.891 85.7091 233.61 79.6142C229.639 79.0428 234.995 93.5181 240.906 107.993C246.724 122.183 253.096 136.373 251.988 136.468C251.988 136.468 251.803 136.468 251.711 136.277M20 246.556C20 382.739 127.036 493.113 259.099 493.113C391.162 493.113 498.198 382.739 498.198 246.556C498.198 110.374 391.162 0 259.099 0C127.036 0 20 110.374 20 246.556Z" fill="white"/>
</mask>
<g mask="url(#mask0_2019_27687)">
<path d="M4.7065 0.000384065L0 498.042L482.975 503.1L487.682 5.05892L4.7065 0.000384065Z" fill="url(#paint0_linear_2019_27687)" fill-opacity="0.05"/>
</g>
<defs>
<linearGradient id="paint0_linear_2019_27687" x1="250.119" y1="2.57076" x2="244.902" y2="500.607" gradientUnits="userSpaceOnUse">
<stop stop-color="#025436"/>
<stop offset="1" stop-color="#053725"/>
</linearGradient>
</defs>
</svg>
