<svg width="64" height="64" viewBox="0 0 64 64" fill="none" xmlns="http://www.w3.org/2000/svg">
<path d="M64 8.04053L61.3597 5.33337L50.4847 16.4872H44.0645L25.5798 35.4403L15.9494 25.566L0 41.9161L2.64026 44.6232L15.9494 30.9736L25.5798 40.8479L45.6164 20.3036H52.0367L64 8.04053Z" fill="#115231"/>
<path d="M14.1392 41.0704H17.3866V44.5897H14.1392V41.0704ZM17.3866 44.5897H20.634V48.1089H17.3866V44.5897ZM14.1392 48.1089H17.3866V51.6282H14.1392V48.1089ZM20.634 48.1089H23.8815V51.6282H20.634V48.1089ZM17.3866 51.6282H20.634V55.1474H17.3866V51.6282ZM14.1392 55.1474H17.3866V58.6667H14.1392V55.1474ZM20.634 55.1474H23.8815V58.6667H20.634V55.1474ZM10.8918 44.5897H14.1392V48.1089H10.8918V44.5897ZM7.6444 48.1089H10.8918V51.6282H7.6444V48.1089ZM4.39699 51.6282H7.6444V55.1474H4.39699V51.6282ZM10.8918 51.6282H14.1392V55.1474H10.8918V51.6282ZM7.6444 55.1474H10.8918V58.6667H7.6444V55.1474ZM1.14958 55.1474H4.39699V58.6667H1.14958V55.1474ZM56.3556 23.4741H59.603V26.9933H56.3556V23.4741ZM59.603 19.9548H62.8504V23.4741H59.603V19.9548ZM59.603 26.9933H62.8504V30.5126H59.603V26.9933ZM56.3556 30.5126H59.603V34.0319H56.3556V30.5126ZM53.1082 34.0319H56.3556V37.5511H53.1082V34.0319ZM59.603 34.0319H62.8504V37.5511H59.603V34.0319ZM56.3556 37.5511H59.603V41.0704H56.3556V37.5511ZM53.1082 41.0704H56.3556V44.5897H53.1082V41.0704ZM59.603 41.0704H62.8504V44.5897H59.603V41.0704ZM56.3556 44.5897H59.603V48.1089H56.3556V44.5897ZM53.1082 48.1089H56.3556V51.6282H53.1082V48.1089ZM59.603 48.1089H62.8504V51.6282H59.603V48.1089ZM56.3556 51.6282H59.603V55.1474H56.3556V51.6282ZM53.1082 55.1474H56.3556V58.6667H53.1082V55.1474ZM59.603 55.1474H62.8504V58.6667H59.603V55.1474ZM43.3659 30.5126H46.6133V34.0319H43.3659V30.5126ZM49.8608 30.5126H53.1082V34.0319H49.8608V30.5126ZM53.1082 26.9933H56.3556V30.5126H53.1082V26.9933ZM46.6133 34.0319H49.8608V37.5511H46.6133V34.0319ZM43.3659 37.5511H46.6133V41.0704H43.3659V37.5511ZM49.8608 37.5511H53.1082V41.0704H49.8608V37.5511ZM46.6133 41.0704H49.8608V44.5897H46.6133V41.0704ZM43.3659 44.5897H46.6133V48.1089H43.3659V44.5897ZM49.8608 44.5897H53.1082V48.1089H49.8608V44.5897ZM46.6133 48.1089H49.8608V51.6282H46.6133V48.1089ZM43.3659 51.6282H46.6133V55.1474H43.3659V51.6282ZM49.8608 51.6282H53.1082V55.1474H49.8608V51.6282ZM46.6133 55.1474H49.8608V58.6667H46.6133V55.1474ZM40.1185 34.0319H43.3659V37.5511H40.1185V34.0319ZM36.8711 37.5511H40.1185V41.0704H36.8711V37.5511ZM33.6237 41.0704H36.8711V44.5897H33.6237V41.0704ZM40.1185 41.0704H43.3659V44.5897H40.1185V41.0704ZM36.8711 44.5897H40.1185V48.1089H36.8711V44.5897ZM33.6237 48.1089H36.8711V51.6282H33.6237V48.1089ZM40.1185 48.1089H43.3659V51.6282H40.1185V48.1089ZM36.8711 51.6282H40.1185V55.1474H36.8711V51.6282ZM33.6237 55.1474H36.8711V58.6667H33.6237V55.1474ZM40.1185 55.1474H43.3659V58.6667H40.1185V55.1474ZM30.3763 44.5897H33.6237V48.1089H30.3763V44.5897ZM27.1289 48.1089H30.3763V51.6282H27.1289V48.1089ZM23.8815 51.6282H27.1289V55.1474H23.8815V51.6282ZM30.3763 51.6282H33.6237V55.1474H30.3763V51.6282ZM27.1289 55.1474H30.3763V58.6667H27.1289V55.1474Z" fill="#115231"/>
</svg>
