<svg width="65" height="64" viewBox="0 0 65 64" fill="none" xmlns="http://www.w3.org/2000/svg">
<path d="M53.3372 22.3256C47.1754 22.3256 42.1744 17.3247 42.1744 11.1628C42.1744 5.00093 47.1754 0 53.3372 0C59.4991 0 64.5 5.00093 64.5 11.1628C64.5 17.3247 59.4991 22.3256 53.3372 22.3256ZM53.3372 4.46512C49.646 4.46512 46.6395 7.47163 46.6395 11.1628C46.6395 14.854 49.646 17.8605 53.3372 17.8605C57.0284 17.8605 60.0349 14.854 60.0349 11.1628C60.0349 7.47163 57.0284 4.46512 53.3372 4.46512Z" fill="#115231"/>
<path d="M32.5 37.2093H17.6163C16.3958 37.2093 15.3837 36.1972 15.3837 34.9767C15.3837 33.7563 16.3958 32.7442 17.6163 32.7442H32.5C33.7205 32.7442 34.7326 33.7563 34.7326 34.9767C34.7326 36.1972 33.7205 37.2093 32.5 37.2093Z" fill="#115231"/>
<path d="M44.407 49.1163H17.6163C16.3958 49.1163 15.3837 48.1042 15.3837 46.8837C15.3837 45.6633 16.3958 44.6512 17.6163 44.6512H44.407C45.6274 44.6512 46.6395 45.6633 46.6395 46.8837C46.6395 48.1042 45.6274 49.1163 44.407 49.1163Z" fill="#115231"/>
<path d="M41.4302 64H23.5698C7.40605 64 0.5 57.094 0.5 40.9302V23.0698C0.5 6.90605 7.40605 0 23.5698 0H38.4535C39.674 0 40.6861 1.01209 40.6861 2.23256C40.6861 3.45302 39.674 4.46512 38.4535 4.46512H23.5698C9.84698 4.46512 4.96512 9.34698 4.96512 23.0698V40.9302C4.96512 54.653 9.84698 59.5349 23.5698 59.5349H41.4302C55.153 59.5349 60.0349 54.653 60.0349 40.9302V26.0465C60.0349 24.826 61.047 23.814 62.2674 23.814C63.4879 23.814 64.5 24.826 64.5 26.0465V40.9302C64.5 57.094 57.594 64 41.4302 64Z" fill="#115231"/>
</svg>
