<svg width="49" height="49" viewBox="0 0 49 49" fill="none" xmlns="http://www.w3.org/2000/svg">
<circle cx="24.5003" cy="24.016" r="24.016" fill="#5DE2A2"/>
<g clip-path="url(#clip0_1093_9727)">
<path d="M26.7917 15.6669H19.3301C15.6261 15.6669 14.5 16.748 14.5 20.2976L14.5 27.7244C14.4977 30.6662 15.2804 31.9041 17.6729 32.2365V30.9718C16.9896 30.8573 16.6137 30.666 16.3881 30.4506C16.0419 30.1199 15.749 29.4384 15.7504 27.7254L15.7504 21.4215H24.2064C24.5947 21.4215 24.9167 21.1381 24.9167 20.7965C24.9167 20.4548 24.5947 20.1715 24.2064 20.1715H15.7509C15.7649 18.5412 16.0518 17.8791 16.3916 17.5532C16.7565 17.2034 17.5136 16.9169 19.3301 16.9169H26.7917C27.1368 16.9169 27.4167 16.6371 27.4167 16.2919C27.4167 15.9468 27.1368 15.6669 26.7917 15.6669Z" fill="white"/>
<path d="M29.6791 32.3336H25.8033V31.0836H29.6791C31.4908 31.0836 32.2474 30.7986 32.6119 30.4506C32.9581 30.1198 33.251 29.4383 33.2496 27.7252L33.25 24.1253C33.25 23.7801 33.5298 23.5003 33.875 23.5003C34.2202 23.5003 34.5 23.7801 34.5 24.1253L34.5 27.7242C34.5028 31.2586 33.3726 32.3336 29.6791 32.3336Z" fill="white"/>
<path d="M29.1133 28.73H27.2526C26.8711 28.73 26.5548 28.4237 26.5548 28.0543C26.5548 27.685 26.8711 27.3786 27.2526 27.3786H29.1133C29.4948 27.3786 29.8111 27.685 29.8111 28.0543C29.8111 28.4237 29.4948 28.73 29.1133 28.73Z" fill="white"/>
<path d="M30.994 26.23H27.2726C26.8911 26.23 26.5748 25.9237 26.5748 25.5543C26.5748 25.185 26.8911 24.8786 27.2726 24.8786H30.994C31.3755 24.8786 31.6918 25.185 31.6918 25.5543C31.6918 25.9237 31.3755 26.23 30.994 26.23Z" fill="white"/>
<path fill-rule="evenodd" clip-rule="evenodd" d="M17.4167 26.9431C17.4167 24.5302 19.3556 22.5717 21.7381 22.5717C24.1205 22.5717 26.0595 24.5302 26.0595 26.9431C26.0595 28.0555 25.6475 29.0712 24.9699 29.843V34.0003L21.7381 32.9041L18.5062 34.0003V29.843C17.8287 29.0711 17.4167 28.0554 17.4167 26.9431ZM21.7381 23.7217C19.9936 23.7217 18.5738 25.1634 18.5738 26.9396C18.5738 28.7158 19.9936 30.1574 21.7381 30.1574C23.4826 30.1574 24.9024 28.7158 24.9024 26.9396C24.9024 25.1634 23.4826 23.7217 21.7381 23.7217ZM21.7381 31.3146C20.9285 31.3146 20.1705 31.0846 19.5238 30.6852V32.786L21.7381 31.945L23.9524 32.786V30.6852C23.3057 31.0846 22.5477 31.3146 21.7381 31.3146Z" fill="white"/>
<path d="M21.7381 24.657L22.2689 26.3251H23.9133L22.5726 27.407L23.0866 29.101L21.738 28.0554L20.3845 29.1002L20.8983 27.4069L19.5635 26.3251H21.2072L21.7381 24.657Z" fill="white"/>
<path fill-rule="evenodd" clip-rule="evenodd" d="M30.5271 14.0003H31.8062V14.8597C32.8051 15.0822 33.6667 15.8226 33.6667 16.8718V17.0284H32.3876V16.8718C32.3876 16.5197 31.9686 16.0306 31.1667 16.0306C30.3647 16.0306 29.9457 16.5197 29.9457 16.8718C29.9457 17.0155 30.0115 17.158 30.243 17.3178C30.4892 17.4878 30.862 17.6281 31.3111 17.7289C31.8159 17.8422 32.3705 18.0293 32.8142 18.3326C33.2662 18.6415 33.6667 19.1215 33.6667 19.7955C33.6667 20.8446 32.8051 21.585 31.8062 21.8075V22.6669H30.5271V21.8075C29.5282 21.585 28.6667 20.8446 28.6667 19.7955V19.6388H29.9457V19.7955C29.9457 20.1475 30.3647 20.6366 31.1667 20.6366C31.9686 20.6366 32.3876 20.1475 32.3876 19.7955C32.3876 19.6608 32.3215 19.5146 32.0772 19.3476C31.8233 19.174 31.4478 19.0338 31.0223 18.9383C30.4994 18.8209 29.9421 18.634 29.501 18.3294C29.0465 18.0155 28.6667 17.5365 28.6667 16.8718C28.6667 15.8226 29.5282 15.0822 30.5271 14.8597V14.0003Z" fill="white"/>
</g>
<defs>
<clipPath id="clip0_1093_9727">
<rect width="20" height="20" fill="white" transform="translate(14.5 14.0003)"/>
</clipPath>
</defs>
</svg>
