<svg width="40" height="40" viewBox="0 0 40 40" fill="none" xmlns="http://www.w3.org/2000/svg">
<circle cx="20" cy="20" r="20" fill="#5DE2A2"/>
<path d="M16.4111 18.213C16.9484 18.213 17.3848 18.65 17.3848 19.1857C17.3845 19.7228 16.9483 20.1593 16.4111 20.1593C15.8741 20.1592 15.4377 19.7227 15.4375 19.1857C15.4375 18.65 15.8739 18.2131 16.4111 18.213ZM20.1973 18.213C20.7345 18.2131 21.1709 18.65 21.1709 19.1857C21.1707 19.7227 20.7343 20.1592 20.1973 20.1593C19.6601 20.1593 19.2239 19.7228 19.2236 19.1857C19.2236 18.65 19.66 18.213 20.1973 18.213ZM23.9824 18.213C24.5197 18.213 24.957 18.65 24.957 19.1857C24.9568 19.7228 24.5196 20.1593 23.9824 20.1593C23.4454 20.1591 23.009 19.7226 23.0088 19.1857C23.0088 18.6501 23.4453 18.2132 23.9824 18.213Z" fill="white"/>
<path fill-rule="evenodd" clip-rule="evenodd" d="M20.0141 10.6666C15.1724 10.6666 11.6641 14.6217 11.6641 19.0125C11.6641 20.4146 12.0724 21.8576 12.7891 23.1762C12.9224 23.3941 12.9391 23.6686 12.8474 23.9282L12.2891 25.7977C12.1641 26.2483 12.5474 26.5813 12.9724 26.4478L14.6557 25.9479C15.1141 25.7977 15.4724 25.9888 15.8974 26.2483C17.1141 26.9652 18.6307 27.3333 19.9974 27.3333C24.1307 27.3333 28.3307 24.1368 28.3307 18.9874C28.3307 14.5466 24.7474 10.6666 20.0141 10.6666Z" stroke="white" stroke-width="1.5" stroke-linecap="round" stroke-linejoin="round"/>
</svg>
