<svg width="25" height="24" viewBox="0 0 25 24" fill="none" xmlns="http://www.w3.org/2000/svg">
<g clip-path="url(#clip0_1885_26603)">
<path fill-rule="evenodd" clip-rule="evenodd" d="M18.5303 2.73635C17.7131 2.67 16.6709 2.66935 15.2144 2.66935H10.2341C8.78242 2.66935 7.51608 2.66973 6.47533 2.73734C5.40542 2.80683 4.70863 2.94228 4.32428 3.13687C3.51217 3.54804 2.85241 4.20384 2.43912 5.00983C2.22887 5.41986 2.10266 5.92963 2.03673 6.73146C1.97 7.54311 1.96934 8.57827 1.96934 10.0256V12.4147C1.96934 13.8621 1.97 14.8972 2.03673 15.7089C2.10266 16.5107 2.22887 17.0205 2.43912 17.4305C2.85241 18.2365 3.51216 18.8923 4.32428 19.3035C4.70863 19.498 5.40542 19.6335 6.47533 19.703C7.51608 19.7706 8.78242 19.771 10.2341 19.771H21.4317L20.2907 18.6372C19.9632 18.3117 19.9623 17.7833 20.2887 17.4567C20.6151 17.1302 21.1452 17.1294 21.4727 17.4548L24.0487 20.0145C24.2063 20.1711 24.2949 20.3838 24.2949 20.6056C24.2949 20.8275 24.2063 21.0402 24.0487 21.1968L21.4727 23.7565C21.1452 24.0819 20.6151 24.081 20.2887 23.7545C19.9623 23.428 19.9632 22.8995 20.2907 22.5741L21.4317 21.4403H10.2116C8.78647 21.4403 7.4675 21.4403 6.36647 21.3688C5.28881 21.2988 4.28386 21.1553 3.56612 20.7919C2.4394 20.2214 1.52282 19.3109 0.948228 18.1904C0.596938 17.5053 0.442369 16.7508 0.367914 15.8453C0.294912 14.9574 0.294916 13.8539 0.294922 12.4519V9.9884C0.294916 8.58639 0.294912 7.4829 0.367914 6.59507C0.442369 5.68957 0.596938 4.93502 0.948228 4.24995C1.52282 3.12941 2.4394 2.21889 3.56613 1.64844C4.28386 1.28506 5.28881 1.14151 6.36647 1.07151C7.4675 0.999996 8.78648 0.999998 10.2116 1L15.2516 1C16.6628 0.999995 17.7731 0.99999 18.6662 1.0725C19.5769 1.14643 20.3352 1.29986 21.0237 1.64844C22.1504 2.21889 23.067 3.12941 23.6416 4.24995C24.1295 5.20134 24.2443 6.30594 24.2796 7.7874C24.2949 8.42798 24.2949 9.16592 24.2949 10.0174V12.4147C24.2949 14.1035 22.9179 15.4677 21.2252 15.4677H17.447C15.0903 15.4677 13.1751 13.5687 13.1751 11.2202C13.1751 8.87166 15.0903 6.97258 17.447 6.97258H22.5703C22.5105 6.03665 22.3857 5.46798 22.1507 5.00984C21.7374 4.20384 21.0777 3.54803 20.2656 3.13687C19.852 2.92747 19.3379 2.80191 18.5303 2.73635ZM22.6174 8.64194H17.447C16.0098 8.64194 14.8495 9.79887 14.8495 11.2202C14.8495 12.6415 16.0098 13.7984 17.447 13.7984H21.2252C21.9984 13.7984 22.6205 13.1763 22.6205 12.4147V10.0256C22.6205 9.51775 22.6205 9.05941 22.6174 8.64194Z" fill="url(#paint0_linear_1885_26603)"/>
<path d="M16.5883 11.2202C16.5883 10.7489 16.9703 10.3669 17.4415 10.3669H18.3111C18.7823 10.3669 19.1643 10.7489 19.1643 11.2202C19.1643 11.6914 18.7823 12.0734 18.3111 12.0734H17.4415C16.9703 12.0734 16.5883 11.6914 16.5883 11.2202Z" fill="url(#paint1_linear_1885_26603)"/>
<path d="M4.56681 6.10083C4.56681 5.6296 4.94881 5.2476 5.42003 5.2476H10.583C11.0542 5.2476 11.4362 5.6296 11.4362 6.10083C11.4362 6.57205 11.0542 6.95405 10.583 6.95405H5.42003C4.94881 6.95405 4.56681 6.57205 4.56681 6.10083Z" fill="url(#paint2_linear_1885_26603)"/>
</g>
<defs>
<linearGradient id="paint0_linear_1885_26603" x1="24.2949" y1="12.6869" x2="0.294922" y2="12.6869" gradientUnits="userSpaceOnUse">
<stop stop-color="#025436"/>
<stop offset="1" stop-color="#053725"/>
</linearGradient>
<linearGradient id="paint1_linear_1885_26603" x1="24.2949" y1="12.6869" x2="0.294922" y2="12.6869" gradientUnits="userSpaceOnUse">
<stop stop-color="#025436"/>
<stop offset="1" stop-color="#053725"/>
</linearGradient>
<linearGradient id="paint2_linear_1885_26603" x1="24.2949" y1="12.6869" x2="0.294922" y2="12.6869" gradientUnits="userSpaceOnUse">
<stop stop-color="#025436"/>
<stop offset="1" stop-color="#053725"/>
</linearGradient>
<clipPath id="clip0_1885_26603">
<rect width="24" height="24" fill="white" transform="translate(0.294922)"/>
</clipPath>
</defs>
</svg>
