<svg width="49" height="48" viewBox="0 0 49 48" fill="none" xmlns="http://www.w3.org/2000/svg">
<path fill-rule="evenodd" clip-rule="evenodd" d="M18.7387 0C16.2421 0 14.0613 0.623582 12.5165 2.16409C10.9718 3.7046 10.3465 5.87938 10.3465 8.36917V13.5171L10.0217 13.7041C9.9878 13.7236 9.95463 13.7443 9.9222 13.7661L9.86903 13.8018C8.95198 14.4186 8.18534 14.9342 7.59328 15.4018C6.97852 15.8873 6.43169 16.4114 6.03893 17.09C5.63671 17.785 5.47472 18.5045 5.40117 19.2524C5.33293 19.9464 5.33297 20.7782 5.33301 21.73V32.9708C5.33297 33.9227 5.33293 34.7545 5.40117 35.4485C5.47472 36.1964 5.63671 36.9159 6.03893 37.6109C6.43169 38.2895 6.97852 38.8136 7.59328 39.2991C8.1853 39.7667 8.95188 40.2823 9.86885 40.899L9.9222 40.9349C9.95463 40.9567 9.9878 40.9773 10.0217 40.9968L20.6071 47.0896C21.7182 47.7294 23.0725 48 24.333 48C25.5935 48 26.9482 47.7292 28.0593 47.0894L38.6443 40.9968C38.6782 40.9773 38.7114 40.9567 38.7438 40.9349L38.7971 40.899C39.7139 40.2824 40.4808 39.7667 41.0727 39.2991C41.6875 38.8136 42.2343 38.2895 42.6271 37.6109C43.0293 36.9159 43.1913 36.1964 43.2649 35.4485C43.3331 34.7545 43.3331 33.9228 43.333 32.9709V21.7301C43.3331 20.7782 43.3331 19.9464 43.2649 19.2524C43.1913 18.5045 43.0293 17.785 42.6271 17.09C42.2343 16.4114 41.6875 15.8873 41.0727 15.4018C40.4807 14.9342 39.7141 14.4186 38.797 13.8018L38.7438 13.7661C38.7114 13.7443 38.6782 13.7236 38.6443 13.7041L38.3206 13.5177V8.36917C38.3206 5.87938 37.6953 3.7046 36.1505 2.16409C34.6058 0.623582 32.425 0 29.9283 0H18.7387ZM34.9637 11.5856V8.36917C34.9637 6.39541 34.47 5.22252 33.7768 4.53125C33.0837 3.83998 31.9076 3.34767 29.9283 3.34767H18.7387C16.7595 3.34767 15.5834 3.83998 14.8902 4.53125C14.197 5.22252 13.7034 6.39541 13.7034 8.36917V11.585L20.6067 7.61152C21.7178 6.97176 23.0725 6.70092 24.333 6.70092C25.5935 6.70092 26.9482 6.97176 28.0593 7.61152L34.9637 11.5856ZM22.2854 10.5105C22.7632 10.2354 23.5012 10.0486 24.333 10.0486C25.1648 10.0486 25.9031 10.2356 26.3809 10.5107L36.9155 16.5742C37.8726 17.218 38.5174 17.6539 38.9886 18.0261C39.4564 18.3956 39.6313 18.6108 39.7197 18.7635C39.7987 18.8999 39.8772 19.1038 39.924 19.5791C39.9743 20.0904 39.9761 20.7566 39.9761 21.8045V32.8964C39.9761 33.9443 39.9743 34.6105 39.924 35.1218C39.8772 35.5971 39.7987 35.801 39.7197 35.9374C39.6313 36.0901 39.4564 36.3053 38.9886 36.6748C38.5174 37.047 37.8726 37.4829 36.9155 38.1267L26.3806 44.1904C25.9028 44.4655 25.1648 44.6523 24.333 44.6523C23.5012 44.6523 22.7629 44.4653 22.2851 44.1902L11.7506 38.1267C10.7934 37.4829 10.1486 37.047 9.67743 36.6748C9.20959 36.3053 9.03469 36.0901 8.9463 35.9374C8.86737 35.801 8.78878 35.5971 8.74204 35.1218C8.69176 34.6105 8.6899 33.9443 8.6899 32.8964V21.8045C8.6899 20.7566 8.69176 20.0904 8.74204 19.5791C8.78878 19.1038 8.86737 18.8999 8.9463 18.7635C9.03469 18.6108 9.20959 18.3956 9.67743 18.0261C10.1486 17.6539 10.7934 17.218 11.7505 16.5742L22.2854 10.5105Z" fill="#007A5B"/>
<path fill-rule="evenodd" clip-rule="evenodd" d="M18.7387 0C16.2421 0 14.0613 0.623582 12.5165 2.16409C10.9718 3.7046 10.3465 5.87938 10.3465 8.36917V13.5171L10.0217 13.7041C9.9878 13.7236 9.95463 13.7443 9.9222 13.7661L9.86903 13.8018C8.95198 14.4186 8.18534 14.9342 7.59328 15.4018C6.97852 15.8873 6.43169 16.4114 6.03893 17.09C5.63671 17.785 5.47472 18.5045 5.40117 19.2524C5.33293 19.9464 5.33297 20.7782 5.33301 21.73V32.9708C5.33297 33.9227 5.33293 34.7545 5.40117 35.4485C5.47472 36.1964 5.63671 36.9159 6.03893 37.6109C6.43169 38.2895 6.97852 38.8136 7.59328 39.2991C8.1853 39.7667 8.95188 40.2823 9.86885 40.899L9.9222 40.9349C9.95463 40.9567 9.9878 40.9773 10.0217 40.9968L20.6071 47.0896C21.7182 47.7294 23.0725 48 24.333 48C25.5935 48 26.9482 47.7292 28.0593 47.0894L38.6443 40.9968C38.6782 40.9773 38.7114 40.9567 38.7438 40.9349L38.7971 40.899C39.7139 40.2824 40.4808 39.7667 41.0727 39.2991C41.6875 38.8136 42.2343 38.2895 42.6271 37.6109C43.0293 36.9159 43.1913 36.1964 43.2649 35.4485C43.3331 34.7545 43.3331 33.9228 43.333 32.9709V21.7301C43.3331 20.7782 43.3331 19.9464 43.2649 19.2524C43.1913 18.5045 43.0293 17.785 42.6271 17.09C42.2343 16.4114 41.6875 15.8873 41.0727 15.4018C40.4807 14.9342 39.7141 14.4186 38.797 13.8018L38.7438 13.7661C38.7114 13.7443 38.6782 13.7236 38.6443 13.7041L38.3206 13.5177V8.36917C38.3206 5.87938 37.6953 3.7046 36.1505 2.16409C34.6058 0.623582 32.425 0 29.9283 0H18.7387ZM34.9637 11.5856V8.36917C34.9637 6.39541 34.47 5.22252 33.7768 4.53125C33.0837 3.83998 31.9076 3.34767 29.9283 3.34767H18.7387C16.7595 3.34767 15.5834 3.83998 14.8902 4.53125C14.197 5.22252 13.7034 6.39541 13.7034 8.36917V11.585L20.6067 7.61152C21.7178 6.97176 23.0725 6.70092 24.333 6.70092C25.5935 6.70092 26.9482 6.97176 28.0593 7.61152L34.9637 11.5856ZM22.2854 10.5105C22.7632 10.2354 23.5012 10.0486 24.333 10.0486C25.1648 10.0486 25.9031 10.2356 26.3809 10.5107L36.9155 16.5742C37.8726 17.218 38.5174 17.6539 38.9886 18.0261C39.4564 18.3956 39.6313 18.6108 39.7197 18.7635C39.7987 18.8999 39.8772 19.1038 39.924 19.5791C39.9743 20.0904 39.9761 20.7566 39.9761 21.8045V32.8964C39.9761 33.9443 39.9743 34.6105 39.924 35.1218C39.8772 35.5971 39.7987 35.801 39.7197 35.9374C39.6313 36.0901 39.4564 36.3053 38.9886 36.6748C38.5174 37.047 37.8726 37.4829 36.9155 38.1267L26.3806 44.1904C25.9028 44.4655 25.1648 44.6523 24.333 44.6523C23.5012 44.6523 22.7629 44.4653 22.2851 44.1902L11.7506 38.1267C10.7934 37.4829 10.1486 37.047 9.67743 36.6748C9.20959 36.3053 9.03469 36.0901 8.9463 35.9374C8.86737 35.801 8.78878 35.5971 8.74204 35.1218C8.69176 34.6105 8.6899 33.9443 8.6899 32.8964V21.8045C8.6899 20.7566 8.69176 20.0904 8.74204 19.5791C8.78878 19.1038 8.86737 18.8999 8.9463 18.7635C9.03469 18.6108 9.20959 18.3956 9.67743 18.0261C10.1486 17.6539 10.7934 17.218 11.7505 16.5742L22.2854 10.5105Z" fill="url(#paint0_linear_423_21333)"/>
<path d="M25.7433 20.9039L27.0189 22.8902C27.2203 23.2026 27.6679 23.5151 28.0036 23.6043L30.2863 24.1846C31.6962 24.5417 32.0766 25.7468 31.1591 26.8627L29.6597 28.6705C29.4359 28.9606 29.2568 29.4739 29.2792 29.831L29.4135 32.1744C29.503 33.625 28.4736 34.3615 27.1308 33.8259L24.9376 32.9555C24.602 32.8216 24.0425 32.8216 23.7068 32.9555L21.5136 33.8259C20.1709 34.3615 19.1414 33.6027 19.2309 32.1744L19.3652 29.831C19.3876 29.4739 19.2086 28.9383 18.9848 28.6705L17.4853 26.8627C16.5678 25.7468 16.9482 24.5417 18.3581 24.1846L20.6408 23.6043C20.9989 23.5151 21.4465 23.1803 21.6255 22.8902L22.9011 20.9039C23.7068 19.6987 24.96 19.6987 25.7433 20.9039Z" stroke="#007A5B" stroke-width="3" stroke-linecap="round" stroke-linejoin="round"/>
<path d="M25.7433 20.9039L27.0189 22.8902C27.2203 23.2026 27.6679 23.5151 28.0036 23.6043L30.2863 24.1846C31.6962 24.5417 32.0766 25.7468 31.1591 26.8627L29.6597 28.6705C29.4359 28.9606 29.2568 29.4739 29.2792 29.831L29.4135 32.1744C29.503 33.625 28.4736 34.3615 27.1308 33.8259L24.9376 32.9555C24.602 32.8216 24.0425 32.8216 23.7068 32.9555L21.5136 33.8259C20.1709 34.3615 19.1414 33.6027 19.2309 32.1744L19.3652 29.831C19.3876 29.4739 19.2086 28.9383 18.9848 28.6705L17.4853 26.8627C16.5678 25.7468 16.9482 24.5417 18.3581 24.1846L20.6408 23.6043C20.9989 23.5151 21.4465 23.1803 21.6255 22.8902L22.9011 20.9039C23.7068 19.6987 24.96 19.6987 25.7433 20.9039Z" stroke="url(#paint1_linear_423_21333)" stroke-width="3" stroke-linecap="round" stroke-linejoin="round"/>
<defs>
<linearGradient id="paint0_linear_423_21333" x1="5.33301" y1="24" x2="43.333" y2="24" gradientUnits="userSpaceOnUse">
<stop offset="0.0625" stop-color="#C7863D"/>
<stop offset="0.5" stop-color="#FFCE6F"/>
<stop offset="0.9375" stop-color="#C7863D"/>
</linearGradient>
<linearGradient id="paint1_linear_423_21333" x1="16.9863" y1="27.0003" x2="31.6581" y2="27.0003" gradientUnits="userSpaceOnUse">
<stop offset="0.0625" stop-color="#C7863D"/>
<stop offset="0.5" stop-color="#FFCE6F"/>
<stop offset="0.9375" stop-color="#C7863D"/>
</linearGradient>
</defs>
</svg>
