<svg width="25" height="24" viewBox="0 0 25 24" fill="none" xmlns="http://www.w3.org/2000/svg">
<path d="M6.08908 22H18.5035C22.9469 22 24.2977 20.7027 24.2865 16.4324V14.1838C24.2865 13.7405 23.907 13.373 23.4492 13.373C22.9915 13.373 22.6119 13.7405 22.6119 14.1838V16.4324C22.6119 19.7838 21.9979 20.3676 18.4924 20.3676H6.08908C2.58356 20.3676 1.96954 19.7838 1.96954 16.4324V9.02703H15.0873C15.5451 9.02703 15.9246 8.65946 15.9246 8.21622C15.9246 7.77297 15.5451 7.40541 15.0873 7.40541H1.96997C1.98893 4.18774 2.637 3.62162 6.08908 3.62162H15.0873C15.5451 3.62162 15.9246 3.25405 15.9246 2.81081C15.9246 2.36757 15.5451 2 15.0873 2H6.08908C1.64578 2 0.294922 3.2973 0.294922 7.55676V16.4432C0.294922 20.7027 1.64578 22 6.08908 22Z" fill="url(#paint0_linear_1885_26600)"/>
<path d="M18.4031 5.54595C18.5705 5.70811 18.7827 5.78379 18.9948 5.78379C19.2069 5.78379 19.419 5.70811 19.5865 5.54595L20.3903 4.76758V9.2973C20.3903 9.74054 20.7699 10.1081 21.2276 10.1081C21.6853 10.1081 22.0649 9.74054 22.0649 9.2973V4.76757L22.8687 5.54595C23.1925 5.85946 23.7283 5.85946 24.0521 5.54595C24.3759 5.23243 24.3759 4.71351 24.0521 4.4L21.8193 2.23784C21.5715 1.99786 21.1994 1.94158 20.8932 2.06898C20.7763 2.11538 20.6754 2.18765 20.5954 2.2771L18.4031 4.4C18.0793 4.71352 18.0793 5.23243 18.4031 5.54595Z" fill="url(#paint1_linear_1885_26600)"/>
<path fill-rule="evenodd" clip-rule="evenodd" d="M7.43446 10H6.15539V10.7933C5.15646 10.9987 4.29492 11.6822 4.29492 12.6506C4.29492 13.2642 4.67471 13.7064 5.12928 13.9961C5.57036 14.2772 6.1277 14.4499 6.65052 14.5582C7.07601 14.6464 7.45156 14.7758 7.70549 14.936C7.9498 15.0901 8.01585 15.2251 8.01585 15.3494C8.01585 15.6744 7.59689 16.1258 6.79492 16.1258C5.99296 16.1258 5.57399 15.6744 5.57399 15.3494V15.2048H4.29492V15.3494C4.29492 16.3178 5.15646 17.0013 6.15539 17.2067V18H7.43446V17.2067C8.43338 17.0013 9.29492 16.3178 9.29492 15.3494C9.29492 14.7273 8.89447 14.2842 8.44249 13.9991C7.99877 13.7191 7.44411 13.5464 6.93932 13.4418C6.4903 13.3488 6.11743 13.2193 5.87125 13.0624C5.63979 12.9149 5.57399 12.7833 5.57399 12.6506C5.57399 12.3256 5.99296 11.8742 6.79492 11.8742C7.59689 11.8742 8.01585 12.3256 8.01585 12.6506V12.7952H9.29492V12.6506C9.29492 11.6822 8.43338 10.9987 7.43446 10.7933V10Z" fill="url(#paint2_linear_1885_26600)"/>
<path d="M15.598 18.0016H11.1323C10.6745 18.0016 10.2949 17.6341 10.2949 17.1908C10.2949 16.7476 10.6745 16.38 11.1323 16.38H15.598C16.0558 16.38 16.4354 16.7476 16.4354 17.1908C16.4354 17.6341 16.0558 18.0016 15.598 18.0016Z" fill="url(#paint3_linear_1885_26600)"/>
<defs>
<linearGradient id="paint0_linear_1885_26600" x1="24.2949" y1="12.1625" x2="0.294922" y2="12.1625" gradientUnits="userSpaceOnUse">
<stop stop-color="#025436"/>
<stop offset="1" stop-color="#053725"/>
</linearGradient>
<linearGradient id="paint1_linear_1885_26600" x1="24.2949" y1="12.1625" x2="0.294922" y2="12.1625" gradientUnits="userSpaceOnUse">
<stop stop-color="#025436"/>
<stop offset="1" stop-color="#053725"/>
</linearGradient>
<linearGradient id="paint2_linear_1885_26600" x1="24.2949" y1="12.1625" x2="0.294922" y2="12.1625" gradientUnits="userSpaceOnUse">
<stop stop-color="#025436"/>
<stop offset="1" stop-color="#053725"/>
</linearGradient>
<linearGradient id="paint3_linear_1885_26600" x1="24.2949" y1="12.1625" x2="0.294922" y2="12.1625" gradientUnits="userSpaceOnUse">
<stop stop-color="#025436"/>
<stop offset="1" stop-color="#053725"/>
</linearGradient>
</defs>
</svg>
