<svg width="25" height="24" viewBox="0 0 25 24" fill="none" xmlns="http://www.w3.org/2000/svg">
<path fill-rule="evenodd" clip-rule="evenodd" d="M9.49778 0C8.24945 0 7.15906 0.311791 6.38669 1.08204C5.61431 1.8523 5.30166 2.93969 5.30166 4.18459V6.75856L5.13925 6.85204C5.12232 6.86179 5.10573 6.87213 5.08952 6.88303L5.06293 6.90091C4.60441 7.20928 4.22109 7.46708 3.92506 7.70089C3.61768 7.94366 3.34426 8.20572 3.14788 8.54502C2.94677 8.8925 2.86578 9.25225 2.829 9.62622C2.79488 9.97322 2.7949 10.3891 2.79492 10.865V16.4854C2.7949 16.9613 2.79488 17.3772 2.829 17.7242C2.86578 18.0982 2.94677 18.458 3.14788 18.8054C3.34426 19.1447 3.61768 19.4068 3.92506 19.6496C4.22107 19.8834 4.60436 20.1411 5.06284 20.4495L5.08952 20.4674C5.10573 20.4783 5.12232 20.4887 5.13925 20.4984L10.4319 23.5448C10.9875 23.8647 11.6647 24 12.2949 24C12.9252 24 13.6025 23.8646 14.1581 23.5447L19.4506 20.4984C19.4675 20.4887 19.4841 20.4783 19.5003 20.4674L19.527 20.4495C19.9854 20.1412 20.3688 19.8833 20.6648 19.6496C20.9722 19.4068 21.2456 19.1447 21.442 18.8054C21.6431 18.458 21.7241 18.0982 21.7608 17.7242C21.795 17.3772 21.7949 16.9614 21.7949 16.4855V10.865C21.7949 10.3891 21.795 9.97322 21.7608 9.62622C21.7241 9.25225 21.6431 8.8925 21.442 8.54502C21.2456 8.20572 20.9722 7.94366 20.6648 7.70089C20.3688 7.46709 19.9854 7.20929 19.5269 6.90092L19.5003 6.88303C19.4841 6.87213 19.4675 6.86179 19.4506 6.85204L19.2887 6.75886V4.18459C19.2887 2.93969 18.9761 1.8523 18.2037 1.08204C17.4313 0.311791 16.3409 0 15.0926 0H9.49778ZM17.6103 5.79278V4.18459C17.6103 3.1977 17.3634 2.61126 17.0168 2.26562C16.6702 1.91999 16.0822 1.67383 15.0926 1.67383H9.49778C8.50817 1.67383 7.92012 1.91999 7.57353 2.26562C7.22694 2.61126 6.98011 3.1977 6.98011 4.18459V5.79248L10.4318 3.80576C10.9873 3.48588 11.6647 3.35046 12.2949 3.35046C12.9252 3.35046 13.6025 3.48588 14.1581 3.80576L17.6103 5.79278ZM11.2711 5.25527C11.51 5.1177 11.879 5.0243 12.2949 5.0243C12.7108 5.0243 13.08 5.1178 13.3189 5.25536L18.5862 8.28711C19.0647 8.60901 19.3871 8.82697 19.6227 9.01305C19.8566 9.1978 19.9441 9.30539 19.9883 9.38175C20.0277 9.44994 20.067 9.55189 20.0904 9.78957C20.1155 10.0452 20.1165 10.3783 20.1165 10.9022V16.4482C20.1165 16.9722 20.1155 17.3053 20.0904 17.5609C20.067 17.7986 20.0277 17.9005 19.9883 17.9687C19.9441 18.0451 19.8566 18.1527 19.6227 18.3374C19.3871 18.5235 19.0647 18.7414 18.5861 19.0634L13.3187 22.0952C13.0798 22.2328 12.7108 22.3262 12.2949 22.3262C11.879 22.3262 11.5099 22.2327 11.271 22.0951L6.0037 19.0633C5.52512 18.7414 5.20273 18.5235 4.96713 18.3374C4.73321 18.1527 4.64576 18.0451 4.60157 17.9687C4.5621 17.9005 4.52281 17.7986 4.49944 17.5609C4.4743 17.3053 4.47337 16.9722 4.47337 16.4482V10.9022C4.47337 10.3783 4.4743 10.0452 4.49944 9.78957C4.52281 9.55189 4.5621 9.44994 4.60157 9.38175C4.64576 9.30539 4.73321 9.1978 4.96713 9.01305C5.20273 8.82697 5.52512 8.60901 6.00369 8.28711L11.2711 5.25527Z" fill="url(#paint0_linear_1885_26597)"/>
<path d="M12.9996 10.4519L13.6374 11.4451C13.7381 11.6013 13.9619 11.7575 14.1297 11.8022L15.2711 12.0923C15.976 12.2708 16.1662 12.8734 15.7075 13.4314L14.9578 14.3352C14.8459 14.4803 14.7564 14.737 14.7675 14.9155L14.8347 16.0872C14.8794 16.8125 14.3647 17.1808 13.6933 16.9129L12.5968 16.4777C12.4289 16.4108 12.1492 16.4108 11.9813 16.4777L10.8847 16.9129C10.2134 17.1808 9.69864 16.8013 9.7434 16.0872L9.81053 14.9155C9.82172 14.737 9.73221 14.4691 9.62031 14.3352L8.8706 13.4314C8.41183 12.8734 8.60205 12.2708 9.307 12.0923L10.4483 11.8022C10.6274 11.7575 10.8512 11.5901 10.9407 11.4451L11.5785 10.4519C11.9813 9.84935 12.6079 9.84935 12.9996 10.4519Z" stroke="url(#paint1_linear_1885_26597)" stroke-width="2" stroke-linecap="round" stroke-linejoin="round"/>
<defs>
<linearGradient id="paint0_linear_1885_26597" x1="21.7949" y1="12.195" x2="2.79492" y2="12.195" gradientUnits="userSpaceOnUse">
<stop stop-color="#025436"/>
<stop offset="1" stop-color="#053725"/>
</linearGradient>
<linearGradient id="paint1_linear_1885_26597" x1="15.957" y1="13.557" x2="8.62109" y2="13.557" gradientUnits="userSpaceOnUse">
<stop stop-color="#025436"/>
<stop offset="1" stop-color="#053725"/>
</linearGradient>
</defs>
</svg>
