<svg width="786" height="580" viewBox="0 0 786 580" fill="none" xmlns="http://www.w3.org/2000/svg">
<g opacity="0.2" clip-path="url(#clip0_423_21124)">
<path d="M1.39101 582.325C62.1972 366.523 175.521 225.681 338.234 163.703C499.39 102.318 680.528 130.819 804.103 165.542C874.089 185.206 933.429 208.903 970.885 225.32C1011.46 243.106 1035.79 256.403 1036.04 256.536L1036.77 255.395C1036.53 255.262 1012.13 241.931 971.501 224.124C934.004 207.69 874.592 183.965 804.522 164.279C725.751 142.144 649.841 129.523 578.897 126.747C490.186 123.279 409.034 135.302 337.689 162.479C300.922 176.485 266.195 194.764 234.472 216.81C200.512 240.408 169.088 268.958 141.07 301.659C111.274 336.438 84.5186 376.857 61.5629 421.797C37.2728 469.341 16.5612 523.235 0.00868858 581.993L1.39712 582.331L1.39101 582.325Z" fill="url(#paint0_linear_423_21124)"/>
<path d="M16.2539 583.541C74.2833 370.343 185.411 229.728 346.562 165.6C419.504 136.573 496.863 125.891 571.175 125.891C660.185 125.891 744.833 141.205 812.437 158.669C882.692 176.82 942.356 199.16 980.039 214.701C1020.86 231.539 1045.37 244.25 1045.61 244.371L1046.32 243.213C1046.07 243.086 1021.5 230.348 980.625 213.488C942.9 197.924 883.165 175.557 812.826 157.389C733.756 136.961 657.672 125.891 586.692 124.478C497.934 122.721 416.955 136.141 345.993 164.376C309.567 178.87 275.223 197.526 243.908 219.827C210.396 243.69 179.457 272.368 151.959 305.058C122.72 339.82 96.5748 380.056 74.2535 424.658C50.6395 471.837 30.6581 525.182 14.8656 583.22L16.2599 583.547L16.2539 583.541Z" fill="url(#paint1_linear_423_21124)"/>
<path d="M31.1148 584.773C86.3555 374.24 195.239 233.884 354.738 167.613C432.27 135.4 515.146 123.831 594.133 123.831C677.578 123.831 756.684 136.729 820.667 151.811C891.21 168.438 951.22 189.421 989.137 204.092C1030.22 219.994 1054.95 232.117 1055.19 232.233L1055.87 231.059C1055.62 230.937 1030.86 218.792 989.723 202.873C951.759 188.18 891.683 167.175 821.056 150.525C741.663 131.809 665.394 122.302 594.372 122.263L593.959 122.263C505.308 122.263 424.634 137.106 354.158 166.388C318.09 181.376 284.142 200.408 253.251 222.958C220.2 247.082 189.77 275.882 162.805 308.55C134.134 343.279 108.611 383.326 86.93 427.579C64.0043 474.381 44.7529 527.161 29.7204 584.457L31.1148 584.773Z" fill="url(#paint2_linear_423_21124)"/>
<path d="M45.9756 585.991C98.4337 378.179 205.026 238.117 362.783 169.707C521.378 100.936 703.791 118.29 828.886 144.962C899.734 160.066 960.103 179.691 998.271 193.493C1039.62 208.447 1064.52 219.971 1064.77 220.082L1065.41 218.891C1065.17 218.774 1040.2 207.222 998.797 192.251C960.588 178.433 900.146 158.786 829.215 143.666C749.48 126.667 673.008 118.733 601.926 120.079C513.042 121.769 432.38 138.059 362.179 168.499C326.488 183.974 292.952 203.383 262.505 226.177C229.932 250.561 200.023 279.472 173.602 312.112C145.518 346.802 120.618 386.65 99.5947 430.537C77.3632 476.946 58.8537 529.144 44.5813 585.681L45.9816 585.985L45.9756 585.991Z" fill="url(#paint3_linear_423_21124)"/>
<path d="M60.8443 587.203C110.514 382.172 214.76 242.448 370.692 171.911C528.425 100.558 711.34 114.149 837.016 138.113C908.187 151.682 968.939 169.944 1007.36 182.875C1049 196.882 1074.11 207.814 1074.36 207.925L1074.97 206.722C1074.72 206.611 1049.54 195.652 1007.85 181.629C969.376 168.686 908.552 150.402 837.297 136.816C757.198 121.541 680.504 115.191 609.351 117.945C520.382 121.386 439.87 139.143 370.052 170.725C334.762 186.687 301.657 206.467 271.664 229.505C239.594 254.139 210.218 283.161 184.354 315.767C156.874 350.413 132.608 390.045 112.243 433.556C90.7117 479.554 72.9445 531.154 59.4379 586.92L60.8383 587.208L60.8443 587.203Z" fill="url(#paint4_linear_423_21124)"/>
<path d="M75.7052 588.433C122.586 386.245 224.438 246.892 378.437 174.254C535.297 100.265 718.763 110.055 845.043 131.298C981.903 154.319 1082.93 195.37 1083.94 195.78L1084.52 194.566C1084.26 194.461 1058.87 184.095 1016.88 171.019C978.121 158.951 916.902 142.036 845.3 129.99C764.812 116.449 687.884 111.695 616.653 115.862C527.583 121.07 447.221 140.318 377.791 173.063C342.921 189.513 310.265 209.654 280.744 232.93C249.189 257.807 220.363 286.929 195.073 319.491C168.204 354.081 144.596 393.486 124.896 436.609C104.077 482.186 87.0573 533.171 74.3109 588.145L75.7171 588.422L75.7052 588.433Z" fill="url(#paint5_linear_423_21124)"/>
<path d="M90.5739 589.65C134.672 390.365 234.083 251.439 386.047 176.723C485.069 128.038 595.431 112.657 695.284 112.657C752.704 112.657 806.628 117.738 852.97 124.492C924.853 134.969 986.431 150.488 1025.42 161.664C1067.69 173.776 1093.27 183.533 1093.52 183.627L1094.07 182.397C1093.82 182.297 1068.19 172.523 1025.88 160.401C986.838 149.214 925.194 133.673 853.227 123.179C772.332 111.383 695.147 108.241 623.82 113.837C534.637 120.835 454.418 141.596 385.377 175.538C350.944 192.464 318.76 212.97 289.73 236.474C258.708 261.589 230.45 290.805 205.741 323.312C179.5 357.83 156.55 396.997 137.521 439.72C117.419 484.86 101.148 535.213 89.1616 589.378L90.568 589.644L90.5739 589.65Z" fill="url(#paint6_linear_423_21124)"/>
<path d="M105.427 590.87C146.742 394.549 243.664 256.089 393.498 179.329C548.568 99.8875 733.225 101.976 860.828 117.723C933.094 126.638 995.115 140.783 1034.42 151.072C1077.01 162.225 1102.84 171.389 1103.09 171.478L1103.61 170.237C1103.35 170.143 1077.48 160.967 1034.84 149.797C995.498 139.492 933.405 125.33 861.055 116.404C779.723 106.37 702.268 104.852 630.84 111.894C541.531 120.704 461.443 142.999 392.81 178.16C358.837 195.563 327.144 216.418 298.617 240.149C268.151 265.491 240.474 294.79 216.363 327.231C190.763 361.666 168.483 400.583 150.136 442.891C130.758 487.582 115.241 537.281 104.015 590.616L105.427 590.87Z" fill="url(#paint7_linear_423_21124)"/>
<path d="M120.296 592.099C158.84 398.797 253.224 260.852 400.82 182.092C554.975 99.8358 740.29 98.024 868.611 110.989C941.284 118.33 1003.77 131.085 1043.4 140.493C1086.34 150.688 1112.42 159.253 1112.68 159.337L1113.16 158.084C1112.91 158.001 1086.78 149.419 1043.79 139.213C1004.12 129.794 941.571 117.023 868.808 109.67C787.021 101.404 709.28 101.531 637.738 110.036C548.291 120.674 468.341 144.532 400.108 180.934C366.614 198.803 335.436 220.007 307.43 243.948C277.538 269.507 250.46 298.872 226.953 331.24C202.011 365.581 180.408 404.227 162.748 446.109C144.101 490.328 129.344 539.363 118.871 591.855L120.284 592.099L120.296 592.099Z" fill="url(#paint8_linear_423_21124)"/>
<path d="M135.157 593.311C170.943 403.084 262.741 265.71 408.009 185C561.231 99.8678 747.264 94.1166 876.35 104.284C1016.24 115.304 1121.22 146.863 1122.26 147.179L1122.71 145.916C1122.45 145.838 1096.06 137.854 1052.71 128.618C1012.7 120.097 949.658 108.722 876.47 102.959C794.204 96.4825 716.152 98.261 644.49 108.251C554.887 120.745 475.075 146.182 407.267 183.858C374.282 202.187 343.631 223.723 316.169 247.869C286.87 273.633 260.407 303.059 237.518 335.334C213.245 369.564 192.33 407.932 175.365 449.365C157.454 493.103 143.451 541.456 133.738 593.078L135.151 593.305L135.157 593.311Z" fill="url(#paint9_linear_423_21124)"/>
<path d="M150.031 594.531C183.071 407.441 272.236 270.692 415.063 188.081C567.309 100.024 754.09 90.2836 883.966 97.6249C1024.72 105.576 1130.8 134.736 1131.85 135.03L1132.27 133.755C1132 133.683 1105.33 126.309 1061.6 118.042C1021.25 110.418 957.686 100.456 884.056 96.2952C801.282 91.6189 722.912 95.0763 651.118 106.568C561.354 120.934 481.674 147.984 414.303 186.951C347.159 225.791 291.224 277.119 248.066 339.523C224.476 373.632 204.261 411.701 187.996 452.674C170.827 495.908 157.584 543.563 148.619 594.309L150.037 594.525L150.031 594.531Z" fill="url(#paint10_linear_423_21124)"/>
<path d="M164.884 595.754C195.195 411.85 281.685 275.788 421.969 191.344C573.209 100.305 760.768 86.5314 891.477 91.0138C1033.13 95.8729 1140.36 122.606 1141.43 122.878L1141.8 121.592C1141.54 121.526 1114.58 114.761 1070.45 107.48C1029.73 100.765 965.628 92.2272 891.524 89.684C808.229 86.8251 729.518 91.9779 657.587 104.993C567.65 121.26 488.113 149.938 421.185 190.23C355.196 229.951 300.482 281.628 258.562 343.816C235.666 377.786 216.164 415.54 200.593 456.042C184.172 498.76 171.683 545.695 163.466 595.555L164.884 595.754Z" fill="url(#paint11_linear_423_21124)"/>
<path d="M179.745 596.974C207.345 416.31 291.125 280.992 428.757 194.785C578.95 100.711 767.329 82.8697 898.905 84.4598C1041.5 86.1885 1149.93 110.479 1151.01 110.728L1151.35 109.437C1151.08 109.376 1123.82 103.226 1079.28 96.9373C1038.17 91.1363 973.517 84.0332 898.923 83.1301C815.071 82.1106 736.013 88.9755 663.933 103.531C573.81 121.726 494.416 152.056 427.955 193.688C363.175 234.262 309.712 286.25 269.049 348.199C246.859 382.008 228.068 419.441 213.209 459.45C197.543 501.631 185.807 547.839 178.327 596.785L179.751 596.974L179.745 596.974Z" fill="url(#paint12_linear_423_21124)"/>
<path d="M194.614 598.193C219.527 420.81 300.554 286.311 435.439 198.42C584.543 101.265 773.766 79.2905 906.252 77.9663C1049.83 76.5201 1159.51 98.3557 1160.6 98.5774L1160.91 97.2753C1160.63 97.2199 1133.06 91.6904 1088.08 86.4102C1046.58 81.5344 981.342 75.8885 906.24 76.6365C821.814 77.4842 742.384 86.0778 670.154 102.19C579.846 122.33 500.596 154.344 434.619 197.334C371.09 238.728 318.914 290.993 279.531 352.676C258.059 386.314 239.993 423.397 225.84 462.902C210.927 504.528 199.94 549.989 193.196 598.021L194.62 598.193L194.614 598.193Z" fill="url(#paint13_linear_423_21124)"/>
<path d="M209.481 599.412C231.737 425.359 309.969 291.736 442.012 202.249C589.979 101.969 780.081 75.8173 913.501 71.5343C1058.09 66.8968 1169.08 86.2281 1170.18 86.422L1170.45 85.1144C1170.18 85.0645 1142.27 80.1611 1096.85 75.8948C1054.93 71.9609 989.088 67.7778 913.453 70.2046C828.434 72.9306 748.622 83.2861 676.236 100.972C585.73 123.09 506.642 156.799 441.168 201.174C378.938 243.349 328.077 295.858 289.999 357.243C269.252 390.686 251.915 427.409 238.475 466.399C224.316 507.46 214.083 552.162 208.057 599.252L209.481 599.407L209.481 599.412Z" fill="url(#paint14_linear_423_21124)"/>
<path d="M224.334 600.627C243.956 429.948 319.37 297.272 448.475 206.278C595.239 102.835 786.239 72.4497 920.622 65.1693C1066.27 57.2794 1178.64 74.0896 1179.76 74.2614L1179.99 72.9483C1179.71 72.9039 1151.47 68.6377 1105.58 65.4019C1063.23 62.4156 996.76 59.7173 920.574 63.8451C834.933 68.4826 754.732 80.611 682.185 99.898C591.481 124.011 512.555 159.449 447.613 205.22C386.723 248.132 337.209 300.851 300.454 361.909C280.449 395.142 263.842 431.488 251.108 469.94C237.703 510.42 228.212 554.341 222.91 600.494L224.34 600.633L224.334 600.627Z" fill="url(#paint15_linear_423_21124)"/>
<path d="M239.203 601.846C256.234 434.574 328.793 302.912 454.87 210.511C600.383 103.865 792.317 69.192 927.705 58.8864C1074.45 47.7165 1188.22 61.9614 1189.35 62.1055L1189.55 60.7868C1188.42 60.6427 1074.51 46.3756 927.621 57.5567C841.346 64.1223 760.732 78.0515 688.023 98.9563C597.116 125.091 518.369 162.275 453.984 209.464C394.477 253.074 346.345 305.96 310.924 366.652C291.661 399.657 275.797 435.611 263.774 473.508C251.123 513.39 242.375 556.524 237.773 601.719L239.203 601.846Z" fill="url(#paint16_linear_423_21124)"/>
<path d="M254.07 603.065C268.54 439.229 338.226 308.653 461.197 214.949C605.394 105.068 798.303 66.056 934.733 52.6809C1082.59 38.1866 1197.78 49.833 1198.93 49.9493L1199.09 48.6307C1197.94 48.5088 1082.59 36.8458 934.583 51.3567C847.649 59.8782 766.616 75.6302 693.746 98.1751C602.635 126.36 524.086 165.305 460.282 213.919C402.198 258.177 355.473 311.19 321.399 371.483C302.889 404.24 287.767 439.783 276.451 477.121C264.554 516.387 256.541 558.723 252.633 602.954L254.064 603.065L254.07 603.065Z" fill="url(#paint17_linear_423_21124)"/>
<path d="M268.938 604.292C280.889 443.924 347.679 314.5 467.461 219.611C610.269 106.466 804.148 63.0606 941.648 46.5717C1090.66 28.7031 1207.36 37.7122 1208.52 37.8064L1208.65 36.4822C1207.49 36.388 1090.63 27.3679 941.469 45.253C853.859 55.7581 772.401 73.3607 699.369 97.5566C608.055 127.814 529.715 168.538 466.527 218.597C409.904 263.454 364.615 316.55 331.899 376.411C314.15 408.901 299.769 444.012 289.165 480.774C278.017 519.409 270.734 560.936 267.508 604.197L268.938 604.292Z" fill="url(#paint18_linear_423_21124)"/>
<path d="M283.793 605.506C293.266 448.629 357.149 320.429 473.656 224.466C614.999 108.057 809.865 60.1971 948.442 40.55C1098.64 19.2518 1216.93 25.5847 1218.11 25.6512L1218.2 24.3214C1217.02 24.2549 1098.61 17.9165 948.269 39.2313C859.965 51.7476 778.076 71.2174 704.883 97.0921C613.365 129.444 535.252 171.963 472.717 223.468C417.596 268.868 373.755 322.008 342.415 381.404C325.426 413.606 311.794 448.274 301.89 484.449C291.489 522.446 284.924 563.148 282.369 605.434L283.805 605.506L283.793 605.506Z" fill="url(#paint19_linear_423_21124)"/>
<path d="M298.66 606.721C313.429 285.004 565.176 140.848 773.757 76.5658C891.911 40.1583 1009.04 24.9437 1086.49 18.5942C1170.42 11.7182 1227.13 13.4691 1227.69 13.4912L1227.74 12.1615C1227.18 12.1393 1170.41 10.3829 1086.41 17.2699C1037.07 21.3146 988.132 27.5035 940.952 35.6649C881.971 45.8707 825.575 59.2015 773.345 75.297C640.356 116.276 533.178 175.184 454.79 250.381C408.232 295.038 371.453 346.012 345.463 401.89C316.876 463.346 300.653 532.244 297.236 606.671L298.672 606.727L298.66 606.721Z" fill="url(#paint20_linear_423_21124)"/>
<path d="M313.513 607.938C323.393 290.122 573.961 142.126 782.417 73.9322C900.505 35.3029 1017.89 17.6227 1095.56 9.58878C1179.73 0.889973 1236.7 1.32767 1237.27 1.33322L1237.28 -0.00207675C1236.72 -0.00207666 1179.68 -0.445318 1095.44 8.26457C1045.96 13.3786 996.917 20.6036 949.665 29.7345C890.595 41.1482 834.181 55.5927 781.974 72.6689C649.063 116.141 542.352 176.716 464.802 252.706C418.741 297.84 382.59 348.98 357.354 404.713C329.599 466.009 314.363 534.375 312.077 607.905L313.513 607.944L313.513 607.938Z" fill="url(#paint21_linear_423_21124)"/>
</g>
<defs>
<linearGradient id="paint0_linear_423_21124" x1="1036.77" y1="354.24" x2="0.00268359" y2="354.24" gradientUnits="userSpaceOnUse">
<stop stop-color="#8CC63F"/>
<stop offset="1" stop-color="#39B54A"/>
</linearGradient>
<linearGradient id="paint1_linear_423_21124" x1="1046.32" y1="353.932" x2="14.8596" y2="353.932" gradientUnits="userSpaceOnUse">
<stop stop-color="#8CC63F"/>
<stop offset="1" stop-color="#39B54A"/>
</linearGradient>
<linearGradient id="paint2_linear_423_21124" x1="1055.86" y1="353.518" x2="29.7144" y2="353.518" gradientUnits="userSpaceOnUse">
<stop stop-color="#8CC63F"/>
<stop offset="1" stop-color="#39B54A"/>
</linearGradient>
<linearGradient id="paint3_linear_423_21124" x1="1065.41" y1="352.963" x2="44.5812" y2="352.963" gradientUnits="userSpaceOnUse">
<stop stop-color="#8CC63F"/>
<stop offset="1" stop-color="#39B54A"/>
</linearGradient>
<linearGradient id="paint4_linear_423_21124" x1="1074.97" y1="352.263" x2="59.4439" y2="352.263" gradientUnits="userSpaceOnUse">
<stop stop-color="#8CC63F"/>
<stop offset="1" stop-color="#39B54A"/>
</linearGradient>
<linearGradient id="paint5_linear_423_21124" x1="1084.52" y1="351.416" x2="74.2989" y2="351.416" gradientUnits="userSpaceOnUse">
<stop stop-color="#8CC63F"/>
<stop offset="1" stop-color="#39B54A"/>
</linearGradient>
<linearGradient id="paint6_linear_423_21124" x1="1094.07" y1="350.4" x2="89.1676" y2="350.4" gradientUnits="userSpaceOnUse">
<stop stop-color="#8CC63F"/>
<stop offset="1" stop-color="#39B54A"/>
</linearGradient>
<linearGradient id="paint7_linear_423_21124" x1="1103.62" y1="349.21" x2="104.021" y2="349.21" gradientUnits="userSpaceOnUse">
<stop stop-color="#8CC63F"/>
<stop offset="1" stop-color="#39B54A"/>
</linearGradient>
<linearGradient id="paint8_linear_423_21124" x1="1113.16" y1="347.829" x2="118.883" y2="347.829" gradientUnits="userSpaceOnUse">
<stop stop-color="#8CC63F"/>
<stop offset="1" stop-color="#39B54A"/>
</linearGradient>
<linearGradient id="paint9_linear_423_21124" x1="1122.71" y1="346.226" x2="133.744" y2="346.226" gradientUnits="userSpaceOnUse">
<stop stop-color="#8CC63F"/>
<stop offset="1" stop-color="#39B54A"/>
</linearGradient>
<linearGradient id="paint10_linear_423_21124" x1="1132.27" y1="344.405" x2="148.613" y2="344.405" gradientUnits="userSpaceOnUse">
<stop stop-color="#8CC63F"/>
<stop offset="1" stop-color="#39B54A"/>
</linearGradient>
<linearGradient id="paint11_linear_423_21124" x1="1141.81" y1="342.342" x2="163.466" y2="342.342" gradientUnits="userSpaceOnUse">
<stop stop-color="#8CC63F"/>
<stop offset="1" stop-color="#39B54A"/>
</linearGradient>
<linearGradient id="paint12_linear_423_21124" x1="1151.35" y1="340.005" x2="178.327" y2="340.005" gradientUnits="userSpaceOnUse">
<stop stop-color="#8CC63F"/>
<stop offset="1" stop-color="#39B54A"/>
</linearGradient>
<linearGradient id="paint13_linear_423_21124" x1="1160.91" y1="337.379" x2="193.19" y2="337.379" gradientUnits="userSpaceOnUse">
<stop stop-color="#8CC63F"/>
<stop offset="1" stop-color="#39B54A"/>
</linearGradient>
<linearGradient id="paint14_linear_423_21124" x1="1170.45" y1="334.448" x2="208.051" y2="334.448" gradientUnits="userSpaceOnUse">
<stop stop-color="#8CC63F"/>
<stop offset="1" stop-color="#39B54A"/>
</linearGradient>
<linearGradient id="paint15_linear_423_21124" x1="1180" y1="331.18" x2="222.91" y2="331.181" gradientUnits="userSpaceOnUse">
<stop stop-color="#8CC63F"/>
<stop offset="1" stop-color="#39B54A"/>
</linearGradient>
<linearGradient id="paint16_linear_423_21124" x1="1189.55" y1="327.563" x2="237.773" y2="327.563" gradientUnits="userSpaceOnUse">
<stop stop-color="#8CC63F"/>
<stop offset="1" stop-color="#39B54A"/>
</linearGradient>
<linearGradient id="paint17_linear_423_21124" x1="1199.09" y1="323.573" x2="252.639" y2="323.573" gradientUnits="userSpaceOnUse">
<stop stop-color="#8CC63F"/>
<stop offset="1" stop-color="#39B54A"/>
</linearGradient>
<linearGradient id="paint18_linear_423_21124" x1="1208.65" y1="319.204" x2="267.502" y2="319.204" gradientUnits="userSpaceOnUse">
<stop stop-color="#8CC63F"/>
<stop offset="1" stop-color="#39B54A"/>
</linearGradient>
<linearGradient id="paint19_linear_423_21124" x1="1218.19" y1="314.451" x2="282.363" y2="314.451" gradientUnits="userSpaceOnUse">
<stop stop-color="#8CC63F"/>
<stop offset="1" stop-color="#39B54A"/>
</linearGradient>
<linearGradient id="paint20_linear_423_21124" x1="1227.74" y1="309.333" x2="297.224" y2="309.333" gradientUnits="userSpaceOnUse">
<stop stop-color="#8CC63F"/>
<stop offset="1" stop-color="#39B54A"/>
</linearGradient>
<linearGradient id="paint21_linear_423_21124" x1="1237.28" y1="303.968" x2="312.083" y2="303.968" gradientUnits="userSpaceOnUse">
<stop stop-color="#8CC63F"/>
<stop offset="1" stop-color="#39B54A"/>
</linearGradient>
<clipPath id="clip0_423_21124">
<rect width="786" height="580" fill="white" transform="matrix(-1 1.6135e-07 4.73675e-08 1 786 0)"/>
</clipPath>
</defs>
</svg>
