<svg width="12" height="14" viewBox="0 0 12 14" fill="none" xmlns="http://www.w3.org/2000/svg">
<path d="M3.75781 7.79077H2.74219C2.56445 7.79077 2.4375 7.66382 2.4375 7.48608V6.47046C2.4375 6.31812 2.56445 6.16577 2.74219 6.16577H3.75781C3.91016 6.16577 4.0625 6.31812 4.0625 6.47046V7.48608C4.0625 7.66382 3.91016 7.79077 3.75781 7.79077ZM6.5 7.48608C6.5 7.66382 6.34766 7.79077 6.19531 7.79077H5.17969C5.00195 7.79077 4.875 7.66382 4.875 7.48608V6.47046C4.875 6.31812 5.00195 6.16577 5.17969 6.16577H6.19531C6.34766 6.16577 6.5 6.31812 6.5 6.47046V7.48608ZM8.9375 7.48608C8.9375 7.66382 8.78516 7.79077 8.63281 7.79077H7.61719C7.43945 7.79077 7.3125 7.66382 7.3125 7.48608V6.47046C7.3125 6.31812 7.43945 6.16577 7.61719 6.16577H8.63281C8.78516 6.16577 8.9375 6.31812 8.9375 6.47046V7.48608ZM6.5 9.92358C6.5 10.1013 6.34766 10.2283 6.19531 10.2283H5.17969C5.00195 10.2283 4.875 10.1013 4.875 9.92358V8.90796C4.875 8.75562 5.00195 8.60327 5.17969 8.60327H6.19531C6.34766 8.60327 6.5 8.75562 6.5 8.90796V9.92358ZM4.0625 9.92358C4.0625 10.1013 3.91016 10.2283 3.75781 10.2283H2.74219C2.56445 10.2283 2.4375 10.1013 2.4375 9.92358V8.90796C2.4375 8.75562 2.56445 8.60327 2.74219 8.60327H3.75781C3.91016 8.60327 4.0625 8.75562 4.0625 8.90796V9.92358ZM8.9375 9.92358C8.9375 10.1013 8.78516 10.2283 8.63281 10.2283H7.61719C7.43945 10.2283 7.3125 10.1013 7.3125 9.92358V8.90796C7.3125 8.75562 7.43945 8.60327 7.61719 8.60327H8.63281C8.78516 8.60327 8.9375 8.75562 8.9375 8.90796V9.92358ZM11.375 3.32202V12.2595C11.375 12.9451 10.8164 13.4783 10.1562 13.4783H1.21875C0.533203 13.4783 0 12.9451 0 12.2595V3.32202C0 2.66187 0.533203 2.10327 1.21875 2.10327H2.4375V0.782959C2.4375 0.630615 2.56445 0.478271 2.74219 0.478271H3.75781C3.91016 0.478271 4.0625 0.630615 4.0625 0.782959V2.10327H7.3125V0.782959C7.3125 0.630615 7.43945 0.478271 7.61719 0.478271H8.63281C8.78516 0.478271 8.9375 0.630615 8.9375 0.782959V2.10327H10.1562C10.8164 2.10327 11.375 2.66187 11.375 3.32202ZM10.1562 12.1072V4.54077H1.21875V12.1072C1.21875 12.2087 1.26953 12.2595 1.37109 12.2595H10.0039C10.0801 12.2595 10.1562 12.2087 10.1562 12.1072Z" fill="white"/>
</svg>
